<svg xmlns="http://www.w3.org/2000/svg" xmlns:xlink="http://www.w3.org/1999/xlink" width="432pt" height="418pt" viewBox="0.00 0.00 432.00 417.79">
<g id="graph0" class="graph" transform="scale(0.423509 0.423509) rotate(0) translate(4 982.5)">
<title>TD</title>
<polygon fill="white" stroke="none" points="-4,4 -4,-982.5 1016.05,-982.5 1016.05,4 -4,4"/>
<text text-anchor="middle" x="506.02" y="-7.2" font-family="Times New Roman,serif" font-size="14.00">PAKNECONPRVTKN</text>
<!-- PAKNECONPRVTCN -->
<g id="node1" class="node">
<title>PAKNECONPRVTCN</title>
<g id="a_node1"><a xlink:title="Pvt. Cons., LCU mn
FRML &lt;IDENT&gt; PAKNECONPRVTCN = PAKNECONPRVTKN*PAKNECONPRVTXN $">
<polygon fill="#63b8ff" stroke="black" points="964.05,-978.5 710.2,-978.5 710.2,-942.5 964.05,-942.5 964.05,-978.5"/>
<text text-anchor="start" x="716" y="-955.45" font-family="Times New Roman,serif" font-size="14.00" fill="blue">PAKNECONPRVTCN:Pvt. Cons., LCU mn</text>
</a>
</g>
</g>
<!-- PAKNYYWBTOTLCN -->
<g id="node2" class="node">
<title>PAKNYYWBTOTLCN</title>
<g id="a_node2"><a xlink:title="Total Wage Bill
FRML &lt;IDENT&gt; PAKNYYWBTOTLCN = PAKNYWRTTOTLCN*PAKLMEMPTOTLCN $">
<polygon fill="#63b8ff" stroke="black" points="298.85,-816.5 66.75,-816.5 66.75,-780.5 298.85,-780.5 298.85,-816.5"/>
<text text-anchor="start" x="72.55" y="-793.45" font-family="Times New Roman,serif" font-size="14.00" fill="blue">PAKNYYWBTOTLCN:Total Wage Bill</text>
</a>
</g>
</g>
<!-- PAKNECONPRVTKN -->
<g id="node24" class="node">
<title>PAKNECONPRVTKN</title>
<g id="a_node24"><a xlink:title="HH. Cons Real
FRML &lt;DAMP,STOC&gt; PAKNECONPRVTKN = (PAKNECONPRVTKN(-1)*EXP(PAKNECONPRVTKN_A+ (-0.2*(LOG(PAKNECONPRVTKN(-1))-LOG(1.21203101101442)-LOG((((PAKBXFSTREMTCD(-1)-PAKBMFSTREMTCD(-1))*PAKPANUSATLS(-1))+PAKGGEXPTRNSCN(-1)+PAKNYYWBTOTLCN(-1)*(1-PAKGGREVDRCTXN(-1)/100))/PAKNECONPRVTXN(-1)))+0.763938860758873*((LOG((((PAKBXFSTREMTCD-PAKBMFSTREMTCD)*PAKPANUSATLS)+PAKGGEXPTRNSCN+PAKNYYWBTOTLCN*(1-PAKGGREVDRCTXN/100))/PAKNECONPRVTXN))-(LOG((((PAKBXFSTREMTCD(-1)-PAKBMFSTREMTCD(-1))*PAKPANUSATLS(-1))+PAKGGEXPTRNSCN(-1)+PAKNYYWBTOTLCN(-1)*(1-PAKGGREVDRCTXN(-1)/100))/PAKNECONPRVTXN(-1))))-0.0634474791568939*DURING_2009-0.3*(PAKFMLBLPOLYXN/100-((LOG(PAKNECONPRVTXN))-(LOG(PAKNECONPRVTXN(-1)))))) )) * (1-PAKNECONPRVTKN_D)+ PAKNECONPRVTKN_X*PAKNECONPRVTKN_D  $">
<polygon fill="red" stroke="black" points="626.2,-519.5 401.6,-519.5 401.6,-483.5 626.2,-483.5 626.2,-519.5"/>
<text text-anchor="start" x="407.4" y="-496.45" font-family="Times New Roman,serif" font-size="14.00" fill="blue">PAKNECONPRVTKN:HH. Cons Real</text>
</a>
</g>
</g>
<!-- PAKNYYWBTOTLCN&#45;&gt;PAKNECONPRVTKN -->
<g id="edge16" class="edge">
<title>PAKNYYWBTOTLCN-&gt;PAKNECONPRVTKN</title>
<g id="a_edge16"><a xlink:href="bogus" xlink:title=" PAKNYYWBTOTLCN -&gt; PAKNECONPRVTKN Min. att. -4565%  max: 1280%">
<path fill="none" stroke="black" stroke-width="8" d="M298.98,-797.55C322.56,-793.08 346.11,-785.11 365.6,-771.5 448.49,-713.64 489.34,-593.7 505,-535.14"/>
<polygon fill="black" stroke="black" stroke-width="8" points="512.24,-537.13 507.91,-525.71 498.67,-533.68 512.24,-537.13"/>
</a>
</g>
</g>
<!-- PAKNECONOTHRKN -->
<g id="node3" class="node">
<title>PAKNECONOTHRKN</title>
<g id="a_node3"><a xlink:title="PAKNECONOTHRKN
FRML &lt;IDENT&gt; PAKNECONOTHRKN = PAKNECONOTHRSH**(PAKCESENGYCON)*(PAKNECONPRVTKN*(PAKNECONPRVTXN/PAKNECONOTHRXN)**(PAKCESENGYCON)) $">
<polygon fill="#63b8ff" stroke="black" points="909.3,-924.5 764.95,-924.5 764.95,-888.5 909.3,-888.5 909.3,-924.5"/>
<text text-anchor="start" x="770.75" y="-901.45" font-family="Times New Roman,serif" font-size="14.00" fill="blue">PAKNECONOTHRKN:</text>
</a>
</g>
</g>
<!-- PAKPANUSATLS -->
<g id="node4" class="node">
<title>PAKPANUSATLS</title>
<g id="a_node4"><a xlink:title="Exchange rate LCU / US$ - Pakistan
FRML &lt;DAMP,STOC&gt; PAKPANUSATLS = (PAKPANUSATLS(-1)*EXP(PAKPANUSATLS_A+ ((0.295032006650061*((USAINTRXN/100-(( (100 * ( (USANECONPRVTXN) / (USANECONPRVTXN(-1)) -1)) /100+ (100 * ( (USANECONPRVTXN(-1)) / (USANECONPRVTXN(-2)) -1)) /100+ (100 * ( (USANECONPRVTXN(-2)) / (USANECONPRVTXN(-3)) -1)) /100+ (100 * ( (USANECONPRVTXN(-3)) / (USANECONPRVTXN(-4)) -1)) /100)/4.0))-(PAKMPPOLNATRXN/100-PAKINFLEXPT/100))+0.0745339074046556*( (100 * ( (USANECONPRVTXN) / (USANECONPRVTXN(-1)) -1)) /100- (100 * ( (PAKNECONPRVTXN) / (PAKNECONPRVTXN(-1)) -1)) /100))+0.204055946624338*DURING_2009+0.0213) )) * (1-PAKPANUSATLS_D)+ PAKPANUSATLS_X*PAKPANUSATLS_D  $">
<polygon fill="#63b8ff" stroke="black" points="341.97,-762.5 23.62,-762.5 23.62,-726.5 341.97,-726.5 341.97,-762.5"/>
<text text-anchor="start" x="29.42" y="-739.45" font-family="Times New Roman,serif" font-size="14.00" fill="blue">PAKPANUSATLS:Exchange rate LCU / US$ - Pakistan</text>
</a>
</g>
</g>
<!-- PAKPANUSATLS&#45;&gt;PAKNECONPRVTKN -->
<g id="edge25" class="edge">
<title>PAKPANUSATLS-&gt;PAKNECONPRVTKN</title>
<g id="a_edge25"><a xlink:href="bogus" xlink:title=" PAKPANUSATLS -&gt; PAKNECONPRVTKN Min. att. -12%  max: 42%">
<path fill="none" stroke="black" stroke-width="4.16" d="M342.44,-729.32C350.52,-725.99 358.3,-722.08 365.6,-717.5 435.4,-673.75 480.26,-583.48 500.47,-534.63"/>
<polygon fill="black" stroke="black" stroke-width="4.16" points="504.06,-535.41 504.37,-524.78 497.3,-532.73 504.06,-535.41"/>
</a>
</g>
</g>
<!-- PAKGGEXPTRNSCN -->
<g id="node5" class="node">
<title>PAKGGEXPTRNSCN</title>
<g id="a_node5"><a xlink:title="Current Transfers
FRML &lt;DAMP,STOC&gt; PAKGGEXPTRNSCN = (0.91020884318931*PAKGGEXPTRNSCN(-1)+(1-0.91020884318931)*(0.06*(PAKGGREVTOTLCN-PAKGGEXPINTPCN(-0))) + PAKGGEXPTRNSCN_A)* (1-PAKGGEXPTRNSCN_D)+ PAKGGEXPTRNSCN_X*PAKGGEXPTRNSCN_D  $">
<polygon fill="#63b8ff" stroke="black" points="300.35,-708.5 65.25,-708.5 65.25,-672.5 300.35,-672.5 300.35,-708.5"/>
<text text-anchor="start" x="71.05" y="-685.45" font-family="Times New Roman,serif" font-size="14.00" fill="blue">PAKGGEXPTRNSCN:Current Transfers</text>
</a>
</g>
</g>
<!-- PAKGGEXPTRNSCN&#45;&gt;PAKNECONPRVTKN -->
<g id="edge26" class="edge">
<title>PAKGGEXPTRNSCN-&gt;PAKNECONPRVTKN</title>
<g id="a_edge26"><a xlink:href="bogus" xlink:title=" PAKGGEXPTRNSCN -&gt; PAKNECONPRVTKN Min. att. -114%  max: 31%">
<path fill="none" stroke="black" stroke-width="8" d="M300.57,-685.2C323.05,-680.9 345.75,-674.09 365.6,-663.5 422.87,-632.94 469.28,-571.07 493.83,-533.26"/>
<polygon fill="black" stroke="black" stroke-width="8" points="499.88,-537.02 499.29,-524.83 488.04,-529.56 499.88,-537.02"/>
</a>
</g>
</g>
<!-- PAKFMLBLPOLYXN -->
<g id="node6" class="node">
<title>PAKFMLBLPOLYXN</title>
<g id="a_node6"><a xlink:title="Key Policy Interest Rate
FRML &lt;DAMP,STOC&gt; PAKFMLBLPOLYXN = (100*PAKFMLBLPOLYXN_A+100* (0.900155952396245*PAKFMLBLPOLYXN(-1)/100+(1-0.900155952396245)*(PAKMPPOLNATRXN/100+1.2*(((LOG(PAKNECONPRVTXN))-(LOG(PAKNECONPRVTXN(-1))))-PAKINFLEXPT/100)+0.5*PAKNYGDPGAP_/100)) ) * (1-PAKFMLBLPOLYXN_D)+ PAKFMLBLPOLYXN_X*PAKFMLBLPOLYXN_D  $">
<polygon fill="#63b8ff" stroke="black" points="320.22,-654.5 45.37,-654.5 45.37,-618.5 320.22,-618.5 320.22,-654.5"/>
<text text-anchor="start" x="51.17" y="-631.45" font-family="Times New Roman,serif" font-size="14.00" fill="blue">PAKFMLBLPOLYXN:Key Policy Interest Rate</text>
</a>
</g>
</g>
<!-- PAKFMLBLPOLYXN&#45;&gt;PAKNECONPRVTKN -->
<g id="edge11" class="edge">
<title>PAKFMLBLPOLYXN-&gt;PAKNECONPRVTKN</title>
<g id="a_edge11"><a xlink:href="bogus" xlink:title=" PAKFMLBLPOLYXN -&gt; PAKNECONPRVTKN Min. att. -780%  max: 213%">
<path fill="none" stroke="black" stroke-width="8" d="M320.29,-623.64C335.87,-620.01 351.29,-615.38 365.6,-609.5 410.62,-590.99 454.61,-555.85 482.61,-530.68"/>
<polygon fill="black" stroke="black" stroke-width="8" points="486.69,-535.83 489.31,-523.91 477.21,-525.54 486.69,-535.83"/>
</a>
</g>
</g>
<!-- PAKSMAGRFSNGKN -->
<g id="node7" class="node">
<title>PAKSMAGRFSNGKN</title>
<g id="a_node7"><a xlink:title="PAKSMAGRFSNGKN
FRML &lt;IDENT&gt; PAKSMAGRFSNGKN = ((1+1.92407325889309)*(0.00246195499563977*PAKNECONPRVTKN+0*PAKNECONGOVTKN+0*PAKNEGDIFTOTKN+0.00130433854799597*PAKNEEXPGNFSKN+0.00497657560072267*PAKNEGDISTKBKN)-1.14989260682794E-05*PAKNEIMPGNFSKN-2.46467171367829E-07*PAKNYTAXNINDKN-26993)/(1+0.506095544048804) $">
<polygon fill="#63b8ff" stroke="black" points="909.3,-870.5 764.95,-870.5 764.95,-834.5 909.3,-834.5 909.3,-870.5"/>
<text text-anchor="start" x="770.75" y="-847.45" font-family="Times New Roman,serif" font-size="14.00" fill="blue">PAKSMAGRFSNGKN:</text>
</a>
</g>
</g>
<!-- PAKNYGDPMKTPKN -->
<g id="node8" class="node">
<title>PAKNYGDPMKTPKN</title>
<g id="a_node8"><a xlink:title="Real GDP
FRML &lt;IDENT&gt; PAKNYGDPMKTPKN = PAKNECONPRVTKN+PAKNECONGOVTKN+PAKNEGDIFTOTKN+PAKNEGDISTKBKN+PAKNEEXPGNFSKN-PAKNEIMPGNFSKN+PAKNYGDPDISCKN+PAKADAP*PAKDISPREPKN $">
<polygon fill="#63b8ff" stroke="black" points="937.8,-816.5 736.45,-816.5 736.45,-780.5 937.8,-780.5 937.8,-816.5"/>
<text text-anchor="start" x="742.25" y="-793.45" font-family="Times New Roman,serif" font-size="14.00" fill="blue">PAKNYGDPMKTPKN:Real GDP</text>
</a>
</g>
</g>
<!-- PAKSMSRVWHSLKN -->
<g id="node9" class="node">
<title>PAKSMSRVWHSLKN</title>
<g id="a_node9"><a xlink:title="PAKSMSRVWHSLKN
FRML &lt;IDENT&gt; PAKSMSRVWHSLKN = ((1+1.17766663382018E-08)*(0*PAKNECONPRVTKN+0*PAKNECONGOVTKN+0*PAKNEGDIFTOTKN+0*PAKNEEXPGNFSKN+0*PAKNEGDISTKBKN)-0*PAKNEIMPGNFSKN-0*PAKNYTAXNINDKN--4160770)/(1+0.265916086910196) $">
<polygon fill="#63b8ff" stroke="black" points="910.05,-762.5 764.2,-762.5 764.2,-726.5 910.05,-726.5 910.05,-762.5"/>
<text text-anchor="start" x="770" y="-739.45" font-family="Times New Roman,serif" font-size="14.00" fill="blue">PAKSMSRVWHSLKN:</text>
</a>
</g>
</g>
<!-- PAKGGREVDRCTXN -->
<g id="node10" class="node">
<title>PAKGGREVDRCTXN</title>
<g id="a_node10"><a xlink:title="Direct Revenue Tax Rate
Exogen">
<polygon fill="yellow" stroke="black" points="322.85,-600.5 42.75,-600.5 42.75,-564.5 322.85,-564.5 322.85,-600.5"/>
<text text-anchor="start" x="48.55" y="-577.45" font-family="Times New Roman,serif" font-size="14.00" fill="blue">PAKGGREVDRCTXN:Direct Revenue Tax Rate</text>
</a>
</g>
</g>
<!-- PAKGGREVDRCTXN&#45;&gt;PAKNECONPRVTKN -->
<g id="edge8" class="edge">
<title>PAKGGREVDRCTXN-&gt;PAKNECONPRVTKN</title>
<g id="a_edge8"><a xlink:href="bogus" xlink:title=" PAKGGREVDRCTXN -&gt; PAKNECONPRVTKN Min. att. -0%  max: 0%">
<path fill="none" stroke="black" d="M323.34,-564.75C337.7,-562.04 351.99,-558.97 365.6,-555.5 397.57,-547.36 432.26,-534.83 459.94,-523.89"/>
<polygon fill="black" stroke="black" points="460.82,-526.91 468.81,-519.94 458.22,-520.41 460.82,-526.91"/>
</a>
</g>
</g>
<!-- PAKSMINDCNSTKN -->
<g id="node11" class="node">
<title>PAKSMINDCNSTKN</title>
<g id="a_node11"><a xlink:title="PAKSMINDCNSTKN
FRML &lt;IDENT&gt; PAKSMINDCNSTKN = ((1+0.0370651228196874)*(0*PAKNECONPRVTKN+0*PAKNECONGOVTKN+0.433487212699245*PAKNEGDIFTOTKN+0.00170061231445462*PAKNEEXPGNFSKN+0.0166541213494276*PAKNEGDISTKBKN)-0.00444968266528859*PAKNEIMPGNFSKN-0*PAKNYTAXNINDKN-55116.3653855153)/(1+1.91367284458402) $">
<polygon fill="#63b8ff" stroke="black" points="907.05,-708.5 767.2,-708.5 767.2,-672.5 907.05,-672.5 907.05,-708.5"/>
<text text-anchor="start" x="773" y="-685.45" font-family="Times New Roman,serif" font-size="14.00" fill="blue">PAKSMINDCNSTKN:</text>
</a>
</g>
</g>
<!-- PAKNECONPRVTKN_A -->
<g id="node12" class="node">
<title>PAKNECONPRVTKN_A</title>
<g id="a_node12"><a xlink:title="Add factor:HH. Cons Real
Exogen">
<polygon fill="yellow" stroke="black" points="334.47,-546.5 31.12,-546.5 31.12,-510.5 334.47,-510.5 334.47,-546.5"/>
<text text-anchor="start" x="36.92" y="-523.45" font-family="Times New Roman,serif" font-size="14.00" fill="blue">PAKNECONPRVTKN_A:Add factor:HH. Cons Real</text>
</a>
</g>
</g>
<!-- PAKNECONPRVTKN_A&#45;&gt;PAKNECONPRVTKN -->
<g id="edge1" class="edge">
<title>PAKNECONPRVTKN_A-&gt;PAKNECONPRVTKN</title>
<g id="a_edge1"><a xlink:href="bogus" xlink:title=" PAKNECONPRVTKN_A -&gt; PAKNECONPRVTKN Min. att. -0%  max: 0%">
<path fill="none" stroke="black" d="M334.87,-516.11C353.42,-514.58 372.21,-513.04 390.28,-511.56"/>
<polygon fill="black" stroke="black" points="390.44,-514.98 400.12,-510.67 389.87,-508 390.44,-514.98"/>
</a>
</g>
</g>
<!-- PAKNECONPRVTKN_D -->
<g id="node13" class="node">
<title>PAKNECONPRVTKN_D</title>
<g id="a_node13"><a xlink:title="Fix dummy:HH. Cons Real
Exogen">
<polygon fill="yellow" stroke="black" points="337.47,-492.5 28.12,-492.5 28.12,-456.5 337.47,-456.5 337.47,-492.5"/>
<text text-anchor="start" x="33.92" y="-469.45" font-family="Times New Roman,serif" font-size="14.00" fill="blue">PAKNECONPRVTKN_D:Fix dummy:HH. Cons Real</text>
</a>
</g>
</g>
<!-- PAKNECONPRVTKN_D&#45;&gt;PAKNECONPRVTKN -->
<g id="edge30" class="edge">
<title>PAKNECONPRVTKN_D-&gt;PAKNECONPRVTKN</title>
<g id="a_edge30"><a xlink:href="bogus" xlink:title=" PAKNECONPRVTKN_D -&gt; PAKNECONPRVTKN Min. att. -0%  max: 0%">
<path fill="none" stroke="black" d="M337.75,-487.13C355.48,-488.59 373.38,-490.05 390.61,-491.47"/>
<polygon fill="black" stroke="black" points="390,-495.01 400.25,-492.34 390.57,-488.03 390,-495.01"/>
</a>
</g>
</g>
<!-- DURING_2009 -->
<g id="node14" class="node">
<title>DURING_2009</title>
<g id="a_node14"><a xlink:title="DURING_2009
Exogen">
<polygon fill="yellow" stroke="black" points="233.6,-438.5 132,-438.5 132,-402.5 233.6,-402.5 233.6,-438.5"/>
<text text-anchor="start" x="137.8" y="-415.45" font-family="Times New Roman,serif" font-size="14.00" fill="blue">DURING_2009:</text>
</a>
</g>
</g>
<!-- DURING_2009&#45;&gt;PAKNECONPRVTKN -->
<g id="edge14" class="edge">
<title>DURING_2009-&gt;PAKNECONPRVTKN</title>
<g id="a_edge14"><a xlink:href="bogus" xlink:title=" DURING_2009 -&gt; PAKNECONPRVTKN Min. att. -0%  max: 0%">
<path fill="none" stroke="black" d="M233.72,-425.14C270.56,-429.23 321.69,-436.32 365.6,-447.5 397.57,-455.64 432.26,-468.17 459.94,-479.11"/>
<polygon fill="black" stroke="black" points="458.22,-482.59 468.81,-483.06 460.82,-476.09 458.22,-482.59"/>
</a>
</g>
</g>
<!-- PAKSMINDMNGSKN -->
<g id="node15" class="node">
<title>PAKSMINDMNGSKN</title>
<g id="a_node15"><a xlink:title="PAKSMINDMNGSKN
FRML &lt;IDENT&gt; PAKSMINDMNGSKN = ((1+6.96158341862144)*(0.0132800565666619*PAKNECONPRVTKN+0*PAKNECONGOVTKN+0*PAKNEGDIFTOTKN+0.00704674623894759*PAKNEEXPGNFSKN+0.024122890632682*PAKNEGDISTKBKN)-0.134221966110302*PAKNEIMPGNFSKN-0.500981557895139*PAKNYTAXNINDKN-123652.869264758)/(1+0.200800622280983) $">
<polygon fill="#63b8ff" stroke="black" points="909.67,-654.5 764.58,-654.5 764.58,-618.5 909.67,-618.5 909.67,-654.5"/>
<text text-anchor="start" x="770.38" y="-631.45" font-family="Times New Roman,serif" font-size="14.00" fill="blue">PAKSMINDMNGSKN:</text>
</a>
</g>
</g>
<!-- PAKSMSRVFINSKN -->
<g id="node16" class="node">
<title>PAKSMSRVFINSKN</title>
<g id="a_node16"><a xlink:title="PAKSMSRVFINSKN
FRML &lt;IDENT&gt; PAKSMSRVFINSKN = ((1+1.04148314760779)*(0.0520379651885469*PAKNECONPRVTKN+0*PAKNECONGOVTKN+0*PAKNEGDIFTOTKN+0.00879145012359898*PAKNEEXPGNFSKN+0*PAKNEGDISTKBKN)-0.00594416979264236*PAKNEIMPGNFSKN-0.000103762679145856*PAKNYTAXNINDKN-0)/(1+0.24687745523084) $">
<polygon fill="#63b8ff" stroke="black" points="905.17,-600.5 769.08,-600.5 769.08,-564.5 905.17,-564.5 905.17,-600.5"/>
<text text-anchor="start" x="774.88" y="-577.45" font-family="Times New Roman,serif" font-size="14.00" fill="blue">PAKSMSRVFINSKN:</text>
</a>
</g>
</g>
<!-- PAKSMAGRCRPSKN -->
<g id="node17" class="node">
<title>PAKSMAGRCRPSKN</title>
<g id="a_node17"><a xlink:title="PAKSMAGRCRPSKN
FRML &lt;IDENT&gt; PAKSMAGRCRPSKN = ((1+2.09928590574241)*(0.144287620838506*PAKNECONPRVTKN+0*PAKNECONGOVTKN+0*PAKNEGDIFTOTKN+0.0572678299039023*PAKNEEXPGNFSKN+0.267381669083985*PAKNEGDISTKBKN)-0.0736247088197363*PAKNEIMPGNFSKN-0.0407034395686347*PAKNYTAXNINDKN-906311)/(1+0.396041694659877) $">
<polygon fill="#63b8ff" stroke="black" points="908.55,-546.5 765.7,-546.5 765.7,-510.5 908.55,-510.5 908.55,-546.5"/>
<text text-anchor="start" x="771.5" y="-523.45" font-family="Times New Roman,serif" font-size="14.00" fill="blue">PAKSMAGRCRPSKN:</text>
</a>
</g>
</g>
<!-- PAKSMSRVHSNGKN -->
<g id="node18" class="node">
<title>PAKSMSRVHSNGKN</title>
<g id="a_node18"><a xlink:title="PAKSMSRVHSNGKN
FRML &lt;IDENT&gt; PAKSMSRVHSNGKN = ((1+0.782809577554843)*(0.0647364660896117*PAKNECONPRVTKN+0*PAKNECONGOVTKN+0.00605333595533851*PAKNEGDIFTOTKN+0.03048358523237*PAKNEEXPGNFSKN+0*PAKNEGDISTKBKN)-0.0244768173208691*PAKNEIMPGNFSKN-0.0684093628903126*PAKNYTAXNINDKN-0)/(1+0.150771193398883) $">
<polygon fill="#63b8ff" stroke="black" points="908.92,-492.5 765.33,-492.5 765.33,-456.5 908.92,-456.5 908.92,-492.5"/>
<text text-anchor="start" x="771.12" y="-469.45" font-family="Times New Roman,serif" font-size="14.00" fill="blue">PAKSMSRVHSNGKN:</text>
</a>
</g>
</g>
<!-- PAKNECONPRVTXN -->
<g id="node19" class="node">
<title>PAKNECONPRVTXN</title>
<g id="a_node19"><a xlink:title="Implicit LCU defl., Pvt. Cons., 2000 = 1
FRML &lt;IDENT&gt; PAKNECONPRVTXN = ((PAKNECONENGYSH**PAKCESENGYCON)*PAKNECONENGYXN**(1-PAKCESENGYCON)+(PAKNECONOTHRSH**PAKCESENGYCON)*PAKNECONOTHRXN**(1-PAKCESENGYCON))**(1/(1-PAKCESENGYCON)) $">
<polygon fill="#63b8ff" stroke="black" points="365.6,-384.5 0,-384.5 0,-348.5 365.6,-348.5 365.6,-384.5"/>
<text text-anchor="start" x="5.8" y="-361.45" font-family="Times New Roman,serif" font-size="14.00" fill="blue">PAKNECONPRVTXN:Implicit LCU defl., Pvt. Cons., 2000 = 1</text>
</a>
</g>
</g>
<!-- PAKNECONPRVTXN&#45;&gt;PAKNECONPRVTKN -->
<g id="edge3" class="edge">
<title>PAKNECONPRVTXN-&gt;PAKNECONPRVTKN</title>
<g id="a_edge3"><a xlink:href="bogus" xlink:title=" PAKNECONPRVTXN -&gt; PAKNECONPRVTKN Min. att. -1573%  max: 5702%">
<path fill="none" stroke="black" stroke-width="8" d="M341.3,-384.94C349.63,-387.45 357.78,-390.28 365.6,-393.5 410.62,-412.01 454.61,-447.15 482.61,-472.32"/>
<polygon fill="black" stroke="black" stroke-width="8" points="477.21,-477.46 489.31,-479.09 486.69,-467.17 477.21,-477.46"/>
</a>
</g>
</g>
<!-- PAKNEGDETTOTKN -->
<g id="node20" class="node">
<title>PAKNEGDETTOTKN</title>
<g id="a_node20"><a xlink:title="Total demand, constant LCU
FRML &lt;IDENT&gt; PAKNEGDETTOTKN = (PAKNECONPRVTKN+PAKNECONGOVTKN+PAKNEGDIFTOTKN+PAKNEGDISTKBKN+PAKNYGDPDISCKN) $">
<polygon fill="#63b8ff" stroke="black" points="986.92,-438.5 687.33,-438.5 687.33,-402.5 986.92,-402.5 986.92,-438.5"/>
<text text-anchor="start" x="693.12" y="-415.45" font-family="Times New Roman,serif" font-size="14.00" fill="blue">PAKNEGDETTOTKN:Total demand, constant LCU</text>
</a>
</g>
</g>
<!-- PAKNECONPRVTKN_FITTED -->
<g id="node21" class="node">
<title>PAKNECONPRVTKN_FITTED</title>
<g id="a_node21"><a xlink:title="Fitted  value:HH. Cons Real
FRML &lt;FIT&gt; PAKNECONPRVTKN_FITTED = PAKNECONPRVTKN(-1)*EXP( (-0.2*(LOG(PAKNECONPRVTKN(-1))-LOG(1.21203101101442)-LOG((((PAKBXFSTREMTCD(-1)-PAKBMFSTREMTCD(-1))*PAKPANUSATLS(-1))+PAKGGEXPTRNSCN(-1)+PAKNYYWBTOTLCN(-1)*(1-PAKGGREVDRCTXN(-1)/100))/PAKNECONPRVTXN(-1)))+0.763938860758873*((LOG((((PAKBXFSTREMTCD-PAKBMFSTREMTCD)*PAKPANUSATLS)+PAKGGEXPTRNSCN+PAKNYYWBTOTLCN*(1-PAKGGREVDRCTXN/100))/PAKNECONPRVTXN))-(LOG((((PAKBXFSTREMTCD(-1)-PAKBMFSTREMTCD(-1))*PAKPANUSATLS(-1))+PAKGGEXPTRNSCN(-1)+PAKNYYWBTOTLCN(-1)*(1-PAKGGREVDRCTXN(-1)/100))/PAKNECONPRVTXN(-1))))-0.0634474791568939*DURING_2009-0.3*(PAKFMLBLPOLYXN/100-((LOG(PAKNECONPRVTXN))-(LOG(PAKNECONPRVTXN(-1)))))) ) $">
<polygon fill="#63b8ff" stroke="black" points="1012.05,-384.5 662.2,-384.5 662.2,-348.5 1012.05,-348.5 1012.05,-384.5"/>
<text text-anchor="start" x="668" y="-361.45" font-family="Times New Roman,serif" font-size="14.00" fill="blue">PAKNECONPRVTKN_FITTED:Fitted  value:HH. Cons Real</text>
</a>
</g>
</g>
<!-- PAKSMINDOTHRTKN -->
<g id="node22" class="node">
<title>PAKSMINDOTHRTKN</title>
<g id="a_node22"><a xlink:title="PAKSMINDOTHRTKN
FRML &lt;IDENT&gt; PAKSMINDOTHRTKN = ((1+0.483473985412524)*(0.40172973397176*PAKNECONPRVTKN+0*PAKNECONGOVTKN+0.560459287907094*PAKNEGDIFTOTKN+0.719299486591763*PAKNEEXPGNFSKN+0.620970563578771*PAKNEGDISTKBKN)-0.606734386430279*PAKNEIMPGNFSKN-0.866045585295928*PAKNYTAXNINDKN-2983275.63714814)/(1+2.46379868577176) $">
<polygon fill="#63b8ff" stroke="black" points="911.92,-330.5 762.33,-330.5 762.33,-294.5 911.92,-294.5 911.92,-330.5"/>
<text text-anchor="start" x="768.12" y="-307.45" font-family="Times New Roman,serif" font-size="14.00" fill="blue">PAKSMINDOTHRTKN:</text>
</a>
</g>
</g>
<!-- PAKSMSRVGOVSKN -->
<g id="node23" class="node">
<title>PAKSMSRVGOVSKN</title>
<g id="a_node23"><a xlink:title="PAKSMSRVGOVSKN
FRML &lt;IDENT&gt; PAKSMSRVGOVSKN = ((1+0)*(0*PAKNECONPRVTKN+0.789129947325563*PAKNECONGOVTKN+0*PAKNEGDIFTOTKN+0*PAKNEEXPGNFSKN+0*PAKNEGDISTKBKN)-0*PAKNEIMPGNFSKN-0*PAKNYTAXNINDKN-0)/(1+0.947258014252215) $">
<polygon fill="#63b8ff" stroke="black" points="908.92,-276.5 765.33,-276.5 765.33,-240.5 908.92,-240.5 908.92,-276.5"/>
<text text-anchor="start" x="771.12" y="-253.45" font-family="Times New Roman,serif" font-size="14.00" fill="blue">PAKSMSRVGOVSKN:</text>
</a>
</g>
</g>
<!-- PAKNECONPRVTKN&#45;&gt;PAKNECONPRVTCN -->
<g id="edge2" class="edge">
<title>PAKNECONPRVTKN-&gt;PAKNECONPRVTCN</title>
<g id="a_edge2"><a xlink:href="bogus" xlink:title=" PAKNECONPRVTKN -&gt; PAKNECONPRVTCN Min. att. -159%  max: 26%">
<path fill="none" stroke="black" stroke-width="8" d="M514.93,-519.89C516.1,-587.27 529.87,-822.47 662.2,-933.5 671.94,-941.67 683.1,-947.9 694.97,-952.6"/>
<polygon fill="black" stroke="black" stroke-width="8" points="692.03,-959.02 703.75,-955.6 696.52,-945.76 692.03,-959.02"/>
</a>
</g>
</g>
<!-- PAKNECONPRVTKN&#45;&gt;PAKNECONOTHRKN -->
<g id="edge22" class="edge">
<title>PAKNECONPRVTKN-&gt;PAKNECONOTHRKN</title>
<g id="a_edge22"><a xlink:href="bogus" xlink:title=" PAKNECONPRVTKN -&gt; PAKNECONOTHRKN Min. att. -2053%  max: 826%">
<path fill="none" stroke="black" stroke-width="8" d="M515.91,-519.75C520.38,-581.57 543.86,-784.46 662.2,-879.5 686.44,-898.97 718.9,-907.23 749.2,-910.11"/>
<polygon fill="black" stroke="black" stroke-width="8" points="748.35,-917.47 758.8,-911.16 749.29,-903.5 748.35,-917.47"/>
</a>
</g>
</g>
<!-- PAKNECONPRVTKN&#45;&gt;PAKSMAGRFSNGKN -->
<g id="edge5" class="edge">
<title>PAKNECONPRVTKN-&gt;PAKSMAGRFSNGKN</title>
<g id="a_edge5"><a xlink:href="bogus" xlink:title=" PAKNECONPRVTKN -&gt; PAKSMAGRFSNGKN Min. att. 22%  max: 3174%">
<path fill="none" stroke="black" stroke-width="8" d="M517.21,-519.91C525.31,-576.09 557.84,-746.32 662.2,-825.5 686.65,-844.05 718.69,-852.2 748.6,-855.26"/>
<polygon fill="black" stroke="black" stroke-width="8" points="747.97,-862.68 758.46,-856.44 749.01,-848.72 747.97,-862.68"/>
</a>
</g>
</g>
<!-- PAKNECONPRVTKN&#45;&gt;PAKNYGDPMKTPKN -->
<g id="edge12" class="edge">
<title>PAKNECONPRVTKN-&gt;PAKNYGDPMKTPKN</title>
<g id="a_edge12"><a xlink:href="bogus" xlink:title=" PAKNECONPRVTKN -&gt; PAKNYGDPMKTPKN Min. att. -6968%  max: 6491%">
<path fill="none" stroke="black" stroke-width="8" d="M518.91,-519.68C530.89,-569.31 571.34,-707.63 662.2,-771.5 679.42,-783.6 699.96,-791.15 720.79,-795.71"/>
<polygon fill="black" stroke="black" stroke-width="8" points="719.23,-802.65 730.34,-797.59 721.78,-788.88 719.23,-802.65"/>
</a>
</g>
</g>
<!-- PAKNECONPRVTKN&#45;&gt;PAKSMSRVWHSLKN -->
<g id="edge29" class="edge">
<title>PAKNECONPRVTKN-&gt;PAKSMSRVWHSLKN</title>
<g id="a_edge29"><a xlink:href="bogus" xlink:title=" PAKNECONPRVTKN -&gt; PAKSMSRVWHSLKN Min. att. 0%  max: 0%">
<path fill="none" stroke="black" d="M521.45,-519.74C537.78,-562.36 584.67,-668.55 662.2,-717.5 689.01,-734.43 722.66,-742.07 753.2,-745.17"/>
<polygon fill="black" stroke="black" points="752.6,-748.72 762.86,-746.09 753.2,-741.74 752.6,-748.72"/>
</a>
</g>
</g>
<!-- PAKNECONPRVTKN&#45;&gt;PAKSMINDCNSTKN -->
<g id="edge9" class="edge">
<title>PAKNECONPRVTKN-&gt;PAKSMINDCNSTKN</title>
<g id="a_edge9"><a xlink:href="bogus" xlink:title=" PAKNECONPRVTKN -&gt; PAKSMINDCNSTKN Min. att. 0%  max: 0%">
<path fill="none" stroke="black" d="M525.53,-519.79C546.68,-554.32 597.59,-628.75 662.2,-663.5 690.73,-678.84 725.45,-686.11 756.35,-689.36"/>
<polygon fill="black" stroke="black" points="755.82,-692.91 766.1,-690.34 756.46,-685.94 755.82,-692.91"/>
</a>
</g>
</g>
<!-- PAKNECONPRVTKN&#45;&gt;PAKSMINDMNGSKN -->
<g id="edge20" class="edge">
<title>PAKNECONPRVTKN-&gt;PAKSMINDMNGSKN</title>
<g id="a_edge20"><a xlink:href="bogus" xlink:title=" PAKNECONPRVTKN -&gt; PAKSMINDMNGSKN Min. att. -1206230%  max: 171160%">
<path fill="none" stroke="black" stroke-width="8" d="M533.51,-519.86C559.79,-544.59 610.36,-587.99 662.2,-609.5 689.1,-620.66 720.09,-627.26 748.38,-631.14"/>
<polygon fill="black" stroke="black" stroke-width="8" points="747.45,-638.81 758.23,-633.07 749.15,-624.91 747.45,-638.81"/>
</a>
</g>
</g>
<!-- PAKNECONPRVTKN&#45;&gt;PAKSMSRVFINSKN -->
<g id="edge28" class="edge">
<title>PAKNECONPRVTKN-&gt;PAKSMSRVFINSKN</title>
<g id="a_edge28"><a xlink:href="bogus" xlink:title=" PAKNECONPRVTKN -&gt; PAKSMSRVFINSKN Min. att. 47%  max: 156%">
<path fill="none" stroke="black" stroke-width="8" d="M558.33,-520C587.29,-531.69 626.47,-546.27 662.2,-555.5 691.41,-563.04 723.95,-568.78 752.92,-572.99"/>
<polygon fill="black" stroke="black" stroke-width="8" points="751.73,-580.73 762.6,-575.17 753.66,-566.86 751.73,-580.73"/>
</a>
</g>
</g>
<!-- PAKNECONPRVTKN&#45;&gt;PAKSMAGRCRPSKN -->
<g id="edge6" class="edge">
<title>PAKNECONPRVTKN-&gt;PAKSMAGRCRPSKN</title>
<g id="a_edge6"><a xlink:href="bogus" xlink:title=" PAKNECONPRVTKN -&gt; PAKSMAGRCRPSKN Min. att. 27%  max: 758%">
<path fill="none" stroke="black" stroke-width="8" d="M626.35,-510.87C666.78,-514.27 711.81,-518.05 749.75,-521.24"/>
<polygon fill="black" stroke="black" stroke-width="8" points="749,-528.71 759.55,-522.57 750.17,-514.75 749,-528.71"/>
</a>
</g>
</g>
<!-- PAKNECONPRVTKN&#45;&gt;PAKSMSRVHSNGKN -->
<g id="edge4" class="edge">
<title>PAKNECONPRVTKN-&gt;PAKSMSRVHSNGKN</title>
<g id="a_edge4"><a xlink:href="bogus" xlink:title=" PAKNECONPRVTKN -&gt; PAKSMSRVHSNGKN Min. att. -63%  max: 211%">
<path fill="none" stroke="black" stroke-width="8" d="M626.35,-492.13C666.62,-488.75 711.46,-484.98 749.31,-481.8"/>
<polygon fill="black" stroke="black" stroke-width="8" points="749.69,-488.29 759.07,-480.47 748.52,-474.33 749.69,-488.29"/>
</a>
</g>
</g>
<!-- PAKNECONPRVTKN&#45;&gt;PAKNEGDETTOTKN -->
<g id="edge27" class="edge">
<title>PAKNECONPRVTKN-&gt;PAKNEGDETTOTKN</title>
<g id="a_edge27"><a xlink:href="bogus" xlink:title=" PAKNECONPRVTKN -&gt; PAKNEGDETTOTKN Min. att. -811%  max: 2284%">
<path fill="none" stroke="black" stroke-width="8" d="M558.33,-483C587.29,-471.31 626.47,-456.73 662.2,-447.5 669.59,-445.59 677.19,-443.8 684.89,-442.12"/>
<polygon fill="black" stroke="black" stroke-width="8" points="685.92,-448.81 694.29,-439.92 683.08,-435.1 685.92,-448.81"/>
</a>
</g>
</g>
<!-- PAKNECONPRVTKN&#45;&gt;PAKNECONPRVTKN_FITTED -->
<g id="edge13" class="edge">
<title>PAKNECONPRVTKN-&gt;PAKNECONPRVTKN_FITTED</title>
<g id="a_edge13"><a xlink:href="bogus" xlink:title=" PAKNECONPRVTKN -&gt; PAKNECONPRVTKN_FITTED Min. att. -23%  max: 474%">
<path fill="none" stroke="black" stroke-width="8" d="M533.51,-483.14C559.79,-458.41 610.36,-415.01 662.2,-393.5 665.23,-392.24 668.32,-391.04 671.44,-389.9"/>
<polygon fill="black" stroke="black" stroke-width="8" points="673.07,-396.74 680.34,-386.93 668.64,-383.45 673.07,-396.74"/>
</a>
</g>
</g>
<!-- PAKNECONPRVTKN&#45;&gt;PAKSMINDOTHRTKN -->
<g id="edge7" class="edge">
<title>PAKNECONPRVTKN-&gt;PAKSMINDOTHRTKN</title>
<g id="a_edge7"><a xlink:href="bogus" xlink:title=" PAKNECONPRVTKN -&gt; PAKSMINDOTHRTKN Min. att. -5607%  max: 1231%">
<path fill="none" stroke="black" stroke-width="8" d="M525.53,-483.21C546.68,-448.68 597.59,-374.25 662.2,-339.5 687.63,-325.82 717.98,-318.57 746.15,-314.85"/>
<polygon fill="black" stroke="black" stroke-width="8" points="746.82,-321.15 755.98,-313.09 745.27,-307.24 746.82,-321.15"/>
</a>
</g>
</g>
<!-- PAKNECONPRVTKN&#45;&gt;PAKSMSRVGOVSKN -->
<g id="edge21" class="edge">
<title>PAKNECONPRVTKN-&gt;PAKSMSRVGOVSKN</title>
<g id="a_edge21"><a xlink:href="bogus" xlink:title=" PAKNECONPRVTKN -&gt; PAKSMSRVGOVSKN Min. att. 0%  max: 0%">
<path fill="none" stroke="black" d="M521.45,-483.26C537.78,-440.64 584.67,-334.45 662.2,-285.5 689.36,-268.35 723.53,-260.74 754.39,-257.71"/>
<polygon fill="black" stroke="black" points="754.47,-261.14 764.14,-256.83 753.89,-254.16 754.47,-261.14"/>
</a>
</g>
</g>
<!-- PAKNECONENGYKN -->
<g id="node27" class="node">
<title>PAKNECONENGYKN</title>
<g id="a_node27"><a xlink:title="PAKNECONENGYKN
FRML &lt;IDENT&gt; PAKNECONENGYKN = PAKNECONENGYSH**(PAKCESENGYCON)*(PAKNECONPRVTKN*(PAKNECONPRVTXN/PAKNECONENGYXN)**(PAKCESENGYCON)) $">
<polygon fill="#63b8ff" stroke="black" points="909.67,-222.5 764.58,-222.5 764.58,-186.5 909.67,-186.5 909.67,-222.5"/>
<text text-anchor="start" x="770.38" y="-199.45" font-family="Times New Roman,serif" font-size="14.00" fill="blue">PAKNECONENGYKN:</text>
</a>
</g>
</g>
<!-- PAKNECONPRVTKN&#45;&gt;PAKNECONENGYKN -->
<g id="edge23" class="edge">
<title>PAKNECONPRVTKN-&gt;PAKNECONENGYKN</title>
<g id="a_edge23"><a xlink:href="bogus" xlink:title=" PAKNECONPRVTKN -&gt; PAKNECONENGYKN Min. att. -688%  max: 752%">
<path fill="none" stroke="black" stroke-width="8" d="M518.91,-483.32C530.89,-433.69 571.34,-295.37 662.2,-231.5 687.1,-214 718.95,-206.03 748.57,-202.82"/>
<polygon fill="black" stroke="black" stroke-width="8" points="748.89,-209.32 758.28,-201.53 747.74,-195.37 748.89,-209.32"/>
</a>
</g>
</g>
<!-- PAKSMSRVTRNSKN -->
<g id="node28" class="node">
<title>PAKSMSRVTRNSKN</title>
<g id="a_node28"><a xlink:title="PAKSMSRVTRNSKN
FRML &lt;IDENT&gt; PAKSMSRVTRNSKN = ((1+0.301074862860981)*(0.204687752761289*PAKNECONPRVTKN+0*PAKNECONGOVTKN+0*PAKNEGDIFTOTKN+0.0551862611209703*PAKNEEXPGNFSKN+0*PAKNEGDISTKBKN)--0.0392641863572605*PAKNEIMPGNFSKN-0.0174996684619017*PAKNYTAXNINDKN-0)/(1+1.11680986862739) $">
<polygon fill="#63b8ff" stroke="black" points="907.8,-168.5 766.45,-168.5 766.45,-132.5 907.8,-132.5 907.8,-168.5"/>
<text text-anchor="start" x="772.25" y="-145.45" font-family="Times New Roman,serif" font-size="14.00" fill="blue">PAKSMSRVTRNSKN:</text>
</a>
</g>
</g>
<!-- PAKNECONPRVTKN&#45;&gt;PAKSMSRVTRNSKN -->
<g id="edge24" class="edge">
<title>PAKNECONPRVTKN-&gt;PAKSMSRVTRNSKN</title>
<g id="a_edge24"><a xlink:href="bogus" xlink:title=" PAKNECONPRVTKN -&gt; PAKSMSRVTRNSKN Min. att. 37%  max: 157%">
<path fill="none" stroke="black" stroke-width="8" d="M517.21,-483.09C525.31,-426.91 557.84,-256.68 662.2,-177.5 687.18,-158.55 720.08,-150.45 750.53,-147.55"/>
<polygon fill="black" stroke="black" stroke-width="8" points="750.68,-154.15 760.18,-146.48 749.73,-140.18 750.68,-154.15"/>
</a>
</g>
</g>
<!-- PAKSMAGRFSTYKN -->
<g id="node29" class="node">
<title>PAKSMAGRFSTYKN</title>
<g id="a_node29"><a xlink:title="PAKSMAGRFSTYKN
FRML &lt;IDENT&gt; PAKSMAGRFSTYKN = ((1+0.195965019358753)*(0.010131919293849*PAKNECONPRVTKN+0*PAKNECONGOVTKN+0*PAKNEGDIFTOTKN+0.000136733767007103*PAKNEEXPGNFSKN+0.0199955288980741*PAKNEGDISTKBKN)-0.00076829563200478*PAKNEIMPGNFSKN-0.00172030587371022*PAKNYTAXNINDKN-65421)/(1+0.319587584852584) $">
<polygon fill="#63b8ff" stroke="black" points="908.55,-114.5 765.7,-114.5 765.7,-78.5 908.55,-78.5 908.55,-114.5"/>
<text text-anchor="start" x="771.5" y="-91.45" font-family="Times New Roman,serif" font-size="14.00" fill="blue">PAKSMAGRFSTYKN:</text>
</a>
</g>
</g>
<!-- PAKNECONPRVTKN&#45;&gt;PAKSMAGRFSTYKN -->
<g id="edge17" class="edge">
<title>PAKNECONPRVTKN-&gt;PAKSMAGRFSTYKN</title>
<g id="a_edge17"><a xlink:href="bogus" xlink:title=" PAKNECONPRVTKN -&gt; PAKSMAGRFSTYKN Min. att. 90%  max: 109%">
<path fill="none" stroke="black" stroke-width="8" d="M515.91,-483.25C520.38,-421.43 543.86,-218.54 662.2,-123.5 686.55,-103.95 719.17,-95.7 749.58,-92.85"/>
<polygon fill="black" stroke="black" stroke-width="8" points="749.71,-99.47 759.23,-91.82 748.79,-85.5 749.71,-99.47"/>
</a>
</g>
</g>
<!-- PAKSMENGTOTLKN -->
<g id="node30" class="node">
<title>PAKSMENGTOTLKN</title>
<g id="a_node30"><a xlink:title="PAKSMENGTOTLKN
FRML &lt;IDENT&gt; PAKSMENGTOTLKN = ((1+1.65868473220397)*(0.0775261497897936*PAKNECONPRVTKN+0*PAKNECONGOVTKN+0*PAKNEGDIFTOTKN+0.0217448978257548*PAKNEEXPGNFSKN+0.0458991644104248*PAKNEGDISTKBKN)-0.11894699850705*PAKNEIMPGNFSKN--0.50579180838529*PAKNYTAXNINDKN-0)/(1+5.65663938581514) $">
<polygon fill="#63b8ff" stroke="black" points="908.92,-60.5 765.33,-60.5 765.33,-24.5 908.92,-24.5 908.92,-60.5"/>
<text text-anchor="start" x="771.12" y="-37.45" font-family="Times New Roman,serif" font-size="14.00" fill="blue">PAKSMENGTOTLKN:</text>
</a>
</g>
</g>
<!-- PAKNECONPRVTKN&#45;&gt;PAKSMENGTOTLKN -->
<g id="edge10" class="edge">
<title>PAKNECONPRVTKN-&gt;PAKSMENGTOTLKN</title>
<g id="a_edge10"><a xlink:href="bogus" xlink:title=" PAKNECONPRVTKN -&gt; PAKSMENGTOTLKN Min. att. -6462%  max: 289%">
<path fill="none" stroke="black" stroke-width="8" d="M514.93,-483.11C516.1,-415.73 529.87,-180.53 662.2,-69.5 686.22,-49.35 718.93,-41.01 749.5,-38.26"/>
<polygon fill="black" stroke="black" stroke-width="8" points="749.68,-44.89 759.24,-37.29 748.83,-30.92 749.68,-44.89"/>
</a>
</g>
</g>
<!-- PAKBXFSTREMTCD -->
<g id="node25" class="node">
<title>PAKBXFSTREMTCD</title>
<g id="a_node25"><a xlink:title="Exp., Remittances (BOP), US$ mn
FRML &lt;DAMP,STOC&gt; PAKBXFSTREMTCD = (PAKBXFSTREMTCD_A*PAKNYGDPMKTPCD+PAKNYGDPMKTPCD* (0.053028373687723) ) * (1-PAKBXFSTREMTCD_D)+ PAKBXFSTREMTCD_X*PAKBXFSTREMTCD_D  $">
<polygon fill="#63b8ff" stroke="black" points="349.47,-330.5 16.12,-330.5 16.12,-294.5 349.47,-294.5 349.47,-330.5"/>
<text text-anchor="start" x="21.92" y="-307.45" font-family="Times New Roman,serif" font-size="14.00" fill="blue">PAKBXFSTREMTCD:Exp., Remittances (BOP), US$ mn</text>
</a>
</g>
</g>
<!-- PAKBXFSTREMTCD&#45;&gt;PAKNECONPRVTKN -->
<g id="edge19" class="edge">
<title>PAKBXFSTREMTCD-&gt;PAKNECONPRVTKN</title>
<g id="a_edge19"><a xlink:href="bogus" xlink:title=" PAKBXFSTREMTCD -&gt; PAKNECONPRVTKN Min. att. -534%  max: 149%">
<path fill="none" stroke="black" stroke-width="8" d="M346.73,-330.83C353.23,-333.39 359.55,-336.27 365.6,-339.5 422.87,-370.06 469.28,-431.93 493.83,-469.74"/>
<polygon fill="black" stroke="black" stroke-width="8" points="488.04,-473.44 499.29,-478.17 499.88,-465.98 488.04,-473.44"/>
</a>
</g>
</g>
<!-- PAKNECONPRVTKN_X -->
<g id="node26" class="node">
<title>PAKNECONPRVTKN_X</title>
<g id="a_node26"><a xlink:title="Fix value:HH. Cons Real
Exogen">
<polygon fill="yellow" stroke="black" points="330.72,-276.5 34.87,-276.5 34.87,-240.5 330.72,-240.5 330.72,-276.5"/>
<text text-anchor="start" x="40.67" y="-253.45" font-family="Times New Roman,serif" font-size="14.00" fill="blue">PAKNECONPRVTKN_X:Fix value:HH. Cons Real</text>
</a>
</g>
</g>
<!-- PAKNECONPRVTKN_X&#45;&gt;PAKNECONPRVTKN -->
<g id="edge15" class="edge">
<title>PAKNECONPRVTKN_X-&gt;PAKNECONPRVTKN</title>
<g id="a_edge15"><a xlink:href="bogus" xlink:title=" PAKNECONPRVTKN_X -&gt; PAKNECONPRVTKN Min. att. -0%  max: 0%">
<path fill="none" stroke="black" d="M331.04,-269.41C343.21,-273.54 354.92,-278.81 365.6,-285.5 437.67,-330.67 483.16,-425.46 502.36,-473.01"/>
<polygon fill="black" stroke="black" points="499.46,-474.19 506.37,-482.22 505.98,-471.63 499.46,-474.19"/>
</a>
</g>
</g>
<!-- PAKBMFSTREMTCD -->
<g id="node31" class="node">
<title>PAKBMFSTREMTCD</title>
<g id="a_node31"><a xlink:title="Imp., Remittances (BOP), US$ mn
FRML &lt;DAMP,STOC&gt; PAKBMFSTREMTCD = (PAKBMFSTREMTCD_A*PAKNYGDPMKTPCD+PAKNYGDPMKTPCD* (5.83179728399106E-05) ) * (1-PAKBMFSTREMTCD_D)+ PAKBMFSTREMTCD_X*PAKBMFSTREMTCD_D  $">
<polygon fill="#63b8ff" stroke="black" points="351.35,-222.5 14.25,-222.5 14.25,-186.5 351.35,-186.5 351.35,-222.5"/>
<text text-anchor="start" x="20.05" y="-199.45" font-family="Times New Roman,serif" font-size="14.00" fill="blue">PAKBMFSTREMTCD:Imp., Remittances (BOP), US$ mn</text>
</a>
</g>
</g>
<!-- PAKBMFSTREMTCD&#45;&gt;PAKNECONPRVTKN -->
<g id="edge18" class="edge">
<title>PAKBMFSTREMTCD-&gt;PAKNECONPRVTKN</title>
<g id="a_edge18"><a xlink:href="bogus" xlink:title=" PAKBMFSTREMTCD -&gt; PAKNECONPRVTKN Min. att. -0%  max: 1%">
<path fill="none" stroke="black" d="M351.24,-222.82C356.22,-225.42 361.02,-228.3 365.6,-231.5 450.98,-291.1 491.75,-416.56 506.34,-472.97"/>
<polygon fill="black" stroke="black" points="503.1,-473.43 508.91,-482.29 509.89,-471.74 503.1,-473.43"/>
</a>
</g>
</g>
</g>
</svg>