<svg xmlns="http://www.w3.org/2000/svg" xmlns:xlink="http://www.w3.org/1999/xlink" width="432pt" height="418pt" viewBox="0.00 0.00 432.00 417.79">
<g id="graph0" class="graph" transform="scale(0.423509 0.423509) rotate(0) translate(4 982.5)">
<title>TD</title>
<polygon fill="white" stroke="none" points="-4,4 -4,-982.5 1016.05,-982.5 1016.05,4 -4,4"/>
<text text-anchor="middle" x="506.02" y="-7.2" font-family="Times New Roman,serif" font-size="14.00">PAKNECONPRVTKN</text>
<!-- PAKSMINDCNSTKN -->
<g id="node1" class="node">
<title>PAKSMINDCNSTKN</title>
<g id="a_node1"><a xlink:title="PAKSMINDCNSTKN
FRML &lt;IDENT&gt; PAKSMINDCNSTKN = ((1+0.0370651228196874)*(0*PAKNECONPRVTKN+0*PAKNECONGOVTKN+0.433487212699245*PAKNEGDIFTOTKN+0.00170061231445462*PAKNEEXPGNFSKN+0.0166541213494276*PAKNEGDISTKBKN)-0.00444968266528859*PAKNEIMPGNFSKN-0*PAKNYTAXNINDKN-55116.3653855153)/(1+1.91367284458402) $">
<polygon fill="#63b8ff" stroke="black" points="907.05,-978.5 767.2,-978.5 767.2,-942.5 907.05,-942.5 907.05,-978.5"/>
<text text-anchor="start" x="773" y="-955.45" font-family="Times New Roman,serif" font-size="14.00" fill="blue">PAKSMINDCNSTKN:</text>
</a>
</g>
</g>
<!-- PAKSMENGTOTLKN -->
<g id="node2" class="node">
<title>PAKSMENGTOTLKN</title>
<g id="a_node2"><a xlink:title="PAKSMENGTOTLKN
FRML &lt;IDENT&gt; PAKSMENGTOTLKN = ((1+1.65868473220397)*(0.0775261497897936*PAKNECONPRVTKN+0*PAKNECONGOVTKN+0*PAKNEGDIFTOTKN+0.0217448978257548*PAKNEEXPGNFSKN+0.0458991644104248*PAKNEGDISTKBKN)-0.11894699850705*PAKNEIMPGNFSKN--0.50579180838529*PAKNYTAXNINDKN-0)/(1+5.65663938581514) $">
<polygon fill="#63b8ff" stroke="black" points="908.92,-924.5 765.33,-924.5 765.33,-888.5 908.92,-888.5 908.92,-924.5"/>
<text text-anchor="start" x="771.12" y="-901.45" font-family="Times New Roman,serif" font-size="14.00" fill="blue">PAKSMENGTOTLKN:</text>
</a>
</g>
</g>
<!-- PAKNECONENGYKN -->
<g id="node3" class="node">
<title>PAKNECONENGYKN</title>
<g id="a_node3"><a xlink:title="PAKNECONENGYKN
FRML &lt;IDENT&gt; PAKNECONENGYKN = PAKNECONENGYSH**(PAKCESENGYCON)*(PAKNECONPRVTKN*(PAKNECONPRVTXN/PAKNECONENGYXN)**(PAKCESENGYCON)) $">
<polygon fill="#63b8ff" stroke="black" points="909.67,-870.5 764.58,-870.5 764.58,-834.5 909.67,-834.5 909.67,-870.5"/>
<text text-anchor="start" x="770.38" y="-847.45" font-family="Times New Roman,serif" font-size="14.00" fill="blue">PAKNECONENGYKN:</text>
</a>
</g>
</g>
<!-- PAKBXFSTREMTCD -->
<g id="node4" class="node">
<title>PAKBXFSTREMTCD</title>
<g id="a_node4"><a xlink:title="Exp., Remittances (BOP), US$ mn
FRML &lt;DAMP,STOC&gt; PAKBXFSTREMTCD = (PAKBXFSTREMTCD_A*PAKNYGDPMKTPCD+PAKNYGDPMKTPCD* (0.053028373687723) ) * (1-PAKBXFSTREMTCD_D)+ PAKBXFSTREMTCD_X*PAKBXFSTREMTCD_D  $">
<polygon fill="#63b8ff" stroke="black" points="349.47,-816.5 16.12,-816.5 16.12,-780.5 349.47,-780.5 349.47,-816.5"/>
<text text-anchor="start" x="21.92" y="-793.45" font-family="Times New Roman,serif" font-size="14.00" fill="blue">PAKBXFSTREMTCD:Exp., Remittances (BOP), US$ mn</text>
</a>
</g>
</g>
<!-- PAKNECONPRVTKN -->
<g id="node18" class="node">
<title>PAKNECONPRVTKN</title>
<g id="a_node18"><a xlink:title="HH. Cons Real
FRML &lt;DAMP,STOC&gt; PAKNECONPRVTKN = (PAKNECONPRVTKN(-1)*EXP(PAKNECONPRVTKN_A+ (-0.2*(LOG(PAKNECONPRVTKN(-1))-LOG(1.21203101101442)-LOG((((PAKBXFSTREMTCD(-1)-PAKBMFSTREMTCD(-1))*PAKPANUSATLS(-1))+PAKGGEXPTRNSCN(-1)+PAKNYYWBTOTLCN(-1)*(1-PAKGGREVDRCTXN(-1)/100))/PAKNECONPRVTXN(-1)))+0.763938860758873*((LOG((((PAKBXFSTREMTCD-PAKBMFSTREMTCD)*PAKPANUSATLS)+PAKGGEXPTRNSCN+PAKNYYWBTOTLCN*(1-PAKGGREVDRCTXN/100))/PAKNECONPRVTXN))-(LOG((((PAKBXFSTREMTCD(-1)-PAKBMFSTREMTCD(-1))*PAKPANUSATLS(-1))+PAKGGEXPTRNSCN(-1)+PAKNYYWBTOTLCN(-1)*(1-PAKGGREVDRCTXN(-1)/100))/PAKNECONPRVTXN(-1))))-0.0634474791568939*DURING_2009-0.3*(PAKFMLBLPOLYXN/100-((LOG(PAKNECONPRVTXN))-(LOG(PAKNECONPRVTXN(-1)))))) )) * (1-PAKNECONPRVTKN_D)+ PAKNECONPRVTKN_X*PAKNECONPRVTKN_D  $">
<polygon fill="red" stroke="black" points="626.2,-519.5 401.6,-519.5 401.6,-483.5 626.2,-483.5 626.2,-519.5"/>
<text text-anchor="start" x="407.4" y="-496.45" font-family="Times New Roman,serif" font-size="14.00" fill="blue">PAKNECONPRVTKN:HH. Cons Real</text>
</a>
</g>
</g>
<!-- PAKBXFSTREMTCD&#45;&gt;PAKNECONPRVTKN -->
<g id="edge1" class="edge">
<title>PAKBXFSTREMTCD-&gt;PAKNECONPRVTKN</title>
<g id="a_edge1"><a xlink:href="bogus" xlink:title=" PAKBXFSTREMTCD -&gt; PAKNECONPRVTKN Min. att. -534%  max: 149%">
<path fill="none" stroke="black" stroke-width="8" d="M349.96,-780.85C355.39,-778.07 360.63,-774.97 365.6,-771.5 448.49,-713.64 489.34,-593.7 505,-535.14"/>
<polygon fill="black" stroke="black" stroke-width="8" points="512.24,-537.13 507.91,-525.71 498.67,-533.68 512.24,-537.13"/>
</a>
</g>
</g>
<!-- PAKSMSRVWHSLKN -->
<g id="node5" class="node">
<title>PAKSMSRVWHSLKN</title>
<g id="a_node5"><a xlink:title="PAKSMSRVWHSLKN
FRML &lt;IDENT&gt; PAKSMSRVWHSLKN = ((1+1.17766663382018E-08)*(0*PAKNECONPRVTKN+0*PAKNECONGOVTKN+0*PAKNEGDIFTOTKN+0*PAKNEEXPGNFSKN+0*PAKNEGDISTKBKN)-0*PAKNEIMPGNFSKN-0*PAKNYTAXNINDKN--4160770)/(1+0.265916086910196) $">
<polygon fill="#63b8ff" stroke="black" points="910.05,-816.5 764.2,-816.5 764.2,-780.5 910.05,-780.5 910.05,-816.5"/>
<text text-anchor="start" x="770" y="-793.45" font-family="Times New Roman,serif" font-size="14.00" fill="blue">PAKSMSRVWHSLKN:</text>
</a>
</g>
</g>
<!-- PAKGGEXPTRNSCN -->
<g id="node6" class="node">
<title>PAKGGEXPTRNSCN</title>
<g id="a_node6"><a xlink:title="Current Transfers
FRML &lt;DAMP,STOC&gt; PAKGGEXPTRNSCN = (0.91020884318931*PAKGGEXPTRNSCN(-1)+(1-0.91020884318931)*(0.06*(PAKGGREVTOTLCN-PAKGGEXPINTPCN(-0))) + PAKGGEXPTRNSCN_A)* (1-PAKGGEXPTRNSCN_D)+ PAKGGEXPTRNSCN_X*PAKGGEXPTRNSCN_D  $">
<polygon fill="#63b8ff" stroke="black" points="300.35,-762.5 65.25,-762.5 65.25,-726.5 300.35,-726.5 300.35,-762.5"/>
<text text-anchor="start" x="71.05" y="-739.45" font-family="Times New Roman,serif" font-size="14.00" fill="blue">PAKGGEXPTRNSCN:Current Transfers</text>
</a>
</g>
</g>
<!-- PAKGGEXPTRNSCN&#45;&gt;PAKNECONPRVTKN -->
<g id="edge14" class="edge">
<title>PAKGGEXPTRNSCN-&gt;PAKNECONPRVTKN</title>
<g id="a_edge14"><a xlink:href="bogus" xlink:title=" PAKGGEXPTRNSCN -&gt; PAKNECONPRVTKN Min. att. -114%  max: 31%">
<path fill="none" stroke="black" stroke-width="8" d="M300.38,-741.61C323.24,-737.17 346.13,-729.7 365.6,-717.5 435.4,-673.75 480.26,-583.48 500.47,-534.63"/>
<polygon fill="black" stroke="black" stroke-width="8" points="507.18,-537.66 504.37,-525.78 494.17,-532.48 507.18,-537.66"/>
</a>
</g>
</g>
<!-- PAKSMINDOTHRTKN -->
<g id="node7" class="node">
<title>PAKSMINDOTHRTKN</title>
<g id="a_node7"><a xlink:title="PAKSMINDOTHRTKN
FRML &lt;IDENT&gt; PAKSMINDOTHRTKN = ((1+0.483473985412524)*(0.40172973397176*PAKNECONPRVTKN+0*PAKNECONGOVTKN+0.560459287907094*PAKNEGDIFTOTKN+0.719299486591763*PAKNEEXPGNFSKN+0.620970563578771*PAKNEGDISTKBKN)-0.606734386430279*PAKNEIMPGNFSKN-0.866045585295928*PAKNYTAXNINDKN-2983275.63714814)/(1+2.46379868577176) $">
<polygon fill="#63b8ff" stroke="black" points="911.92,-762.5 762.33,-762.5 762.33,-726.5 911.92,-726.5 911.92,-762.5"/>
<text text-anchor="start" x="768.12" y="-739.45" font-family="Times New Roman,serif" font-size="14.00" fill="blue">PAKSMINDOTHRTKN:</text>
</a>
</g>
</g>
<!-- PAKNECONPRVTKN_FITTED -->
<g id="node8" class="node">
<title>PAKNECONPRVTKN_FITTED</title>
<g id="a_node8"><a xlink:title="Fitted  value:HH. Cons Real
FRML &lt;FIT&gt; PAKNECONPRVTKN_FITTED = PAKNECONPRVTKN(-1)*EXP( (-0.2*(LOG(PAKNECONPRVTKN(-1))-LOG(1.21203101101442)-LOG((((PAKBXFSTREMTCD(-1)-PAKBMFSTREMTCD(-1))*PAKPANUSATLS(-1))+PAKGGEXPTRNSCN(-1)+PAKNYYWBTOTLCN(-1)*(1-PAKGGREVDRCTXN(-1)/100))/PAKNECONPRVTXN(-1)))+0.763938860758873*((LOG((((PAKBXFSTREMTCD-PAKBMFSTREMTCD)*PAKPANUSATLS)+PAKGGEXPTRNSCN+PAKNYYWBTOTLCN*(1-PAKGGREVDRCTXN/100))/PAKNECONPRVTXN))-(LOG((((PAKBXFSTREMTCD(-1)-PAKBMFSTREMTCD(-1))*PAKPANUSATLS(-1))+PAKGGEXPTRNSCN(-1)+PAKNYYWBTOTLCN(-1)*(1-PAKGGREVDRCTXN(-1)/100))/PAKNECONPRVTXN(-1))))-0.0634474791568939*DURING_2009-0.3*(PAKFMLBLPOLYXN/100-((LOG(PAKNECONPRVTXN))-(LOG(PAKNECONPRVTXN(-1)))))) ) $">
<polygon fill="#63b8ff" stroke="black" points="1012.05,-708.5 662.2,-708.5 662.2,-672.5 1012.05,-672.5 1012.05,-708.5"/>
<text text-anchor="start" x="668" y="-685.45" font-family="Times New Roman,serif" font-size="14.00" fill="blue">PAKNECONPRVTKN_FITTED:Fitted  value:HH. Cons Real</text>
</a>
</g>
</g>
<!-- PAKBMFSTREMTCD -->
<g id="node9" class="node">
<title>PAKBMFSTREMTCD</title>
<g id="a_node9"><a xlink:title="Imp., Remittances (BOP), US$ mn
FRML &lt;DAMP,STOC&gt; PAKBMFSTREMTCD = (PAKBMFSTREMTCD_A*PAKNYGDPMKTPCD+PAKNYGDPMKTPCD* (5.83179728399106E-05) ) * (1-PAKBMFSTREMTCD_D)+ PAKBMFSTREMTCD_X*PAKBMFSTREMTCD_D  $">
<polygon fill="#63b8ff" stroke="black" points="351.35,-708.5 14.25,-708.5 14.25,-672.5 351.35,-672.5 351.35,-708.5"/>
<text text-anchor="start" x="20.05" y="-685.45" font-family="Times New Roman,serif" font-size="14.00" fill="blue">PAKBMFSTREMTCD:Imp., Remittances (BOP), US$ mn</text>
</a>
</g>
</g>
<!-- PAKBMFSTREMTCD&#45;&gt;PAKNECONPRVTKN -->
<g id="edge2" class="edge">
<title>PAKBMFSTREMTCD-&gt;PAKNECONPRVTKN</title>
<g id="a_edge2"><a xlink:href="bogus" xlink:title=" PAKBMFSTREMTCD -&gt; PAKNECONPRVTKN Min. att. -0%  max: 1%">
<path fill="none" stroke="black" d="M346.73,-672.17C353.23,-669.61 359.55,-666.73 365.6,-663.5 425.02,-631.8 472.74,-566.38 496.5,-529.11"/>
<polygon fill="black" stroke="black" points="499.96,-531.17 502.29,-520.83 494.03,-527.46 499.96,-531.17"/>
</a>
</g>
</g>
<!-- PAKNECONPRVTXN -->
<g id="node10" class="node">
<title>PAKNECONPRVTXN</title>
<g id="a_node10"><a xlink:title="Implicit LCU defl., Pvt. Cons., 2000 = 1
FRML &lt;IDENT&gt; PAKNECONPRVTXN = ((PAKNECONENGYSH**PAKCESENGYCON)*PAKNECONENGYXN**(1-PAKCESENGYCON)+(PAKNECONOTHRSH**PAKCESENGYCON)*PAKNECONOTHRXN**(1-PAKCESENGYCON))**(1/(1-PAKCESENGYCON)) $">
<polygon fill="#63b8ff" stroke="black" points="365.6,-654.5 0,-654.5 0,-618.5 365.6,-618.5 365.6,-654.5"/>
<text text-anchor="start" x="5.8" y="-631.45" font-family="Times New Roman,serif" font-size="14.00" fill="blue">PAKNECONPRVTXN:Implicit LCU defl., Pvt. Cons., 2000 = 1</text>
</a>
</g>
</g>
<!-- PAKNECONPRVTXN&#45;&gt;PAKNECONPRVTKN -->
<g id="edge21" class="edge">
<title>PAKNECONPRVTXN-&gt;PAKNECONPRVTKN</title>
<g id="a_edge21"><a xlink:href="bogus" xlink:title=" PAKNECONPRVTXN -&gt; PAKNECONPRVTKN Min. att. -1573%  max: 5702%">
<path fill="none" stroke="black" stroke-width="8" d="M341.3,-618.06C349.63,-615.55 357.78,-612.72 365.6,-609.5 410.62,-590.99 454.61,-555.85 482.61,-530.68"/>
<polygon fill="black" stroke="black" stroke-width="8" points="486.69,-535.83 489.31,-523.91 477.21,-525.54 486.69,-535.83"/>
</a>
</g>
</g>
<!-- PAKNEGDETTOTKN -->
<g id="node11" class="node">
<title>PAKNEGDETTOTKN</title>
<g id="a_node11"><a xlink:title="Total demand, constant LCU
FRML &lt;IDENT&gt; PAKNEGDETTOTKN = (PAKNECONPRVTKN+PAKNECONGOVTKN+PAKNEGDIFTOTKN+PAKNEGDISTKBKN+PAKNYGDPDISCKN) $">
<polygon fill="#63b8ff" stroke="black" points="986.92,-654.5 687.33,-654.5 687.33,-618.5 986.92,-618.5 986.92,-654.5"/>
<text text-anchor="start" x="693.12" y="-631.45" font-family="Times New Roman,serif" font-size="14.00" fill="blue">PAKNEGDETTOTKN:Total demand, constant LCU</text>
</a>
</g>
</g>
<!-- PAKFMLBLPOLYXN -->
<g id="node12" class="node">
<title>PAKFMLBLPOLYXN</title>
<g id="a_node12"><a xlink:title="Key Policy Interest Rate
FRML &lt;DAMP,STOC&gt; PAKFMLBLPOLYXN = (100*PAKFMLBLPOLYXN_A+100* (0.900155952396245*PAKFMLBLPOLYXN(-1)/100+(1-0.900155952396245)*(PAKMPPOLNATRXN/100+1.2*(((LOG(PAKNECONPRVTXN))-(LOG(PAKNECONPRVTXN(-1))))-PAKINFLEXPT/100)+0.5*PAKNYGDPGAP_/100)) ) * (1-PAKFMLBLPOLYXN_D)+ PAKFMLBLPOLYXN_X*PAKFMLBLPOLYXN_D  $">
<polygon fill="#63b8ff" stroke="black" points="320.22,-600.5 45.37,-600.5 45.37,-564.5 320.22,-564.5 320.22,-600.5"/>
<text text-anchor="start" x="51.17" y="-577.45" font-family="Times New Roman,serif" font-size="14.00" fill="blue">PAKFMLBLPOLYXN:Key Policy Interest Rate</text>
</a>
</g>
</g>
<!-- PAKFMLBLPOLYXN&#45;&gt;PAKNECONPRVTKN -->
<g id="edge16" class="edge">
<title>PAKFMLBLPOLYXN-&gt;PAKNECONPRVTKN</title>
<g id="a_edge16"><a xlink:href="bogus" xlink:title=" PAKFMLBLPOLYXN -&gt; PAKNECONPRVTKN Min. att. -780%  max: 213%">
<path fill="none" stroke="black" stroke-width="8" d="M320.41,-565.3C335.74,-562.45 351.07,-559.2 365.6,-555.5 395.75,-547.82 428.32,-536.24 455.14,-525.78"/>
<polygon fill="black" stroke="black" stroke-width="8" points="457.1,-532.15 463.81,-521.94 451.93,-519.14 457.1,-532.15"/>
</a>
</g>
</g>
<!-- PAKNECONPRVTKN_A -->
<g id="node13" class="node">
<title>PAKNECONPRVTKN_A</title>
<g id="a_node13"><a xlink:title="Add factor:HH. Cons Real
Exogen">
<polygon fill="yellow" stroke="black" points="334.47,-546.5 31.12,-546.5 31.12,-510.5 334.47,-510.5 334.47,-546.5"/>
<text text-anchor="start" x="36.92" y="-523.45" font-family="Times New Roman,serif" font-size="14.00" fill="blue">PAKNECONPRVTKN_A:Add factor:HH. Cons Real</text>
</a>
</g>
</g>
<!-- PAKNECONPRVTKN_A&#45;&gt;PAKNECONPRVTKN -->
<g id="edge19" class="edge">
<title>PAKNECONPRVTKN_A-&gt;PAKNECONPRVTKN</title>
<g id="a_edge19"><a xlink:href="bogus" xlink:title=" PAKNECONPRVTKN_A -&gt; PAKNECONPRVTKN Min. att. -0%  max: 0%">
<path fill="none" stroke="black" d="M334.87,-516.11C353.42,-514.58 372.21,-513.04 390.28,-511.56"/>
<polygon fill="black" stroke="black" points="390.44,-514.98 400.12,-510.67 389.87,-508 390.44,-514.98"/>
</a>
</g>
</g>
<!-- PAKNECONPRVTKN_X -->
<g id="node14" class="node">
<title>PAKNECONPRVTKN_X</title>
<g id="a_node14"><a xlink:title="Fix value:HH. Cons Real
Exogen">
<polygon fill="yellow" stroke="black" points="330.72,-492.5 34.87,-492.5 34.87,-456.5 330.72,-456.5 330.72,-492.5"/>
<text text-anchor="start" x="40.67" y="-469.45" font-family="Times New Roman,serif" font-size="14.00" fill="blue">PAKNECONPRVTKN_X:Fix value:HH. Cons Real</text>
</a>
</g>
</g>
<!-- PAKNECONPRVTKN_X&#45;&gt;PAKNECONPRVTKN -->
<g id="edge10" class="edge">
<title>PAKNECONPRVTKN_X-&gt;PAKNECONPRVTKN</title>
<g id="a_edge10"><a xlink:href="bogus" xlink:title=" PAKNECONPRVTKN_X -&gt; PAKNECONPRVTKN Min. att. -0%  max: 0%">
<path fill="none" stroke="black" d="M331.02,-486.58C350.95,-488.21 371.22,-489.88 390.65,-491.47"/>
<polygon fill="black" stroke="black" points="390.09,-495.02 400.35,-492.35 390.67,-488.04 390.09,-495.02"/>
</a>
</g>
</g>
<!-- PAKSMAGRFSTYKN -->
<g id="node15" class="node">
<title>PAKSMAGRFSTYKN</title>
<g id="a_node15"><a xlink:title="PAKSMAGRFSTYKN
FRML &lt;IDENT&gt; PAKSMAGRFSTYKN = ((1+0.195965019358753)*(0.010131919293849*PAKNECONPRVTKN+0*PAKNECONGOVTKN+0*PAKNEGDIFTOTKN+0.000136733767007103*PAKNEEXPGNFSKN+0.0199955288980741*PAKNEGDISTKBKN)-0.00076829563200478*PAKNEIMPGNFSKN-0.00172030587371022*PAKNYTAXNINDKN-65421)/(1+0.319587584852584) $">
<polygon fill="#63b8ff" stroke="black" points="908.55,-600.5 765.7,-600.5 765.7,-564.5 908.55,-564.5 908.55,-600.5"/>
<text text-anchor="start" x="771.5" y="-577.45" font-family="Times New Roman,serif" font-size="14.00" fill="blue">PAKSMAGRFSTYKN:</text>
</a>
</g>
</g>
<!-- PAKPANUSATLS -->
<g id="node16" class="node">
<title>PAKPANUSATLS</title>
<g id="a_node16"><a xlink:title="Exchange rate LCU / US$ - Pakistan
FRML &lt;DAMP,STOC&gt; PAKPANUSATLS = (PAKPANUSATLS(-1)*EXP(PAKPANUSATLS_A+ ((0.295032006650061*((USAINTRXN/100-(( (100 * ( (USANECONPRVTXN) / (USANECONPRVTXN(-1)) -1)) /100+ (100 * ( (USANECONPRVTXN(-1)) / (USANECONPRVTXN(-2)) -1)) /100+ (100 * ( (USANECONPRVTXN(-2)) / (USANECONPRVTXN(-3)) -1)) /100+ (100 * ( (USANECONPRVTXN(-3)) / (USANECONPRVTXN(-4)) -1)) /100)/4.0))-(PAKMPPOLNATRXN/100-PAKINFLEXPT/100))+0.0745339074046556*( (100 * ( (USANECONPRVTXN) / (USANECONPRVTXN(-1)) -1)) /100- (100 * ( (PAKNECONPRVTXN) / (PAKNECONPRVTXN(-1)) -1)) /100))+0.204055946624338*DURING_2009+0.0213) )) * (1-PAKPANUSATLS_D)+ PAKPANUSATLS_X*PAKPANUSATLS_D  $">
<polygon fill="#63b8ff" stroke="black" points="341.97,-438.5 23.62,-438.5 23.62,-402.5 341.97,-402.5 341.97,-438.5"/>
<text text-anchor="start" x="29.42" y="-415.45" font-family="Times New Roman,serif" font-size="14.00" fill="blue">PAKPANUSATLS:Exchange rate LCU / US$ - Pakistan</text>
</a>
</g>
</g>
<!-- PAKPANUSATLS&#45;&gt;PAKNECONPRVTKN -->
<g id="edge30" class="edge">
<title>PAKPANUSATLS-&gt;PAKNECONPRVTKN</title>
<g id="a_edge30"><a xlink:href="bogus" xlink:title=" PAKPANUSATLS -&gt; PAKNECONPRVTKN Min. att. -12%  max: 42%">
<path fill="none" stroke="black" stroke-width="4.16" d="M327.26,-439C340.29,-441.52 353.23,-444.35 365.6,-447.5 395.75,-455.18 428.32,-466.76 455.14,-477.22"/>
<polygon fill="black" stroke="black" stroke-width="4.16" points="454.17,-480.74 464.81,-481.06 456.86,-473.98 454.17,-480.74"/>
</a>
</g>
</g>
<!-- PAKNYGDPMKTPKN -->
<g id="node17" class="node">
<title>PAKNYGDPMKTPKN</title>
<g id="a_node17"><a xlink:title="Real GDP
FRML &lt;IDENT&gt; PAKNYGDPMKTPKN = PAKNECONPRVTKN+PAKNECONGOVTKN+PAKNEGDIFTOTKN+PAKNEGDISTKBKN+PAKNEEXPGNFSKN-PAKNEIMPGNFSKN+PAKNYGDPDISCKN+PAKADAP*PAKDISPREPKN $">
<polygon fill="#63b8ff" stroke="black" points="937.8,-546.5 736.45,-546.5 736.45,-510.5 937.8,-510.5 937.8,-546.5"/>
<text text-anchor="start" x="742.25" y="-523.45" font-family="Times New Roman,serif" font-size="14.00" fill="blue">PAKNYGDPMKTPKN:Real GDP</text>
</a>
</g>
</g>
<!-- PAKNECONPRVTKN&#45;&gt;PAKSMINDCNSTKN -->
<g id="edge5" class="edge">
<title>PAKNECONPRVTKN-&gt;PAKSMINDCNSTKN</title>
<g id="a_edge5"><a xlink:href="bogus" xlink:title=" PAKNECONPRVTKN -&gt; PAKSMINDCNSTKN Min. att. 0%  max: 0%">
<path fill="none" stroke="black" d="M514.93,-519.89C516.1,-587.27 529.87,-822.47 662.2,-933.5 687.96,-955.12 723.72,-963.14 756.12,-965.26"/>
<polygon fill="black" stroke="black" points="755.8,-968.79 765.96,-965.76 756.13,-961.8 755.8,-968.79"/>
</a>
</g>
</g>
<!-- PAKNECONPRVTKN&#45;&gt;PAKSMENGTOTLKN -->
<g id="edge8" class="edge">
<title>PAKNECONPRVTKN-&gt;PAKSMENGTOTLKN</title>
<g id="a_edge8"><a xlink:href="bogus" xlink:title=" PAKNECONPRVTKN -&gt; PAKSMENGTOTLKN Min. att. -6462%  max: 289%">
<path fill="none" stroke="black" stroke-width="8" d="M515.91,-519.75C520.38,-581.57 543.86,-784.46 662.2,-879.5 686.55,-899.05 719.17,-907.3 749.58,-910.15"/>
<polygon fill="black" stroke="black" stroke-width="8" points="748.79,-917.5 759.23,-911.18 749.71,-903.53 748.79,-917.5"/>
</a>
</g>
</g>
<!-- PAKNECONPRVTKN&#45;&gt;PAKNECONENGYKN -->
<g id="edge7" class="edge">
<title>PAKNECONPRVTKN-&gt;PAKNECONENGYKN</title>
<g id="a_edge7"><a xlink:href="bogus" xlink:title=" PAKNECONPRVTKN -&gt; PAKNECONENGYKN Min. att. -688%  max: 752%">
<path fill="none" stroke="black" stroke-width="8" d="M517.21,-519.91C525.31,-576.09 557.84,-746.32 662.2,-825.5 686.65,-844.05 718.69,-852.2 748.6,-855.26"/>
<polygon fill="black" stroke="black" stroke-width="8" points="747.97,-862.68 758.46,-856.44 749.01,-848.72 747.97,-862.68"/>
</a>
</g>
</g>
<!-- PAKNECONPRVTKN&#45;&gt;PAKSMSRVWHSLKN -->
<g id="edge11" class="edge">
<title>PAKNECONPRVTKN-&gt;PAKSMSRVWHSLKN</title>
<g id="a_edge11"><a xlink:href="bogus" xlink:title=" PAKNECONPRVTKN -&gt; PAKSMSRVWHSLKN Min. att. 0%  max: 0%">
<path fill="none" stroke="black" d="M518.91,-519.68C530.89,-569.31 571.34,-707.63 662.2,-771.5 688.36,-789.89 722.2,-797.76 753.07,-800.63"/>
<polygon fill="black" stroke="black" points="752.61,-804.18 762.85,-801.45 753.14,-797.2 752.61,-804.18"/>
</a>
</g>
</g>
<!-- PAKNECONPRVTKN&#45;&gt;PAKSMINDOTHRTKN -->
<g id="edge24" class="edge">
<title>PAKNECONPRVTKN-&gt;PAKSMINDOTHRTKN</title>
<g id="a_edge24"><a xlink:href="bogus" xlink:title=" PAKNECONPRVTKN -&gt; PAKSMINDOTHRTKN Min. att. -5607%  max: 1231%">
<path fill="none" stroke="black" stroke-width="8" d="M521.45,-519.74C537.78,-562.36 584.67,-668.55 662.2,-717.5 687.05,-733.19 717.78,-740.9 746.47,-744.42"/>
<polygon fill="black" stroke="black" stroke-width="8" points="745.5,-751.95 756.14,-745.96 746.88,-738.01 745.5,-751.95"/>
</a>
</g>
</g>
<!-- PAKNECONPRVTKN&#45;&gt;PAKNECONPRVTKN_FITTED -->
<g id="edge20" class="edge">
<title>PAKNECONPRVTKN-&gt;PAKNECONPRVTKN_FITTED</title>
<g id="a_edge20"><a xlink:href="bogus" xlink:title=" PAKNECONPRVTKN -&gt; PAKNECONPRVTKN_FITTED Min. att. -23%  max: 474%">
<path fill="none" stroke="black" stroke-width="8" d="M525.53,-519.79C546.68,-554.32 597.59,-628.75 662.2,-663.5 663.5,-664.2 664.8,-664.88 666.12,-665.54"/>
<polygon fill="black" stroke="black" stroke-width="8" points="662.69,-672.35 674.67,-670.05 668.4,-659.57 662.69,-672.35"/>
</a>
</g>
</g>
<!-- PAKNECONPRVTKN&#45;&gt;PAKNEGDETTOTKN -->
<g id="edge3" class="edge">
<title>PAKNECONPRVTKN-&gt;PAKNEGDETTOTKN</title>
<g id="a_edge3"><a xlink:href="bogus" xlink:title=" PAKNECONPRVTKN -&gt; PAKNEGDETTOTKN Min. att. -811%  max: 2284%">
<path fill="none" stroke="black" stroke-width="8" d="M533.51,-519.86C559.79,-544.59 610.36,-587.99 662.2,-609.5 665.47,-610.86 668.8,-612.14 672.17,-613.37"/>
<polygon fill="black" stroke="black" stroke-width="8" points="669.56,-619.85 681.24,-616.34 673.94,-606.56 669.56,-619.85"/>
</a>
</g>
</g>
<!-- PAKNECONPRVTKN&#45;&gt;PAKSMAGRFSTYKN -->
<g id="edge15" class="edge">
<title>PAKNECONPRVTKN-&gt;PAKSMAGRFSTYKN</title>
<g id="a_edge15"><a xlink:href="bogus" xlink:title=" PAKNECONPRVTKN -&gt; PAKSMAGRFSTYKN Min. att. 90%  max: 109%">
<path fill="none" stroke="black" stroke-width="8" d="M558.33,-520C587.29,-531.69 626.47,-546.27 662.2,-555.5 690.28,-562.75 721.44,-568.34 749.54,-572.49"/>
<polygon fill="black" stroke="black" stroke-width="8" points="748.36,-580.25 759.24,-574.72 750.32,-566.38 748.36,-580.25"/>
</a>
</g>
</g>
<!-- PAKNECONPRVTKN&#45;&gt;PAKNYGDPMKTPKN -->
<g id="edge22" class="edge">
<title>PAKNECONPRVTKN-&gt;PAKNYGDPMKTPKN</title>
<g id="a_edge22"><a xlink:href="bogus" xlink:title=" PAKNECONPRVTKN -&gt; PAKNYGDPMKTPKN Min. att. -6968%  max: 6491%">
<path fill="none" stroke="black" stroke-width="8" d="M626.35,-510.87C656.75,-513.42 689.75,-516.2 720.38,-518.77"/>
<polygon fill="black" stroke="black" stroke-width="8" points="719.6,-526.23 730.15,-520.1 720.78,-512.28 719.6,-526.23"/>
</a>
</g>
</g>
<!-- PAKSMINDMNGSKN -->
<g id="node19" class="node">
<title>PAKSMINDMNGSKN</title>
<g id="a_node19"><a xlink:title="PAKSMINDMNGSKN
FRML &lt;IDENT&gt; PAKSMINDMNGSKN = ((1+6.96158341862144)*(0.0132800565666619*PAKNECONPRVTKN+0*PAKNECONGOVTKN+0*PAKNEGDIFTOTKN+0.00704674623894759*PAKNEEXPGNFSKN+0.024122890632682*PAKNEGDISTKBKN)-0.134221966110302*PAKNEIMPGNFSKN-0.500981557895139*PAKNYTAXNINDKN-123652.869264758)/(1+0.200800622280983) $">
<polygon fill="#63b8ff" stroke="black" points="909.67,-492.5 764.58,-492.5 764.58,-456.5 909.67,-456.5 909.67,-492.5"/>
<text text-anchor="start" x="770.38" y="-469.45" font-family="Times New Roman,serif" font-size="14.00" fill="blue">PAKSMINDMNGSKN:</text>
</a>
</g>
</g>
<!-- PAKNECONPRVTKN&#45;&gt;PAKSMINDMNGSKN -->
<g id="edge4" class="edge">
<title>PAKNECONPRVTKN-&gt;PAKSMINDMNGSKN</title>
<g id="a_edge4"><a xlink:href="bogus" xlink:title=" PAKNECONPRVTKN -&gt; PAKSMINDMNGSKN Min. att. -1206230%  max: 171160%">
<path fill="none" stroke="black" stroke-width="8" d="M626.35,-492.13C666.3,-488.77 710.75,-485.04 748.41,-481.87"/>
<polygon fill="black" stroke="black" stroke-width="8" points="748.73,-488.37 758.1,-480.55 747.55,-474.42 748.73,-488.37"/>
</a>
</g>
</g>
<!-- PAKSMSRVFINSKN -->
<g id="node20" class="node">
<title>PAKSMSRVFINSKN</title>
<g id="a_node20"><a xlink:title="PAKSMSRVFINSKN
FRML &lt;IDENT&gt; PAKSMSRVFINSKN = ((1+1.04148314760779)*(0.0520379651885469*PAKNECONPRVTKN+0*PAKNECONGOVTKN+0*PAKNEGDIFTOTKN+0.00879145012359898*PAKNEEXPGNFSKN+0*PAKNEGDISTKBKN)-0.00594416979264236*PAKNEIMPGNFSKN-0.000103762679145856*PAKNYTAXNINDKN-0)/(1+0.24687745523084) $">
<polygon fill="#63b8ff" stroke="black" points="905.17,-438.5 769.08,-438.5 769.08,-402.5 905.17,-402.5 905.17,-438.5"/>
<text text-anchor="start" x="774.88" y="-415.45" font-family="Times New Roman,serif" font-size="14.00" fill="blue">PAKSMSRVFINSKN:</text>
</a>
</g>
</g>
<!-- PAKNECONPRVTKN&#45;&gt;PAKSMSRVFINSKN -->
<g id="edge9" class="edge">
<title>PAKNECONPRVTKN-&gt;PAKSMSRVFINSKN</title>
<g id="a_edge9"><a xlink:href="bogus" xlink:title=" PAKNECONPRVTKN -&gt; PAKSMSRVFINSKN Min. att. 47%  max: 156%">
<path fill="none" stroke="black" stroke-width="8" d="M558.33,-483C587.29,-471.31 626.47,-456.73 662.2,-447.5 691.41,-439.96 723.95,-434.22 752.92,-430.01"/>
<polygon fill="black" stroke="black" stroke-width="8" points="753.66,-436.14 762.6,-427.83 751.73,-422.27 753.66,-436.14"/>
</a>
</g>
</g>
<!-- PAKSMAGRCRPSKN -->
<g id="node22" class="node">
<title>PAKSMAGRCRPSKN</title>
<g id="a_node22"><a xlink:title="PAKSMAGRCRPSKN
FRML &lt;IDENT&gt; PAKSMAGRCRPSKN = ((1+2.09928590574241)*(0.144287620838506*PAKNECONPRVTKN+0*PAKNECONGOVTKN+0*PAKNEGDIFTOTKN+0.0572678299039023*PAKNEEXPGNFSKN+0.267381669083985*PAKNEGDISTKBKN)-0.0736247088197363*PAKNEIMPGNFSKN-0.0407034395686347*PAKNYTAXNINDKN-906311)/(1+0.396041694659877) $">
<polygon fill="#63b8ff" stroke="black" points="908.55,-384.5 765.7,-384.5 765.7,-348.5 908.55,-348.5 908.55,-384.5"/>
<text text-anchor="start" x="771.5" y="-361.45" font-family="Times New Roman,serif" font-size="14.00" fill="blue">PAKSMAGRCRPSKN:</text>
</a>
</g>
</g>
<!-- PAKNECONPRVTKN&#45;&gt;PAKSMAGRCRPSKN -->
<g id="edge23" class="edge">
<title>PAKNECONPRVTKN-&gt;PAKSMAGRCRPSKN</title>
<g id="a_edge23"><a xlink:href="bogus" xlink:title=" PAKNECONPRVTKN -&gt; PAKSMAGRCRPSKN Min. att. 27%  max: 758%">
<path fill="none" stroke="black" stroke-width="8" d="M533.51,-483.14C559.79,-458.41 610.36,-415.01 662.2,-393.5 689.59,-382.14 721.2,-375.51 749.9,-371.66"/>
<polygon fill="black" stroke="black" stroke-width="8" points="750.4,-377.93 759.5,-369.79 748.74,-364.03 750.4,-377.93"/>
</a>
</g>
</g>
<!-- PAKSMAGRFSNGKN -->
<g id="node23" class="node">
<title>PAKSMAGRFSNGKN</title>
<g id="a_node23"><a xlink:title="PAKSMAGRFSNGKN
FRML &lt;IDENT&gt; PAKSMAGRFSNGKN = ((1+1.92407325889309)*(0.00246195499563977*PAKNECONPRVTKN+0*PAKNECONGOVTKN+0*PAKNEGDIFTOTKN+0.00130433854799597*PAKNEEXPGNFSKN+0.00497657560072267*PAKNEGDISTKBKN)-1.14989260682794E-05*PAKNEIMPGNFSKN-2.46467171367829E-07*PAKNYTAXNINDKN-26993)/(1+0.506095544048804) $">
<polygon fill="#63b8ff" stroke="black" points="909.3,-330.5 764.95,-330.5 764.95,-294.5 909.3,-294.5 909.3,-330.5"/>
<text text-anchor="start" x="770.75" y="-307.45" font-family="Times New Roman,serif" font-size="14.00" fill="blue">PAKSMAGRFSNGKN:</text>
</a>
</g>
</g>
<!-- PAKNECONPRVTKN&#45;&gt;PAKSMAGRFSNGKN -->
<g id="edge27" class="edge">
<title>PAKNECONPRVTKN-&gt;PAKSMAGRFSNGKN</title>
<g id="a_edge27"><a xlink:href="bogus" xlink:title=" PAKNECONPRVTKN -&gt; PAKSMAGRFSNGKN Min. att. 22%  max: 3174%">
<path fill="none" stroke="black" stroke-width="8" d="M525.53,-483.21C546.68,-448.68 597.59,-374.25 662.2,-339.5 688.43,-325.39 719.89,-318.12 748.8,-314.51"/>
<polygon fill="black" stroke="black" stroke-width="8" points="749.33,-320.87 758.55,-312.86 747.88,-306.94 749.33,-320.87"/>
</a>
</g>
</g>
<!-- PAKSMSRVTRNSKN -->
<g id="node24" class="node">
<title>PAKSMSRVTRNSKN</title>
<g id="a_node24"><a xlink:title="PAKSMSRVTRNSKN
FRML &lt;IDENT&gt; PAKSMSRVTRNSKN = ((1+0.301074862860981)*(0.204687752761289*PAKNECONPRVTKN+0*PAKNECONGOVTKN+0*PAKNEGDIFTOTKN+0.0551862611209703*PAKNEEXPGNFSKN+0*PAKNEGDISTKBKN)--0.0392641863572605*PAKNEIMPGNFSKN-0.0174996684619017*PAKNYTAXNINDKN-0)/(1+1.11680986862739) $">
<polygon fill="#63b8ff" stroke="black" points="907.8,-276.5 766.45,-276.5 766.45,-240.5 907.8,-240.5 907.8,-276.5"/>
<text text-anchor="start" x="772.25" y="-253.45" font-family="Times New Roman,serif" font-size="14.00" fill="blue">PAKSMSRVTRNSKN:</text>
</a>
</g>
</g>
<!-- PAKNECONPRVTKN&#45;&gt;PAKSMSRVTRNSKN -->
<g id="edge6" class="edge">
<title>PAKNECONPRVTKN-&gt;PAKSMSRVTRNSKN</title>
<g id="a_edge6"><a xlink:href="bogus" xlink:title=" PAKNECONPRVTKN -&gt; PAKSMSRVTRNSKN Min. att. 37%  max: 157%">
<path fill="none" stroke="black" stroke-width="8" d="M521.45,-483.26C537.78,-440.64 584.67,-334.45 662.2,-285.5 688.15,-269.11 720.52,-261.43 750.26,-258.14"/>
<polygon fill="black" stroke="black" stroke-width="8" points="750.64,-264.61 760,-256.77 749.43,-250.67 750.64,-264.61"/>
</a>
</g>
</g>
<!-- PAKNECONPRVTCN -->
<g id="node26" class="node">
<title>PAKNECONPRVTCN</title>
<g id="a_node26"><a xlink:title="Pvt. Cons., LCU mn
FRML &lt;IDENT&gt; PAKNECONPRVTCN = PAKNECONPRVTKN*PAKNECONPRVTXN $">
<polygon fill="#63b8ff" stroke="black" points="964.05,-222.5 710.2,-222.5 710.2,-186.5 964.05,-186.5 964.05,-222.5"/>
<text text-anchor="start" x="716" y="-199.45" font-family="Times New Roman,serif" font-size="14.00" fill="blue">PAKNECONPRVTCN:Pvt. Cons., LCU mn</text>
</a>
</g>
</g>
<!-- PAKNECONPRVTKN&#45;&gt;PAKNECONPRVTCN -->
<g id="edge13" class="edge">
<title>PAKNECONPRVTKN-&gt;PAKNECONPRVTCN</title>
<g id="a_edge13"><a xlink:href="bogus" xlink:title=" PAKNECONPRVTKN -&gt; PAKNECONPRVTCN Min. att. -159%  max: 26%">
<path fill="none" stroke="black" stroke-width="8" d="M518.91,-483.32C530.89,-433.69 571.34,-295.37 662.2,-231.5 672.22,-224.46 683.36,-218.96 695.04,-214.69"/>
<polygon fill="black" stroke="black" stroke-width="8" points="696.65,-221.62 704.06,-211.92 692.41,-208.28 696.65,-221.62"/>
</a>
</g>
</g>
<!-- PAKSMSRVHSNGKN -->
<g id="node28" class="node">
<title>PAKSMSRVHSNGKN</title>
<g id="a_node28"><a xlink:title="PAKSMSRVHSNGKN
FRML &lt;IDENT&gt; PAKSMSRVHSNGKN = ((1+0.782809577554843)*(0.0647364660896117*PAKNECONPRVTKN+0*PAKNECONGOVTKN+0.00605333595533851*PAKNEGDIFTOTKN+0.03048358523237*PAKNEEXPGNFSKN+0*PAKNEGDISTKBKN)-0.0244768173208691*PAKNEIMPGNFSKN-0.0684093628903126*PAKNYTAXNINDKN-0)/(1+0.150771193398883) $">
<polygon fill="#63b8ff" stroke="black" points="908.92,-168.5 765.33,-168.5 765.33,-132.5 908.92,-132.5 908.92,-168.5"/>
<text text-anchor="start" x="771.12" y="-145.45" font-family="Times New Roman,serif" font-size="14.00" fill="blue">PAKSMSRVHSNGKN:</text>
</a>
</g>
</g>
<!-- PAKNECONPRVTKN&#45;&gt;PAKSMSRVHSNGKN -->
<g id="edge18" class="edge">
<title>PAKNECONPRVTKN-&gt;PAKSMSRVHSNGKN</title>
<g id="a_edge18"><a xlink:href="bogus" xlink:title=" PAKNECONPRVTKN -&gt; PAKSMSRVHSNGKN Min. att. -63%  max: 211%">
<path fill="none" stroke="black" stroke-width="8" d="M517.21,-483.09C525.31,-426.91 557.84,-256.68 662.2,-177.5 686.76,-158.87 718.96,-150.73 748.98,-147.7"/>
<polygon fill="black" stroke="black" stroke-width="8" points="749.43,-154.25 758.89,-146.54 748.41,-140.29 749.43,-154.25"/>
</a>
</g>
</g>
<!-- PAKNECONOTHRKN -->
<g id="node29" class="node">
<title>PAKNECONOTHRKN</title>
<g id="a_node29"><a xlink:title="PAKNECONOTHRKN
FRML &lt;IDENT&gt; PAKNECONOTHRKN = PAKNECONOTHRSH**(PAKCESENGYCON)*(PAKNECONPRVTKN*(PAKNECONPRVTXN/PAKNECONOTHRXN)**(PAKCESENGYCON)) $">
<polygon fill="#63b8ff" stroke="black" points="909.3,-114.5 764.95,-114.5 764.95,-78.5 909.3,-78.5 909.3,-114.5"/>
<text text-anchor="start" x="770.75" y="-91.45" font-family="Times New Roman,serif" font-size="14.00" fill="blue">PAKNECONOTHRKN:</text>
</a>
</g>
</g>
<!-- PAKNECONPRVTKN&#45;&gt;PAKNECONOTHRKN -->
<g id="edge26" class="edge">
<title>PAKNECONPRVTKN-&gt;PAKNECONOTHRKN</title>
<g id="a_edge26"><a xlink:href="bogus" xlink:title=" PAKNECONPRVTKN -&gt; PAKNECONOTHRKN Min. att. -2053%  max: 826%">
<path fill="none" stroke="black" stroke-width="8" d="M515.91,-483.25C520.38,-421.43 543.86,-218.54 662.2,-123.5 686.44,-104.03 718.9,-95.77 749.2,-92.89"/>
<polygon fill="black" stroke="black" stroke-width="8" points="749.29,-99.5 758.8,-91.84 748.35,-85.53 749.29,-99.5"/>
</a>
</g>
</g>
<!-- PAKSMSRVGOVSKN -->
<g id="node30" class="node">
<title>PAKSMSRVGOVSKN</title>
<g id="a_node30"><a xlink:title="PAKSMSRVGOVSKN
FRML &lt;IDENT&gt; PAKSMSRVGOVSKN = ((1+0)*(0*PAKNECONPRVTKN+0.789129947325563*PAKNECONGOVTKN+0*PAKNEGDIFTOTKN+0*PAKNEEXPGNFSKN+0*PAKNEGDISTKBKN)-0*PAKNEIMPGNFSKN-0*PAKNYTAXNINDKN-0)/(1+0.947258014252215) $">
<polygon fill="#63b8ff" stroke="black" points="908.92,-60.5 765.33,-60.5 765.33,-24.5 908.92,-24.5 908.92,-60.5"/>
<text text-anchor="start" x="771.12" y="-37.45" font-family="Times New Roman,serif" font-size="14.00" fill="blue">PAKSMSRVGOVSKN:</text>
</a>
</g>
</g>
<!-- PAKNECONPRVTKN&#45;&gt;PAKSMSRVGOVSKN -->
<g id="edge17" class="edge">
<title>PAKNECONPRVTKN-&gt;PAKSMSRVGOVSKN</title>
<g id="a_edge17"><a xlink:href="bogus" xlink:title=" PAKNECONPRVTKN -&gt; PAKSMSRVGOVSKN Min. att. 0%  max: 0%">
<path fill="none" stroke="black" d="M514.93,-483.11C516.1,-415.73 529.87,-180.53 662.2,-69.5 687.54,-48.24 722.56,-40.13 754.53,-37.85"/>
<polygon fill="black" stroke="black" points="754.43,-41.31 764.24,-37.29 754.07,-34.32 754.43,-41.31"/>
</a>
</g>
</g>
<!-- PAKNECONPRVTKN_D -->
<g id="node21" class="node">
<title>PAKNECONPRVTKN_D</title>
<g id="a_node21"><a xlink:title="Fix dummy:HH. Cons Real
Exogen">
<polygon fill="yellow" stroke="black" points="337.47,-384.5 28.12,-384.5 28.12,-348.5 337.47,-348.5 337.47,-384.5"/>
<text text-anchor="start" x="33.92" y="-361.45" font-family="Times New Roman,serif" font-size="14.00" fill="blue">PAKNECONPRVTKN_D:Fix dummy:HH. Cons Real</text>
</a>
</g>
</g>
<!-- PAKNECONPRVTKN_D&#45;&gt;PAKNECONPRVTKN -->
<g id="edge25" class="edge">
<title>PAKNECONPRVTKN_D-&gt;PAKNECONPRVTKN</title>
<g id="a_edge25"><a xlink:href="bogus" xlink:title=" PAKNECONPRVTKN_D -&gt; PAKNECONPRVTKN Min. att. -0%  max: 0%">
<path fill="none" stroke="black" d="M337.52,-383.83C347.16,-386.6 356.6,-389.8 365.6,-393.5 412.64,-412.84 458.57,-450.35 486.3,-475.66"/>
<polygon fill="black" stroke="black" points="483.6,-477.85 493.31,-482.09 488.36,-472.72 483.6,-477.85"/>
</a>
</g>
</g>
<!-- PAKNYYWBTOTLCN -->
<g id="node25" class="node">
<title>PAKNYYWBTOTLCN</title>
<g id="a_node25"><a xlink:title="Total Wage Bill
FRML &lt;IDENT&gt; PAKNYYWBTOTLCN = PAKNYWRTTOTLCN*PAKLMEMPTOTLCN $">
<polygon fill="#63b8ff" stroke="black" points="298.85,-330.5 66.75,-330.5 66.75,-294.5 298.85,-294.5 298.85,-330.5"/>
<text text-anchor="start" x="72.55" y="-307.45" font-family="Times New Roman,serif" font-size="14.00" fill="blue">PAKNYYWBTOTLCN:Total Wage Bill</text>
</a>
</g>
</g>
<!-- PAKNYYWBTOTLCN&#45;&gt;PAKNECONPRVTKN -->
<g id="edge29" class="edge">
<title>PAKNYYWBTOTLCN-&gt;PAKNECONPRVTKN</title>
<g id="a_edge29"><a xlink:href="bogus" xlink:title=" PAKNYYWBTOTLCN -&gt; PAKNECONPRVTKN Min. att. -4565%  max: 1280%">
<path fill="none" stroke="black" stroke-width="8" d="M299.13,-317.53C322.08,-321.82 345.33,-328.68 365.6,-339.5 422.87,-370.06 469.28,-431.93 493.83,-469.74"/>
<polygon fill="black" stroke="black" stroke-width="8" points="488.04,-473.44 499.29,-478.17 499.88,-465.98 488.04,-473.44"/>
</a>
</g>
</g>
<!-- PAKGGREVDRCTXN -->
<g id="node27" class="node">
<title>PAKGGREVDRCTXN</title>
<g id="a_node27"><a xlink:title="Direct Revenue Tax Rate
Exogen">
<polygon fill="yellow" stroke="black" points="322.85,-276.5 42.75,-276.5 42.75,-240.5 322.85,-240.5 322.85,-276.5"/>
<text text-anchor="start" x="48.55" y="-253.45" font-family="Times New Roman,serif" font-size="14.00" fill="blue">PAKGGREVDRCTXN:Direct Revenue Tax Rate</text>
</a>
</g>
</g>
<!-- PAKGGREVDRCTXN&#45;&gt;PAKNECONPRVTKN -->
<g id="edge28" class="edge">
<title>PAKGGREVDRCTXN-&gt;PAKNECONPRVTKN</title>
<g id="a_edge28"><a xlink:href="bogus" xlink:title=" PAKGGREVDRCTXN -&gt; PAKNECONPRVTKN Min. att. -0%  max: 0%">
<path fill="none" stroke="black" d="M323.12,-266.9C338.12,-271.33 352.62,-277.37 365.6,-285.5 437.67,-330.67 483.16,-425.46 502.36,-473.01"/>
<polygon fill="black" stroke="black" points="499.46,-474.19 506.37,-482.22 505.98,-471.63 499.46,-474.19"/>
</a>
</g>
</g>
<!-- DURING_2009 -->
<g id="node31" class="node">
<title>DURING_2009</title>
<g id="a_node31"><a xlink:title="DURING_2009
Exogen">
<polygon fill="yellow" stroke="black" points="233.6,-222.5 132,-222.5 132,-186.5 233.6,-186.5 233.6,-222.5"/>
<text text-anchor="start" x="137.8" y="-199.45" font-family="Times New Roman,serif" font-size="14.00" fill="blue">DURING_2009:</text>
</a>
</g>
</g>
<!-- DURING_2009&#45;&gt;PAKNECONPRVTKN -->
<g id="edge12" class="edge">
<title>DURING_2009-&gt;PAKNECONPRVTKN</title>
<g id="a_edge12"><a xlink:href="bogus" xlink:title=" DURING_2009 -&gt; PAKNECONPRVTKN Min. att. -0%  max: 0%">
<path fill="none" stroke="black" d="M234.09,-200.41C273.27,-199.77 327.27,-204.74 365.6,-231.5 450.98,-291.1 491.75,-416.56 506.34,-472.97"/>
<polygon fill="black" stroke="black" points="503.1,-473.43 508.91,-482.29 509.89,-471.74 503.1,-473.43"/>
</a>
</g>
</g>
</g>
</svg>