<svg xmlns="http://www.w3.org/2000/svg" xmlns:xlink="http://www.w3.org/1999/xlink" width="432pt" height="408pt" viewBox="0.00 0.00 432.00 407.99">
<g id="graph0" class="graph" transform="scale(0.815171 0.815171) rotate(0) translate(4 496.5)">
<title>TD</title>
<polygon fill="white" stroke="none" points="-4,4 -4,-496.5 525.95,-496.5 525.95,4 -4,4"/>
<text text-anchor="middle" x="260.98" y="-7.2" font-family="Times New Roman,serif" font-size="14.00">PAKNYGDPMKTPKN</text>
<!-- PAKNEGDISTKBKN -->
<g id="node1" class="node">
<title>PAKNEGDISTKBKN</title>
<g id="a_node1"><a xlink:title="Stock real
Exogen">
<polygon fill="yellow" stroke="black" points="238.48,-492.5 46.13,-492.5 46.13,-456.5 238.48,-456.5 238.48,-492.5"/>
<text text-anchor="start" x="51.93" y="-469.45" font-family="Times New Roman,serif" font-size="14.00" fill="blue">PAKNEGDISTKBKN:Stock real</text>
</a>
</g>
</g>
<!-- PAKNYGDPMKTPKN -->
<g id="node10" class="node">
<title>PAKNYGDPMKTPKN</title>
<g id="a_node10"><a xlink:title="Real GDP
FRML &lt;IDENT&gt; PAKNYGDPMKTPKN = PAKNECONPRVTKN+PAKNECONGOVTKN+PAKNEGDIFTOTKN+PAKNEGDISTKBKN+PAKNEEXPGNFSKN-PAKNEIMPGNFSKN+PAKNYGDPDISCKN+PAKADAP*PAKDISPREPKN $">
<polygon fill="red" stroke="black" points="521.95,-276.5 320.6,-276.5 320.6,-240.5 521.95,-240.5 521.95,-276.5"/>
<text text-anchor="start" x="326.4" y="-253.45" font-family="Times New Roman,serif" font-size="14.00" fill="blue">PAKNYGDPMKTPKN:Real GDP</text>
</a>
</g>
</g>
<!-- PAKNEGDISTKBKN&#45;&gt;PAKNYGDPMKTPKN -->
<g id="edge5" class="edge">
<title>PAKNEGDISTKBKN-&gt;PAKNYGDPMKTPKN</title>
<g id="a_edge5"><a xlink:href="bogus" xlink:title=" PAKNEGDISTKBKN -&gt; PAKNYGDPMKTPKN Min. att. 0%  max: 0%">
<path fill="none" stroke="black" d="M238.68,-466.53C254.83,-462.37 270.81,-456.31 284.6,-447.5 346.57,-407.91 389.02,-329.03 408.37,-286.78"/>
<polygon fill="black" stroke="black" points="411.91,-288.43 412.79,-277.87 405.52,-285.58 411.91,-288.43"/>
</a>
</g>
</g>
<!-- PAKNYGDPDISCKN -->
<g id="node2" class="node">
<title>PAKNYGDPDISCKN</title>
<g id="a_node2"><a xlink:title="GDP Disc., 2000 LCU mn
Exogen">
<polygon fill="yellow" stroke="black" points="284.6,-438.5 0,-438.5 0,-402.5 284.6,-402.5 284.6,-438.5"/>
<text text-anchor="start" x="5.8" y="-415.45" font-family="Times New Roman,serif" font-size="14.00" fill="blue">PAKNYGDPDISCKN:GDP Disc., 2000 LCU mn</text>
</a>
</g>
</g>
<!-- PAKNYGDPDISCKN&#45;&gt;PAKNYGDPMKTPKN -->
<g id="edge8" class="edge">
<title>PAKNYGDPDISCKN-&gt;PAKNYGDPMKTPKN</title>
<g id="a_edge8"><a xlink:href="bogus" xlink:title=" PAKNYGDPDISCKN -&gt; PAKNYGDPMKTPKN Min. att. 0%  max: 0%">
<path fill="none" stroke="black" d="M265.54,-402.03C272.13,-399.54 278.53,-396.71 284.6,-393.5 334.34,-367.23 377.63,-316.67 401.24,-285.43"/>
<polygon fill="black" stroke="black" points="404.51,-287.91 407.65,-277.79 398.88,-283.74 404.51,-287.91"/>
</a>
</g>
</g>
<!-- PAKADAP -->
<g id="node3" class="node">
<title>PAKADAP</title>
<g id="a_node3"><a xlink:title="PAKADAP
Exogen">
<polygon fill="yellow" stroke="black" points="181.48,-384.5 103.13,-384.5 103.13,-348.5 181.48,-348.5 181.48,-384.5"/>
<text text-anchor="start" x="108.93" y="-361.45" font-family="Times New Roman,serif" font-size="14.00" fill="blue">PAKADAP:</text>
</a>
</g>
</g>
<!-- PAKADAP&#45;&gt;PAKNYGDPMKTPKN -->
<g id="edge9" class="edge">
<title>PAKADAP-&gt;PAKNYGDPMKTPKN</title>
<g id="a_edge9"><a xlink:href="bogus" xlink:title=" PAKADAP -&gt; PAKNYGDPMKTPKN Min. att. 0%  max: 0%">
<path fill="none" stroke="black" d="M181.77,-362.82C210.76,-359.18 251.1,-352.24 284.6,-339.5 321.76,-325.36 360.32,-301.28 386.79,-283.03"/>
<polygon fill="black" stroke="black" points="388.44,-285.45 394.63,-276.85 384.43,-279.72 388.44,-285.45"/>
</a>
</g>
</g>
<!-- PAKNEGDIFTOTKN -->
<g id="node4" class="node">
<title>PAKNEGDIFTOTKN</title>
<g id="a_node4"><a xlink:title="Investment real
FRML &lt;IDENT&gt; PAKNEGDIFTOTKN = PAKNEGDIFGOVKN+PAKNEGDIFPRVKN $">
<polygon fill="#63b8ff" stroke="black" points="253.1,-330.5 31.5,-330.5 31.5,-294.5 253.1,-294.5 253.1,-330.5"/>
<text text-anchor="start" x="37.3" y="-307.45" font-family="Times New Roman,serif" font-size="14.00" fill="blue">PAKNEGDIFTOTKN:Investment real</text>
</a>
</g>
</g>
<!-- PAKNEGDIFTOTKN&#45;&gt;PAKNYGDPMKTPKN -->
<g id="edge1" class="edge">
<title>PAKNEGDIFTOTKN-&gt;PAKNYGDPMKTPKN</title>
<g id="a_edge1"><a xlink:href="bogus" xlink:title=" PAKNEGDIFTOTKN -&gt; PAKNYGDPMKTPKN Min. att. 0%  max: 0%">
<path fill="none" stroke="black" d="M240.61,-294.01C255.35,-291.18 270.38,-288.27 284.6,-285.5 295.23,-283.43 306.32,-281.25 317.39,-279.06"/>
<polygon fill="black" stroke="black" points="317.84,-282.34 326.97,-276.97 316.48,-275.47 317.84,-282.34"/>
</a>
</g>
</g>
<!-- PAKNEEXPGNFSKN -->
<g id="node5" class="node">
<title>PAKNEEXPGNFSKN</title>
<g id="a_node5"><a xlink:title="Exports real
FRML &lt;DAMP,STOC&gt; PAKNEEXPGNFSKN = (PAKNEEXPGNFSKN(-1)*EXP(PAKNEEXPGNFSKN_A+ (-0.35*(LOG(PAKNEEXPGNFSKN(-1))-LOG(PAKXMKT(-1))-0.6*LOG(PAKNEEXPGNFSXN(-1)/(PAKNYGDPFCSTXN(-1))))+1*((LOG(PAKXMKT))-(LOG(PAKXMKT(-1))))+0.3*((LOG(PAKNEEXPGNFSXN/(PAKNYGDPFCSTXN)))-(LOG(PAKNEEXPGNFSXN(-1)/(PAKNYGDPFCSTXN(-1)))))+4.38465374402991-0.237469889780178*DURING_1999-0.230689812873392*DURING_1998+0.320967524344658*DURING_1991+0.250252413901575*DURING_1986) )) * (1-PAKNEEXPGNFSKN_D)+ PAKNEEXPGNFSKN_X*PAKNEEXPGNFSKN_D  $">
<polygon fill="#63b8ff" stroke="black" points="244.85,-276.5 39.75,-276.5 39.75,-240.5 244.85,-240.5 244.85,-276.5"/>
<text text-anchor="start" x="45.55" y="-253.45" font-family="Times New Roman,serif" font-size="14.00" fill="blue">PAKNEEXPGNFSKN:Exports real</text>
</a>
</g>
</g>
<!-- PAKNEEXPGNFSKN&#45;&gt;PAKNYGDPMKTPKN -->
<g id="edge4" class="edge">
<title>PAKNEEXPGNFSKN-&gt;PAKNYGDPMKTPKN</title>
<g id="a_edge4"><a xlink:href="bogus" xlink:title=" PAKNEEXPGNFSKN -&gt; PAKNYGDPMKTPKN Min. att. 0%  max: 0%">
<path fill="none" stroke="black" d="M245.26,-258.5C266.14,-258.5 288.22,-258.5 309.4,-258.5"/>
<polygon fill="black" stroke="black" points="309.38,-262 319.38,-258.5 309.38,-255 309.38,-262"/>
</a>
</g>
</g>
<!-- PAKDISPREPKN -->
<g id="node6" class="node">
<title>PAKDISPREPKN</title>
<g id="a_node6"><a xlink:title="PAKDISPREPKN
FRML &lt;IDENT&gt; PAKDISPREPKN = PAKDISPREPCN/PAKNYGDPMKTPXN $">
<polygon fill="#63b8ff" stroke="black" points="199.85,-222.5 84.75,-222.5 84.75,-186.5 199.85,-186.5 199.85,-222.5"/>
<text text-anchor="start" x="90.55" y="-199.45" font-family="Times New Roman,serif" font-size="14.00" fill="blue">PAKDISPREPKN:</text>
</a>
</g>
</g>
<!-- PAKDISPREPKN&#45;&gt;PAKNYGDPMKTPKN -->
<g id="edge7" class="edge">
<title>PAKDISPREPKN-&gt;PAKNYGDPMKTPKN</title>
<g id="a_edge7"><a xlink:href="bogus" xlink:title=" PAKDISPREPKN -&gt; PAKNYGDPMKTPKN Min. att. 0%  max: 0%">
<path fill="none" stroke="black" d="M200.04,-215.24C225.85,-220.15 256.78,-226.07 284.6,-231.5 295.23,-233.57 306.32,-235.75 317.39,-237.94"/>
<polygon fill="black" stroke="black" points="316.48,-241.53 326.97,-240.03 317.84,-234.66 316.48,-241.53"/>
</a>
</g>
</g>
<!-- PAKNECONPRVTKN -->
<g id="node7" class="node">
<title>PAKNECONPRVTKN</title>
<g id="a_node7"><a xlink:title="HH. Cons Real
FRML &lt;DAMP,STOC&gt; PAKNECONPRVTKN = (PAKNECONPRVTKN(-1)*EXP(PAKNECONPRVTKN_A+ (-0.2*(LOG(PAKNECONPRVTKN(-1))-LOG(1.21203101101442)-LOG((((PAKBXFSTREMTCD(-1)-PAKBMFSTREMTCD(-1))*PAKPANUSATLS(-1))+PAKGGEXPTRNSCN(-1)+PAKNYYWBTOTLCN(-1)*(1-PAKGGREVDRCTXN(-1)/100))/PAKNECONPRVTXN(-1)))+0.763938860758873*((LOG((((PAKBXFSTREMTCD-PAKBMFSTREMTCD)*PAKPANUSATLS)+PAKGGEXPTRNSCN+PAKNYYWBTOTLCN*(1-PAKGGREVDRCTXN/100))/PAKNECONPRVTXN))-(LOG((((PAKBXFSTREMTCD(-1)-PAKBMFSTREMTCD(-1))*PAKPANUSATLS(-1))+PAKGGEXPTRNSCN(-1)+PAKNYYWBTOTLCN(-1)*(1-PAKGGREVDRCTXN(-1)/100))/PAKNECONPRVTXN(-1))))-0.0634474791568939*DURING_2009-0.3*(PAKFMLBLPOLYXN/100-((LOG(PAKNECONPRVTXN))-(LOG(PAKNECONPRVTXN(-1)))))) )) * (1-PAKNECONPRVTKN_D)+ PAKNECONPRVTKN_X*PAKNECONPRVTKN_D  $">
<polygon fill="#63b8ff" stroke="black" points="254.6,-168.5 30,-168.5 30,-132.5 254.6,-132.5 254.6,-168.5"/>
<text text-anchor="start" x="35.8" y="-145.45" font-family="Times New Roman,serif" font-size="14.00" fill="blue">PAKNECONPRVTKN:HH. Cons Real</text>
</a>
</g>
</g>
<!-- PAKNECONPRVTKN&#45;&gt;PAKNYGDPMKTPKN -->
<g id="edge2" class="edge">
<title>PAKNECONPRVTKN-&gt;PAKNYGDPMKTPKN</title>
<g id="a_edge2"><a xlink:href="bogus" xlink:title=" PAKNECONPRVTKN -&gt; PAKNYGDPMKTPKN Min. att. 0%  max: 0%">
<path fill="none" stroke="black" d="M255.01,-168.04C265.15,-170.77 275.15,-173.9 284.6,-177.5 321.76,-191.64 360.32,-215.72 386.79,-233.97"/>
<polygon fill="black" stroke="black" points="384.43,-237.28 394.63,-240.15 388.44,-231.55 384.43,-237.28"/>
</a>
</g>
</g>
<!-- PAKNECONGOVTKN -->
<g id="node8" class="node">
<title>PAKNECONGOVTKN</title>
<g id="a_node8"><a xlink:title="Gov. Cons real
FRML &lt;IDENT&gt; PAKNECONGOVTKN = PAKNECONGOVTCN/PAKNECONGOVTXN $">
<polygon fill="#63b8ff" stroke="black" points="255.73,-114.5 28.88,-114.5 28.88,-78.5 255.73,-78.5 255.73,-114.5"/>
<text text-anchor="start" x="34.68" y="-91.45" font-family="Times New Roman,serif" font-size="14.00" fill="blue">PAKNECONGOVTKN:Gov. Cons real</text>
</a>
</g>
</g>
<!-- PAKNECONGOVTKN&#45;&gt;PAKNYGDPMKTPKN -->
<g id="edge3" class="edge">
<title>PAKNECONGOVTKN-&gt;PAKNYGDPMKTPKN</title>
<g id="a_edge3"><a xlink:href="bogus" xlink:title=" PAKNECONGOVTKN -&gt; PAKNYGDPMKTPKN Min. att. 0%  max: 0%">
<path fill="none" stroke="black" d="M256.09,-111.65C266,-114.87 275.66,-118.78 284.6,-123.5 334.34,-149.77 377.63,-200.33 401.24,-231.57"/>
<polygon fill="black" stroke="black" points="398.88,-233.26 407.65,-239.21 404.51,-229.09 398.88,-233.26"/>
</a>
</g>
</g>
<!-- PAKNEIMPGNFSKN -->
<g id="node9" class="node">
<title>PAKNEIMPGNFSKN</title>
<g id="a_node9"><a xlink:title="Imports real
FRML &lt;DAMP,STOC&gt; PAKNEIMPGNFSKN = (PAKNEIMPGNFSKN(-1)*EXP(PAKNEIMPGNFSKN_A+ (-0.324143718656754*(LOG(PAKNEIMPGNFSKN(-1))-LOG(PAKNEGDETTOTKN(-1))+0.8*LOG(PAKNEIMPGNFSXN(-1)/PAKNYGDPFCSTXN(-1)))-0.583459272245018+1*((LOG(PAKNEGDETTOTKN))-(LOG(PAKNEGDETTOTKN(-1))))-0.0921874580409631*((LOG(PAKNEIMPGNFSXN/PAKNYGDPFCSTXN))-(LOG(PAKNEIMPGNFSXN(-1)/PAKNYGDPFCSTXN(-1))))-0.0361746331863615*DURING_2012) )) * (1-PAKNEIMPGNFSKN_D)+ PAKNEIMPGNFSKN_X*PAKNEIMPGNFSKN_D  $">
<polygon fill="#63b8ff" stroke="black" points="244.85,-60.5 39.75,-60.5 39.75,-24.5 244.85,-24.5 244.85,-60.5"/>
<text text-anchor="start" x="45.55" y="-37.45" font-family="Times New Roman,serif" font-size="14.00" fill="blue">PAKNEIMPGNFSKN:Imports real</text>
</a>
</g>
</g>
<!-- PAKNEIMPGNFSKN&#45;&gt;PAKNYGDPMKTPKN -->
<g id="edge6" class="edge">
<title>PAKNEIMPGNFSKN-&gt;PAKNYGDPMKTPKN</title>
<g id="a_edge6"><a xlink:href="bogus" xlink:title=" PAKNEIMPGNFSKN -&gt; PAKNYGDPMKTPKN Min. att. 0%  max: 0%">
<path fill="none" stroke="black" d="M245.32,-52.29C259.18,-56.34 272.71,-61.9 284.6,-69.5 346.57,-109.09 389.02,-187.97 408.37,-230.22"/>
<polygon fill="black" stroke="black" points="405.52,-231.42 412.79,-239.13 411.91,-228.57 405.52,-231.42"/>
</a>
</g>
</g>
</g>
</svg>