<svg xmlns="http://www.w3.org/2000/svg" xmlns:xlink="http://www.w3.org/1999/xlink" width="338pt" height="432pt" viewBox="0.00 0.00 338.35 432.00">
<g id="graph0" class="graph" transform="scale(0.439874 0.439874) rotate(0) translate(4 978.1)">
<title>TD</title>
<polygon fill="white" stroke="none" points="-4,4 -4,-978.1 765.2,-978.1 765.2,4 -4,4"/>
<text text-anchor="middle" x="380.6" y="-7.2" font-family="Times New Roman,serif" font-size="14.00">PAKNYGDPMKTPKN</text>
<!-- PAKNEGDIFTOTKN -->
<g id="node1" class="node">
<title>PAKNEGDIFTOTKN</title>
<polygon fill="none" stroke="black" points="352.1,-974.1 10.5,-974.1 10.5,-750.5 352.1,-750.5 352.1,-974.1"/>
<g id="a_node1_0"><a xlink:href="bogus" xlink:title="Investment real
FRML &lt;IDENT&gt; PAKNEGDIFTOTKN = PAKNEGDIFGOVKN+PAKNEGDIFPRVKN $">
<polygon fill="#ff7f24" stroke="none" points="15.3,-947.3 15.3,-969.3 347.3,-969.3 347.3,-947.3 15.3,-947.3"/>
<polygon fill="none" stroke="black" points="15.3,-947.3 15.3,-969.3 347.3,-969.3 347.3,-947.3 15.3,-947.3"/>
<text text-anchor="start" x="76.3" y="-953" font-family="Times New Roman,serif" font-size="14.00" fill="blue">PAKNEGDIFTOTKN:Investment real</text>
</a>
</g>
<polygon fill="none" stroke="black" points="15.3,-923.3 15.3,-945.3 89.3,-945.3 89.3,-923.3 15.3,-923.3"/>
<text text-anchor="start" x="18.3" y="-929" font-family="Times New Roman,serif" font-size="14.00" fill="blue">Per</text>
<polygon fill="none" stroke="black" points="91.3,-923.3 91.3,-945.3 175.3,-945.3 175.3,-923.3 91.3,-923.3"/>
<text text-anchor="start" x="119.8" y="-929" font-family="Times New Roman,serif" font-size="14.00" fill="blue">2025</text>
<polygon fill="none" stroke="black" points="177.3,-923.3 177.3,-945.3 261.3,-945.3 261.3,-923.3 177.3,-923.3"/>
<text text-anchor="start" x="205.8" y="-929" font-family="Times New Roman,serif" font-size="14.00" fill="blue">2026</text>
<polygon fill="none" stroke="black" points="263.3,-923.3 263.3,-945.3 347.3,-945.3 347.3,-923.3 263.3,-923.3"/>
<text text-anchor="start" x="291.8" y="-929" font-family="Times New Roman,serif" font-size="14.00" fill="blue">2027</text>
<g id="a_node1_1"><a xlink:href="bogus" xlink:title="Baseline values">
<polygon fill="none" stroke="black" points="15.3,-899.3 15.3,-921.3 89.3,-921.3 89.3,-899.3 15.3,-899.3"/>
<text text-anchor="start" x="18.3" y="-905" font-family="Times New Roman,serif" font-size="14.00" fill="blue">Base</text>
</a>
</g>
<g id="a_node1_2"><a xlink:href="bogus" xlink:title="Baseline values">
<polygon fill="none" stroke="black" points="91.3,-899.3 91.3,-921.3 175.3,-921.3 175.3,-899.3 91.3,-899.3"/>
<text text-anchor="start" x="93.92" y="-905" font-family="Times New Roman,serif" font-size="14.00" fill="blue">3,163,965.352</text>
</a>
</g>
<g id="a_node1_3"><a xlink:href="bogus" xlink:title="Baseline values">
<polygon fill="none" stroke="black" points="177.3,-899.3 177.3,-921.3 261.3,-921.3 261.3,-899.3 177.3,-899.3"/>
<text text-anchor="start" x="179.92" y="-905" font-family="Times New Roman,serif" font-size="14.00" fill="blue">3,210,065.336</text>
</a>
</g>
<g id="a_node1_4"><a xlink:href="bogus" xlink:title="Baseline values">
<polygon fill="none" stroke="black" points="263.3,-899.3 263.3,-921.3 347.3,-921.3 347.3,-899.3 263.3,-899.3"/>
<text text-anchor="start" x="265.92" y="-905" font-family="Times New Roman,serif" font-size="14.00" fill="blue">3,268,452.239</text>
</a>
</g>
<g id="a_node1_5"><a xlink:href="bogus" xlink:title="Latest run values">
<polygon fill="none" stroke="black" points="15.3,-875.3 15.3,-897.3 89.3,-897.3 89.3,-875.3 15.3,-875.3"/>
<text text-anchor="start" x="18.3" y="-881" font-family="Times New Roman,serif" font-size="14.00" fill="blue">Last</text>
</a>
</g>
<polygon fill="none" stroke="black" points="91.3,-875.3 91.3,-897.3 175.3,-897.3 175.3,-875.3 91.3,-875.3"/>
<text text-anchor="start" x="93.92" y="-881" font-family="Times New Roman,serif" font-size="14.00" fill="blue">3,287,084.324</text>
<polygon fill="none" stroke="black" points="177.3,-875.3 177.3,-897.3 261.3,-897.3 261.3,-875.3 177.3,-875.3"/>
<text text-anchor="start" x="179.92" y="-881" font-family="Times New Roman,serif" font-size="14.00" fill="blue">3,358,446.312</text>
<polygon fill="none" stroke="black" points="263.3,-875.3 263.3,-897.3 347.3,-897.3 347.3,-875.3 263.3,-875.3"/>
<text text-anchor="start" x="265.92" y="-881" font-family="Times New Roman,serif" font-size="14.00" fill="blue">3,423,135.425</text>
<g id="a_node1_6"><a xlink:href="bogus" xlink:title="Difference between baseline and latest run">
<polygon fill="none" stroke="black" points="15.3,-851.3 15.3,-873.3 89.3,-873.3 89.3,-851.3 15.3,-851.3"/>
<text text-anchor="start" x="18.3" y="-857" font-family="Times New Roman,serif" font-size="14.00" fill="blue">Diff</text>
</a>
</g>
<polygon fill="none" stroke="black" points="91.3,-851.3 91.3,-873.3 175.3,-873.3 175.3,-851.3 91.3,-851.3"/>
<text text-anchor="start" x="104.05" y="-857" font-family="Times New Roman,serif" font-size="14.00" fill="blue">123,118.972</text>
<polygon fill="none" stroke="black" points="177.3,-851.3 177.3,-873.3 261.3,-873.3 261.3,-851.3 177.3,-851.3"/>
<text text-anchor="start" x="190.05" y="-857" font-family="Times New Roman,serif" font-size="14.00" fill="blue">148,380.976</text>
<polygon fill="none" stroke="black" points="263.3,-851.3 263.3,-873.3 347.3,-873.3 347.3,-851.3 263.3,-851.3"/>
<text text-anchor="start" x="276.05" y="-857" font-family="Times New Roman,serif" font-size="14.00" fill="blue">154,683.186</text>
<polygon fill="none" stroke="black" points="15.3,-827.3 15.3,-849.3 347.3,-849.3 347.3,-827.3 15.3,-827.3"/>
<text text-anchor="start" x="131.8" y="-833" font-family="Times New Roman,serif" font-size="14.00" fill="blue"> Growth rate in %</text>
<g id="a_node1_7"><a xlink:href="bogus" xlink:title="Base growth
Exogen">
<polygon fill="none" stroke="black" points="15.3,-803.3 15.3,-825.3 89.3,-825.3 89.3,-803.3 15.3,-803.3"/>
<text text-anchor="start" x="18.17" y="-809" font-family="Times New Roman,serif" font-size="14.00" fill="blue">Base growth</text>
</a>
</g>
<polygon fill="none" stroke="black" points="91.3,-803.3 91.3,-825.3 175.3,-825.3 175.3,-803.3 91.3,-803.3"/>
<text text-anchor="start" x="141.55" y="-809" font-family="Times New Roman,serif" font-size="14.00" fill="blue">1.099</text>
<polygon fill="none" stroke="black" points="177.3,-803.3 177.3,-825.3 261.3,-825.3 261.3,-803.3 177.3,-803.3"/>
<text text-anchor="start" x="227.55" y="-809" font-family="Times New Roman,serif" font-size="14.00" fill="blue">1.457</text>
<polygon fill="none" stroke="black" points="263.3,-803.3 263.3,-825.3 347.3,-825.3 347.3,-803.3 263.3,-803.3"/>
<text text-anchor="start" x="313.55" y="-809" font-family="Times New Roman,serif" font-size="14.00" fill="blue">1.819</text>
<g id="a_node1_8"><a xlink:href="bogus" xlink:title="Last growth
Exogen">
<polygon fill="none" stroke="black" points="15.3,-779.3 15.3,-801.3 89.3,-801.3 89.3,-779.3 15.3,-779.3"/>
<text text-anchor="start" x="18.3" y="-785" font-family="Times New Roman,serif" font-size="14.00" fill="blue">Last growth</text>
</a>
</g>
<polygon fill="none" stroke="black" points="91.3,-779.3 91.3,-801.3 175.3,-801.3 175.3,-779.3 91.3,-779.3"/>
<text text-anchor="start" x="141.55" y="-785" font-family="Times New Roman,serif" font-size="14.00" fill="blue">5.034</text>
<polygon fill="none" stroke="black" points="177.3,-779.3 177.3,-801.3 261.3,-801.3 261.3,-779.3 177.3,-779.3"/>
<text text-anchor="start" x="227.55" y="-785" font-family="Times New Roman,serif" font-size="14.00" fill="blue">2.171</text>
<polygon fill="none" stroke="black" points="263.3,-779.3 263.3,-801.3 347.3,-801.3 347.3,-779.3 263.3,-779.3"/>
<text text-anchor="start" x="313.55" y="-785" font-family="Times New Roman,serif" font-size="14.00" fill="blue">1.926</text>
<g id="a_node1_9"><a xlink:href="bogus" xlink:title="Diff growth
Exogen">
<polygon fill="none" stroke="black" points="15.3,-755.3 15.3,-777.3 89.3,-777.3 89.3,-755.3 15.3,-755.3"/>
<text text-anchor="start" x="18.3" y="-761" font-family="Times New Roman,serif" font-size="14.00" fill="blue">Diff growth</text>
</a>
</g>
<polygon fill="none" stroke="black" points="91.3,-755.3 91.3,-777.3 175.3,-777.3 175.3,-755.3 91.3,-755.3"/>
<text text-anchor="start" x="141.55" y="-761" font-family="Times New Roman,serif" font-size="14.00" fill="blue">3.934</text>
<polygon fill="none" stroke="black" points="177.3,-755.3 177.3,-777.3 261.3,-777.3 261.3,-755.3 177.3,-755.3"/>
<text text-anchor="start" x="227.55" y="-761" font-family="Times New Roman,serif" font-size="14.00" fill="blue">0.714</text>
<polygon fill="none" stroke="black" points="263.3,-755.3 263.3,-777.3 347.3,-777.3 347.3,-755.3 263.3,-755.3"/>
<text text-anchor="start" x="313.55" y="-761" font-family="Times New Roman,serif" font-size="14.00" fill="blue">0.107</text>
<polygon fill="none" stroke="black" points="12.3,-752.3 12.3,-972.3 350.3,-972.3 350.3,-752.3 12.3,-752.3"/>
</g>
<!-- PAKNYGDPMKTPKN -->
<g id="node3" class="node">
<title>PAKNYGDPMKTPKN</title>
<polygon fill="none" stroke="black" points="761.2,-611.1 398.6,-611.1 398.6,-387.5 761.2,-387.5 761.2,-611.1"/>
<g id="a_node3_10"><a xlink:href="bogus" xlink:title="Real GDP
FRML &lt;IDENT&gt; PAKNYGDPMKTPKN = PAKNECONPRVTKN+PAKNECONGOVTKN+PAKNEGDIFTOTKN+PAKNEGDISTKBKN+PAKNEEXPGNFSKN-PAKNEIMPGNFSKN+PAKNYGDPDISCKN+PAKADAP*PAKDISPREPKN $">
<polygon fill="red" stroke="none" points="403.4,-584.3 403.4,-606.3 756.4,-606.3 756.4,-584.3 403.4,-584.3"/>
<polygon fill="none" stroke="black" points="403.4,-584.3 403.4,-606.3 756.4,-606.3 756.4,-584.3 403.4,-584.3"/>
<text text-anchor="start" x="485.03" y="-590" font-family="Times New Roman,serif" font-size="14.00" fill="blue">PAKNYGDPMKTPKN:Real GDP</text>
</a>
</g>
<polygon fill="none" stroke="black" points="403.4,-560.3 403.4,-582.3 477.4,-582.3 477.4,-560.3 403.4,-560.3"/>
<text text-anchor="start" x="406.4" y="-566" font-family="Times New Roman,serif" font-size="14.00" fill="blue">Per</text>
<polygon fill="none" stroke="black" points="479.4,-560.3 479.4,-582.3 570.4,-582.3 570.4,-560.3 479.4,-560.3"/>
<text text-anchor="start" x="511.4" y="-566" font-family="Times New Roman,serif" font-size="14.00" fill="blue">2025</text>
<polygon fill="none" stroke="black" points="572.4,-560.3 572.4,-582.3 663.4,-582.3 663.4,-560.3 572.4,-560.3"/>
<text text-anchor="start" x="604.4" y="-566" font-family="Times New Roman,serif" font-size="14.00" fill="blue">2026</text>
<polygon fill="none" stroke="black" points="665.4,-560.3 665.4,-582.3 756.4,-582.3 756.4,-560.3 665.4,-560.3"/>
<text text-anchor="start" x="697.4" y="-566" font-family="Times New Roman,serif" font-size="14.00" fill="blue">2027</text>
<g id="a_node3_11"><a xlink:href="bogus" xlink:title="Baseline values">
<polygon fill="none" stroke="black" points="403.4,-536.3 403.4,-558.3 477.4,-558.3 477.4,-536.3 403.4,-536.3"/>
<text text-anchor="start" x="406.4" y="-542" font-family="Times New Roman,serif" font-size="14.00" fill="blue">Base</text>
</a>
</g>
<g id="a_node3_12"><a xlink:href="bogus" xlink:title="Baseline values">
<polygon fill="none" stroke="black" points="479.4,-536.3 479.4,-558.3 570.4,-558.3 570.4,-536.3 479.4,-536.3"/>
<text text-anchor="start" x="482.15" y="-542" font-family="Times New Roman,serif" font-size="14.00" fill="blue">27,963,231.531</text>
</a>
</g>
<g id="a_node3_13"><a xlink:href="bogus" xlink:title="Baseline values">
<polygon fill="none" stroke="black" points="572.4,-536.3 572.4,-558.3 663.4,-558.3 663.4,-536.3 572.4,-536.3"/>
<text text-anchor="start" x="575.15" y="-542" font-family="Times New Roman,serif" font-size="14.00" fill="blue">28,640,383.896</text>
</a>
</g>
<g id="a_node3_14"><a xlink:href="bogus" xlink:title="Baseline values">
<polygon fill="none" stroke="black" points="665.4,-536.3 665.4,-558.3 756.4,-558.3 756.4,-536.3 665.4,-536.3"/>
<text text-anchor="start" x="668.15" y="-542" font-family="Times New Roman,serif" font-size="14.00" fill="blue">29,396,759.184</text>
</a>
</g>
<g id="a_node3_15"><a xlink:href="bogus" xlink:title="Latest run values">
<polygon fill="none" stroke="black" points="403.4,-512.3 403.4,-534.3 477.4,-534.3 477.4,-512.3 403.4,-512.3"/>
<text text-anchor="start" x="406.4" y="-518" font-family="Times New Roman,serif" font-size="14.00" fill="blue">Last</text>
</a>
</g>
<polygon fill="none" stroke="black" points="479.4,-512.3 479.4,-534.3 570.4,-534.3 570.4,-512.3 479.4,-512.3"/>
<text text-anchor="start" x="482.15" y="-518" font-family="Times New Roman,serif" font-size="14.00" fill="blue">28,064,044.694</text>
<polygon fill="none" stroke="black" points="572.4,-512.3 572.4,-534.3 663.4,-534.3 663.4,-512.3 572.4,-512.3"/>
<text text-anchor="start" x="575.15" y="-518" font-family="Times New Roman,serif" font-size="14.00" fill="blue">28,815,476.741</text>
<polygon fill="none" stroke="black" points="665.4,-512.3 665.4,-534.3 756.4,-534.3 756.4,-512.3 665.4,-512.3"/>
<text text-anchor="start" x="668.15" y="-518" font-family="Times New Roman,serif" font-size="14.00" fill="blue">29,570,855.532</text>
<g id="a_node3_16"><a xlink:href="bogus" xlink:title="Difference between baseline and latest run">
<polygon fill="none" stroke="black" points="403.4,-488.3 403.4,-510.3 477.4,-510.3 477.4,-488.3 403.4,-488.3"/>
<text text-anchor="start" x="406.4" y="-494" font-family="Times New Roman,serif" font-size="14.00" fill="blue">Diff</text>
</a>
</g>
<polygon fill="none" stroke="black" points="479.4,-488.3 479.4,-510.3 570.4,-510.3 570.4,-488.3 479.4,-488.3"/>
<text text-anchor="start" x="499.15" y="-494" font-family="Times New Roman,serif" font-size="14.00" fill="blue">100,813.163</text>
<polygon fill="none" stroke="black" points="572.4,-488.3 572.4,-510.3 663.4,-510.3 663.4,-488.3 572.4,-488.3"/>
<text text-anchor="start" x="592.15" y="-494" font-family="Times New Roman,serif" font-size="14.00" fill="blue">175,092.845</text>
<polygon fill="none" stroke="black" points="665.4,-488.3 665.4,-510.3 756.4,-510.3 756.4,-488.3 665.4,-488.3"/>
<text text-anchor="start" x="685.15" y="-494" font-family="Times New Roman,serif" font-size="14.00" fill="blue">174,096.348</text>
<polygon fill="none" stroke="black" points="403.4,-464.3 403.4,-486.3 756.4,-486.3 756.4,-464.3 403.4,-464.3"/>
<text text-anchor="start" x="530.4" y="-470" font-family="Times New Roman,serif" font-size="14.00" fill="blue"> Growth rate in %</text>
<g id="a_node3_17"><a xlink:href="bogus" xlink:title="Base growth
Exogen">
<polygon fill="none" stroke="black" points="403.4,-440.3 403.4,-462.3 477.4,-462.3 477.4,-440.3 403.4,-440.3"/>
<text text-anchor="start" x="406.28" y="-446" font-family="Times New Roman,serif" font-size="14.00" fill="blue">Base growth</text>
</a>
</g>
<polygon fill="none" stroke="black" points="479.4,-440.3 479.4,-462.3 570.4,-462.3 570.4,-440.3 479.4,-440.3"/>
<text text-anchor="start" x="536.65" y="-446" font-family="Times New Roman,serif" font-size="14.00" fill="blue">2.081</text>
<polygon fill="none" stroke="black" points="572.4,-440.3 572.4,-462.3 663.4,-462.3 663.4,-440.3 572.4,-440.3"/>
<text text-anchor="start" x="629.65" y="-446" font-family="Times New Roman,serif" font-size="14.00" fill="blue">2.422</text>
<polygon fill="none" stroke="black" points="665.4,-440.3 665.4,-462.3 756.4,-462.3 756.4,-440.3 665.4,-440.3"/>
<text text-anchor="start" x="722.65" y="-446" font-family="Times New Roman,serif" font-size="14.00" fill="blue">2.641</text>
<g id="a_node3_18"><a xlink:href="bogus" xlink:title="Last growth
Exogen">
<polygon fill="none" stroke="black" points="403.4,-416.3 403.4,-438.3 477.4,-438.3 477.4,-416.3 403.4,-416.3"/>
<text text-anchor="start" x="406.4" y="-422" font-family="Times New Roman,serif" font-size="14.00" fill="blue">Last growth</text>
</a>
</g>
<polygon fill="none" stroke="black" points="479.4,-416.3 479.4,-438.3 570.4,-438.3 570.4,-416.3 479.4,-416.3"/>
<text text-anchor="start" x="536.65" y="-422" font-family="Times New Roman,serif" font-size="14.00" fill="blue">2.449</text>
<polygon fill="none" stroke="black" points="572.4,-416.3 572.4,-438.3 663.4,-438.3 663.4,-416.3 572.4,-416.3"/>
<text text-anchor="start" x="629.65" y="-422" font-family="Times New Roman,serif" font-size="14.00" fill="blue">2.678</text>
<polygon fill="none" stroke="black" points="665.4,-416.3 665.4,-438.3 756.4,-438.3 756.4,-416.3 665.4,-416.3"/>
<text text-anchor="start" x="722.65" y="-422" font-family="Times New Roman,serif" font-size="14.00" fill="blue">2.621</text>
<g id="a_node3_19"><a xlink:href="bogus" xlink:title="Diff growth
Exogen">
<polygon fill="none" stroke="black" points="403.4,-392.3 403.4,-414.3 477.4,-414.3 477.4,-392.3 403.4,-392.3"/>
<text text-anchor="start" x="406.4" y="-398" font-family="Times New Roman,serif" font-size="14.00" fill="blue">Diff growth</text>
</a>
</g>
<polygon fill="none" stroke="black" points="479.4,-392.3 479.4,-414.3 570.4,-414.3 570.4,-392.3 479.4,-392.3"/>
<text text-anchor="start" x="536.65" y="-398" font-family="Times New Roman,serif" font-size="14.00" fill="blue">0.368</text>
<polygon fill="none" stroke="black" points="572.4,-392.3 572.4,-414.3 663.4,-414.3 663.4,-392.3 572.4,-392.3"/>
<text text-anchor="start" x="629.65" y="-398" font-family="Times New Roman,serif" font-size="14.00" fill="blue">0.256</text>
<polygon fill="none" stroke="black" points="665.4,-392.3 665.4,-414.3 756.4,-414.3 756.4,-392.3 665.4,-392.3"/>
<text text-anchor="start" x="718.15" y="-398" font-family="Times New Roman,serif" font-size="14.00" fill="blue">-0.020</text>
<polygon fill="none" stroke="black" points="400.4,-389.3 400.4,-609.3 759.4,-609.3 759.4,-389.3 400.4,-389.3"/>
</g>
<!-- PAKNEGDIFTOTKN&#45;&gt;PAKNYGDPMKTPKN -->
<g id="edge1" class="edge">
<title>PAKNEGDIFTOTKN-&gt;PAKNYGDPMKTPKN</title>
<g id="a_edge1"><a xlink:href="bogus" xlink:title=" PAKNEGDIFTOTKN -&gt; PAKNYGDPMKTPKN Min. att. 85%  max: 122%">
<path fill="none" stroke="black" stroke-width="8" d="M352.15,-750.17C355.7,-747.23 359.19,-744.27 362.6,-741.3 403.33,-705.85 443.87,-663.04 478.65,-623.34"/>
<polygon fill="black" stroke="black" stroke-width="8" points="483.75,-628.55 485.02,-616.41 473.18,-619.36 483.75,-628.55"/>
</a>
</g>
</g>
<!-- PAKNECONGOVTKN -->
<g id="node2" class="node">
<title>PAKNECONGOVTKN</title>
<polygon fill="none" stroke="black" points="352.1,-732.1 10.5,-732.1 10.5,-508.5 352.1,-508.5 352.1,-732.1"/>
<g id="a_node2_20"><a xlink:href="bogus" xlink:title="Gov. Cons real
FRML &lt;IDENT&gt; PAKNECONGOVTKN = PAKNECONGOVTCN/PAKNECONGOVTXN $">
<polygon fill="#ff7f24" stroke="none" points="15.3,-705.3 15.3,-727.3 347.3,-727.3 347.3,-705.3 15.3,-705.3"/>
<polygon fill="none" stroke="black" points="15.3,-705.3 15.3,-727.3 347.3,-727.3 347.3,-705.3 15.3,-705.3"/>
<text text-anchor="start" x="73.67" y="-711" font-family="Times New Roman,serif" font-size="14.00" fill="blue">PAKNECONGOVTKN:Gov. Cons real</text>
</a>
</g>
<polygon fill="none" stroke="black" points="15.3,-681.3 15.3,-703.3 89.3,-703.3 89.3,-681.3 15.3,-681.3"/>
<text text-anchor="start" x="18.3" y="-687" font-family="Times New Roman,serif" font-size="14.00" fill="blue">Per</text>
<polygon fill="none" stroke="black" points="91.3,-681.3 91.3,-703.3 175.3,-703.3 175.3,-681.3 91.3,-681.3"/>
<text text-anchor="start" x="119.8" y="-687" font-family="Times New Roman,serif" font-size="14.00" fill="blue">2025</text>
<polygon fill="none" stroke="black" points="177.3,-681.3 177.3,-703.3 261.3,-703.3 261.3,-681.3 177.3,-681.3"/>
<text text-anchor="start" x="205.8" y="-687" font-family="Times New Roman,serif" font-size="14.00" fill="blue">2026</text>
<polygon fill="none" stroke="black" points="263.3,-681.3 263.3,-703.3 347.3,-703.3 347.3,-681.3 263.3,-681.3"/>
<text text-anchor="start" x="291.8" y="-687" font-family="Times New Roman,serif" font-size="14.00" fill="blue">2027</text>
<g id="a_node2_21"><a xlink:href="bogus" xlink:title="Baseline values">
<polygon fill="none" stroke="black" points="15.3,-657.3 15.3,-679.3 89.3,-679.3 89.3,-657.3 15.3,-657.3"/>
<text text-anchor="start" x="18.3" y="-663" font-family="Times New Roman,serif" font-size="14.00" fill="blue">Base</text>
</a>
</g>
<g id="a_node2_22"><a xlink:href="bogus" xlink:title="Baseline values">
<polygon fill="none" stroke="black" points="91.3,-657.3 91.3,-679.3 175.3,-679.3 175.3,-657.3 91.3,-657.3"/>
<text text-anchor="start" x="93.92" y="-663" font-family="Times New Roman,serif" font-size="14.00" fill="blue">3,278,415.175</text>
</a>
</g>
<g id="a_node2_23"><a xlink:href="bogus" xlink:title="Baseline values">
<polygon fill="none" stroke="black" points="177.3,-657.3 177.3,-679.3 261.3,-679.3 261.3,-657.3 177.3,-657.3"/>
<text text-anchor="start" x="179.92" y="-663" font-family="Times New Roman,serif" font-size="14.00" fill="blue">3,411,351.652</text>
</a>
</g>
<g id="a_node2_24"><a xlink:href="bogus" xlink:title="Baseline values">
<polygon fill="none" stroke="black" points="263.3,-657.3 263.3,-679.3 347.3,-679.3 347.3,-657.3 263.3,-657.3"/>
<text text-anchor="start" x="265.92" y="-663" font-family="Times New Roman,serif" font-size="14.00" fill="blue">3,554,456.759</text>
</a>
</g>
<g id="a_node2_25"><a xlink:href="bogus" xlink:title="Latest run values">
<polygon fill="none" stroke="black" points="15.3,-633.3 15.3,-655.3 89.3,-655.3 89.3,-633.3 15.3,-633.3"/>
<text text-anchor="start" x="18.3" y="-639" font-family="Times New Roman,serif" font-size="14.00" fill="blue">Last</text>
</a>
</g>
<polygon fill="none" stroke="black" points="91.3,-633.3 91.3,-655.3 175.3,-655.3 175.3,-633.3 91.3,-633.3"/>
<text text-anchor="start" x="93.92" y="-639" font-family="Times New Roman,serif" font-size="14.00" fill="blue">3,467,041.112</text>
<polygon fill="none" stroke="black" points="177.3,-633.3 177.3,-655.3 261.3,-655.3 261.3,-633.3 177.3,-633.3"/>
<text text-anchor="start" x="179.92" y="-639" font-family="Times New Roman,serif" font-size="14.00" fill="blue">3,632,100.916</text>
<polygon fill="none" stroke="black" points="263.3,-633.3 263.3,-655.3 347.3,-655.3 347.3,-633.3 263.3,-633.3"/>
<text text-anchor="start" x="265.92" y="-639" font-family="Times New Roman,serif" font-size="14.00" fill="blue">3,766,024.571</text>
<g id="a_node2_26"><a xlink:href="bogus" xlink:title="Difference between baseline and latest run">
<polygon fill="none" stroke="black" points="15.3,-609.3 15.3,-631.3 89.3,-631.3 89.3,-609.3 15.3,-609.3"/>
<text text-anchor="start" x="18.3" y="-615" font-family="Times New Roman,serif" font-size="14.00" fill="blue">Diff</text>
</a>
</g>
<polygon fill="none" stroke="black" points="91.3,-609.3 91.3,-631.3 175.3,-631.3 175.3,-609.3 91.3,-609.3"/>
<text text-anchor="start" x="104.05" y="-615" font-family="Times New Roman,serif" font-size="14.00" fill="blue">188,625.937</text>
<polygon fill="none" stroke="black" points="177.3,-609.3 177.3,-631.3 261.3,-631.3 261.3,-609.3 177.3,-609.3"/>
<text text-anchor="start" x="190.05" y="-615" font-family="Times New Roman,serif" font-size="14.00" fill="blue">220,749.263</text>
<polygon fill="none" stroke="black" points="263.3,-609.3 263.3,-631.3 347.3,-631.3 347.3,-609.3 263.3,-609.3"/>
<text text-anchor="start" x="276.05" y="-615" font-family="Times New Roman,serif" font-size="14.00" fill="blue">211,567.812</text>
<polygon fill="none" stroke="black" points="15.3,-585.3 15.3,-607.3 347.3,-607.3 347.3,-585.3 15.3,-585.3"/>
<text text-anchor="start" x="131.8" y="-591" font-family="Times New Roman,serif" font-size="14.00" fill="blue"> Growth rate in %</text>
<g id="a_node2_27"><a xlink:href="bogus" xlink:title="Base growth
Exogen">
<polygon fill="none" stroke="black" points="15.3,-561.3 15.3,-583.3 89.3,-583.3 89.3,-561.3 15.3,-561.3"/>
<text text-anchor="start" x="18.17" y="-567" font-family="Times New Roman,serif" font-size="14.00" fill="blue">Base growth</text>
</a>
</g>
<polygon fill="none" stroke="black" points="91.3,-561.3 91.3,-583.3 175.3,-583.3 175.3,-561.3 91.3,-561.3"/>
<text text-anchor="start" x="141.55" y="-567" font-family="Times New Roman,serif" font-size="14.00" fill="blue">3.576</text>
<polygon fill="none" stroke="black" points="177.3,-561.3 177.3,-583.3 261.3,-583.3 261.3,-561.3 177.3,-561.3"/>
<text text-anchor="start" x="227.55" y="-567" font-family="Times New Roman,serif" font-size="14.00" fill="blue">4.055</text>
<polygon fill="none" stroke="black" points="263.3,-561.3 263.3,-583.3 347.3,-583.3 347.3,-561.3 263.3,-561.3"/>
<text text-anchor="start" x="313.55" y="-567" font-family="Times New Roman,serif" font-size="14.00" fill="blue">4.195</text>
<g id="a_node2_28"><a xlink:href="bogus" xlink:title="Last growth
Exogen">
<polygon fill="none" stroke="black" points="15.3,-537.3 15.3,-559.3 89.3,-559.3 89.3,-537.3 15.3,-537.3"/>
<text text-anchor="start" x="18.3" y="-543" font-family="Times New Roman,serif" font-size="14.00" fill="blue">Last growth</text>
</a>
</g>
<polygon fill="none" stroke="black" points="91.3,-537.3 91.3,-559.3 175.3,-559.3 175.3,-537.3 91.3,-537.3"/>
<text text-anchor="start" x="141.55" y="-543" font-family="Times New Roman,serif" font-size="14.00" fill="blue">9.535</text>
<polygon fill="none" stroke="black" points="177.3,-537.3 177.3,-559.3 261.3,-559.3 261.3,-537.3 177.3,-537.3"/>
<text text-anchor="start" x="227.55" y="-543" font-family="Times New Roman,serif" font-size="14.00" fill="blue">4.761</text>
<polygon fill="none" stroke="black" points="263.3,-537.3 263.3,-559.3 347.3,-559.3 347.3,-537.3 263.3,-537.3"/>
<text text-anchor="start" x="313.55" y="-543" font-family="Times New Roman,serif" font-size="14.00" fill="blue">3.687</text>
<g id="a_node2_29"><a xlink:href="bogus" xlink:title="Diff growth
Exogen">
<polygon fill="none" stroke="black" points="15.3,-513.3 15.3,-535.3 89.3,-535.3 89.3,-513.3 15.3,-513.3"/>
<text text-anchor="start" x="18.3" y="-519" font-family="Times New Roman,serif" font-size="14.00" fill="blue">Diff growth</text>
</a>
</g>
<polygon fill="none" stroke="black" points="91.3,-513.3 91.3,-535.3 175.3,-535.3 175.3,-513.3 91.3,-513.3"/>
<text text-anchor="start" x="141.55" y="-519" font-family="Times New Roman,serif" font-size="14.00" fill="blue">5.959</text>
<polygon fill="none" stroke="black" points="177.3,-513.3 177.3,-535.3 261.3,-535.3 261.3,-513.3 177.3,-513.3"/>
<text text-anchor="start" x="227.55" y="-519" font-family="Times New Roman,serif" font-size="14.00" fill="blue">0.706</text>
<polygon fill="none" stroke="black" points="263.3,-513.3 263.3,-535.3 347.3,-535.3 347.3,-513.3 263.3,-513.3"/>
<text text-anchor="start" x="309.05" y="-519" font-family="Times New Roman,serif" font-size="14.00" fill="blue">-0.508</text>
<polygon fill="none" stroke="black" points="12.3,-510.3 12.3,-730.3 350.3,-730.3 350.3,-510.3 12.3,-510.3"/>
</g>
<!-- PAKNECONGOVTKN&#45;&gt;PAKNYGDPMKTPKN -->
<g id="edge2" class="edge">
<title>PAKNECONGOVTKN-&gt;PAKNYGDPMKTPKN</title>
<g id="a_edge2"><a xlink:href="bogus" xlink:title=" PAKNECONGOVTKN -&gt; PAKNYGDPMKTPKN Min. att. 122%  max: 187%">
<path fill="none" stroke="black" stroke-width="8" d="M352.51,-568.37C362.67,-565.27 372.93,-562.14 383.19,-559.01"/>
<polygon fill="black" stroke="black" stroke-width="8" points="384.67,-566.05 392.19,-556.43 380.59,-552.65 384.67,-566.05"/>
</a>
</g>
</g>
<!-- PAKNEIMPGNFSKN -->
<g id="node4" class="node">
<title>PAKNEIMPGNFSKN</title>
<polygon fill="none" stroke="black" points="352.1,-490.1 10.5,-490.1 10.5,-266.5 352.1,-266.5 352.1,-490.1"/>
<g id="a_node4_30"><a xlink:href="bogus" xlink:title="Imports real
FRML &lt;DAMP,STOC&gt; PAKNEIMPGNFSKN = (PAKNEIMPGNFSKN(-1)*EXP(PAKNEIMPGNFSKN_A+ (-0.324143718656754*(LOG(PAKNEIMPGNFSKN(-1))-LOG(PAKNEGDETTOTKN(-1))+0.8*LOG(PAKNEIMPGNFSXN(-1)/PAKNYGDPFCSTXN(-1)))-0.583459272245018+1*((LOG(PAKNEGDETTOTKN))-(LOG(PAKNEGDETTOTKN(-1))))-0.0921874580409631*((LOG(PAKNEIMPGNFSXN/PAKNYGDPFCSTXN))-(LOG(PAKNEIMPGNFSXN(-1)/PAKNYGDPFCSTXN(-1))))-0.0361746331863615*DURING_2012) )) * (1-PAKNEIMPGNFSKN_D)+ PAKNEIMPGNFSKN_X*PAKNEIMPGNFSKN_D  $">
<polygon fill="#ff7f24" stroke="none" points="15.3,-463.3 15.3,-485.3 347.3,-485.3 347.3,-463.3 15.3,-463.3"/>
<polygon fill="none" stroke="black" points="15.3,-463.3 15.3,-485.3 347.3,-485.3 347.3,-463.3 15.3,-463.3"/>
<text text-anchor="start" x="84.55" y="-469" font-family="Times New Roman,serif" font-size="14.00" fill="blue">PAKNEIMPGNFSKN:Imports real</text>
</a>
</g>
<polygon fill="none" stroke="black" points="15.3,-439.3 15.3,-461.3 89.3,-461.3 89.3,-439.3 15.3,-439.3"/>
<text text-anchor="start" x="18.3" y="-445" font-family="Times New Roman,serif" font-size="14.00" fill="blue">Per</text>
<polygon fill="none" stroke="black" points="91.3,-439.3 91.3,-461.3 175.3,-461.3 175.3,-439.3 91.3,-439.3"/>
<text text-anchor="start" x="119.8" y="-445" font-family="Times New Roman,serif" font-size="14.00" fill="blue">2025</text>
<polygon fill="none" stroke="black" points="177.3,-439.3 177.3,-461.3 261.3,-461.3 261.3,-439.3 177.3,-439.3"/>
<text text-anchor="start" x="205.8" y="-445" font-family="Times New Roman,serif" font-size="14.00" fill="blue">2026</text>
<polygon fill="none" stroke="black" points="263.3,-439.3 263.3,-461.3 347.3,-461.3 347.3,-439.3 263.3,-439.3"/>
<text text-anchor="start" x="291.8" y="-445" font-family="Times New Roman,serif" font-size="14.00" fill="blue">2027</text>
<g id="a_node4_31"><a xlink:href="bogus" xlink:title="Baseline values">
<polygon fill="none" stroke="black" points="15.3,-415.3 15.3,-437.3 89.3,-437.3 89.3,-415.3 15.3,-415.3"/>
<text text-anchor="start" x="18.3" y="-421" font-family="Times New Roman,serif" font-size="14.00" fill="blue">Base</text>
</a>
</g>
<g id="a_node4_32"><a xlink:href="bogus" xlink:title="Baseline values">
<polygon fill="none" stroke="black" points="91.3,-415.3 91.3,-437.3 175.3,-437.3 175.3,-415.3 91.3,-415.3"/>
<text text-anchor="start" x="93.92" y="-421" font-family="Times New Roman,serif" font-size="14.00" fill="blue">7,341,614.133</text>
</a>
</g>
<g id="a_node4_33"><a xlink:href="bogus" xlink:title="Baseline values">
<polygon fill="none" stroke="black" points="177.3,-415.3 177.3,-437.3 261.3,-437.3 261.3,-415.3 177.3,-415.3"/>
<text text-anchor="start" x="179.92" y="-421" font-family="Times New Roman,serif" font-size="14.00" fill="blue">7,569,481.265</text>
</a>
</g>
<g id="a_node4_34"><a xlink:href="bogus" xlink:title="Baseline values">
<polygon fill="none" stroke="black" points="263.3,-415.3 263.3,-437.3 347.3,-437.3 347.3,-415.3 263.3,-415.3"/>
<text text-anchor="start" x="265.92" y="-421" font-family="Times New Roman,serif" font-size="14.00" fill="blue">7,797,820.681</text>
</a>
</g>
<g id="a_node4_35"><a xlink:href="bogus" xlink:title="Latest run values">
<polygon fill="none" stroke="black" points="15.3,-391.3 15.3,-413.3 89.3,-413.3 89.3,-391.3 15.3,-391.3"/>
<text text-anchor="start" x="18.3" y="-397" font-family="Times New Roman,serif" font-size="14.00" fill="blue">Last</text>
</a>
</g>
<polygon fill="none" stroke="black" points="91.3,-391.3 91.3,-413.3 175.3,-413.3 175.3,-391.3 91.3,-391.3"/>
<text text-anchor="start" x="93.92" y="-397" font-family="Times New Roman,serif" font-size="14.00" fill="blue">7,332,756.802</text>
<polygon fill="none" stroke="black" points="177.3,-391.3 177.3,-413.3 261.3,-413.3 261.3,-391.3 177.3,-391.3"/>
<text text-anchor="start" x="179.92" y="-397" font-family="Times New Roman,serif" font-size="14.00" fill="blue">7,488,160.926</text>
<polygon fill="none" stroke="black" points="263.3,-391.3 263.3,-413.3 347.3,-413.3 347.3,-391.3 263.3,-391.3"/>
<text text-anchor="start" x="265.92" y="-397" font-family="Times New Roman,serif" font-size="14.00" fill="blue">7,661,533.926</text>
<g id="a_node4_36"><a xlink:href="bogus" xlink:title="Difference between baseline and latest run">
<polygon fill="none" stroke="black" points="15.3,-367.3 15.3,-389.3 89.3,-389.3 89.3,-367.3 15.3,-367.3"/>
<text text-anchor="start" x="18.3" y="-373" font-family="Times New Roman,serif" font-size="14.00" fill="blue">Diff</text>
</a>
</g>
<polygon fill="none" stroke="black" points="91.3,-367.3 91.3,-389.3 175.3,-389.3 175.3,-367.3 91.3,-367.3"/>
<text text-anchor="start" x="113.05" y="-373" font-family="Times New Roman,serif" font-size="14.00" fill="blue">-8,857.330</text>
<polygon fill="none" stroke="black" points="177.3,-367.3 177.3,-389.3 261.3,-389.3 261.3,-367.3 177.3,-367.3"/>
<text text-anchor="start" x="192.3" y="-373" font-family="Times New Roman,serif" font-size="14.00" fill="blue">-81,320.340</text>
<polygon fill="none" stroke="black" points="263.3,-367.3 263.3,-389.3 347.3,-389.3 347.3,-367.3 263.3,-367.3"/>
<text text-anchor="start" x="271.55" y="-373" font-family="Times New Roman,serif" font-size="14.00" fill="blue">-136,286.756</text>
<polygon fill="none" stroke="black" points="15.3,-343.3 15.3,-365.3 347.3,-365.3 347.3,-343.3 15.3,-343.3"/>
<text text-anchor="start" x="131.8" y="-349" font-family="Times New Roman,serif" font-size="14.00" fill="blue"> Growth rate in %</text>
<g id="a_node4_37"><a xlink:href="bogus" xlink:title="Base growth
Exogen">
<polygon fill="none" stroke="black" points="15.3,-319.3 15.3,-341.3 89.3,-341.3 89.3,-319.3 15.3,-319.3"/>
<text text-anchor="start" x="18.17" y="-325" font-family="Times New Roman,serif" font-size="14.00" fill="blue">Base growth</text>
</a>
</g>
<polygon fill="none" stroke="black" points="91.3,-319.3 91.3,-341.3 175.3,-341.3 175.3,-319.3 91.3,-319.3"/>
<text text-anchor="start" x="141.55" y="-325" font-family="Times New Roman,serif" font-size="14.00" fill="blue">3.102</text>
<polygon fill="none" stroke="black" points="177.3,-319.3 177.3,-341.3 261.3,-341.3 261.3,-319.3 177.3,-319.3"/>
<text text-anchor="start" x="227.55" y="-325" font-family="Times New Roman,serif" font-size="14.00" fill="blue">3.104</text>
<polygon fill="none" stroke="black" points="263.3,-319.3 263.3,-341.3 347.3,-341.3 347.3,-319.3 263.3,-319.3"/>
<text text-anchor="start" x="313.55" y="-325" font-family="Times New Roman,serif" font-size="14.00" fill="blue">3.017</text>
<g id="a_node4_38"><a xlink:href="bogus" xlink:title="Last growth
Exogen">
<polygon fill="none" stroke="black" points="15.3,-295.3 15.3,-317.3 89.3,-317.3 89.3,-295.3 15.3,-295.3"/>
<text text-anchor="start" x="18.3" y="-301" font-family="Times New Roman,serif" font-size="14.00" fill="blue">Last growth</text>
</a>
</g>
<polygon fill="none" stroke="black" points="91.3,-295.3 91.3,-317.3 175.3,-317.3 175.3,-295.3 91.3,-295.3"/>
<text text-anchor="start" x="141.55" y="-301" font-family="Times New Roman,serif" font-size="14.00" fill="blue">2.978</text>
<polygon fill="none" stroke="black" points="177.3,-295.3 177.3,-317.3 261.3,-317.3 261.3,-295.3 177.3,-295.3"/>
<text text-anchor="start" x="227.55" y="-301" font-family="Times New Roman,serif" font-size="14.00" fill="blue">2.119</text>
<polygon fill="none" stroke="black" points="263.3,-295.3 263.3,-317.3 347.3,-317.3 347.3,-295.3 263.3,-295.3"/>
<text text-anchor="start" x="313.55" y="-301" font-family="Times New Roman,serif" font-size="14.00" fill="blue">2.315</text>
<g id="a_node4_39"><a xlink:href="bogus" xlink:title="Diff growth
Exogen">
<polygon fill="none" stroke="black" points="15.3,-271.3 15.3,-293.3 89.3,-293.3 89.3,-271.3 15.3,-271.3"/>
<text text-anchor="start" x="18.3" y="-277" font-family="Times New Roman,serif" font-size="14.00" fill="blue">Diff growth</text>
</a>
</g>
<polygon fill="none" stroke="black" points="91.3,-271.3 91.3,-293.3 175.3,-293.3 175.3,-271.3 91.3,-271.3"/>
<text text-anchor="start" x="137.05" y="-277" font-family="Times New Roman,serif" font-size="14.00" fill="blue">-0.124</text>
<polygon fill="none" stroke="black" points="177.3,-271.3 177.3,-293.3 261.3,-293.3 261.3,-271.3 177.3,-271.3"/>
<text text-anchor="start" x="223.05" y="-277" font-family="Times New Roman,serif" font-size="14.00" fill="blue">-0.984</text>
<polygon fill="none" stroke="black" points="263.3,-271.3 263.3,-293.3 347.3,-293.3 347.3,-271.3 263.3,-271.3"/>
<text text-anchor="start" x="309.05" y="-277" font-family="Times New Roman,serif" font-size="14.00" fill="blue">-0.701</text>
<polygon fill="none" stroke="black" points="12.3,-268.3 12.3,-488.3 350.3,-488.3 350.3,-268.3 12.3,-268.3"/>
</g>
<!-- PAKNEIMPGNFSKN&#45;&gt;PAKNYGDPMKTPKN -->
<g id="edge3" class="edge">
<title>PAKNEIMPGNFSKN-&gt;PAKNYGDPMKTPKN</title>
<g id="a_edge3"><a xlink:href="bogus" xlink:title=" PAKNEIMPGNFSKN -&gt; PAKNYGDPMKTPKN Min. att. 9%  max: 78%">
<path fill="none" stroke="black" stroke-width="7.83" d="M352.51,-430.23C362.67,-433.33 372.93,-436.46 383.19,-439.59"/>
<polygon fill="black" stroke="black" stroke-width="7.83" points="380.63,-445.8 392.19,-442.17 384.63,-432.7 380.63,-445.8"/>
</a>
</g>
</g>
<!-- PAKNECONPRVTKN -->
<g id="node5" class="node">
<title>PAKNECONPRVTKN</title>
<polygon fill="none" stroke="black" points="362.6,-248.1 0,-248.1 0,-24.5 362.6,-24.5 362.6,-248.1"/>
<g id="a_node5_40"><a xlink:href="bogus" xlink:title="HH. Cons Real
FRML &lt;DAMP,STOC&gt; PAKNECONPRVTKN = (PAKNECONPRVTKN(-1)*EXP(PAKNECONPRVTKN_A+ (-0.2*(LOG(PAKNECONPRVTKN(-1))-LOG(1.21203101101442)-LOG((((PAKBXFSTREMTCD(-1)-PAKBMFSTREMTCD(-1))*PAKPANUSATLS(-1))+PAKGGEXPTRNSCN(-1)+PAKNYYWBTOTLCN(-1)*(1-PAKGGREVDRCTXN(-1)/100))/PAKNECONPRVTXN(-1)))+0.763938860758873*((LOG((((PAKBXFSTREMTCD-PAKBMFSTREMTCD)*PAKPANUSATLS)+PAKGGEXPTRNSCN+PAKNYYWBTOTLCN*(1-PAKGGREVDRCTXN/100))/PAKNECONPRVTXN))-(LOG((((PAKBXFSTREMTCD(-1)-PAKBMFSTREMTCD(-1))*PAKPANUSATLS(-1))+PAKGGEXPTRNSCN(-1)+PAKNYYWBTOTLCN(-1)*(1-PAKGGREVDRCTXN(-1)/100))/PAKNECONPRVTXN(-1))))-0.0634474791568939*DURING_2009-0.3*(PAKFMLBLPOLYXN/100-((LOG(PAKNECONPRVTXN))-(LOG(PAKNECONPRVTXN(-1)))))) )) * (1-PAKNECONPRVTKN_D)+ PAKNECONPRVTKN_X*PAKNECONPRVTKN_D  $">
<polygon fill="#ff7f24" stroke="none" points="4.8,-221.3 4.8,-243.3 357.8,-243.3 357.8,-221.3 4.8,-221.3"/>
<polygon fill="none" stroke="black" points="4.8,-221.3 4.8,-243.3 357.8,-243.3 357.8,-221.3 4.8,-221.3"/>
<text text-anchor="start" x="74.8" y="-227" font-family="Times New Roman,serif" font-size="14.00" fill="blue">PAKNECONPRVTKN:HH. Cons Real</text>
</a>
</g>
<polygon fill="none" stroke="black" points="4.8,-197.3 4.8,-219.3 78.8,-219.3 78.8,-197.3 4.8,-197.3"/>
<text text-anchor="start" x="7.8" y="-203" font-family="Times New Roman,serif" font-size="14.00" fill="blue">Per</text>
<polygon fill="none" stroke="black" points="80.8,-197.3 80.8,-219.3 171.8,-219.3 171.8,-197.3 80.8,-197.3"/>
<text text-anchor="start" x="112.8" y="-203" font-family="Times New Roman,serif" font-size="14.00" fill="blue">2025</text>
<polygon fill="none" stroke="black" points="173.8,-197.3 173.8,-219.3 264.8,-219.3 264.8,-197.3 173.8,-197.3"/>
<text text-anchor="start" x="205.8" y="-203" font-family="Times New Roman,serif" font-size="14.00" fill="blue">2026</text>
<polygon fill="none" stroke="black" points="266.8,-197.3 266.8,-219.3 357.8,-219.3 357.8,-197.3 266.8,-197.3"/>
<text text-anchor="start" x="298.8" y="-203" font-family="Times New Roman,serif" font-size="14.00" fill="blue">2027</text>
<g id="a_node5_41"><a xlink:href="bogus" xlink:title="Baseline values">
<polygon fill="none" stroke="black" points="4.8,-173.3 4.8,-195.3 78.8,-195.3 78.8,-173.3 4.8,-173.3"/>
<text text-anchor="start" x="7.8" y="-179" font-family="Times New Roman,serif" font-size="14.00" fill="blue">Base</text>
</a>
</g>
<g id="a_node5_42"><a xlink:href="bogus" xlink:title="Baseline values">
<polygon fill="none" stroke="black" points="80.8,-173.3 80.8,-195.3 171.8,-195.3 171.8,-173.3 80.8,-173.3"/>
<text text-anchor="start" x="83.55" y="-179" font-family="Times New Roman,serif" font-size="14.00" fill="blue">25,323,255.174</text>
</a>
</g>
<g id="a_node5_43"><a xlink:href="bogus" xlink:title="Baseline values">
<polygon fill="none" stroke="black" points="173.8,-173.3 173.8,-195.3 264.8,-195.3 264.8,-173.3 173.8,-173.3"/>
<text text-anchor="start" x="176.55" y="-179" font-family="Times New Roman,serif" font-size="14.00" fill="blue">25,909,810.173</text>
</a>
</g>
<g id="a_node5_44"><a xlink:href="bogus" xlink:title="Baseline values">
<polygon fill="none" stroke="black" points="266.8,-173.3 266.8,-195.3 357.8,-195.3 357.8,-173.3 266.8,-173.3"/>
<text text-anchor="start" x="269.55" y="-179" font-family="Times New Roman,serif" font-size="14.00" fill="blue">26,552,987.587</text>
</a>
</g>
<g id="a_node5_45"><a xlink:href="bogus" xlink:title="Latest run values">
<polygon fill="none" stroke="black" points="4.8,-149.3 4.8,-171.3 78.8,-171.3 78.8,-149.3 4.8,-149.3"/>
<text text-anchor="start" x="7.8" y="-155" font-family="Times New Roman,serif" font-size="14.00" fill="blue">Last</text>
</a>
</g>
<polygon fill="none" stroke="black" points="80.8,-149.3 80.8,-171.3 171.8,-171.3 171.8,-149.3 80.8,-149.3"/>
<text text-anchor="start" x="83.55" y="-155" font-family="Times New Roman,serif" font-size="14.00" fill="blue">25,104,167.910</text>
<polygon fill="none" stroke="black" points="173.8,-149.3 173.8,-171.3 264.8,-171.3 264.8,-149.3 173.8,-149.3"/>
<text text-anchor="start" x="176.55" y="-155" font-family="Times New Roman,serif" font-size="14.00" fill="blue">25,636,872.537</text>
<polygon fill="none" stroke="black" points="266.8,-149.3 266.8,-171.3 357.8,-171.3 357.8,-149.3 266.8,-149.3"/>
<text text-anchor="start" x="269.55" y="-155" font-family="Times New Roman,serif" font-size="14.00" fill="blue">26,229,061.486</text>
<g id="a_node5_46"><a xlink:href="bogus" xlink:title="Difference between baseline and latest run">
<polygon fill="none" stroke="black" points="4.8,-125.3 4.8,-147.3 78.8,-147.3 78.8,-125.3 4.8,-125.3"/>
<text text-anchor="start" x="7.8" y="-131" font-family="Times New Roman,serif" font-size="14.00" fill="blue">Diff</text>
</a>
</g>
<polygon fill="none" stroke="black" points="80.8,-125.3 80.8,-147.3 171.8,-147.3 171.8,-125.3 80.8,-125.3"/>
<text text-anchor="start" x="96.05" y="-131" font-family="Times New Roman,serif" font-size="14.00" fill="blue">-219,087.264</text>
<polygon fill="none" stroke="black" points="173.8,-125.3 173.8,-147.3 264.8,-147.3 264.8,-125.3 173.8,-125.3"/>
<text text-anchor="start" x="189.05" y="-131" font-family="Times New Roman,serif" font-size="14.00" fill="blue">-272,937.636</text>
<polygon fill="none" stroke="black" points="266.8,-125.3 266.8,-147.3 357.8,-147.3 357.8,-125.3 266.8,-125.3"/>
<text text-anchor="start" x="282.05" y="-131" font-family="Times New Roman,serif" font-size="14.00" fill="blue">-323,926.100</text>
<polygon fill="none" stroke="black" points="4.8,-101.3 4.8,-123.3 357.8,-123.3 357.8,-101.3 4.8,-101.3"/>
<text text-anchor="start" x="131.8" y="-107" font-family="Times New Roman,serif" font-size="14.00" fill="blue"> Growth rate in %</text>
<g id="a_node5_47"><a xlink:href="bogus" xlink:title="Base growth
Exogen">
<polygon fill="none" stroke="black" points="4.8,-77.3 4.8,-99.3 78.8,-99.3 78.8,-77.3 4.8,-77.3"/>
<text text-anchor="start" x="7.67" y="-83" font-family="Times New Roman,serif" font-size="14.00" fill="blue">Base growth</text>
</a>
</g>
<polygon fill="none" stroke="black" points="80.8,-77.3 80.8,-99.3 171.8,-99.3 171.8,-77.3 80.8,-77.3"/>
<text text-anchor="start" x="138.05" y="-83" font-family="Times New Roman,serif" font-size="14.00" fill="blue">2.034</text>
<polygon fill="none" stroke="black" points="173.8,-77.3 173.8,-99.3 264.8,-99.3 264.8,-77.3 173.8,-77.3"/>
<text text-anchor="start" x="231.05" y="-83" font-family="Times New Roman,serif" font-size="14.00" fill="blue">2.316</text>
<polygon fill="none" stroke="black" points="266.8,-77.3 266.8,-99.3 357.8,-99.3 357.8,-77.3 266.8,-77.3"/>
<text text-anchor="start" x="324.05" y="-83" font-family="Times New Roman,serif" font-size="14.00" fill="blue">2.482</text>
<g id="a_node5_48"><a xlink:href="bogus" xlink:title="Last growth
Exogen">
<polygon fill="none" stroke="black" points="4.8,-53.3 4.8,-75.3 78.8,-75.3 78.8,-53.3 4.8,-53.3"/>
<text text-anchor="start" x="7.8" y="-59" font-family="Times New Roman,serif" font-size="14.00" fill="blue">Last growth</text>
</a>
</g>
<polygon fill="none" stroke="black" points="80.8,-53.3 80.8,-75.3 171.8,-75.3 171.8,-53.3 80.8,-53.3"/>
<text text-anchor="start" x="138.05" y="-59" font-family="Times New Roman,serif" font-size="14.00" fill="blue">1.151</text>
<polygon fill="none" stroke="black" points="173.8,-53.3 173.8,-75.3 264.8,-75.3 264.8,-53.3 173.8,-53.3"/>
<text text-anchor="start" x="231.05" y="-59" font-family="Times New Roman,serif" font-size="14.00" fill="blue">2.122</text>
<polygon fill="none" stroke="black" points="266.8,-53.3 266.8,-75.3 357.8,-75.3 357.8,-53.3 266.8,-53.3"/>
<text text-anchor="start" x="324.05" y="-59" font-family="Times New Roman,serif" font-size="14.00" fill="blue">2.310</text>
<g id="a_node5_49"><a xlink:href="bogus" xlink:title="Diff growth
Exogen">
<polygon fill="none" stroke="black" points="4.8,-29.3 4.8,-51.3 78.8,-51.3 78.8,-29.3 4.8,-29.3"/>
<text text-anchor="start" x="7.8" y="-35" font-family="Times New Roman,serif" font-size="14.00" fill="blue">Diff growth</text>
</a>
</g>
<polygon fill="none" stroke="black" points="80.8,-29.3 80.8,-51.3 171.8,-51.3 171.8,-29.3 80.8,-29.3"/>
<text text-anchor="start" x="133.55" y="-35" font-family="Times New Roman,serif" font-size="14.00" fill="blue">-0.883</text>
<polygon fill="none" stroke="black" points="173.8,-29.3 173.8,-51.3 264.8,-51.3 264.8,-29.3 173.8,-29.3"/>
<text text-anchor="start" x="226.55" y="-35" font-family="Times New Roman,serif" font-size="14.00" fill="blue">-0.194</text>
<polygon fill="none" stroke="black" points="266.8,-29.3 266.8,-51.3 357.8,-51.3 357.8,-29.3 266.8,-29.3"/>
<text text-anchor="start" x="319.55" y="-35" font-family="Times New Roman,serif" font-size="14.00" fill="blue">-0.172</text>
<polygon fill="none" stroke="black" points="1.8,-26.3 1.8,-246.3 360.8,-246.3 360.8,-26.3 1.8,-26.3"/>
</g>
<!-- PAKNECONPRVTKN&#45;&gt;PAKNYGDPMKTPKN -->
<g id="edge4" class="edge">
<title>PAKNECONPRVTKN-&gt;PAKNYGDPMKTPKN</title>
<g id="a_edge4"><a xlink:href="bogus" xlink:title=" PAKNECONPRVTKN -&gt; PAKNYGDPMKTPKN Min. att. -217%  max: -156%">
<path fill="none" stroke="black" stroke-width="8" d="M352.15,-248.43C355.7,-251.37 359.19,-254.33 362.6,-257.3 403.33,-292.75 443.87,-335.56 478.65,-375.26"/>
<polygon fill="black" stroke="black" stroke-width="8" points="473.18,-379.24 485.02,-382.19 483.75,-370.05 473.18,-379.24"/>
</a>
</g>
</g>
</g>
</svg>