<svg xmlns="http://www.w3.org/2000/svg" xmlns:xlink="http://www.w3.org/1999/xlink" width="432pt" height="310pt" viewBox="0.00 0.00 432.00 309.91">
<g id="graph0" class="graph" transform="scale(0.402216 0.402216) rotate(0) translate(4 766.5)">
<title>TD</title>
<polygon fill="white" stroke="none" points="-4,4 -4,-766.5 1070.05,-766.5 1070.05,4 -4,4"/>
<text text-anchor="middle" x="533.03" y="-7.2" font-family="Times New Roman,serif" font-size="14.00">PAKNYGDPMKTPKN</text>
<!-- PAKFMLBLMTWOKN -->
<g id="node1" class="node">
<title>PAKFMLBLMTWOKN</title>
<g id="a_node1"><a xlink:title="Real Base Money (Mil. Real LCU)
FRML &lt;DAMP,STOC&gt; PAKFMLBLMTWOKN = (PAKFMLBLMTWOKN(-1)*EXP(PAKFMLBLMTWOKN_A+ (-0.2*(LOG(PAKFMLBLMTWOKN(-1))-LOG(PAKNYGDPMKTPKN(-1))+0.1*PAKFMLBLPOLYXN(-1)/100-LOG(PAKVELOCITY(-1)))-0.32628131688075+0.7*((LOG(PAKNYGDPMKTPKN))-(LOG(PAKNYGDPMKTPKN(-1))))-1*((PAKFMLBLPOLYXN/100)-(PAKFMLBLPOLYXN(-1)/100))-((LOG(PAKVELOCITY))-(LOG(PAKVELOCITY(-1))))) )) * (1-PAKFMLBLMTWOKN_D)+ PAKFMLBLMTWOKN_X*PAKFMLBLMTWOKN_D  $">
<polygon fill="#63b8ff" stroke="black" points="984.3,-762.5 639.7,-762.5 639.7,-726.5 984.3,-726.5 984.3,-762.5"/>
<text text-anchor="start" x="645.5" y="-739.45" font-family="Times New Roman,serif" font-size="14.00" fill="blue">PAKFMLBLMTWOKN:Real Base Money (Mil. Real LCU)</text>
</a>
</g>
</g>
<!-- PAKHURDAMKN -->
<g id="node2" class="node">
<title>PAKHURDAMKN</title>
<g id="a_node2"><a xlink:title="PAKHURDAMKN
FRML &lt;IDENT&gt; PAKHURDAMKN = (PAKNEHURAVERKN_/100)*PAKNYGDPMKTPKN(-1)*(1-PAKNEHURPTVTKN) $">
<polygon fill="#63b8ff" stroke="black" points="872.93,-708.5 751.08,-708.5 751.08,-672.5 872.93,-672.5 872.93,-708.5"/>
<text text-anchor="start" x="756.88" y="-685.45" font-family="Times New Roman,serif" font-size="14.00" fill="blue">PAKHURDAMKN:</text>
</a>
</g>
</g>
<!-- PAKGDPPCKN -->
<g id="node3" class="node">
<title>PAKGDPPCKN</title>
<g id="a_node3"><a xlink:title="GDP per capita, 2005 LCU mn
FRML &lt;IDENT&gt; PAKGDPPCKN = (PAKNYGDPMKTPKN/PAKSPPOPTOTL) $">
<polygon fill="#63b8ff" stroke="black" points="949.8,-654.5 674.2,-654.5 674.2,-618.5 949.8,-618.5 949.8,-654.5"/>
<text text-anchor="start" x="680" y="-631.45" font-family="Times New Roman,serif" font-size="14.00" fill="blue">PAKGDPPCKN:GDP per capita, 2005 LCU mn</text>
</a>
</g>
</g>
<!-- PAKNEADPKMAXKN -->
<g id="node4" class="node">
<title>PAKNEADPKMAXKN</title>
<g id="a_node4"><a xlink:title="PAKNEADPKMAXKN
FRML &lt;DAMP,STOC&gt; PAKNEADPKMAXKN = (0*DUMH+((1+0.01)/(0.01+PAKDEPR))*(PAKAVDAMAGE/100)*PAKNYGDPMKTPKN + PAKNEADPKMAXKN_A)* (1-PAKNEADPKMAXKN_D)+ PAKNEADPKMAXKN_X*PAKNEADPKMAXKN_D  $">
<polygon fill="#63b8ff" stroke="black" points="886.05,-600.5 737.95,-600.5 737.95,-564.5 886.05,-564.5 886.05,-600.5"/>
<text text-anchor="start" x="743.75" y="-577.45" font-family="Times New Roman,serif" font-size="14.00" fill="blue">PAKNEADPKMAXKN:</text>
</a>
</g>
</g>
<!-- PAKNEIMPGNFSKN -->
<g id="node5" class="node">
<title>PAKNEIMPGNFSKN</title>
<g id="a_node5"><a xlink:title="Imports real
FRML &lt;DAMP,STOC&gt; PAKNEIMPGNFSKN = (PAKNEIMPGNFSKN(-1)*EXP(PAKNEIMPGNFSKN_A+ (-0.324143718656754*(LOG(PAKNEIMPGNFSKN(-1))-LOG(PAKNEGDETTOTKN(-1))+0.8*LOG(PAKNEIMPGNFSXN(-1)/PAKNYGDPFCSTXN(-1)))-0.583459272245018+1*((LOG(PAKNEGDETTOTKN))-(LOG(PAKNEGDETTOTKN(-1))))-0.0921874580409631*((LOG(PAKNEIMPGNFSXN/PAKNYGDPFCSTXN))-(LOG(PAKNEIMPGNFSXN(-1)/PAKNYGDPFCSTXN(-1))))-0.0361746331863615*DURING_2012) )) * (1-PAKNEIMPGNFSKN_D)+ PAKNEIMPGNFSKN_X*PAKNEIMPGNFSKN_D  $">
<polygon fill="#63b8ff" stroke="black" points="244.85,-627.5 39.75,-627.5 39.75,-591.5 244.85,-591.5 244.85,-627.5"/>
<text text-anchor="start" x="45.55" y="-604.45" font-family="Times New Roman,serif" font-size="14.00" fill="blue">PAKNEIMPGNFSKN:Imports real</text>
</a>
</g>
</g>
<!-- PAKNYGDPMKTPKN -->
<g id="node20" class="node">
<title>PAKNYGDPMKTPKN</title>
<g id="a_node20"><a xlink:title="Real GDP
FRML &lt;IDENT&gt; PAKNYGDPMKTPKN = PAKNECONPRVTKN+PAKNECONGOVTKN+PAKNEGDIFTOTKN+PAKNEGDISTKBKN+PAKNEEXPGNFSKN-PAKNEIMPGNFSKN+PAKNYGDPDISCKN+PAKADAP*PAKDISPREPKN $">
<polygon fill="red" stroke="black" points="521.95,-411.5 320.6,-411.5 320.6,-375.5 521.95,-375.5 521.95,-411.5"/>
<text text-anchor="start" x="326.4" y="-388.45" font-family="Times New Roman,serif" font-size="14.00" fill="blue">PAKNYGDPMKTPKN:Real GDP</text>
</a>
</g>
</g>
<!-- PAKNEIMPGNFSKN&#45;&gt;PAKNYGDPMKTPKN -->
<g id="edge6" class="edge">
<title>PAKNEIMPGNFSKN-&gt;PAKNYGDPMKTPKN</title>
<g id="a_edge6"><a xlink:href="bogus" xlink:title=" PAKNEIMPGNFSKN -&gt; PAKNYGDPMKTPKN Min. att. -2897%  max: 3157%">
<path fill="none" stroke="black" stroke-width="8" d="M245.32,-599.71C259.18,-595.66 272.71,-590.1 284.6,-582.5 344.47,-544.25 386.12,-469.33 406.32,-426.2"/>
<polygon fill="black" stroke="black" stroke-width="8" points="413.06,-429.86 410.79,-417.87 400.3,-424.1 413.06,-429.86"/>
</a>
</g>
</g>
<!-- PAKNYWRTINFMCN -->
<g id="node6" class="node">
<title>PAKNYWRTINFMCN</title>
<g id="a_node6"><a xlink:title="PAKNYWRTINFMCN
FRML &lt;DAMP,STOC&gt; PAKNYWRTINFMCN = (PAKNYWRTINFMCN(-1)*EXP(PAKNYWRTINFMCN_A+ (-0.13526463206061-0.3*(LOG(PAKNYWRTINFMCN(-1))-LOG(PAKNYGDPFCSTXN(-1))-LOG(PAKNYGDPPOTLKN(-1)/PAKLMEMPSTRLCN(-1)))+0.2*((LOG(PAKNYWRTINFMCN(-1)))-(LOG(PAKNYWRTINFMCN(-2))))+(1-0.2)*(0.5*((LOG(PAKNYGDPFCSTXN(-1)))-(LOG(PAKNYGDPFCSTXN(-2))))+0.5*(PAKINFLEXPT/100)+((LOG(PAKNYGDPMKTPKN/PAKLMEMPSTRLCN))-(LOG(PAKNYGDPMKTPKN(-1)/PAKLMEMPSTRLCN(-1)))))-0.2*(PAKLMUNRTOTLCN-PAKLMUNRSTRLCN)/100) )) * (1-PAKNYWRTINFMCN_D)+ PAKNYWRTINFMCN_X*PAKNYWRTINFMCN_D  $">
<polygon fill="#63b8ff" stroke="black" points="884.18,-546.5 739.83,-546.5 739.83,-510.5 884.18,-510.5 884.18,-546.5"/>
<text text-anchor="start" x="745.63" y="-523.45" font-family="Times New Roman,serif" font-size="14.00" fill="blue">PAKNYWRTINFMCN:</text>
</a>
</g>
</g>
<!-- PAKNEEXPGNFSKN -->
<g id="node7" class="node">
<title>PAKNEEXPGNFSKN</title>
<g id="a_node7"><a xlink:title="Exports real
FRML &lt;DAMP,STOC&gt; PAKNEEXPGNFSKN = (PAKNEEXPGNFSKN(-1)*EXP(PAKNEEXPGNFSKN_A+ (-0.35*(LOG(PAKNEEXPGNFSKN(-1))-LOG(PAKXMKT(-1))-0.6*LOG(PAKNEEXPGNFSXN(-1)/(PAKNYGDPFCSTXN(-1))))+1*((LOG(PAKXMKT))-(LOG(PAKXMKT(-1))))+0.3*((LOG(PAKNEEXPGNFSXN/(PAKNYGDPFCSTXN)))-(LOG(PAKNEEXPGNFSXN(-1)/(PAKNYGDPFCSTXN(-1)))))+4.38465374402991-0.237469889780178*DURING_1999-0.230689812873392*DURING_1998+0.320967524344658*DURING_1991+0.250252413901575*DURING_1986) )) * (1-PAKNEEXPGNFSKN_D)+ PAKNEEXPGNFSKN_X*PAKNEEXPGNFSKN_D  $">
<polygon fill="#63b8ff" stroke="black" points="244.85,-573.5 39.75,-573.5 39.75,-537.5 244.85,-537.5 244.85,-573.5"/>
<text text-anchor="start" x="45.55" y="-550.45" font-family="Times New Roman,serif" font-size="14.00" fill="blue">PAKNEEXPGNFSKN:Exports real</text>
</a>
</g>
</g>
<!-- PAKNEEXPGNFSKN&#45;&gt;PAKNYGDPMKTPKN -->
<g id="edge10" class="edge">
<title>PAKNEEXPGNFSKN-&gt;PAKNYGDPMKTPKN</title>
<g id="a_edge10"><a xlink:href="bogus" xlink:title=" PAKNEEXPGNFSKN -&gt; PAKNYGDPMKTPKN Min. att. -231%  max: 198%">
<path fill="none" stroke="black" stroke-width="8" d="M245,-543.67C258.76,-539.91 272.34,-534.97 284.6,-528.5 332.21,-503.36 373.9,-455.97 398.09,-424.56"/>
<polygon fill="black" stroke="black" stroke-width="8" points="403.26,-428.99 403.65,-416.79 392.05,-420.6 403.26,-428.99"/>
</a>
</g>
</g>
<!-- PAKNEADPKMAXKN_FITTED -->
<g id="node8" class="node">
<title>PAKNEADPKMAXKN_FITTED</title>
<g id="a_node8"><a xlink:title="Fitted  value:PAKNEADPKMAXKN
FRML &lt;FIT&gt; PAKNEADPKMAXKN_FITTED = 0*DUMH+((1+0.01)/(0.01+PAKDEPR))*(PAKAVDAMAGE/100)*PAKNYGDPMKTPKN $">
<polygon fill="#63b8ff" stroke="black" points="1015.05,-492.5 608.95,-492.5 608.95,-456.5 1015.05,-456.5 1015.05,-492.5"/>
<text text-anchor="start" x="614.75" y="-469.45" font-family="Times New Roman,serif" font-size="14.00" fill="blue">PAKNEADPKMAXKN_FITTED:Fitted  value:PAKNEADPKMAXKN</text>
</a>
</g>
</g>
<!-- PAKNECONPRVTKN -->
<g id="node9" class="node">
<title>PAKNECONPRVTKN</title>
<g id="a_node9"><a xlink:title="HH. Cons Real
FRML &lt;DAMP,STOC&gt; PAKNECONPRVTKN = (PAKNECONPRVTKN(-1)*EXP(PAKNECONPRVTKN_A+ (-0.2*(LOG(PAKNECONPRVTKN(-1))-LOG(1.21203101101442)-LOG((((PAKBXFSTREMTCD(-1)-PAKBMFSTREMTCD(-1))*PAKPANUSATLS(-1))+PAKGGEXPTRNSCN(-1)+PAKNYYWBTOTLCN(-1)*(1-PAKGGREVDRCTXN(-1)/100))/PAKNECONPRVTXN(-1)))+0.763938860758873*((LOG((((PAKBXFSTREMTCD-PAKBMFSTREMTCD)*PAKPANUSATLS)+PAKGGEXPTRNSCN+PAKNYYWBTOTLCN*(1-PAKGGREVDRCTXN/100))/PAKNECONPRVTXN))-(LOG((((PAKBXFSTREMTCD(-1)-PAKBMFSTREMTCD(-1))*PAKPANUSATLS(-1))+PAKGGEXPTRNSCN(-1)+PAKNYYWBTOTLCN(-1)*(1-PAKGGREVDRCTXN(-1)/100))/PAKNECONPRVTXN(-1))))-0.0634474791568939*DURING_2009-0.3*(PAKFMLBLPOLYXN/100-((LOG(PAKNECONPRVTXN))-(LOG(PAKNECONPRVTXN(-1)))))) )) * (1-PAKNECONPRVTKN_D)+ PAKNECONPRVTKN_X*PAKNECONPRVTKN_D  $">
<polygon fill="#63b8ff" stroke="black" points="254.6,-519.5 30,-519.5 30,-483.5 254.6,-483.5 254.6,-519.5"/>
<text text-anchor="start" x="35.8" y="-496.45" font-family="Times New Roman,serif" font-size="14.00" fill="blue">PAKNECONPRVTKN:HH. Cons Real</text>
</a>
</g>
</g>
<!-- PAKNECONPRVTKN&#45;&gt;PAKNYGDPMKTPKN -->
<g id="edge17" class="edge">
<title>PAKNECONPRVTKN-&gt;PAKNYGDPMKTPKN</title>
<g id="a_edge17"><a xlink:href="bogus" xlink:title=" PAKNECONPRVTKN -&gt; PAKNYGDPMKTPKN Min. att. -6968%  max: 6491%">
<path fill="none" stroke="black" stroke-width="8" d="M255.01,-483.96C265.15,-481.23 275.15,-478.1 284.6,-474.5 319.81,-461.11 356.28,-438.77 382.54,-420.95"/>
<polygon fill="black" stroke="black" stroke-width="8" points="386.41,-426.31 390.63,-414.85 378.43,-414.81 386.41,-426.31"/>
</a>
</g>
</g>
<!-- PAKNYGDPGAP_ -->
<g id="node10" class="node">
<title>PAKNYGDPGAP_</title>
<g id="a_node10"><a xlink:title="Output Gap (% of Potential GDP)
FRML &lt;IDENT&gt; PAKNYGDPGAP_ = ((PAKNYGDPMKTPKN/PAKNYGDPPOTLKN-1)*100) $">
<polygon fill="#63b8ff" stroke="black" points="965.93,-438.5 658.08,-438.5 658.08,-402.5 965.93,-402.5 965.93,-438.5"/>
<text text-anchor="start" x="663.88" y="-415.45" font-family="Times New Roman,serif" font-size="14.00" fill="blue">PAKNYGDPGAP_:Output Gap (% of Potential GDP)</text>
</a>
</g>
</g>
<!-- PAKADAP -->
<g id="node11" class="node">
<title>PAKADAP</title>
<g id="a_node11"><a xlink:title="PAKADAP
Exogen">
<polygon fill="yellow" stroke="black" points="181.48,-465.5 103.13,-465.5 103.13,-429.5 181.48,-429.5 181.48,-465.5"/>
<text text-anchor="start" x="108.93" y="-442.45" font-family="Times New Roman,serif" font-size="14.00" fill="blue">PAKADAP:</text>
</a>
</g>
</g>
<!-- PAKADAP&#45;&gt;PAKNYGDPMKTPKN -->
<g id="edge18" class="edge">
<title>PAKADAP-&gt;PAKNYGDPMKTPKN</title>
<g id="a_edge18"><a xlink:href="bogus" xlink:title=" PAKADAP -&gt; PAKNYGDPMKTPKN Min. att. -0%  max: 0%">
<path fill="none" stroke="black" d="M181.7,-440.24C210.12,-434.85 249.79,-427.29 284.6,-420.5 295.23,-418.43 306.32,-416.25 317.39,-414.06"/>
<polygon fill="black" stroke="black" points="317.84,-417.34 326.97,-411.97 316.48,-410.47 317.84,-417.34"/>
</a>
</g>
</g>
<!-- PAKFMLBLMTWOKN_FITTED -->
<g id="node12" class="node">
<title>PAKFMLBLMTWOKN_FITTED</title>
<g id="a_node12"><a xlink:title="Fitted  value:Real Base Money (Mil. Real LCU)
FRML &lt;FIT&gt; PAKFMLBLMTWOKN_FITTED = PAKFMLBLMTWOKN(-1)*EXP( (-0.2*(LOG(PAKFMLBLMTWOKN(-1))-LOG(PAKNYGDPMKTPKN(-1))+0.1*PAKFMLBLPOLYXN(-1)/100-LOG(PAKVELOCITY(-1)))-0.32628131688075+0.7*((LOG(PAKNYGDPMKTPKN))-(LOG(PAKNYGDPMKTPKN(-1))))-1*((PAKFMLBLPOLYXN/100)-(PAKFMLBLPOLYXN(-1)/100))-((LOG(PAKVELOCITY))-(LOG(PAKVELOCITY(-1))))) ) $">
<polygon fill="#63b8ff" stroke="black" points="1046.93,-384.5 577.08,-384.5 577.08,-348.5 1046.93,-348.5 1046.93,-384.5"/>
<text text-anchor="start" x="582.88" y="-361.45" font-family="Times New Roman,serif" font-size="14.00" fill="blue">PAKFMLBLMTWOKN_FITTED:Fitted  value:Real Base Money (Mil. Real LCU)</text>
</a>
</g>
</g>
<!-- PAKNYGDPMKTPKD -->
<g id="node13" class="node">
<title>PAKNYGDPMKTPKD</title>
<g id="a_node13"><a xlink:title="GDP, Market Prices, 2000 US$ mn
FRML &lt;IDENT&gt; PAKNYGDPMKTPKD = (PAKNYGDPMKTPKN*((PAKNYGDPMKTPCN_VALUE_2010)/((PAKNYGDPMKTPKN_VALUE_2010))))/(PAKPANUSATLS_VALUE_2010) $">
<polygon fill="#63b8ff" stroke="black" points="981.68,-330.5 642.33,-330.5 642.33,-294.5 981.68,-294.5 981.68,-330.5"/>
<text text-anchor="start" x="648.13" y="-307.45" font-family="Times New Roman,serif" font-size="14.00" fill="blue">PAKNYGDPMKTPKD:GDP, Market Prices, 2000 US$ mn</text>
</a>
</g>
</g>
<!-- PAKNEGDISTKBKN -->
<g id="node14" class="node">
<title>PAKNEGDISTKBKN</title>
<g id="a_node14"><a xlink:title="Stock real
Exogen">
<polygon fill="yellow" stroke="black" points="238.48,-411.5 46.13,-411.5 46.13,-375.5 238.48,-375.5 238.48,-411.5"/>
<text text-anchor="start" x="51.93" y="-388.45" font-family="Times New Roman,serif" font-size="14.00" fill="blue">PAKNEGDISTKBKN:Stock real</text>
</a>
</g>
</g>
<!-- PAKNEGDISTKBKN&#45;&gt;PAKNYGDPMKTPKN -->
<g id="edge15" class="edge">
<title>PAKNEGDISTKBKN-&gt;PAKNYGDPMKTPKN</title>
<g id="a_edge15"><a xlink:href="bogus" xlink:title=" PAKNEGDISTKBKN -&gt; PAKNYGDPMKTPKN Min. att. -0%  max: 0%">
<path fill="none" stroke="black" d="M238.62,-393.5C261.55,-393.5 286.24,-393.5 309.8,-393.5"/>
<polygon fill="black" stroke="black" points="309.53,-397 319.53,-393.5 309.53,-390 309.53,-397"/>
</a>
</g>
</g>
<!-- PAKNECONGOVTKN -->
<g id="node15" class="node">
<title>PAKNECONGOVTKN</title>
<g id="a_node15"><a xlink:title="Gov. Cons real
FRML &lt;IDENT&gt; PAKNECONGOVTKN = PAKNECONGOVTCN/PAKNECONGOVTXN $">
<polygon fill="#63b8ff" stroke="black" points="255.73,-357.5 28.88,-357.5 28.88,-321.5 255.73,-321.5 255.73,-357.5"/>
<text text-anchor="start" x="34.68" y="-334.45" font-family="Times New Roman,serif" font-size="14.00" fill="blue">PAKNECONGOVTKN:Gov. Cons real</text>
</a>
</g>
</g>
<!-- PAKNECONGOVTKN&#45;&gt;PAKNYGDPMKTPKN -->
<g id="edge3" class="edge">
<title>PAKNECONGOVTKN-&gt;PAKNYGDPMKTPKN</title>
<g id="a_edge3"><a xlink:href="bogus" xlink:title=" PAKNECONGOVTKN -&gt; PAKNYGDPMKTPKN Min. att. -2390%  max: 2736%">
<path fill="none" stroke="black" stroke-width="8" d="M240.61,-357.99C255.35,-360.82 270.38,-363.73 284.6,-366.5 293.69,-368.27 303.13,-370.13 312.6,-371.99"/>
<polygon fill="black" stroke="black" stroke-width="8" points="310.8,-378.96 321.97,-374.03 313.52,-365.23 310.8,-378.96"/>
</a>
</g>
</g>
<!-- PAKNYWRTFORMCN_FITTED -->
<g id="node16" class="node">
<title>PAKNYWRTFORMCN_FITTED</title>
<g id="a_node16"><a xlink:title="Fitted  value:PAKNYWRTFORMCN
FRML &lt;FIT&gt; PAKNYWRTFORMCN_FITTED = PAKNYWRTFORMCN(-1)*EXP( (-0.132832689997107-0.3*(LOG(PAKNYWRTFORMCN(-1))-LOG(PAKNYGDPFCSTXN(-1))-LOG(PAKNYGDPPOTLKN(-1)/PAKLMEMPSTRLCN(-1)))+0.2*((LOG(PAKNYWRTFORMCN(-1)))-(LOG(PAKNYWRTFORMCN(-2))))+(1-0.2)*(0.5*((LOG(PAKNYGDPFCSTXN(-1)))-(LOG(PAKNYGDPFCSTXN(-2))))+0.5*(PAKINFLEXPT/100)+((LOG(PAKNYGDPMKTPKN/PAKLMEMPSTRLCN))-(LOG(PAKNYGDPMKTPKN(-1)/PAKLMEMPSTRLCN(-1)))))-0.2*(PAKLMUNRTOTLCN-PAKLMUNRSTRLCN)/100) ) $">
<polygon fill="#63b8ff" stroke="black" points="1015.8,-276.5 608.2,-276.5 608.2,-240.5 1015.8,-240.5 1015.8,-276.5"/>
<text text-anchor="start" x="614" y="-253.45" font-family="Times New Roman,serif" font-size="14.00" fill="blue">PAKNYWRTFORMCN_FITTED:Fitted  value:PAKNYWRTFORMCN</text>
</a>
</g>
</g>
<!-- PAKNYGDPDISCKN -->
<g id="node17" class="node">
<title>PAKNYGDPDISCKN</title>
<g id="a_node17"><a xlink:title="GDP Disc., 2000 LCU mn
Exogen">
<polygon fill="yellow" stroke="black" points="284.6,-303.5 0,-303.5 0,-267.5 284.6,-267.5 284.6,-303.5"/>
<text text-anchor="start" x="5.8" y="-280.45" font-family="Times New Roman,serif" font-size="14.00" fill="blue">PAKNYGDPDISCKN:GDP Disc., 2000 LCU mn</text>
</a>
</g>
</g>
<!-- PAKNYGDPDISCKN&#45;&gt;PAKNYGDPMKTPKN -->
<g id="edge5" class="edge">
<title>PAKNYGDPDISCKN-&gt;PAKNYGDPMKTPKN</title>
<g id="a_edge5"><a xlink:href="bogus" xlink:title=" PAKNYGDPDISCKN -&gt; PAKNYGDPMKTPKN Min. att. -0%  max: 0%">
<path fill="none" stroke="black" d="M258.38,-303.97C267.36,-306.47 276.2,-309.3 284.6,-312.5 321.76,-326.64 360.32,-350.72 386.79,-368.97"/>
<polygon fill="black" stroke="black" points="384.43,-372.28 394.63,-375.15 388.44,-366.55 384.43,-372.28"/>
</a>
</g>
</g>
<!-- PAKNYWRTINFMCN_FITTED -->
<g id="node18" class="node">
<title>PAKNYWRTINFMCN_FITTED</title>
<g id="a_node18"><a xlink:title="Fitted  value:PAKNYWRTINFMCN
FRML &lt;FIT&gt; PAKNYWRTINFMCN_FITTED = PAKNYWRTINFMCN(-1)*EXP( (-0.13526463206061-0.3*(LOG(PAKNYWRTINFMCN(-1))-LOG(PAKNYGDPFCSTXN(-1))-LOG(PAKNYGDPPOTLKN(-1)/PAKLMEMPSTRLCN(-1)))+0.2*((LOG(PAKNYWRTINFMCN(-1)))-(LOG(PAKNYWRTINFMCN(-2))))+(1-0.2)*(0.5*((LOG(PAKNYGDPFCSTXN(-1)))-(LOG(PAKNYGDPFCSTXN(-2))))+0.5*(PAKINFLEXPT/100)+((LOG(PAKNYGDPMKTPKN/PAKLMEMPSTRLCN))-(LOG(PAKNYGDPMKTPKN(-1)/PAKLMEMPSTRLCN(-1)))))-0.2*(PAKLMUNRTOTLCN-PAKLMUNRSTRLCN)/100) ) $">
<polygon fill="#63b8ff" stroke="black" points="1011.3,-222.5 612.7,-222.5 612.7,-186.5 1011.3,-186.5 1011.3,-222.5"/>
<text text-anchor="start" x="618.5" y="-199.45" font-family="Times New Roman,serif" font-size="14.00" fill="blue">PAKNYWRTINFMCN_FITTED:Fitted  value:PAKNYWRTINFMCN</text>
</a>
</g>
</g>
<!-- PAKNYGDPMKTPXN -->
<g id="node19" class="node">
<title>PAKNYGDPMKTPXN</title>
<g id="a_node19"><a xlink:title="GDP, Marker Prices, LCU Price defl., 2000 = 1
FRML &lt;IDENT&gt; PAKNYGDPMKTPXN = PAKNYGDPMKTPCN/PAKNYGDPMKTPKN $">
<polygon fill="#63b8ff" stroke="black" points="1015.8,-168.5 608.2,-168.5 608.2,-132.5 1015.8,-132.5 1015.8,-168.5"/>
<text text-anchor="start" x="614" y="-145.45" font-family="Times New Roman,serif" font-size="14.00" fill="blue">PAKNYGDPMKTPXN:GDP, Marker Prices, LCU Price defl., 2000 = 1</text>
</a>
</g>
</g>
<!-- PAKNYGDPMKTPKN&#45;&gt;PAKFMLBLMTWOKN -->
<g id="edge2" class="edge">
<title>PAKNYGDPMKTPKN-&gt;PAKFMLBLMTWOKN</title>
<g id="a_edge2"><a xlink:href="bogus" xlink:title=" PAKNYGDPMKTPKN -&gt; PAKFMLBLMTWOKN Min. att. -242%  max: 649%">
<path fill="none" stroke="black" stroke-width="8" d="M423.69,-411.68C429.15,-467.94 454.03,-640.08 557.95,-717.5 577.44,-732.02 600.24,-741.55 624.03,-747.56"/>
<polygon fill="black" stroke="black" stroke-width="8" points="622.09,-754.62 633.36,-749.93 625.11,-740.95 622.09,-754.62"/>
</a>
</g>
</g>
<!-- PAKNYGDPMKTPKN&#45;&gt;PAKHURDAMKN -->
<g id="edge13" class="edge">
<title>PAKNYGDPMKTPKN-&gt;PAKHURDAMKN</title>
<g id="a_edge13"><a xlink:href="bogus" xlink:title=" PAKNYGDPMKTPKN -&gt; PAKHURDAMKN Min. att. 0%  max: 0%">
<path fill="none" stroke="black" d="M425.33,-411.86C434.74,-461.96 468.25,-601.37 557.95,-663.5 610.79,-700.1 685.29,-703.82 739.77,-700.21"/>
<polygon fill="black" stroke="black" points="740.03,-703.62 749.74,-699.37 739.5,-696.64 740.03,-703.62"/>
</a>
</g>
</g>
<!-- PAKNYGDPMKTPKN&#45;&gt;PAKGDPPCKN -->
<g id="edge16" class="edge">
<title>PAKNYGDPMKTPKN-&gt;PAKGDPPCKN</title>
<g id="a_edge16"><a xlink:href="bogus" xlink:title=" PAKNYGDPMKTPKN -&gt; PAKGDPPCKN Min. att. 100%  max: 100%">
<path fill="none" stroke="black" stroke-width="8" d="M427.71,-411.95C441.46,-455.03 482.07,-562.13 557.95,-609.5 587.74,-628.1 623.43,-637.75 658.48,-642.22"/>
<polygon fill="black" stroke="black" stroke-width="8" points="657.29,-649.77 667.97,-643.87 658.77,-635.85 657.29,-649.77"/>
</a>
</g>
</g>
<!-- PAKNYGDPMKTPKN&#45;&gt;PAKNEADPKMAXKN -->
<g id="edge7" class="edge">
<title>PAKNYGDPMKTPKN-&gt;PAKNEADPKMAXKN</title>
<g id="a_edge7"><a xlink:href="bogus" xlink:title=" PAKNYGDPMKTPKN -&gt; PAKNEADPKMAXKN Min. att. 100%  max: 100%">
<path fill="none" stroke="black" stroke-width="8" d="M431.39,-411.78C449.85,-446.63 495.31,-522.09 557.95,-555.5 607.83,-582.1 671.07,-588.86 721.85,-588.96"/>
<polygon fill="black" stroke="black" stroke-width="8" points="721.6,-595.9 731.52,-588.78 721.44,-581.9 721.6,-595.9"/>
</a>
</g>
</g>
<!-- PAKNYGDPMKTPKN&#45;&gt;PAKNYWRTINFMCN -->
<g id="edge22" class="edge">
<title>PAKNYGDPMKTPKN-&gt;PAKNYWRTINFMCN</title>
<g id="a_edge22"><a xlink:href="bogus" xlink:title=" PAKNYGDPMKTPKN -&gt; PAKNYWRTINFMCN Min. att. -24%  max: 98%">
<path fill="none" stroke="black" stroke-width="8" d="M438.58,-411.8C462.14,-436.89 508.37,-481.16 557.95,-501.5 610.23,-522.95 673.44,-529.7 723.61,-531.1"/>
<polygon fill="black" stroke="black" stroke-width="8" points="723.28,-538.19 733.41,-531.37 723.53,-524.2 723.28,-538.19"/>
</a>
</g>
</g>
<!-- PAKNYGDPMKTPKN&#45;&gt;PAKNEADPKMAXKN_FITTED -->
<g id="edge20" class="edge">
<title>PAKNYGDPMKTPKN-&gt;PAKNEADPKMAXKN_FITTED</title>
<g id="a_edge20"><a xlink:href="bogus" xlink:title=" PAKNYGDPMKTPKN -&gt; PAKNEADPKMAXKN_FITTED Min. att. 100%  max: 100%">
<path fill="none" stroke="black" stroke-width="8" d="M460.53,-411.99C487.22,-424.06 523.99,-439.1 557.95,-447.5 569.28,-450.3 580.97,-452.82 592.82,-455.07"/>
<polygon fill="black" stroke="black" stroke-width="8" points="591.4,-462 602.48,-456.88 593.87,-448.22 591.4,-462"/>
</a>
</g>
</g>
<!-- PAKNYGDPMKTPKN&#45;&gt;PAKNYGDPGAP_ -->
<g id="edge21" class="edge">
<title>PAKNYGDPMKTPKN-&gt;PAKNYGDPGAP_</title>
<g id="a_edge21"><a xlink:href="bogus" xlink:title=" PAKNYGDPMKTPKN -&gt; PAKNYGDPGAP_ Min. att. -3813%  max: 8432%">
<path fill="none" stroke="black" stroke-width="8" d="M522.38,-400.45C558.8,-402.98 601.05,-405.92 641.8,-408.75"/>
<polygon fill="black" stroke="black" stroke-width="8" points="641.17,-416.14 651.63,-409.85 642.14,-402.17 641.17,-416.14"/>
</a>
</g>
</g>
<!-- PAKNYGDPMKTPKN&#45;&gt;PAKFMLBLMTWOKN_FITTED -->
<g id="edge1" class="edge">
<title>PAKNYGDPMKTPKN-&gt;PAKFMLBLMTWOKN_FITTED</title>
<g id="a_edge1"><a xlink:href="bogus" xlink:title=" PAKNYGDPMKTPKN -&gt; PAKFMLBLMTWOKN_FITTED Min. att. -242%  max: 649%">
<path fill="none" stroke="black" stroke-width="8" d="M522.38,-386.55C534.67,-385.69 547.62,-384.79 560.95,-383.87"/>
<polygon fill="black" stroke="black" stroke-width="8" points="561.27,-390.45 570.76,-382.77 560.3,-376.48 561.27,-390.45"/>
</a>
</g>
</g>
<!-- PAKNYGDPMKTPKN&#45;&gt;PAKNYGDPMKTPKD -->
<g id="edge8" class="edge">
<title>PAKNYGDPMKTPKN-&gt;PAKNYGDPMKTPKD</title>
<g id="a_edge8"><a xlink:href="bogus" xlink:title=" PAKNYGDPMKTPKN -&gt; PAKNYGDPMKTPKD Min. att. 100%  max: 100%">
<path fill="none" stroke="black" stroke-width="8" d="M460.53,-375.01C487.22,-362.94 523.99,-347.9 557.95,-339.5 579.92,-334.06 603.23,-329.72 626.47,-326.25"/>
<polygon fill="black" stroke="black" stroke-width="8" points="627.19,-332.37 636.12,-324.05 625.24,-318.51 627.19,-332.37"/>
</a>
</g>
</g>
<!-- PAKNYGDPMKTPKN&#45;&gt;PAKNYWRTFORMCN_FITTED -->
<g id="edge9" class="edge">
<title>PAKNYGDPMKTPKN-&gt;PAKNYWRTFORMCN_FITTED</title>
<g id="a_edge9"><a xlink:href="bogus" xlink:title=" PAKNYGDPMKTPKN -&gt; PAKNYWRTFORMCN_FITTED Min. att. -24%  max: 98%">
<path fill="none" stroke="black" stroke-width="8" d="M438.58,-375.2C462.14,-350.11 508.37,-305.84 557.95,-285.5 569.09,-280.93 580.72,-277.03 592.62,-273.7"/>
<polygon fill="black" stroke="black" stroke-width="8" points="593.87,-280.06 601.81,-270.79 590.38,-266.51 593.87,-280.06"/>
</a>
</g>
</g>
<!-- PAKNYGDPMKTPKN&#45;&gt;PAKNYWRTINFMCN_FITTED -->
<g id="edge4" class="edge">
<title>PAKNYGDPMKTPKN-&gt;PAKNYWRTINFMCN_FITTED</title>
<g id="a_edge4"><a xlink:href="bogus" xlink:title=" PAKNYGDPMKTPKN -&gt; PAKNYWRTINFMCN_FITTED Min. att. -24%  max: 98%">
<path fill="none" stroke="black" stroke-width="8" d="M431.39,-375.22C449.85,-340.37 495.31,-264.91 557.95,-231.5 570.4,-224.86 583.69,-219.45 597.41,-215.08"/>
<polygon fill="black" stroke="black" stroke-width="8" points="598.78,-221.23 606.44,-211.73 594.89,-207.79 598.78,-221.23"/>
</a>
</g>
</g>
<!-- PAKNYGDPMKTPKN&#45;&gt;PAKNYGDPMKTPXN -->
<g id="edge19" class="edge">
<title>PAKNYGDPMKTPKN-&gt;PAKNYGDPMKTPXN</title>
<g id="a_edge19"><a xlink:href="bogus" xlink:title=" PAKNYGDPMKTPKN -&gt; PAKNYGDPMKTPXN Min. att. -43%  max: 10%">
<path fill="none" stroke="black" stroke-width="4.33" d="M427.71,-375.05C441.46,-331.97 482.07,-224.87 557.95,-177.5 568.87,-170.68 580.59,-165.06 592.78,-160.46"/>
<polygon fill="black" stroke="black" stroke-width="4.33" points="594.6,-163.14 602.86,-156.34 592.17,-155.97 594.6,-163.14"/>
</a>
</g>
</g>
<!-- PAKNYGDPFCSTKN -->
<g id="node22" class="node">
<title>PAKNYGDPFCSTKN</title>
<g id="a_node22"><a xlink:title="GDP Factor Cost Local Currency units Volumes National base year
FRML &lt;IDENT&gt; PAKNYGDPFCSTKN = PAKNYGDPMKTPKN-PAKNYTAXNINDKN $">
<polygon fill="#63b8ff" stroke="black" points="1066.05,-114.5 557.95,-114.5 557.95,-78.5 1066.05,-78.5 1066.05,-114.5"/>
<text text-anchor="start" x="563.75" y="-91.45" font-family="Times New Roman,serif" font-size="14.00" fill="blue">PAKNYGDPFCSTKN:GDP Factor Cost Local Currency units Volumes National base year</text>
</a>
</g>
</g>
<!-- PAKNYGDPMKTPKN&#45;&gt;PAKNYGDPFCSTKN -->
<g id="edge23" class="edge">
<title>PAKNYGDPMKTPKN-&gt;PAKNYGDPFCSTKN</title>
<g id="a_edge23"><a xlink:href="bogus" xlink:title=" PAKNYGDPMKTPKN -&gt; PAKNYGDPFCSTKN Min. att. 100%  max: 100%">
<path fill="none" stroke="black" stroke-width="8" d="M425.33,-375.14C434.74,-325.04 468.25,-185.63 557.95,-123.5 558.09,-123.4 558.23,-123.31 558.37,-123.21"/>
<polygon fill="black" stroke="black" stroke-width="8" points="561.91,-129.15 566.73,-117.94 554.55,-117.25 561.91,-129.15"/>
</a>
</g>
</g>
<!-- PAKNYWRTFORMCN -->
<g id="node24" class="node">
<title>PAKNYWRTFORMCN</title>
<g id="a_node24"><a xlink:title="PAKNYWRTFORMCN
FRML &lt;DAMP,STOC&gt; PAKNYWRTFORMCN = (PAKNYWRTFORMCN(-1)*EXP(PAKNYWRTFORMCN_A+ (-0.132832689997107-0.3*(LOG(PAKNYWRTFORMCN(-1))-LOG(PAKNYGDPFCSTXN(-1))-LOG(PAKNYGDPPOTLKN(-1)/PAKLMEMPSTRLCN(-1)))+0.2*((LOG(PAKNYWRTFORMCN(-1)))-(LOG(PAKNYWRTFORMCN(-2))))+(1-0.2)*(0.5*((LOG(PAKNYGDPFCSTXN(-1)))-(LOG(PAKNYGDPFCSTXN(-2))))+0.5*(PAKINFLEXPT/100)+((LOG(PAKNYGDPMKTPKN/PAKLMEMPSTRLCN))-(LOG(PAKNYGDPMKTPKN(-1)/PAKLMEMPSTRLCN(-1)))))-0.2*(PAKLMUNRTOTLCN-PAKLMUNRSTRLCN)/100) )) * (1-PAKNYWRTFORMCN_D)+ PAKNYWRTFORMCN_X*PAKNYWRTFORMCN_D  $">
<polygon fill="#63b8ff" stroke="black" points="886.43,-60.5 737.58,-60.5 737.58,-24.5 886.43,-24.5 886.43,-60.5"/>
<text text-anchor="start" x="743.38" y="-37.45" font-family="Times New Roman,serif" font-size="14.00" fill="blue">PAKNYWRTFORMCN:</text>
</a>
</g>
</g>
<!-- PAKNYGDPMKTPKN&#45;&gt;PAKNYWRTFORMCN -->
<g id="edge14" class="edge">
<title>PAKNYGDPMKTPKN-&gt;PAKNYWRTFORMCN</title>
<g id="a_edge14"><a xlink:href="bogus" xlink:title=" PAKNYGDPMKTPKN -&gt; PAKNYWRTFORMCN Min. att. -24%  max: 98%">
<path fill="none" stroke="black" stroke-width="8" d="M423.69,-375.32C429.15,-319.06 454.03,-146.92 557.95,-69.5 604.11,-35.12 668.82,-28.73 721.24,-30.76"/>
<polygon fill="black" stroke="black" stroke-width="8" points="720.72,-38.07 731.09,-31.64 721.49,-24.09 720.72,-38.07"/>
</a>
</g>
</g>
<!-- PAKDISPREPKN -->
<g id="node21" class="node">
<title>PAKDISPREPKN</title>
<g id="a_node21"><a xlink:title="PAKDISPREPKN
FRML &lt;IDENT&gt; PAKDISPREPKN = PAKDISPREPCN/PAKNYGDPMKTPXN $">
<polygon fill="#63b8ff" stroke="black" points="199.85,-249.5 84.75,-249.5 84.75,-213.5 199.85,-213.5 199.85,-249.5"/>
<text text-anchor="start" x="90.55" y="-226.45" font-family="Times New Roman,serif" font-size="14.00" fill="blue">PAKDISPREPKN:</text>
</a>
</g>
</g>
<!-- PAKDISPREPKN&#45;&gt;PAKNYGDPMKTPKN -->
<g id="edge12" class="edge">
<title>PAKDISPREPKN-&gt;PAKNYGDPMKTPKN</title>
<g id="a_edge12"><a xlink:href="bogus" xlink:title=" PAKDISPREPKN -&gt; PAKNYGDPMKTPKN Min. att. -0%  max: 0%">
<path fill="none" stroke="black" d="M200.18,-234.67C227.03,-238.04 258.76,-244.85 284.6,-258.5 334.34,-284.77 377.63,-335.33 401.24,-366.57"/>
<polygon fill="black" stroke="black" points="398.88,-368.26 407.65,-374.21 404.51,-364.09 398.88,-368.26"/>
</a>
</g>
</g>
<!-- PAKNEGDIFTOTKN -->
<g id="node23" class="node">
<title>PAKNEGDIFTOTKN</title>
<g id="a_node23"><a xlink:title="Investment real
FRML &lt;IDENT&gt; PAKNEGDIFTOTKN = PAKNEGDIFGOVKN+PAKNEGDIFPRVKN $">
<polygon fill="#63b8ff" stroke="black" points="253.1,-195.5 31.5,-195.5 31.5,-159.5 253.1,-159.5 253.1,-195.5"/>
<text text-anchor="start" x="37.3" y="-172.45" font-family="Times New Roman,serif" font-size="14.00" fill="blue">PAKNEGDIFTOTKN:Investment real</text>
</a>
</g>
</g>
<!-- PAKNEGDIFTOTKN&#45;&gt;PAKNYGDPMKTPKN -->
<g id="edge11" class="edge">
<title>PAKNEGDIFTOTKN-&gt;PAKNYGDPMKTPKN</title>
<g id="a_edge11"><a xlink:href="bogus" xlink:title=" PAKNEGDIFTOTKN -&gt; PAKNYGDPMKTPKN Min. att. -1433%  max: 1404%">
<path fill="none" stroke="black" stroke-width="8" d="M253.37,-189.84C264.39,-193.59 275.02,-198.38 284.6,-204.5 344.47,-242.75 386.12,-317.67 406.32,-360.8"/>
<polygon fill="black" stroke="black" stroke-width="8" points="400.3,-362.9 410.79,-369.13 413.06,-357.14 400.3,-362.9"/>
</a>
</g>
</g>
</g>
</svg>