<svg xmlns="http://www.w3.org/2000/svg" xmlns:xlink="http://www.w3.org/1999/xlink" width="432pt" height="418pt" viewBox="0.00 0.00 432.00 417.79">
<g id="graph0" class="graph" transform="scale(0.423509 0.423509) rotate(0) translate(4 982.5)">
<title>TD</title>
<polygon fill="white" stroke="none" points="-4,4 -4,-982.5 1016.05,-982.5 1016.05,4 -4,4"/>
<text text-anchor="middle" x="506.02" y="-7.2" font-family="Times New Roman,serif" font-size="14.00">PAKNECONPRVTKN</text>
<!-- PAKNECONPRVTKN_FITTED -->
<g id="node1" class="node">
<title>PAKNECONPRVTKN_FITTED</title>
<g id="a_node1"><a xlink:title="Fitted  value:HH. Cons Real
FRML &lt;FIT&gt; PAKNECONPRVTKN_FITTED = PAKNECONPRVTKN(-1)*EXP( (-0.2*(LOG(PAKNECONPRVTKN(-1))-LOG(1.21203101101442)-LOG((((PAKBXFSTREMTCD(-1)-PAKBMFSTREMTCD(-1))*PAKPANUSATLS(-1))+PAKGGEXPTRNSCN(-1)+PAKNYYWBTOTLCN(-1)*(1-PAKGGREVDRCTXN(-1)/100))/PAKNECONPRVTXN(-1)))+0.763938860758873*((LOG((((PAKBXFSTREMTCD-PAKBMFSTREMTCD)*PAKPANUSATLS)+PAKGGEXPTRNSCN+PAKNYYWBTOTLCN*(1-PAKGGREVDRCTXN/100))/PAKNECONPRVTXN))-(LOG((((PAKBXFSTREMTCD(-1)-PAKBMFSTREMTCD(-1))*PAKPANUSATLS(-1))+PAKGGEXPTRNSCN(-1)+PAKNYYWBTOTLCN(-1)*(1-PAKGGREVDRCTXN(-1)/100))/PAKNECONPRVTXN(-1))))-0.0634474791568939*DURING_2009-0.3*(PAKFMLBLPOLYXN/100-((LOG(PAKNECONPRVTXN))-(LOG(PAKNECONPRVTXN(-1)))))) ) $">
<polygon fill="#63b8ff" stroke="black" points="1012.05,-978.5 662.2,-978.5 662.2,-942.5 1012.05,-942.5 1012.05,-978.5"/>
<text text-anchor="start" x="668" y="-955.45" font-family="Times New Roman,serif" font-size="14.00" fill="blue">PAKNECONPRVTKN_FITTED:Fitted  value:HH. Cons Real</text>
</a>
</g>
</g>
<!-- PAKSMINDOTHRTKN -->
<g id="node2" class="node">
<title>PAKSMINDOTHRTKN</title>
<g id="a_node2"><a xlink:title="PAKSMINDOTHRTKN
FRML &lt;IDENT&gt; PAKSMINDOTHRTKN = ((1+0.483473985412524)*(0.40172973397176*PAKNECONPRVTKN+0*PAKNECONGOVTKN+0.560459287907094*PAKNEGDIFTOTKN+0.719299486591763*PAKNEEXPGNFSKN+0.620970563578771*PAKNEGDISTKBKN)-0.606734386430279*PAKNEIMPGNFSKN-0.866045585295928*PAKNYTAXNINDKN-2983275.63714814)/(1+2.46379868577176) $">
<polygon fill="#63b8ff" stroke="black" points="911.92,-924.5 762.33,-924.5 762.33,-888.5 911.92,-888.5 911.92,-924.5"/>
<text text-anchor="start" x="768.12" y="-901.45" font-family="Times New Roman,serif" font-size="14.00" fill="blue">PAKSMINDOTHRTKN:</text>
</a>
</g>
</g>
<!-- PAKSMAGRCRPSKN -->
<g id="node3" class="node">
<title>PAKSMAGRCRPSKN</title>
<g id="a_node3"><a xlink:title="PAKSMAGRCRPSKN
FRML &lt;IDENT&gt; PAKSMAGRCRPSKN = ((1+2.09928590574241)*(0.144287620838506*PAKNECONPRVTKN+0*PAKNECONGOVTKN+0*PAKNEGDIFTOTKN+0.0572678299039023*PAKNEEXPGNFSKN+0.267381669083985*PAKNEGDISTKBKN)-0.0736247088197363*PAKNEIMPGNFSKN-0.0407034395686347*PAKNYTAXNINDKN-906311)/(1+0.396041694659877) $">
<polygon fill="#63b8ff" stroke="black" points="908.55,-870.5 765.7,-870.5 765.7,-834.5 908.55,-834.5 908.55,-870.5"/>
<text text-anchor="start" x="771.5" y="-847.45" font-family="Times New Roman,serif" font-size="14.00" fill="blue">PAKSMAGRCRPSKN:</text>
</a>
</g>
</g>
<!-- PAKNYYWBTOTLCN -->
<g id="node4" class="node">
<title>PAKNYYWBTOTLCN</title>
<g id="a_node4"><a xlink:title="Total Wage Bill
FRML &lt;IDENT&gt; PAKNYYWBTOTLCN = PAKNYWRTTOTLCN*PAKLMEMPTOTLCN $">
<polygon fill="#63b8ff" stroke="black" points="298.85,-816.5 66.75,-816.5 66.75,-780.5 298.85,-780.5 298.85,-816.5"/>
<text text-anchor="start" x="72.55" y="-793.45" font-family="Times New Roman,serif" font-size="14.00" fill="blue">PAKNYYWBTOTLCN:Total Wage Bill</text>
</a>
</g>
</g>
<!-- PAKNECONPRVTKN -->
<g id="node11" class="node">
<title>PAKNECONPRVTKN</title>
<g id="a_node11"><a xlink:title="HH. Cons Real
FRML &lt;DAMP,STOC&gt; PAKNECONPRVTKN = (PAKNECONPRVTKN(-1)*EXP(PAKNECONPRVTKN_A+ (-0.2*(LOG(PAKNECONPRVTKN(-1))-LOG(1.21203101101442)-LOG((((PAKBXFSTREMTCD(-1)-PAKBMFSTREMTCD(-1))*PAKPANUSATLS(-1))+PAKGGEXPTRNSCN(-1)+PAKNYYWBTOTLCN(-1)*(1-PAKGGREVDRCTXN(-1)/100))/PAKNECONPRVTXN(-1)))+0.763938860758873*((LOG((((PAKBXFSTREMTCD-PAKBMFSTREMTCD)*PAKPANUSATLS)+PAKGGEXPTRNSCN+PAKNYYWBTOTLCN*(1-PAKGGREVDRCTXN/100))/PAKNECONPRVTXN))-(LOG((((PAKBXFSTREMTCD(-1)-PAKBMFSTREMTCD(-1))*PAKPANUSATLS(-1))+PAKGGEXPTRNSCN(-1)+PAKNYYWBTOTLCN(-1)*(1-PAKGGREVDRCTXN(-1)/100))/PAKNECONPRVTXN(-1))))-0.0634474791568939*DURING_2009-0.3*(PAKFMLBLPOLYXN/100-((LOG(PAKNECONPRVTXN))-(LOG(PAKNECONPRVTXN(-1)))))) )) * (1-PAKNECONPRVTKN_D)+ PAKNECONPRVTKN_X*PAKNECONPRVTKN_D  $">
<polygon fill="red" stroke="black" points="626.2,-519.5 401.6,-519.5 401.6,-483.5 626.2,-483.5 626.2,-519.5"/>
<text text-anchor="start" x="407.4" y="-496.45" font-family="Times New Roman,serif" font-size="14.00" fill="blue">PAKNECONPRVTKN:HH. Cons Real</text>
</a>
</g>
</g>
<!-- PAKNYYWBTOTLCN&#45;&gt;PAKNECONPRVTKN -->
<g id="edge20" class="edge">
<title>PAKNYYWBTOTLCN-&gt;PAKNECONPRVTKN</title>
<g id="a_edge20"><a xlink:href="bogus" xlink:title=" PAKNYYWBTOTLCN -&gt; PAKNECONPRVTKN Min. att. -1234%  max: 4331%">
<path fill="none" stroke="black" stroke-width="8" d="M298.98,-797.55C322.56,-793.08 346.11,-785.11 365.6,-771.5 448.49,-713.64 489.34,-593.7 505,-535.14"/>
<polygon fill="black" stroke="black" stroke-width="8" points="512.24,-537.13 507.91,-525.71 498.67,-533.68 512.24,-537.13"/>
</a>
</g>
</g>
<!-- PAKBMFSTREMTCD -->
<g id="node5" class="node">
<title>PAKBMFSTREMTCD</title>
<g id="a_node5"><a xlink:title="Imp., Remittances (BOP), US$ mn
FRML &lt;DAMP,STOC&gt; PAKBMFSTREMTCD = (PAKBMFSTREMTCD_A*PAKNYGDPMKTPCD+PAKNYGDPMKTPCD* (5.83179728399106E-05) ) * (1-PAKBMFSTREMTCD_D)+ PAKBMFSTREMTCD_X*PAKBMFSTREMTCD_D  $">
<polygon fill="#63b8ff" stroke="black" points="351.35,-762.5 14.25,-762.5 14.25,-726.5 351.35,-726.5 351.35,-762.5"/>
<text text-anchor="start" x="20.05" y="-739.45" font-family="Times New Roman,serif" font-size="14.00" fill="blue">PAKBMFSTREMTCD:Imp., Remittances (BOP), US$ mn</text>
</a>
</g>
</g>
<!-- PAKBMFSTREMTCD&#45;&gt;PAKNECONPRVTKN -->
<g id="edge29" class="edge">
<title>PAKBMFSTREMTCD-&gt;PAKNECONPRVTKN</title>
<g id="a_edge29"><a xlink:href="bogus" xlink:title=" PAKBMFSTREMTCD -&gt; PAKNECONPRVTKN Min. att. -1%  max: 0%">
<path fill="none" stroke="black" d="M349.54,-726.2C355.09,-723.61 360.46,-720.72 365.6,-717.5 437.67,-672.33 483.16,-577.54 502.36,-529.99"/>
<polygon fill="black" stroke="black" points="505.98,-531.37 506.37,-520.78 499.46,-528.81 505.98,-531.37"/>
</a>
</g>
</g>
<!-- PAKNECONPRVTCN -->
<g id="node6" class="node">
<title>PAKNECONPRVTCN</title>
<g id="a_node6"><a xlink:title="Pvt. Cons., LCU mn
FRML &lt;IDENT&gt; PAKNECONPRVTCN = PAKNECONPRVTKN*PAKNECONPRVTXN $">
<polygon fill="#63b8ff" stroke="black" points="964.05,-816.5 710.2,-816.5 710.2,-780.5 964.05,-780.5 964.05,-816.5"/>
<text text-anchor="start" x="716" y="-793.45" font-family="Times New Roman,serif" font-size="14.00" fill="blue">PAKNECONPRVTCN:Pvt. Cons., LCU mn</text>
</a>
</g>
</g>
<!-- PAKNECONPRVTXN -->
<g id="node7" class="node">
<title>PAKNECONPRVTXN</title>
<g id="a_node7"><a xlink:title="Implicit LCU defl., Pvt. Cons., 2000 = 1
FRML &lt;IDENT&gt; PAKNECONPRVTXN = ((PAKNECONENGYSH**PAKCESENGYCON)*PAKNECONENGYXN**(1-PAKCESENGYCON)+(PAKNECONOTHRSH**PAKCESENGYCON)*PAKNECONOTHRXN**(1-PAKCESENGYCON))**(1/(1-PAKCESENGYCON)) $">
<polygon fill="#63b8ff" stroke="black" points="365.6,-708.5 0,-708.5 0,-672.5 365.6,-672.5 365.6,-708.5"/>
<text text-anchor="start" x="5.8" y="-685.45" font-family="Times New Roman,serif" font-size="14.00" fill="blue">PAKNECONPRVTXN:Implicit LCU defl., Pvt. Cons., 2000 = 1</text>
</a>
</g>
</g>
<!-- PAKNECONPRVTXN&#45;&gt;PAKNECONPRVTKN -->
<g id="edge7" class="edge">
<title>PAKNECONPRVTXN-&gt;PAKNECONPRVTKN</title>
<g id="a_edge7"><a xlink:href="bogus" xlink:title=" PAKNECONPRVTXN -&gt; PAKNECONPRVTKN Min. att. -5340%  max: 1547%">
<path fill="none" stroke="black" stroke-width="8" d="M346.73,-672.17C353.23,-669.61 359.55,-666.73 365.6,-663.5 422.87,-632.94 469.28,-571.07 493.83,-533.26"/>
<polygon fill="black" stroke="black" stroke-width="8" points="499.88,-537.02 499.29,-524.83 488.04,-529.56 499.88,-537.02"/>
</a>
</g>
</g>
<!-- PAKPANUSATLS -->
<g id="node8" class="node">
<title>PAKPANUSATLS</title>
<g id="a_node8"><a xlink:title="Exchange rate LCU / US$ - Pakistan
FRML &lt;DAMP,STOC&gt; PAKPANUSATLS = (PAKPANUSATLS(-1)*EXP(PAKPANUSATLS_A+ ((0.295032006650061*((USAINTRXN/100-(( (100 * ( (USANECONPRVTXN) / (USANECONPRVTXN(-1)) -1)) /100+ (100 * ( (USANECONPRVTXN(-1)) / (USANECONPRVTXN(-2)) -1)) /100+ (100 * ( (USANECONPRVTXN(-2)) / (USANECONPRVTXN(-3)) -1)) /100+ (100 * ( (USANECONPRVTXN(-3)) / (USANECONPRVTXN(-4)) -1)) /100)/4.0))-(PAKMPPOLNATRXN/100-PAKINFLEXPT/100))+0.0745339074046556*( (100 * ( (USANECONPRVTXN) / (USANECONPRVTXN(-1)) -1)) /100- (100 * ( (PAKNECONPRVTXN) / (PAKNECONPRVTXN(-1)) -1)) /100))+0.204055946624338*DURING_2009+0.0213) )) * (1-PAKPANUSATLS_D)+ PAKPANUSATLS_X*PAKPANUSATLS_D  $">
<polygon fill="#63b8ff" stroke="black" points="341.97,-654.5 23.62,-654.5 23.62,-618.5 341.97,-618.5 341.97,-654.5"/>
<text text-anchor="start" x="29.42" y="-631.45" font-family="Times New Roman,serif" font-size="14.00" fill="blue">PAKPANUSATLS:Exchange rate LCU / US$ - Pakistan</text>
</a>
</g>
</g>
<!-- PAKPANUSATLS&#45;&gt;PAKNECONPRVTKN -->
<g id="edge22" class="edge">
<title>PAKPANUSATLS-&gt;PAKNECONPRVTKN</title>
<g id="a_edge22"><a xlink:href="bogus" xlink:title=" PAKPANUSATLS -&gt; PAKNECONPRVTKN Min. att. -39%  max: 11%">
<path fill="none" stroke="black" stroke-width="3.93" d="M341.3,-618.06C349.63,-615.55 357.78,-612.72 365.6,-609.5 411.02,-590.83 455.4,-555.22 483.37,-530"/>
<polygon fill="black" stroke="black" stroke-width="3.93" points="485.33,-533.26 490.31,-523.91 480.58,-528.12 485.33,-533.26"/>
</a>
</g>
</g>
<!-- PAKSMENGTOTLKN -->
<g id="node9" class="node">
<title>PAKSMENGTOTLKN</title>
<g id="a_node9"><a xlink:title="PAKSMENGTOTLKN
FRML &lt;IDENT&gt; PAKSMENGTOTLKN = ((1+1.65868473220397)*(0.0775261497897936*PAKNECONPRVTKN+0*PAKNECONGOVTKN+0*PAKNEGDIFTOTKN+0.0217448978257548*PAKNEEXPGNFSKN+0.0458991644104248*PAKNEGDISTKBKN)-0.11894699850705*PAKNEIMPGNFSKN--0.50579180838529*PAKNYTAXNINDKN-0)/(1+5.65663938581514) $">
<polygon fill="#63b8ff" stroke="black" points="908.92,-762.5 765.33,-762.5 765.33,-726.5 908.92,-726.5 908.92,-762.5"/>
<text text-anchor="start" x="771.12" y="-739.45" font-family="Times New Roman,serif" font-size="14.00" fill="blue">PAKSMENGTOTLKN:</text>
</a>
</g>
</g>
<!-- PAKBXFSTREMTCD -->
<g id="node10" class="node">
<title>PAKBXFSTREMTCD</title>
<g id="a_node10"><a xlink:title="Exp., Remittances (BOP), US$ mn
FRML &lt;DAMP,STOC&gt; PAKBXFSTREMTCD = (PAKBXFSTREMTCD_A*PAKNYGDPMKTPCD+PAKNYGDPMKTPCD* (0.053028373687723) ) * (1-PAKBXFSTREMTCD_D)+ PAKBXFSTREMTCD_X*PAKBXFSTREMTCD_D  $">
<polygon fill="#63b8ff" stroke="black" points="349.47,-600.5 16.12,-600.5 16.12,-564.5 349.47,-564.5 349.47,-600.5"/>
<text text-anchor="start" x="21.92" y="-577.45" font-family="Times New Roman,serif" font-size="14.00" fill="blue">PAKBXFSTREMTCD:Exp., Remittances (BOP), US$ mn</text>
</a>
</g>
</g>
<!-- PAKBXFSTREMTCD&#45;&gt;PAKNECONPRVTKN -->
<g id="edge15" class="edge">
<title>PAKBXFSTREMTCD-&gt;PAKNECONPRVTKN</title>
<g id="a_edge15"><a xlink:href="bogus" xlink:title=" PAKBXFSTREMTCD -&gt; PAKNECONPRVTKN Min. att. -145%  max: 507%">
<path fill="none" stroke="black" stroke-width="8" d="M327.26,-564C340.29,-561.48 353.23,-558.65 365.6,-555.5 395.75,-547.82 428.32,-536.24 455.14,-525.78"/>
<polygon fill="black" stroke="black" stroke-width="8" points="457.1,-532.15 463.81,-521.94 451.93,-519.14 457.1,-532.15"/>
</a>
</g>
</g>
<!-- PAKNECONPRVTKN&#45;&gt;PAKNECONPRVTKN_FITTED -->
<g id="edge18" class="edge">
<title>PAKNECONPRVTKN-&gt;PAKNECONPRVTKN_FITTED</title>
<g id="a_edge18"><a xlink:href="bogus" xlink:title=" PAKNECONPRVTKN -&gt; PAKNECONPRVTKN_FITTED Min. att. -286%  max: 192%">
<path fill="none" stroke="black" stroke-width="8" d="M514.93,-519.89C516.06,-585.36 529.1,-809.28 662.09,-931.65"/>
<polygon fill="black" stroke="black" stroke-width="8" points="656.89,-936.78 669.03,-938.09 666.11,-926.24 656.89,-936.78"/>
</a>
</g>
</g>
<!-- PAKNECONPRVTKN&#45;&gt;PAKSMINDOTHRTKN -->
<g id="edge1" class="edge">
<title>PAKNECONPRVTKN-&gt;PAKSMINDOTHRTKN</title>
<g id="a_edge1"><a xlink:href="bogus" xlink:title=" PAKNECONPRVTKN -&gt; PAKSMINDOTHRTKN Min. att. -16465%  max: 1194%">
<path fill="none" stroke="black" stroke-width="8" d="M515.91,-519.75C520.38,-581.57 543.86,-784.46 662.2,-879.5 685.73,-898.39 716.98,-906.73 746.51,-909.84"/>
<polygon fill="black" stroke="black" stroke-width="8" points="745.7,-917.26 756.2,-911.04 746.76,-903.3 745.7,-917.26"/>
</a>
</g>
</g>
<!-- PAKNECONPRVTKN&#45;&gt;PAKSMAGRCRPSKN -->
<g id="edge5" class="edge">
<title>PAKNECONPRVTKN-&gt;PAKSMAGRCRPSKN</title>
<g id="a_edge5"><a xlink:href="bogus" xlink:title=" PAKNECONPRVTKN -&gt; PAKSMAGRCRPSKN Min. att. -79%  max: 205%">
<path fill="none" stroke="black" stroke-width="8" d="M517.21,-519.91C525.31,-576.09 557.84,-746.32 662.2,-825.5 686.97,-844.3 719.53,-852.41 749.77,-855.37"/>
<polygon fill="black" stroke="black" stroke-width="8" points="748.85,-862.75 759.32,-856.48 749.85,-848.79 748.85,-862.75"/>
</a>
</g>
</g>
<!-- PAKNECONPRVTKN&#45;&gt;PAKNECONPRVTCN -->
<g id="edge8" class="edge">
<title>PAKNECONPRVTKN-&gt;PAKNECONPRVTCN</title>
<g id="a_edge8"><a xlink:href="bogus" xlink:title=" PAKNECONPRVTKN -&gt; PAKNECONPRVTCN Min. att. -167%  max: 26%">
<path fill="none" stroke="black" stroke-width="8" d="M518.91,-519.68C530.89,-569.31 571.34,-707.63 662.2,-771.5 672.22,-778.54 683.36,-784.04 695.04,-788.31"/>
<polygon fill="black" stroke="black" stroke-width="8" points="692.41,-794.72 704.06,-791.08 696.65,-781.38 692.41,-794.72"/>
</a>
</g>
</g>
<!-- PAKNECONPRVTKN&#45;&gt;PAKSMENGTOTLKN -->
<g id="edge25" class="edge">
<title>PAKNECONPRVTKN-&gt;PAKSMENGTOTLKN</title>
<g id="a_edge25"><a xlink:href="bogus" xlink:title=" PAKNECONPRVTKN -&gt; PAKSMENGTOTLKN Min. att. -431%  max: 212%">
<path fill="none" stroke="black" stroke-width="8" d="M521.45,-519.74C537.78,-562.36 584.67,-668.55 662.2,-717.5 687.93,-733.75 719.97,-741.44 749.51,-744.77"/>
<polygon fill="black" stroke="black" stroke-width="8" points="748.56,-752.25 759.14,-746.17 749.81,-738.31 748.56,-752.25"/>
</a>
</g>
</g>
<!-- PAKSMSRVFINSKN -->
<g id="node12" class="node">
<title>PAKSMSRVFINSKN</title>
<g id="a_node12"><a xlink:title="PAKSMSRVFINSKN
FRML &lt;IDENT&gt; PAKSMSRVFINSKN = ((1+1.04148314760779)*(0.0520379651885469*PAKNECONPRVTKN+0*PAKNECONGOVTKN+0*PAKNEGDIFTOTKN+0.00879145012359898*PAKNEEXPGNFSKN+0*PAKNEGDISTKBKN)-0.00594416979264236*PAKNEIMPGNFSKN-0.000103762679145856*PAKNYTAXNINDKN-0)/(1+0.24687745523084) $">
<polygon fill="#63b8ff" stroke="black" points="905.17,-708.5 769.08,-708.5 769.08,-672.5 905.17,-672.5 905.17,-708.5"/>
<text text-anchor="start" x="774.88" y="-685.45" font-family="Times New Roman,serif" font-size="14.00" fill="blue">PAKSMSRVFINSKN:</text>
</a>
</g>
</g>
<!-- PAKNECONPRVTKN&#45;&gt;PAKSMSRVFINSKN -->
<g id="edge23" class="edge">
<title>PAKNECONPRVTKN-&gt;PAKSMSRVFINSKN</title>
<g id="a_edge23"><a xlink:href="bogus" xlink:title=" PAKNECONPRVTKN -&gt; PAKSMSRVFINSKN Min. att. 81%  max: 4758%">
<path fill="none" stroke="black" stroke-width="8" d="M525.53,-519.79C546.68,-554.32 597.59,-628.75 662.2,-663.5 689.69,-678.28 722.93,-685.57 752.96,-688.99"/>
<polygon fill="black" stroke="black" stroke-width="8" points="752.17,-696.51 762.78,-690.47 753.48,-682.57 752.17,-696.51"/>
</a>
</g>
</g>
<!-- PAKSMINDMNGSKN -->
<g id="node14" class="node">
<title>PAKSMINDMNGSKN</title>
<g id="a_node14"><a xlink:title="PAKSMINDMNGSKN
FRML &lt;IDENT&gt; PAKSMINDMNGSKN = ((1+6.96158341862144)*(0.0132800565666619*PAKNECONPRVTKN+0*PAKNECONGOVTKN+0*PAKNEGDIFTOTKN+0.00704674623894759*PAKNEEXPGNFSKN+0.024122890632682*PAKNEGDISTKBKN)-0.134221966110302*PAKNEIMPGNFSKN-0.500981557895139*PAKNYTAXNINDKN-123652.869264758)/(1+0.200800622280983) $">
<polygon fill="#63b8ff" stroke="black" points="909.67,-654.5 764.58,-654.5 764.58,-618.5 909.67,-618.5 909.67,-654.5"/>
<text text-anchor="start" x="770.38" y="-631.45" font-family="Times New Roman,serif" font-size="14.00" fill="blue">PAKSMINDMNGSKN:</text>
</a>
</g>
</g>
<!-- PAKNECONPRVTKN&#45;&gt;PAKSMINDMNGSKN -->
<g id="edge2" class="edge">
<title>PAKNECONPRVTKN-&gt;PAKSMINDMNGSKN</title>
<g id="a_edge2"><a xlink:href="bogus" xlink:title=" PAKNECONPRVTKN -&gt; PAKSMINDMNGSKN Min. att. -1579%  max: 26590%">
<path fill="none" stroke="black" stroke-width="8" d="M533.51,-519.86C559.79,-544.59 610.36,-587.99 662.2,-609.5 689.1,-620.66 720.09,-627.26 748.38,-631.14"/>
<polygon fill="black" stroke="black" stroke-width="8" points="747.45,-638.81 758.23,-633.07 749.15,-624.91 747.45,-638.81"/>
</a>
</g>
</g>
<!-- PAKNECONENGYKN -->
<g id="node16" class="node">
<title>PAKNECONENGYKN</title>
<g id="a_node16"><a xlink:title="PAKNECONENGYKN
FRML &lt;IDENT&gt; PAKNECONENGYKN = PAKNECONENGYSH**(PAKCESENGYCON)*(PAKNECONPRVTKN*(PAKNECONPRVTXN/PAKNECONENGYXN)**(PAKCESENGYCON)) $">
<polygon fill="#63b8ff" stroke="black" points="909.67,-600.5 764.58,-600.5 764.58,-564.5 909.67,-564.5 909.67,-600.5"/>
<text text-anchor="start" x="770.38" y="-577.45" font-family="Times New Roman,serif" font-size="14.00" fill="blue">PAKNECONENGYKN:</text>
</a>
</g>
</g>
<!-- PAKNECONPRVTKN&#45;&gt;PAKNECONENGYKN -->
<g id="edge6" class="edge">
<title>PAKNECONPRVTKN-&gt;PAKNECONENGYKN</title>
<g id="a_edge6"><a xlink:href="bogus" xlink:title=" PAKNECONPRVTKN -&gt; PAKNECONENGYKN Min. att. -395%  max: 3441%">
<path fill="none" stroke="black" stroke-width="8" d="M558.33,-520C587.29,-531.69 626.47,-546.27 662.2,-555.5 690.03,-562.69 720.89,-568.24 748.8,-572.38"/>
<polygon fill="black" stroke="black" stroke-width="8" points="747.51,-580.12 758.4,-574.6 749.48,-566.26 747.51,-580.12"/>
</a>
</g>
</g>
<!-- PAKSMSRVHSNGKN -->
<g id="node18" class="node">
<title>PAKSMSRVHSNGKN</title>
<g id="a_node18"><a xlink:title="PAKSMSRVHSNGKN
FRML &lt;IDENT&gt; PAKSMSRVHSNGKN = ((1+0.782809577554843)*(0.0647364660896117*PAKNECONPRVTKN+0*PAKNECONGOVTKN+0.00605333595533851*PAKNEGDIFTOTKN+0.03048358523237*PAKNEEXPGNFSKN+0*PAKNEGDISTKBKN)-0.0244768173208691*PAKNEIMPGNFSKN-0.0684093628903126*PAKNYTAXNINDKN-0)/(1+0.150771193398883) $">
<polygon fill="#63b8ff" stroke="black" points="908.92,-546.5 765.33,-546.5 765.33,-510.5 908.92,-510.5 908.92,-546.5"/>
<text text-anchor="start" x="771.12" y="-523.45" font-family="Times New Roman,serif" font-size="14.00" fill="blue">PAKSMSRVHSNGKN:</text>
</a>
</g>
</g>
<!-- PAKNECONPRVTKN&#45;&gt;PAKSMSRVHSNGKN -->
<g id="edge11" class="edge">
<title>PAKNECONPRVTKN-&gt;PAKSMSRVHSNGKN</title>
<g id="a_edge11"><a xlink:href="bogus" xlink:title=" PAKNECONPRVTKN -&gt; PAKSMSRVHSNGKN Min. att. -14621%  max: 195%">
<path fill="none" stroke="black" stroke-width="8" d="M626.35,-510.87C666.62,-514.25 711.46,-518.02 749.31,-521.2"/>
<polygon fill="black" stroke="black" stroke-width="8" points="748.52,-528.67 759.07,-522.53 749.69,-514.71 748.52,-528.67"/>
</a>
</g>
</g>
<!-- PAKNEGDETTOTKN -->
<g id="node19" class="node">
<title>PAKNEGDETTOTKN</title>
<g id="a_node19"><a xlink:title="Total demand, constant LCU
FRML &lt;IDENT&gt; PAKNEGDETTOTKN = (PAKNECONPRVTKN+PAKNECONGOVTKN+PAKNEGDIFTOTKN+PAKNEGDISTKBKN+PAKNYGDPDISCKN) $">
<polygon fill="#63b8ff" stroke="black" points="986.92,-492.5 687.33,-492.5 687.33,-456.5 986.92,-456.5 986.92,-492.5"/>
<text text-anchor="start" x="693.12" y="-469.45" font-family="Times New Roman,serif" font-size="14.00" fill="blue">PAKNEGDETTOTKN:Total demand, constant LCU</text>
</a>
</g>
</g>
<!-- PAKNECONPRVTKN&#45;&gt;PAKNEGDETTOTKN -->
<g id="edge24" class="edge">
<title>PAKNECONPRVTKN-&gt;PAKNEGDETTOTKN</title>
<g id="a_edge24"><a xlink:href="bogus" xlink:title=" PAKNECONPRVTKN -&gt; PAKNEGDETTOTKN Min. att. -2755%  max: 974%">
<path fill="none" stroke="black" stroke-width="8" d="M626.35,-492.13C640.87,-490.91 655.99,-489.64 671.16,-488.37"/>
<polygon fill="black" stroke="black" stroke-width="8" points="671.59,-494.85 680.97,-487.04 670.41,-480.9 671.59,-494.85"/>
</a>
</g>
</g>
<!-- PAKSMSRVTRNSKN -->
<g id="node20" class="node">
<title>PAKSMSRVTRNSKN</title>
<g id="a_node20"><a xlink:title="PAKSMSRVTRNSKN
FRML &lt;IDENT&gt; PAKSMSRVTRNSKN = ((1+0.301074862860981)*(0.204687752761289*PAKNECONPRVTKN+0*PAKNECONGOVTKN+0*PAKNEGDIFTOTKN+0.0551862611209703*PAKNEEXPGNFSKN+0*PAKNEGDISTKBKN)--0.0392641863572605*PAKNEIMPGNFSKN-0.0174996684619017*PAKNYTAXNINDKN-0)/(1+1.11680986862739) $">
<polygon fill="#63b8ff" stroke="black" points="907.8,-438.5 766.45,-438.5 766.45,-402.5 907.8,-402.5 907.8,-438.5"/>
<text text-anchor="start" x="772.25" y="-415.45" font-family="Times New Roman,serif" font-size="14.00" fill="blue">PAKSMSRVTRNSKN:</text>
</a>
</g>
</g>
<!-- PAKNECONPRVTKN&#45;&gt;PAKSMSRVTRNSKN -->
<g id="edge14" class="edge">
<title>PAKNECONPRVTKN-&gt;PAKSMSRVTRNSKN</title>
<g id="a_edge14"><a xlink:href="bogus" xlink:title=" PAKNECONPRVTKN -&gt; PAKSMSRVTRNSKN Min. att. -133%  max: 134%">
<path fill="none" stroke="black" stroke-width="8" d="M558.33,-483C587.29,-471.31 626.47,-456.73 662.2,-447.5 690.53,-440.19 721.99,-434.57 750.29,-430.4"/>
<polygon fill="black" stroke="black" stroke-width="8" points="751.16,-436.5 760.08,-428.17 749.2,-422.63 751.16,-436.5"/>
</a>
</g>
</g>
<!-- PAKNECONOTHRKN -->
<g id="node21" class="node">
<title>PAKNECONOTHRKN</title>
<g id="a_node21"><a xlink:title="PAKNECONOTHRKN
FRML &lt;IDENT&gt; PAKNECONOTHRKN = PAKNECONOTHRSH**(PAKCESENGYCON)*(PAKNECONPRVTKN*(PAKNECONPRVTXN/PAKNECONOTHRXN)**(PAKCESENGYCON)) $">
<polygon fill="#63b8ff" stroke="black" points="909.3,-384.5 764.95,-384.5 764.95,-348.5 909.3,-348.5 909.3,-384.5"/>
<text text-anchor="start" x="770.75" y="-361.45" font-family="Times New Roman,serif" font-size="14.00" fill="blue">PAKNECONOTHRKN:</text>
</a>
</g>
</g>
<!-- PAKNECONPRVTKN&#45;&gt;PAKNECONOTHRKN -->
<g id="edge12" class="edge">
<title>PAKNECONPRVTKN-&gt;PAKNECONOTHRKN</title>
<g id="a_edge12"><a xlink:href="bogus" xlink:title=" PAKNECONPRVTKN -&gt; PAKNECONOTHRKN Min. att. -899%  max: 1069%">
<path fill="none" stroke="black" stroke-width="8" d="M533.51,-483.14C559.79,-458.41 610.36,-415.01 662.2,-393.5 689.35,-382.23 720.65,-375.62 749.15,-371.76"/>
<polygon fill="black" stroke="black" stroke-width="8" points="749.56,-378.03 758.65,-369.88 747.88,-364.13 749.56,-378.03"/>
</a>
</g>
</g>
<!-- PAKSMINDCNSTKN -->
<g id="node22" class="node">
<title>PAKSMINDCNSTKN</title>
<g id="a_node22"><a xlink:title="PAKSMINDCNSTKN
FRML &lt;IDENT&gt; PAKSMINDCNSTKN = ((1+0.0370651228196874)*(0*PAKNECONPRVTKN+0*PAKNECONGOVTKN+0.433487212699245*PAKNEGDIFTOTKN+0.00170061231445462*PAKNEEXPGNFSKN+0.0166541213494276*PAKNEGDISTKBKN)-0.00444968266528859*PAKNEIMPGNFSKN-0*PAKNYTAXNINDKN-55116.3653855153)/(1+1.91367284458402) $">
<polygon fill="#63b8ff" stroke="black" points="907.05,-330.5 767.2,-330.5 767.2,-294.5 907.05,-294.5 907.05,-330.5"/>
<text text-anchor="start" x="773" y="-307.45" font-family="Times New Roman,serif" font-size="14.00" fill="blue">PAKSMINDCNSTKN:</text>
</a>
</g>
</g>
<!-- PAKNECONPRVTKN&#45;&gt;PAKSMINDCNSTKN -->
<g id="edge26" class="edge">
<title>PAKNECONPRVTKN-&gt;PAKSMINDCNSTKN</title>
<g id="a_edge26"><a xlink:href="bogus" xlink:title=" PAKNECONPRVTKN -&gt; PAKSMINDCNSTKN Min. att. 0%  max: 0%">
<path fill="none" stroke="black" d="M525.53,-483.21C546.68,-448.68 597.59,-374.25 662.2,-339.5 690.73,-324.16 725.45,-316.89 756.35,-313.64"/>
<polygon fill="black" stroke="black" points="756.46,-317.06 766.1,-312.66 755.82,-310.09 756.46,-317.06"/>
</a>
</g>
</g>
<!-- PAKSMAGRFSNGKN -->
<g id="node24" class="node">
<title>PAKSMAGRFSNGKN</title>
<g id="a_node24"><a xlink:title="PAKSMAGRFSNGKN
FRML &lt;IDENT&gt; PAKSMAGRFSNGKN = ((1+1.92407325889309)*(0.00246195499563977*PAKNECONPRVTKN+0*PAKNECONGOVTKN+0*PAKNEGDIFTOTKN+0.00130433854799597*PAKNEEXPGNFSKN+0.00497657560072267*PAKNEGDISTKBKN)-1.14989260682794E-05*PAKNEIMPGNFSKN-2.46467171367829E-07*PAKNYTAXNINDKN-26993)/(1+0.506095544048804) $">
<polygon fill="#63b8ff" stroke="black" points="909.3,-276.5 764.95,-276.5 764.95,-240.5 909.3,-240.5 909.3,-276.5"/>
<text text-anchor="start" x="770.75" y="-253.45" font-family="Times New Roman,serif" font-size="14.00" fill="blue">PAKSMAGRFSNGKN:</text>
</a>
</g>
</g>
<!-- PAKNECONPRVTKN&#45;&gt;PAKSMAGRFSNGKN -->
<g id="edge17" class="edge">
<title>PAKNECONPRVTKN-&gt;PAKSMAGRFSNGKN</title>
<g id="a_edge17"><a xlink:href="bogus" xlink:title=" PAKNECONPRVTKN -&gt; PAKSMAGRFSNGKN Min. att. -45%  max: 253%">
<path fill="none" stroke="black" stroke-width="8" d="M521.45,-483.26C537.78,-440.64 584.67,-334.45 662.2,-285.5 687.83,-269.32 719.7,-261.63 749.13,-258.27"/>
<polygon fill="black" stroke="black" stroke-width="8" points="749.39,-264.73 758.72,-256.86 748.13,-250.79 749.39,-264.73"/>
</a>
</g>
</g>
<!-- PAKSMSRVGOVSKN -->
<g id="node27" class="node">
<title>PAKSMSRVGOVSKN</title>
<g id="a_node27"><a xlink:title="PAKSMSRVGOVSKN
FRML &lt;IDENT&gt; PAKSMSRVGOVSKN = ((1+0)*(0*PAKNECONPRVTKN+0.789129947325563*PAKNECONGOVTKN+0*PAKNEGDIFTOTKN+0*PAKNEEXPGNFSKN+0*PAKNEGDISTKBKN)-0*PAKNEIMPGNFSKN-0*PAKNYTAXNINDKN-0)/(1+0.947258014252215) $">
<polygon fill="#63b8ff" stroke="black" points="908.92,-222.5 765.33,-222.5 765.33,-186.5 908.92,-186.5 908.92,-222.5"/>
<text text-anchor="start" x="771.12" y="-199.45" font-family="Times New Roman,serif" font-size="14.00" fill="blue">PAKSMSRVGOVSKN:</text>
</a>
</g>
</g>
<!-- PAKNECONPRVTKN&#45;&gt;PAKSMSRVGOVSKN -->
<g id="edge13" class="edge">
<title>PAKNECONPRVTKN-&gt;PAKSMSRVGOVSKN</title>
<g id="a_edge13"><a xlink:href="bogus" xlink:title=" PAKNECONPRVTKN -&gt; PAKSMSRVGOVSKN Min. att. 0%  max: 0%">
<path fill="none" stroke="black" d="M518.91,-483.32C530.89,-433.69 571.34,-295.37 662.2,-231.5 688.7,-212.87 723.07,-205.04 754.26,-202.26"/>
<polygon fill="black" stroke="black" points="754.41,-205.69 764.14,-201.48 753.91,-198.71 754.41,-205.69"/>
</a>
</g>
</g>
<!-- PAKSMAGRFSTYKN -->
<g id="node28" class="node">
<title>PAKSMAGRFSTYKN</title>
<g id="a_node28"><a xlink:title="PAKSMAGRFSTYKN
FRML &lt;IDENT&gt; PAKSMAGRFSTYKN = ((1+0.195965019358753)*(0.010131919293849*PAKNECONPRVTKN+0*PAKNECONGOVTKN+0*PAKNEGDIFTOTKN+0.000136733767007103*PAKNEEXPGNFSKN+0.0199955288980741*PAKNEGDISTKBKN)-0.00076829563200478*PAKNEIMPGNFSKN-0.00172030587371022*PAKNYTAXNINDKN-65421)/(1+0.319587584852584) $">
<polygon fill="#63b8ff" stroke="black" points="908.55,-168.5 765.7,-168.5 765.7,-132.5 908.55,-132.5 908.55,-168.5"/>
<text text-anchor="start" x="771.5" y="-145.45" font-family="Times New Roman,serif" font-size="14.00" fill="blue">PAKSMAGRFSTYKN:</text>
</a>
</g>
</g>
<!-- PAKNECONPRVTKN&#45;&gt;PAKSMAGRFSTYKN -->
<g id="edge9" class="edge">
<title>PAKNECONPRVTKN-&gt;PAKSMAGRFSTYKN</title>
<g id="a_edge9"><a xlink:href="bogus" xlink:title=" PAKNECONPRVTKN -&gt; PAKSMAGRFSTYKN Min. att. 100%  max: 105%">
<path fill="none" stroke="black" stroke-width="8" d="M517.21,-483.09C525.31,-426.91 557.84,-256.68 662.2,-177.5 686.97,-158.7 719.53,-150.59 749.77,-147.63"/>
<polygon fill="black" stroke="black" stroke-width="8" points="749.85,-154.21 759.32,-146.52 748.85,-140.25 749.85,-154.21"/>
</a>
</g>
</g>
<!-- PAKNYGDPMKTPKN -->
<g id="node29" class="node">
<title>PAKNYGDPMKTPKN</title>
<g id="a_node29"><a xlink:title="Real GDP
FRML &lt;IDENT&gt; PAKNYGDPMKTPKN = PAKNECONPRVTKN+PAKNECONGOVTKN+PAKNEGDIFTOTKN+PAKNEGDISTKBKN+PAKNEEXPGNFSKN-PAKNEIMPGNFSKN+PAKNYGDPDISCKN+PAKADAP*PAKDISPREPKN $">
<polygon fill="#63b8ff" stroke="black" points="937.8,-114.5 736.45,-114.5 736.45,-78.5 937.8,-78.5 937.8,-114.5"/>
<text text-anchor="start" x="742.25" y="-91.45" font-family="Times New Roman,serif" font-size="14.00" fill="blue">PAKNYGDPMKTPKN:Real GDP</text>
</a>
</g>
</g>
<!-- PAKNECONPRVTKN&#45;&gt;PAKNYGDPMKTPKN -->
<g id="edge16" class="edge">
<title>PAKNECONPRVTKN-&gt;PAKNYGDPMKTPKN</title>
<g id="a_edge16"><a xlink:href="bogus" xlink:title=" PAKNECONPRVTKN -&gt; PAKNYGDPMKTPKN Min. att. -5071%  max: 11663%">
<path fill="none" stroke="black" stroke-width="8" d="M515.91,-483.25C520.38,-421.43 543.86,-218.54 662.2,-123.5 678.98,-110.03 699.68,-101.92 720.88,-97.25"/>
<polygon fill="black" stroke="black" stroke-width="8" points="721.78,-104.11 730.36,-95.43 719.27,-90.34 721.78,-104.11"/>
</a>
</g>
</g>
<!-- PAKSMSRVWHSLKN -->
<g id="node30" class="node">
<title>PAKSMSRVWHSLKN</title>
<g id="a_node30"><a xlink:title="PAKSMSRVWHSLKN
FRML &lt;IDENT&gt; PAKSMSRVWHSLKN = ((1+1.17766663382018E-08)*(0*PAKNECONPRVTKN+0*PAKNECONGOVTKN+0*PAKNEGDIFTOTKN+0*PAKNEEXPGNFSKN+0*PAKNEGDISTKBKN)-0*PAKNEIMPGNFSKN-0*PAKNYTAXNINDKN--4160770)/(1+0.265916086910196) $">
<polygon fill="#63b8ff" stroke="black" points="910.05,-60.5 764.2,-60.5 764.2,-24.5 910.05,-24.5 910.05,-60.5"/>
<text text-anchor="start" x="770" y="-37.45" font-family="Times New Roman,serif" font-size="14.00" fill="blue">PAKSMSRVWHSLKN:</text>
</a>
</g>
</g>
<!-- PAKNECONPRVTKN&#45;&gt;PAKSMSRVWHSLKN -->
<g id="edge30" class="edge">
<title>PAKNECONPRVTKN-&gt;PAKSMSRVWHSLKN</title>
<g id="a_edge30"><a xlink:href="bogus" xlink:title=" PAKNECONPRVTKN -&gt; PAKSMSRVWHSLKN Min. att. 0%  max: 0%">
<path fill="none" stroke="black" d="M514.93,-483.11C516.1,-415.73 529.87,-180.53 662.2,-69.5 687.23,-48.5 721.69,-40.33 753.33,-37.94"/>
<polygon fill="black" stroke="black" points="753.15,-41.4 762.94,-37.34 752.76,-34.41 753.15,-41.4"/>
</a>
</g>
</g>
<!-- PAKNECONPRVTKN_X -->
<g id="node13" class="node">
<title>PAKNECONPRVTKN_X</title>
<g id="a_node13"><a xlink:title="Fix value:HH. Cons Real
Exogen">
<polygon fill="yellow" stroke="black" points="330.72,-546.5 34.87,-546.5 34.87,-510.5 330.72,-510.5 330.72,-546.5"/>
<text text-anchor="start" x="40.67" y="-523.45" font-family="Times New Roman,serif" font-size="14.00" fill="blue">PAKNECONPRVTKN_X:Fix value:HH. Cons Real</text>
</a>
</g>
</g>
<!-- PAKNECONPRVTKN_X&#45;&gt;PAKNECONPRVTKN -->
<g id="edge21" class="edge">
<title>PAKNECONPRVTKN_X-&gt;PAKNECONPRVTKN</title>
<g id="a_edge21"><a xlink:href="bogus" xlink:title=" PAKNECONPRVTKN_X -&gt; PAKNECONPRVTKN Min. att. -0%  max: 0%">
<path fill="none" stroke="black" d="M331.02,-516.42C350.95,-514.79 371.22,-513.12 390.65,-511.53"/>
<polygon fill="black" stroke="black" points="390.67,-514.96 400.35,-510.65 390.09,-507.98 390.67,-514.96"/>
</a>
</g>
</g>
<!-- PAKGGEXPTRNSCN -->
<g id="node15" class="node">
<title>PAKGGEXPTRNSCN</title>
<g id="a_node15"><a xlink:title="Current Transfers
FRML &lt;DAMP,STOC&gt; PAKGGEXPTRNSCN = (0.91020884318931*PAKGGEXPTRNSCN(-1)+(1-0.91020884318931)*(0.06*(PAKGGREVTOTLCN-PAKGGEXPINTPCN(-0))) + PAKGGEXPTRNSCN_A)* (1-PAKGGEXPTRNSCN_D)+ PAKGGEXPTRNSCN_X*PAKGGEXPTRNSCN_D  $">
<polygon fill="#63b8ff" stroke="black" points="300.35,-492.5 65.25,-492.5 65.25,-456.5 300.35,-456.5 300.35,-492.5"/>
<text text-anchor="start" x="71.05" y="-469.45" font-family="Times New Roman,serif" font-size="14.00" fill="blue">PAKGGEXPTRNSCN:Current Transfers</text>
</a>
</g>
</g>
<!-- PAKGGEXPTRNSCN&#45;&gt;PAKNECONPRVTKN -->
<g id="edge4" class="edge">
<title>PAKGGEXPTRNSCN-&gt;PAKNECONPRVTKN</title>
<g id="a_edge4"><a xlink:href="bogus" xlink:title=" PAKGGEXPTRNSCN -&gt; PAKNECONPRVTKN Min. att. -32%  max: 107%">
<path fill="none" stroke="black" stroke-width="8" d="M300.75,-484.1C328.22,-486.35 357.62,-488.76 385.51,-491.05"/>
<polygon fill="black" stroke="black" stroke-width="8" points="384.75,-498.5 395.28,-492.34 385.89,-484.55 384.75,-498.5"/>
</a>
</g>
</g>
<!-- PAKFMLBLPOLYXN -->
<g id="node17" class="node">
<title>PAKFMLBLPOLYXN</title>
<g id="a_node17"><a xlink:title="Key Policy Interest Rate
FRML &lt;DAMP,STOC&gt; PAKFMLBLPOLYXN = (100*PAKFMLBLPOLYXN_A+100* (0.900155952396245*PAKFMLBLPOLYXN(-1)/100+(1-0.900155952396245)*(PAKMPPOLNATRXN/100+1.2*(((LOG(PAKNECONPRVTXN))-(LOG(PAKNECONPRVTXN(-1))))-PAKINFLEXPT/100)+0.5*PAKNYGDPGAP_/100)) ) * (1-PAKFMLBLPOLYXN_D)+ PAKFMLBLPOLYXN_X*PAKFMLBLPOLYXN_D  $">
<polygon fill="#63b8ff" stroke="black" points="320.22,-438.5 45.37,-438.5 45.37,-402.5 320.22,-402.5 320.22,-438.5"/>
<text text-anchor="start" x="51.17" y="-415.45" font-family="Times New Roman,serif" font-size="14.00" fill="blue">PAKFMLBLPOLYXN:Key Policy Interest Rate</text>
</a>
</g>
</g>
<!-- PAKFMLBLPOLYXN&#45;&gt;PAKNECONPRVTKN -->
<g id="edge28" class="edge">
<title>PAKFMLBLPOLYXN-&gt;PAKNECONPRVTKN</title>
<g id="a_edge28"><a xlink:href="bogus" xlink:title=" PAKFMLBLPOLYXN -&gt; PAKNECONPRVTKN Min. att. -200%  max: 685%">
<path fill="none" stroke="black" stroke-width="8" d="M320.41,-437.7C335.74,-440.55 351.07,-443.8 365.6,-447.5 395.75,-455.18 428.32,-466.76 455.14,-477.22"/>
<polygon fill="black" stroke="black" stroke-width="8" points="451.93,-483.86 463.81,-481.06 457.1,-470.85 451.93,-483.86"/>
</a>
</g>
</g>
<!-- DURING_2009 -->
<g id="node23" class="node">
<title>DURING_2009</title>
<g id="a_node23"><a xlink:title="DURING_2009
Exogen">
<polygon fill="yellow" stroke="black" points="233.6,-384.5 132,-384.5 132,-348.5 233.6,-348.5 233.6,-384.5"/>
<text text-anchor="start" x="137.8" y="-361.45" font-family="Times New Roman,serif" font-size="14.00" fill="blue">DURING_2009:</text>
</a>
</g>
</g>
<!-- DURING_2009&#45;&gt;PAKNECONPRVTKN -->
<g id="edge10" class="edge">
<title>DURING_2009-&gt;PAKNECONPRVTKN</title>
<g id="a_edge10"><a xlink:href="bogus" xlink:title=" DURING_2009 -&gt; PAKNECONPRVTKN Min. att. -0%  max: 0%">
<path fill="none" stroke="black" d="M233.73,-367.47C271.25,-369.71 323.25,-376.09 365.6,-393.5 412.64,-412.84 458.57,-450.35 486.3,-475.66"/>
<polygon fill="black" stroke="black" points="483.6,-477.85 493.31,-482.09 488.36,-472.72 483.6,-477.85"/>
</a>
</g>
</g>
<!-- PAKNECONPRVTKN_D -->
<g id="node25" class="node">
<title>PAKNECONPRVTKN_D</title>
<g id="a_node25"><a xlink:title="Fix dummy:HH. Cons Real
Exogen">
<polygon fill="yellow" stroke="black" points="337.47,-330.5 28.12,-330.5 28.12,-294.5 337.47,-294.5 337.47,-330.5"/>
<text text-anchor="start" x="33.92" y="-307.45" font-family="Times New Roman,serif" font-size="14.00" fill="blue">PAKNECONPRVTKN_D:Fix dummy:HH. Cons Real</text>
</a>
</g>
</g>
<!-- PAKNECONPRVTKN_D&#45;&gt;PAKNECONPRVTKN -->
<g id="edge3" class="edge">
<title>PAKNECONPRVTKN_D-&gt;PAKNECONPRVTKN</title>
<g id="a_edge3"><a xlink:href="bogus" xlink:title=" PAKNECONPRVTKN_D -&gt; PAKNECONPRVTKN Min. att. -0%  max: 0%">
<path fill="none" stroke="black" d="M337.56,-327.46C347.29,-330.79 356.73,-334.77 365.6,-339.5 425.02,-371.2 472.74,-436.62 496.5,-473.89"/>
<polygon fill="black" stroke="black" points="494.03,-475.54 502.29,-482.17 499.96,-471.83 494.03,-475.54"/>
</a>
</g>
</g>
<!-- PAKNECONPRVTKN_A -->
<g id="node26" class="node">
<title>PAKNECONPRVTKN_A</title>
<g id="a_node26"><a xlink:title="Add factor:HH. Cons Real
Exogen">
<polygon fill="yellow" stroke="black" points="334.47,-276.5 31.12,-276.5 31.12,-240.5 334.47,-240.5 334.47,-276.5"/>
<text text-anchor="start" x="36.92" y="-253.45" font-family="Times New Roman,serif" font-size="14.00" fill="blue">PAKNECONPRVTKN_A:Add factor:HH. Cons Real</text>
</a>
</g>
</g>
<!-- PAKNECONPRVTKN_A&#45;&gt;PAKNECONPRVTKN -->
<g id="edge27" class="edge">
<title>PAKNECONPRVTKN_A-&gt;PAKNECONPRVTKN</title>
<g id="a_edge27"><a xlink:href="bogus" xlink:title=" PAKNECONPRVTKN_A -&gt; PAKNECONPRVTKN Min. att. -0%  max: 0%">
<path fill="none" stroke="black" d="M334.72,-270.7C345.57,-274.62 356,-279.48 365.6,-285.5 437.67,-330.67 483.16,-425.46 502.36,-473.01"/>
<polygon fill="black" stroke="black" points="499.46,-474.19 506.37,-482.22 505.98,-471.63 499.46,-474.19"/>
</a>
</g>
</g>
<!-- PAKGGREVDRCTXN -->
<g id="node31" class="node">
<title>PAKGGREVDRCTXN</title>
<g id="a_node31"><a xlink:title="Direct Revenue Tax Rate
Exogen">
<polygon fill="yellow" stroke="black" points="322.85,-222.5 42.75,-222.5 42.75,-186.5 322.85,-186.5 322.85,-222.5"/>
<text text-anchor="start" x="48.55" y="-199.45" font-family="Times New Roman,serif" font-size="14.00" fill="blue">PAKGGREVDRCTXN:Direct Revenue Tax Rate</text>
</a>
</g>
</g>
<!-- PAKGGREVDRCTXN&#45;&gt;PAKNECONPRVTKN -->
<g id="edge19" class="edge">
<title>PAKGGREVDRCTXN-&gt;PAKNECONPRVTKN</title>
<g id="a_edge19"><a xlink:href="bogus" xlink:title=" PAKGGREVDRCTXN -&gt; PAKNECONPRVTKN Min. att. -0%  max: 0%">
<path fill="none" stroke="black" d="M323.02,-211.36C338.21,-216.04 352.78,-222.55 365.6,-231.5 450.98,-291.1 491.75,-416.56 506.34,-472.97"/>
<polygon fill="black" stroke="black" points="503.1,-473.43 508.91,-482.29 509.89,-471.74 503.1,-473.43"/>
</a>
</g>
</g>
</g>
</svg>