<svg xmlns="http://www.w3.org/2000/svg" xmlns:xlink="http://www.w3.org/1999/xlink" width="432pt" height="310pt" viewBox="0.00 0.00 432.00 309.91">
<g id="graph0" class="graph" transform="scale(0.402216 0.402216) rotate(0) translate(4 766.5)">
<title>TD</title>
<polygon fill="white" stroke="none" points="-4,4 -4,-766.5 1070.05,-766.5 1070.05,4 -4,4"/>
<text text-anchor="middle" x="533.03" y="-7.2" font-family="Times New Roman,serif" font-size="14.00">PAKNYGDPMKTPKN</text>
<!-- PAKNECONGOVTKN -->
<g id="node1" class="node">
<title>PAKNECONGOVTKN</title>
<g id="a_node1"><a xlink:title="Gov. Cons real
FRML &lt;IDENT&gt; PAKNECONGOVTKN = PAKNECONGOVTCN/PAKNECONGOVTXN $">
<polygon fill="#63b8ff" stroke="black" points="255.73,-627.5 28.88,-627.5 28.88,-591.5 255.73,-591.5 255.73,-627.5"/>
<text text-anchor="start" x="34.68" y="-604.45" font-family="Times New Roman,serif" font-size="14.00" fill="blue">PAKNECONGOVTKN:Gov. Cons real</text>
</a>
</g>
</g>
<!-- PAKNYGDPMKTPKN -->
<g id="node6" class="node">
<title>PAKNYGDPMKTPKN</title>
<g id="a_node6"><a xlink:title="Real GDP
FRML &lt;IDENT&gt; PAKNYGDPMKTPKN = PAKNECONPRVTKN+PAKNECONGOVTKN+PAKNEGDIFTOTKN+PAKNEGDISTKBKN+PAKNEEXPGNFSKN-PAKNEIMPGNFSKN+PAKNYGDPDISCKN+PAKADAP*PAKDISPREPKN $">
<polygon fill="red" stroke="black" points="521.95,-411.5 320.6,-411.5 320.6,-375.5 521.95,-375.5 521.95,-411.5"/>
<text text-anchor="start" x="326.4" y="-388.45" font-family="Times New Roman,serif" font-size="14.00" fill="blue">PAKNYGDPMKTPKN:Real GDP</text>
</a>
</g>
</g>
<!-- PAKNECONGOVTKN&#45;&gt;PAKNYGDPMKTPKN -->
<g id="edge23" class="edge">
<title>PAKNECONGOVTKN-&gt;PAKNYGDPMKTPKN</title>
<g id="a_edge23"><a xlink:href="bogus" xlink:title=" PAKNECONGOVTKN -&gt; PAKNYGDPMKTPKN Min. att. -4180%  max: 1931%">
<path fill="none" stroke="black" stroke-width="8" d="M255.91,-596.28C266.02,-592.67 275.76,-588.15 284.6,-582.5 344.47,-544.25 386.12,-469.33 406.32,-426.2"/>
<polygon fill="black" stroke="black" stroke-width="8" points="413.06,-429.86 410.79,-417.87 400.3,-424.1 413.06,-429.86"/>
</a>
</g>
</g>
<!-- PAKNEGDISTKBKN -->
<g id="node2" class="node">
<title>PAKNEGDISTKBKN</title>
<g id="a_node2"><a xlink:title="Stock real
Exogen">
<polygon fill="yellow" stroke="black" points="238.48,-573.5 46.13,-573.5 46.13,-537.5 238.48,-537.5 238.48,-573.5"/>
<text text-anchor="start" x="51.93" y="-550.45" font-family="Times New Roman,serif" font-size="14.00" fill="blue">PAKNEGDISTKBKN:Stock real</text>
</a>
</g>
</g>
<!-- PAKNEGDISTKBKN&#45;&gt;PAKNYGDPMKTPKN -->
<g id="edge7" class="edge">
<title>PAKNEGDISTKBKN-&gt;PAKNYGDPMKTPKN</title>
<g id="a_edge7"><a xlink:href="bogus" xlink:title=" PAKNEGDISTKBKN -&gt; PAKNYGDPMKTPKN Min. att. -0%  max: 0%">
<path fill="none" stroke="black" d="M238.67,-545.31C254.57,-541.38 270.47,-535.96 284.6,-528.5 334.34,-502.23 377.63,-451.67 401.24,-420.43"/>
<polygon fill="black" stroke="black" points="404.51,-422.91 407.65,-412.79 398.88,-418.74 404.51,-422.91"/>
</a>
</g>
</g>
<!-- PAKHURDAMKN -->
<g id="node3" class="node">
<title>PAKHURDAMKN</title>
<g id="a_node3"><a xlink:title="PAKHURDAMKN
FRML &lt;IDENT&gt; PAKHURDAMKN = (PAKNEHURAVERKN_/100)*PAKNYGDPMKTPKN(-1)*(1-PAKNEHURPTVTKN) $">
<polygon fill="#63b8ff" stroke="black" points="872.93,-762.5 751.08,-762.5 751.08,-726.5 872.93,-726.5 872.93,-762.5"/>
<text text-anchor="start" x="756.88" y="-739.45" font-family="Times New Roman,serif" font-size="14.00" fill="blue">PAKHURDAMKN:</text>
</a>
</g>
</g>
<!-- PAKNYGDPDISCKN -->
<g id="node4" class="node">
<title>PAKNYGDPDISCKN</title>
<g id="a_node4"><a xlink:title="GDP Disc., 2000 LCU mn
Exogen">
<polygon fill="yellow" stroke="black" points="284.6,-519.5 0,-519.5 0,-483.5 284.6,-483.5 284.6,-519.5"/>
<text text-anchor="start" x="5.8" y="-496.45" font-family="Times New Roman,serif" font-size="14.00" fill="blue">PAKNYGDPDISCKN:GDP Disc., 2000 LCU mn</text>
</a>
</g>
</g>
<!-- PAKNYGDPDISCKN&#45;&gt;PAKNYGDPMKTPKN -->
<g id="edge1" class="edge">
<title>PAKNYGDPDISCKN-&gt;PAKNYGDPMKTPKN</title>
<g id="a_edge1"><a xlink:href="bogus" xlink:title=" PAKNYGDPDISCKN -&gt; PAKNYGDPMKTPKN Min. att. -0%  max: 0%">
<path fill="none" stroke="black" d="M258.38,-483.03C267.36,-480.53 276.2,-477.7 284.6,-474.5 321.76,-460.36 360.32,-436.28 386.79,-418.03"/>
<polygon fill="black" stroke="black" points="388.44,-420.45 394.63,-411.85 384.43,-414.72 388.44,-420.45"/>
</a>
</g>
</g>
<!-- PAKGDPPCKN -->
<g id="node5" class="node">
<title>PAKGDPPCKN</title>
<g id="a_node5"><a xlink:title="GDP per capita, 2005 LCU mn
FRML &lt;IDENT&gt; PAKGDPPCKN = (PAKNYGDPMKTPKN/PAKSPPOPTOTL) $">
<polygon fill="#63b8ff" stroke="black" points="949.8,-708.5 674.2,-708.5 674.2,-672.5 949.8,-672.5 949.8,-708.5"/>
<text text-anchor="start" x="680" y="-685.45" font-family="Times New Roman,serif" font-size="14.00" fill="blue">PAKGDPPCKN:GDP per capita, 2005 LCU mn</text>
</a>
</g>
</g>
<!-- PAKNYGDPMKTPKN&#45;&gt;PAKHURDAMKN -->
<g id="edge17" class="edge">
<title>PAKNYGDPMKTPKN-&gt;PAKHURDAMKN</title>
<g id="a_edge17"><a xlink:href="bogus" xlink:title=" PAKNYGDPMKTPKN -&gt; PAKHURDAMKN Min. att. 0%  max: 0%">
<path fill="none" stroke="black" d="M423.69,-411.68C429.15,-467.94 454.03,-640.08 557.95,-717.5 609.77,-756.1 684.97,-759.41 739.92,-755.15"/>
<polygon fill="black" stroke="black" points="739.98,-758.57 749.63,-754.21 739.36,-751.6 739.98,-758.57"/>
</a>
</g>
</g>
<!-- PAKNYGDPMKTPKN&#45;&gt;PAKGDPPCKN -->
<g id="edge16" class="edge">
<title>PAKNYGDPMKTPKN-&gt;PAKGDPPCKN</title>
<g id="a_edge16"><a xlink:href="bogus" xlink:title=" PAKNYGDPMKTPKN -&gt; PAKGDPPCKN Min. att. 100%  max: 100%">
<path fill="none" stroke="black" stroke-width="8" d="M425.33,-411.86C434.74,-461.96 468.25,-601.37 557.95,-663.5 587.14,-683.71 622.93,-693.9 658.32,-698.36"/>
<polygon fill="black" stroke="black" stroke-width="8" points="657.31,-705.91 667.97,-699.98 658.75,-691.98 657.31,-705.91"/>
</a>
</g>
</g>
<!-- PAKNYGDPMKTPXN -->
<g id="node9" class="node">
<title>PAKNYGDPMKTPXN</title>
<g id="a_node9"><a xlink:title="GDP, Marker Prices, LCU Price defl., 2000 = 1
FRML &lt;IDENT&gt; PAKNYGDPMKTPXN = PAKNYGDPMKTPCN/PAKNYGDPMKTPKN $">
<polygon fill="#63b8ff" stroke="black" points="1015.8,-654.5 608.2,-654.5 608.2,-618.5 1015.8,-618.5 1015.8,-654.5"/>
<text text-anchor="start" x="614" y="-631.45" font-family="Times New Roman,serif" font-size="14.00" fill="blue">PAKNYGDPMKTPXN:GDP, Marker Prices, LCU Price defl., 2000 = 1</text>
</a>
</g>
</g>
<!-- PAKNYGDPMKTPKN&#45;&gt;PAKNYGDPMKTPXN -->
<g id="edge18" class="edge">
<title>PAKNYGDPMKTPKN-&gt;PAKNYGDPMKTPXN</title>
<g id="a_edge18"><a xlink:href="bogus" xlink:title=" PAKNYGDPMKTPKN -&gt; PAKNYGDPMKTPXN Min. att. -44%  max: 8%">
<path fill="none" stroke="black" stroke-width="4.37" d="M427.71,-411.95C441.46,-455.03 482.07,-562.13 557.95,-609.5 568.87,-616.32 580.59,-621.94 592.78,-626.54"/>
<polygon fill="black" stroke="black" stroke-width="4.37" points="592.16,-631.06 602.86,-630.66 594.62,-623.82 592.16,-631.06"/>
</a>
</g>
</g>
<!-- PAKNYGDPGAP_ -->
<g id="node10" class="node">
<title>PAKNYGDPGAP_</title>
<g id="a_node10"><a xlink:title="Output Gap (% of Potential GDP)
FRML &lt;IDENT&gt; PAKNYGDPGAP_ = ((PAKNYGDPMKTPKN/PAKNYGDPPOTLKN-1)*100) $">
<polygon fill="#63b8ff" stroke="black" points="965.93,-600.5 658.08,-600.5 658.08,-564.5 965.93,-564.5 965.93,-600.5"/>
<text text-anchor="start" x="663.88" y="-577.45" font-family="Times New Roman,serif" font-size="14.00" fill="blue">PAKNYGDPGAP_:Output Gap (% of Potential GDP)</text>
</a>
</g>
</g>
<!-- PAKNYGDPMKTPKN&#45;&gt;PAKNYGDPGAP_ -->
<g id="edge4" class="edge">
<title>PAKNYGDPMKTPKN-&gt;PAKNYGDPGAP_</title>
<g id="a_edge4"><a xlink:href="bogus" xlink:title=" PAKNYGDPMKTPKN -&gt; PAKNYGDPGAP_ Min. att. -8402%  max: 4792%">
<path fill="none" stroke="black" stroke-width="8" d="M431.39,-411.78C449.85,-446.63 495.31,-522.09 557.95,-555.5 583.64,-569.2 612.88,-577.64 642.13,-582.61"/>
<polygon fill="black" stroke="black" stroke-width="8" points="640.96,-589.41 651.88,-583.97 643.03,-575.57 640.96,-589.41"/>
</a>
</g>
</g>
<!-- PAKNYWRTINFMCN_FITTED -->
<g id="node11" class="node">
<title>PAKNYWRTINFMCN_FITTED</title>
<g id="a_node11"><a xlink:title="Fitted  value:PAKNYWRTINFMCN
FRML &lt;FIT&gt; PAKNYWRTINFMCN_FITTED = PAKNYWRTINFMCN(-1)*EXP( (-0.13526463206061-0.3*(LOG(PAKNYWRTINFMCN(-1))-LOG(PAKNYGDPFCSTXN(-1))-LOG(PAKNYGDPPOTLKN(-1)/PAKLMEMPSTRLCN(-1)))+0.2*((LOG(PAKNYWRTINFMCN(-1)))-(LOG(PAKNYWRTINFMCN(-2))))+(1-0.2)*(0.5*((LOG(PAKNYGDPFCSTXN(-1)))-(LOG(PAKNYGDPFCSTXN(-2))))+0.5*(PAKINFLEXPT/100)+((LOG(PAKNYGDPMKTPKN/PAKLMEMPSTRLCN))-(LOG(PAKNYGDPMKTPKN(-1)/PAKLMEMPSTRLCN(-1)))))-0.2*(PAKLMUNRTOTLCN-PAKLMUNRSTRLCN)/100) ) $">
<polygon fill="#63b8ff" stroke="black" points="1011.3,-546.5 612.7,-546.5 612.7,-510.5 1011.3,-510.5 1011.3,-546.5"/>
<text text-anchor="start" x="618.5" y="-523.45" font-family="Times New Roman,serif" font-size="14.00" fill="blue">PAKNYWRTINFMCN_FITTED:Fitted  value:PAKNYWRTINFMCN</text>
</a>
</g>
</g>
<!-- PAKNYGDPMKTPKN&#45;&gt;PAKNYWRTINFMCN_FITTED -->
<g id="edge14" class="edge">
<title>PAKNYGDPMKTPKN-&gt;PAKNYWRTINFMCN_FITTED</title>
<g id="a_edge14"><a xlink:href="bogus" xlink:title=" PAKNYGDPMKTPKN -&gt; PAKNYWRTINFMCN_FITTED Min. att. -24%  max: 98%">
<path fill="none" stroke="black" stroke-width="8" d="M438.58,-411.8C462.14,-436.89 508.37,-481.16 557.95,-501.5 570.5,-506.65 583.67,-510.95 597.15,-514.53"/>
<polygon fill="black" stroke="black" stroke-width="8" points="595.1,-521.7 606.47,-517.28 598.42,-508.11 595.1,-521.7"/>
</a>
</g>
</g>
<!-- PAKNYWRTINFMCN -->
<g id="node12" class="node">
<title>PAKNYWRTINFMCN</title>
<g id="a_node12"><a xlink:title="PAKNYWRTINFMCN
FRML &lt;DAMP,STOC&gt; PAKNYWRTINFMCN = (PAKNYWRTINFMCN(-1)*EXP(PAKNYWRTINFMCN_A+ (-0.13526463206061-0.3*(LOG(PAKNYWRTINFMCN(-1))-LOG(PAKNYGDPFCSTXN(-1))-LOG(PAKNYGDPPOTLKN(-1)/PAKLMEMPSTRLCN(-1)))+0.2*((LOG(PAKNYWRTINFMCN(-1)))-(LOG(PAKNYWRTINFMCN(-2))))+(1-0.2)*(0.5*((LOG(PAKNYGDPFCSTXN(-1)))-(LOG(PAKNYGDPFCSTXN(-2))))+0.5*(PAKINFLEXPT/100)+((LOG(PAKNYGDPMKTPKN/PAKLMEMPSTRLCN))-(LOG(PAKNYGDPMKTPKN(-1)/PAKLMEMPSTRLCN(-1)))))-0.2*(PAKLMUNRTOTLCN-PAKLMUNRSTRLCN)/100) )) * (1-PAKNYWRTINFMCN_D)+ PAKNYWRTINFMCN_X*PAKNYWRTINFMCN_D  $">
<polygon fill="#63b8ff" stroke="black" points="884.18,-492.5 739.83,-492.5 739.83,-456.5 884.18,-456.5 884.18,-492.5"/>
<text text-anchor="start" x="745.63" y="-469.45" font-family="Times New Roman,serif" font-size="14.00" fill="blue">PAKNYWRTINFMCN:</text>
</a>
</g>
</g>
<!-- PAKNYGDPMKTPKN&#45;&gt;PAKNYWRTINFMCN -->
<g id="edge8" class="edge">
<title>PAKNYGDPMKTPKN-&gt;PAKNYWRTINFMCN</title>
<g id="a_edge8"><a xlink:href="bogus" xlink:title=" PAKNYGDPMKTPKN -&gt; PAKNYWRTINFMCN Min. att. -24%  max: 98%">
<path fill="none" stroke="black" stroke-width="8" d="M460.53,-411.99C487.22,-424.06 523.99,-439.1 557.95,-447.5 612.11,-460.9 674.41,-467.65 723.64,-471.05"/>
<polygon fill="black" stroke="black" stroke-width="8" points="723.05,-478.41 733.47,-472.06 723.94,-464.44 723.05,-478.41"/>
</a>
</g>
</g>
<!-- PAKFMLBLMTWOKN_FITTED -->
<g id="node13" class="node">
<title>PAKFMLBLMTWOKN_FITTED</title>
<g id="a_node13"><a xlink:title="Fitted  value:Real Base Money (Mil. Real LCU)
FRML &lt;FIT&gt; PAKFMLBLMTWOKN_FITTED = PAKFMLBLMTWOKN(-1)*EXP( (-0.2*(LOG(PAKFMLBLMTWOKN(-1))-LOG(PAKNYGDPMKTPKN(-1))+0.1*PAKFMLBLPOLYXN(-1)/100-LOG(PAKVELOCITY(-1)))-0.32628131688075+0.7*((LOG(PAKNYGDPMKTPKN))-(LOG(PAKNYGDPMKTPKN(-1))))-1*((PAKFMLBLPOLYXN/100)-(PAKFMLBLPOLYXN(-1)/100))-((LOG(PAKVELOCITY))-(LOG(PAKVELOCITY(-1))))) ) $">
<polygon fill="#63b8ff" stroke="black" points="1046.93,-438.5 577.08,-438.5 577.08,-402.5 1046.93,-402.5 1046.93,-438.5"/>
<text text-anchor="start" x="582.88" y="-415.45" font-family="Times New Roman,serif" font-size="14.00" fill="blue">PAKFMLBLMTWOKN_FITTED:Fitted  value:Real Base Money (Mil. Real LCU)</text>
</a>
</g>
</g>
<!-- PAKNYGDPMKTPKN&#45;&gt;PAKFMLBLMTWOKN_FITTED -->
<g id="edge11" class="edge">
<title>PAKNYGDPMKTPKN-&gt;PAKFMLBLMTWOKN_FITTED</title>
<g id="a_edge11"><a xlink:href="bogus" xlink:title=" PAKNYGDPMKTPKN -&gt; PAKFMLBLMTWOKN_FITTED Min. att. -158%  max: 1221%">
<path fill="none" stroke="black" stroke-width="8" d="M522.38,-400.45C534.67,-401.31 547.62,-402.21 560.95,-403.13"/>
<polygon fill="black" stroke="black" stroke-width="8" points="560.3,-410.52 570.76,-404.23 561.27,-396.55 560.3,-410.52"/>
</a>
</g>
</g>
<!-- PAKNYGDPFCSTKN -->
<g id="node15" class="node">
<title>PAKNYGDPFCSTKN</title>
<g id="a_node15"><a xlink:title="GDP Factor Cost Local Currency units Volumes National base year
FRML &lt;IDENT&gt; PAKNYGDPFCSTKN = PAKNYGDPMKTPKN-PAKNYTAXNINDKN $">
<polygon fill="#63b8ff" stroke="black" points="1066.05,-384.5 557.95,-384.5 557.95,-348.5 1066.05,-348.5 1066.05,-384.5"/>
<text text-anchor="start" x="563.75" y="-361.45" font-family="Times New Roman,serif" font-size="14.00" fill="blue">PAKNYGDPFCSTKN:GDP Factor Cost Local Currency units Volumes National base year</text>
</a>
</g>
</g>
<!-- PAKNYGDPMKTPKN&#45;&gt;PAKNYGDPFCSTKN -->
<g id="edge5" class="edge">
<title>PAKNYGDPMKTPKN-&gt;PAKNYGDPFCSTKN</title>
<g id="a_edge5"><a xlink:href="bogus" xlink:title=" PAKNYGDPMKTPKN -&gt; PAKNYGDPFCSTKN Min. att. 100%  max: 100%">
<path fill="none" stroke="black" stroke-width="8" d="M522.38,-386.55C528.71,-386.11 535.21,-385.66 541.85,-385.19"/>
<polygon fill="black" stroke="black" stroke-width="8" points="542.08,-391.78 551.58,-384.1 541.11,-377.81 542.08,-391.78"/>
</a>
</g>
</g>
<!-- PAKNYWRTFORMCN -->
<g id="node16" class="node">
<title>PAKNYWRTFORMCN</title>
<g id="a_node16"><a xlink:title="PAKNYWRTFORMCN
FRML &lt;DAMP,STOC&gt; PAKNYWRTFORMCN = (PAKNYWRTFORMCN(-1)*EXP(PAKNYWRTFORMCN_A+ (-0.132832689997107-0.3*(LOG(PAKNYWRTFORMCN(-1))-LOG(PAKNYGDPFCSTXN(-1))-LOG(PAKNYGDPPOTLKN(-1)/PAKLMEMPSTRLCN(-1)))+0.2*((LOG(PAKNYWRTFORMCN(-1)))-(LOG(PAKNYWRTFORMCN(-2))))+(1-0.2)*(0.5*((LOG(PAKNYGDPFCSTXN(-1)))-(LOG(PAKNYGDPFCSTXN(-2))))+0.5*(PAKINFLEXPT/100)+((LOG(PAKNYGDPMKTPKN/PAKLMEMPSTRLCN))-(LOG(PAKNYGDPMKTPKN(-1)/PAKLMEMPSTRLCN(-1)))))-0.2*(PAKLMUNRTOTLCN-PAKLMUNRSTRLCN)/100) )) * (1-PAKNYWRTFORMCN_D)+ PAKNYWRTFORMCN_X*PAKNYWRTFORMCN_D  $">
<polygon fill="#63b8ff" stroke="black" points="886.43,-330.5 737.58,-330.5 737.58,-294.5 886.43,-294.5 886.43,-330.5"/>
<text text-anchor="start" x="743.38" y="-307.45" font-family="Times New Roman,serif" font-size="14.00" fill="blue">PAKNYWRTFORMCN:</text>
</a>
</g>
</g>
<!-- PAKNYGDPMKTPKN&#45;&gt;PAKNYWRTFORMCN -->
<g id="edge15" class="edge">
<title>PAKNYGDPMKTPKN-&gt;PAKNYWRTFORMCN</title>
<g id="a_edge15"><a xlink:href="bogus" xlink:title=" PAKNYGDPMKTPKN -&gt; PAKNYWRTFORMCN Min. att. -24%  max: 98%">
<path fill="none" stroke="black" stroke-width="8" d="M460.53,-375.01C487.22,-362.94 523.99,-347.9 557.95,-339.5 611.34,-326.29 672.64,-319.54 721.53,-316.1"/>
<polygon fill="black" stroke="black" stroke-width="8" points="721.75,-322.71 731.27,-315.07 720.84,-308.74 721.75,-322.71"/>
</a>
</g>
</g>
<!-- PAKFMLBLMTWOKN -->
<g id="node19" class="node">
<title>PAKFMLBLMTWOKN</title>
<g id="a_node19"><a xlink:title="Real Base Money (Mil. Real LCU)
FRML &lt;DAMP,STOC&gt; PAKFMLBLMTWOKN = (PAKFMLBLMTWOKN(-1)*EXP(PAKFMLBLMTWOKN_A+ (-0.2*(LOG(PAKFMLBLMTWOKN(-1))-LOG(PAKNYGDPMKTPKN(-1))+0.1*PAKFMLBLPOLYXN(-1)/100-LOG(PAKVELOCITY(-1)))-0.32628131688075+0.7*((LOG(PAKNYGDPMKTPKN))-(LOG(PAKNYGDPMKTPKN(-1))))-1*((PAKFMLBLPOLYXN/100)-(PAKFMLBLPOLYXN(-1)/100))-((LOG(PAKVELOCITY))-(LOG(PAKVELOCITY(-1))))) )) * (1-PAKFMLBLMTWOKN_D)+ PAKFMLBLMTWOKN_X*PAKFMLBLMTWOKN_D  $">
<polygon fill="#63b8ff" stroke="black" points="984.3,-276.5 639.7,-276.5 639.7,-240.5 984.3,-240.5 984.3,-276.5"/>
<text text-anchor="start" x="645.5" y="-253.45" font-family="Times New Roman,serif" font-size="14.00" fill="blue">PAKFMLBLMTWOKN:Real Base Money (Mil. Real LCU)</text>
</a>
</g>
</g>
<!-- PAKNYGDPMKTPKN&#45;&gt;PAKFMLBLMTWOKN -->
<g id="edge20" class="edge">
<title>PAKNYGDPMKTPKN-&gt;PAKFMLBLMTWOKN</title>
<g id="a_edge20"><a xlink:href="bogus" xlink:title=" PAKNYGDPMKTPKN -&gt; PAKFMLBLMTWOKN Min. att. -158%  max: 1221%">
<path fill="none" stroke="black" stroke-width="8" d="M438.58,-375.2C462.14,-350.11 508.37,-305.84 557.95,-285.5 578.62,-277.02 601.01,-270.83 623.62,-266.37"/>
<polygon fill="black" stroke="black" stroke-width="8" points="624.68,-273.21 633.29,-264.55 622.2,-259.43 624.68,-273.21"/>
</a>
</g>
</g>
<!-- PAKNEADPKMAXKN -->
<g id="node20" class="node">
<title>PAKNEADPKMAXKN</title>
<g id="a_node20"><a xlink:title="PAKNEADPKMAXKN
FRML &lt;DAMP,STOC&gt; PAKNEADPKMAXKN = (0*DUMH+((1+0.01)/(0.01+PAKDEPR))*(PAKAVDAMAGE/100)*PAKNYGDPMKTPKN + PAKNEADPKMAXKN_A)* (1-PAKNEADPKMAXKN_D)+ PAKNEADPKMAXKN_X*PAKNEADPKMAXKN_D  $">
<polygon fill="#63b8ff" stroke="black" points="886.05,-222.5 737.95,-222.5 737.95,-186.5 886.05,-186.5 886.05,-222.5"/>
<text text-anchor="start" x="743.75" y="-199.45" font-family="Times New Roman,serif" font-size="14.00" fill="blue">PAKNEADPKMAXKN:</text>
</a>
</g>
</g>
<!-- PAKNYGDPMKTPKN&#45;&gt;PAKNEADPKMAXKN -->
<g id="edge21" class="edge">
<title>PAKNYGDPMKTPKN-&gt;PAKNEADPKMAXKN</title>
<g id="a_edge21"><a xlink:href="bogus" xlink:title=" PAKNYGDPMKTPKN -&gt; PAKNEADPKMAXKN Min. att. 100%  max: 100%">
<path fill="none" stroke="black" stroke-width="8" d="M431.39,-375.22C449.85,-340.37 495.31,-264.91 557.95,-231.5 607.83,-204.9 671.07,-198.14 721.85,-198.04"/>
<polygon fill="black" stroke="black" stroke-width="8" points="721.44,-205.1 731.52,-198.22 721.6,-191.1 721.44,-205.1"/>
</a>
</g>
</g>
<!-- PAKNYGDPMKTPKD -->
<g id="node21" class="node">
<title>PAKNYGDPMKTPKD</title>
<g id="a_node21"><a xlink:title="GDP, Market Prices, 2000 US$ mn
FRML &lt;IDENT&gt; PAKNYGDPMKTPKD = (PAKNYGDPMKTPKN*((PAKNYGDPMKTPCN_VALUE_2010)/((PAKNYGDPMKTPKN_VALUE_2010))))/(PAKPANUSATLS_VALUE_2010) $">
<polygon fill="#63b8ff" stroke="black" points="981.68,-168.5 642.33,-168.5 642.33,-132.5 981.68,-132.5 981.68,-168.5"/>
<text text-anchor="start" x="648.13" y="-145.45" font-family="Times New Roman,serif" font-size="14.00" fill="blue">PAKNYGDPMKTPKD:GDP, Market Prices, 2000 US$ mn</text>
</a>
</g>
</g>
<!-- PAKNYGDPMKTPKN&#45;&gt;PAKNYGDPMKTPKD -->
<g id="edge19" class="edge">
<title>PAKNYGDPMKTPKN-&gt;PAKNYGDPMKTPKD</title>
<g id="a_edge19"><a xlink:href="bogus" xlink:title=" PAKNYGDPMKTPKN -&gt; PAKNYGDPMKTPKD Min. att. 100%  max: 100%">
<path fill="none" stroke="black" stroke-width="8" d="M427.71,-375.05C441.46,-331.97 482.07,-224.87 557.95,-177.5 578.65,-164.58 602.19,-155.98 626.39,-150.43"/>
<polygon fill="black" stroke="black" stroke-width="8" points="627.52,-157.13 635.94,-148.29 624.75,-143.41 627.52,-157.13"/>
</a>
</g>
</g>
<!-- PAKNYWRTFORMCN_FITTED -->
<g id="node22" class="node">
<title>PAKNYWRTFORMCN_FITTED</title>
<g id="a_node22"><a xlink:title="Fitted  value:PAKNYWRTFORMCN
FRML &lt;FIT&gt; PAKNYWRTFORMCN_FITTED = PAKNYWRTFORMCN(-1)*EXP( (-0.132832689997107-0.3*(LOG(PAKNYWRTFORMCN(-1))-LOG(PAKNYGDPFCSTXN(-1))-LOG(PAKNYGDPPOTLKN(-1)/PAKLMEMPSTRLCN(-1)))+0.2*((LOG(PAKNYWRTFORMCN(-1)))-(LOG(PAKNYWRTFORMCN(-2))))+(1-0.2)*(0.5*((LOG(PAKNYGDPFCSTXN(-1)))-(LOG(PAKNYGDPFCSTXN(-2))))+0.5*(PAKINFLEXPT/100)+((LOG(PAKNYGDPMKTPKN/PAKLMEMPSTRLCN))-(LOG(PAKNYGDPMKTPKN(-1)/PAKLMEMPSTRLCN(-1)))))-0.2*(PAKLMUNRTOTLCN-PAKLMUNRSTRLCN)/100) ) $">
<polygon fill="#63b8ff" stroke="black" points="1015.8,-114.5 608.2,-114.5 608.2,-78.5 1015.8,-78.5 1015.8,-114.5"/>
<text text-anchor="start" x="614" y="-91.45" font-family="Times New Roman,serif" font-size="14.00" fill="blue">PAKNYWRTFORMCN_FITTED:Fitted  value:PAKNYWRTFORMCN</text>
</a>
</g>
</g>
<!-- PAKNYGDPMKTPKN&#45;&gt;PAKNYWRTFORMCN_FITTED -->
<g id="edge2" class="edge">
<title>PAKNYGDPMKTPKN-&gt;PAKNYWRTFORMCN_FITTED</title>
<g id="a_edge2"><a xlink:href="bogus" xlink:title=" PAKNYGDPMKTPKN -&gt; PAKNYWRTFORMCN_FITTED Min. att. -24%  max: 98%">
<path fill="none" stroke="black" stroke-width="8" d="M425.33,-375.14C434.74,-325.04 468.25,-185.63 557.95,-123.5 568.85,-115.95 580.67,-109.8 593.05,-104.83"/>
<polygon fill="black" stroke="black" stroke-width="8" points="594.77,-111.49 601.81,-101.51 590.03,-98.31 594.77,-111.49"/>
</a>
</g>
</g>
<!-- PAKNEADPKMAXKN_FITTED -->
<g id="node23" class="node">
<title>PAKNEADPKMAXKN_FITTED</title>
<g id="a_node23"><a xlink:title="Fitted  value:PAKNEADPKMAXKN
FRML &lt;FIT&gt; PAKNEADPKMAXKN_FITTED = 0*DUMH+((1+0.01)/(0.01+PAKDEPR))*(PAKAVDAMAGE/100)*PAKNYGDPMKTPKN $">
<polygon fill="#63b8ff" stroke="black" points="1015.05,-60.5 608.95,-60.5 608.95,-24.5 1015.05,-24.5 1015.05,-60.5"/>
<text text-anchor="start" x="614.75" y="-37.45" font-family="Times New Roman,serif" font-size="14.00" fill="blue">PAKNEADPKMAXKN_FITTED:Fitted  value:PAKNEADPKMAXKN</text>
</a>
</g>
</g>
<!-- PAKNYGDPMKTPKN&#45;&gt;PAKNEADPKMAXKN_FITTED -->
<g id="edge13" class="edge">
<title>PAKNYGDPMKTPKN-&gt;PAKNEADPKMAXKN_FITTED</title>
<g id="a_edge13"><a xlink:href="bogus" xlink:title=" PAKNYGDPMKTPKN -&gt; PAKNEADPKMAXKN_FITTED Min. att. 100%  max: 100%">
<path fill="none" stroke="black" stroke-width="8" d="M423.69,-375.32C429.15,-319.06 454.03,-146.92 557.95,-69.5 569.02,-61.25 581.16,-54.62 593.93,-49.32"/>
<polygon fill="black" stroke="black" stroke-width="8" points="595.66,-55.93 602.61,-45.9 590.8,-42.8 595.66,-55.93"/>
</a>
</g>
</g>
<!-- PAKNECONPRVTKN -->
<g id="node7" class="node">
<title>PAKNECONPRVTKN</title>
<g id="a_node7"><a xlink:title="HH. Cons Real
FRML &lt;DAMP,STOC&gt; PAKNECONPRVTKN = (PAKNECONPRVTKN(-1)*EXP(PAKNECONPRVTKN_A+ (-0.2*(LOG(PAKNECONPRVTKN(-1))-LOG(1.21203101101442)-LOG((((PAKBXFSTREMTCD(-1)-PAKBMFSTREMTCD(-1))*PAKPANUSATLS(-1))+PAKGGEXPTRNSCN(-1)+PAKNYYWBTOTLCN(-1)*(1-PAKGGREVDRCTXN(-1)/100))/PAKNECONPRVTXN(-1)))+0.763938860758873*((LOG((((PAKBXFSTREMTCD-PAKBMFSTREMTCD)*PAKPANUSATLS)+PAKGGEXPTRNSCN+PAKNYYWBTOTLCN*(1-PAKGGREVDRCTXN/100))/PAKNECONPRVTXN))-(LOG((((PAKBXFSTREMTCD(-1)-PAKBMFSTREMTCD(-1))*PAKPANUSATLS(-1))+PAKGGEXPTRNSCN(-1)+PAKNYYWBTOTLCN(-1)*(1-PAKGGREVDRCTXN(-1)/100))/PAKNECONPRVTXN(-1))))-0.0634474791568939*DURING_2009-0.3*(PAKFMLBLPOLYXN/100-((LOG(PAKNECONPRVTXN))-(LOG(PAKNECONPRVTXN(-1)))))) )) * (1-PAKNECONPRVTKN_D)+ PAKNECONPRVTKN_X*PAKNECONPRVTKN_D  $">
<polygon fill="#63b8ff" stroke="black" points="254.6,-465.5 30,-465.5 30,-429.5 254.6,-429.5 254.6,-465.5"/>
<text text-anchor="start" x="35.8" y="-442.45" font-family="Times New Roman,serif" font-size="14.00" fill="blue">PAKNECONPRVTKN:HH. Cons Real</text>
</a>
</g>
</g>
<!-- PAKNECONPRVTKN&#45;&gt;PAKNYGDPMKTPKN -->
<g id="edge6" class="edge">
<title>PAKNECONPRVTKN-&gt;PAKNYGDPMKTPKN</title>
<g id="a_edge6"><a xlink:href="bogus" xlink:title=" PAKNECONPRVTKN -&gt; PAKNYGDPMKTPKN Min. att. -5071%  max: 11663%">
<path fill="none" stroke="black" stroke-width="8" d="M240.61,-429.01C255.35,-426.18 270.38,-423.27 284.6,-420.5 293.69,-418.73 303.13,-416.87 312.6,-415.01"/>
<polygon fill="black" stroke="black" stroke-width="8" points="313.52,-421.77 321.97,-412.97 310.8,-408.04 313.52,-421.77"/>
</a>
</g>
</g>
<!-- PAKNEEXPGNFSKN -->
<g id="node8" class="node">
<title>PAKNEEXPGNFSKN</title>
<g id="a_node8"><a xlink:title="Exports real
FRML &lt;DAMP,STOC&gt; PAKNEEXPGNFSKN = (PAKNEEXPGNFSKN(-1)*EXP(PAKNEEXPGNFSKN_A+ (-0.35*(LOG(PAKNEEXPGNFSKN(-1))-LOG(PAKXMKT(-1))-0.6*LOG(PAKNEEXPGNFSXN(-1)/(PAKNYGDPFCSTXN(-1))))+1*((LOG(PAKXMKT))-(LOG(PAKXMKT(-1))))+0.3*((LOG(PAKNEEXPGNFSXN/(PAKNYGDPFCSTXN)))-(LOG(PAKNEEXPGNFSXN(-1)/(PAKNYGDPFCSTXN(-1)))))+4.38465374402991-0.237469889780178*DURING_1999-0.230689812873392*DURING_1998+0.320967524344658*DURING_1991+0.250252413901575*DURING_1986) )) * (1-PAKNEEXPGNFSKN_D)+ PAKNEEXPGNFSKN_X*PAKNEEXPGNFSKN_D  $">
<polygon fill="#63b8ff" stroke="black" points="244.85,-411.5 39.75,-411.5 39.75,-375.5 244.85,-375.5 244.85,-411.5"/>
<text text-anchor="start" x="45.55" y="-388.45" font-family="Times New Roman,serif" font-size="14.00" fill="blue">PAKNEEXPGNFSKN:Exports real</text>
</a>
</g>
</g>
<!-- PAKNEEXPGNFSKN&#45;&gt;PAKNYGDPMKTPKN -->
<g id="edge10" class="edge">
<title>PAKNEEXPGNFSKN-&gt;PAKNYGDPMKTPKN</title>
<g id="a_edge10"><a xlink:href="bogus" xlink:title=" PAKNEEXPGNFSKN -&gt; PAKNYGDPMKTPKN Min. att. -158%  max: 339%">
<path fill="none" stroke="black" stroke-width="8" d="M245.26,-393.5C264.51,-393.5 284.78,-393.5 304.43,-393.5"/>
<polygon fill="black" stroke="black" stroke-width="8" points="304.38,-400.5 314.38,-393.5 304.38,-386.5 304.38,-400.5"/>
</a>
</g>
</g>
<!-- PAKNEGDIFTOTKN -->
<g id="node14" class="node">
<title>PAKNEGDIFTOTKN</title>
<g id="a_node14"><a xlink:title="Investment real
FRML &lt;IDENT&gt; PAKNEGDIFTOTKN = PAKNEGDIFGOVKN+PAKNEGDIFPRVKN $">
<polygon fill="#63b8ff" stroke="black" points="253.1,-357.5 31.5,-357.5 31.5,-321.5 253.1,-321.5 253.1,-357.5"/>
<text text-anchor="start" x="37.3" y="-334.45" font-family="Times New Roman,serif" font-size="14.00" fill="blue">PAKNEGDIFTOTKN:Investment real</text>
</a>
</g>
</g>
<!-- PAKNEGDIFTOTKN&#45;&gt;PAKNYGDPMKTPKN -->
<g id="edge22" class="edge">
<title>PAKNEGDIFTOTKN-&gt;PAKNYGDPMKTPKN</title>
<g id="a_edge22"><a xlink:href="bogus" xlink:title=" PAKNEGDIFTOTKN -&gt; PAKNYGDPMKTPKN Min. att. -2291%  max: 999%">
<path fill="none" stroke="black" stroke-width="8" d="M240.61,-357.99C255.35,-360.82 270.38,-363.73 284.6,-366.5 293.69,-368.27 303.13,-370.13 312.6,-371.99"/>
<polygon fill="black" stroke="black" stroke-width="8" points="310.8,-378.96 321.97,-374.03 313.52,-365.23 310.8,-378.96"/>
</a>
</g>
</g>
<!-- PAKDISPREPKN -->
<g id="node17" class="node">
<title>PAKDISPREPKN</title>
<g id="a_node17"><a xlink:title="PAKDISPREPKN
FRML &lt;IDENT&gt; PAKDISPREPKN = PAKDISPREPCN/PAKNYGDPMKTPXN $">
<polygon fill="#63b8ff" stroke="black" points="199.85,-303.5 84.75,-303.5 84.75,-267.5 199.85,-267.5 199.85,-303.5"/>
<text text-anchor="start" x="90.55" y="-280.45" font-family="Times New Roman,serif" font-size="14.00" fill="blue">PAKDISPREPKN:</text>
</a>
</g>
</g>
<!-- PAKDISPREPKN&#45;&gt;PAKNYGDPMKTPKN -->
<g id="edge3" class="edge">
<title>PAKDISPREPKN-&gt;PAKNYGDPMKTPKN</title>
<g id="a_edge3"><a xlink:href="bogus" xlink:title=" PAKDISPREPKN -&gt; PAKNYGDPMKTPKN Min. att. -0%  max: 0%">
<path fill="none" stroke="black" d="M200.25,-291.76C226.52,-295.8 257.76,-302.29 284.6,-312.5 321.76,-326.64 360.32,-350.72 386.79,-368.97"/>
<polygon fill="black" stroke="black" points="384.43,-372.28 394.63,-375.15 388.44,-366.55 384.43,-372.28"/>
</a>
</g>
</g>
<!-- PAKADAP -->
<g id="node18" class="node">
<title>PAKADAP</title>
<g id="a_node18"><a xlink:title="PAKADAP
Exogen">
<polygon fill="yellow" stroke="black" points="181.48,-249.5 103.13,-249.5 103.13,-213.5 181.48,-213.5 181.48,-249.5"/>
<text text-anchor="start" x="108.93" y="-226.45" font-family="Times New Roman,serif" font-size="14.00" fill="blue">PAKADAP:</text>
</a>
</g>
</g>
<!-- PAKADAP&#45;&gt;PAKNYGDPMKTPKN -->
<g id="edge9" class="edge">
<title>PAKADAP-&gt;PAKNYGDPMKTPKN</title>
<g id="a_edge9"><a xlink:href="bogus" xlink:title=" PAKADAP -&gt; PAKNYGDPMKTPKN Min. att. -0%  max: 0%">
<path fill="none" stroke="black" d="M181.9,-232.79C211.5,-235.17 252.58,-241.59 284.6,-258.5 334.34,-284.77 377.63,-335.33 401.24,-366.57"/>
<polygon fill="black" stroke="black" points="398.88,-368.26 407.65,-374.21 404.51,-364.09 398.88,-368.26"/>
</a>
</g>
</g>
<!-- PAKNEIMPGNFSKN -->
<g id="node24" class="node">
<title>PAKNEIMPGNFSKN</title>
<g id="a_node24"><a xlink:title="Imports real
FRML &lt;DAMP,STOC&gt; PAKNEIMPGNFSKN = (PAKNEIMPGNFSKN(-1)*EXP(PAKNEIMPGNFSKN_A+ (-0.324143718656754*(LOG(PAKNEIMPGNFSKN(-1))-LOG(PAKNEGDETTOTKN(-1))+0.8*LOG(PAKNEIMPGNFSXN(-1)/PAKNYGDPFCSTXN(-1)))-0.583459272245018+1*((LOG(PAKNEGDETTOTKN))-(LOG(PAKNEGDETTOTKN(-1))))-0.0921874580409631*((LOG(PAKNEIMPGNFSXN/PAKNYGDPFCSTXN))-(LOG(PAKNEIMPGNFSXN(-1)/PAKNYGDPFCSTXN(-1))))-0.0361746331863615*DURING_2012) )) * (1-PAKNEIMPGNFSKN_D)+ PAKNEIMPGNFSKN_X*PAKNEIMPGNFSKN_D  $">
<polygon fill="#63b8ff" stroke="black" points="244.85,-195.5 39.75,-195.5 39.75,-159.5 244.85,-159.5 244.85,-195.5"/>
<text text-anchor="start" x="45.55" y="-172.45" font-family="Times New Roman,serif" font-size="14.00" fill="blue">PAKNEIMPGNFSKN:Imports real</text>
</a>
</g>
</g>
<!-- PAKNEIMPGNFSKN&#45;&gt;PAKNYGDPMKTPKN -->
<g id="edge12" class="edge">
<title>PAKNEIMPGNFSKN-&gt;PAKNYGDPMKTPKN</title>
<g id="a_edge12"><a xlink:href="bogus" xlink:title=" PAKNEIMPGNFSKN -&gt; PAKNYGDPMKTPKN Min. att. -5431%  max: 2399%">
<path fill="none" stroke="black" stroke-width="8" d="M245.32,-187.29C259.18,-191.34 272.71,-196.9 284.6,-204.5 344.47,-242.75 386.12,-317.67 406.32,-360.8"/>
<polygon fill="black" stroke="black" stroke-width="8" points="400.3,-362.9 410.79,-369.13 413.06,-357.14 400.3,-362.9"/>
</a>
</g>
</g>
</g>
</svg>