<svg xmlns="http://www.w3.org/2000/svg" xmlns:xlink="http://www.w3.org/1999/xlink" width="414pt" height="432pt" viewBox="0.00 0.00 413.55 432.00">
<g id="graph0" class="graph" transform="scale(0.652075 0.652075) rotate(0) translate(4 658.5)">
<title>TD</title>
<polygon fill="white" stroke="none" points="-4,4 -4,-658.5 630.2,-658.5 630.2,4 -4,4"/>
<text text-anchor="middle" x="313.1" y="-7.2" font-family="Times New Roman,serif" font-size="14.00">PAKNECONPRVTKN</text>
<!-- PAKNECONPRVTKN_A -->
<g id="node1" class="node">
<title>PAKNECONPRVTKN_A</title>
<g id="a_node1"><a xlink:title="Add factor:HH. Cons Real
Exogen">
<polygon fill="yellow" stroke="black" points="334.48,-654.5 31.12,-654.5 31.12,-618.5 334.48,-618.5 334.48,-654.5"/>
<text text-anchor="start" x="36.93" y="-631.45" font-family="Times New Roman,serif" font-size="14.00" fill="blue">PAKNECONPRVTKN_A:Add factor:HH. Cons Real</text>
</a>
</g>
</g>
<!-- PAKNECONPRVTKN -->
<g id="node9" class="node">
<title>PAKNECONPRVTKN</title>
<g id="a_node9"><a xlink:title="HH. Cons Real
FRML &lt;DAMP,STOC&gt; PAKNECONPRVTKN = (PAKNECONPRVTKN(-1)*EXP(PAKNECONPRVTKN_A+ (-0.2*(LOG(PAKNECONPRVTKN(-1))-LOG(1.21203101101442)-LOG((((PAKBXFSTREMTCD(-1)-PAKBMFSTREMTCD(-1))*PAKPANUSATLS(-1))+PAKGGEXPTRNSCN(-1)+PAKNYYWBTOTLCN(-1)*(1-PAKGGREVDRCTXN(-1)/100))/PAKNECONPRVTXN(-1)))+0.763938860758873*((LOG((((PAKBXFSTREMTCD-PAKBMFSTREMTCD)*PAKPANUSATLS)+PAKGGEXPTRNSCN+PAKNYYWBTOTLCN*(1-PAKGGREVDRCTXN/100))/PAKNECONPRVTXN))-(LOG((((PAKBXFSTREMTCD(-1)-PAKBMFSTREMTCD(-1))*PAKPANUSATLS(-1))+PAKGGEXPTRNSCN(-1)+PAKNYYWBTOTLCN(-1)*(1-PAKGGREVDRCTXN(-1)/100))/PAKNECONPRVTXN(-1))))-0.0634474791568939*DURING_2009-0.3*(PAKFMLBLPOLYXN/100-((LOG(PAKNECONPRVTXN))-(LOG(PAKNECONPRVTXN(-1)))))) )) * (1-PAKNECONPRVTKN_D)+ PAKNECONPRVTKN_X*PAKNECONPRVTKN_D  $">
<polygon fill="red" stroke="black" points="626.2,-357.5 401.6,-357.5 401.6,-321.5 626.2,-321.5 626.2,-357.5"/>
<text text-anchor="start" x="407.4" y="-334.45" font-family="Times New Roman,serif" font-size="14.00" fill="blue">PAKNECONPRVTKN:HH. Cons Real</text>
</a>
</g>
</g>
<!-- PAKNECONPRVTKN_A&#45;&gt;PAKNECONPRVTKN -->
<g id="edge5" class="edge">
<title>PAKNECONPRVTKN_A-&gt;PAKNECONPRVTKN</title>
<g id="a_edge5"><a xlink:href="bogus" xlink:title=" PAKNECONPRVTKN_A -&gt; PAKNECONPRVTKN Min. att. -0%  max: 0%">
<path fill="none" stroke="black" d="M334.96,-625.52C345.82,-621.33 356.18,-616.07 365.6,-609.5 450.98,-549.9 491.75,-424.44 506.34,-368.03"/>
<polygon fill="black" stroke="black" points="509.89,-369.26 508.91,-358.71 503.1,-367.57 509.89,-369.26"/>
</a>
</g>
</g>
<!-- PAKFMLBLPOLYXN -->
<g id="node2" class="node">
<title>PAKFMLBLPOLYXN</title>
<g id="a_node2"><a xlink:title="Key Policy Interest Rate
FRML &lt;DAMP,STOC&gt; PAKFMLBLPOLYXN = (100*PAKFMLBLPOLYXN_A+100* (0.900155952396245*PAKFMLBLPOLYXN(-1)/100+(1-0.900155952396245)*(PAKMPPOLNATRXN/100+1.2*(((LOG(PAKNECONPRVTXN))-(LOG(PAKNECONPRVTXN(-1))))-PAKINFLEXPT/100)+0.5*PAKNYGDPGAP_/100)) ) * (1-PAKFMLBLPOLYXN_D)+ PAKFMLBLPOLYXN_X*PAKFMLBLPOLYXN_D  $">
<polygon fill="#63b8ff" stroke="black" points="320.23,-600.5 45.38,-600.5 45.38,-564.5 320.23,-564.5 320.23,-600.5"/>
<text text-anchor="start" x="51.18" y="-577.45" font-family="Times New Roman,serif" font-size="14.00" fill="blue">PAKFMLBLPOLYXN:Key Policy Interest Rate</text>
</a>
</g>
</g>
<!-- PAKFMLBLPOLYXN&#45;&gt;PAKNECONPRVTKN -->
<g id="edge9" class="edge">
<title>PAKFMLBLPOLYXN-&gt;PAKNECONPRVTKN</title>
<g id="a_edge9"><a xlink:href="bogus" xlink:title=" PAKFMLBLPOLYXN -&gt; PAKNECONPRVTKN Min. att. -780%  max: 213%">
<path fill="none" stroke="black" stroke-width="8" d="M320.3,-574.91C336.3,-570.41 351.81,-564.14 365.6,-555.5 435.4,-511.75 480.26,-421.48 500.47,-372.63"/>
<polygon fill="black" stroke="black" stroke-width="8" points="507.18,-375.66 504.37,-363.78 494.17,-370.48 507.18,-375.66"/>
</a>
</g>
</g>
<!-- PAKNECONPRVTKN_X -->
<g id="node3" class="node">
<title>PAKNECONPRVTKN_X</title>
<g id="a_node3"><a xlink:title="Fix value:HH. Cons Real
Exogen">
<polygon fill="yellow" stroke="black" points="330.73,-546.5 34.88,-546.5 34.88,-510.5 330.73,-510.5 330.73,-546.5"/>
<text text-anchor="start" x="40.68" y="-523.45" font-family="Times New Roman,serif" font-size="14.00" fill="blue">PAKNECONPRVTKN_X:Fix value:HH. Cons Real</text>
</a>
</g>
</g>
<!-- PAKNECONPRVTKN_X&#45;&gt;PAKNECONPRVTKN -->
<g id="edge1" class="edge">
<title>PAKNECONPRVTKN_X-&gt;PAKNECONPRVTKN</title>
<g id="a_edge1"><a xlink:href="bogus" xlink:title=" PAKNECONPRVTKN_X -&gt; PAKNECONPRVTKN Min. att. -0%  max: 0%">
<path fill="none" stroke="black" d="M331.03,-515.67C343.07,-511.94 354.76,-507.28 365.6,-501.5 425.02,-469.8 472.74,-404.38 496.5,-367.11"/>
<polygon fill="black" stroke="black" points="499.96,-369.17 502.29,-358.83 494.03,-365.46 499.96,-369.17"/>
</a>
</g>
</g>
<!-- PAKGGEXPTRNSCN -->
<g id="node4" class="node">
<title>PAKGGEXPTRNSCN</title>
<g id="a_node4"><a xlink:title="Current Transfers
FRML &lt;DAMP,STOC&gt; PAKGGEXPTRNSCN = (0.91020884318931*PAKGGEXPTRNSCN(-1)+(1-0.91020884318931)*(0.06*(PAKGGREVTOTLCN-PAKGGEXPINTPCN(-0))) + PAKGGEXPTRNSCN_A)* (1-PAKGGEXPTRNSCN_D)+ PAKGGEXPTRNSCN_X*PAKGGEXPTRNSCN_D  $">
<polygon fill="#63b8ff" stroke="black" points="300.35,-492.5 65.25,-492.5 65.25,-456.5 300.35,-456.5 300.35,-492.5"/>
<text text-anchor="start" x="71.05" y="-469.45" font-family="Times New Roman,serif" font-size="14.00" fill="blue">PAKGGEXPTRNSCN:Current Transfers</text>
</a>
</g>
</g>
<!-- PAKGGEXPTRNSCN&#45;&gt;PAKNECONPRVTKN -->
<g id="edge2" class="edge">
<title>PAKGGEXPTRNSCN-&gt;PAKNECONPRVTKN</title>
<g id="a_edge2"><a xlink:href="bogus" xlink:title=" PAKGGEXPTRNSCN -&gt; PAKNECONPRVTKN Min. att. -114%  max: 31%">
<path fill="none" stroke="black" stroke-width="8" d="M300.5,-465.73C322.64,-461.69 345.24,-455.87 365.6,-447.5 410.62,-428.99 454.61,-393.85 482.61,-368.68"/>
<polygon fill="black" stroke="black" stroke-width="8" points="486.69,-373.83 489.31,-361.91 477.21,-363.54 486.69,-373.83"/>
</a>
</g>
</g>
<!-- PAKBMFSTREMTCD -->
<g id="node5" class="node">
<title>PAKBMFSTREMTCD</title>
<g id="a_node5"><a xlink:title="Imp., Remittances (BOP), US$ mn
FRML &lt;DAMP,STOC&gt; PAKBMFSTREMTCD = (PAKBMFSTREMTCD_A*PAKNYGDPMKTPCD+PAKNYGDPMKTPCD* (5.83179728399106E-05) ) * (1-PAKBMFSTREMTCD_D)+ PAKBMFSTREMTCD_X*PAKBMFSTREMTCD_D  $">
<polygon fill="#63b8ff" stroke="black" points="351.35,-438.5 14.25,-438.5 14.25,-402.5 351.35,-402.5 351.35,-438.5"/>
<text text-anchor="start" x="20.05" y="-415.45" font-family="Times New Roman,serif" font-size="14.00" fill="blue">PAKBMFSTREMTCD:Imp., Remittances (BOP), US$ mn</text>
</a>
</g>
</g>
<!-- PAKBMFSTREMTCD&#45;&gt;PAKNECONPRVTKN -->
<g id="edge8" class="edge">
<title>PAKBMFSTREMTCD-&gt;PAKNECONPRVTKN</title>
<g id="a_edge8"><a xlink:href="bogus" xlink:title=" PAKBMFSTREMTCD -&gt; PAKNECONPRVTKN Min. att. -0%  max: 1%">
<path fill="none" stroke="black" d="M327.26,-402C340.29,-399.48 353.23,-396.65 365.6,-393.5 397.57,-385.36 432.26,-372.83 459.94,-361.89"/>
<polygon fill="black" stroke="black" points="460.82,-364.91 468.81,-357.94 458.22,-358.41 460.82,-364.91"/>
</a>
</g>
</g>
<!-- PAKNECONPRVTKN_D -->
<g id="node6" class="node">
<title>PAKNECONPRVTKN_D</title>
<g id="a_node6"><a xlink:title="Fix dummy:HH. Cons Real
Exogen">
<polygon fill="yellow" stroke="black" points="337.48,-384.5 28.12,-384.5 28.12,-348.5 337.48,-348.5 337.48,-384.5"/>
<text text-anchor="start" x="33.93" y="-361.45" font-family="Times New Roman,serif" font-size="14.00" fill="blue">PAKNECONPRVTKN_D:Fix dummy:HH. Cons Real</text>
</a>
</g>
</g>
<!-- PAKNECONPRVTKN_D&#45;&gt;PAKNECONPRVTKN -->
<g id="edge7" class="edge">
<title>PAKNECONPRVTKN_D-&gt;PAKNECONPRVTKN</title>
<g id="a_edge7"><a xlink:href="bogus" xlink:title=" PAKNECONPRVTKN_D -&gt; PAKNECONPRVTKN Min. att. -0%  max: 0%">
<path fill="none" stroke="black" d="M337.75,-353.87C355.48,-352.41 373.38,-350.95 390.61,-349.53"/>
<polygon fill="black" stroke="black" points="390.57,-352.97 400.25,-348.66 390,-345.99 390.57,-352.97"/>
</a>
</g>
</g>
<!-- PAKGGREVDRCTXN -->
<g id="node7" class="node">
<title>PAKGGREVDRCTXN</title>
<g id="a_node7"><a xlink:title="Direct Revenue Tax Rate
Exogen">
<polygon fill="yellow" stroke="black" points="322.85,-330.5 42.75,-330.5 42.75,-294.5 322.85,-294.5 322.85,-330.5"/>
<text text-anchor="start" x="48.55" y="-307.45" font-family="Times New Roman,serif" font-size="14.00" fill="blue">PAKGGREVDRCTXN:Direct Revenue Tax Rate</text>
</a>
</g>
</g>
<!-- PAKGGREVDRCTXN&#45;&gt;PAKNECONPRVTKN -->
<g id="edge12" class="edge">
<title>PAKGGREVDRCTXN-&gt;PAKNECONPRVTKN</title>
<g id="a_edge12"><a xlink:href="bogus" xlink:title=" PAKGGREVDRCTXN -&gt; PAKNECONPRVTKN Min. att. -0%  max: 0%">
<path fill="none" stroke="black" d="M322.89,-323.91C345.35,-325.75 368.47,-327.65 390.5,-329.46"/>
<polygon fill="black" stroke="black" points="389.96,-333.01 400.22,-330.34 390.54,-326.03 389.96,-333.01"/>
</a>
</g>
</g>
<!-- PAKNECONPRVTXN -->
<g id="node8" class="node">
<title>PAKNECONPRVTXN</title>
<g id="a_node8"><a xlink:title="Implicit LCU defl., Pvt. Cons., 2000 = 1
FRML &lt;IDENT&gt; PAKNECONPRVTXN = ((PAKNECONENGYSH**PAKCESENGYCON)*PAKNECONENGYXN**(1-PAKCESENGYCON)+(PAKNECONOTHRSH**PAKCESENGYCON)*PAKNECONOTHRXN**(1-PAKCESENGYCON))**(1/(1-PAKCESENGYCON)) $">
<polygon fill="#63b8ff" stroke="black" points="365.6,-276.5 0,-276.5 0,-240.5 365.6,-240.5 365.6,-276.5"/>
<text text-anchor="start" x="5.8" y="-253.45" font-family="Times New Roman,serif" font-size="14.00" fill="blue">PAKNECONPRVTXN:Implicit LCU defl., Pvt. Cons., 2000 = 1</text>
</a>
</g>
</g>
<!-- PAKNECONPRVTXN&#45;&gt;PAKNECONPRVTKN -->
<g id="edge3" class="edge">
<title>PAKNECONPRVTXN-&gt;PAKNECONPRVTKN</title>
<g id="a_edge3"><a xlink:href="bogus" xlink:title=" PAKNECONPRVTXN -&gt; PAKNECONPRVTKN Min. att. -1573%  max: 5702%">
<path fill="none" stroke="black" stroke-width="8" d="M327.26,-277C340.29,-279.52 353.23,-282.35 365.6,-285.5 395.75,-293.18 428.32,-304.76 455.14,-315.22"/>
<polygon fill="black" stroke="black" stroke-width="8" points="451.93,-321.86 463.81,-319.06 457.1,-308.85 451.93,-321.86"/>
</a>
</g>
</g>
<!-- PAKNYYWBTOTLCN -->
<g id="node10" class="node">
<title>PAKNYYWBTOTLCN</title>
<g id="a_node10"><a xlink:title="Total Wage Bill
FRML &lt;IDENT&gt; PAKNYYWBTOTLCN = PAKNYWRTTOTLCN*PAKLMEMPTOTLCN $">
<polygon fill="#63b8ff" stroke="black" points="298.85,-222.5 66.75,-222.5 66.75,-186.5 298.85,-186.5 298.85,-222.5"/>
<text text-anchor="start" x="72.55" y="-199.45" font-family="Times New Roman,serif" font-size="14.00" fill="blue">PAKNYYWBTOTLCN:Total Wage Bill</text>
</a>
</g>
</g>
<!-- PAKNYYWBTOTLCN&#45;&gt;PAKNECONPRVTKN -->
<g id="edge10" class="edge">
<title>PAKNYYWBTOTLCN-&gt;PAKNECONPRVTKN</title>
<g id="a_edge10"><a xlink:href="bogus" xlink:title=" PAKNYYWBTOTLCN -&gt; PAKNECONPRVTKN Min. att. -4565%  max: 1280%">
<path fill="none" stroke="black" stroke-width="8" d="M299.06,-213.01C321.66,-217.06 344.79,-222.95 365.6,-231.5 410.62,-250.01 454.61,-285.15 482.61,-310.32"/>
<polygon fill="black" stroke="black" stroke-width="8" points="477.21,-315.46 489.31,-317.09 486.69,-305.17 477.21,-315.46"/>
</a>
</g>
</g>
<!-- PAKBXFSTREMTCD -->
<g id="node11" class="node">
<title>PAKBXFSTREMTCD</title>
<g id="a_node11"><a xlink:title="Exp., Remittances (BOP), US$ mn
FRML &lt;DAMP,STOC&gt; PAKBXFSTREMTCD = (PAKBXFSTREMTCD_A*PAKNYGDPMKTPCD+PAKNYGDPMKTPCD* (0.053028373687723) ) * (1-PAKBXFSTREMTCD_D)+ PAKBXFSTREMTCD_X*PAKBXFSTREMTCD_D  $">
<polygon fill="#63b8ff" stroke="black" points="349.48,-168.5 16.12,-168.5 16.12,-132.5 349.48,-132.5 349.48,-168.5"/>
<text text-anchor="start" x="21.93" y="-145.45" font-family="Times New Roman,serif" font-size="14.00" fill="blue">PAKBXFSTREMTCD:Exp., Remittances (BOP), US$ mn</text>
</a>
</g>
</g>
<!-- PAKBXFSTREMTCD&#45;&gt;PAKNECONPRVTKN -->
<g id="edge11" class="edge">
<title>PAKBXFSTREMTCD-&gt;PAKNECONPRVTKN</title>
<g id="a_edge11"><a xlink:href="bogus" xlink:title=" PAKBXFSTREMTCD -&gt; PAKNECONPRVTKN Min. att. -534%  max: 149%">
<path fill="none" stroke="black" stroke-width="8" d="M346.73,-168.83C353.23,-171.39 359.55,-174.27 365.6,-177.5 422.87,-208.06 469.28,-269.93 493.83,-307.74"/>
<polygon fill="black" stroke="black" stroke-width="8" points="488.04,-311.44 499.29,-316.17 499.88,-303.98 488.04,-311.44"/>
</a>
</g>
</g>
<!-- PAKPANUSATLS -->
<g id="node12" class="node">
<title>PAKPANUSATLS</title>
<g id="a_node12"><a xlink:title="Exchange rate LCU / US$ - Pakistan
FRML &lt;DAMP,STOC&gt; PAKPANUSATLS = (PAKPANUSATLS(-1)*EXP(PAKPANUSATLS_A+ ((0.295032006650061*((USAINTRXN/100-(( (100 * ( (USANECONPRVTXN) / (USANECONPRVTXN(-1)) -1)) /100+ (100 * ( (USANECONPRVTXN(-1)) / (USANECONPRVTXN(-2)) -1)) /100+ (100 * ( (USANECONPRVTXN(-2)) / (USANECONPRVTXN(-3)) -1)) /100+ (100 * ( (USANECONPRVTXN(-3)) / (USANECONPRVTXN(-4)) -1)) /100)/4.0))-(PAKMPPOLNATRXN/100-PAKINFLEXPT/100))+0.0745339074046556*( (100 * ( (USANECONPRVTXN) / (USANECONPRVTXN(-1)) -1)) /100- (100 * ( (PAKNECONPRVTXN) / (PAKNECONPRVTXN(-1)) -1)) /100))+0.204055946624338*DURING_2009+0.0213) )) * (1-PAKPANUSATLS_D)+ PAKPANUSATLS_X*PAKPANUSATLS_D  $">
<polygon fill="#63b8ff" stroke="black" points="341.98,-114.5 23.62,-114.5 23.62,-78.5 341.98,-78.5 341.98,-114.5"/>
<text text-anchor="start" x="29.43" y="-91.45" font-family="Times New Roman,serif" font-size="14.00" fill="blue">PAKPANUSATLS:Exchange rate LCU / US$ - Pakistan</text>
</a>
</g>
</g>
<!-- PAKPANUSATLS&#45;&gt;PAKNECONPRVTKN -->
<g id="edge4" class="edge">
<title>PAKPANUSATLS-&gt;PAKNECONPRVTKN</title>
<g id="a_edge4"><a xlink:href="bogus" xlink:title=" PAKPANUSATLS -&gt; PAKNECONPRVTKN Min. att. -12%  max: 42%">
<path fill="none" stroke="black" stroke-width="4.16" d="M342.44,-111.68C350.52,-115.01 358.3,-118.92 365.6,-123.5 435.4,-167.25 480.26,-257.52 500.47,-306.37"/>
<polygon fill="black" stroke="black" stroke-width="4.16" points="497.3,-308.27 504.37,-316.22 504.06,-305.59 497.3,-308.27"/>
</a>
</g>
</g>
<!-- DURING_2009 -->
<g id="node13" class="node">
<title>DURING_2009</title>
<g id="a_node13"><a xlink:title="DURING_2009
Exogen">
<polygon fill="yellow" stroke="black" points="233.6,-60.5 132,-60.5 132,-24.5 233.6,-24.5 233.6,-60.5"/>
<text text-anchor="start" x="137.8" y="-37.45" font-family="Times New Roman,serif" font-size="14.00" fill="blue">DURING_2009:</text>
</a>
</g>
</g>
<!-- DURING_2009&#45;&gt;PAKNECONPRVTKN -->
<g id="edge6" class="edge">
<title>DURING_2009-&gt;PAKNECONPRVTKN</title>
<g id="a_edge6"><a xlink:href="bogus" xlink:title=" DURING_2009 -&gt; PAKNECONPRVTKN Min. att. -0%  max: 0%">
<path fill="none" stroke="black" d="M234.09,-38.41C273.27,-37.77 327.27,-42.74 365.6,-69.5 450.98,-129.1 491.75,-254.56 506.34,-310.97"/>
<polygon fill="black" stroke="black" points="503.1,-311.43 508.91,-320.29 509.89,-309.74 503.1,-311.43"/>
</a>
</g>
</g>
</g>
</svg>