<svg xmlns="http://www.w3.org/2000/svg" xmlns:xlink="http://www.w3.org/1999/xlink" width="432pt" height="377pt" viewBox="0.00 0.00 432.00 377.23">
<g id="graph0" class="graph" transform="scale(0.382979 0.382979) rotate(0) translate(4 981)">
<title>TD</title>
<polygon fill="white" stroke="none" points="-4,4 -4,-981 1124,-981 1124,4 -4,4"/>
<text text-anchor="middle" x="560" y="-7.8" font-family="Times New Roman,serif" font-size="14.00">PAKNECONPRVTKN</text>
<!-- PAKSMINDOTHRTKN -->
<g id="node1" class="node">
<title>PAKSMINDOTHRTKN</title>
<g id="a_node1"><a xlink:title="PAKSMINDOTHRTKN
FRML  &lt;&gt; PAKSMINDOTHRTKN = ((1+0.483473985412524)*(0.40172973397176*PAKNECONPRVTKN+0*PAKNECONGOVTKN+0.560459287907094*PAKNEGDIFTOTKN+0.719299486591763*PAKNEEXPGNFSKN+0.620970563578771*PAKNEGDISTKBKN)-0.606734386430279*PAKNEIMPGNFSKN-0.866045585295928*PAKNYTAXNINDKN-2983275.63714814)/(1+2.46379868577176) $">
<polygon fill="#63b8ff" stroke="black" points="994,-977 843,-977 843,-941 994,-941 994,-977"/>
<text text-anchor="start" x="849.5" y="-954.8" font-family="Times New Roman,serif" font-size="14.00" fill="blue">PAKSMINDOTHRTKN:</text>
</a>
</g>
</g>
<!-- PAKNECONOTHRKN -->
<g id="node2" class="node">
<title>PAKNECONOTHRKN</title>
<g id="a_node2"><a xlink:title="Other Consumption
FRML  &lt;&gt; PAKNECONOTHRKN = PAKNECONOTHRSH**(PAKCESENGYCON)*(PAKNECONPRVTKN*(PAKNECONPRVTXN/PAKNECONOTHRXN)**(PAKCESENGYCON)) $">
<polygon fill="#63b8ff" stroke="black" points="1045,-923 792,-923 792,-887 1045,-887 1045,-923"/>
<text text-anchor="start" x="798.5" y="-900.8" font-family="Times New Roman,serif" font-size="14.00" fill="blue">PAKNECONOTHRKN:Other Consumption</text>
</a>
</g>
</g>
<!-- PAKSMSRVTRNSKN -->
<g id="node3" class="node">
<title>PAKSMSRVTRNSKN</title>
<g id="a_node3"><a xlink:title="PAKSMSRVTRNSKN
FRML  &lt;&gt; PAKSMSRVTRNSKN = ((1+0.301074862860981)*(0.204687752761289*PAKNECONPRVTKN+0*PAKNECONGOVTKN+0*PAKNEGDIFTOTKN+0.0551862611209703*PAKNEEXPGNFSKN+0*PAKNEGDISTKBKN)--0.0392641863572605*PAKNEIMPGNFSKN-0.0174996684619017*PAKNYTAXNINDKN-0)/(1+1.11680986862739) $">
<polygon fill="#63b8ff" stroke="black" points="989.5,-869 847.5,-869 847.5,-833 989.5,-833 989.5,-869"/>
<text text-anchor="start" x="853.5" y="-846.8" font-family="Times New Roman,serif" font-size="14.00" fill="blue">PAKSMSRVTRNSKN:</text>
</a>
</g>
</g>
<!-- PAKNECONPRVTKN_A -->
<g id="node4" class="node">
<title>PAKNECONPRVTKN_A</title>
<g id="a_node4"><a xlink:title="Add factor:Household Consumption
Exogen">
<polygon fill="yellow" stroke="black" points="362,-707 5,-707 5,-671 362,-671 362,-707"/>
<text text-anchor="start" x="11.5" y="-684.8" font-family="Times New Roman,serif" font-size="14.00" fill="blue">PAKNECONPRVTKN_A:Add factor:Household Consumption</text>
</a>
</g>
</g>
<!-- PAKNECONPRVTKN -->
<g id="node24" class="node">
<title>PAKNECONPRVTKN</title>
<g id="a_node24"><a xlink:title="Household Consumption
FRML &lt;Z,EXO&gt; PAKNECONPRVTKN = (PAKNECONPRVTKN(-1)*EXP(-PAKNECONPRVTKN_A+ (-0.2*(LOG(PAKNECONPRVTKN(-1))-LOG((PAKNYYWBTOTLCN(-1)*(1-PAKGGREVDRCTXN(-1)/100))/PAKNECONPRVTXN(-1)))+1*((LOG((PAKNYYWBTOTLCN*(1-PAKGGREVDRCTXN/100))/PAKNECONPRVTXN))-(LOG((PAKNYYWBTOTLCN(-1)*(1-PAKGGREVDRCTXN(-1)/100))/PAKNECONPRVTXN(-1))))+0.0303228629698929+0.0163839011059956*DURING_2010-0.3*(PAKFMLBLPOLYXN/100-((LOG(PAKNECONPRVTXN))-(LOG(PAKNECONPRVTXN(-1)))))) )) * (1-PAKNECONPRVTKN_D)+ PAKNECONPRVTKN_X*PAKNECONPRVTKN_D  $">
<polygon fill="red" stroke="black" points="681,-518 403,-518 403,-482 681,-482 681,-518"/>
<text text-anchor="start" x="409" y="-495.8" font-family="Times New Roman,serif" font-size="14.00" fill="blue">PAKNECONPRVTKN:Household Consumption</text>
</a>
</g>
</g>
<!-- PAKNECONPRVTKN_A&#45;&gt;PAKNECONPRVTKN -->
<g id="edge18" class="edge">
<title>PAKNECONPRVTKN_A-&gt;PAKNECONPRVTKN</title>
<g id="a_edge18"><a xlink:href="bogus" xlink:title=" PAKNECONPRVTKN_A -&gt; PAKNECONPRVTKN Min. att. -0%  max: 0%">
<path fill="none" stroke="black" d="M346.35,-670.55C353.44,-668.03 360.36,-665.19 367,-662 433.18,-630.17 491.42,-564.33 520.78,-527.13"/>
<polygon fill="black" stroke="black" points="523.32,-529.57 526.69,-519.53 517.79,-525.28 523.32,-529.57"/>
</a>
</g>
</g>
<!-- PAKFMLBLPOLYXN -->
<g id="node5" class="node">
<title>PAKFMLBLPOLYXN</title>
<g id="a_node5"><a xlink:title="Policy Rate
FRML &lt;Z,EXO&gt; PAKFMLBLPOLYXN = (-100*PAKFMLBLPOLYXN_A+100* (0.905129162122953*PAKFMLBLPOLYXN(-1)/100+(1-0.905129162122953)*(PAKMPPOLNATRXN/100+1.2*(((LOG(PAKNECONPRVTXN))-(LOG(PAKNECONPRVTXN(-1))))-PAKINFLEXPT/100)+0.5*PAKNYGDPGAP_/100)) ) * (1-PAKFMLBLPOLYXN_D)+ PAKFMLBLPOLYXN_X*PAKFMLBLPOLYXN_D  $">
<polygon fill="#63b8ff" stroke="black" points="286,-653 81,-653 81,-617 286,-617 286,-653"/>
<text text-anchor="start" x="87.5" y="-630.8" font-family="Times New Roman,serif" font-size="14.00" fill="blue">PAKFMLBLPOLYXN:Policy Rate</text>
</a>
</g>
</g>
<!-- PAKFMLBLPOLYXN&#45;&gt;PAKNECONPRVTKN -->
<g id="edge22" class="edge">
<title>PAKFMLBLPOLYXN-&gt;PAKNECONPRVTKN</title>
<g id="a_edge22"><a xlink:href="bogus" xlink:title=" PAKFMLBLPOLYXN -&gt; PAKNECONPRVTKN Min. att. -160%  max: 20%">
<path fill="none" stroke="black" stroke-width="8" d="M286.26,-627.42C313.07,-623.42 341.59,-617.31 367,-608 418.7,-589.06 471.53,-553.51 505.2,-528.38"/>
<polygon fill="black" stroke="black" stroke-width="8" points="509.14,-534.18 512.85,-522.55 500.65,-523.04 509.14,-534.18"/>
</a>
</g>
</g>
<!-- PAKNECONPRVTXN -->
<g id="node6" class="node">
<title>PAKNECONPRVTXN</title>
<g id="a_node6"><a xlink:title="Household demand
FRML  &lt;&gt; PAKNECONPRVTXN = ((PAKNECONENGYSH**PAKCESENGYCON)*PAKNECONENGYXN**(1-PAKCESENGYCON)+(PAKNECONOTHRSH**PAKCESENGYCON)*PAKNECONOTHRXN**(1-PAKCESENGYCON))**(1/(1-PAKCESENGYCON)) $">
<polygon fill="#63b8ff" stroke="black" points="307.5,-599 59.5,-599 59.5,-563 307.5,-563 307.5,-599"/>
<text text-anchor="start" x="65.5" y="-576.8" font-family="Times New Roman,serif" font-size="14.00" fill="blue">PAKNECONPRVTXN:Household demand</text>
</a>
</g>
</g>
<!-- PAKNECONPRVTXN&#45;&gt;PAKNECONPRVTKN -->
<g id="edge10" class="edge">
<title>PAKNECONPRVTXN-&gt;PAKNECONPRVTKN</title>
<g id="a_edge10"><a xlink:href="bogus" xlink:title=" PAKNECONPRVTXN -&gt; PAKNECONPRVTKN Min. att. -5708%  max: 593%">
<path fill="none" stroke="black" stroke-width="8" d="M307.69,-565.42C327.62,-562.14 347.95,-558.34 367,-554 402.45,-545.93 441.15,-534.21 473.04,-523.76"/>
<polygon fill="black" stroke="black" stroke-width="8" points="475.14,-530.44 482.42,-520.64 470.72,-517.15 475.14,-530.44"/>
</a>
</g>
</g>
<!-- PAKNECONPRVTKN_X -->
<g id="node7" class="node">
<title>PAKNECONPRVTKN_X</title>
<g id="a_node7"><a xlink:title="Exo value:Household Consumption
Exogen">
<polygon fill="yellow" stroke="black" points="360,-545 7,-545 7,-509 360,-509 360,-545"/>
<text text-anchor="start" x="13.5" y="-522.8" font-family="Times New Roman,serif" font-size="14.00" fill="blue">PAKNECONPRVTKN_X:Exo value:Household Consumption</text>
</a>
</g>
</g>
<!-- PAKNECONPRVTKN_X&#45;&gt;PAKNECONPRVTKN -->
<g id="edge23" class="edge">
<title>PAKNECONPRVTKN_X-&gt;PAKNECONPRVTKN</title>
<g id="a_edge23"><a xlink:href="bogus" xlink:title=" PAKNECONPRVTKN_X -&gt; PAKNECONPRVTKN Min. att. -0%  max: 0%">
<path fill="none" stroke="black" d="M360.4,-513.68C370.67,-512.9 380.95,-512.12 391.1,-511.35"/>
<polygon fill="black" stroke="black" points="391.29,-514.85 401,-510.6 390.76,-507.87 391.29,-514.85"/>
</a>
</g>
</g>
<!-- PAKSMINDMNGSKN -->
<g id="node8" class="node">
<title>PAKSMINDMNGSKN</title>
<g id="a_node8"><a xlink:title="PAKSMINDMNGSKN
FRML  &lt;&gt; PAKSMINDMNGSKN = ((1+6.96158341862144)*(0.0132800565666619*PAKNECONPRVTKN+0*PAKNECONGOVTKN+0*PAKNEGDIFTOTKN+0.00704674623894759*PAKNEEXPGNFSKN+0.024122890632682*PAKNEGDISTKBKN)-0.134221966110302*PAKNEIMPGNFSKN-0.500981557895139*PAKNYTAXNINDKN-123652.869264758)/(1+0.200800622280983) $">
<polygon fill="#63b8ff" stroke="black" points="991.5,-815 845.5,-815 845.5,-779 991.5,-779 991.5,-815"/>
<text text-anchor="start" x="851.5" y="-792.8" font-family="Times New Roman,serif" font-size="14.00" fill="blue">PAKSMINDMNGSKN:</text>
</a>
</g>
</g>
<!-- PAKNYYWBTOTLCN -->
<g id="node9" class="node">
<title>PAKNYYWBTOTLCN</title>
<g id="a_node9"><a xlink:title="Economy-wide wage bill
FRML  &lt;&gt; PAKNYYWBTOTLCN = PAKNYWRTTOTLCN*PAKLMEMPTOTLCN $">
<polygon fill="#63b8ff" stroke="black" points="326,-491 41,-491 41,-455 326,-455 326,-491"/>
<text text-anchor="start" x="47.5" y="-468.8" font-family="Times New Roman,serif" font-size="14.00" fill="blue">PAKNYYWBTOTLCN:Economy-wide wage bill</text>
</a>
</g>
</g>
<!-- PAKNYYWBTOTLCN&#45;&gt;PAKNECONPRVTKN -->
<g id="edge15" class="edge">
<title>PAKNYYWBTOTLCN-&gt;PAKNECONPRVTKN</title>
<g id="a_edge15"><a xlink:href="bogus" xlink:title=" PAKNYYWBTOTLCN -&gt; PAKNECONPRVTKN Min. att. -594%  max: 5823%">
<path fill="none" stroke="black" stroke-width="8" d="M326.42,-483.75C345.97,-485.23 366.12,-486.76 385.89,-488.25"/>
<polygon fill="black" stroke="black" stroke-width="8" points="385.31,-495.23 395.81,-489 386.36,-481.27 385.31,-495.23"/>
</a>
</g>
</g>
<!-- PAKSMINDCNSTKN -->
<g id="node10" class="node">
<title>PAKSMINDCNSTKN</title>
<g id="a_node10"><a xlink:title="PAKSMINDCNSTKN
FRML  &lt;&gt; PAKSMINDCNSTKN = ((1+0.0370651228196874)*(0*PAKNECONPRVTKN+0*PAKNECONGOVTKN+0.433487212699245*PAKNEGDIFTOTKN+0.00170061231445462*PAKNEEXPGNFSKN+0.0166541213494276*PAKNEGDISTKBKN)-0.00444968266528859*PAKNEIMPGNFSKN-0*PAKNYTAXNINDKN-55116.3653855153)/(1+1.91367284458402) $">
<polygon fill="#63b8ff" stroke="black" points="989,-761 848,-761 848,-725 989,-725 989,-761"/>
<text text-anchor="start" x="854.5" y="-738.8" font-family="Times New Roman,serif" font-size="14.00" fill="blue">PAKSMINDCNSTKN:</text>
</a>
</g>
</g>
<!-- PAKSMAGRFSNGKN -->
<g id="node11" class="node">
<title>PAKSMAGRFSNGKN</title>
<g id="a_node11"><a xlink:title="PAKSMAGRFSNGKN
FRML  &lt;&gt; PAKSMAGRFSNGKN = ((1+1.92407325889309)*(0.00246195499563977*PAKNECONPRVTKN+0*PAKNECONGOVTKN+0*PAKNEGDIFTOTKN+0.00130433854799597*PAKNEEXPGNFSKN+0.00497657560072267*PAKNEGDISTKBKN)-1.14989260682794E-05*PAKNEIMPGNFSKN-2.46467171367829E-07*PAKNYTAXNINDKN-26993)/(1+0.506095544048804) $">
<polygon fill="#63b8ff" stroke="black" points="991,-707 846,-707 846,-671 991,-671 991,-707"/>
<text text-anchor="start" x="852.5" y="-684.8" font-family="Times New Roman,serif" font-size="14.00" fill="blue">PAKSMAGRFSNGKN:</text>
</a>
</g>
</g>
<!-- PAKSMAGRFSTYKN -->
<g id="node12" class="node">
<title>PAKSMAGRFSTYKN</title>
<g id="a_node12"><a xlink:title="PAKSMAGRFSTYKN
FRML  &lt;&gt; PAKSMAGRFSTYKN = ((1+0.195965019358753)*(0.010131919293849*PAKNECONPRVTKN+0*PAKNECONGOVTKN+0*PAKNEGDIFTOTKN+0.000136733767007103*PAKNEEXPGNFSKN+0.0199955288980741*PAKNEGDISTKBKN)-0.00076829563200478*PAKNEIMPGNFSKN-0.00172030587371022*PAKNYTAXNINDKN-65421)/(1+0.319587584852584) $">
<polygon fill="#63b8ff" stroke="black" points="990.5,-653 846.5,-653 846.5,-617 990.5,-617 990.5,-653"/>
<text text-anchor="start" x="852.5" y="-630.8" font-family="Times New Roman,serif" font-size="14.00" fill="blue">PAKSMAGRFSTYKN:</text>
</a>
</g>
</g>
<!-- PAKSMSRVGOVSKN -->
<g id="node13" class="node">
<title>PAKSMSRVGOVSKN</title>
<g id="a_node13"><a xlink:title="PAKSMSRVGOVSKN
FRML  &lt;&gt; PAKSMSRVGOVSKN = ((1+0)*(0*PAKNECONPRVTKN+0.789129947325563*PAKNECONGOVTKN+0*PAKNEGDIFTOTKN+0*PAKNEEXPGNFSKN+0*PAKNEGDISTKBKN)-0*PAKNEIMPGNFSKN-0*PAKNYTAXNINDKN-0)/(1+0.947258014252215) $">
<polygon fill="#63b8ff" stroke="black" points="991,-599 846,-599 846,-563 991,-563 991,-599"/>
<text text-anchor="start" x="852.5" y="-576.8" font-family="Times New Roman,serif" font-size="14.00" fill="blue">PAKSMSRVGOVSKN:</text>
</a>
</g>
</g>
<!-- DURING_2010 -->
<g id="node14" class="node">
<title>DURING_2010</title>
<g id="a_node14"><a xlink:title="DURING_2010
Exogen">
<polygon fill="yellow" stroke="black" points="235,-437 132,-437 132,-401 235,-401 235,-437"/>
<text text-anchor="start" x="138.5" y="-414.8" font-family="Times New Roman,serif" font-size="14.00" fill="blue">DURING_2010:</text>
</a>
</g>
</g>
<!-- DURING_2010&#45;&gt;PAKNECONPRVTKN -->
<g id="edge21" class="edge">
<title>DURING_2010-&gt;PAKNECONPRVTKN</title>
<g id="a_edge21"><a xlink:href="bogus" xlink:title=" DURING_2010 -&gt; PAKNECONPRVTKN Min. att. -0%  max: 0%">
<path fill="none" stroke="black" d="M235.24,-424.38C272.08,-428.8 322.97,-435.97 367,-446 404.41,-454.52 445.43,-467.09 478.24,-477.95"/>
<polygon fill="black" stroke="black" points="477,-481.23 487.6,-481.09 479.23,-474.59 477,-481.23"/>
</a>
</g>
</g>
<!-- PAKNECONPRVTKN_D -->
<g id="node15" class="node">
<title>PAKNECONPRVTKN_D</title>
<g id="a_node15"><a xlink:title="Exo dummy:Household Consumption
Exogen">
<polygon fill="yellow" stroke="black" points="367,-383 0,-383 0,-347 367,-347 367,-383"/>
<text text-anchor="start" x="6.5" y="-360.8" font-family="Times New Roman,serif" font-size="14.00" fill="blue">PAKNECONPRVTKN_D:Exo dummy:Household Consumption</text>
</a>
</g>
</g>
<!-- PAKNECONPRVTKN_D&#45;&gt;PAKNECONPRVTKN -->
<g id="edge2" class="edge">
<title>PAKNECONPRVTKN_D-&gt;PAKNECONPRVTKN</title>
<g id="a_edge2"><a xlink:href="bogus" xlink:title=" PAKNECONPRVTKN_D -&gt; PAKNECONPRVTKN Min. att. -0%  max: 0%">
<path fill="none" stroke="black" d="M339.45,-383.37C348.88,-385.89 358.13,-388.75 367,-392 421.01,-411.79 476.25,-449.7 509.59,-474.93"/>
<polygon fill="black" stroke="black" points="507.13,-477.45 517.2,-480.76 511.39,-471.89 507.13,-477.45"/>
</a>
</g>
</g>
<!-- PAKNYGDPMKTPKN -->
<g id="node16" class="node">
<title>PAKNYGDPMKTPKN</title>
<g id="a_node16"><a xlink:title="GDP Expenditure side at market prices
FRML  &lt;&gt; PAKNYGDPMKTPKN = PAKNECONPRVTKN+PAKNECONGOVTKN+PAKNEGDIFTOTKN+PAKNEGDISTKBKN+PAKNEEXPGNFSKN-PAKNEIMPGNFSKN+PAKNYGDPDISCKN+PAKADAP*PAKDISPREPKN $">
<polygon fill="#63b8ff" stroke="black" points="1099,-545 738,-545 738,-509 1099,-509 1099,-545"/>
<text text-anchor="start" x="744.5" y="-522.8" font-family="Times New Roman,serif" font-size="14.00" fill="blue">PAKNYGDPMKTPKN:GDP Expenditure side at market prices</text>
</a>
</g>
</g>
<!-- PAKNECONENGYKN -->
<g id="node17" class="node">
<title>PAKNECONENGYKN</title>
<g id="a_node17"><a xlink:title="Energy Consumption
FRML  &lt;&gt; PAKNECONENGYKN = PAKNECONENGYSH**(PAKCESENGYCON)*(PAKNECONPRVTKN*(PAKNECONPRVTXN/PAKNECONENGYXN)**(PAKCESENGYCON)) $">
<polygon fill="#63b8ff" stroke="black" points="1049.5,-491 787.5,-491 787.5,-455 1049.5,-455 1049.5,-491"/>
<text text-anchor="start" x="793.5" y="-468.8" font-family="Times New Roman,serif" font-size="14.00" fill="blue">PAKNECONENGYKN:Energy Consumption</text>
</a>
</g>
</g>
<!-- PAKSMSRVHSNGKN -->
<g id="node18" class="node">
<title>PAKSMSRVHSNGKN</title>
<g id="a_node18"><a xlink:title="PAKSMSRVHSNGKN
FRML  &lt;&gt; PAKSMSRVHSNGKN = ((1+0.782809577554843)*(0.0647364660896117*PAKNECONPRVTKN+0*PAKNECONGOVTKN+0.00605333595533851*PAKNEGDIFTOTKN+0.03048358523237*PAKNEEXPGNFSKN+0*PAKNEGDISTKBKN)-0.0244768173208691*PAKNEIMPGNFSKN-0.0684093628903126*PAKNYTAXNINDKN-0)/(1+0.150771193398883) $">
<polygon fill="#63b8ff" stroke="black" points="991,-437 846,-437 846,-401 991,-401 991,-437"/>
<text text-anchor="start" x="852.5" y="-414.8" font-family="Times New Roman,serif" font-size="14.00" fill="blue">PAKSMSRVHSNGKN:</text>
</a>
</g>
</g>
<!-- PAKNECONPRVTCN -->
<g id="node19" class="node">
<title>PAKNECONPRVTCN</title>
<g id="a_node19"><a xlink:title="Household demand
FRML  &lt;&gt; PAKNECONPRVTCN = PAKNECONPRVTKN*PAKNECONPRVTXN $">
<polygon fill="#63b8ff" stroke="black" points="1042,-383 795,-383 795,-347 1042,-347 1042,-383"/>
<text text-anchor="start" x="801.5" y="-360.8" font-family="Times New Roman,serif" font-size="14.00" fill="blue">PAKNECONPRVTCN:Household demand</text>
</a>
</g>
</g>
<!-- PAKNEGDETTOTKN -->
<g id="node20" class="node">
<title>PAKNEGDETTOTKN</title>
<g id="a_node20"><a xlink:title="GDE
FRML  &lt;&gt; PAKNEGDETTOTKN = (PAKNECONPRVTKN+PAKNECONGOVTKN+PAKNEGDIFTOTKN+PAKNEGDISTKBKN+PAKNYGDPDISCKN) $">
<polygon fill="#63b8ff" stroke="black" points="1003.5,-329 833.5,-329 833.5,-293 1003.5,-293 1003.5,-329"/>
<text text-anchor="start" x="839.5" y="-306.8" font-family="Times New Roman,serif" font-size="14.00" fill="blue">PAKNEGDETTOTKN:GDE</text>
</a>
</g>
</g>
<!-- PAKGGREVDRCTXN -->
<g id="node21" class="node">
<title>PAKGGREVDRCTXN</title>
<g id="a_node21"><a xlink:title="Effective tax rates
Exogen">
<polygon fill="yellow" stroke="black" points="305.5,-329 61.5,-329 61.5,-293 305.5,-293 305.5,-329"/>
<text text-anchor="start" x="67.5" y="-306.8" font-family="Times New Roman,serif" font-size="14.00" fill="blue">PAKGGREVDRCTXN:Effective tax rates</text>
</a>
</g>
</g>
<!-- PAKGGREVDRCTXN&#45;&gt;PAKNECONPRVTKN -->
<g id="edge6" class="edge">
<title>PAKGGREVDRCTXN-&gt;PAKNECONPRVTKN</title>
<g id="a_edge6"><a xlink:href="bogus" xlink:title=" PAKGGREVDRCTXN -&gt; PAKNECONPRVTKN Min. att. -0%  max: 0%">
<path fill="none" stroke="black" d="M305.86,-318.5C326.92,-322.7 348.09,-328.91 367,-338 433.18,-369.83 491.42,-435.67 520.78,-472.87"/>
<polygon fill="black" stroke="black" points="517.79,-474.72 526.69,-480.47 523.32,-470.43 517.79,-474.72"/>
</a>
</g>
</g>
<!-- PAKSMAGRCRPSKN -->
<g id="node22" class="node">
<title>PAKSMAGRCRPSKN</title>
<g id="a_node22"><a xlink:title="PAKSMAGRCRPSKN
FRML  &lt;&gt; PAKSMAGRCRPSKN = ((1+2.09928590574241)*(0.144287620838506*PAKNECONPRVTKN+0*PAKNECONGOVTKN+0*PAKNEGDIFTOTKN+0.0572678299039023*PAKNEEXPGNFSKN+0.267381669083985*PAKNEGDISTKBKN)-0.0736247088197363*PAKNEIMPGNFSKN-0.0407034395686347*PAKNYTAXNINDKN-906311)/(1+0.396041694659877) $">
<polygon fill="#63b8ff" stroke="black" points="990.5,-275 846.5,-275 846.5,-239 990.5,-239 990.5,-275"/>
<text text-anchor="start" x="852.5" y="-252.8" font-family="Times New Roman,serif" font-size="14.00" fill="blue">PAKSMAGRCRPSKN:</text>
</a>
</g>
</g>
<!-- PAKNECONPRVTKN_FITTED -->
<g id="node23" class="node">
<title>PAKNECONPRVTKN_FITTED</title>
<g id="a_node23"><a xlink:title="Fitted  value:Household Consumption
FRML &lt;FIT&gt; PAKNECONPRVTKN_FITTED = PAKNECONPRVTKN(-1)*EXP( (-0.2*(LOG(PAKNECONPRVTKN(-1))-LOG((PAKNYYWBTOTLCN(-1)*(1-PAKGGREVDRCTXN(-1)/100))/PAKNECONPRVTXN(-1)))+1*((LOG((PAKNYYWBTOTLCN*(1-PAKGGREVDRCTXN/100))/PAKNECONPRVTXN))-(LOG((PAKNYYWBTOTLCN(-1)*(1-PAKGGREVDRCTXN(-1)/100))/PAKNECONPRVTXN(-1))))+0.0303228629698929+0.0163839011059956*DURING_2010-0.3*(PAKFMLBLPOLYXN/100-((LOG(PAKNECONPRVTXN))-(LOG(PAKNECONPRVTXN(-1)))))) ) $">
<polygon fill="#63b8ff" stroke="black" points="1120,-221 717,-221 717,-185 1120,-185 1120,-221"/>
<text text-anchor="start" x="723.5" y="-198.8" font-family="Times New Roman,serif" font-size="14.00" fill="blue">PAKNECONPRVTKN_FITTED:Fitted  value:Household Consumption</text>
</a>
</g>
</g>
<!-- PAKNECONPRVTKN&#45;&gt;PAKSMINDOTHRTKN -->
<g id="edge9" class="edge">
<title>PAKNECONPRVTKN-&gt;PAKSMINDOTHRTKN</title>
<g id="a_edge9"><a xlink:href="bogus" xlink:title=" PAKNECONPRVTKN -&gt; PAKSMINDOTHRTKN Min. att. -11779%  max: 971%">
<path fill="none" stroke="black" stroke-width="8" d="M544.13,-518.11C549.38,-585.52 577.53,-823.56 717,-932 747.54,-955.74 788.91,-964.05 826.14,-965.82"/>
<polygon fill="black" stroke="black" stroke-width="8" points="825.77,-972.81 835.93,-966.04 826.09,-958.81 825.77,-972.81"/>
</a>
</g>
</g>
<!-- PAKNECONPRVTKN&#45;&gt;PAKNECONOTHRKN -->
<g id="edge16" class="edge">
<title>PAKNECONPRVTKN-&gt;PAKNECONOTHRKN</title>
<g id="a_edge16"><a xlink:href="bogus" xlink:title=" PAKNECONPRVTKN -&gt; PAKNECONOTHRKN Min. att. -12062%  max: 323%">
<path fill="none" stroke="black" stroke-width="8" d="M545.29,-518.44C554.09,-580.86 591.81,-785.45 717,-878 734.08,-890.63 754.27,-898.79 775.16,-903.9"/>
<polygon fill="black" stroke="black" stroke-width="8" points="773.58,-910.72 784.79,-905.89 776.41,-897.01 773.58,-910.72"/>
</a>
</g>
</g>
<!-- PAKNECONPRVTKN&#45;&gt;PAKSMSRVTRNSKN -->
<g id="edge19" class="edge">
<title>PAKNECONPRVTKN-&gt;PAKSMSRVTRNSKN</title>
<g id="a_edge19"><a xlink:href="bogus" xlink:title=" PAKNECONPRVTKN -&gt; PAKSMSRVTRNSKN Min. att. 87%  max: 593%">
<path fill="none" stroke="black" stroke-width="8" d="M546.7,-518.19C559.21,-574.49 605.48,-746.73 717,-824 749.67,-846.64 792.64,-854.54 830.42,-856.3"/>
<polygon fill="black" stroke="black" stroke-width="8" points="830.21,-863.3 840.38,-856.55 830.55,-849.31 830.21,-863.3"/>
</a>
</g>
</g>
<!-- PAKNECONPRVTKN&#45;&gt;PAKSMINDMNGSKN -->
<g id="edge17" class="edge">
<title>PAKNECONPRVTKN-&gt;PAKSMINDMNGSKN</title>
<g id="a_edge17"><a xlink:href="bogus" xlink:title=" PAKNECONPRVTKN -&gt; PAKSMINDMNGSKN Min. att. -1229%  max: 1716%">
<path fill="none" stroke="black" stroke-width="8" d="M548.73,-518.36C565.42,-568.43 619.1,-707.79 717,-770 749.7,-790.78 791.45,-798.67 828.38,-800.91"/>
<polygon fill="black" stroke="black" stroke-width="8" points="827.99,-807.9 838.26,-801.3 828.55,-793.91 827.99,-807.9"/>
</a>
</g>
</g>
<!-- PAKNECONPRVTKN&#45;&gt;PAKSMINDCNSTKN -->
<g id="edge8" class="edge">
<title>PAKNECONPRVTKN-&gt;PAKSMINDCNSTKN</title>
<g id="a_edge8"><a xlink:href="bogus" xlink:title=" PAKNECONPRVTKN -&gt; PAKSMINDCNSTKN Min. att. 0%  max: 0%">
<path fill="none" stroke="black" d="M551.65,-518.4C572.92,-561.36 632.26,-668.24 717,-716 752.92,-736.25 798.07,-743.6 836.42,-745.63"/>
<polygon fill="black" stroke="black" points="835.92,-749.11 846.05,-746.02 836.2,-742.12 835.92,-749.11"/>
</a>
</g>
</g>
<!-- PAKNECONPRVTKN&#45;&gt;PAKSMAGRFSNGKN -->
<g id="edge5" class="edge">
<title>PAKNECONPRVTKN-&gt;PAKSMAGRFSNGKN</title>
<g id="a_edge5"><a xlink:href="bogus" xlink:title=" PAKNECONPRVTKN -&gt; PAKSMAGRFSNGKN Min. att. -29%  max: 170%">
<path fill="none" stroke="black" stroke-width="8" d="M556.34,-518.42C582.66,-553.16 644.99,-627.94 717,-662 751.54,-678.33 792.92,-685.66 829.1,-688.69"/>
<polygon fill="black" stroke="black" stroke-width="8" points="828.44,-695.66 838.89,-689.35 829.39,-681.69 828.44,-695.66"/>
</a>
</g>
</g>
<!-- PAKNECONPRVTKN&#45;&gt;PAKSMAGRFSTYKN -->
<g id="edge7" class="edge">
<title>PAKNECONPRVTKN-&gt;PAKSMAGRFSTYKN</title>
<g id="a_edge7"><a xlink:href="bogus" xlink:title=" PAKNECONPRVTKN -&gt; PAKSMAGRFSTYKN Min. att. 96%  max: 372%">
<path fill="none" stroke="black" stroke-width="8" d="M565.56,-518.43C597.26,-543.25 657.77,-586.74 717,-608 752.67,-620.81 793.9,-627.61 829.65,-631.2"/>
<polygon fill="black" stroke="black" stroke-width="8" points="828.66,-638.14 839.24,-632.06 829.9,-624.2 828.66,-638.14"/>
</a>
</g>
</g>
<!-- PAKNECONPRVTKN&#45;&gt;PAKSMSRVGOVSKN -->
<g id="edge1" class="edge">
<title>PAKNECONPRVTKN-&gt;PAKSMSRVGOVSKN</title>
<g id="a_edge1"><a xlink:href="bogus" xlink:title=" PAKNECONPRVTKN -&gt; PAKSMSRVGOVSKN Min. att. 0%  max: 0%">
<path fill="none" stroke="black" d="M594.55,-518.49C628.86,-530.17 675.15,-544.76 717,-554 755.23,-562.44 798.18,-568.65 834.49,-572.97"/>
<polygon fill="black" stroke="black" points="833.7,-576.4 844.03,-574.08 834.5,-569.45 833.7,-576.4"/>
</a>
</g>
</g>
<!-- PAKNECONPRVTKN&#45;&gt;PAKNYGDPMKTPKN -->
<g id="edge20" class="edge">
<title>PAKNECONPRVTKN-&gt;PAKNYGDPMKTPKN</title>
<g id="a_edge20"><a xlink:href="bogus" xlink:title=" PAKNECONPRVTKN -&gt; PAKNYGDPMKTPKN Min. att. -1557%  max: 290%">
<path fill="none" stroke="black" stroke-width="8" d="M681.39,-509.98C694.28,-510.91 707.5,-511.86 720.79,-512.82"/>
<polygon fill="black" stroke="black" stroke-width="8" points="720.2,-519.79 730.68,-513.53 721.21,-505.83 720.2,-519.79"/>
</a>
</g>
</g>
<!-- PAKNECONPRVTKN&#45;&gt;PAKNECONENGYKN -->
<g id="edge11" class="edge">
<title>PAKNECONPRVTKN-&gt;PAKNECONENGYKN</title>
<g id="a_edge11"><a xlink:href="bogus" xlink:title=" PAKNECONPRVTKN -&gt; PAKNECONENGYKN Min. att. -699%  max: 3894%">
<path fill="none" stroke="black" stroke-width="8" d="M681.39,-490.02C710.43,-487.93 741.17,-485.71 770.52,-483.6"/>
<polygon fill="black" stroke="black" stroke-width="8" points="770.71,-490.6 780.18,-482.9 769.7,-476.64 770.71,-490.6"/>
</a>
</g>
</g>
<!-- PAKNECONPRVTKN&#45;&gt;PAKSMSRVHSNGKN -->
<g id="edge24" class="edge">
<title>PAKNECONPRVTKN-&gt;PAKSMSRVHSNGKN</title>
<g id="a_edge24"><a xlink:href="bogus" xlink:title=" PAKNECONPRVTKN -&gt; PAKSMSRVHSNGKN Min. att. 34%  max: 147%">
<path fill="none" stroke="black" stroke-width="8" d="M594.55,-481.51C628.86,-469.83 675.15,-455.24 717,-446 753.25,-437.99 793.75,-431.99 828.81,-427.71"/>
<polygon fill="black" stroke="black" stroke-width="8" points="829.5,-434.68 838.61,-426.56 827.86,-420.77 829.5,-434.68"/>
</a>
</g>
</g>
<!-- PAKNECONPRVTKN&#45;&gt;PAKNECONPRVTCN -->
<g id="edge25" class="edge">
<title>PAKNECONPRVTKN-&gt;PAKNECONPRVTCN</title>
<g id="a_edge25"><a xlink:href="bogus" xlink:title=" PAKNECONPRVTKN -&gt; PAKNECONPRVTCN Min. att. -720%  max: 6450%">
<path fill="none" stroke="black" stroke-width="8" d="M565.56,-481.57C597.26,-456.75 657.77,-413.26 717,-392 736.3,-385.07 757.23,-379.9 778.04,-376.04"/>
<polygon fill="black" stroke="black" stroke-width="8" points="779.1,-382.96 787.79,-374.39 776.76,-369.16 779.1,-382.96"/>
</a>
</g>
</g>
<!-- PAKNECONPRVTKN&#45;&gt;PAKNEGDETTOTKN -->
<g id="edge13" class="edge">
<title>PAKNECONPRVTKN-&gt;PAKNEGDETTOTKN</title>
<g id="a_edge13"><a xlink:href="bogus" xlink:title=" PAKNECONPRVTKN -&gt; PAKNEGDETTOTKN Min. att. -2284%  max: 2484%">
<path fill="none" stroke="black" stroke-width="8" d="M556.34,-481.58C582.66,-446.84 644.99,-372.06 717,-338 747.55,-323.55 783.47,-316.15 816.39,-312.54"/>
<polygon fill="black" stroke="black" stroke-width="8" points="817.03,-319.51 826.35,-311.62 815.75,-305.57 817.03,-319.51"/>
</a>
</g>
</g>
<!-- PAKNECONPRVTKN&#45;&gt;PAKSMAGRCRPSKN -->
<g id="edge14" class="edge">
<title>PAKNECONPRVTKN-&gt;PAKSMAGRCRPSKN</title>
<g id="a_edge14"><a xlink:href="bogus" xlink:title=" PAKNECONPRVTKN -&gt; PAKSMAGRCRPSKN Min. att. -25%  max: 208%">
<path fill="none" stroke="black" stroke-width="8" d="M551.65,-481.6C572.92,-438.64 632.26,-331.76 717,-284 750.83,-264.93 792.84,-257.3 829.65,-254.78"/>
<polygon fill="black" stroke="black" stroke-width="8" points="829.54,-261.79 839.18,-254.3 828.85,-247.81 829.54,-261.79"/>
</a>
</g>
</g>
<!-- PAKNECONPRVTKN&#45;&gt;PAKNECONPRVTKN_FITTED -->
<g id="edge26" class="edge">
<title>PAKNECONPRVTKN-&gt;PAKNECONPRVTKN_FITTED</title>
<g id="a_edge26"><a xlink:href="bogus" xlink:title=" PAKNECONPRVTKN -&gt; PAKNECONPRVTKN_FITTED Min. att. -786%  max: 175%">
<path fill="none" stroke="black" stroke-width="8" d="M548.73,-481.64C565.42,-431.57 619.1,-292.21 717,-230 717.31,-229.8 717.63,-229.6 717.95,-229.4"/>
<polygon fill="black" stroke="black" stroke-width="8" points="721.21,-235.6 726.6,-224.65 714.46,-223.33 721.21,-235.6"/>
</a>
</g>
</g>
<!-- PAKSMSRVFINSKN -->
<g id="node25" class="node">
<title>PAKSMSRVFINSKN</title>
<g id="a_node25"><a xlink:title="PAKSMSRVFINSKN
FRML  &lt;&gt; PAKSMSRVFINSKN = ((1+1.04148314760779)*(0.0520379651885469*PAKNECONPRVTKN+0*PAKNECONGOVTKN+0*PAKNEGDIFTOTKN+0.00879145012359898*PAKNEEXPGNFSKN+0*PAKNEGDISTKBKN)-0.00594416979264236*PAKNEIMPGNFSKN-0.000103762679145856*PAKNYTAXNINDKN-0)/(1+0.24687745523084) $">
<polygon fill="#63b8ff" stroke="black" points="987,-167 850,-167 850,-131 987,-131 987,-167"/>
<text text-anchor="start" x="856.5" y="-144.8" font-family="Times New Roman,serif" font-size="14.00" fill="blue">PAKSMSRVFINSKN:</text>
</a>
</g>
</g>
<!-- PAKNECONPRVTKN&#45;&gt;PAKSMSRVFINSKN -->
<g id="edge3" class="edge">
<title>PAKNECONPRVTKN-&gt;PAKSMSRVFINSKN</title>
<g id="a_edge3"><a xlink:href="bogus" xlink:title=" PAKNECONPRVTKN -&gt; PAKSMSRVFINSKN Min. att. -104%  max: 125%">
<path fill="none" stroke="black" stroke-width="8" d="M546.7,-481.81C559.21,-425.51 605.48,-253.27 717,-176 750.37,-152.88 794.49,-145.13 832.84,-143.59"/>
<polygon fill="black" stroke="black" stroke-width="8" points="832.87,-150.59 842.74,-143.41 832.61,-136.59 832.87,-150.59"/>
</a>
</g>
</g>
<!-- PAKSMENGTOTLKN -->
<g id="node26" class="node">
<title>PAKSMENGTOTLKN</title>
<g id="a_node26"><a xlink:title="PAKSMENGTOTLKN
FRML  &lt;&gt; PAKSMENGTOTLKN = ((1+1.65868473220397)*(0.0775261497897936*PAKNECONPRVTKN+0*PAKNECONGOVTKN+0*PAKNEGDIFTOTKN+0.0217448978257548*PAKNEEXPGNFSKN+0.0458991644104248*PAKNEGDISTKBKN)-0.11894699850705*PAKNEIMPGNFSKN--0.50579180838529*PAKNYTAXNINDKN-0)/(1+5.65663938581514) $">
<polygon fill="#63b8ff" stroke="black" points="991,-113 846,-113 846,-77 991,-77 991,-113"/>
<text text-anchor="start" x="852.5" y="-90.8" font-family="Times New Roman,serif" font-size="14.00" fill="blue">PAKSMENGTOTLKN:</text>
</a>
</g>
</g>
<!-- PAKNECONPRVTKN&#45;&gt;PAKSMENGTOTLKN -->
<g id="edge12" class="edge">
<title>PAKNECONPRVTKN-&gt;PAKSMENGTOTLKN</title>
<g id="a_edge12"><a xlink:href="bogus" xlink:title=" PAKNECONPRVTKN -&gt; PAKSMENGTOTLKN Min. att. -14%  max: 2187%">
<path fill="none" stroke="black" stroke-width="8" d="M545.29,-481.56C554.09,-419.14 591.81,-214.55 717,-122 748.72,-98.55 791.19,-90.48 828.88,-88.81"/>
<polygon fill="black" stroke="black" stroke-width="8" points="828.98,-95.81 838.83,-88.6 828.69,-81.81 828.98,-95.81"/>
</a>
</g>
</g>
<!-- PAKSMSRVWHSLKN -->
<g id="node27" class="node">
<title>PAKSMSRVWHSLKN</title>
<g id="a_node27"><a xlink:title="PAKSMSRVWHSLKN
FRML  &lt;&gt; PAKSMSRVWHSLKN = ((1+1.17766663382018E-08)*(0*PAKNECONPRVTKN+0*PAKNECONGOVTKN+0*PAKNEGDIFTOTKN+0*PAKNEEXPGNFSKN+0*PAKNEGDISTKBKN)-0*PAKNEIMPGNFSKN-0*PAKNYTAXNINDKN--4160770)/(1+0.265916086910196) $">
<polygon fill="#63b8ff" stroke="black" points="992,-59 845,-59 845,-23 992,-23 992,-59"/>
<text text-anchor="start" x="851.5" y="-36.8" font-family="Times New Roman,serif" font-size="14.00" fill="blue">PAKSMSRVWHSLKN:</text>
</a>
</g>
</g>
<!-- PAKNECONPRVTKN&#45;&gt;PAKSMSRVWHSLKN -->
<g id="edge4" class="edge">
<title>PAKNECONPRVTKN-&gt;PAKSMSRVWHSLKN</title>
<g id="a_edge4"><a xlink:href="bogus" xlink:title=" PAKNECONPRVTKN -&gt; PAKSMSRVWHSLKN Min. att. 0%  max: 0%">
<path fill="none" stroke="black" d="M544.13,-481.89C549.38,-414.48 577.53,-176.44 717,-68 749.56,-42.69 794.42,-34.91 833.46,-33.92"/>
<polygon fill="black" stroke="black" points="833.35,-37.42 843.32,-33.82 833.29,-30.42 833.35,-37.42"/>
</a>
</g>
</g>
</g>
</svg>