<svg xmlns="http://www.w3.org/2000/svg" xmlns:xlink="http://www.w3.org/1999/xlink" width="414pt" height="432pt" viewBox="0.00 0.00 413.55 432.00">
<g id="graph0" class="graph" transform="scale(0.652075 0.652075) rotate(0) translate(4 658.5)">
<title>TD</title>
<polygon fill="white" stroke="none" points="-4,4 -4,-658.5 630.2,-658.5 630.2,4 -4,4"/>
<text text-anchor="middle" x="313.1" y="-7.2" font-family="Times New Roman,serif" font-size="14.00">PAKNECONPRVTKN</text>
<!-- PAKNECONPRVTKN_X -->
<g id="node1" class="node">
<title>PAKNECONPRVTKN_X</title>
<g id="a_node1"><a xlink:title="Fix value:HH. Cons Real
Exogen">
<polygon fill="yellow" stroke="black" points="330.73,-654.5 34.88,-654.5 34.88,-618.5 330.73,-618.5 330.73,-654.5"/>
<text text-anchor="start" x="40.68" y="-631.45" font-family="Times New Roman,serif" font-size="14.00" fill="blue">PAKNECONPRVTKN_X:Fix value:HH. Cons Real</text>
</a>
</g>
</g>
<!-- PAKNECONPRVTKN -->
<g id="node10" class="node">
<title>PAKNECONPRVTKN</title>
<g id="a_node10"><a xlink:title="HH. Cons Real
FRML &lt;DAMP,STOC&gt; PAKNECONPRVTKN = (PAKNECONPRVTKN(-1)*EXP(PAKNECONPRVTKN_A+ (-0.2*(LOG(PAKNECONPRVTKN(-1))-LOG(1.21203101101442)-LOG((((PAKBXFSTREMTCD(-1)-PAKBMFSTREMTCD(-1))*PAKPANUSATLS(-1))+PAKGGEXPTRNSCN(-1)+PAKNYYWBTOTLCN(-1)*(1-PAKGGREVDRCTXN(-1)/100))/PAKNECONPRVTXN(-1)))+0.763938860758873*((LOG((((PAKBXFSTREMTCD-PAKBMFSTREMTCD)*PAKPANUSATLS)+PAKGGEXPTRNSCN+PAKNYYWBTOTLCN*(1-PAKGGREVDRCTXN/100))/PAKNECONPRVTXN))-(LOG((((PAKBXFSTREMTCD(-1)-PAKBMFSTREMTCD(-1))*PAKPANUSATLS(-1))+PAKGGEXPTRNSCN(-1)+PAKNYYWBTOTLCN(-1)*(1-PAKGGREVDRCTXN(-1)/100))/PAKNECONPRVTXN(-1))))-0.0634474791568939*DURING_2009-0.3*(PAKFMLBLPOLYXN/100-((LOG(PAKNECONPRVTXN))-(LOG(PAKNECONPRVTXN(-1)))))) )) * (1-PAKNECONPRVTKN_D)+ PAKNECONPRVTKN_X*PAKNECONPRVTKN_D  $">
<polygon fill="red" stroke="black" points="626.2,-357.5 401.6,-357.5 401.6,-321.5 626.2,-321.5 626.2,-357.5"/>
<text text-anchor="start" x="407.4" y="-334.45" font-family="Times New Roman,serif" font-size="14.00" fill="blue">PAKNECONPRVTKN:HH. Cons Real</text>
</a>
</g>
</g>
<!-- PAKNECONPRVTKN_X&#45;&gt;PAKNECONPRVTKN -->
<g id="edge1" class="edge">
<title>PAKNECONPRVTKN_X-&gt;PAKNECONPRVTKN</title>
<g id="a_edge1"><a xlink:href="bogus" xlink:title=" PAKNECONPRVTKN_X -&gt; PAKNECONPRVTKN Min. att. -0%  max: 0%">
<path fill="none" stroke="black" d="M330.86,-627.04C343.21,-622.63 355,-616.9 365.6,-609.5 450.98,-549.9 491.75,-424.44 506.34,-368.03"/>
<polygon fill="black" stroke="black" points="509.89,-369.26 508.91,-358.71 503.1,-367.57 509.89,-369.26"/>
</a>
</g>
</g>
<!-- PAKGGREVDRCTXN -->
<g id="node2" class="node">
<title>PAKGGREVDRCTXN</title>
<g id="a_node2"><a xlink:title="Direct Revenue Tax Rate
Exogen">
<polygon fill="yellow" stroke="black" points="322.85,-600.5 42.75,-600.5 42.75,-564.5 322.85,-564.5 322.85,-600.5"/>
<text text-anchor="start" x="48.55" y="-577.45" font-family="Times New Roman,serif" font-size="14.00" fill="blue">PAKGGREVDRCTXN:Direct Revenue Tax Rate</text>
</a>
</g>
</g>
<!-- PAKGGREVDRCTXN&#45;&gt;PAKNECONPRVTKN -->
<g id="edge9" class="edge">
<title>PAKGGREVDRCTXN-&gt;PAKNECONPRVTKN</title>
<g id="a_edge9"><a xlink:href="bogus" xlink:title=" PAKGGREVDRCTXN -&gt; PAKNECONPRVTKN Min. att. -0%  max: 0%">
<path fill="none" stroke="black" d="M323.12,-574.1C338.12,-569.67 352.62,-563.63 365.6,-555.5 437.67,-510.33 483.16,-415.54 502.36,-367.99"/>
<polygon fill="black" stroke="black" points="505.98,-369.37 506.37,-358.78 499.46,-366.81 505.98,-369.37"/>
</a>
</g>
</g>
<!-- PAKFMLBLPOLYXN -->
<g id="node3" class="node">
<title>PAKFMLBLPOLYXN</title>
<g id="a_node3"><a xlink:title="Key Policy Interest Rate
FRML &lt;DAMP,STOC&gt; PAKFMLBLPOLYXN = (100*PAKFMLBLPOLYXN_A+100* (0.900155952396245*PAKFMLBLPOLYXN(-1)/100+(1-0.900155952396245)*(PAKMPPOLNATRXN/100+1.2*(((LOG(PAKNECONPRVTXN))-(LOG(PAKNECONPRVTXN(-1))))-PAKINFLEXPT/100)+0.5*PAKNYGDPGAP_/100)) ) * (1-PAKFMLBLPOLYXN_D)+ PAKFMLBLPOLYXN_X*PAKFMLBLPOLYXN_D  $">
<polygon fill="#63b8ff" stroke="black" points="320.23,-546.5 45.38,-546.5 45.38,-510.5 320.23,-510.5 320.23,-546.5"/>
<text text-anchor="start" x="51.18" y="-523.45" font-family="Times New Roman,serif" font-size="14.00" fill="blue">PAKFMLBLPOLYXN:Key Policy Interest Rate</text>
</a>
</g>
</g>
<!-- PAKFMLBLPOLYXN&#45;&gt;PAKNECONPRVTKN -->
<g id="edge10" class="edge">
<title>PAKFMLBLPOLYXN-&gt;PAKNECONPRVTKN</title>
<g id="a_edge10"><a xlink:href="bogus" xlink:title=" PAKFMLBLPOLYXN -&gt; PAKNECONPRVTKN Min. att. -780%  max: 213%">
<path fill="none" stroke="black" stroke-width="8" d="M320.64,-518.65C336.32,-514.51 351.66,-508.94 365.6,-501.5 422.87,-470.94 469.28,-409.07 493.83,-371.26"/>
<polygon fill="black" stroke="black" stroke-width="8" points="499.88,-375.02 499.29,-362.83 488.04,-367.56 499.88,-375.02"/>
</a>
</g>
</g>
<!-- PAKNYYWBTOTLCN -->
<g id="node4" class="node">
<title>PAKNYYWBTOTLCN</title>
<g id="a_node4"><a xlink:title="Total Wage Bill
FRML &lt;IDENT&gt; PAKNYYWBTOTLCN = PAKNYWRTTOTLCN*PAKLMEMPTOTLCN $">
<polygon fill="#63b8ff" stroke="black" points="298.85,-492.5 66.75,-492.5 66.75,-456.5 298.85,-456.5 298.85,-492.5"/>
<text text-anchor="start" x="72.55" y="-469.45" font-family="Times New Roman,serif" font-size="14.00" fill="blue">PAKNYYWBTOTLCN:Total Wage Bill</text>
</a>
</g>
</g>
<!-- PAKNYYWBTOTLCN&#45;&gt;PAKNECONPRVTKN -->
<g id="edge4" class="edge">
<title>PAKNYYWBTOTLCN-&gt;PAKNECONPRVTKN</title>
<g id="a_edge4"><a xlink:href="bogus" xlink:title=" PAKNYYWBTOTLCN -&gt; PAKNECONPRVTKN Min. att. -4566%  max: 1280%">
<path fill="none" stroke="black" stroke-width="8" d="M299.06,-465.99C321.66,-461.94 344.79,-456.05 365.6,-447.5 410.62,-428.99 454.61,-393.85 482.61,-368.68"/>
<polygon fill="black" stroke="black" stroke-width="8" points="486.69,-373.83 489.31,-361.91 477.21,-363.54 486.69,-373.83"/>
</a>
</g>
</g>
<!-- PAKGGEXPTRNSCN -->
<g id="node5" class="node">
<title>PAKGGEXPTRNSCN</title>
<g id="a_node5"><a xlink:title="Current Transfers
FRML &lt;DAMP,STOC&gt; PAKGGEXPTRNSCN = (0.91020884318931*PAKGGEXPTRNSCN(-1)+(1-0.91020884318931)*(0.06*(PAKGGREVTOTLCN-PAKGGEXPINTPCN(-0))) + PAKGGEXPTRNSCN_A)* (1-PAKGGEXPTRNSCN_D)+ PAKGGEXPTRNSCN_X*PAKGGEXPTRNSCN_D  $">
<polygon fill="#63b8ff" stroke="black" points="300.35,-438.5 65.25,-438.5 65.25,-402.5 300.35,-402.5 300.35,-438.5"/>
<text text-anchor="start" x="71.05" y="-415.45" font-family="Times New Roman,serif" font-size="14.00" fill="blue">PAKGGEXPTRNSCN:Current Transfers</text>
</a>
</g>
</g>
<!-- PAKGGEXPTRNSCN&#45;&gt;PAKNECONPRVTKN -->
<g id="edge6" class="edge">
<title>PAKGGEXPTRNSCN-&gt;PAKNECONPRVTKN</title>
<g id="a_edge6"><a xlink:href="bogus" xlink:title=" PAKGGEXPTRNSCN -&gt; PAKNECONPRVTKN Min. att. -114%  max: 31%">
<path fill="none" stroke="black" stroke-width="8" d="M300.4,-406.79C322.22,-403.21 344.73,-398.82 365.6,-393.5 395.75,-385.82 428.32,-374.24 455.14,-363.78"/>
<polygon fill="black" stroke="black" stroke-width="8" points="457.1,-370.15 463.81,-359.94 451.93,-357.14 457.1,-370.15"/>
</a>
</g>
</g>
<!-- PAKBXFSTREMTCD -->
<g id="node6" class="node">
<title>PAKBXFSTREMTCD</title>
<g id="a_node6"><a xlink:title="Exp., Remittances (BOP), US$ mn
FRML &lt;DAMP,STOC&gt; PAKBXFSTREMTCD = (PAKBXFSTREMTCD_A*PAKNYGDPMKTPCD+PAKNYGDPMKTPCD* (0.053028373687723) ) * (1-PAKBXFSTREMTCD_D)+ PAKBXFSTREMTCD_X*PAKBXFSTREMTCD_D  $">
<polygon fill="#63b8ff" stroke="black" points="349.48,-384.5 16.12,-384.5 16.12,-348.5 349.48,-348.5 349.48,-384.5"/>
<text text-anchor="start" x="21.93" y="-361.45" font-family="Times New Roman,serif" font-size="14.00" fill="blue">PAKBXFSTREMTCD:Exp., Remittances (BOP), US$ mn</text>
</a>
</g>
</g>
<!-- PAKBXFSTREMTCD&#45;&gt;PAKNECONPRVTKN -->
<g id="edge5" class="edge">
<title>PAKBXFSTREMTCD-&gt;PAKNECONPRVTKN</title>
<g id="a_edge5"><a xlink:href="bogus" xlink:title=" PAKBXFSTREMTCD -&gt; PAKNECONPRVTKN Min. att. -534%  max: 149%">
<path fill="none" stroke="black" stroke-width="8" d="M349.8,-352.88C361.77,-351.9 373.73,-350.92 385.43,-349.96"/>
<polygon fill="black" stroke="black" stroke-width="8" points="385.79,-356.46 395.19,-348.67 384.65,-342.51 385.79,-356.46"/>
</a>
</g>
</g>
<!-- DURING_2009 -->
<g id="node7" class="node">
<title>DURING_2009</title>
<g id="a_node7"><a xlink:title="DURING_2009
Exogen">
<polygon fill="yellow" stroke="black" points="233.6,-330.5 132,-330.5 132,-294.5 233.6,-294.5 233.6,-330.5"/>
<text text-anchor="start" x="137.8" y="-307.45" font-family="Times New Roman,serif" font-size="14.00" fill="blue">DURING_2009:</text>
</a>
</g>
</g>
<!-- DURING_2009&#45;&gt;PAKNECONPRVTKN -->
<g id="edge12" class="edge">
<title>DURING_2009-&gt;PAKNECONPRVTKN</title>
<g id="a_edge12"><a xlink:href="bogus" xlink:title=" DURING_2009 -&gt; PAKNECONPRVTKN Min. att. -0%  max: 0%">
<path fill="none" stroke="black" d="M233.78,-316.6C275.34,-320.01 336.24,-325.01 390.56,-329.46"/>
<polygon fill="black" stroke="black" points="390.08,-333.02 400.33,-330.35 390.65,-326.04 390.08,-333.02"/>
</a>
</g>
</g>
<!-- PAKNECONPRVTKN_D -->
<g id="node8" class="node">
<title>PAKNECONPRVTKN_D</title>
<g id="a_node8"><a xlink:title="Fix dummy:HH. Cons Real
Exogen">
<polygon fill="yellow" stroke="black" points="337.48,-276.5 28.12,-276.5 28.12,-240.5 337.48,-240.5 337.48,-276.5"/>
<text text-anchor="start" x="33.93" y="-253.45" font-family="Times New Roman,serif" font-size="14.00" fill="blue">PAKNECONPRVTKN_D:Fix dummy:HH. Cons Real</text>
</a>
</g>
</g>
<!-- PAKNECONPRVTKN_D&#45;&gt;PAKNECONPRVTKN -->
<g id="edge2" class="edge">
<title>PAKNECONPRVTKN_D-&gt;PAKNECONPRVTKN</title>
<g id="a_edge2"><a xlink:href="bogus" xlink:title=" PAKNECONPRVTKN_D -&gt; PAKNECONPRVTKN Min. att. -0%  max: 0%">
<path fill="none" stroke="black" d="M327.26,-277C340.29,-279.52 353.23,-282.35 365.6,-285.5 397.57,-293.64 432.26,-306.17 459.94,-317.11"/>
<polygon fill="black" stroke="black" points="458.22,-320.59 468.81,-321.06 460.82,-314.09 458.22,-320.59"/>
</a>
</g>
</g>
<!-- PAKNECONPRVTXN -->
<g id="node9" class="node">
<title>PAKNECONPRVTXN</title>
<g id="a_node9"><a xlink:title="Implicit LCU defl., Pvt. Cons., 2000 = 1
FRML &lt;IDENT&gt; PAKNECONPRVTXN = ((PAKNECONENGYSH**PAKCESENGYCON)*PAKNECONENGYXN**(1-PAKCESENGYCON)+(PAKNECONOTHRSH**PAKCESENGYCON)*PAKNECONOTHRXN**(1-PAKCESENGYCON))**(1/(1-PAKCESENGYCON)) $">
<polygon fill="#63b8ff" stroke="black" points="365.6,-222.5 0,-222.5 0,-186.5 365.6,-186.5 365.6,-222.5"/>
<text text-anchor="start" x="5.8" y="-199.45" font-family="Times New Roman,serif" font-size="14.00" fill="blue">PAKNECONPRVTXN:Implicit LCU defl., Pvt. Cons., 2000 = 1</text>
</a>
</g>
</g>
<!-- PAKNECONPRVTXN&#45;&gt;PAKNECONPRVTKN -->
<g id="edge7" class="edge">
<title>PAKNECONPRVTXN-&gt;PAKNECONPRVTKN</title>
<g id="a_edge7"><a xlink:href="bogus" xlink:title=" PAKNECONPRVTXN -&gt; PAKNECONPRVTKN Min. att. -1573%  max: 5704%">
<path fill="none" stroke="black" stroke-width="8" d="M341.3,-222.94C349.63,-225.45 357.78,-228.28 365.6,-231.5 410.62,-250.01 454.61,-285.15 482.61,-310.32"/>
<polygon fill="black" stroke="black" stroke-width="8" points="477.21,-315.46 489.31,-317.09 486.69,-305.17 477.21,-315.46"/>
</a>
</g>
</g>
<!-- PAKNECONPRVTKN_A -->
<g id="node11" class="node">
<title>PAKNECONPRVTKN_A</title>
<g id="a_node11"><a xlink:title="Add factor:HH. Cons Real
Exogen">
<polygon fill="yellow" stroke="black" points="334.48,-168.5 31.12,-168.5 31.12,-132.5 334.48,-132.5 334.48,-168.5"/>
<text text-anchor="start" x="36.93" y="-145.45" font-family="Times New Roman,serif" font-size="14.00" fill="blue">PAKNECONPRVTKN_A:Add factor:HH. Cons Real</text>
</a>
</g>
</g>
<!-- PAKNECONPRVTKN_A&#45;&gt;PAKNECONPRVTKN -->
<g id="edge3" class="edge">
<title>PAKNECONPRVTKN_A-&gt;PAKNECONPRVTKN</title>
<g id="a_edge3"><a xlink:href="bogus" xlink:title=" PAKNECONPRVTKN_A -&gt; PAKNECONPRVTKN Min. att. -0%  max: 0%">
<path fill="none" stroke="black" d="M334.77,-164.52C345.49,-168.04 355.89,-172.32 365.6,-177.5 425.02,-209.2 472.74,-274.62 496.5,-311.89"/>
<polygon fill="black" stroke="black" points="494.03,-313.54 502.29,-320.17 499.96,-309.83 494.03,-313.54"/>
</a>
</g>
</g>
<!-- PAKBMFSTREMTCD -->
<g id="node12" class="node">
<title>PAKBMFSTREMTCD</title>
<g id="a_node12"><a xlink:title="Imp., Remittances (BOP), US$ mn
FRML &lt;DAMP,STOC&gt; PAKBMFSTREMTCD = (PAKBMFSTREMTCD_A*PAKNYGDPMKTPCD+PAKNYGDPMKTPCD* (5.83179728399106E-05) ) * (1-PAKBMFSTREMTCD_D)+ PAKBMFSTREMTCD_X*PAKBMFSTREMTCD_D  $">
<polygon fill="#63b8ff" stroke="black" points="351.35,-114.5 14.25,-114.5 14.25,-78.5 351.35,-78.5 351.35,-114.5"/>
<text text-anchor="start" x="20.05" y="-91.45" font-family="Times New Roman,serif" font-size="14.00" fill="blue">PAKBMFSTREMTCD:Imp., Remittances (BOP), US$ mn</text>
</a>
</g>
</g>
<!-- PAKBMFSTREMTCD&#45;&gt;PAKNECONPRVTKN -->
<g id="edge11" class="edge">
<title>PAKBMFSTREMTCD-&gt;PAKNECONPRVTKN</title>
<g id="a_edge11"><a xlink:href="bogus" xlink:title=" PAKBMFSTREMTCD -&gt; PAKNECONPRVTKN Min. att. -0%  max: 1%">
<path fill="none" stroke="black" d="M349.54,-114.8C355.09,-117.39 360.46,-120.28 365.6,-123.5 437.67,-168.67 483.16,-263.46 502.36,-311.01"/>
<polygon fill="black" stroke="black" points="499.46,-312.19 506.37,-320.22 505.98,-309.63 499.46,-312.19"/>
</a>
</g>
</g>
<!-- PAKPANUSATLS -->
<g id="node13" class="node">
<title>PAKPANUSATLS</title>
<g id="a_node13"><a xlink:title="Exchange rate LCU / US$ - Pakistan
FRML &lt;DAMP,STOC&gt; PAKPANUSATLS = (PAKPANUSATLS(-1)*EXP(PAKPANUSATLS_A+ ((0.295032006650061*((USAINTRXN/100-(( (100 * ( (USANECONPRVTXN) / (USANECONPRVTXN(-1)) -1)) /100+ (100 * ( (USANECONPRVTXN(-1)) / (USANECONPRVTXN(-2)) -1)) /100+ (100 * ( (USANECONPRVTXN(-2)) / (USANECONPRVTXN(-3)) -1)) /100+ (100 * ( (USANECONPRVTXN(-3)) / (USANECONPRVTXN(-4)) -1)) /100)/4.0))-(PAKMPPOLNATRXN/100-PAKINFLEXPT/100))+0.0745339074046556*( (100 * ( (USANECONPRVTXN) / (USANECONPRVTXN(-1)) -1)) /100- (100 * ( (PAKNECONPRVTXN) / (PAKNECONPRVTXN(-1)) -1)) /100))+0.204055946624338*DURING_2009+0.0213) )) * (1-PAKPANUSATLS_D)+ PAKPANUSATLS_X*PAKPANUSATLS_D  $">
<polygon fill="#63b8ff" stroke="black" points="341.98,-60.5 23.62,-60.5 23.62,-24.5 341.98,-24.5 341.98,-60.5"/>
<text text-anchor="start" x="29.43" y="-37.45" font-family="Times New Roman,serif" font-size="14.00" fill="blue">PAKPANUSATLS:Exchange rate LCU / US$ - Pakistan</text>
</a>
</g>
</g>
<!-- PAKPANUSATLS&#45;&gt;PAKNECONPRVTKN -->
<g id="edge8" class="edge">
<title>PAKPANUSATLS-&gt;PAKNECONPRVTKN</title>
<g id="a_edge8"><a xlink:href="bogus" xlink:title=" PAKPANUSATLS -&gt; PAKNECONPRVTKN Min. att. -12%  max: 42%">
<path fill="none" stroke="black" stroke-width="4.16" d="M342.12,-56.43C350.38,-60.07 358.27,-64.39 365.6,-69.5 448.49,-127.36 489.34,-247.3 505,-305.86"/>
<polygon fill="black" stroke="black" stroke-width="4.16" points="501.93,-307.49 507.91,-316.29 508.98,-305.7 501.93,-307.49"/>
</a>
</g>
</g>
</g>
</svg>