<svg xmlns="http://www.w3.org/2000/svg" xmlns:xlink="http://www.w3.org/1999/xlink" width="432pt" height="118pt" viewBox="0.00 0.00 432.00 118.09">
<g id="graph0" class="graph" transform="scale(0.188646 0.188646) rotate(0) translate(4 622)">
<title>TD</title>
<polygon fill="white" stroke="none" points="-4,4 -4,-622 2286,-622 2286,4 -4,4"/>
<text text-anchor="middle" x="1141" y="-7.8" font-family="Times New Roman,serif" font-size="14.00">PAKNYGDPMKTPKN</text>
<!-- PAKNEGDIFPRVKN -->
<g id="node1" class="node">
<title>PAKNEGDIFPRVKN</title>
<g id="a_node1"><a xlink:title="Private Investment
FRML &lt;Z,EXO&gt; PAKNEGDIFPRVKN = (-PAKNEGDIFPRVKN_A*PAKNEGDIKSTKKN(-1)+ (-0.00526826150713402+0.826734606421746*(PAKNEGDIFPRVKN(-1)/PAKNEGDIKSTKKN(-2))+(1-0.826734606421746)*(((LOG(PAKNYGDPPOTLKN))-(LOG(PAKNYGDPPOTLKN(-1))))+PAKDEPR)-0.00378813564556318*((LOG(PAKNEKRTTOTLCN/PAKNYGDPFCSTXN))-(LOG(PAKNEKRTTOTLCN(-1)/PAKNYGDPFCSTXN(-1))))) *PAKNEGDIKSTKKN(-1)) * (1-PAKNEGDIFPRVKN_D)+ PAKNEGDIFPRVKN_X*PAKNEGDIFPRVKN_D  $">
<polygon fill="#63b8ff" stroke="black" points="982,-537 742,-537 742,-501 982,-501 982,-537"/>
<text text-anchor="start" x="748" y="-514.8" font-family="Times New Roman,serif" font-size="14.00" fill="blue">PAKNEGDIFPRVKN:Private Investment</text>
</a>
</g>
</g>
<!-- PAKNEGDIFTOTKN -->
<g id="node3" class="node">
<title>PAKNEGDIFTOTKN</title>
<g id="a_node3"><a xlink:title="Total Gross Capital Formation
FRML  &lt;&gt; PAKNEGDIFTOTKN = PAKNEGDIFGOVKN+PAKNEGDIFPRVKN $">
<polygon fill="#63b8ff" stroke="black" points="1367,-400 1063,-400 1063,-364 1367,-364 1367,-400"/>
<text text-anchor="start" x="1069" y="-377.8" font-family="Times New Roman,serif" font-size="14.00" fill="blue">PAKNEGDIFTOTKN:Total Gross Capital Formation</text>
</a>
</g>
</g>
<!-- PAKNEGDIFPRVKN&#45;&gt;PAKNEGDIFTOTKN -->
<g id="edge17" class="edge">
<title>PAKNEGDIFPRVKN-&gt;PAKNEGDIFTOTKN</title>
<g id="a_edge17"><a xlink:href="bogus" xlink:title=" PAKNEGDIFPRVKN -&gt; PAKNEGDIFTOTKN Min. att. -5%  max: 94%">
<path fill="none" stroke="black" stroke-width="8" d="M909.25,-500.95C973.43,-475.9 1089.37,-430.65 1158.25,-403.76"/>
<polygon fill="black" stroke="black" stroke-width="8" points="1160.88,-410.25 1167.65,-400.09 1155.79,-397.21 1160.88,-410.25"/>
</a>
</g>
</g>
<!-- PAKNECONGOVTKN -->
<g id="node2" class="node">
<title>PAKNECONGOVTKN</title>
<g id="a_node2"><a xlink:title="Government Consumption
FRML  &lt;&gt; PAKNECONGOVTKN = PAKNECONGOVTCN/PAKNECONGOVTXN $">
<polygon fill="#63b8ff" stroke="black" points="1361,-289 1069,-289 1069,-253 1361,-253 1361,-289"/>
<text text-anchor="start" x="1075" y="-266.8" font-family="Times New Roman,serif" font-size="14.00" fill="blue">PAKNECONGOVTKN:Government Consumption</text>
</a>
</g>
</g>
<!-- PAKNEGDETTOTKN -->
<g id="node17" class="node">
<title>PAKNEGDETTOTKN</title>
<g id="a_node17"><a xlink:title="GDE
FRML  &lt;&gt; PAKNEGDETTOTKN = (PAKNECONPRVTKN+PAKNECONGOVTKN+PAKNEGDIFTOTKN+PAKNEGDISTKBKN+PAKNYGDPDISCKN) $">
<polygon fill="#63b8ff" stroke="black" points="1599.5,-304 1429.5,-304 1429.5,-268 1599.5,-268 1599.5,-304"/>
<text text-anchor="start" x="1435.5" y="-281.8" font-family="Times New Roman,serif" font-size="14.00" fill="blue">PAKNEGDETTOTKN:GDE</text>
</a>
</g>
</g>
<!-- PAKNECONGOVTKN&#45;&gt;PAKNEGDETTOTKN -->
<g id="edge11" class="edge">
<title>PAKNECONGOVTKN-&gt;PAKNEGDETTOTKN</title>
<g id="a_edge11"><a xlink:href="bogus" xlink:title=" PAKNECONGOVTKN -&gt; PAKNEGDETTOTKN Min. att. -1269%  max: 1236%">
<path fill="none" stroke="black" stroke-width="8" d="M1361.26,-278.32C1380.93,-279.32 1400.67,-280.31 1419.12,-281.24"/>
<polygon fill="black" stroke="black" stroke-width="8" points="1418.89,-288.24 1429.23,-281.75 1419.6,-274.26 1418.89,-288.24"/>
</a>
</g>
</g>
<!-- PAKNYGDPMKTPKN -->
<g id="node21" class="node">
<title>PAKNYGDPMKTPKN</title>
<g id="a_node21"><a xlink:title="GDP Expenditure side at market prices
FRML  &lt;&gt; PAKNYGDPMKTPKN = PAKNECONPRVTKN+PAKNECONGOVTKN+PAKNEGDIFTOTKN+PAKNEGDISTKBKN+PAKNEEXPGNFSKN-PAKNEIMPGNFSKN+PAKNYGDPDISCKN+PAKADAP*PAKDISPREPKN $">
<polygon fill="red" stroke="black" points="2282,-281 1921,-281 1921,-245 2282,-245 2282,-281"/>
<text text-anchor="start" x="1927.5" y="-258.8" font-family="Times New Roman,serif" font-size="14.00" fill="blue">PAKNYGDPMKTPKN:GDP Expenditure side at market prices</text>
</a>
</g>
</g>
<!-- PAKNECONGOVTKN&#45;&gt;PAKNYGDPMKTPKN -->
<g id="edge24" class="edge">
<title>PAKNECONGOVTKN-&gt;PAKNYGDPMKTPKN</title>
<g id="a_edge24"><a xlink:href="bogus" xlink:title=" PAKNECONGOVTKN -&gt; PAKNYGDPMKTPKN Min. att. -108%  max: 835%">
<path fill="none" stroke="black" stroke-width="8" d="M1361.18,-260.77C1375.3,-260.05 1389.42,-259.44 1403,-259 1574.83,-253.49 1770.59,-255.32 1910.89,-258.05"/>
<polygon fill="black" stroke="black" stroke-width="8" points="1910.76,-265.05 1920.89,-258.25 1911.03,-251.05 1910.76,-265.05"/>
</a>
</g>
</g>
<!-- PAKNEGDIFTOTKN&#45;&gt;PAKNEGDETTOTKN -->
<g id="edge21" class="edge">
<title>PAKNEGDIFTOTKN-&gt;PAKNEGDETTOTKN</title>
<g id="a_edge21"><a xlink:href="bogus" xlink:title=" PAKNEGDIFTOTKN -&gt; PAKNEGDETTOTKN Min. att. -1115%  max: 1147%">
<path fill="none" stroke="black" stroke-width="8" d="M1271.96,-363.94C1321.95,-347.81 1395.23,-324.17 1447.95,-307.15"/>
<polygon fill="black" stroke="black" stroke-width="8" points="1450.17,-313.79 1457.54,-304.06 1445.87,-300.47 1450.17,-313.79"/>
</a>
</g>
</g>
<!-- PAKNEGDIFTOTKN&#45;&gt;PAKNYGDPMKTPKN -->
<g id="edge32" class="edge">
<title>PAKNEGDIFTOTKN-&gt;PAKNYGDPMKTPKN</title>
<g id="a_edge32"><a xlink:href="bogus" xlink:title=" PAKNEGDIFTOTKN -&gt; PAKNYGDPMKTPKN Min. att. -36%  max: 366%">
<path fill="none" stroke="black" stroke-width="8" d="M1367.17,-371.84C1503.24,-361.4 1708.36,-342.48 1885,-313 1931.02,-305.32 1981.89,-293.67 2022.65,-283.55"/>
<polygon fill="black" stroke="black" stroke-width="8" points="2024.51,-290.29 2032.52,-281.08 2021.11,-276.71 2024.51,-290.29"/>
</a>
</g>
</g>
<!-- PAKNECONOTHRXN -->
<g id="node4" class="node">
<title>PAKNECONOTHRXN</title>
<g id="a_node4"><a xlink:title="Non-Energy Consumption
FRML &lt;Z,EXO&gt; PAKNECONOTHRXN = (PAKNECONOTHRXN(-1)*EXP(-PAKNECONOTHRXN_A+ (0.598859116610832*((LOG(PAKNYGDPFCSTXN))-(LOG(PAKNYGDPFCSTXN(-1))))+((PAKGGREVGNFSXN/100)-(PAKGGREVGNFSXN(-1)/100))+(1-0.598859116610832)*((LOG(PAKNEIMPGNFSXN))-(LOG(PAKNEIMPGNFSXN(-1))))+0.2*PAKNYGDPGAP_/100) )) * (1-PAKNECONOTHRXN_D)+ PAKNECONOTHRXN_X*PAKNECONOTHRXN_D  $">
<polygon fill="#63b8ff" stroke="black" points="289,-213 0,-213 0,-177 289,-177 289,-213"/>
<text text-anchor="start" x="6.5" y="-190.8" font-family="Times New Roman,serif" font-size="14.00" fill="blue">PAKNECONOTHRXN:Non-Energy Consumption</text>
</a>
</g>
</g>
<!-- PAKNECONPRVTXN -->
<g id="node29" class="node">
<title>PAKNECONPRVTXN</title>
<g id="a_node29"><a xlink:title="Household demand
FRML  &lt;&gt; PAKNECONPRVTXN = ((PAKNECONENGYSH**PAKCESENGYCON)*PAKNECONENGYXN**(1-PAKCESENGYCON)+(PAKNECONOTHRSH**PAKCESENGYCON)*PAKNECONOTHRXN**(1-PAKCESENGYCON))**(1/(1-PAKCESENGYCON)) $">
<polygon fill="#63b8ff" stroke="black" points="617,-186 369,-186 369,-150 617,-150 617,-186"/>
<text text-anchor="start" x="375" y="-163.8" font-family="Times New Roman,serif" font-size="14.00" fill="blue">PAKNECONPRVTXN:Household demand</text>
</a>
</g>
</g>
<!-- PAKNECONOTHRXN&#45;&gt;PAKNECONPRVTXN -->
<g id="edge5" class="edge">
<title>PAKNECONOTHRXN-&gt;PAKNECONPRVTXN</title>
<g id="a_edge5"><a xlink:href="bogus" xlink:title=" PAKNECONOTHRXN -&gt; PAKNECONPRVTXN Min. att. 71%  max: 99%">
<path fill="none" stroke="black" stroke-width="8" d="M289.19,-183.8C312.28,-182 336.1,-180.15 358.93,-178.37"/>
<polygon fill="black" stroke="black" stroke-width="8" points="359.57,-185.34 369,-177.58 358.49,-171.38 359.57,-185.34"/>
</a>
</g>
</g>
<!-- PAKNYGDPGAP_ -->
<g id="node5" class="node">
<title>PAKNYGDPGAP_</title>
<g id="a_node5"><a xlink:title="Output Gap (% of Potential GDP)
FRML  &lt;&gt; PAKNYGDPGAP_ = ((PAKNYGDPMKTPKN/PAKNYGDPPOTLKN-1)*100) $">
<polygon fill="#63b8ff" stroke="black" points="647.5,-240 338.5,-240 338.5,-204 647.5,-204 647.5,-240"/>
<text text-anchor="start" x="345" y="-217.8" font-family="Times New Roman,serif" font-size="14.00" fill="blue">PAKNYGDPGAP_:Output Gap (% of Potential GDP)</text>
</a>
</g>
</g>
<!-- PAKNYGDPFCSTXN -->
<g id="node27" class="node">
<title>PAKNYGDPFCSTXN</title>
<g id="a_node27"><a xlink:title="GDP at factor cost
FRML &lt;Z,EXO&gt; PAKNYGDPFCSTXN = (PAKNYGDPFCSTXN(-1)*EXP(-PAKNYGDPFCSTXN_A+ (0.6*((LOG(PAKNYGDPFCSTXN(-1)))-(LOG(PAKNYGDPFCSTXN(-2))))+(1-0.6)*(0.7*PAKINFLEXPT/100+(1-0.7)*((LOG(PAKPSTAR(-1)))-(LOG(PAKPSTAR(-2)))))+0.25*PAKNYGDPGAP_/100+0.262461811660072*DURING_2000-0.205776950553378*DURING_2001) )) * (1-PAKNYGDPFCSTXN_D)+ PAKNYGDPFCSTXN_X*PAKNYGDPFCSTXN_D  $">
<polygon fill="#63b8ff" stroke="black" points="983,-348 741,-348 741,-312 983,-312 983,-348"/>
<text text-anchor="start" x="747" y="-325.8" font-family="Times New Roman,serif" font-size="14.00" fill="blue">PAKNYGDPFCSTXN:GDP at factor cost</text>
</a>
</g>
</g>
<!-- PAKNYGDPGAP_&#45;&gt;PAKNYGDPFCSTXN -->
<g id="edge8" class="edge">
<title>PAKNYGDPGAP_-&gt;PAKNYGDPFCSTXN</title>
<g id="a_edge8"><a xlink:href="bogus" xlink:title=" PAKNYGDPGAP_ -&gt; PAKNYGDPFCSTXN Min. att. -56%  max: 7987%">
<path fill="none" stroke="black" stroke-width="8" d="M644.7,-240.05C650.35,-242.69 655.81,-245.66 661,-249 685.26,-264.6 672.76,-287.36 697,-303 707.43,-309.73 718.98,-314.96 730.98,-319"/>
<polygon fill="black" stroke="black" stroke-width="8" points="729.08,-325.74 740.69,-322 733.2,-312.36 729.08,-325.74"/>
</a>
</g>
</g>
<!-- PAKFMLBLPOLYXN -->
<g id="node28" class="node">
<title>PAKFMLBLPOLYXN</title>
<g id="a_node28"><a xlink:title="Policy Rate
FRML &lt;Z,EXO&gt; PAKFMLBLPOLYXN = (-100*PAKFMLBLPOLYXN_A+100* (0.905129162122953*PAKFMLBLPOLYXN(-1)/100+(1-0.905129162122953)*(PAKMPPOLNATRXN/100+1.2*(((LOG(PAKNECONPRVTXN))-(LOG(PAKNECONPRVTXN(-1))))-PAKINFLEXPT/100)+0.5*PAKNYGDPGAP_/100)) ) * (1-PAKFMLBLPOLYXN_D)+ PAKFMLBLPOLYXN_X*PAKFMLBLPOLYXN_D  $">
<polygon fill="#63b8ff" stroke="black" points="964.5,-240 759.5,-240 759.5,-204 964.5,-204 964.5,-240"/>
<text text-anchor="start" x="766" y="-217.8" font-family="Times New Roman,serif" font-size="14.00" fill="blue">PAKFMLBLPOLYXN:Policy Rate</text>
</a>
</g>
</g>
<!-- PAKNYGDPGAP_&#45;&gt;PAKFMLBLPOLYXN -->
<g id="edge30" class="edge">
<title>PAKNYGDPGAP_-&gt;PAKFMLBLPOLYXN</title>
<g id="a_edge30"><a xlink:href="bogus" xlink:title=" PAKNYGDPGAP_ -&gt; PAKFMLBLPOLYXN Min. att. -15%  max: 83%">
<path fill="none" stroke="black" stroke-width="8" d="M647.51,-222C681.54,-222 716.99,-222 748.99,-222"/>
<polygon fill="black" stroke="black" stroke-width="8" points="749.26,-229 759.26,-222 749.26,-215 749.26,-229"/>
</a>
</g>
</g>
<!-- PAKNEGDIFGOVKN -->
<g id="node6" class="node">
<title>PAKNEGDIFGOVKN</title>
<g id="a_node6"><a xlink:title="Government Investment
FRML  &lt;&gt; PAKNEGDIFGOVKN = PAKNEGDIFGOVCN/PAKNEGDIFGOVXN $">
<polygon fill="#63b8ff" stroke="black" points="999,-402 725,-402 725,-366 999,-366 999,-402"/>
<text text-anchor="start" x="731" y="-379.8" font-family="Times New Roman,serif" font-size="14.00" fill="blue">PAKNEGDIFGOVKN:Government Investment</text>
</a>
</g>
</g>
<!-- PAKNEGDIFGOVKN&#45;&gt;PAKNEGDIFTOTKN -->
<g id="edge26" class="edge">
<title>PAKNEGDIFGOVKN-&gt;PAKNEGDIFTOTKN</title>
<g id="a_edge26"><a xlink:href="bogus" xlink:title=" PAKNEGDIFGOVKN -&gt; PAKNEGDIFTOTKN Min. att. 6%  max: 105%">
<path fill="none" stroke="black" stroke-width="8" d="M999.21,-383.22C1016.61,-383.12 1034.55,-383.02 1052.3,-382.92"/>
<polygon fill="black" stroke="black" stroke-width="8" points="1052.76,-389.92 1062.72,-382.86 1052.68,-375.92 1052.76,-389.92"/>
</a>
</g>
</g>
<!-- PAKNEGDIKSTKKN -->
<g id="node7" class="node">
<title>PAKNEGDIKSTKKN</title>
<g id="a_node7"><a xlink:title="Domestic Capital
FRML  &lt;&gt; PAKNEGDIKSTKKN = (PAKNEGDIKSTKKN(-1)*(1-PAKDEPR))+PAKNEGDIFTOTKN2-2*PAKHURDAMKN $">
<polygon fill="#63b8ff" stroke="black" points="610.5,-618 375.5,-618 375.5,-582 610.5,-582 610.5,-618"/>
<text text-anchor="start" x="382" y="-595.8" font-family="Times New Roman,serif" font-size="14.00" fill="blue">PAKNEGDIKSTKKN:Domestic Capital</text>
</a>
</g>
</g>
<!-- PAKNEGDIKSTKKN&#45;&gt;PAKNEGDIFPRVKN -->
<g id="edge20" class="edge">
<title>PAKNEGDIKSTKKN-&gt;PAKNEGDIFPRVKN</title>
<g id="a_edge20"><a xlink:href="bogus" xlink:title=" PAKNEGDIKSTKKN -&gt; PAKNEGDIFPRVKN Min. att. 0%  max: 76%">
<path fill="none" stroke="black" stroke-width="7.57" d="M610.63,-582.73C627.58,-579.76 644.78,-576.49 661,-573 704.41,-563.66 752.47,-550.76 790.6,-539.92"/>
<polygon fill="black" stroke="black" stroke-width="7.57" points="792.78,-546.18 800.57,-537.07 789.13,-533.45 792.78,-546.18"/>
</a>
</g>
</g>
<!-- PAKNYWRTTOTLCN -->
<g id="node8" class="node">
<title>PAKNYWRTTOTLCN</title>
<g id="a_node8"><a xlink:title="Wages
FRML  &lt;&gt; PAKNYWRTTOTLCN = (PAKNYWBINFMSH**PAKINFCES*(PAKNYWRTINFMCN)**(1-PAKINFCES)+PAKNYWBFORMSH**PAKINFCES*(PAKNYWRTFORMCN*(1+PAKGGREVDRCTXN/100))**(1-PAKINFCES))**(1/(1-PAKINFCES)) $">
<polygon fill="#63b8ff" stroke="black" points="583.5,-59 402.5,-59 402.5,-23 583.5,-23 583.5,-59"/>
<text text-anchor="start" x="409" y="-36.8" font-family="Times New Roman,serif" font-size="14.00" fill="blue">PAKNYWRTTOTLCN:Wages</text>
</a>
</g>
</g>
<!-- PAKNYYWBTOTLCN -->
<g id="node20" class="node">
<title>PAKNYYWBTOTLCN</title>
<g id="a_node20"><a xlink:title="Economy-wide wage bill
FRML  &lt;&gt; PAKNYYWBTOTLCN = PAKNYWRTTOTLCN*PAKLMEMPTOTLCN $">
<polygon fill="#63b8ff" stroke="black" points="1004.5,-94 719.5,-94 719.5,-58 1004.5,-58 1004.5,-94"/>
<text text-anchor="start" x="726" y="-71.8" font-family="Times New Roman,serif" font-size="14.00" fill="blue">PAKNYYWBTOTLCN:Economy-wide wage bill</text>
</a>
</g>
</g>
<!-- PAKNYWRTTOTLCN&#45;&gt;PAKNYYWBTOTLCN -->
<g id="edge14" class="edge">
<title>PAKNYWRTTOTLCN-&gt;PAKNYYWBTOTLCN</title>
<g id="a_edge14"><a xlink:href="bogus" xlink:title=" PAKNYWRTTOTLCN -&gt; PAKNYYWBTOTLCN Min. att. 16%  max: 106%">
<path fill="none" stroke="black" stroke-width="8" d="M583.78,-49.56C621.5,-53.16 666.44,-57.45 709.04,-61.51"/>
<polygon fill="black" stroke="black" stroke-width="8" points="708.62,-68.5 719.24,-62.48 709.95,-54.56 708.62,-68.5"/>
</a>
</g>
</g>
<!-- PAKNVENGNIMPXN -->
<g id="node9" class="node">
<title>PAKNVENGNIMPXN</title>
<g id="a_node9"><a xlink:title="Energy Imports
FRML  &lt;&gt; PAKNVENGNIMPXN = ((PAKNVCOLNIMPSH**PAKCESENGYIMP)*PAKNVCOLPRODXN**(1-PAKCESENGYIMP)+(PAKNVOILNIMPSH**PAKCESENGYIMP)*PAKNVOILPRODXN**(1-PAKCESENGYIMP)+(PAKNVGASNIMPSH**PAKCESENGYIMP)*PAKNVGASPRODXN**(1-PAKCESENGYIMP)+(PAKNVRENNIMPSH**PAKCESENGYIMP)*PAKNVRENPRODXN**(1-PAKCESENGYIMP))**(1/(1-PAKCESENGYIMP)) $">
<polygon fill="#63b8ff" stroke="black" points="1329.5,-116 1100.5,-116 1100.5,-80 1329.5,-80 1329.5,-116"/>
<text text-anchor="start" x="1107" y="-93.8" font-family="Times New Roman,serif" font-size="14.00" fill="blue">PAKNVENGNIMPXN:Energy Imports</text>
</a>
</g>
</g>
<!-- PAKNEIMPGNFSXN -->
<g id="node13" class="node">
<title>PAKNEIMPGNFSXN</title>
<g id="a_node13"><a xlink:title="Imports (G&amp;S)
FRML  &lt;&gt; PAKNEIMPGNFSXN = ((PAKNEIMPENGYSH**PAKCESENGYIMPT)*PAKNVENGNIMPXN**(1-PAKCESENGYIMPT)+(PAKNEIMPOTHRSH**PAKCESENGYIMPT)*PAKNEIMPGSNEXN**(1-PAKCESENGYIMPT))**(1/(1-PAKCESENGYIMPT)) $">
<polygon fill="#63b8ff" stroke="black" points="1626,-170 1403,-170 1403,-134 1626,-134 1626,-170"/>
<text text-anchor="start" x="1409.5" y="-147.8" font-family="Times New Roman,serif" font-size="14.00" fill="blue">PAKNEIMPGNFSXN:Imports (G&amp;S)</text>
</a>
</g>
</g>
<!-- PAKNVENGNIMPXN&#45;&gt;PAKNEIMPGNFSXN -->
<g id="edge3" class="edge">
<title>PAKNVENGNIMPXN-&gt;PAKNEIMPGNFSXN</title>
<g id="a_edge3"><a xlink:href="bogus" xlink:title=" PAKNVENGNIMPXN -&gt; PAKNEIMPGNFSXN Min. att. 37%  max: 104%">
<path fill="none" stroke="black" stroke-width="8" d="M1317.14,-116.01C1333.8,-119 1350.89,-122.07 1367,-125 1379.67,-127.3 1392.96,-129.73 1406.14,-132.15"/>
<polygon fill="black" stroke="black" stroke-width="8" points="1405.09,-139.07 1416.19,-133.99 1407.62,-125.3 1405.09,-139.07"/>
</a>
</g>
</g>
<!-- PAKNECONGOVTXN -->
<g id="node10" class="node">
<title>PAKNECONGOVTXN</title>
<g id="a_node10"><a xlink:title="Government consumption (G&amp;S)
FRML &lt;Z,EXO&gt; PAKNECONGOVTXN = (PAKNECONGOVTXN(-1)*EXP(-PAKNECONGOVTXN_A+ (-0.3*(LOG(PAKNECONGOVTXN(-1))-LOG(PAKNECONPRVTXN(-1)))+0.0752362082122748+0.5*((LOG(PAKNECONGOVTXN(-1)))-(LOG(PAKNECONGOVTXN(-2))))+(1-0.5)*((LOG(PAKNECONPRVTXN))-(LOG(PAKNECONPRVTXN(-1))))) )) * (1-PAKNECONGOVTXN_D)+ PAKNECONGOVTXN_X*PAKNECONGOVTXN_D  $">
<polygon fill="#63b8ff" stroke="black" points="1027,-186 697,-186 697,-150 1027,-150 1027,-186"/>
<text text-anchor="start" x="703" y="-163.8" font-family="Times New Roman,serif" font-size="14.00" fill="blue">PAKNECONGOVTXN:Government consumption (G&amp;S)</text>
</a>
</g>
</g>
<!-- PAKNECONGOVTXN&#45;&gt;PAKNECONGOVTKN -->
<g id="edge1" class="edge">
<title>PAKNECONGOVTXN-&gt;PAKNECONGOVTKN</title>
<g id="a_edge1"><a xlink:href="bogus" xlink:title=" PAKNECONGOVTXN -&gt; PAKNECONGOVTKN Min. att. -867%  max: -19%">
<path fill="none" stroke="black" stroke-width="8" d="M1007.05,-186.02C1013.94,-188.64 1020.63,-191.62 1027,-195 1047.55,-205.9 1042.92,-221.25 1063,-233 1074.34,-239.64 1086.82,-245.12 1099.59,-249.66"/>
<polygon fill="black" stroke="black" stroke-width="8" points="1097.7,-256.41 1109.41,-252.94 1102.15,-243.13 1097.7,-256.41"/>
</a>
</g>
</g>
<!-- PAKNECONGOVTCN -->
<g id="node11" class="node">
<title>PAKNECONGOVTCN</title>
<g id="a_node11"><a xlink:title="Government consumption (G&amp;S)
FRML &lt;Z,EXO&gt; PAKNECONGOVTCN = (-PAKNECONGOVTCN_A*PAKNECONGOVTCN(-1)/100+ ((100 * ( (PAKGGEXPGNFSCN) / (PAKGGEXPGNFSCN(-1)) -1)) +0.764199817873939*DUMH) *PAKNECONGOVTCN(-1)/100+PAKNECONGOVTCN(-1)) * (1-PAKNECONGOVTCN_D)+ PAKNECONGOVTCN_X*PAKNECONGOVTCN_D  $">
<polygon fill="#63b8ff" stroke="black" points="1026.5,-294 697.5,-294 697.5,-258 1026.5,-258 1026.5,-294"/>
<text text-anchor="start" x="704" y="-271.8" font-family="Times New Roman,serif" font-size="14.00" fill="blue">PAKNECONGOVTCN:Government consumption (G&amp;S)</text>
</a>
</g>
</g>
<!-- PAKNECONGOVTCN&#45;&gt;PAKNECONGOVTKN -->
<g id="edge6" class="edge">
<title>PAKNECONGOVTCN-&gt;PAKNECONGOVTKN</title>
<g id="a_edge6"><a xlink:href="bogus" xlink:title=" PAKNECONGOVTCN -&gt; PAKNECONGOVTKN Min. att. 117%  max: 963%">
<path fill="none" stroke="black" stroke-width="8" d="M1026.68,-273.67C1037.38,-273.52 1048.14,-273.36 1058.8,-273.21"/>
<polygon fill="black" stroke="black" stroke-width="8" points="1059.08,-280.21 1068.98,-273.07 1058.88,-266.21 1059.08,-280.21"/>
</a>
</g>
</g>
<!-- PAKNEKRTTOTLCN -->
<g id="node12" class="node">
<title>PAKNEKRTTOTLCN</title>
<g id="a_node12"><a xlink:title="PAKNEKRTTOTLCN
FRML &lt;Z,EXO&gt; PAKNEKRTTOTLCN = (-PAKNEKRTTOTLCN_A+ (((PAKUCK)-(PAKUCK(-1)))+7.05881784375082E-05*DUMH) +PAKNEKRTTOTLCN(-1)) * (1-PAKNEKRTTOTLCN_D)+ PAKNEKRTTOTLCN_X*PAKNEKRTTOTLCN_D  $">
<polygon fill="#63b8ff" stroke="black" points="563,-564 423,-564 423,-528 563,-528 563,-564"/>
<text text-anchor="start" x="429" y="-541.8" font-family="Times New Roman,serif" font-size="14.00" fill="blue">PAKNEKRTTOTLCN:</text>
</a>
</g>
</g>
<!-- PAKNEKRTTOTLCN&#45;&gt;PAKNEGDIFPRVKN -->
<g id="edge10" class="edge">
<title>PAKNEKRTTOTLCN-&gt;PAKNEGDIFPRVKN</title>
<g id="a_edge10"><a xlink:href="bogus" xlink:title=" PAKNEKRTTOTLCN -&gt; PAKNEGDIFPRVKN Min. att. -0%  max: 90%">
<path fill="none" stroke="black" stroke-width="8" d="M563.03,-540.92C610.43,-537.43 674.8,-532.7 731.59,-528.52"/>
<polygon fill="black" stroke="black" stroke-width="8" points="732.27,-535.49 741.73,-527.77 731.24,-521.53 732.27,-535.49"/>
</a>
</g>
</g>
<!-- PAKNEIMPGNFSKN -->
<g id="node22" class="node">
<title>PAKNEIMPGNFSKN</title>
<g id="a_node22"><a xlink:title="Imports (G&amp;S)
FRML &lt;Z,EXO&gt; PAKNEIMPGNFSKN = (PAKNEIMPGNFSKN(-1)*EXP(-PAKNEIMPGNFSKN_A+ (-0.324143718656754*(LOG(PAKNEIMPGNFSKN(-1))-LOG(PAKNEGDETTOTKN(-1))+0.8*LOG(PAKNEIMPGNFSXN(-1)/PAKNYGDPFCSTXN(-1)))-0.583459272245018+1*((LOG(PAKNEGDETTOTKN))-(LOG(PAKNEGDETTOTKN(-1))))-0.0921874580409631*((LOG(PAKNEIMPGNFSXN/PAKNYGDPFCSTXN))-(LOG(PAKNEIMPGNFSXN(-1)/PAKNYGDPFCSTXN(-1))))-0.0361746331863615*DURING_2012) )) * (1-PAKNEIMPGNFSKN_D)+ PAKNEIMPGNFSKN_X*PAKNEIMPGNFSKN_D  $">
<polygon fill="#63b8ff" stroke="black" points="1885,-304 1662,-304 1662,-268 1885,-268 1885,-304"/>
<text text-anchor="start" x="1668.5" y="-281.8" font-family="Times New Roman,serif" font-size="14.00" fill="blue">PAKNEIMPGNFSKN:Imports (G&amp;S)</text>
</a>
</g>
</g>
<!-- PAKNEIMPGNFSXN&#45;&gt;PAKNEIMPGNFSKN -->
<g id="edge23" class="edge">
<title>PAKNEIMPGNFSXN-&gt;PAKNEIMPGNFSKN</title>
<g id="a_edge23"><a xlink:href="bogus" xlink:title=" PAKNEIMPGNFSXN -&gt; PAKNEIMPGNFSKN Min. att. -390%  max: 1559%">
<path fill="none" stroke="black" stroke-width="8" d="M1550.16,-170.07C1596.34,-194.15 1678.06,-236.76 1728.52,-263.07"/>
<polygon fill="black" stroke="black" stroke-width="8" points="1725.46,-269.37 1737.57,-267.79 1731.94,-256.96 1725.46,-269.37"/>
</a>
</g>
</g>
<!-- PAKNECONENGYXN -->
<g id="node14" class="node">
<title>PAKNECONENGYXN</title>
<g id="a_node14"><a xlink:title="Energy Consumption
FRML &lt;Z,EXO&gt; PAKNECONENGYXN = (PAKNECONENGYXN(-1)*EXP(-PAKNECONENGYXN_A+ (((LOG(PAKNECONENGYGN))-(LOG(PAKNECONENGYGN(-1))))+0.0550557534575806*DUMH) )) * (1-PAKNECONENGYXN_D)+ PAKNECONENGYXN_X*PAKNECONENGYXN_D  $">
<polygon fill="#63b8ff" stroke="black" points="275.5,-159 13.5,-159 13.5,-123 275.5,-123 275.5,-159"/>
<text text-anchor="start" x="19.5" y="-136.8" font-family="Times New Roman,serif" font-size="14.00" fill="blue">PAKNECONENGYXN:Energy Consumption</text>
</a>
</g>
</g>
<!-- PAKNECONENGYXN&#45;&gt;PAKNECONPRVTXN -->
<g id="edge15" class="edge">
<title>PAKNECONENGYXN-&gt;PAKNECONPRVTXN</title>
<g id="a_edge15"><a xlink:href="bogus" xlink:title=" PAKNECONENGYXN -&gt; PAKNECONPRVTXN Min. att. 1%  max: 29%">
<path fill="none" stroke="black" stroke-width="2.91" d="M275.51,-151.13C302.7,-153.25 331.42,-155.49 358.73,-157.61"/>
<polygon fill="black" stroke="black" stroke-width="2.91" points="358.48,-161.11 368.72,-158.39 359.02,-154.13 358.48,-161.11"/>
</a>
</g>
</g>
<!-- PAKNEIMPGSNEXN -->
<g id="node15" class="node">
<title>PAKNEIMPGSNEXN</title>
<g id="a_node15"><a xlink:title="Imports (Non-energy)
FRML &lt;Z,EXO&gt; PAKNEIMPGSNEXN = (PAKNEIMPGSNEXN(-1)*EXP(-PAKNEIMPGSNEXN_A+ (-0.278529319815428*(LOG(PAKNEIMPGSNEXN(-1))-0.3*LOG(PAKNYGDPFCSTXN(-1))-(1-0.3)*LOG(PAKPMKEY(-1)*PAKPANUSATLS(-1)))+0.4*((LOG(PAKNYGDPFCSTXN))-(LOG(PAKNYGDPFCSTXN(-1))))+(1-0.4)*((LOG(PAKPMKEY*PAKPANUSATLS))-(LOG(PAKPMKEY(-1)*PAKPANUSATLS(-1))))-0.888813883474775+0.135666902654654*DURING_2012+0.216228696118762*DURING_2008) )) * (1-PAKNEIMPGSNEXN_D)+ PAKNEIMPGSNEXN_X*PAKNEIMPGSNEXN_D  $">
<polygon fill="#63b8ff" stroke="black" points="1345,-170 1085,-170 1085,-134 1345,-134 1345,-170"/>
<text text-anchor="start" x="1091" y="-147.8" font-family="Times New Roman,serif" font-size="14.00" fill="blue">PAKNEIMPGSNEXN:Imports (Non-energy)</text>
</a>
</g>
</g>
<!-- PAKNEIMPGSNEXN&#45;&gt;PAKNEIMPGNFSXN -->
<g id="edge4" class="edge">
<title>PAKNEIMPGSNEXN-&gt;PAKNEIMPGNFSXN</title>
<g id="a_edge4"><a xlink:href="bogus" xlink:title=" PAKNEIMPGSNEXN -&gt; PAKNEIMPGNFSXN Min. att. -4%  max: 63%">
<path fill="none" stroke="black" stroke-width="6.33" d="M1345.19,-152C1360.88,-152 1376.87,-152 1392.44,-152"/>
<polygon fill="black" stroke="black" stroke-width="6.33" points="1392.6,-157.54 1402.6,-152 1392.6,-146.46 1392.6,-157.54"/>
</a>
</g>
</g>
<!-- PAKGGEXPGNFSCN -->
<g id="node16" class="node">
<title>PAKGGEXPGNFSCN</title>
<g id="a_node16"><a xlink:title="Expenditure on Goods and Services
FRML &lt;Z,EXO&gt; PAKGGEXPGNFSCN = (0.3*PAKGGEXPGNFSCN(-1)+(1-0.3)*(0.80*(PAKGGREVTOTLCN-PAKGGEXPINTPCN(-0)))+505277.259999999*DURING_2012 + PAKGGEXPGNFSCN_A)* (1-PAKGGEXPGNFSCN_D)+ PAKGGEXPGNFSCN_X*PAKGGEXPGNFSCN_D  $">
<polygon fill="#63b8ff" stroke="black" points="661,-294 325,-294 325,-258 661,-258 661,-294"/>
<text text-anchor="start" x="331" y="-271.8" font-family="Times New Roman,serif" font-size="14.00" fill="blue">PAKGGEXPGNFSCN:Expenditure on Goods and Services</text>
</a>
</g>
</g>
<!-- PAKGGEXPGNFSCN&#45;&gt;PAKNECONGOVTCN -->
<g id="edge18" class="edge">
<title>PAKGGEXPGNFSCN-&gt;PAKNECONGOVTCN</title>
<g id="a_edge18"><a xlink:href="bogus" xlink:title=" PAKGGEXPGNFSCN -&gt; PAKNECONGOVTCN Min. att. -18%  max: 100%">
<path fill="none" stroke="black" stroke-width="8" d="M661.12,-276C669.76,-276 678.44,-276 687.1,-276"/>
<polygon fill="black" stroke="black" stroke-width="8" points="687.24,-283 697.24,-276 687.24,-269 687.24,-283"/>
</a>
</g>
</g>
<!-- PAKNEGDETTOTKN&#45;&gt;PAKNEIMPGNFSKN -->
<g id="edge2" class="edge">
<title>PAKNEGDETTOTKN-&gt;PAKNEIMPGNFSKN</title>
<g id="a_edge2"><a xlink:href="bogus" xlink:title=" PAKNEGDETTOTKN -&gt; PAKNEIMPGNFSKN Min. att. -755%  max: 207%">
<path fill="none" stroke="black" stroke-width="8" d="M1599.65,-286C1616.29,-286 1634.07,-286 1651.65,-286"/>
<polygon fill="black" stroke="black" stroke-width="8" points="1651.97,-293 1661.97,-286 1651.97,-279 1651.97,-293"/>
</a>
</g>
</g>
<!-- PAKNEGDIFGOVCN -->
<g id="node18" class="node">
<title>PAKNEGDIFGOVCN</title>
<g id="a_node18"><a xlink:title="Government Investment
FRML &lt;Z,EXO&gt; PAKNEGDIFGOVCN = (PAKNEGDIFGOVCN(-1)*EXP(-PAKNEGDIFGOVCN_A+ (((LOG(PAKGGEXPCAPTCN))-(LOG(PAKGGEXPCAPTCN(-1))))-0.00510713331489238*DUMH) )) * (1-PAKNEGDIFGOVCN_D)+ PAKNEGDIFGOVCN_X*PAKNEGDIFGOVCN_D  $">
<polygon fill="#63b8ff" stroke="black" points="629.5,-402 356.5,-402 356.5,-366 629.5,-366 629.5,-402"/>
<text text-anchor="start" x="363" y="-379.8" font-family="Times New Roman,serif" font-size="14.00" fill="blue">PAKNEGDIFGOVCN:Government Investment</text>
</a>
</g>
</g>
<!-- PAKNEGDIFGOVCN&#45;&gt;PAKNEGDIFGOVKN -->
<g id="edge25" class="edge">
<title>PAKNEGDIFGOVCN-&gt;PAKNEGDIFGOVKN</title>
<g id="a_edge25"><a xlink:href="bogus" xlink:title=" PAKNEGDIFGOVCN -&gt; PAKNEGDIFGOVKN Min. att. 129%  max: 988%">
<path fill="none" stroke="black" stroke-width="8" d="M629.61,-384C657.26,-384 686.46,-384 714.46,-384"/>
<polygon fill="black" stroke="black" stroke-width="8" points="714.72,-391 724.72,-384 714.72,-377 714.72,-391"/>
</a>
</g>
</g>
<!-- PAKNECONPRVTKN -->
<g id="node19" class="node">
<title>PAKNECONPRVTKN</title>
<g id="a_node19"><a xlink:title="Household Consumption
FRML &lt;Z,EXO&gt; PAKNECONPRVTKN = (PAKNECONPRVTKN(-1)*EXP(-PAKNECONPRVTKN_A+ (-0.2*(LOG(PAKNECONPRVTKN(-1))-LOG((PAKNYYWBTOTLCN(-1)*(1-PAKGGREVDRCTXN(-1)/100))/PAKNECONPRVTXN(-1)))+1*((LOG((PAKNYYWBTOTLCN*(1-PAKGGREVDRCTXN/100))/PAKNECONPRVTXN))-(LOG((PAKNYYWBTOTLCN(-1)*(1-PAKGGREVDRCTXN(-1)/100))/PAKNECONPRVTXN(-1))))+0.0303228629698929+0.0163839011059956*DURING_2010-0.3*(PAKFMLBLPOLYXN/100-((LOG(PAKNECONPRVTXN))-(LOG(PAKNECONPRVTXN(-1)))))) )) * (1-PAKNECONPRVTKN_D)+ PAKNECONPRVTKN_X*PAKNECONPRVTKN_D  $">
<polygon fill="#63b8ff" stroke="black" points="1354,-224 1076,-224 1076,-188 1354,-188 1354,-224"/>
<text text-anchor="start" x="1082" y="-201.8" font-family="Times New Roman,serif" font-size="14.00" fill="blue">PAKNECONPRVTKN:Household Consumption</text>
</a>
</g>
</g>
<!-- PAKNECONPRVTKN&#45;&gt;PAKNEGDETTOTKN -->
<g id="edge19" class="edge">
<title>PAKNECONPRVTKN-&gt;PAKNEGDETTOTKN</title>
<g id="a_edge19"><a xlink:href="bogus" xlink:title=" PAKNECONPRVTKN -&gt; PAKNEGDETTOTKN Min. att. -2284%  max: 2484%">
<path fill="none" stroke="black" stroke-width="8" d="M1289.86,-224.07C1314.44,-230.23 1341.94,-237.26 1367,-244 1391.7,-250.65 1418.64,-258.26 1442.6,-265.17"/>
<polygon fill="black" stroke="black" stroke-width="8" points="1440.77,-271.93 1452.32,-267.98 1444.66,-258.48 1440.77,-271.93"/>
</a>
</g>
</g>
<!-- PAKNECONPRVTKN&#45;&gt;PAKNYGDPMKTPKN -->
<g id="edge31" class="edge">
<title>PAKNECONPRVTKN-&gt;PAKNYGDPMKTPKN</title>
<g id="a_edge31"><a xlink:href="bogus" xlink:title=" PAKNECONPRVTKN -&gt; PAKNYGDPMKTPKN Min. att. -1557%  max: 290%">
<path fill="none" stroke="black" stroke-width="8" d="M1354.2,-214.91C1503.83,-224.55 1743.46,-239.99 1910.69,-250.77"/>
<polygon fill="black" stroke="black" stroke-width="8" points="1910.41,-257.76 1920.84,-251.42 1911.31,-243.79 1910.41,-257.76"/>
</a>
</g>
</g>
<!-- PAKNYYWBTOTLCN&#45;&gt;PAKNECONPRVTKN -->
<g id="edge34" class="edge">
<title>PAKNYYWBTOTLCN-&gt;PAKNECONPRVTKN</title>
<g id="a_edge34"><a xlink:href="bogus" xlink:title=" PAKNYYWBTOTLCN -&gt; PAKNECONPRVTKN Min. att. -594%  max: 5823%">
<path fill="none" stroke="black" stroke-width="8" d="M1003.74,-94.14C1011.98,-98 1019.83,-102.58 1027,-108 1055.23,-129.33 1034.61,-157.89 1063,-179 1064.82,-180.36 1066.69,-181.65 1068.6,-182.89"/>
<polygon fill="black" stroke="black" stroke-width="8" points="1065.06,-188.92 1077.23,-187.95 1072.15,-176.85 1065.06,-188.92"/>
</a>
</g>
</g>
<!-- PAKNEIMPGNFSKN&#45;&gt;PAKNYGDPMKTPKN -->
<g id="edge22" class="edge">
<title>PAKNEIMPGNFSKN-&gt;PAKNYGDPMKTPKN</title>
<g id="a_edge22"><a xlink:href="bogus" xlink:title=" PAKNEIMPGNFSKN -&gt; PAKNYGDPMKTPKN Min. att. -46%  max: 456%">
<path fill="none" stroke="black" stroke-width="8" d="M1885.32,-278.18C1893.62,-277.6 1902.11,-277 1910.7,-276.39"/>
<polygon fill="black" stroke="black" stroke-width="8" points="1911.35,-283.36 1920.84,-275.68 1910.37,-269.4 1911.35,-283.36"/>
</a>
</g>
</g>
<!-- PAKLMEMPTOTLCN -->
<g id="node23" class="node">
<title>PAKLMEMPTOTLCN</title>
<g id="a_node23"><a xlink:title="Employment
FRML &lt;Z,EXO&gt; PAKLMEMPTOTLCN = (PAKLMEMPTOTLCN(-1)*EXP(-PAKLMEMPTOTLCN_A+ (-0.345624644563667*(LOG(PAKLMEMPTOTLCN(-1))-LOG(PAKLMEMPSTRLCN(-1)))-0.1*(((LOG(PAKNYWRTTOTLCN/PAKNYGDPFCSTXN))-(LOG(PAKNYWRTTOTLCN(-1)/PAKNYGDPFCSTXN(-1))))-((LOG(PAKNYGDPPOTLKN/PAKLMEMPSTRLCN))-(LOG(PAKNYGDPPOTLKN(-1)/PAKLMEMPSTRLCN(-1)))))-0.0011790007645121+((LOG(PAKLMEMPSTRLCN))-(LOG(PAKLMEMPSTRLCN(-1))))+0.175412878170024*PAKNYGDPGAP_/100+0.0369790799942338*DURING_2010) )) * (1-PAKLMEMPTOTLCN_D)+ PAKLMEMPTOTLCN_X*PAKLMEMPTOTLCN_D  $">
<polygon fill="#63b8ff" stroke="black" points="601.5,-113 384.5,-113 384.5,-77 601.5,-77 601.5,-113"/>
<text text-anchor="start" x="391" y="-90.8" font-family="Times New Roman,serif" font-size="14.00" fill="blue">PAKLMEMPTOTLCN:Employment</text>
</a>
</g>
</g>
<!-- PAKLMEMPTOTLCN&#45;&gt;PAKNYYWBTOTLCN -->
<g id="edge13" class="edge">
<title>PAKLMEMPTOTLCN-&gt;PAKNYYWBTOTLCN</title>
<g id="a_edge13"><a xlink:href="bogus" xlink:title=" PAKLMEMPTOTLCN -&gt; PAKNYYWBTOTLCN Min. att. -6%  max: 84%">
<path fill="none" stroke="black" stroke-width="8" d="M601.63,-89.43C635.27,-87.69 673.04,-85.73 709.13,-83.86"/>
<polygon fill="black" stroke="black" stroke-width="8" points="709.63,-90.85 719.25,-83.34 708.91,-76.86 709.63,-90.85"/>
</a>
</g>
</g>
<!-- PAKNEGDIFGOVXN -->
<g id="node24" class="node">
<title>PAKNEGDIFGOVXN</title>
<g id="a_node24"><a xlink:title="Government Investment
FRML &lt;Z,EXO&gt; PAKNEGDIFGOVXN = (PAKNEGDIFGOVXN(-1)*EXP(-PAKNEGDIFGOVXN_A+ (-0.480254922468272*(LOG(PAKNEGDIFGOVXN(-1))-LOG(PAKNECONPRVTXN(-1)))+0.00720714576835064+0.0731599680348391*((LOG(PAKNEGDIFGOVXN(-1)))-(LOG(PAKNEGDIFGOVXN(-2))))+(1-0.0731599680348391)*((LOG(PAKNECONPRVTXN))-(LOG(PAKNECONPRVTXN(-1))))) )) * (1-PAKNEGDIFGOVXN_D)+ PAKNEGDIFGOVXN_X*PAKNEGDIFGOVXN_D  $">
<polygon fill="#63b8ff" stroke="black" points="630,-456 356,-456 356,-420 630,-420 630,-456"/>
<text text-anchor="start" x="362" y="-433.8" font-family="Times New Roman,serif" font-size="14.00" fill="blue">PAKNEGDIFGOVXN:Government Investment</text>
</a>
</g>
</g>
<!-- PAKNEGDIFGOVXN&#45;&gt;PAKNEGDIFGOVKN -->
<g id="edge27" class="edge">
<title>PAKNEGDIFGOVXN-&gt;PAKNEGDIFGOVKN</title>
<g id="a_edge27"><a xlink:href="bogus" xlink:title=" PAKNEGDIFGOVXN -&gt; PAKNEGDIFGOVKN Min. att. -892%  max: -32%">
<path fill="none" stroke="black" stroke-width="8" d="M616.46,-419.98C652.38,-414.7 691.81,-408.89 728.33,-403.52"/>
<polygon fill="black" stroke="black" stroke-width="8" points="729.68,-410.4 738.55,-402.02 727.64,-396.55 729.68,-410.4"/>
</a>
</g>
</g>
<!-- PAKPSTAR -->
<g id="node25" class="node">
<title>PAKPSTAR</title>
<g id="a_node25"><a xlink:title="Nominal marginal cost
FRML  &lt;&gt; PAKPSTAR = (1/PAKNYGDPTFP)*((PAKNEKRTTOTLCN/(1-PAKNYYWBTOTLCN_))**(1-PAKNYYWBTOTLCN_))*((PAKNYWRTTOTLCN/PAKNYYWBTOTLCN_)**PAKNYYWBTOTLCN_) $">
<polygon fill="#63b8ff" stroke="black" points="598,-348 388,-348 388,-312 598,-312 598,-348"/>
<text text-anchor="start" x="394" y="-325.8" font-family="Times New Roman,serif" font-size="14.00" fill="blue">PAKPSTAR:Nominal marginal cost</text>
</a>
</g>
</g>
<!-- PAKPSTAR&#45;&gt;PAKNYGDPFCSTXN -->
<g id="edge28" class="edge">
<title>PAKPSTAR-&gt;PAKNYGDPFCSTXN</title>
<g id="a_edge28"><a xlink:href="bogus" xlink:title=" PAKPSTAR -&gt; PAKNYGDPFCSTXN Min. att. -20%  max: 2191%">
<path fill="none" stroke="black" stroke-width="8" d="M598.19,-330C639.37,-330 687.16,-330 730.61,-330"/>
<polygon fill="black" stroke="black" stroke-width="8" points="730.68,-337 740.68,-330 730.68,-323 730.68,-337"/>
</a>
</g>
</g>
<!-- PAKNYGDPPOTLKN -->
<g id="node26" class="node">
<title>PAKNYGDPPOTLKN</title>
<g id="a_node26"><a xlink:title="Potential GDP
FRML  &lt;&gt; PAKNYGDPPOTLKN = PAKNYGDPTFP*(PAKLMEMPSTRLCN**PAKNYYWBTOTLCN_)*(PAKNEGDIKSTKKN(-1)**(1-PAKNYYWBTOTLCN_)) $">
<polygon fill="#63b8ff" stroke="black" points="603.5,-510 382.5,-510 382.5,-474 603.5,-474 603.5,-510"/>
<text text-anchor="start" x="389" y="-487.8" font-family="Times New Roman,serif" font-size="14.00" fill="blue">PAKNYGDPPOTLKN:Potential GDP</text>
</a>
</g>
</g>
<!-- PAKNYGDPPOTLKN&#45;&gt;PAKNEGDIFPRVKN -->
<g id="edge33" class="edge">
<title>PAKNYGDPPOTLKN-&gt;PAKNEGDIFPRVKN</title>
<g id="a_edge33"><a xlink:href="bogus" xlink:title=" PAKNYGDPPOTLKN -&gt; PAKNEGDIFPRVKN Min. att. -8%  max: 66%">
<path fill="none" stroke="black" stroke-width="6.61" d="M603.61,-500.06C643.9,-503.03 689.88,-506.41 731.73,-509.49"/>
<polygon fill="black" stroke="black" stroke-width="6.61" points="731.31,-515.26 741.71,-510.22 732.16,-503.72 731.31,-515.26"/>
</a>
</g>
</g>
<!-- PAKNYGDPFCSTXN&#45;&gt;PAKNEIMPGNFSKN -->
<g id="edge16" class="edge">
<title>PAKNYGDPFCSTXN-&gt;PAKNEIMPGNFSKN</title>
<g id="a_edge16"><a xlink:href="bogus" xlink:title=" PAKNYGDPFCSTXN -&gt; PAKNEIMPGNFSKN Min. att. -1112%  max: 296%">
<path fill="none" stroke="black" stroke-width="8" d="M983.3,-333.24C1133.96,-335.94 1399.79,-336.21 1626,-313 1642.77,-311.28 1660.51,-308.68 1677.62,-305.77"/>
<polygon fill="black" stroke="black" stroke-width="8" points="1678.97,-312.64 1687.62,-304.02 1676.56,-298.85 1678.97,-312.64"/>
</a>
</g>
</g>
<!-- PAKFMLBLPOLYXN&#45;&gt;PAKNECONPRVTKN -->
<g id="edge12" class="edge">
<title>PAKFMLBLPOLYXN-&gt;PAKNECONPRVTKN</title>
<g id="a_edge12"><a xlink:href="bogus" xlink:title=" PAKFMLBLPOLYXN -&gt; PAKNECONPRVTKN Min. att. -160%  max: 20%">
<path fill="none" stroke="black" stroke-width="8" d="M964.52,-217.37C996.13,-215.93 1031.65,-214.31 1065.76,-212.76"/>
<polygon fill="black" stroke="black" stroke-width="8" points="1066.15,-219.75 1075.82,-212.3 1065.51,-205.76 1066.15,-219.75"/>
</a>
</g>
</g>
<!-- PAKNECONPRVTXN&#45;&gt;PAKNECONGOVTXN -->
<g id="edge7" class="edge">
<title>PAKNECONPRVTXN-&gt;PAKNECONGOVTXN</title>
<g id="a_edge7"><a xlink:href="bogus" xlink:title=" PAKNECONPRVTXN -&gt; PAKNECONGOVTXN Min. att. 26%  max: 100%">
<path fill="none" stroke="black" stroke-width="8" d="M617.23,-168C639.55,-168 663.21,-168 686.66,-168"/>
<polygon fill="black" stroke="black" stroke-width="8" points="686.7,-175 696.7,-168 686.7,-161 686.7,-175"/>
</a>
</g>
</g>
<!-- PAKNECONPRVTXN&#45;&gt;PAKNECONPRVTKN -->
<g id="edge29" class="edge">
<title>PAKNECONPRVTXN-&gt;PAKNECONPRVTKN</title>
<g id="a_edge29"><a xlink:href="bogus" xlink:title=" PAKNECONPRVTXN -&gt; PAKNECONPRVTKN Min. att. -5708%  max: 593%">
<path fill="none" stroke="black" stroke-width="8" d="M548.98,-149.91C648.88,-120.26 864.86,-71.26 1027,-141 1048.37,-150.19 1042.52,-167.96 1063,-179 1066.3,-180.78 1069.69,-182.45 1073.16,-184"/>
<polygon fill="black" stroke="black" stroke-width="8" points="1070.57,-190.51 1082.49,-187.89 1075.95,-177.58 1070.57,-190.51"/>
</a>
</g>
</g>
<!-- PAKNECONPRVTXN&#45;&gt;PAKFMLBLPOLYXN -->
<g id="edge9" class="edge">
<title>PAKNECONPRVTXN-&gt;PAKFMLBLPOLYXN</title>
<g id="a_edge9"><a xlink:href="bogus" xlink:title=" PAKNECONPRVTXN -&gt; PAKFMLBLPOLYXN Min. att. -94%  max: 1459%">
<path fill="none" stroke="black" stroke-width="8" d="M616.46,-186.02C659.4,-192.34 707.37,-199.39 749.37,-205.57"/>
<polygon fill="black" stroke="black" stroke-width="8" points="748.44,-212.51 759.35,-207.04 750.48,-198.66 748.44,-212.51"/>
</a>
</g>
</g>
</g>
</svg>