<svg xmlns="http://www.w3.org/2000/svg" xmlns:xlink="http://www.w3.org/1999/xlink" width="432pt" height="118pt" viewBox="0.00 0.00 432.00 118.09">
<g id="graph0" class="graph" transform="scale(0.188646 0.188646) rotate(0) translate(4 622)">
<title>TD</title>
<polygon fill="white" stroke="none" points="-4,4 -4,-622 2286,-622 2286,4 -4,4"/>
<text text-anchor="middle" x="1141" y="-7.8" font-family="Times New Roman,serif" font-size="14.00">PAKNYGDPMKTPKN</text>
<!-- PAKNEGDIFGOVCN -->
<g id="node1" class="node">
<title>PAKNEGDIFGOVCN</title>
<g id="a_node1"><a xlink:title="Government Investment
FRML &lt;Z,EXO&gt; PAKNEGDIFGOVCN = (PAKNEGDIFGOVCN(-1)*EXP(-PAKNEGDIFGOVCN_A+ (((LOG(PAKGGEXPCAPTCN))-(LOG(PAKGGEXPCAPTCN(-1))))-0.00510713331489238*DUMH) )) * (1-PAKNEGDIFGOVCN_D)+ PAKNEGDIFGOVCN_X*PAKNEGDIFGOVCN_D  $">
<polygon fill="#63b8ff" stroke="black" points="629.5,-402 356.5,-402 356.5,-366 629.5,-366 629.5,-402"/>
<text text-anchor="start" x="363" y="-379.8" font-family="Times New Roman,serif" font-size="14.00" fill="blue">PAKNEGDIFGOVCN:Government Investment</text>
</a>
</g>
</g>
<!-- PAKNEGDIFGOVKN -->
<g id="node23" class="node">
<title>PAKNEGDIFGOVKN</title>
<g id="a_node23"><a xlink:title="Government Investment
FRML  &lt;&gt; PAKNEGDIFGOVKN = PAKNEGDIFGOVCN/PAKNEGDIFGOVXN $">
<polygon fill="#63b8ff" stroke="black" points="999,-416 725,-416 725,-380 999,-380 999,-416"/>
<text text-anchor="start" x="731" y="-393.8" font-family="Times New Roman,serif" font-size="14.00" fill="blue">PAKNEGDIFGOVKN:Government Investment</text>
</a>
</g>
</g>
<!-- PAKNEGDIFGOVCN&#45;&gt;PAKNEGDIFGOVKN -->
<g id="edge14" class="edge">
<title>PAKNEGDIFGOVCN-&gt;PAKNEGDIFGOVKN</title>
<g id="a_edge14"><a xlink:href="bogus" xlink:title=" PAKNEGDIFGOVCN -&gt; PAKNEGDIFGOVKN Min. att. 129%  max: 988%">
<path fill="none" stroke="black" stroke-width="8" d="M629.88,-389.18C655.24,-390.15 681.91,-391.17 707.75,-392.15"/>
<polygon fill="black" stroke="black" stroke-width="8" points="707.36,-399.14 717.62,-392.53 707.9,-385.15 707.36,-399.14"/>
</a>
</g>
</g>
<!-- PAKFMLBLPOLYXN -->
<g id="node2" class="node">
<title>PAKFMLBLPOLYXN</title>
<g id="a_node2"><a xlink:title="Policy Rate
FRML &lt;Z,EXO&gt; PAKFMLBLPOLYXN = (-100*PAKFMLBLPOLYXN_A+100* (0.905129162122953*PAKFMLBLPOLYXN(-1)/100+(1-0.905129162122953)*(PAKMPPOLNATRXN/100+1.2*(((LOG(PAKNECONPRVTXN))-(LOG(PAKNECONPRVTXN(-1))))-PAKINFLEXPT/100)+0.5*PAKNYGDPGAP_/100)) ) * (1-PAKFMLBLPOLYXN_D)+ PAKFMLBLPOLYXN_X*PAKFMLBLPOLYXN_D  $">
<polygon fill="#63b8ff" stroke="black" points="964.5,-240 759.5,-240 759.5,-204 964.5,-204 964.5,-240"/>
<text text-anchor="start" x="766" y="-217.8" font-family="Times New Roman,serif" font-size="14.00" fill="blue">PAKFMLBLPOLYXN:Policy Rate</text>
</a>
</g>
</g>
<!-- PAKNECONPRVTKN -->
<g id="node21" class="node">
<title>PAKNECONPRVTKN</title>
<g id="a_node21"><a xlink:title="Household Consumption
FRML &lt;Z,EXO&gt; PAKNECONPRVTKN = (PAKNECONPRVTKN(-1)*EXP(-PAKNECONPRVTKN_A+ (-0.2*(LOG(PAKNECONPRVTKN(-1))-LOG((PAKNYYWBTOTLCN(-1)*(1-PAKGGREVDRCTXN(-1)/100))/PAKNECONPRVTXN(-1)))+1*((LOG((PAKNYYWBTOTLCN*(1-PAKGGREVDRCTXN/100))/PAKNECONPRVTXN))-(LOG((PAKNYYWBTOTLCN(-1)*(1-PAKGGREVDRCTXN(-1)/100))/PAKNECONPRVTXN(-1))))+0.0303228629698929+0.0163839011059956*DURING_2010-0.3*(PAKFMLBLPOLYXN/100-((LOG(PAKNECONPRVTXN))-(LOG(PAKNECONPRVTXN(-1)))))) )) * (1-PAKNECONPRVTKN_D)+ PAKNECONPRVTKN_X*PAKNECONPRVTKN_D  $">
<polygon fill="#63b8ff" stroke="black" points="1354,-240 1076,-240 1076,-204 1354,-204 1354,-240"/>
<text text-anchor="start" x="1082" y="-217.8" font-family="Times New Roman,serif" font-size="14.00" fill="blue">PAKNECONPRVTKN:Household Consumption</text>
</a>
</g>
</g>
<!-- PAKFMLBLPOLYXN&#45;&gt;PAKNECONPRVTKN -->
<g id="edge26" class="edge">
<title>PAKFMLBLPOLYXN-&gt;PAKNECONPRVTKN</title>
<g id="a_edge26"><a xlink:href="bogus" xlink:title=" PAKFMLBLPOLYXN -&gt; PAKNECONPRVTKN Min. att. -160%  max: 20%">
<path fill="none" stroke="black" stroke-width="8" d="M965,-222C994.38,-222 1027.13,-222 1058.96,-222"/>
<polygon fill="black" stroke="black" stroke-width="8" points="1058.53,-229 1068.53,-222 1058.53,-215 1058.53,-229"/>
</a>
</g>
</g>
<!-- PAKNEKRTTOTLCN -->
<g id="node3" class="node">
<title>PAKNEKRTTOTLCN</title>
<g id="a_node3"><a xlink:title="PAKNEKRTTOTLCN
FRML &lt;Z,EXO&gt; PAKNEKRTTOTLCN = (-PAKNEKRTTOTLCN_A+ (((PAKUCK)-(PAKUCK(-1)))+7.05881784375082E-05*DUMH) +PAKNEKRTTOTLCN(-1)) * (1-PAKNEKRTTOTLCN_D)+ PAKNEKRTTOTLCN_X*PAKNEKRTTOTLCN_D  $">
<polygon fill="#63b8ff" stroke="black" points="563,-510 423,-510 423,-474 563,-474 563,-510"/>
<text text-anchor="start" x="429" y="-487.8" font-family="Times New Roman,serif" font-size="14.00" fill="blue">PAKNEKRTTOTLCN:</text>
</a>
</g>
</g>
<!-- PAKNEGDIFPRVKN -->
<g id="node20" class="node">
<title>PAKNEGDIFPRVKN</title>
<g id="a_node20"><a xlink:title="Private Investment
FRML &lt;Z,EXO&gt; PAKNEGDIFPRVKN = (-PAKNEGDIFPRVKN_A*PAKNEGDIKSTKKN(-1)+ (-0.00526826150713402+0.826734606421746*(PAKNEGDIFPRVKN(-1)/PAKNEGDIKSTKKN(-2))+(1-0.826734606421746)*(((LOG(PAKNYGDPPOTLKN))-(LOG(PAKNYGDPPOTLKN(-1))))+PAKDEPR)-0.00378813564556318*((LOG(PAKNEKRTTOTLCN/PAKNYGDPFCSTXN))-(LOG(PAKNEKRTTOTLCN(-1)/PAKNYGDPFCSTXN(-1))))) *PAKNEGDIKSTKKN(-1)) * (1-PAKNEGDIFPRVKN_D)+ PAKNEGDIFPRVKN_X*PAKNEGDIFPRVKN_D  $">
<polygon fill="#63b8ff" stroke="black" points="982,-537 742,-537 742,-501 982,-501 982,-537"/>
<text text-anchor="start" x="748" y="-514.8" font-family="Times New Roman,serif" font-size="14.00" fill="blue">PAKNEGDIFPRVKN:Private Investment</text>
</a>
</g>
</g>
<!-- PAKNEKRTTOTLCN&#45;&gt;PAKNEGDIFPRVKN -->
<g id="edge18" class="edge">
<title>PAKNEKRTTOTLCN-&gt;PAKNEGDIFPRVKN</title>
<g id="a_edge18"><a xlink:href="bogus" xlink:title=" PAKNEKRTTOTLCN -&gt; PAKNEGDIFPRVKN Min. att. -0%  max: 90%">
<path fill="none" stroke="black" stroke-width="8" d="M563.46,-497.11C608.94,-500.46 669.91,-504.94 724.81,-508.98"/>
<polygon fill="black" stroke="black" stroke-width="8" points="724.19,-515.95 734.67,-509.71 725.21,-501.99 724.19,-515.95"/>
</a>
</g>
</g>
<!-- PAKNEGDIFGOVXN -->
<g id="node4" class="node">
<title>PAKNEGDIFGOVXN</title>
<g id="a_node4"><a xlink:title="Government Investment
FRML &lt;Z,EXO&gt; PAKNEGDIFGOVXN = (PAKNEGDIFGOVXN(-1)*EXP(-PAKNEGDIFGOVXN_A+ (-0.480254922468272*(LOG(PAKNEGDIFGOVXN(-1))-LOG(PAKNECONPRVTXN(-1)))+0.00720714576835064+0.0731599680348391*((LOG(PAKNEGDIFGOVXN(-1)))-(LOG(PAKNEGDIFGOVXN(-2))))+(1-0.0731599680348391)*((LOG(PAKNECONPRVTXN))-(LOG(PAKNECONPRVTXN(-1))))) )) * (1-PAKNEGDIFGOVXN_D)+ PAKNEGDIFGOVXN_X*PAKNEGDIFGOVXN_D  $">
<polygon fill="#63b8ff" stroke="black" points="630,-456 356,-456 356,-420 630,-420 630,-456"/>
<text text-anchor="start" x="362" y="-433.8" font-family="Times New Roman,serif" font-size="14.00" fill="blue">PAKNEGDIFGOVXN:Government Investment</text>
</a>
</g>
</g>
<!-- PAKNEGDIFGOVXN&#45;&gt;PAKNEGDIFGOVKN -->
<g id="edge1" class="edge">
<title>PAKNEGDIFGOVXN-&gt;PAKNEGDIFGOVKN</title>
<g id="a_edge1"><a xlink:href="bogus" xlink:title=" PAKNEGDIFGOVXN -&gt; PAKNEGDIFGOVKN Min. att. -892%  max: -32%">
<path fill="none" stroke="black" stroke-width="8" d="M630.4,-423.13C655.65,-420.38 682.18,-417.49 707.9,-414.69"/>
<polygon fill="black" stroke="black" stroke-width="8" points="708.54,-421.66 717.72,-413.62 707.02,-407.74 708.54,-421.66"/>
</a>
</g>
</g>
<!-- PAKNECONGOVTKN -->
<g id="node5" class="node">
<title>PAKNECONGOVTKN</title>
<g id="a_node5"><a xlink:title="Government Consumption
FRML  &lt;&gt; PAKNECONGOVTKN = PAKNECONGOVTCN/PAKNECONGOVTXN $">
<polygon fill="#63b8ff" stroke="black" points="1361,-340 1069,-340 1069,-304 1361,-304 1361,-340"/>
<text text-anchor="start" x="1075" y="-317.8" font-family="Times New Roman,serif" font-size="14.00" fill="blue">PAKNECONGOVTKN:Government Consumption</text>
</a>
</g>
</g>
<!-- PAKNYGDPMKTPKN -->
<g id="node12" class="node">
<title>PAKNYGDPMKTPKN</title>
<g id="a_node12"><a xlink:title="GDP Expenditure side at market prices
FRML  &lt;&gt; PAKNYGDPMKTPKN = PAKNECONPRVTKN+PAKNECONGOVTKN+PAKNEGDIFTOTKN+PAKNEGDISTKBKN+PAKNEEXPGNFSKN-PAKNEIMPGNFSKN+PAKNYGDPDISCKN+PAKADAP*PAKDISPREPKN $">
<polygon fill="red" stroke="black" points="2282,-344 1921,-344 1921,-308 2282,-308 2282,-344"/>
<text text-anchor="start" x="1927.5" y="-321.8" font-family="Times New Roman,serif" font-size="14.00" fill="blue">PAKNYGDPMKTPKN:GDP Expenditure side at market prices</text>
</a>
</g>
</g>
<!-- PAKNECONGOVTKN&#45;&gt;PAKNYGDPMKTPKN -->
<g id="edge16" class="edge">
<title>PAKNECONGOVTKN-&gt;PAKNYGDPMKTPKN</title>
<g id="a_edge16"><a xlink:href="bogus" xlink:title=" PAKNECONGOVTKN -&gt; PAKNYGDPMKTPKN Min. att. -108%  max: 835%">
<path fill="none" stroke="black" stroke-width="8" d="M1361.36,-338.22C1375.42,-339.35 1389.47,-340.31 1403,-341 1571.99,-349.56 1764.24,-344.31 1904.05,-337.78"/>
<polygon fill="black" stroke="black" stroke-width="8" points="1904.22,-344.78 1913.87,-337.31 1903.55,-330.79 1904.22,-344.78"/>
</a>
</g>
</g>
<!-- PAKNEGDETTOTKN -->
<g id="node28" class="node">
<title>PAKNEGDETTOTKN</title>
<g id="a_node28"><a xlink:title="GDE
FRML  &lt;&gt; PAKNEGDETTOTKN = (PAKNECONPRVTKN+PAKNECONGOVTKN+PAKNEGDIFTOTKN+PAKNEGDISTKBKN+PAKNYGDPDISCKN) $">
<polygon fill="#63b8ff" stroke="black" points="1599.5,-332 1429.5,-332 1429.5,-296 1599.5,-296 1599.5,-332"/>
<text text-anchor="start" x="1435.5" y="-309.8" font-family="Times New Roman,serif" font-size="14.00" fill="blue">PAKNEGDETTOTKN:GDE</text>
</a>
</g>
</g>
<!-- PAKNECONGOVTKN&#45;&gt;PAKNEGDETTOTKN -->
<g id="edge33" class="edge">
<title>PAKNECONGOVTKN-&gt;PAKNEGDETTOTKN</title>
<g id="a_edge33"><a xlink:href="bogus" xlink:title=" PAKNECONGOVTKN -&gt; PAKNEGDETTOTKN Min. att. -1269%  max: 1236%">
<path fill="none" stroke="black" stroke-width="8" d="M1361.26,-318.09C1378.56,-317.63 1395.92,-317.16 1412.41,-316.72"/>
<polygon fill="black" stroke="black" stroke-width="8" points="1412.45,-323.72 1422.26,-316.45 1412.07,-309.73 1412.45,-323.72"/>
</a>
</g>
</g>
<!-- PAKNECONGOVTCN -->
<g id="node6" class="node">
<title>PAKNECONGOVTCN</title>
<g id="a_node6"><a xlink:title="Government consumption (G&amp;S)
FRML &lt;Z,EXO&gt; PAKNECONGOVTCN = (-PAKNECONGOVTCN_A*PAKNECONGOVTCN(-1)/100+ ((100 * ( (PAKGGEXPGNFSCN) / (PAKGGEXPGNFSCN(-1)) -1)) +0.764199817873939*DUMH) *PAKNECONGOVTCN(-1)/100+PAKNECONGOVTCN(-1)) * (1-PAKNECONGOVTCN_D)+ PAKNECONGOVTCN_X*PAKNECONGOVTCN_D  $">
<polygon fill="#63b8ff" stroke="black" points="1026.5,-348 697.5,-348 697.5,-312 1026.5,-312 1026.5,-348"/>
<text text-anchor="start" x="704" y="-325.8" font-family="Times New Roman,serif" font-size="14.00" fill="blue">PAKNECONGOVTCN:Government consumption (G&amp;S)</text>
</a>
</g>
</g>
<!-- PAKNECONGOVTCN&#45;&gt;PAKNECONGOVTKN -->
<g id="edge9" class="edge">
<title>PAKNECONGOVTCN-&gt;PAKNECONGOVTKN</title>
<g id="a_edge9"><a xlink:href="bogus" xlink:title=" PAKNECONGOVTCN -&gt; PAKNECONGOVTKN Min. att. 117%  max: 963%">
<path fill="none" stroke="black" stroke-width="8" d="M1026.94,-326.26C1035.21,-326.08 1043.51,-325.89 1051.78,-325.7"/>
<polygon fill="black" stroke="black" stroke-width="8" points="1051.85,-332.7 1061.69,-325.47 1051.53,-318.7 1051.85,-332.7"/>
</a>
</g>
</g>
<!-- PAKGGEXPGNFSCN -->
<g id="node7" class="node">
<title>PAKGGEXPGNFSCN</title>
<g id="a_node7"><a xlink:title="Expenditure on Goods and Services
FRML &lt;Z,EXO&gt; PAKGGEXPGNFSCN = (0.3*PAKGGEXPGNFSCN(-1)+(1-0.3)*(0.80*(PAKGGREVTOTLCN-PAKGGEXPINTPCN(-0)))+505277.259999999*DURING_2012 + PAKGGEXPGNFSCN_A)* (1-PAKGGEXPGNFSCN_D)+ PAKGGEXPGNFSCN_X*PAKGGEXPGNFSCN_D  $">
<polygon fill="#63b8ff" stroke="black" points="661,-348 325,-348 325,-312 661,-312 661,-348"/>
<text text-anchor="start" x="331" y="-325.8" font-family="Times New Roman,serif" font-size="14.00" fill="blue">PAKGGEXPGNFSCN:Expenditure on Goods and Services</text>
</a>
</g>
</g>
<!-- PAKGGEXPGNFSCN&#45;&gt;PAKNECONGOVTCN -->
<g id="edge17" class="edge">
<title>PAKGGEXPGNFSCN-&gt;PAKNECONGOVTCN</title>
<g id="a_edge17"><a xlink:href="bogus" xlink:title=" PAKGGEXPGNFSCN -&gt; PAKNECONGOVTCN Min. att. -18%  max: 100%">
<path fill="none" stroke="black" stroke-width="8" d="M661.39,-330C667.72,-330 674.07,-330 680.42,-330"/>
<polygon fill="black" stroke="black" stroke-width="8" points="680.22,-337 690.22,-330 680.22,-323 680.22,-337"/>
</a>
</g>
</g>
<!-- PAKNYWRTTOTLCN -->
<g id="node8" class="node">
<title>PAKNYWRTTOTLCN</title>
<g id="a_node8"><a xlink:title="Wages
FRML  &lt;&gt; PAKNYWRTTOTLCN = (PAKNYWBINFMSH**PAKINFCES*(PAKNYWRTINFMCN)**(1-PAKINFCES)+PAKNYWBFORMSH**PAKINFCES*(PAKNYWRTFORMCN*(1+PAKGGREVDRCTXN/100))**(1-PAKINFCES))**(1/(1-PAKINFCES)) $">
<polygon fill="#63b8ff" stroke="black" points="583.5,-59 402.5,-59 402.5,-23 583.5,-23 583.5,-59"/>
<text text-anchor="start" x="409" y="-36.8" font-family="Times New Roman,serif" font-size="14.00" fill="blue">PAKNYWRTTOTLCN:Wages</text>
</a>
</g>
</g>
<!-- PAKNYYWBTOTLCN -->
<g id="node29" class="node">
<title>PAKNYYWBTOTLCN</title>
<g id="a_node29"><a xlink:title="Economy-wide wage bill
FRML  &lt;&gt; PAKNYYWBTOTLCN = PAKNYWRTTOTLCN*PAKLMEMPTOTLCN $">
<polygon fill="#63b8ff" stroke="black" points="1004.5,-94 719.5,-94 719.5,-58 1004.5,-58 1004.5,-94"/>
<text text-anchor="start" x="726" y="-71.8" font-family="Times New Roman,serif" font-size="14.00" fill="blue">PAKNYYWBTOTLCN:Economy-wide wage bill</text>
</a>
</g>
</g>
<!-- PAKNYWRTTOTLCN&#45;&gt;PAKNYYWBTOTLCN -->
<g id="edge7" class="edge">
<title>PAKNYWRTTOTLCN-&gt;PAKNYYWBTOTLCN</title>
<g id="a_edge7"><a xlink:href="bogus" xlink:title=" PAKNYWRTTOTLCN -&gt; PAKNYYWBTOTLCN Min. att. 16%  max: 106%">
<path fill="none" stroke="black" stroke-width="8" d="M583.78,-49.56C619.59,-52.98 661.91,-57.01 702.56,-60.89"/>
<polygon fill="black" stroke="black" stroke-width="8" points="701.68,-67.84 712.3,-61.82 703.01,-53.9 701.68,-67.84"/>
</a>
</g>
</g>
<!-- PAKNYGDPPOTLKN -->
<g id="node9" class="node">
<title>PAKNYGDPPOTLKN</title>
<g id="a_node9"><a xlink:title="Potential GDP
FRML  &lt;&gt; PAKNYGDPPOTLKN = PAKNYGDPTFP*(PAKLMEMPSTRLCN**PAKNYYWBTOTLCN_)*(PAKNEGDIKSTKKN(-1)**(1-PAKNYYWBTOTLCN_)) $">
<polygon fill="#63b8ff" stroke="black" points="603.5,-618 382.5,-618 382.5,-582 603.5,-582 603.5,-618"/>
<text text-anchor="start" x="389" y="-595.8" font-family="Times New Roman,serif" font-size="14.00" fill="blue">PAKNYGDPPOTLKN:Potential GDP</text>
</a>
</g>
</g>
<!-- PAKNYGDPPOTLKN&#45;&gt;PAKNEGDIFPRVKN -->
<g id="edge10" class="edge">
<title>PAKNYGDPPOTLKN-&gt;PAKNEGDIFPRVKN</title>
<g id="a_edge10"><a xlink:href="bogus" xlink:title=" PAKNYGDPPOTLKN -&gt; PAKNEGDIFPRVKN Min. att. -8%  max: 66%">
<path fill="none" stroke="black" stroke-width="6.61" d="M603.9,-583.89C623,-580.62 642.62,-576.96 661,-573 701.74,-564.23 746.56,-552.34 783.43,-541.95"/>
<polygon fill="black" stroke="black" stroke-width="6.61" points="784.86,-547.56 792.89,-539.26 781.69,-536.43 784.86,-547.56"/>
</a>
</g>
</g>
<!-- PAKNECONGOVTXN -->
<g id="node10" class="node">
<title>PAKNECONGOVTXN</title>
<g id="a_node10"><a xlink:title="Government consumption (G&amp;S)
FRML &lt;Z,EXO&gt; PAKNECONGOVTXN = (PAKNECONGOVTXN(-1)*EXP(-PAKNECONGOVTXN_A+ (-0.3*(LOG(PAKNECONGOVTXN(-1))-LOG(PAKNECONPRVTXN(-1)))+0.0752362082122748+0.5*((LOG(PAKNECONGOVTXN(-1)))-(LOG(PAKNECONGOVTXN(-2))))+(1-0.5)*((LOG(PAKNECONPRVTXN))-(LOG(PAKNECONPRVTXN(-1))))) )) * (1-PAKNECONGOVTXN_D)+ PAKNECONGOVTXN_X*PAKNECONGOVTXN_D  $">
<polygon fill="#63b8ff" stroke="black" points="1027,-186 697,-186 697,-150 1027,-150 1027,-186"/>
<text text-anchor="start" x="703" y="-163.8" font-family="Times New Roman,serif" font-size="14.00" fill="blue">PAKNECONGOVTXN:Government consumption (G&amp;S)</text>
</a>
</g>
</g>
<!-- PAKNECONGOVTXN&#45;&gt;PAKNECONGOVTKN -->
<g id="edge12" class="edge">
<title>PAKNECONGOVTXN-&gt;PAKNECONGOVTKN</title>
<g id="a_edge12"><a xlink:href="bogus" xlink:title=" PAKNECONGOVTXN -&gt; PAKNECONGOVTKN Min. att. -867%  max: -19%">
<path fill="none" stroke="black" stroke-width="8" d="M1011.39,-186.37C1016.8,-188.93 1022.03,-191.79 1027,-195 1051.24,-210.64 1041.25,-230.06 1063,-249 1086.31,-269.3 1116.26,-285.32 1143.32,-297.12"/>
<polygon fill="black" stroke="black" stroke-width="8" points="1140.5,-303.52 1152.42,-300.9 1145.87,-290.59 1140.5,-303.52"/>
</a>
</g>
</g>
<!-- PAKNEIMPGSNEXN -->
<g id="node11" class="node">
<title>PAKNEIMPGSNEXN</title>
<g id="a_node11"><a xlink:title="Imports (Non-energy)
FRML &lt;Z,EXO&gt; PAKNEIMPGSNEXN = (PAKNEIMPGSNEXN(-1)*EXP(-PAKNEIMPGSNEXN_A+ (-0.278529319815428*(LOG(PAKNEIMPGSNEXN(-1))-0.3*LOG(PAKNYGDPFCSTXN(-1))-(1-0.3)*LOG(PAKPMKEY(-1)*PAKPANUSATLS(-1)))+0.4*((LOG(PAKNYGDPFCSTXN))-(LOG(PAKNYGDPFCSTXN(-1))))+(1-0.4)*((LOG(PAKPMKEY*PAKPANUSATLS))-(LOG(PAKPMKEY(-1)*PAKPANUSATLS(-1))))-0.888813883474775+0.135666902654654*DURING_2012+0.216228696118762*DURING_2008) )) * (1-PAKNEIMPGSNEXN_D)+ PAKNEIMPGSNEXN_X*PAKNEIMPGSNEXN_D  $">
<polygon fill="#63b8ff" stroke="black" points="1345,-132 1085,-132 1085,-96 1345,-96 1345,-132"/>
<text text-anchor="start" x="1091" y="-109.8" font-family="Times New Roman,serif" font-size="14.00" fill="blue">PAKNEIMPGSNEXN:Imports (Non-energy)</text>
</a>
</g>
</g>
<!-- PAKNEIMPGNFSXN -->
<g id="node18" class="node">
<title>PAKNEIMPGNFSXN</title>
<g id="a_node18"><a xlink:title="Imports (G&amp;S)
FRML  &lt;&gt; PAKNEIMPGNFSXN = ((PAKNEIMPENGYSH**PAKCESENGYIMPT)*PAKNVENGNIMPXN**(1-PAKCESENGYIMPT)+(PAKNEIMPOTHRSH**PAKCESENGYIMPT)*PAKNEIMPGSNEXN**(1-PAKCESENGYIMPT))**(1/(1-PAKCESENGYIMPT)) $">
<polygon fill="#63b8ff" stroke="black" points="1626,-186 1403,-186 1403,-150 1626,-150 1626,-186"/>
<text text-anchor="start" x="1409.5" y="-163.8" font-family="Times New Roman,serif" font-size="14.00" fill="blue">PAKNEIMPGNFSXN:Imports (G&amp;S)</text>
</a>
</g>
</g>
<!-- PAKNEIMPGSNEXN&#45;&gt;PAKNEIMPGNFSXN -->
<g id="edge3" class="edge">
<title>PAKNEIMPGSNEXN-&gt;PAKNEIMPGNFSXN</title>
<g id="a_edge3"><a xlink:href="bogus" xlink:title=" PAKNEIMPGSNEXN -&gt; PAKNEIMPGNFSXN Min. att. -4%  max: 63%">
<path fill="none" stroke="black" stroke-width="6.33" d="M1319.58,-132.45C1335.46,-135.3 1351.67,-138.22 1367,-141 1376.94,-142.8 1387.25,-144.69 1397.59,-146.58"/>
<polygon fill="black" stroke="black" stroke-width="6.33" points="1396.56,-152.02 1407.4,-148.38 1398.56,-141.13 1396.56,-152.02"/>
</a>
</g>
</g>
<!-- PAKNEGDIFTOTKN -->
<g id="node13" class="node">
<title>PAKNEGDIFTOTKN</title>
<g id="a_node13"><a xlink:title="Total Gross Capital Formation
FRML  &lt;&gt; PAKNEGDIFTOTKN = PAKNEGDIFGOVKN+PAKNEGDIFPRVKN $">
<polygon fill="#63b8ff" stroke="black" points="1367,-416 1063,-416 1063,-380 1367,-380 1367,-416"/>
<text text-anchor="start" x="1069" y="-393.8" font-family="Times New Roman,serif" font-size="14.00" fill="blue">PAKNEGDIFTOTKN:Total Gross Capital Formation</text>
</a>
</g>
</g>
<!-- PAKNEGDIFTOTKN&#45;&gt;PAKNYGDPMKTPKN -->
<g id="edge20" class="edge">
<title>PAKNEGDIFTOTKN-&gt;PAKNYGDPMKTPKN</title>
<g id="a_edge20"><a xlink:href="bogus" xlink:title=" PAKNEGDIFTOTKN -&gt; PAKNYGDPMKTPKN Min. att. -36%  max: 366%">
<path fill="none" stroke="black" stroke-width="8" d="M1367.36,-391.28C1503.11,-384.54 1707.66,-372.61 1885,-355 1908.5,-352.67 1933.39,-349.74 1957.58,-346.65"/>
<polygon fill="black" stroke="black" stroke-width="8" points="1958.25,-353.62 1967.27,-345.39 1956.45,-339.74 1958.25,-353.62"/>
</a>
</g>
</g>
<!-- PAKNEGDIFTOTKN&#45;&gt;PAKNEGDETTOTKN -->
<g id="edge2" class="edge">
<title>PAKNEGDIFTOTKN-&gt;PAKNEGDETTOTKN</title>
<g id="a_edge2"><a xlink:href="bogus" xlink:title=" PAKNEGDIFTOTKN -&gt; PAKNEGDETTOTKN Min. att. -1115%  max: 1147%">
<path fill="none" stroke="black" stroke-width="8" d="M1281.29,-379.57C1325.58,-367.06 1384.48,-350.43 1431.87,-337.05"/>
<polygon fill="black" stroke="black" stroke-width="8" points="1433.67,-343.81 1441.4,-334.36 1429.87,-330.34 1433.67,-343.81"/>
</a>
</g>
</g>
<!-- PAKNYGDPFCSTXN -->
<g id="node14" class="node">
<title>PAKNYGDPFCSTXN</title>
<g id="a_node14"><a xlink:title="GDP at factor cost
FRML &lt;Z,EXO&gt; PAKNYGDPFCSTXN = (PAKNYGDPFCSTXN(-1)*EXP(-PAKNYGDPFCSTXN_A+ (0.6*((LOG(PAKNYGDPFCSTXN(-1)))-(LOG(PAKNYGDPFCSTXN(-2))))+(1-0.6)*(0.7*PAKINFLEXPT/100+(1-0.7)*((LOG(PAKPSTAR(-1)))-(LOG(PAKPSTAR(-2)))))+0.25*PAKNYGDPGAP_/100+0.262461811660072*DURING_2000-0.205776950553378*DURING_2001) )) * (1-PAKNYGDPFCSTXN_D)+ PAKNYGDPFCSTXN_X*PAKNYGDPFCSTXN_D  $">
<polygon fill="#63b8ff" stroke="black" points="983,-294 741,-294 741,-258 983,-258 983,-294"/>
<text text-anchor="start" x="747" y="-271.8" font-family="Times New Roman,serif" font-size="14.00" fill="blue">PAKNYGDPFCSTXN:GDP at factor cost</text>
</a>
</g>
</g>
<!-- PAKNEIMPGNFSKN -->
<g id="node27" class="node">
<title>PAKNEIMPGNFSKN</title>
<g id="a_node27"><a xlink:title="Imports (G&amp;S)
FRML &lt;Z,EXO&gt; PAKNEIMPGNFSKN = (PAKNEIMPGNFSKN(-1)*EXP(-PAKNEIMPGNFSKN_A+ (-0.324143718656754*(LOG(PAKNEIMPGNFSKN(-1))-LOG(PAKNEGDETTOTKN(-1))+0.8*LOG(PAKNEIMPGNFSXN(-1)/PAKNYGDPFCSTXN(-1)))-0.583459272245018+1*((LOG(PAKNEGDETTOTKN))-(LOG(PAKNEGDETTOTKN(-1))))-0.0921874580409631*((LOG(PAKNEIMPGNFSXN/PAKNYGDPFCSTXN))-(LOG(PAKNEIMPGNFSXN(-1)/PAKNYGDPFCSTXN(-1))))-0.0361746331863615*DURING_2012) )) * (1-PAKNEIMPGNFSKN_D)+ PAKNEIMPGNFSKN_X*PAKNEIMPGNFSKN_D  $">
<polygon fill="#63b8ff" stroke="black" points="1885,-311 1662,-311 1662,-275 1885,-275 1885,-311"/>
<text text-anchor="start" x="1668.5" y="-288.8" font-family="Times New Roman,serif" font-size="14.00" fill="blue">PAKNEIMPGNFSKN:Imports (G&amp;S)</text>
</a>
</g>
</g>
<!-- PAKNYGDPFCSTXN&#45;&gt;PAKNEIMPGNFSKN -->
<g id="edge22" class="edge">
<title>PAKNYGDPFCSTXN-&gt;PAKNEIMPGNFSKN</title>
<g id="a_edge22"><a xlink:href="bogus" xlink:title=" PAKNYGDPFCSTXN -&gt; PAKNEIMPGNFSKN Min. att. -1112%  max: 296%">
<path fill="none" stroke="black" stroke-width="8" d="M983.28,-276.75C1133.64,-277.91 1398.89,-280.71 1626,-287 1632.15,-287.17 1638.45,-287.36 1644.8,-287.57"/>
<polygon fill="black" stroke="black" stroke-width="8" points="1644.52,-294.56 1654.75,-287.91 1645,-280.57 1644.52,-294.56"/>
</a>
</g>
</g>
<!-- PAKNECONPRVTXN -->
<g id="node15" class="node">
<title>PAKNECONPRVTXN</title>
<g id="a_node15"><a xlink:title="Household demand
FRML  &lt;&gt; PAKNECONPRVTXN = ((PAKNECONENGYSH**PAKCESENGYCON)*PAKNECONENGYXN**(1-PAKCESENGYCON)+(PAKNECONOTHRSH**PAKCESENGYCON)*PAKNECONOTHRXN**(1-PAKCESENGYCON))**(1/(1-PAKCESENGYCON)) $">
<polygon fill="#63b8ff" stroke="black" points="617,-186 369,-186 369,-150 617,-150 617,-186"/>
<text text-anchor="start" x="375" y="-163.8" font-family="Times New Roman,serif" font-size="14.00" fill="blue">PAKNECONPRVTXN:Household demand</text>
</a>
</g>
</g>
<!-- PAKNECONPRVTXN&#45;&gt;PAKFMLBLPOLYXN -->
<g id="edge29" class="edge">
<title>PAKNECONPRVTXN-&gt;PAKFMLBLPOLYXN</title>
<g id="a_edge29"><a xlink:href="bogus" xlink:title=" PAKNECONPRVTXN -&gt; PAKFMLBLPOLYXN Min. att. -94%  max: 1459%">
<path fill="none" stroke="black" stroke-width="8" d="M617.48,-186.17C657.74,-192.09 702.32,-198.65 742.22,-204.52"/>
<polygon fill="black" stroke="black" stroke-width="8" points="741.2,-211.45 752.11,-205.98 743.23,-197.6 741.2,-211.45"/>
</a>
</g>
</g>
<!-- PAKNECONPRVTXN&#45;&gt;PAKNECONGOVTXN -->
<g id="edge28" class="edge">
<title>PAKNECONPRVTXN-&gt;PAKNECONGOVTXN</title>
<g id="a_edge28"><a xlink:href="bogus" xlink:title=" PAKNECONPRVTXN -&gt; PAKNECONGOVTXN Min. att. 26%  max: 100%">
<path fill="none" stroke="black" stroke-width="8" d="M617.48,-168C637.52,-168 658.63,-168 679.71,-168"/>
<polygon fill="black" stroke="black" stroke-width="8" points="679.6,-175 689.6,-168 679.6,-161 679.6,-175"/>
</a>
</g>
</g>
<!-- PAKNECONPRVTXN&#45;&gt;PAKNECONPRVTKN -->
<g id="edge24" class="edge">
<title>PAKNECONPRVTXN-&gt;PAKNECONPRVTKN</title>
<g id="a_edge24"><a xlink:href="bogus" xlink:title=" PAKNECONPRVTXN -&gt; PAKNECONPRVTKN Min. att. -5708%  max: 593%">
<path fill="none" stroke="black" stroke-width="8" d="M612.89,-149.51C640.43,-145.97 669.68,-142.81 697,-141 843.35,-131.31 897.69,-71.79 1027,-141 1052.43,-154.61 1038.87,-179.2 1063,-195 1063.31,-195.2 1063.61,-195.4 1063.92,-195.6"/>
<polygon fill="black" stroke="black" stroke-width="8" points="1060.19,-201.54 1072.33,-200.24 1066.96,-189.28 1060.19,-201.54"/>
</a>
</g>
</g>
<!-- PAKPSTAR -->
<g id="node16" class="node">
<title>PAKPSTAR</title>
<g id="a_node16"><a xlink:title="Nominal marginal cost
FRML  &lt;&gt; PAKPSTAR = (1/PAKNYGDPTFP)*((PAKNEKRTTOTLCN/(1-PAKNYYWBTOTLCN_))**(1-PAKNYYWBTOTLCN_))*((PAKNYWRTTOTLCN/PAKNYYWBTOTLCN_)**PAKNYYWBTOTLCN_) $">
<polygon fill="#63b8ff" stroke="black" points="598,-294 388,-294 388,-258 598,-258 598,-294"/>
<text text-anchor="start" x="394" y="-271.8" font-family="Times New Roman,serif" font-size="14.00" fill="blue">PAKPSTAR:Nominal marginal cost</text>
</a>
</g>
</g>
<!-- PAKPSTAR&#45;&gt;PAKNYGDPFCSTXN -->
<g id="edge34" class="edge">
<title>PAKPSTAR-&gt;PAKNYGDPFCSTXN</title>
<g id="a_edge34"><a xlink:href="bogus" xlink:title=" PAKPSTAR -&gt; PAKNYGDPFCSTXN Min. att. -20%  max: 2191%">
<path fill="none" stroke="black" stroke-width="8" d="M598.19,-276C637.21,-276 682.15,-276 723.71,-276"/>
<polygon fill="black" stroke="black" stroke-width="8" points="723.7,-283 733.7,-276 723.7,-269 723.7,-283"/>
</a>
</g>
</g>
<!-- PAKNYGDPGAP_ -->
<g id="node17" class="node">
<title>PAKNYGDPGAP_</title>
<g id="a_node17"><a xlink:title="Output Gap (% of Potential GDP)
FRML  &lt;&gt; PAKNYGDPGAP_ = ((PAKNYGDPMKTPKN/PAKNYGDPPOTLKN-1)*100) $">
<polygon fill="#63b8ff" stroke="black" points="647.5,-240 338.5,-240 338.5,-204 647.5,-204 647.5,-240"/>
<text text-anchor="start" x="345" y="-217.8" font-family="Times New Roman,serif" font-size="14.00" fill="blue">PAKNYGDPGAP_:Output Gap (% of Potential GDP)</text>
</a>
</g>
</g>
<!-- PAKNYGDPGAP_&#45;&gt;PAKFMLBLPOLYXN -->
<g id="edge31" class="edge">
<title>PAKNYGDPGAP_-&gt;PAKFMLBLPOLYXN</title>
<g id="a_edge31"><a xlink:href="bogus" xlink:title=" PAKNYGDPGAP_ -&gt; PAKFMLBLPOLYXN Min. att. -15%  max: 83%">
<path fill="none" stroke="black" stroke-width="8" d="M647.78,-222C679.35,-222 712.12,-222 742.23,-222"/>
<polygon fill="black" stroke="black" stroke-width="8" points="742.16,-229 752.16,-222 742.16,-215 742.16,-229"/>
</a>
</g>
</g>
<!-- PAKNYGDPGAP_&#45;&gt;PAKNYGDPFCSTXN -->
<g id="edge30" class="edge">
<title>PAKNYGDPGAP_-&gt;PAKNYGDPFCSTXN</title>
<g id="a_edge30"><a xlink:href="bogus" xlink:title=" PAKNYGDPGAP_ -&gt; PAKNYGDPFCSTXN Min. att. -56%  max: 7987%">
<path fill="none" stroke="black" stroke-width="8" d="M619.53,-240.47C653.25,-245.43 689.87,-250.82 724.16,-255.87"/>
<polygon fill="black" stroke="black" stroke-width="8" points="722.98,-262.77 733.89,-257.3 725.01,-248.92 722.98,-262.77"/>
</a>
</g>
</g>
<!-- PAKNEIMPGNFSXN&#45;&gt;PAKNEIMPGNFSKN -->
<g id="edge13" class="edge">
<title>PAKNEIMPGNFSXN-&gt;PAKNEIMPGNFSKN</title>
<g id="a_edge13"><a xlink:href="bogus" xlink:title=" PAKNEIMPGNFSXN -&gt; PAKNEIMPGNFSKN Min. att. -390%  max: 1559%">
<path fill="none" stroke="black" stroke-width="8" d="M1553.42,-186.44C1597.39,-207.83 1670.15,-243.22 1719.65,-267.3"/>
<polygon fill="black" stroke="black" stroke-width="8" points="1716.51,-273.55 1728.57,-271.63 1722.64,-260.96 1716.51,-273.55"/>
</a>
</g>
</g>
<!-- PAKNECONOTHRXN -->
<g id="node19" class="node">
<title>PAKNECONOTHRXN</title>
<g id="a_node19"><a xlink:title="Non-Energy Consumption
FRML &lt;Z,EXO&gt; PAKNECONOTHRXN = (PAKNECONOTHRXN(-1)*EXP(-PAKNECONOTHRXN_A+ (0.598859116610832*((LOG(PAKNYGDPFCSTXN))-(LOG(PAKNYGDPFCSTXN(-1))))+((PAKGGREVGNFSXN/100)-(PAKGGREVGNFSXN(-1)/100))+(1-0.598859116610832)*((LOG(PAKNEIMPGNFSXN))-(LOG(PAKNEIMPGNFSXN(-1))))+0.2*PAKNYGDPGAP_/100) )) * (1-PAKNECONOTHRXN_D)+ PAKNECONOTHRXN_X*PAKNECONOTHRXN_D  $">
<polygon fill="#63b8ff" stroke="black" points="289,-213 0,-213 0,-177 289,-177 289,-213"/>
<text text-anchor="start" x="6.5" y="-190.8" font-family="Times New Roman,serif" font-size="14.00" fill="blue">PAKNECONOTHRXN:Non-Energy Consumption</text>
</a>
</g>
</g>
<!-- PAKNECONOTHRXN&#45;&gt;PAKNECONPRVTXN -->
<g id="edge11" class="edge">
<title>PAKNECONOTHRXN-&gt;PAKNECONPRVTXN</title>
<g id="a_edge11"><a xlink:href="bogus" xlink:title=" PAKNECONOTHRXN -&gt; PAKNECONPRVTXN Min. att. 71%  max: 99%">
<path fill="none" stroke="black" stroke-width="8" d="M289.44,-183.78C310.09,-182.17 331.32,-180.52 351.91,-178.92"/>
<polygon fill="black" stroke="black" stroke-width="8" points="352.25,-185.91 361.68,-178.16 351.16,-171.95 352.25,-185.91"/>
</a>
</g>
</g>
<!-- PAKNEGDIFPRVKN&#45;&gt;PAKNEGDIFTOTKN -->
<g id="edge4" class="edge">
<title>PAKNEGDIFPRVKN-&gt;PAKNEGDIFTOTKN</title>
<g id="a_edge4"><a xlink:href="bogus" xlink:title=" PAKNEGDIFPRVKN -&gt; PAKNEGDIFTOTKN Min. att. -5%  max: 94%">
<path fill="none" stroke="black" stroke-width="8" d="M916.31,-500.62C977.34,-479.58 1077.52,-445.05 1144.6,-421.92"/>
<polygon fill="black" stroke="black" stroke-width="8" points="1146.71,-428.6 1153.88,-418.72 1142.15,-415.37 1146.71,-428.6"/>
</a>
</g>
</g>
<!-- PAKNECONPRVTKN&#45;&gt;PAKNYGDPMKTPKN -->
<g id="edge27" class="edge">
<title>PAKNECONPRVTKN-&gt;PAKNYGDPMKTPKN</title>
<g id="a_edge27"><a xlink:href="bogus" xlink:title=" PAKNECONPRVTKN -&gt; PAKNYGDPMKTPKN Min. att. -1557%  max: 290%">
<path fill="none" stroke="black" stroke-width="8" d="M1354.38,-222.82C1490.35,-225.57 1703.27,-235.06 1885,-266 1934.35,-274.4 1988.63,-289.55 2030.37,-302.53"/>
<polygon fill="black" stroke="black" stroke-width="8" points="2027.99,-309.12 2039.64,-305.45 2032.21,-295.77 2027.99,-309.12"/>
</a>
</g>
</g>
<!-- PAKNECONPRVTKN&#45;&gt;PAKNEGDETTOTKN -->
<g id="edge8" class="edge">
<title>PAKNECONPRVTKN-&gt;PAKNEGDETTOTKN</title>
<g id="a_edge8"><a xlink:href="bogus" xlink:title=" PAKNECONPRVTKN -&gt; PAKNEGDETTOTKN Min. att. -2284%  max: 2484%">
<path fill="none" stroke="black" stroke-width="8" d="M1275.49,-240.4C1322.13,-254.82 1387.35,-274.99 1437.73,-290.57"/>
<polygon fill="black" stroke="black" stroke-width="8" points="1435.57,-297.23 1447.2,-293.5 1439.71,-283.85 1435.57,-297.23"/>
</a>
</g>
</g>
<!-- PAKNEGDIKSTKKN -->
<g id="node22" class="node">
<title>PAKNEGDIKSTKKN</title>
<g id="a_node22"><a xlink:title="Domestic Capital
FRML  &lt;&gt; PAKNEGDIKSTKKN = (PAKNEGDIKSTKKN(-1)*(1-PAKDEPR))+PAKNEGDIFTOTKN2-2*PAKHURDAMKN $">
<polygon fill="#63b8ff" stroke="black" points="610.5,-564 375.5,-564 375.5,-528 610.5,-528 610.5,-564"/>
<text text-anchor="start" x="382" y="-541.8" font-family="Times New Roman,serif" font-size="14.00" fill="blue">PAKNEGDIKSTKKN:Domestic Capital</text>
</a>
</g>
</g>
<!-- PAKNEGDIKSTKKN&#45;&gt;PAKNEGDIFPRVKN -->
<g id="edge15" class="edge">
<title>PAKNEGDIKSTKKN-&gt;PAKNEGDIFPRVKN</title>
<g id="a_edge15"><a xlink:href="bogus" xlink:title=" PAKNEGDIKSTKKN -&gt; PAKNEGDIFPRVKN Min. att. 0%  max: 76%">
<path fill="none" stroke="black" stroke-width="7.57" d="M610.88,-537.4C647.17,-534.73 687.49,-531.77 724.96,-529.01"/>
<polygon fill="black" stroke="black" stroke-width="7.57" points="725.35,-535.62 734.84,-528.28 724.38,-522.41 725.35,-535.62"/>
</a>
</g>
</g>
<!-- PAKNEGDIFGOVKN&#45;&gt;PAKNEGDIFTOTKN -->
<g id="edge23" class="edge">
<title>PAKNEGDIFGOVKN-&gt;PAKNEGDIFTOTKN</title>
<g id="a_edge23"><a xlink:href="bogus" xlink:title=" PAKNEGDIFGOVKN -&gt; PAKNEGDIFTOTKN Min. att. 6%  max: 105%">
<path fill="none" stroke="black" stroke-width="8" d="M999.46,-398C1014.66,-398 1030.28,-398 1045.82,-398"/>
<polygon fill="black" stroke="black" stroke-width="8" points="1045.65,-405 1055.65,-398 1045.65,-391 1045.65,-405"/>
</a>
</g>
</g>
<!-- PAKNVENGNIMPXN -->
<g id="node24" class="node">
<title>PAKNVENGNIMPXN</title>
<g id="a_node24"><a xlink:title="Energy Imports
FRML  &lt;&gt; PAKNVENGNIMPXN = ((PAKNVCOLNIMPSH**PAKCESENGYIMP)*PAKNVCOLPRODXN**(1-PAKCESENGYIMP)+(PAKNVOILNIMPSH**PAKCESENGYIMP)*PAKNVOILPRODXN**(1-PAKCESENGYIMP)+(PAKNVGASNIMPSH**PAKCESENGYIMP)*PAKNVGASPRODXN**(1-PAKCESENGYIMP)+(PAKNVRENNIMPSH**PAKCESENGYIMP)*PAKNVRENPRODXN**(1-PAKCESENGYIMP))**(1/(1-PAKCESENGYIMP)) $">
<polygon fill="#63b8ff" stroke="black" points="1329.5,-186 1100.5,-186 1100.5,-150 1329.5,-150 1329.5,-186"/>
<text text-anchor="start" x="1107" y="-163.8" font-family="Times New Roman,serif" font-size="14.00" fill="blue">PAKNVENGNIMPXN:Energy Imports</text>
</a>
</g>
</g>
<!-- PAKNVENGNIMPXN&#45;&gt;PAKNEIMPGNFSXN -->
<g id="edge21" class="edge">
<title>PAKNVENGNIMPXN-&gt;PAKNEIMPGNFSXN</title>
<g id="a_edge21"><a xlink:href="bogus" xlink:title=" PAKNVENGNIMPXN -&gt; PAKNEIMPGNFSXN Min. att. 37%  max: 104%">
<path fill="none" stroke="black" stroke-width="8" d="M1329.75,-168C1348.08,-168 1367.17,-168 1385.81,-168"/>
<polygon fill="black" stroke="black" stroke-width="8" points="1385.79,-175 1395.79,-168 1385.79,-161 1385.79,-175"/>
</a>
</g>
</g>
<!-- PAKLMEMPTOTLCN -->
<g id="node25" class="node">
<title>PAKLMEMPTOTLCN</title>
<g id="a_node25"><a xlink:title="Employment
FRML &lt;Z,EXO&gt; PAKLMEMPTOTLCN = (PAKLMEMPTOTLCN(-1)*EXP(-PAKLMEMPTOTLCN_A+ (-0.345624644563667*(LOG(PAKLMEMPTOTLCN(-1))-LOG(PAKLMEMPSTRLCN(-1)))-0.1*(((LOG(PAKNYWRTTOTLCN/PAKNYGDPFCSTXN))-(LOG(PAKNYWRTTOTLCN(-1)/PAKNYGDPFCSTXN(-1))))-((LOG(PAKNYGDPPOTLKN/PAKLMEMPSTRLCN))-(LOG(PAKNYGDPPOTLKN(-1)/PAKLMEMPSTRLCN(-1)))))-0.0011790007645121+((LOG(PAKLMEMPSTRLCN))-(LOG(PAKLMEMPSTRLCN(-1))))+0.175412878170024*PAKNYGDPGAP_/100+0.0369790799942338*DURING_2010) )) * (1-PAKLMEMPTOTLCN_D)+ PAKLMEMPTOTLCN_X*PAKLMEMPTOTLCN_D  $">
<polygon fill="#63b8ff" stroke="black" points="601.5,-113 384.5,-113 384.5,-77 601.5,-77 601.5,-113"/>
<text text-anchor="start" x="391" y="-90.8" font-family="Times New Roman,serif" font-size="14.00" fill="blue">PAKLMEMPTOTLCN:Employment</text>
</a>
</g>
</g>
<!-- PAKLMEMPTOTLCN&#45;&gt;PAKNYYWBTOTLCN -->
<g id="edge32" class="edge">
<title>PAKLMEMPTOTLCN-&gt;PAKNYYWBTOTLCN</title>
<g id="a_edge32"><a xlink:href="bogus" xlink:title=" PAKLMEMPTOTLCN -&gt; PAKNYYWBTOTLCN Min. att. -6%  max: 84%">
<path fill="none" stroke="black" stroke-width="8" d="M601.63,-89.43C633.26,-87.79 668.54,-85.96 702.63,-84.2"/>
<polygon fill="black" stroke="black" stroke-width="8" points="702.66,-91.21 712.29,-83.7 701.94,-77.23 702.66,-91.21"/>
</a>
</g>
</g>
<!-- PAKNECONENGYXN -->
<g id="node26" class="node">
<title>PAKNECONENGYXN</title>
<g id="a_node26"><a xlink:title="Energy Consumption
FRML &lt;Z,EXO&gt; PAKNECONENGYXN = (PAKNECONENGYXN(-1)*EXP(-PAKNECONENGYXN_A+ (((LOG(PAKNECONENGYGN))-(LOG(PAKNECONENGYGN(-1))))+0.0550557534575806*DUMH) )) * (1-PAKNECONENGYXN_D)+ PAKNECONENGYXN_X*PAKNECONENGYXN_D  $">
<polygon fill="#63b8ff" stroke="black" points="275.5,-159 13.5,-159 13.5,-123 275.5,-123 275.5,-159"/>
<text text-anchor="start" x="19.5" y="-136.8" font-family="Times New Roman,serif" font-size="14.00" fill="blue">PAKNECONENGYXN:Energy Consumption</text>
</a>
</g>
</g>
<!-- PAKNECONENGYXN&#45;&gt;PAKNECONPRVTXN -->
<g id="edge19" class="edge">
<title>PAKNECONENGYXN-&gt;PAKNECONPRVTXN</title>
<g id="a_edge19"><a xlink:href="bogus" xlink:title=" PAKNECONENGYXN -&gt; PAKNECONPRVTXN Min. att. 1%  max: 29%">
<path fill="none" stroke="black" stroke-width="2.91" d="M275.51,-151.13C301.27,-153.14 328.4,-155.25 354.4,-157.28"/>
<polygon fill="black" stroke="black" stroke-width="2.91" points="354.09,-160.76 364.33,-158.05 354.63,-153.79 354.09,-160.76"/>
</a>
</g>
</g>
<!-- PAKNEIMPGNFSKN&#45;&gt;PAKNYGDPMKTPKN -->
<g id="edge25" class="edge">
<title>PAKNEIMPGNFSKN-&gt;PAKNYGDPMKTPKN</title>
<g id="a_edge25"><a xlink:href="bogus" xlink:title=" PAKNEIMPGNFSKN -&gt; PAKNYGDPMKTPKN Min. att. -46%  max: 456%">
<path fill="none" stroke="black" stroke-width="8" d="M1885.32,-304.22C1891.4,-304.83 1897.59,-305.46 1903.85,-306.09"/>
<polygon fill="black" stroke="black" stroke-width="8" points="1902.95,-313.04 1913.61,-307.08 1904.36,-299.11 1902.95,-313.04"/>
</a>
</g>
</g>
<!-- PAKNEGDETTOTKN&#45;&gt;PAKNEIMPGNFSKN -->
<g id="edge6" class="edge">
<title>PAKNEGDETTOTKN-&gt;PAKNEIMPGNFSKN</title>
<g id="a_edge6"><a xlink:href="bogus" xlink:title=" PAKNEGDETTOTKN -&gt; PAKNEIMPGNFSKN Min. att. -755%  max: 207%">
<path fill="none" stroke="black" stroke-width="8" d="M1599.65,-307.12C1614.16,-305.94 1629.54,-304.68 1644.89,-303.43"/>
<polygon fill="black" stroke="black" stroke-width="8" points="1645.16,-310.43 1654.56,-302.64 1644.02,-296.48 1645.16,-310.43"/>
</a>
</g>
</g>
<!-- PAKNYYWBTOTLCN&#45;&gt;PAKNECONPRVTKN -->
<g id="edge5" class="edge">
<title>PAKNYYWBTOTLCN-&gt;PAKNECONPRVTKN</title>
<g id="a_edge5"><a xlink:href="bogus" xlink:title=" PAKNYYWBTOTLCN -&gt; PAKNECONPRVTKN Min. att. -594%  max: 5823%">
<path fill="none" stroke="black" stroke-width="8" d="M1004.63,-93.71C1012.61,-97.68 1020.15,-102.4 1027,-108 1055.85,-131.6 1036.01,-161.36 1063.19,-192.19"/>
<polygon fill="black" stroke="black" stroke-width="8" points="1058.29,-197.19 1070.39,-198.84 1067.8,-186.92 1058.29,-197.19"/>
</a>
</g>
</g>
</g>
</svg>