<svg xmlns="http://www.w3.org/2000/svg" xmlns:xlink="http://www.w3.org/1999/xlink" width="432pt" height="263pt" viewBox="0.00 0.00 432.00 263.24">
<g id="graph0" class="graph" transform="scale(0.342314 0.342314) rotate(0) translate(4 765)">
<title>TD</title>
<polygon fill="white" stroke="none" points="-4,4 -4,-765 1258,-765 1258,4 -4,4"/>
<text text-anchor="middle" x="627" y="-7.8" font-family="Times New Roman,serif" font-size="14.00">PAKNYGDPMKTPKN</text>
<!-- PAKNEEXPGNFSKN -->
<g id="node1" class="node">
<title>PAKNEEXPGNFSKN</title>
<g id="a_node1"><a xlink:title="Exports (G&amp;S)
FRML &lt;Z,EXO&gt; PAKNEEXPGNFSKN = (PAKNEEXPGNFSKN(-1)*EXP(-PAKNEEXPGNFSKN_A+ (-0.35*(LOG(PAKNEEXPGNFSKN(-1))-LOG(PAKXMKT(-1))-0.6*LOG(PAKNEEXPGNFSXN(-1)/(PAKNYGDPFCSTXN(-1))))+1*((LOG(PAKXMKT))-(LOG(PAKXMKT(-1))))+0.3*((LOG(PAKNEEXPGNFSXN/(PAKNYGDPFCSTXN)))-(LOG(PAKNEEXPGNFSXN(-1)/(PAKNYGDPFCSTXN(-1)))))+4.38465374402991-0.237469889780178*DURING_1999-0.230689812873392*DURING_1998+0.320967524344658*DURING_1991+0.250252413901575*DURING_1986) )) * (1-PAKNEEXPGNFSKN_D)+ PAKNEEXPGNFSKN_X*PAKNEEXPGNFSKN_D  $">
<polygon fill="#63b8ff" stroke="black" points="318.5,-626 95.5,-626 95.5,-590 318.5,-590 318.5,-626"/>
<text text-anchor="start" x="102" y="-603.8" font-family="Times New Roman,serif" font-size="14.00" fill="blue">PAKNEEXPGNFSKN:Exports (G&amp;S)</text>
</a>
</g>
</g>
<!-- PAKNYGDPMKTPKN -->
<g id="node9" class="node">
<title>PAKNYGDPMKTPKN</title>
<g id="a_node9"><a xlink:title="GDP Expenditure side at market prices
FRML  &lt;&gt; PAKNYGDPMKTPKN = PAKNECONPRVTKN+PAKNECONGOVTKN+PAKNEGDIFTOTKN+PAKNEGDISTKBKN+PAKNEEXPGNFSKN-PAKNEIMPGNFSKN+PAKNYGDPDISCKN+PAKADAP*PAKDISPREPKN $">
<polygon fill="red" stroke="black" points="811,-410 450,-410 450,-374 811,-374 811,-410"/>
<text text-anchor="start" x="456.5" y="-387.8" font-family="Times New Roman,serif" font-size="14.00" fill="blue">PAKNYGDPMKTPKN:GDP Expenditure side at market prices</text>
</a>
</g>
</g>
<!-- PAKNEEXPGNFSKN&#45;&gt;PAKNYGDPMKTPKN -->
<g id="edge21" class="edge">
<title>PAKNEEXPGNFSKN-&gt;PAKNYGDPMKTPKN</title>
<g id="a_edge21"><a xlink:href="bogus" xlink:title=" PAKNEEXPGNFSKN -&gt; PAKNYGDPMKTPKN Min. att. -10%  max: 0%">
<path fill="none" stroke="black" d="M318.75,-605.49C350.57,-601.62 384.59,-594.32 414,-581 497.62,-543.14 572.63,-461.71 608.01,-419.16"/>
<polygon fill="black" stroke="black" points="610.56,-421.57 614.19,-411.62 605.14,-417.14 610.56,-421.57"/>
</a>
</g>
</g>
<!-- PAKGDPPCKN -->
<g id="node2" class="node">
<title>PAKGDPPCKN</title>
<g id="a_node2"><a xlink:title="PAKGDPPCKN
FRML  &lt;&gt; PAKGDPPCKN = (PAKNYGDPMKTPKN/PAKSPPOPTOTL) $">
<polygon fill="#63b8ff" stroke="black" points="1103.5,-761 997.5,-761 997.5,-725 1103.5,-725 1103.5,-761"/>
<text text-anchor="start" x="1003.5" y="-738.8" font-family="Times New Roman,serif" font-size="14.00" fill="blue">PAKGDPPCKN:</text>
</a>
</g>
</g>
<!-- PAKNYWRTINFMCN -->
<g id="node3" class="node">
<title>PAKNYWRTINFMCN</title>
<g id="a_node3"><a xlink:title="Informal wage
FRML &lt;Z,EXO&gt; PAKNYWRTINFMCN = (PAKNYWRTINFMCN(-1)*EXP(-PAKNYWRTINFMCN_A+ (-0.122614247140616-0.3*(LOG(PAKNYWRTINFMCN(-1))-LOG(PAKNYGDPFCSTXN(-1))-LOG(PAKNYGDPPOTLKN(-1)/PAKLMEMPSTRLCN(-1)))+0.2*((LOG(PAKNYWRTINFMCN(-1)))-(LOG(PAKNYWRTINFMCN(-2))))+(1-0.2)*(0.5*((LOG(PAKNYGDPFCSTXN(-1)))-(LOG(PAKNYGDPFCSTXN(-2))))+0.5*(PAKINFLEXPT/100)+((LOG(PAKNYGDPMKTPKN/PAKLMEMPSTRLCN))-(LOG(PAKNYGDPMKTPKN(-1)/PAKLMEMPSTRLCN(-1)))))-0.2*(PAKLMUNRTOTLCN-PAKLMUNRSTRLCN)/100+0.15347529018182*DURING_2000-0.183372342445734*DURING_2001) )) * (1-PAKNYWRTINFMCN_D)+ PAKNYWRTINFMCN_X*PAKNYWRTINFMCN_D  $">
<polygon fill="#63b8ff" stroke="black" points="1163.5,-707 937.5,-707 937.5,-671 1163.5,-671 1163.5,-707"/>
<text text-anchor="start" x="943.5" y="-684.8" font-family="Times New Roman,serif" font-size="14.00" fill="blue">PAKNYWRTINFMCN:Informal wage</text>
</a>
</g>
</g>
<!-- PAKNYGDPGAP_ -->
<g id="node4" class="node">
<title>PAKNYGDPGAP_</title>
<g id="a_node4"><a xlink:title="Output Gap (% of Potential GDP)
FRML  &lt;&gt; PAKNYGDPGAP_ = ((PAKNYGDPMKTPKN/PAKNYGDPPOTLKN-1)*100) $">
<polygon fill="#63b8ff" stroke="black" points="1205,-653 896,-653 896,-617 1205,-617 1205,-653"/>
<text text-anchor="start" x="902.5" y="-630.8" font-family="Times New Roman,serif" font-size="14.00" fill="blue">PAKNYGDPGAP_:Output Gap (% of Potential GDP)</text>
</a>
</g>
</g>
<!-- PAKNEIMPGNFSKN -->
<g id="node5" class="node">
<title>PAKNEIMPGNFSKN</title>
<g id="a_node5"><a xlink:title="Imports (G&amp;S)
FRML &lt;Z,EXO&gt; PAKNEIMPGNFSKN = (PAKNEIMPGNFSKN(-1)*EXP(-PAKNEIMPGNFSKN_A+ (-0.324143718656754*(LOG(PAKNEIMPGNFSKN(-1))-LOG(PAKNEGDETTOTKN(-1))+0.8*LOG(PAKNEIMPGNFSXN(-1)/PAKNYGDPFCSTXN(-1)))-0.583459272245018+1*((LOG(PAKNEGDETTOTKN))-(LOG(PAKNEGDETTOTKN(-1))))-0.0921874580409631*((LOG(PAKNEIMPGNFSXN/PAKNYGDPFCSTXN))-(LOG(PAKNEIMPGNFSXN(-1)/PAKNYGDPFCSTXN(-1))))-0.0361746331863615*DURING_2012) )) * (1-PAKNEIMPGNFSKN_D)+ PAKNEIMPGNFSKN_X*PAKNEIMPGNFSKN_D  $">
<polygon fill="#63b8ff" stroke="black" points="318.5,-572 95.5,-572 95.5,-536 318.5,-536 318.5,-572"/>
<text text-anchor="start" x="102" y="-549.8" font-family="Times New Roman,serif" font-size="14.00" fill="blue">PAKNEIMPGNFSKN:Imports (G&amp;S)</text>
</a>
</g>
</g>
<!-- PAKNEIMPGNFSKN&#45;&gt;PAKNYGDPMKTPKN -->
<g id="edge22" class="edge">
<title>PAKNEIMPGNFSKN-&gt;PAKNYGDPMKTPKN</title>
<g id="a_edge22"><a xlink:href="bogus" xlink:title=" PAKNEIMPGNFSKN -&gt; PAKNYGDPMKTPKN Min. att. -46%  max: 456%">
<path fill="none" stroke="black" stroke-width="8" d="M318.85,-548.28C350.26,-544.32 384.04,-537.76 414,-527 483.31,-502.09 553.81,-452.32 594.51,-420.66"/>
<polygon fill="black" stroke="black" stroke-width="8" points="598.64,-426.31 602.14,-414.62 589.95,-415.34 598.64,-426.31"/>
</a>
</g>
</g>
<!-- PAKNYGDPDISCKN -->
<g id="node6" class="node">
<title>PAKNYGDPDISCKN</title>
<g id="a_node6"><a xlink:title="Statistical Discrepency (Expenditure Side)
Exogen">
<polygon fill="yellow" stroke="black" points="392,-518 22,-518 22,-482 392,-482 392,-518"/>
<text text-anchor="start" x="28" y="-495.8" font-family="Times New Roman,serif" font-size="14.00" fill="blue">PAKNYGDPDISCKN:Statistical Discrepency (Expenditure Side)</text>
</a>
</g>
</g>
<!-- PAKNYGDPDISCKN&#45;&gt;PAKNYGDPMKTPKN -->
<g id="edge16" class="edge">
<title>PAKNYGDPDISCKN-&gt;PAKNYGDPMKTPKN</title>
<g id="a_edge16"><a xlink:href="bogus" xlink:title=" PAKNYGDPDISCKN -&gt; PAKNYGDPMKTPKN Min. att. -0%  max: 0%">
<path fill="none" stroke="black" d="M374.46,-481.53C387.91,-479.02 401.23,-476.19 414,-473 471.91,-458.53 535.59,-433.37 578.61,-414.93"/>
<polygon fill="black" stroke="black" points="579.9,-418.18 587.69,-410.99 577.12,-411.75 579.9,-418.18"/>
</a>
</g>
</g>
<!-- PAKHURDAMKN -->
<g id="node7" class="node">
<title>PAKHURDAMKN</title>
<g id="a_node7"><a xlink:title="Hurricane damage, constant prices
FRML  &lt;&gt; PAKHURDAMKN = (PAKNEHURAVERKN_/100)*PAKNYGDPMKTPKN(-1)*(1-PAKNEHURPTVTKN) $">
<polygon fill="#63b8ff" stroke="black" points="1206.5,-599 894.5,-599 894.5,-563 1206.5,-563 1206.5,-599"/>
<text text-anchor="start" x="900.5" y="-576.8" font-family="Times New Roman,serif" font-size="14.00" fill="blue">PAKHURDAMKN:Hurricane damage, constant prices</text>
</a>
</g>
</g>
<!-- PAKNYGDPMKTPXN -->
<g id="node8" class="node">
<title>PAKNYGDPMKTPXN</title>
<g id="a_node8"><a xlink:title="GDP deflator
FRML  &lt;&gt; PAKNYGDPMKTPXN = PAKNYGDPMKTPCN/PAKNYGDPMKTPKN $">
<polygon fill="#63b8ff" stroke="black" points="1160.5,-545 940.5,-545 940.5,-509 1160.5,-509 1160.5,-545"/>
<text text-anchor="start" x="946.5" y="-522.8" font-family="Times New Roman,serif" font-size="14.00" fill="blue">PAKNYGDPMKTPXN:GDP deflator</text>
</a>
</g>
</g>
<!-- PAKNYGDPMKTPKN&#45;&gt;PAKGDPPCKN -->
<g id="edge20" class="edge">
<title>PAKNYGDPMKTPKN-&gt;PAKGDPPCKN</title>
<g id="a_edge20"><a xlink:href="bogus" xlink:title=" PAKNYGDPMKTPKN -&gt; PAKGDPPCKN Min. att. 100%  max: 100%">
<path fill="none" stroke="black" stroke-width="8" d="M637.5,-410.3C657.13,-466.91 725.23,-639.96 847,-716 886.57,-740.71 938.94,-747.16 980.51,-747.58"/>
<polygon fill="black" stroke="black" stroke-width="8" points="980.39,-754.58 990.33,-747.5 980.27,-740.58 980.39,-754.58"/>
</a>
</g>
</g>
<!-- PAKNYGDPMKTPKN&#45;&gt;PAKNYWRTINFMCN -->
<g id="edge7" class="edge">
<title>PAKNYGDPMKTPKN-&gt;PAKNYWRTINFMCN</title>
<g id="a_edge7"><a xlink:href="bogus" xlink:title=" PAKNYGDPMKTPKN -&gt; PAKNYWRTINFMCN Min. att. -3148%  max: 101%">
<path fill="none" stroke="black" stroke-width="8" d="M639.94,-410.44C664.02,-460.72 738.42,-600.57 847,-662 869.22,-674.57 894.96,-682.21 920.47,-686.69"/>
<polygon fill="black" stroke="black" stroke-width="8" points="919.34,-693.6 930.27,-688.16 921.42,-679.76 919.34,-693.6"/>
</a>
</g>
</g>
<!-- PAKNYGDPMKTPKN&#45;&gt;PAKNYGDPGAP_ -->
<g id="edge18" class="edge">
<title>PAKNYGDPMKTPKN-&gt;PAKNYGDPGAP_</title>
<g id="a_edge18"><a xlink:href="bogus" xlink:title=" PAKNYGDPMKTPKN -&gt; PAKNYGDPGAP_ Min. att. -78553%  max: 128142%">
<path fill="none" stroke="black" stroke-width="8" d="M643.42,-410.44C672.37,-453.49 751.1,-560.54 847,-608 857.32,-613.11 868.27,-617.35 879.54,-620.87"/>
<polygon fill="black" stroke="black" stroke-width="8" points="877.41,-627.54 888.92,-623.5 881.18,-614.06 877.41,-627.54"/>
</a>
</g>
</g>
<!-- PAKNYGDPMKTPKN&#45;&gt;PAKHURDAMKN -->
<g id="edge23" class="edge">
<title>PAKNYGDPMKTPKN-&gt;PAKHURDAMKN</title>
<g id="a_edge23"><a xlink:href="bogus" xlink:title=" PAKNYGDPMKTPKN -&gt; PAKHURDAMKN Min. att. 0%  max: 0%">
<path fill="none" stroke="black" d="M649.04,-410.39C683.37,-445.08 763.4,-519.77 847,-554 858.55,-558.73 870.75,-562.67 883.21,-565.94"/>
<polygon fill="black" stroke="black" points="882.19,-569.3 892.74,-568.3 883.87,-562.5 882.19,-569.3"/>
</a>
</g>
</g>
<!-- PAKNYGDPMKTPKN&#45;&gt;PAKNYGDPMKTPXN -->
<g id="edge9" class="edge">
<title>PAKNYGDPMKTPKN-&gt;PAKNYGDPMKTPXN</title>
<g id="a_edge9"><a xlink:href="bogus" xlink:title=" PAKNYGDPMKTPKN -&gt; PAKNYGDPMKTPXN Min. att. -81%  max: 46%">
<path fill="none" stroke="black" stroke-width="8" d="M660.52,-410.49C700.72,-435.17 776.4,-478.27 847,-500 871.26,-507.47 897.79,-512.87 923.41,-516.78"/>
<polygon fill="black" stroke="black" stroke-width="8" points="922.3,-523.69 933.18,-518.16 924.26,-509.83 922.3,-523.69"/>
</a>
</g>
</g>
<!-- PAKNYWRTFORMCN_FITTED -->
<g id="node13" class="node">
<title>PAKNYWRTFORMCN_FITTED</title>
<g id="a_node13"><a xlink:title="Fitted  value:Formal wage
FRML &lt;FIT&gt; PAKNYWRTFORMCN_FITTED = PAKNYWRTFORMCN(-1)*EXP( (-0.120164450250183-0.3*(LOG(PAKNYWRTFORMCN(-1))-LOG(PAKNYGDPFCSTXN(-1))-LOG(PAKNYGDPPOTLKN(-1)/PAKLMEMPSTRLCN(-1)))+0.2*((LOG(PAKNYWRTFORMCN(-1)))-(LOG(PAKNYWRTFORMCN(-2))))+(1-0.2)*(0.5*((LOG(PAKNYGDPFCSTXN(-1)))-(LOG(PAKNYGDPFCSTXN(-2))))+0.5*(PAKINFLEXPT/100)+((LOG(PAKNYGDPMKTPKN/PAKLMEMPSTRLCN))-(LOG(PAKNYGDPMKTPKN(-1)/PAKLMEMPSTRLCN(-1)))))-0.2*(PAKLMUNRTOTLCN-PAKLMUNRSTRLCN)/100+0.15233813938029*DURING_2000-0.183411483907703*DURING_2001) ) $">
<polygon fill="#63b8ff" stroke="black" points="1224,-491 877,-491 877,-455 1224,-455 1224,-491"/>
<text text-anchor="start" x="883.5" y="-468.8" font-family="Times New Roman,serif" font-size="14.00" fill="blue">PAKNYWRTFORMCN_FITTED:Fitted  value:Formal wage</text>
</a>
</g>
</g>
<!-- PAKNYGDPMKTPKN&#45;&gt;PAKNYWRTFORMCN_FITTED -->
<g id="edge19" class="edge">
<title>PAKNYGDPMKTPKN-&gt;PAKNYWRTFORMCN_FITTED</title>
<g id="a_edge19"><a xlink:href="bogus" xlink:title=" PAKNYGDPMKTPKN -&gt; PAKNYWRTFORMCN_FITTED Min. att. -3148%  max: 101%">
<path fill="none" stroke="black" stroke-width="8" d="M697.09,-410.49C739.57,-421.95 796.24,-436.29 847,-446 857.82,-448.07 869.01,-450.04 880.3,-451.89"/>
<polygon fill="black" stroke="black" stroke-width="8" points="879.02,-458.78 890,-453.44 881.22,-444.95 879.02,-458.78"/>
</a>
</g>
</g>
<!-- PAKNEADPKMAXKN_FITTED -->
<g id="node14" class="node">
<title>PAKNEADPKMAXKN_FITTED</title>
<g id="a_node14"><a xlink:title="Fitted  value:PAKNEADPKMAXKN
FRML &lt;FIT&gt; PAKNEADPKMAXKN_FITTED = 0*DUMH+((1+0.01)/(0.01+PAKDEPR))*(PAKAVDAMAGE/100)*PAKNYGDPMKTPKN $">
<polygon fill="#63b8ff" stroke="black" points="1254,-437 847,-437 847,-401 1254,-401 1254,-437"/>
<text text-anchor="start" x="853.5" y="-414.8" font-family="Times New Roman,serif" font-size="14.00" fill="blue">PAKNEADPKMAXKN_FITTED:Fitted  value:PAKNEADPKMAXKN</text>
</a>
</g>
</g>
<!-- PAKNYGDPMKTPKN&#45;&gt;PAKNEADPKMAXKN_FITTED -->
<g id="edge4" class="edge">
<title>PAKNYGDPMKTPKN-&gt;PAKNEADPKMAXKN_FITTED</title>
<g id="a_edge4"><a xlink:href="bogus" xlink:title=" PAKNYGDPMKTPKN -&gt; PAKNEADPKMAXKN_FITTED Min. att. 100%  max: 100%">
<path fill="none" stroke="black" stroke-width="8" d="M811.5,-403.63C817.58,-404.02 823.69,-404.41 829.81,-404.81"/>
<polygon fill="black" stroke="black" stroke-width="8" points="829.15,-411.78 839.58,-405.44 830.05,-397.81 829.15,-411.78"/>
</a>
</g>
</g>
<!-- PAKNYGDPFCSTKN -->
<g id="node15" class="node">
<title>PAKNYGDPFCSTKN</title>
<g id="a_node15"><a xlink:title="GDP at factor cost
FRML  &lt;&gt; PAKNYGDPFCSTKN = PAKNYGDPMKTPKN-PAKNYTAXNINDKN $">
<polygon fill="#63b8ff" stroke="black" points="1171.5,-383 929.5,-383 929.5,-347 1171.5,-347 1171.5,-383"/>
<text text-anchor="start" x="935.5" y="-360.8" font-family="Times New Roman,serif" font-size="14.00" fill="blue">PAKNYGDPFCSTKN:GDP at factor cost</text>
</a>
</g>
</g>
<!-- PAKNYGDPMKTPKN&#45;&gt;PAKNYGDPFCSTKN -->
<g id="edge5" class="edge">
<title>PAKNYGDPMKTPKN-&gt;PAKNYGDPFCSTKN</title>
<g id="a_edge5"><a xlink:href="bogus" xlink:title=" PAKNYGDPMKTPKN -&gt; PAKNYGDPFCSTKN Min. att. 100%  max: 100%">
<path fill="none" stroke="black" stroke-width="8" d="M811.5,-380.37C845.39,-378.18 880.32,-375.93 912.63,-373.84"/>
<polygon fill="black" stroke="black" stroke-width="8" points="912.78,-380.85 922.31,-373.22 911.88,-366.87 912.78,-380.85"/>
</a>
</g>
</g>
<!-- PAKNYWRTINFMCN_FITTED -->
<g id="node16" class="node">
<title>PAKNYWRTINFMCN_FITTED</title>
<g id="a_node16"><a xlink:title="Fitted  value:Informal wage
FRML &lt;FIT&gt; PAKNYWRTINFMCN_FITTED = PAKNYWRTINFMCN(-1)*EXP( (-0.122614247140616-0.3*(LOG(PAKNYWRTINFMCN(-1))-LOG(PAKNYGDPFCSTXN(-1))-LOG(PAKNYGDPPOTLKN(-1)/PAKLMEMPSTRLCN(-1)))+0.2*((LOG(PAKNYWRTINFMCN(-1)))-(LOG(PAKNYWRTINFMCN(-2))))+(1-0.2)*(0.5*((LOG(PAKNYGDPFCSTXN(-1)))-(LOG(PAKNYGDPFCSTXN(-2))))+0.5*(PAKINFLEXPT/100)+((LOG(PAKNYGDPMKTPKN/PAKLMEMPSTRLCN))-(LOG(PAKNYGDPMKTPKN(-1)/PAKLMEMPSTRLCN(-1)))))-0.2*(PAKLMUNRTOTLCN-PAKLMUNRSTRLCN)/100+0.15347529018182*DURING_2000-0.183372342445734*DURING_2001) ) $">
<polygon fill="#63b8ff" stroke="black" points="1226,-329 875,-329 875,-293 1226,-293 1226,-329"/>
<text text-anchor="start" x="881.5" y="-306.8" font-family="Times New Roman,serif" font-size="14.00" fill="blue">PAKNYWRTINFMCN_FITTED:Fitted  value:Informal wage</text>
</a>
</g>
</g>
<!-- PAKNYGDPMKTPKN&#45;&gt;PAKNYWRTINFMCN_FITTED -->
<g id="edge10" class="edge">
<title>PAKNYGDPMKTPKN-&gt;PAKNYWRTINFMCN_FITTED</title>
<g id="a_edge10"><a xlink:href="bogus" xlink:title=" PAKNYGDPMKTPKN -&gt; PAKNYWRTINFMCN_FITTED Min. att. -3148%  max: 101%">
<path fill="none" stroke="black" stroke-width="8" d="M697.09,-373.51C739.57,-362.05 796.24,-347.71 847,-338 857.82,-335.93 869.01,-333.96 880.3,-332.11"/>
<polygon fill="black" stroke="black" stroke-width="8" points="881.22,-339.05 890,-330.56 879.02,-325.22 881.22,-339.05"/>
</a>
</g>
</g>
<!-- PAKFMLBLMTWOKN -->
<g id="node17" class="node">
<title>PAKFMLBLMTWOKN</title>
<g id="a_node17"><a xlink:title="Real money supply
FRML &lt;Z,EXO&gt; PAKFMLBLMTWOKN = (PAKFMLBLMTWOKN(-1)*EXP(-PAKFMLBLMTWOKN_A+ (-0.2*(LOG(PAKFMLBLMTWOKN(-1))-LOG(PAKNYGDPMKTPKN(-1))+0.1*PAKFMLBLPOLYXN(-1)/100-LOG(PAKVELOCITY(-1)))-0.32628131688075+0.7*((LOG(PAKNYGDPMKTPKN))-(LOG(PAKNYGDPMKTPKN(-1))))-1*((PAKFMLBLPOLYXN/100)-(PAKFMLBLPOLYXN(-1)/100))-((LOG(PAKVELOCITY))-(LOG(PAKVELOCITY(-1))))) )) * (1-PAKFMLBLMTWOKN_D)+ PAKFMLBLMTWOKN_X*PAKFMLBLMTWOKN_D  $">
<polygon fill="#63b8ff" stroke="black" points="1179.5,-275 921.5,-275 921.5,-239 1179.5,-239 1179.5,-275"/>
<text text-anchor="start" x="927.5" y="-252.8" font-family="Times New Roman,serif" font-size="14.00" fill="blue">PAKFMLBLMTWOKN:Real money supply</text>
</a>
</g>
</g>
<!-- PAKNYGDPMKTPKN&#45;&gt;PAKFMLBLMTWOKN -->
<g id="edge12" class="edge">
<title>PAKNYGDPMKTPKN-&gt;PAKFMLBLMTWOKN</title>
<g id="a_edge12"><a xlink:href="bogus" xlink:title=" PAKNYGDPMKTPKN -&gt; PAKFMLBLMTWOKN Min. att. -360%  max: 149%">
<path fill="none" stroke="black" stroke-width="8" d="M660.52,-373.51C700.72,-348.83 776.4,-305.73 847,-284 865.31,-278.36 884.92,-273.9 904.45,-270.37"/>
<polygon fill="black" stroke="black" stroke-width="8" points="905.6,-277.28 914.3,-268.72 903.28,-263.47 905.6,-277.28"/>
</a>
</g>
</g>
<!-- PAKNYWRTFORMCN -->
<g id="node19" class="node">
<title>PAKNYWRTFORMCN</title>
<g id="a_node19"><a xlink:title="Formal wage
FRML &lt;Z,EXO&gt; PAKNYWRTFORMCN = (PAKNYWRTFORMCN(-1)*EXP(-PAKNYWRTFORMCN_A+ (-0.120164450250183-0.3*(LOG(PAKNYWRTFORMCN(-1))-LOG(PAKNYGDPFCSTXN(-1))-LOG(PAKNYGDPPOTLKN(-1)/PAKLMEMPSTRLCN(-1)))+0.2*((LOG(PAKNYWRTFORMCN(-1)))-(LOG(PAKNYWRTFORMCN(-2))))+(1-0.2)*(0.5*((LOG(PAKNYGDPFCSTXN(-1)))-(LOG(PAKNYGDPFCSTXN(-2))))+0.5*(PAKINFLEXPT/100)+((LOG(PAKNYGDPMKTPKN/PAKLMEMPSTRLCN))-(LOG(PAKNYGDPMKTPKN(-1)/PAKLMEMPSTRLCN(-1)))))-0.2*(PAKLMUNRTOTLCN-PAKLMUNRSTRLCN)/100+0.15233813938029*DURING_2000-0.183411483907703*DURING_2001) )) * (1-PAKNYWRTFORMCN_D)+ PAKNYWRTFORMCN_X*PAKNYWRTFORMCN_D  $">
<polygon fill="#63b8ff" stroke="black" points="1161.5,-221 939.5,-221 939.5,-185 1161.5,-185 1161.5,-221"/>
<text text-anchor="start" x="945.5" y="-198.8" font-family="Times New Roman,serif" font-size="14.00" fill="blue">PAKNYWRTFORMCN:Formal wage</text>
</a>
</g>
</g>
<!-- PAKNYGDPMKTPKN&#45;&gt;PAKNYWRTFORMCN -->
<g id="edge13" class="edge">
<title>PAKNYGDPMKTPKN-&gt;PAKNYWRTFORMCN</title>
<g id="a_edge13"><a xlink:href="bogus" xlink:title=" PAKNYGDPMKTPKN -&gt; PAKNYWRTFORMCN Min. att. -3148%  max: 101%">
<path fill="none" stroke="black" stroke-width="8" d="M649.04,-373.61C683.37,-338.92 763.4,-264.23 847,-230 870.56,-220.35 896.83,-214 922.43,-209.84"/>
<polygon fill="black" stroke="black" stroke-width="8" points="923.34,-216.78 932.22,-208.41 921.32,-202.93 923.34,-216.78"/>
</a>
</g>
</g>
<!-- PAKFMLBLMTWOKN_FITTED -->
<g id="node20" class="node">
<title>PAKFMLBLMTWOKN_FITTED</title>
<g id="a_node20"><a xlink:title="Fitted  value:Real money supply
FRML &lt;FIT&gt; PAKFMLBLMTWOKN_FITTED = PAKFMLBLMTWOKN(-1)*EXP( (-0.2*(LOG(PAKFMLBLMTWOKN(-1))-LOG(PAKNYGDPMKTPKN(-1))+0.1*PAKFMLBLPOLYXN(-1)/100-LOG(PAKVELOCITY(-1)))-0.32628131688075+0.7*((LOG(PAKNYGDPMKTPKN))-(LOG(PAKNYGDPMKTPKN(-1))))-1*((PAKFMLBLPOLYXN/100)-(PAKFMLBLPOLYXN(-1)/100))-((LOG(PAKVELOCITY))-(LOG(PAKVELOCITY(-1))))) ) $">
<polygon fill="#63b8ff" stroke="black" points="1242,-167 859,-167 859,-131 1242,-131 1242,-167"/>
<text text-anchor="start" x="865.5" y="-144.8" font-family="Times New Roman,serif" font-size="14.00" fill="blue">PAKFMLBLMTWOKN_FITTED:Fitted  value:Real money supply</text>
</a>
</g>
</g>
<!-- PAKNYGDPMKTPKN&#45;&gt;PAKFMLBLMTWOKN_FITTED -->
<g id="edge6" class="edge">
<title>PAKNYGDPMKTPKN-&gt;PAKFMLBLMTWOKN_FITTED</title>
<g id="a_edge6"><a xlink:href="bogus" xlink:title=" PAKNYGDPMKTPKN -&gt; PAKFMLBLMTWOKN_FITTED Min. att. -360%  max: 149%">
<path fill="none" stroke="black" stroke-width="8" d="M643.42,-373.56C672.37,-330.51 751.1,-223.46 847,-176 848.51,-175.25 850.03,-174.53 851.57,-173.81"/>
<polygon fill="black" stroke="black" stroke-width="8" points="853.98,-180.39 860.54,-170.09 848.62,-167.46 853.98,-180.39"/>
</a>
</g>
</g>
<!-- PAKNYGDPMKTPKD -->
<g id="node21" class="node">
<title>PAKNYGDPMKTPKD</title>
<g id="a_node21"><a xlink:title="PAKNYGDPMKTPKD
FRML  &lt;&gt; PAKNYGDPMKTPKD = (PAKNYGDPMKTPKN*((PAKNYGDPMKTPCN_VALUE_2010)/((PAKNYGDPMKTPKN_VALUE_2010))))/(PAKPANUSATLS_VALUE_2010) $">
<polygon fill="#63b8ff" stroke="black" points="1124,-113 977,-113 977,-77 1124,-77 1124,-113"/>
<text text-anchor="start" x="983.5" y="-90.8" font-family="Times New Roman,serif" font-size="14.00" fill="blue">PAKNYGDPMKTPKD:</text>
</a>
</g>
</g>
<!-- PAKNYGDPMKTPKN&#45;&gt;PAKNYGDPMKTPKD -->
<g id="edge3" class="edge">
<title>PAKNYGDPMKTPKN-&gt;PAKNYGDPMKTPKD</title>
<g id="a_edge3"><a xlink:href="bogus" xlink:title=" PAKNYGDPMKTPKN -&gt; PAKNYGDPMKTPKD Min. att. 100%  max: 100%">
<path fill="none" stroke="black" stroke-width="8" d="M639.94,-373.56C664.02,-323.28 738.42,-183.43 847,-122 880.92,-102.81 923.03,-95.12 960.05,-92.59"/>
<polygon fill="black" stroke="black" stroke-width="8" points="960.32,-99.59 969.96,-92.1 959.63,-85.6 960.32,-99.59"/>
</a>
</g>
</g>
<!-- PAKNEADPKMAXKN -->
<g id="node22" class="node">
<title>PAKNEADPKMAXKN</title>
<g id="a_node22"><a xlink:title="PAKNEADPKMAXKN
FRML &lt;Z,EXO&gt; PAKNEADPKMAXKN = (0*DUMH+((1+0.01)/(0.01+PAKDEPR))*(PAKAVDAMAGE/100)*PAKNYGDPMKTPKN + PAKNEADPKMAXKN_A)* (1-PAKNEADPKMAXKN_D)+ PAKNEADPKMAXKN_X*PAKNEADPKMAXKN_D  $">
<polygon fill="#63b8ff" stroke="black" points="1125,-59 976,-59 976,-23 1125,-23 1125,-59"/>
<text text-anchor="start" x="982.5" y="-36.8" font-family="Times New Roman,serif" font-size="14.00" fill="blue">PAKNEADPKMAXKN:</text>
</a>
</g>
</g>
<!-- PAKNYGDPMKTPKN&#45;&gt;PAKNEADPKMAXKN -->
<g id="edge17" class="edge">
<title>PAKNYGDPMKTPKN-&gt;PAKNEADPKMAXKN</title>
<g id="a_edge17"><a xlink:href="bogus" xlink:title=" PAKNYGDPMKTPKN -&gt; PAKNEADPKMAXKN Min. att. 100%  max: 100%">
<path fill="none" stroke="black" stroke-width="8" d="M637.5,-373.7C657.13,-317.09 725.23,-144.04 847,-68 879.93,-47.44 921.71,-39.52 958.77,-37.2"/>
<polygon fill="black" stroke="black" stroke-width="8" points="959.02,-44.2 968.72,-36.78 958.43,-30.21 959.02,-44.2"/>
</a>
</g>
</g>
<!-- PAKNECONGOVTKN -->
<g id="node10" class="node">
<title>PAKNECONGOVTKN</title>
<g id="a_node10"><a xlink:title="Government Consumption
FRML  &lt;&gt; PAKNECONGOVTKN = PAKNECONGOVTCN/PAKNECONGOVTXN $">
<polygon fill="#63b8ff" stroke="black" points="353,-464 61,-464 61,-428 353,-428 353,-464"/>
<text text-anchor="start" x="67" y="-441.8" font-family="Times New Roman,serif" font-size="14.00" fill="blue">PAKNECONGOVTKN:Government Consumption</text>
</a>
</g>
</g>
<!-- PAKNECONGOVTKN&#45;&gt;PAKNYGDPMKTPKN -->
<g id="edge15" class="edge">
<title>PAKNECONGOVTKN-&gt;PAKNYGDPMKTPKN</title>
<g id="a_edge15"><a xlink:href="bogus" xlink:title=" PAKNECONGOVTKN -&gt; PAKNYGDPMKTPKN Min. att. -108%  max: 835%">
<path fill="none" stroke="black" stroke-width="8" d="M352.17,-427.53C389.66,-422.73 430.27,-417.52 468.56,-412.62"/>
<polygon fill="black" stroke="black" stroke-width="8" points="469.44,-419.56 478.47,-411.35 467.66,-405.68 469.44,-419.56"/>
</a>
</g>
</g>
<!-- PAKADAP -->
<g id="node11" class="node">
<title>PAKADAP</title>
<g id="a_node11"><a xlink:title="Switch on adaptation mode (0 or 1)
Exogen">
<polygon fill="yellow" stroke="black" points="344,-410 70,-410 70,-374 344,-374 344,-410"/>
<text text-anchor="start" x="76" y="-387.8" font-family="Times New Roman,serif" font-size="14.00" fill="blue">PAKADAP:Switch on adaptation mode (0 or 1)</text>
</a>
</g>
</g>
<!-- PAKADAP&#45;&gt;PAKNYGDPMKTPKN -->
<g id="edge1" class="edge">
<title>PAKADAP-&gt;PAKNYGDPMKTPKN</title>
<g id="a_edge1"><a xlink:href="bogus" xlink:title=" PAKADAP -&gt; PAKNYGDPMKTPKN Min. att. -0%  max: 0%">
<path fill="none" stroke="black" d="M344.27,-392C374.28,-392 406.61,-392 438.34,-392"/>
<polygon fill="black" stroke="black" points="438.02,-395.5 448.02,-392 438.02,-388.5 438.02,-395.5"/>
</a>
</g>
</g>
<!-- PAKNEGDISTKBKN -->
<g id="node12" class="node">
<title>PAKNEGDISTKBKN</title>
<g id="a_node12"><a xlink:title="Change in Inventories
Exogen">
<polygon fill="yellow" stroke="black" points="336.5,-356 77.5,-356 77.5,-320 336.5,-320 336.5,-356"/>
<text text-anchor="start" x="84" y="-333.8" font-family="Times New Roman,serif" font-size="14.00" fill="blue">PAKNEGDISTKBKN:Change in Inventories</text>
</a>
</g>
</g>
<!-- PAKNEGDISTKBKN&#45;&gt;PAKNYGDPMKTPKN -->
<g id="edge8" class="edge">
<title>PAKNEGDISTKBKN-&gt;PAKNYGDPMKTPKN</title>
<g id="a_edge8"><a xlink:href="bogus" xlink:title=" PAKNEGDISTKBKN -&gt; PAKNYGDPMKTPKN Min. att. -0%  max: 0%">
<path fill="none" stroke="black" d="M336.75,-354.5C380.05,-360.04 428.82,-366.29 473.96,-372.07"/>
<polygon fill="black" stroke="black" points="473.48,-375.54 483.85,-373.34 474.37,-368.6 473.48,-375.54"/>
</a>
</g>
</g>
<!-- PAKDISPREPKN -->
<g id="node18" class="node">
<title>PAKDISPREPKN</title>
<g id="a_node18"><a xlink:title="Investment in disaster risk preparation, constant prices
FRML  &lt;&gt; PAKDISPREPKN = PAKDISPREPCN/PAKNYGDPMKTPXN $">
<polygon fill="#63b8ff" stroke="black" points="414,-302 0,-302 0,-266 414,-266 414,-302"/>
<text text-anchor="start" x="6" y="-279.8" font-family="Times New Roman,serif" font-size="14.00" fill="blue">PAKDISPREPKN:Investment in disaster risk preparation, constant prices</text>
</a>
</g>
</g>
<!-- PAKDISPREPKN&#45;&gt;PAKNYGDPMKTPKN -->
<g id="edge14" class="edge">
<title>PAKDISPREPKN-&gt;PAKNYGDPMKTPKN</title>
<g id="a_edge14"><a xlink:href="bogus" xlink:title=" PAKDISPREPKN -&gt; PAKNYGDPMKTPKN Min. att. -0%  max: 0%">
<path fill="none" stroke="black" d="M374.46,-302.47C387.91,-304.98 401.23,-307.81 414,-311 471.91,-325.47 535.59,-350.63 578.61,-369.07"/>
<polygon fill="black" stroke="black" points="577.12,-372.25 587.69,-373.01 579.9,-365.82 577.12,-372.25"/>
</a>
</g>
</g>
<!-- PAKNECONPRVTKN -->
<g id="node23" class="node">
<title>PAKNECONPRVTKN</title>
<g id="a_node23"><a xlink:title="Household Consumption
FRML &lt;Z,EXO&gt; PAKNECONPRVTKN = (PAKNECONPRVTKN(-1)*EXP(-PAKNECONPRVTKN_A+ (-0.2*(LOG(PAKNECONPRVTKN(-1))-LOG((PAKNYYWBTOTLCN(-1)*(1-PAKGGREVDRCTXN(-1)/100))/PAKNECONPRVTXN(-1)))+1*((LOG((PAKNYYWBTOTLCN*(1-PAKGGREVDRCTXN/100))/PAKNECONPRVTXN))-(LOG((PAKNYYWBTOTLCN(-1)*(1-PAKGGREVDRCTXN(-1)/100))/PAKNECONPRVTXN(-1))))+0.0303228629698929+0.0163839011059956*DURING_2010-0.3*(PAKFMLBLPOLYXN/100-((LOG(PAKNECONPRVTXN))-(LOG(PAKNECONPRVTXN(-1)))))) )) * (1-PAKNECONPRVTKN_D)+ PAKNECONPRVTKN_X*PAKNECONPRVTKN_D  $">
<polygon fill="#63b8ff" stroke="black" points="346,-248 68,-248 68,-212 346,-212 346,-248"/>
<text text-anchor="start" x="74" y="-225.8" font-family="Times New Roman,serif" font-size="14.00" fill="blue">PAKNECONPRVTKN:Household Consumption</text>
</a>
</g>
</g>
<!-- PAKNECONPRVTKN&#45;&gt;PAKNYGDPMKTPKN -->
<g id="edge2" class="edge">
<title>PAKNECONPRVTKN-&gt;PAKNYGDPMKTPKN</title>
<g id="a_edge2"><a xlink:href="bogus" xlink:title=" PAKNECONPRVTKN -&gt; PAKNYGDPMKTPKN Min. att. -1557%  max: 290%">
<path fill="none" stroke="black" stroke-width="8" d="M346.25,-239.8C369.28,-243.78 392.61,-249.32 414,-257 483.31,-281.91 553.81,-331.68 594.51,-363.34"/>
<polygon fill="black" stroke="black" stroke-width="8" points="589.95,-368.66 602.14,-369.38 598.64,-357.69 589.95,-368.66"/>
</a>
</g>
</g>
<!-- PAKNEGDIFTOTKN -->
<g id="node24" class="node">
<title>PAKNEGDIFTOTKN</title>
<g id="a_node24"><a xlink:title="Total Gross Capital Formation
FRML  &lt;&gt; PAKNEGDIFTOTKN = PAKNEGDIFGOVKN+PAKNEGDIFPRVKN $">
<polygon fill="#63b8ff" stroke="black" points="359,-194 55,-194 55,-158 359,-158 359,-194"/>
<text text-anchor="start" x="61" y="-171.8" font-family="Times New Roman,serif" font-size="14.00" fill="blue">PAKNEGDIFTOTKN:Total Gross Capital Formation</text>
</a>
</g>
</g>
<!-- PAKNEGDIFTOTKN&#45;&gt;PAKNYGDPMKTPKN -->
<g id="edge11" class="edge">
<title>PAKNEGDIFTOTKN-&gt;PAKNYGDPMKTPKN</title>
<g id="a_edge11"><a xlink:href="bogus" xlink:title=" PAKNEGDIFTOTKN -&gt; PAKNYGDPMKTPKN Min. att. -36%  max: 366%">
<path fill="none" stroke="black" stroke-width="8" d="M359.4,-185.37C378.27,-189.56 396.91,-195.26 414,-203 494.99,-239.67 567.9,-317.21 604.56,-360.72"/>
<polygon fill="black" stroke="black" stroke-width="8" points="598.95,-364.91 610.71,-368.17 609.74,-356 598.95,-364.91"/>
</a>
</g>
</g>
</g>
</svg>