<svg xmlns="http://www.w3.org/2000/svg" xmlns:xlink="http://www.w3.org/1999/xlink" width="432pt" height="185pt" viewBox="0.00 0.00 432.00 185.20">
<g id="graph0" class="graph" transform="scale(0.167767 0.167767) rotate(0) translate(4 1099.93)">
<title>TD</title>
<polygon fill="white" stroke="none" points="-4,4 -4,-1099.93 2571,-1099.93 2571,4 -4,4"/>
<text text-anchor="middle" x="1283.5" y="-7.8" font-family="Times New Roman,serif" font-size="14.00">PAKNECONPRVTKN</text>
<!-- PAKSMENGTOTLKN -->
<g id="node1" class="node">
<title>PAKSMENGTOTLKN</title>
<g id="a_node1"><a xlink:title="PAKSMENGTOTLKN
FRML  &lt;&gt; PAKSMENGTOTLKN = ((1+1.65868473220397)*(0.0775261497897936*PAKNECONPRVTKN+0*PAKNECONGOVTKN+0*PAKNEGDIFTOTKN+0.0217448978257548*PAKNEEXPGNFSKN+0.0458991644104248*PAKNEGDISTKBKN)-0.11894699850705*PAKNEIMPGNFSKN--0.50579180838529*PAKNYTAXNINDKN-0)/(1+5.65663938581514) $">
<polygon fill="#63b8ff" stroke="black" points="1519,-167 1374,-167 1374,-131 1519,-131 1519,-167"/>
<text text-anchor="start" x="1380.5" y="-144.8" font-family="Times New Roman,serif" font-size="14.00" fill="blue">PAKSMENGTOTLKN:</text>
</a>
</g>
</g>
<!-- PAKNYWRTTOTLCN -->
<g id="node2" class="node">
<title>PAKNYWRTTOTLCN</title>
<g id="a_node2"><a xlink:title="Wages
FRML  &lt;&gt; PAKNYWRTTOTLCN = (PAKNYWBINFMSH**PAKINFCES*(PAKNYWRTINFMCN)**(1-PAKINFCES)+PAKNYWBFORMSH**PAKINFCES*(PAKNYWRTFORMCN*(1+PAKGGREVDRCTXN/100))**(1-PAKINFCES))**(1/(1-PAKINFCES)) $">
<polygon fill="#63b8ff" stroke="black" points="1929,-337 1748,-337 1748,-301 1929,-301 1929,-337"/>
<text text-anchor="start" x="1754.5" y="-314.8" font-family="Times New Roman,serif" font-size="14.00" fill="blue">PAKNYWRTTOTLCN:Wages</text>
</a>
</g>
</g>
<!-- PAKLMEMPTOTLCN -->
<g id="node5" class="node">
<title>PAKLMEMPTOTLCN</title>
<g id="a_node5"><a xlink:title="Employment
FRML &lt;Z,EXO&gt; PAKLMEMPTOTLCN = (PAKLMEMPTOTLCN(-1)*EXP(-PAKLMEMPTOTLCN_A+ (-0.345624644563667*(LOG(PAKLMEMPTOTLCN(-1))-LOG(PAKLMEMPSTRLCN(-1)))-0.1*(((LOG(PAKNYWRTTOTLCN/PAKNYGDPFCSTXN))-(LOG(PAKNYWRTTOTLCN(-1)/PAKNYGDPFCSTXN(-1))))-((LOG(PAKNYGDPPOTLKN/PAKLMEMPSTRLCN))-(LOG(PAKNYGDPPOTLKN(-1)/PAKLMEMPSTRLCN(-1)))))-0.0011790007645121+((LOG(PAKLMEMPSTRLCN))-(LOG(PAKLMEMPSTRLCN(-1))))+0.175412878170024*PAKNYGDPGAP_/100+0.0369790799942338*DURING_2010) )) * (1-PAKLMEMPTOTLCN_D)+ PAKLMEMPTOTLCN_X*PAKLMEMPTOTLCN_D  $">
<polygon fill="#63b8ff" stroke="black" points="2246,-424 2029,-424 2029,-388 2246,-388 2246,-424"/>
<text text-anchor="start" x="2035.5" y="-401.8" font-family="Times New Roman,serif" font-size="14.00" fill="blue">PAKLMEMPTOTLCN:Employment</text>
</a>
</g>
</g>
<!-- PAKNYWRTTOTLCN&#45;&gt;PAKLMEMPTOTLCN -->
<g id="edge8" class="edge">
<title>PAKNYWRTTOTLCN-&gt;PAKLMEMPTOTLCN</title>
<g id="a_edge8"><a xlink:href="bogus" xlink:title=" PAKNYWRTTOTLCN -&gt; PAKLMEMPTOTLCN Min. att. -1554%  max: 236%">
<path fill="none" stroke="black" stroke-width="8" d="M1913.93,-337.41C1939.12,-343.9 1967.37,-351.47 1993,-359 2017.2,-366.11 2043.48,-374.51 2066.86,-382.24"/>
<polygon fill="black" stroke="black" stroke-width="8" points="2064.59,-388.86 2076.29,-385.38 2069.02,-375.58 2064.59,-388.86"/>
</a>
</g>
</g>
<!-- PAKNYYWBTOTLCN -->
<g id="node16" class="node">
<title>PAKNYYWBTOTLCN</title>
<g id="a_node16"><a xlink:title="Economy-wide wage bill
FRML  &lt;&gt; PAKNYYWBTOTLCN = PAKNYWRTTOTLCN*PAKLMEMPTOTLCN $">
<polygon fill="#63b8ff" stroke="black" points="2567,-424 2282,-424 2282,-388 2567,-388 2567,-424"/>
<text text-anchor="start" x="2288.5" y="-401.8" font-family="Times New Roman,serif" font-size="14.00" fill="blue">PAKNYYWBTOTLCN:Economy-wide wage bill</text>
</a>
</g>
</g>
<!-- PAKNYWRTTOTLCN&#45;&gt;PAKNYYWBTOTLCN -->
<g id="edge30" class="edge">
<title>PAKNYWRTTOTLCN-&gt;PAKNYYWBTOTLCN</title>
<g id="a_edge30"><a xlink:href="bogus" xlink:title=" PAKNYWRTTOTLCN -&gt; PAKNYYWBTOTLCN Min. att. 16%  max: 106%">
<path fill="none" stroke="black" stroke-width="8" d="M1929.13,-332.11C2011.51,-344.19 2137,-362.67 2246,-379 2259.04,-380.95 2272.62,-383 2286.2,-385.05"/>
<polygon fill="black" stroke="black" stroke-width="8" points="2284.9,-391.94 2295.83,-386.51 2286.99,-378.09 2284.9,-391.94"/>
</a>
</g>
</g>
<!-- PAKSMAGRFSTYKN -->
<g id="node3" class="node">
<title>PAKSMAGRFSTYKN</title>
<g id="a_node3"><a xlink:title="PAKSMAGRFSTYKN
FRML  &lt;&gt; PAKSMAGRFSTYKN = ((1+0.195965019358753)*(0.010131919293849*PAKNECONPRVTKN+0*PAKNECONGOVTKN+0*PAKNEGDIFTOTKN+0.000136733767007103*PAKNEEXPGNFSKN+0.0199955288980741*PAKNEGDISTKBKN)-0.00076829563200478*PAKNEIMPGNFSKN-0.00172030587371022*PAKNYTAXNINDKN-65421)/(1+0.319587584852584) $">
<polygon fill="#63b8ff" stroke="black" points="1518.5,-59 1374.5,-59 1374.5,-23 1518.5,-23 1518.5,-59"/>
<text text-anchor="start" x="1380.5" y="-36.8" font-family="Times New Roman,serif" font-size="14.00" fill="blue">PAKSMAGRFSTYKN:</text>
</a>
</g>
</g>
<!-- PAKSMAGRFSNGKN -->
<g id="node4" class="node">
<title>PAKSMAGRFSNGKN</title>
<g id="a_node4"><a xlink:title="PAKSMAGRFSNGKN
FRML  &lt;&gt; PAKSMAGRFSNGKN = ((1+1.92407325889309)*(0.00246195499563977*PAKNECONPRVTKN+0*PAKNECONGOVTKN+0*PAKNEGDIFTOTKN+0.00130433854799597*PAKNEEXPGNFSKN+0.00497657560072267*PAKNEGDISTKBKN)-1.14989260682794E-05*PAKNEIMPGNFSKN-2.46467171367829E-07*PAKNYTAXNINDKN-26993)/(1+0.506095544048804) $">
<polygon fill="#63b8ff" stroke="black" points="1519,-1015 1374,-1015 1374,-979 1519,-979 1519,-1015"/>
<text text-anchor="start" x="1380.5" y="-992.8" font-family="Times New Roman,serif" font-size="14.00" fill="blue">PAKSMAGRFSNGKN:</text>
</a>
</g>
</g>
<!-- PAKLMEMPTOTLCN&#45;&gt;PAKNYYWBTOTLCN -->
<g id="edge31" class="edge">
<title>PAKLMEMPTOTLCN-&gt;PAKNYYWBTOTLCN</title>
<g id="a_edge31"><a xlink:href="bogus" xlink:title=" PAKLMEMPTOTLCN -&gt; PAKNYYWBTOTLCN Min. att. -6%  max: 84%">
<path fill="none" stroke="black" stroke-width="8" d="M2246.25,-406C2252.44,-406 2258.73,-406 2265.07,-406"/>
<polygon fill="black" stroke="black" stroke-width="8" points="2264.92,-413 2274.92,-406 2264.92,-399 2264.92,-413"/>
</a>
</g>
</g>
<!-- PAKSMSRVTRNSKN -->
<g id="node6" class="node">
<title>PAKSMSRVTRNSKN</title>
<g id="a_node6"><a xlink:title="PAKSMSRVTRNSKN
FRML  &lt;&gt; PAKSMSRVTRNSKN = ((1+0.301074862860981)*(0.204687752761289*PAKNECONPRVTKN+0*PAKNECONGOVTKN+0*PAKNEGDIFTOTKN+0.0551862611209703*PAKNEEXPGNFSKN+0*PAKNEGDISTKBKN)--0.0392641863572605*PAKNEIMPGNFSKN-0.0174996684619017*PAKNYTAXNINDKN-0)/(1+1.11680986862739) $">
<polygon fill="#63b8ff" stroke="black" points="1517.5,-961 1375.5,-961 1375.5,-925 1517.5,-925 1517.5,-961"/>
<text text-anchor="start" x="1381.5" y="-938.8" font-family="Times New Roman,serif" font-size="14.00" fill="blue">PAKSMSRVTRNSKN:</text>
</a>
</g>
</g>
<!-- PAKNECONPRVTCN -->
<g id="node7" class="node">
<title>PAKNECONPRVTCN</title>
<g id="a_node7"><a xlink:title="Household demand
FRML  &lt;&gt; PAKNECONPRVTCN = PAKNECONPRVTKN*PAKNECONPRVTXN $">
<polygon fill="#63b8ff" stroke="black" points="1570,-907 1323,-907 1323,-871 1570,-871 1570,-907"/>
<text text-anchor="start" x="1329.5" y="-884.8" font-family="Times New Roman,serif" font-size="14.00" fill="blue">PAKNECONPRVTCN:Household demand</text>
</a>
</g>
</g>
<!-- PAKNEIMPGNFSXN -->
<g id="node8" class="node">
<title>PAKNEIMPGNFSXN</title>
<g id="a_node8"><a xlink:title="Imports (G&amp;S)
FRML  &lt;&gt; PAKNEIMPGNFSXN = ((PAKNEIMPENGYSH**PAKCESENGYIMPT)*PAKNVENGNIMPXN**(1-PAKCESENGYIMPT)+(PAKNEIMPOTHRSH**PAKCESENGYIMPT)*PAKNEIMPGSNEXN**(1-PAKCESENGYIMPT))**(1/(1-PAKCESENGYIMPT)) $">
<polygon fill="#63b8ff" stroke="black" points="254.5,-841 31.5,-841 31.5,-805 254.5,-805 254.5,-841"/>
<text text-anchor="start" x="38" y="-818.8" font-family="Times New Roman,serif" font-size="14.00" fill="blue">PAKNEIMPGNFSXN:Imports (G&amp;S)</text>
</a>
</g>
</g>
<!-- PAKNECONOTHRXN -->
<g id="node30" class="node">
<title>PAKNECONOTHRXN</title>
<g id="a_node30"><a xlink:title="Non-Energy Consumption
FRML &lt;Z,EXO&gt; PAKNECONOTHRXN = (PAKNECONOTHRXN(-1)*EXP(-PAKNECONOTHRXN_A+ (0.598859116610832*((LOG(PAKNYGDPFCSTXN))-(LOG(PAKNYGDPFCSTXN(-1))))+((PAKGGREVGNFSXN/100)-(PAKGGREVGNFSXN(-1)/100))+(1-0.598859116610832)*((LOG(PAKNEIMPGNFSXN))-(LOG(PAKNEIMPGNFSXN(-1))))+0.2*PAKNYGDPGAP_/100) )) * (1-PAKNECONOTHRXN_D)+ PAKNECONOTHRXN_X*PAKNECONOTHRXN_D  $">
<polygon fill="#63b8ff" stroke="black" points="611,-841 322,-841 322,-805 611,-805 611,-841"/>
<text text-anchor="start" x="328.5" y="-818.8" font-family="Times New Roman,serif" font-size="14.00" fill="blue">PAKNECONOTHRXN:Non-Energy Consumption</text>
</a>
</g>
</g>
<!-- PAKNEIMPGNFSXN&#45;&gt;PAKNECONOTHRXN -->
<g id="edge27" class="edge">
<title>PAKNEIMPGNFSXN-&gt;PAKNECONOTHRXN</title>
<g id="a_edge27"><a xlink:href="bogus" xlink:title=" PAKNEIMPGNFSXN -&gt; PAKNECONOTHRXN Min. att. -10%  max: 114%">
<path fill="none" stroke="black" stroke-width="8" d="M254.64,-823C270.85,-823 287.82,-823 304.79,-823"/>
<polygon fill="black" stroke="black" stroke-width="8" points="304.75,-830 314.75,-823 304.75,-816 304.75,-830"/>
</a>
</g>
</g>
<!-- PAKNYGDPGAP_ -->
<g id="node9" class="node">
<title>PAKNYGDPGAP_</title>
<g id="a_node9"><a xlink:title="Output Gap (% of Potential GDP)
FRML  &lt;&gt; PAKNYGDPGAP_ = ((PAKNYGDPMKTPKN/PAKNYGDPPOTLKN-1)*100) $">
<polygon fill="#63b8ff" stroke="black" points="1993,-491 1684,-491 1684,-455 1993,-455 1993,-491"/>
<text text-anchor="start" x="1690.5" y="-468.8" font-family="Times New Roman,serif" font-size="14.00" fill="blue">PAKNYGDPGAP_:Output Gap (% of Potential GDP)</text>
</a>
</g>
</g>
<!-- PAKNYGDPGAP_&#45;&gt;PAKLMEMPTOTLCN -->
<g id="edge18" class="edge">
<title>PAKNYGDPGAP_-&gt;PAKLMEMPTOTLCN</title>
<g id="a_edge18"><a xlink:href="bogus" xlink:title=" PAKNYGDPGAP_ -&gt; PAKLMEMPTOTLCN Min. att. -362%  max: 147%">
<path fill="none" stroke="black" stroke-width="8" d="M1951.68,-454.58C1965.63,-451.9 1979.67,-449.02 1993,-446 2014.6,-441.1 2037.81,-435 2059.13,-429.06"/>
<polygon fill="black" stroke="black" stroke-width="8" points="2060.96,-435.82 2068.67,-426.36 2057.14,-422.35 2060.96,-435.82"/>
</a>
</g>
</g>
<!-- PAKFMLBLPOLYXN -->
<g id="node12" class="node">
<title>PAKFMLBLPOLYXN</title>
<g id="a_node12"><a xlink:title="Policy Rate
FRML &lt;Z,EXO&gt; PAKFMLBLPOLYXN = (-100*PAKFMLBLPOLYXN_A+100* (0.905129162122953*PAKFMLBLPOLYXN(-1)/100+(1-0.905129162122953)*(PAKMPPOLNATRXN/100+1.2*(((LOG(PAKNECONPRVTXN))-(LOG(PAKNECONPRVTXN(-1))))-PAKINFLEXPT/100)+0.5*PAKNYGDPGAP_/100)) ) * (1-PAKFMLBLPOLYXN_D)+ PAKFMLBLPOLYXN_X*PAKFMLBLPOLYXN_D  $">
<polygon fill="#63b8ff" stroke="black" points="2240,-1061 2035,-1061 2035,-1025 2240,-1025 2240,-1061"/>
<text text-anchor="start" x="2041.5" y="-1038.8" font-family="Times New Roman,serif" font-size="14.00" fill="blue">PAKFMLBLPOLYXN:Policy Rate</text>
</a>
</g>
</g>
<!-- PAKNYGDPGAP_&#45;&gt;PAKFMLBLPOLYXN -->
<g id="edge12" class="edge">
<title>PAKNYGDPGAP_-&gt;PAKFMLBLPOLYXN</title>
<g id="a_edge12"><a xlink:href="bogus" xlink:title=" PAKNYGDPGAP_ -&gt; PAKFMLBLPOLYXN Min. att. -15%  max: 83%">
<path fill="none" stroke="black" stroke-width="8" d="M1849.05,-491.32C1891.55,-572.89 2063.91,-903.69 2119.28,-1009.96"/>
<polygon fill="black" stroke="black" stroke-width="8" points="2112.94,-1012.93 2123.77,-1018.56 2125.35,-1006.46 2112.94,-1012.93"/>
</a>
</g>
</g>
<!-- PAKSMINDMNGSKN -->
<g id="node10" class="node">
<title>PAKSMINDMNGSKN</title>
<g id="a_node10"><a xlink:title="PAKSMINDMNGSKN
FRML  &lt;&gt; PAKSMINDMNGSKN = ((1+6.96158341862144)*(0.0132800565666619*PAKNECONPRVTKN+0*PAKNECONGOVTKN+0*PAKNEGDIFTOTKN+0.00704674623894759*PAKNEEXPGNFSKN+0.024122890632682*PAKNEGDISTKBKN)-0.134221966110302*PAKNEIMPGNFSKN-0.500981557895139*PAKNYTAXNINDKN-123652.869264758)/(1+0.200800622280983) $">
<polygon fill="#63b8ff" stroke="black" points="1519.5,-853 1373.5,-853 1373.5,-817 1519.5,-817 1519.5,-853"/>
<text text-anchor="start" x="1379.5" y="-830.8" font-family="Times New Roman,serif" font-size="14.00" fill="blue">PAKSMINDMNGSKN:</text>
</a>
</g>
</g>
<!-- PAKNECONENGYGN -->
<g id="node11" class="node">
<title>PAKNECONENGYGN</title>
<g id="a_node11"><a xlink:title="Net consumption deflator
FRML  &lt;&gt; PAKNECONENGYGN = (PAKNVCOLPRODSH**(PAKCESENGYPROD)*(PAKNVCOLPRODGN)**(1-PAKCESENGYPROD)+PAKNVGASPRODSH**(PAKCESENGYPROD)*(PAKNVGASPRODGN)**(1-PAKCESENGYPROD)+PAKNVOILPRODSH**(PAKCESENGYPROD)*(PAKNVOILPRODGN)**(1-PAKCESENGYPROD)+PAKNVRENPRODSH**(PAKCESENGYPROD)*(PAKNVRENPRODXN)**(1-PAKCESENGYPROD))**(1/(1-PAKCESENGYPROD)) $">
<polygon fill="#63b8ff" stroke="black" points="286,-895 0,-895 0,-859 286,-859 286,-895"/>
<text text-anchor="start" x="6" y="-872.8" font-family="Times New Roman,serif" font-size="14.00" fill="blue">PAKNECONENGYGN:Net consumption deflator</text>
</a>
</g>
</g>
<!-- PAKNECONENGYXN -->
<g id="node24" class="node">
<title>PAKNECONENGYXN</title>
<g id="a_node24"><a xlink:title="Energy Consumption
FRML &lt;Z,EXO&gt; PAKNECONENGYXN = (PAKNECONENGYXN(-1)*EXP(-PAKNECONENGYXN_A+ (((LOG(PAKNECONENGYGN))-(LOG(PAKNECONENGYGN(-1))))+0.0550557534575806*DUMH) )) * (1-PAKNECONENGYXN_D)+ PAKNECONENGYXN_X*PAKNECONENGYXN_D  $">
<polygon fill="#63b8ff" stroke="black" points="597.5,-895 335.5,-895 335.5,-859 597.5,-859 597.5,-895"/>
<text text-anchor="start" x="341.5" y="-872.8" font-family="Times New Roman,serif" font-size="14.00" fill="blue">PAKNECONENGYXN:Energy Consumption</text>
</a>
</g>
</g>
<!-- PAKNECONENGYGN&#45;&gt;PAKNECONENGYXN -->
<g id="edge29" class="edge">
<title>PAKNECONENGYGN-&gt;PAKNECONENGYXN</title>
<g id="a_edge29"><a xlink:href="bogus" xlink:title=" PAKNECONENGYGN -&gt; PAKNECONENGYXN Min. att. -39%  max: 100%">
<path fill="none" stroke="black" stroke-width="8" d="M286.42,-877C297.11,-877 307.91,-877 318.63,-877"/>
<polygon fill="black" stroke="black" stroke-width="8" points="318.4,-884 328.4,-877 318.4,-870 318.4,-884"/>
</a>
</g>
</g>
<!-- PAKNECONPRVTKN -->
<g id="node19" class="node">
<title>PAKNECONPRVTKN</title>
<g id="a_node19"><a xlink:title="Household Consumption
FRML &lt;Z,EXO&gt; PAKNECONPRVTKN = (PAKNECONPRVTKN(-1)*EXP(-PAKNECONPRVTKN_A+ (-0.2*(LOG(PAKNECONPRVTKN(-1))-LOG((PAKNYYWBTOTLCN(-1)*(1-PAKGGREVDRCTXN(-1)/100))/PAKNECONPRVTXN(-1)))+1*((LOG((PAKNYYWBTOTLCN*(1-PAKGGREVDRCTXN/100))/PAKNECONPRVTXN))-(LOG((PAKNYYWBTOTLCN(-1)*(1-PAKGGREVDRCTXN(-1)/100))/PAKNECONPRVTXN(-1))))+0.0303228629698929+0.0163839011059956*DURING_2010-0.3*(PAKFMLBLPOLYXN/100-((LOG(PAKNECONPRVTXN))-(LOG(PAKNECONPRVTXN(-1)))))) )) * (1-PAKNECONPRVTKN_D)+ PAKNECONPRVTKN_X*PAKNECONPRVTKN_D  $">
<polygon fill="red" stroke="black" points="1209,-664 931,-664 931,-628 1209,-628 1209,-664"/>
<text text-anchor="start" x="937" y="-641.8" font-family="Times New Roman,serif" font-size="14.00" fill="blue">PAKNECONPRVTKN:Household Consumption</text>
</a>
</g>
</g>
<!-- PAKFMLBLPOLYXN&#45;&gt;PAKNECONPRVTKN -->
<g id="edge16" class="edge">
<title>PAKFMLBLPOLYXN-&gt;PAKNECONPRVTKN</title>
<g id="a_edge16"><a xlink:href="bogus" xlink:title=" PAKFMLBLPOLYXN -&gt; PAKNECONPRVTKN Min. att. -160%  max: 20%">
<path fill="none" stroke="black" stroke-width="8" d="M2034.83,-1046.82C1814.91,-1054.23 1309.57,-1066.34 1245,-1024 1123.91,-944.6 1085.77,-757.82 1074.92,-680.48"/>
<polygon fill="black" stroke="black" stroke-width="8" points="1081.92,-680.04 1073.7,-671.01 1068.04,-681.83 1081.92,-680.04"/>
</a>
</g>
</g>
<!-- PAKNEGDETTOTKN -->
<g id="node13" class="node">
<title>PAKNEGDETTOTKN</title>
<g id="a_node13"><a xlink:title="GDE
FRML  &lt;&gt; PAKNEGDETTOTKN = (PAKNECONPRVTKN+PAKNECONGOVTKN+PAKNEGDIFTOTKN+PAKNEGDISTKBKN+PAKNYGDPDISCKN) $">
<polygon fill="#63b8ff" stroke="black" points="1531.5,-799 1361.5,-799 1361.5,-763 1531.5,-763 1531.5,-799"/>
<text text-anchor="start" x="1367.5" y="-776.8" font-family="Times New Roman,serif" font-size="14.00" fill="blue">PAKNEGDETTOTKN:GDE</text>
</a>
</g>
</g>
<!-- PAKSMINDOTHRTKN -->
<g id="node14" class="node">
<title>PAKSMINDOTHRTKN</title>
<g id="a_node14"><a xlink:title="PAKSMINDOTHRTKN
FRML  &lt;&gt; PAKSMINDOTHRTKN = ((1+0.483473985412524)*(0.40172973397176*PAKNECONPRVTKN+0*PAKNECONGOVTKN+0.560459287907094*PAKNEGDIFTOTKN+0.719299486591763*PAKNEEXPGNFSKN+0.620970563578771*PAKNEGDISTKBKN)-0.606734386430279*PAKNEIMPGNFSKN-0.866045585295928*PAKNYTAXNINDKN-2983275.63714814)/(1+2.46379868577176) $">
<polygon fill="#63b8ff" stroke="black" points="1522,-745 1371,-745 1371,-709 1522,-709 1522,-745"/>
<text text-anchor="start" x="1377.5" y="-722.8" font-family="Times New Roman,serif" font-size="14.00" fill="blue">PAKSMINDOTHRTKN:</text>
</a>
</g>
</g>
<!-- PAKNYWRTINFMCN -->
<g id="node15" class="node">
<title>PAKNYWRTINFMCN</title>
<g id="a_node15"><a xlink:title="Informal wage
FRML &lt;Z,EXO&gt; PAKNYWRTINFMCN = (PAKNYWRTINFMCN(-1)*EXP(-PAKNYWRTINFMCN_A+ (-0.122614247140616-0.3*(LOG(PAKNYWRTINFMCN(-1))-LOG(PAKNYGDPFCSTXN(-1))-LOG(PAKNYGDPPOTLKN(-1)/PAKLMEMPSTRLCN(-1)))+0.2*((LOG(PAKNYWRTINFMCN(-1)))-(LOG(PAKNYWRTINFMCN(-2))))+(1-0.2)*(0.5*((LOG(PAKNYGDPFCSTXN(-1)))-(LOG(PAKNYGDPFCSTXN(-2))))+0.5*(PAKINFLEXPT/100)+((LOG(PAKNYGDPMKTPKN/PAKLMEMPSTRLCN))-(LOG(PAKNYGDPMKTPKN(-1)/PAKLMEMPSTRLCN(-1)))))-0.2*(PAKLMUNRTOTLCN-PAKLMUNRSTRLCN)/100+0.15347529018182*DURING_2000-0.183372342445734*DURING_2001) )) * (1-PAKNYWRTINFMCN_D)+ PAKNYWRTINFMCN_X*PAKNYWRTINFMCN_D  $">
<polygon fill="#63b8ff" stroke="black" points="1559.5,-329 1333.5,-329 1333.5,-293 1559.5,-293 1559.5,-329"/>
<text text-anchor="start" x="1339.5" y="-306.8" font-family="Times New Roman,serif" font-size="14.00" fill="blue">PAKNYWRTINFMCN:Informal wage</text>
</a>
</g>
</g>
<!-- PAKNYWRTINFMCN&#45;&gt;PAKNYWRTTOTLCN -->
<g id="edge25" class="edge">
<title>PAKNYWRTINFMCN-&gt;PAKNYWRTTOTLCN</title>
<g id="a_edge25"><a xlink:href="bogus" xlink:title=" PAKNYWRTINFMCN -&gt; PAKNYWRTTOTLCN Min. att. 79%  max: 80%">
<path fill="none" stroke="black" stroke-width="7.95" d="M1559.78,-313.3C1613.59,-314.41 1677.71,-315.72 1730.78,-316.81"/>
<polygon fill="black" stroke="black" stroke-width="7.95" points="1730.49,-323.77 1740.63,-317.01 1730.78,-309.85 1730.49,-323.77"/>
</a>
</g>
</g>
<!-- PAKNYYWBTOTLCN&#45;&gt;PAKNECONPRVTKN -->
<g id="edge28" class="edge">
<title>PAKNYYWBTOTLCN-&gt;PAKNECONPRVTKN</title>
<g id="a_edge28"><a xlink:href="bogus" xlink:title=" PAKNYYWBTOTLCN -&gt; PAKNECONPRVTKN Min. att. -594%  max: 5821%">
<path fill="none" stroke="black" stroke-width="8" d="M2355.52,-424.48C2271.19,-446.55 2122.66,-482.67 1993,-500 1828.03,-522.05 1403.85,-488.32 1245,-538 1192,-554.58 1138.9,-591.13 1105.56,-617.11"/>
<polygon fill="black" stroke="black" stroke-width="8" points="1101.43,-611.45 1097.98,-623.16 1110.16,-622.39 1101.43,-611.45"/>
</a>
</g>
</g>
<!-- PAKNECONPRVTXN -->
<g id="node17" class="node">
<title>PAKNECONPRVTXN</title>
<g id="a_node17"><a xlink:title="Household demand
FRML  &lt;&gt; PAKNECONPRVTXN = ((PAKNECONENGYSH**PAKCESENGYCON)*PAKNECONENGYXN**(1-PAKCESENGYCON)+(PAKNECONOTHRSH**PAKCESENGYCON)*PAKNECONOTHRXN**(1-PAKCESENGYCON))**(1/(1-PAKCESENGYCON)) $">
<polygon fill="#63b8ff" stroke="black" points="895,-868 647,-868 647,-832 895,-832 895,-868"/>
<text text-anchor="start" x="653" y="-845.8" font-family="Times New Roman,serif" font-size="14.00" fill="blue">PAKNECONPRVTXN:Household demand</text>
</a>
</g>
</g>
<!-- PAKNECONPRVTXN&#45;&gt;PAKFMLBLPOLYXN -->
<g id="edge15" class="edge">
<title>PAKNECONPRVTXN-&gt;PAKFMLBLPOLYXN</title>
<g id="a_edge15"><a xlink:href="bogus" xlink:title=" PAKNECONPRVTXN -&gt; PAKFMLBLPOLYXN Min. att. -94%  max: 1462%">
<path fill="none" stroke="black" stroke-width="8" d="M803.27,-868.43C877.08,-910.77 1069.14,-1014.34 1245,-1053 1569.74,-1124.38 1661.47,-1090.27 1993,-1065 2001.16,-1064.38 2009.57,-1063.56 2018.02,-1062.6"/>
<polygon fill="black" stroke="black" stroke-width="8" points="2018.81,-1069.56 2027.89,-1061.39 2017.11,-1055.66 2018.81,-1069.56"/>
</a>
</g>
</g>
<!-- PAKNECONPRVTXN&#45;&gt;PAKNECONPRVTKN -->
<g id="edge10" class="edge">
<title>PAKNECONPRVTXN-&gt;PAKNECONPRVTKN</title>
<g id="a_edge10"><a xlink:href="bogus" xlink:title=" PAKNECONPRVTXN -&gt; PAKNECONPRVTKN Min. att. -5706%  max: 593%">
<path fill="none" stroke="black" stroke-width="8" d="M798.88,-831.54C851.23,-795.58 967.1,-715.99 1028.69,-673.69"/>
<polygon fill="black" stroke="black" stroke-width="8" points="1032.36,-679.66 1036.64,-668.22 1024.44,-668.12 1032.36,-679.66"/>
</a>
</g>
</g>
<!-- PAKNECONPRVTKN_FITTED -->
<g id="node18" class="node">
<title>PAKNECONPRVTKN_FITTED</title>
<g id="a_node18"><a xlink:title="Fitted  value:Household Consumption
FRML &lt;FIT&gt; PAKNECONPRVTKN_FITTED = PAKNECONPRVTKN(-1)*EXP( (-0.2*(LOG(PAKNECONPRVTKN(-1))-LOG((PAKNYYWBTOTLCN(-1)*(1-PAKGGREVDRCTXN(-1)/100))/PAKNECONPRVTXN(-1)))+1*((LOG((PAKNYYWBTOTLCN*(1-PAKGGREVDRCTXN/100))/PAKNECONPRVTXN))-(LOG((PAKNYYWBTOTLCN(-1)*(1-PAKGGREVDRCTXN(-1)/100))/PAKNECONPRVTXN(-1))))+0.0303228629698929+0.0163839011059956*DURING_2010-0.3*(PAKFMLBLPOLYXN/100-((LOG(PAKNECONPRVTXN))-(LOG(PAKNECONPRVTXN(-1)))))) ) $">
<polygon fill="#63b8ff" stroke="black" points="1648,-691 1245,-691 1245,-655 1648,-655 1648,-691"/>
<text text-anchor="start" x="1251.5" y="-668.8" font-family="Times New Roman,serif" font-size="14.00" fill="blue">PAKNECONPRVTKN_FITTED:Fitted  value:Household Consumption</text>
</a>
</g>
</g>
<!-- PAKNECONPRVTKN&#45;&gt;PAKSMENGTOTLKN -->
<g id="edge19" class="edge">
<title>PAKNECONPRVTKN-&gt;PAKSMENGTOTLKN</title>
<g id="a_edge19"><a xlink:href="bogus" xlink:title=" PAKNECONPRVTKN -&gt; PAKSMENGTOTLKN Min. att. -14%  max: 2186%">
<path fill="none" stroke="black" stroke-width="8" d="M1071.49,-627.83C1074.47,-556.75 1095.56,-295.62 1245,-176 1275.98,-151.2 1318.67,-143.03 1356.7,-141.64"/>
<polygon fill="black" stroke="black" stroke-width="8" points="1356.61,-148.65 1366.53,-141.53 1356.45,-134.65 1356.61,-148.65"/>
</a>
</g>
</g>
<!-- PAKNECONPRVTKN&#45;&gt;PAKSMAGRFSTYKN -->
<g id="edge6" class="edge">
<title>PAKNECONPRVTKN-&gt;PAKSMAGRFSTYKN</title>
<g id="a_edge6"><a xlink:href="bogus" xlink:title=" PAKNECONPRVTKN -&gt; PAKSMAGRFSTYKN Min. att. 96%  max: 371%">
<path fill="none" stroke="black" stroke-width="8" d="M1073.85,-627.51C1088.13,-537.35 1154.8,-144.93 1245,-68 1275.61,-41.89 1318.97,-33.74 1357.54,-32.71"/>
<polygon fill="black" stroke="black" stroke-width="8" points="1357.33,-39.71 1367.32,-32.69 1357.31,-25.71 1357.33,-39.71"/>
</a>
</g>
</g>
<!-- PAKNECONPRVTKN&#45;&gt;PAKSMAGRFSNGKN -->
<g id="edge14" class="edge">
<title>PAKNECONPRVTKN-&gt;PAKSMAGRFSNGKN</title>
<g id="a_edge14"><a xlink:href="bogus" xlink:title=" PAKNECONPRVTKN -&gt; PAKSMAGRFSNGKN Min. att. -29%  max: 170%">
<path fill="none" stroke="black" stroke-width="8" d="M1074.7,-664.19C1087.21,-720.49 1133.48,-892.73 1245,-970 1277.3,-992.38 1319.65,-1000.35 1357.11,-1002.24"/>
<polygon fill="black" stroke="black" stroke-width="8" points="1356.76,-1009.23 1366.95,-1002.52 1357.15,-995.24 1356.76,-1009.23"/>
</a>
</g>
</g>
<!-- PAKNECONPRVTKN&#45;&gt;PAKSMSRVTRNSKN -->
<g id="edge26" class="edge">
<title>PAKNECONPRVTKN-&gt;PAKSMSRVTRNSKN</title>
<g id="a_edge26"><a xlink:href="bogus" xlink:title=" PAKNECONPRVTKN -&gt; PAKSMSRVTRNSKN Min. att. 87%  max: 592%">
<path fill="none" stroke="black" stroke-width="8" d="M1076.73,-664.36C1093.42,-714.43 1147.1,-853.79 1245,-916 1278.29,-937.16 1320.96,-944.95 1358.37,-947.03"/>
<polygon fill="black" stroke="black" stroke-width="8" points="1357.93,-954.01 1368.16,-947.37 1358.41,-940.02 1357.93,-954.01"/>
</a>
</g>
</g>
<!-- PAKNECONPRVTKN&#45;&gt;PAKNECONPRVTCN -->
<g id="edge24" class="edge">
<title>PAKNECONPRVTKN-&gt;PAKNECONPRVTCN</title>
<g id="a_edge24"><a xlink:href="bogus" xlink:title=" PAKNECONPRVTKN -&gt; PAKNECONPRVTCN Min. att. -720%  max: 6450%">
<path fill="none" stroke="black" stroke-width="8" d="M1079.65,-664.4C1100.92,-707.36 1160.26,-814.24 1245,-862 1263.56,-872.46 1284.58,-879.48 1305.86,-884.1"/>
<polygon fill="black" stroke="black" stroke-width="8" points="1304.56,-890.98 1315.68,-885.96 1307.15,-877.22 1304.56,-890.98"/>
</a>
</g>
</g>
<!-- PAKNECONPRVTKN&#45;&gt;PAKSMINDMNGSKN -->
<g id="edge9" class="edge">
<title>PAKNECONPRVTKN-&gt;PAKSMINDMNGSKN</title>
<g id="a_edge9"><a xlink:href="bogus" xlink:title=" PAKNECONPRVTKN -&gt; PAKSMINDMNGSKN Min. att. -1229%  max: 1716%">
<path fill="none" stroke="black" stroke-width="8" d="M1084.34,-664.42C1110.66,-699.16 1172.99,-773.94 1245,-808 1279.4,-824.27 1320.59,-831.6 1356.67,-834.65"/>
<polygon fill="black" stroke="black" stroke-width="8" points="1355.96,-841.62 1366.42,-835.32 1356.92,-827.65 1355.96,-841.62"/>
</a>
</g>
</g>
<!-- PAKNECONPRVTKN&#45;&gt;PAKNEGDETTOTKN -->
<g id="edge7" class="edge">
<title>PAKNECONPRVTKN-&gt;PAKNEGDETTOTKN</title>
<g id="a_edge7"><a xlink:href="bogus" xlink:title=" PAKNECONPRVTKN -&gt; PAKNEGDETTOTKN Min. att. -2284%  max: 2484%">
<path fill="none" stroke="black" stroke-width="8" d="M1093.56,-664.43C1125.26,-689.25 1185.77,-732.74 1245,-754 1276.39,-765.27 1312.07,-771.89 1344.55,-775.77"/>
<polygon fill="black" stroke="black" stroke-width="8" points="1343.58,-782.7 1354.27,-776.81 1345.07,-768.78 1343.58,-782.7"/>
</a>
</g>
</g>
<!-- PAKNECONPRVTKN&#45;&gt;PAKSMINDOTHRTKN -->
<g id="edge13" class="edge">
<title>PAKNECONPRVTKN-&gt;PAKSMINDOTHRTKN</title>
<g id="a_edge13"><a xlink:href="bogus" xlink:title=" PAKNECONPRVTKN -&gt; PAKSMINDOTHRTKN Min. att. -11779%  max: 971%">
<path fill="none" stroke="black" stroke-width="8" d="M1122.55,-664.49C1156.86,-676.17 1203.15,-690.76 1245,-700 1280.37,-707.81 1319.78,-713.71 1354.23,-717.97"/>
<polygon fill="black" stroke="black" stroke-width="8" points="1353.03,-724.88 1363.78,-719.11 1354.68,-710.98 1353.03,-724.88"/>
</a>
</g>
</g>
<!-- PAKNECONPRVTKN&#45;&gt;PAKNECONPRVTKN_FITTED -->
<g id="edge11" class="edge">
<title>PAKNECONPRVTKN-&gt;PAKNECONPRVTKN_FITTED</title>
<g id="a_edge11"><a xlink:href="bogus" xlink:title=" PAKNECONPRVTKN -&gt; PAKNECONPRVTKN_FITTED Min. att. -786%  max: 175%">
<path fill="none" stroke="black" stroke-width="8" d="M1209.39,-655.98C1215.53,-656.42 1221.75,-656.87 1228.01,-657.32"/>
<polygon fill="black" stroke="black" stroke-width="8" points="1227.25,-664.28 1237.73,-658.02 1228.26,-650.32 1227.25,-664.28"/>
</a>
</g>
</g>
<!-- PAKNECONENGYKN -->
<g id="node21" class="node">
<title>PAKNECONENGYKN</title>
<g id="a_node21"><a xlink:title="Energy Consumption
FRML  &lt;&gt; PAKNECONENGYKN = PAKNECONENGYSH**(PAKCESENGYCON)*(PAKNECONPRVTKN*(PAKNECONPRVTXN/PAKNECONENGYXN)**(PAKCESENGYCON)) $">
<polygon fill="#63b8ff" stroke="black" points="1577.5,-637 1315.5,-637 1315.5,-601 1577.5,-601 1577.5,-637"/>
<text text-anchor="start" x="1321.5" y="-614.8" font-family="Times New Roman,serif" font-size="14.00" fill="blue">PAKNECONENGYKN:Energy Consumption</text>
</a>
</g>
</g>
<!-- PAKNECONPRVTKN&#45;&gt;PAKNECONENGYKN -->
<g id="edge22" class="edge">
<title>PAKNECONPRVTKN-&gt;PAKNECONENGYKN</title>
<g id="a_edge22"><a xlink:href="bogus" xlink:title=" PAKNECONPRVTKN -&gt; PAKNECONENGYKN Min. att. -699%  max: 3890%">
<path fill="none" stroke="black" stroke-width="8" d="M1209.39,-636.02C1238.43,-633.93 1269.17,-631.71 1298.52,-629.6"/>
<polygon fill="black" stroke="black" stroke-width="8" points="1298.71,-636.6 1308.18,-628.9 1297.7,-622.64 1298.71,-636.6"/>
</a>
</g>
</g>
<!-- PAKSMAGRCRPSKN -->
<g id="node22" class="node">
<title>PAKSMAGRCRPSKN</title>
<g id="a_node22"><a xlink:title="PAKSMAGRCRPSKN
FRML  &lt;&gt; PAKSMAGRCRPSKN = ((1+2.09928590574241)*(0.144287620838506*PAKNECONPRVTKN+0*PAKNECONGOVTKN+0*PAKNEGDIFTOTKN+0.0572678299039023*PAKNEEXPGNFSKN+0.267381669083985*PAKNEGDISTKBKN)-0.0736247088197363*PAKNEIMPGNFSKN-0.0407034395686347*PAKNYTAXNINDKN-906311)/(1+0.396041694659877) $">
<polygon fill="#63b8ff" stroke="black" points="1518.5,-583 1374.5,-583 1374.5,-547 1518.5,-547 1518.5,-583"/>
<text text-anchor="start" x="1380.5" y="-560.8" font-family="Times New Roman,serif" font-size="14.00" fill="blue">PAKSMAGRCRPSKN:</text>
</a>
</g>
</g>
<!-- PAKNECONPRVTKN&#45;&gt;PAKSMAGRCRPSKN -->
<g id="edge4" class="edge">
<title>PAKNECONPRVTKN-&gt;PAKSMAGRCRPSKN</title>
<g id="a_edge4"><a xlink:href="bogus" xlink:title=" PAKNECONPRVTKN -&gt; PAKSMAGRCRPSKN Min. att. -25%  max: 208%">
<path fill="none" stroke="black" stroke-width="8" d="M1122.55,-627.51C1156.86,-615.83 1203.15,-601.24 1245,-592 1281.4,-583.96 1322.08,-577.95 1357.23,-573.66"/>
<polygon fill="black" stroke="black" stroke-width="8" points="1357.96,-580.62 1367.08,-572.51 1356.33,-566.72 1357.96,-580.62"/>
</a>
</g>
</g>
<!-- PAKSMSRVHSNGKN -->
<g id="node23" class="node">
<title>PAKSMSRVHSNGKN</title>
<g id="a_node23"><a xlink:title="PAKSMSRVHSNGKN
FRML  &lt;&gt; PAKSMSRVHSNGKN = ((1+0.782809577554843)*(0.0647364660896117*PAKNECONPRVTKN+0*PAKNECONGOVTKN+0.00605333595533851*PAKNEGDIFTOTKN+0.03048358523237*PAKNEEXPGNFSKN+0*PAKNEGDISTKBKN)-0.0244768173208691*PAKNEIMPGNFSKN-0.0684093628903126*PAKNYTAXNINDKN-0)/(1+0.150771193398883) $">
<polygon fill="#63b8ff" stroke="black" points="1519,-383 1374,-383 1374,-347 1519,-347 1519,-383"/>
<text text-anchor="start" x="1380.5" y="-360.8" font-family="Times New Roman,serif" font-size="14.00" fill="blue">PAKSMSRVHSNGKN:</text>
</a>
</g>
</g>
<!-- PAKNECONPRVTKN&#45;&gt;PAKSMSRVHSNGKN -->
<g id="edge2" class="edge">
<title>PAKNECONPRVTKN-&gt;PAKSMSRVHSNGKN</title>
<g id="a_edge2"><a xlink:href="bogus" xlink:title=" PAKNECONPRVTKN -&gt; PAKSMSRVHSNGKN Min. att. 34%  max: 147%">
<path fill="none" stroke="black" stroke-width="8" d="M1077.46,-627.68C1095.44,-579.65 1151.02,-449.88 1245,-392 1278.12,-371.6 1320.11,-363.8 1357.09,-361.51"/>
<polygon fill="black" stroke="black" stroke-width="8" points="1357.29,-368.51 1366.99,-361.1 1356.71,-354.52 1357.29,-368.51"/>
</a>
</g>
</g>
<!-- PAKNYGDPMKTPKN -->
<g id="node25" class="node">
<title>PAKNYGDPMKTPKN</title>
<g id="a_node25"><a xlink:title="GDP Expenditure side at market prices
FRML  &lt;&gt; PAKNYGDPMKTPKN = PAKNECONPRVTKN+PAKNECONGOVTKN+PAKNEGDIFTOTKN+PAKNEGDISTKBKN+PAKNEEXPGNFSKN-PAKNEIMPGNFSKN+PAKNYGDPDISCKN+PAKADAP*PAKDISPREPKN $">
<polygon fill="#63b8ff" stroke="black" points="1627,-491 1266,-491 1266,-455 1627,-455 1627,-491"/>
<text text-anchor="start" x="1272.5" y="-468.8" font-family="Times New Roman,serif" font-size="14.00" fill="blue">PAKNYGDPMKTPKN:GDP Expenditure side at market prices</text>
</a>
</g>
</g>
<!-- PAKNECONPRVTKN&#45;&gt;PAKNYGDPMKTPKN -->
<g id="edge17" class="edge">
<title>PAKNECONPRVTKN-&gt;PAKNYGDPMKTPKN</title>
<g id="a_edge17"><a xlink:href="bogus" xlink:title=" PAKNECONPRVTKN -&gt; PAKNYGDPMKTPKN Min. att. -1557%  max: 290%">
<path fill="none" stroke="black" stroke-width="8" d="M1087.18,-627.74C1115.7,-596.86 1178.25,-534.78 1245,-505 1252.03,-501.87 1259.31,-499.03 1266.76,-496.47"/>
<polygon fill="black" stroke="black" stroke-width="8" points="1268.67,-503.21 1276.11,-493.54 1264.47,-489.85 1268.67,-503.21"/>
</a>
</g>
</g>
<!-- PAKSMSRVFINSKN -->
<g id="node26" class="node">
<title>PAKSMSRVFINSKN</title>
<g id="a_node26"><a xlink:title="PAKSMSRVFINSKN
FRML  &lt;&gt; PAKSMSRVFINSKN = ((1+1.04148314760779)*(0.0520379651885469*PAKNECONPRVTKN+0*PAKNECONGOVTKN+0*PAKNEGDIFTOTKN+0.00879145012359898*PAKNEEXPGNFSKN+0*PAKNEGDISTKBKN)-0.00594416979264236*PAKNEIMPGNFSKN-0.000103762679145856*PAKNYTAXNINDKN-0)/(1+0.24687745523084) $">
<polygon fill="#63b8ff" stroke="black" points="1515,-221 1378,-221 1378,-185 1515,-185 1515,-221"/>
<text text-anchor="start" x="1384.5" y="-198.8" font-family="Times New Roman,serif" font-size="14.00" fill="blue">PAKSMSRVFINSKN:</text>
</a>
</g>
</g>
<!-- PAKNECONPRVTKN&#45;&gt;PAKSMSRVFINSKN -->
<g id="edge23" class="edge">
<title>PAKNECONPRVTKN-&gt;PAKSMSRVFINSKN</title>
<g id="a_edge23"><a xlink:href="bogus" xlink:title=" PAKNECONPRVTKN -&gt; PAKSMSRVFINSKN Min. att. -104%  max: 125%">
<path fill="none" stroke="black" stroke-width="8" d="M1072.46,-627.63C1078.76,-561.45 1109.89,-333.62 1245,-230 1277.53,-205.05 1322.08,-197.24 1360.93,-196.13"/>
<polygon fill="black" stroke="black" stroke-width="8" points="1360.8,-203.13 1370.76,-196.07 1360.73,-189.13 1360.8,-203.13"/>
</a>
</g>
</g>
<!-- PAKNECONOTHRKN -->
<g id="node29" class="node">
<title>PAKNECONOTHRKN</title>
<g id="a_node29"><a xlink:title="Other Consumption
FRML  &lt;&gt; PAKNECONOTHRKN = PAKNECONOTHRSH**(PAKCESENGYCON)*(PAKNECONPRVTKN*(PAKNECONPRVTXN/PAKNECONOTHRXN)**(PAKCESENGYCON)) $">
<polygon fill="#63b8ff" stroke="black" points="1573,-113 1320,-113 1320,-77 1573,-77 1573,-113"/>
<text text-anchor="start" x="1326.5" y="-90.8" font-family="Times New Roman,serif" font-size="14.00" fill="blue">PAKNECONOTHRKN:Other Consumption</text>
</a>
</g>
</g>
<!-- PAKNECONPRVTKN&#45;&gt;PAKNECONOTHRKN -->
<g id="edge34" class="edge">
<title>PAKNECONPRVTKN-&gt;PAKNECONOTHRKN</title>
<g id="a_edge34"><a xlink:href="bogus" xlink:title=" PAKNECONPRVTKN -&gt; PAKNECONOTHRKN Min. att. -12063%  max: 323%">
<path fill="none" stroke="black" stroke-width="8" d="M1070.72,-627.66C1070.65,-551.46 1081.34,-257.64 1245,-122 1261.7,-108.16 1282.01,-99.42 1303.22,-94.14"/>
<polygon fill="black" stroke="black" stroke-width="8" points="1304.37,-101.05 1312.74,-92.16 1301.53,-87.34 1304.37,-101.05"/>
</a>
</g>
</g>
<!-- PAKNYWRTFORMCN -->
<g id="node20" class="node">
<title>PAKNYWRTFORMCN</title>
<g id="a_node20"><a xlink:title="Formal wage
FRML &lt;Z,EXO&gt; PAKNYWRTFORMCN = (PAKNYWRTFORMCN(-1)*EXP(-PAKNYWRTFORMCN_A+ (-0.120164450250183-0.3*(LOG(PAKNYWRTFORMCN(-1))-LOG(PAKNYGDPFCSTXN(-1))-LOG(PAKNYGDPPOTLKN(-1)/PAKLMEMPSTRLCN(-1)))+0.2*((LOG(PAKNYWRTFORMCN(-1)))-(LOG(PAKNYWRTFORMCN(-2))))+(1-0.2)*(0.5*((LOG(PAKNYGDPFCSTXN(-1)))-(LOG(PAKNYGDPFCSTXN(-2))))+0.5*(PAKINFLEXPT/100)+((LOG(PAKNYGDPMKTPKN/PAKLMEMPSTRLCN))-(LOG(PAKNYGDPMKTPKN(-1)/PAKLMEMPSTRLCN(-1)))))-0.2*(PAKLMUNRTOTLCN-PAKLMUNRSTRLCN)/100+0.15233813938029*DURING_2000-0.183411483907703*DURING_2001) )) * (1-PAKNYWRTFORMCN_D)+ PAKNYWRTFORMCN_X*PAKNYWRTFORMCN_D  $">
<polygon fill="#63b8ff" stroke="black" points="1557.5,-275 1335.5,-275 1335.5,-239 1557.5,-239 1557.5,-275"/>
<text text-anchor="start" x="1341.5" y="-252.8" font-family="Times New Roman,serif" font-size="14.00" fill="blue">PAKNYWRTFORMCN:Formal wage</text>
</a>
</g>
</g>
<!-- PAKNYWRTFORMCN&#45;&gt;PAKNYWRTTOTLCN -->
<g id="edge20" class="edge">
<title>PAKNYWRTFORMCN-&gt;PAKNYWRTTOTLCN</title>
<g id="a_edge20"><a xlink:href="bogus" xlink:title=" PAKNYWRTFORMCN -&gt; PAKNYWRTTOTLCN Min. att. 21%  max: 21%">
<path fill="none" stroke="black" stroke-width="2.13" d="M1557.95,-270.89C1587.26,-274.85 1618.87,-279.35 1648,-284 1676.22,-288.5 1706.71,-293.9 1734.8,-299.09"/>
<polygon fill="black" stroke="black" stroke-width="2.13" points="1733.89,-302.48 1744.36,-300.87 1735.17,-295.6 1733.89,-302.48"/>
</a>
</g>
</g>
<!-- PAKNECONENGYXN&#45;&gt;PAKNECONPRVTXN -->
<g id="edge1" class="edge">
<title>PAKNECONENGYXN-&gt;PAKNECONPRVTXN</title>
<g id="a_edge1"><a xlink:href="bogus" xlink:title=" PAKNECONENGYXN -&gt; PAKNECONPRVTXN Min. att. 1%  max: 29%">
<path fill="none" stroke="black" stroke-width="2.91" d="M597.98,-865.35C609.46,-864.33 621.11,-863.29 632.64,-862.26"/>
<polygon fill="black" stroke="black" stroke-width="2.91" points="632.61,-865.78 642.26,-861.4 631.99,-858.8 632.61,-865.78"/>
</a>
</g>
</g>
<!-- PAKNYGDPMKTPKN&#45;&gt;PAKNYGDPGAP_ -->
<g id="edge33" class="edge">
<title>PAKNYGDPMKTPKN-&gt;PAKNYGDPGAP_</title>
<g id="a_edge33"><a xlink:href="bogus" xlink:title=" PAKNYGDPMKTPKN -&gt; PAKNYGDPGAP_ Min. att. -78553%  max: 128142%">
<path fill="none" stroke="black" stroke-width="8" d="M1627.37,-473C1640.58,-473 1653.87,-473 1667.02,-473"/>
<polygon fill="black" stroke="black" stroke-width="8" points="1666.59,-480 1676.59,-473 1666.59,-466 1666.59,-480"/>
</a>
</g>
</g>
<!-- PAKNYGDPPOTLKN -->
<g id="node27" class="node">
<title>PAKNYGDPPOTLKN</title>
<g id="a_node27"><a xlink:title="Potential GDP
FRML  &lt;&gt; PAKNYGDPPOTLKN = PAKNYGDPTFP*(PAKLMEMPSTRLCN**PAKNYYWBTOTLCN_)*(PAKNEGDIKSTKKN(-1)**(1-PAKNYYWBTOTLCN_)) $">
<polygon fill="#63b8ff" stroke="black" points="1557,-437 1336,-437 1336,-401 1557,-401 1557,-437"/>
<text text-anchor="start" x="1342.5" y="-414.8" font-family="Times New Roman,serif" font-size="14.00" fill="blue">PAKNYGDPPOTLKN:Potential GDP</text>
</a>
</g>
</g>
<!-- PAKNYGDPPOTLKN&#45;&gt;PAKLMEMPTOTLCN -->
<g id="edge32" class="edge">
<title>PAKNYGDPPOTLKN-&gt;PAKLMEMPTOTLCN</title>
<g id="a_edge32"><a xlink:href="bogus" xlink:title=" PAKNYGDPPOTLKN -&gt; PAKLMEMPTOTLCN Min. att. -92%  max: 605%">
<path fill="none" stroke="black" stroke-width="8" d="M1557.37,-403.83C1597.18,-399.03 1642.53,-394.36 1684,-392 1821.11,-384.2 1855.83,-385.32 1993,-392 1999.27,-392.3 2005.68,-392.68 2012.16,-393.12"/>
<polygon fill="black" stroke="black" stroke-width="8" points="2011.4,-400.08 2021.89,-393.84 2012.43,-386.12 2011.4,-400.08"/>
</a>
</g>
</g>
<!-- PAKNYGDPPOTLKN&#45;&gt;PAKNYGDPGAP_ -->
<g id="edge21" class="edge">
<title>PAKNYGDPPOTLKN-&gt;PAKNYGDPGAP_</title>
<g id="a_edge21"><a xlink:href="bogus" xlink:title=" PAKNYGDPPOTLKN -&gt; PAKNYGDPGAP_ Min. att. -129220%  max: 79383%">
<path fill="none" stroke="black" stroke-width="8" d="M1557.31,-433.63C1586.77,-437.6 1618.6,-441.93 1648,-446 1662.29,-447.98 1677.18,-450.07 1692.06,-452.16"/>
<polygon fill="black" stroke="black" stroke-width="8" points="1691.04,-459.09 1701.92,-453.55 1693,-445.22 1691.04,-459.09"/>
</a>
</g>
</g>
<!-- PAKNYGDPFCSTXN -->
<g id="node28" class="node">
<title>PAKNYGDPFCSTXN</title>
<g id="a_node28"><a xlink:title="GDP at factor cost
FRML &lt;Z,EXO&gt; PAKNYGDPFCSTXN = (PAKNYGDPFCSTXN(-1)*EXP(-PAKNYGDPFCSTXN_A+ (0.6*((LOG(PAKNYGDPFCSTXN(-1)))-(LOG(PAKNYGDPFCSTXN(-2))))+(1-0.6)*(0.7*PAKINFLEXPT/100+(1-0.7)*((LOG(PAKPSTAR(-1)))-(LOG(PAKPSTAR(-2)))))+0.25*PAKNYGDPGAP_/100+0.262461811660072*DURING_2000-0.205776950553378*DURING_2001) )) * (1-PAKNYGDPFCSTXN_D)+ PAKNYGDPFCSTXN_X*PAKNYGDPFCSTXN_D  $">
<polygon fill="#63b8ff" stroke="black" points="1959.5,-437 1717.5,-437 1717.5,-401 1959.5,-401 1959.5,-437"/>
<text text-anchor="start" x="1723.5" y="-414.8" font-family="Times New Roman,serif" font-size="14.00" fill="blue">PAKNYGDPFCSTXN:GDP at factor cost</text>
</a>
</g>
</g>
<!-- PAKNYGDPFCSTXN&#45;&gt;PAKLMEMPTOTLCN -->
<g id="edge3" class="edge">
<title>PAKNYGDPFCSTXN-&gt;PAKLMEMPTOTLCN</title>
<g id="a_edge3"><a xlink:href="bogus" xlink:title=" PAKNYGDPFCSTXN -&gt; PAKLMEMPTOTLCN Min. att. -128%  max: 59%">
<path fill="none" stroke="black" stroke-width="8" d="M1959.87,-413.73C1977.09,-412.98 1994.82,-412.2 2012.11,-411.44"/>
<polygon fill="black" stroke="black" stroke-width="8" points="2012.21,-418.45 2021.9,-411.02 2011.6,-404.46 2012.21,-418.45"/>
</a>
</g>
</g>
<!-- PAKNECONOTHRXN&#45;&gt;PAKNECONPRVTXN -->
<g id="edge5" class="edge">
<title>PAKNECONOTHRXN-&gt;PAKNECONPRVTXN</title>
<g id="a_edge5"><a xlink:href="bogus" xlink:title=" PAKNECONOTHRXN -&gt; PAKNECONPRVTXN Min. att. 71%  max: 99%">
<path fill="none" stroke="black" stroke-width="8" d="M611.22,-835.83C617.44,-836.38 623.68,-836.94 629.9,-837.5"/>
<polygon fill="black" stroke="black" stroke-width="8" points="629.25,-844.47 639.84,-838.38 630.5,-830.52 629.25,-844.47"/>
</a>
</g>
</g>
</g>
</svg>