<svg xmlns="http://www.w3.org/2000/svg" xmlns:xlink="http://www.w3.org/1999/xlink" width="432pt" height="263pt" viewBox="0.00 0.00 432.00 263.24">
<g id="graph0" class="graph" transform="scale(0.342314 0.342314) rotate(0) translate(4 765)">
<title>TD</title>
<polygon fill="white" stroke="none" points="-4,4 -4,-765 1258,-765 1258,4 -4,4"/>
<text text-anchor="middle" x="627" y="-7.8" font-family="Times New Roman,serif" font-size="14.00">PAKNYGDPMKTPKN</text>
<!-- PAKNEADPKMAXKN -->
<g id="node1" class="node">
<title>PAKNEADPKMAXKN</title>
<g id="a_node1"><a xlink:title="PAKNEADPKMAXKN
FRML &lt;Z,EXO&gt; PAKNEADPKMAXKN = (0*DUMH+((1+0.01)/(0.01+PAKDEPR))*(PAKAVDAMAGE/100)*PAKNYGDPMKTPKN + PAKNEADPKMAXKN_A)* (1-PAKNEADPKMAXKN_D)+ PAKNEADPKMAXKN_X*PAKNEADPKMAXKN_D  $">
<polygon fill="#63b8ff" stroke="black" points="1125,-761 976,-761 976,-725 1125,-725 1125,-761"/>
<text text-anchor="start" x="982.5" y="-738.8" font-family="Times New Roman,serif" font-size="14.00" fill="blue">PAKNEADPKMAXKN:</text>
</a>
</g>
</g>
<!-- PAKNYWRTFORMCN -->
<g id="node2" class="node">
<title>PAKNYWRTFORMCN</title>
<g id="a_node2"><a xlink:title="Formal wage
FRML &lt;Z,EXO&gt; PAKNYWRTFORMCN = (PAKNYWRTFORMCN(-1)*EXP(-PAKNYWRTFORMCN_A+ (-0.120164450250183-0.3*(LOG(PAKNYWRTFORMCN(-1))-LOG(PAKNYGDPFCSTXN(-1))-LOG(PAKNYGDPPOTLKN(-1)/PAKLMEMPSTRLCN(-1)))+0.2*((LOG(PAKNYWRTFORMCN(-1)))-(LOG(PAKNYWRTFORMCN(-2))))+(1-0.2)*(0.5*((LOG(PAKNYGDPFCSTXN(-1)))-(LOG(PAKNYGDPFCSTXN(-2))))+0.5*(PAKINFLEXPT/100)+((LOG(PAKNYGDPMKTPKN/PAKLMEMPSTRLCN))-(LOG(PAKNYGDPMKTPKN(-1)/PAKLMEMPSTRLCN(-1)))))-0.2*(PAKLMUNRTOTLCN-PAKLMUNRSTRLCN)/100+0.15233813938029*DURING_2000-0.183411483907703*DURING_2001) )) * (1-PAKNYWRTFORMCN_D)+ PAKNYWRTFORMCN_X*PAKNYWRTFORMCN_D  $">
<polygon fill="#63b8ff" stroke="black" points="1161.5,-707 939.5,-707 939.5,-671 1161.5,-671 1161.5,-707"/>
<text text-anchor="start" x="945.5" y="-684.8" font-family="Times New Roman,serif" font-size="14.00" fill="blue">PAKNYWRTFORMCN:Formal wage</text>
</a>
</g>
</g>
<!-- PAKHURDAMKN -->
<g id="node3" class="node">
<title>PAKHURDAMKN</title>
<g id="a_node3"><a xlink:title="Hurricane damage, constant prices
FRML  &lt;&gt; PAKHURDAMKN = (PAKNEHURAVERKN_/100)*PAKNYGDPMKTPKN(-1)*(1-PAKNEHURPTVTKN) $">
<polygon fill="#63b8ff" stroke="black" points="1206.5,-653 894.5,-653 894.5,-617 1206.5,-617 1206.5,-653"/>
<text text-anchor="start" x="900.5" y="-630.8" font-family="Times New Roman,serif" font-size="14.00" fill="blue">PAKHURDAMKN:Hurricane damage, constant prices</text>
</a>
</g>
</g>
<!-- PAKNYGDPMKTPKN -->
<g id="node4" class="node">
<title>PAKNYGDPMKTPKN</title>
<g id="a_node4"><a xlink:title="GDP Expenditure side at market prices
FRML  &lt;&gt; PAKNYGDPMKTPKN = PAKNECONPRVTKN+PAKNECONGOVTKN+PAKNEGDIFTOTKN+PAKNEGDISTKBKN+PAKNEEXPGNFSKN-PAKNEIMPGNFSKN+PAKNYGDPDISCKN+PAKADAP*PAKDISPREPKN $">
<polygon fill="red" stroke="black" points="811,-410 450,-410 450,-374 811,-374 811,-410"/>
<text text-anchor="start" x="456.5" y="-387.8" font-family="Times New Roman,serif" font-size="14.00" fill="blue">PAKNYGDPMKTPKN:GDP Expenditure side at market prices</text>
</a>
</g>
</g>
<!-- PAKNYGDPMKTPKN&#45;&gt;PAKNEADPKMAXKN -->
<g id="edge12" class="edge">
<title>PAKNYGDPMKTPKN-&gt;PAKNEADPKMAXKN</title>
<g id="a_edge12"><a xlink:href="bogus" xlink:title=" PAKNYGDPMKTPKN -&gt; PAKNEADPKMAXKN Min. att. 100%  max: 100%">
<path fill="none" stroke="black" stroke-width="8" d="M637.5,-410.3C657.13,-466.91 725.23,-639.96 847,-716 879.93,-736.56 921.71,-744.48 958.77,-746.8"/>
<polygon fill="black" stroke="black" stroke-width="8" points="958.43,-753.79 968.72,-747.22 959.02,-739.8 958.43,-753.79"/>
</a>
</g>
</g>
<!-- PAKNYGDPMKTPKN&#45;&gt;PAKNYWRTFORMCN -->
<g id="edge9" class="edge">
<title>PAKNYGDPMKTPKN-&gt;PAKNYWRTFORMCN</title>
<g id="a_edge9"><a xlink:href="bogus" xlink:title=" PAKNYGDPMKTPKN -&gt; PAKNYWRTFORMCN Min. att. -3148%  max: 101%">
<path fill="none" stroke="black" stroke-width="8" d="M639.94,-410.44C664.02,-460.72 738.42,-600.57 847,-662 869.77,-674.88 896.23,-682.58 922.37,-687.02"/>
<polygon fill="black" stroke="black" stroke-width="8" points="921.2,-693.92 932.1,-688.43 923.21,-680.07 921.2,-693.92"/>
</a>
</g>
</g>
<!-- PAKNYGDPMKTPKN&#45;&gt;PAKHURDAMKN -->
<g id="edge15" class="edge">
<title>PAKNYGDPMKTPKN-&gt;PAKHURDAMKN</title>
<g id="a_edge15"><a xlink:href="bogus" xlink:title=" PAKNYGDPMKTPKN -&gt; PAKHURDAMKN Min. att. 0%  max: 0%">
<path fill="none" stroke="black" d="M643.42,-410.44C672.37,-453.49 751.1,-560.54 847,-608 858.37,-613.63 870.52,-618.21 883,-621.93"/>
<polygon fill="black" stroke="black" points="882.02,-625.29 892.59,-624.58 883.88,-618.54 882.02,-625.29"/>
</a>
</g>
</g>
<!-- PAKFMLBLMTWOKN -->
<g id="node5" class="node">
<title>PAKFMLBLMTWOKN</title>
<g id="a_node5"><a xlink:title="Real money supply
FRML &lt;Z,EXO&gt; PAKFMLBLMTWOKN = (PAKFMLBLMTWOKN(-1)*EXP(-PAKFMLBLMTWOKN_A+ (-0.2*(LOG(PAKFMLBLMTWOKN(-1))-LOG(PAKNYGDPMKTPKN(-1))+0.1*PAKFMLBLPOLYXN(-1)/100-LOG(PAKVELOCITY(-1)))-0.32628131688075+0.7*((LOG(PAKNYGDPMKTPKN))-(LOG(PAKNYGDPMKTPKN(-1))))-1*((PAKFMLBLPOLYXN/100)-(PAKFMLBLPOLYXN(-1)/100))-((LOG(PAKVELOCITY))-(LOG(PAKVELOCITY(-1))))) )) * (1-PAKFMLBLMTWOKN_D)+ PAKFMLBLMTWOKN_X*PAKFMLBLMTWOKN_D  $">
<polygon fill="#63b8ff" stroke="black" points="1179.5,-599 921.5,-599 921.5,-563 1179.5,-563 1179.5,-599"/>
<text text-anchor="start" x="927.5" y="-576.8" font-family="Times New Roman,serif" font-size="14.00" fill="blue">PAKFMLBLMTWOKN:Real money supply</text>
</a>
</g>
</g>
<!-- PAKNYGDPMKTPKN&#45;&gt;PAKFMLBLMTWOKN -->
<g id="edge14" class="edge">
<title>PAKNYGDPMKTPKN-&gt;PAKFMLBLMTWOKN</title>
<g id="a_edge14"><a xlink:href="bogus" xlink:title=" PAKNYGDPMKTPKN -&gt; PAKFMLBLMTWOKN Min. att. -360%  max: 149%">
<path fill="none" stroke="black" stroke-width="8" d="M649.04,-410.39C683.37,-445.08 763.4,-519.77 847,-554 865.08,-561.4 884.75,-566.87 904.5,-570.89"/>
<polygon fill="black" stroke="black" stroke-width="8" points="903.1,-577.75 914.2,-572.68 905.64,-563.98 903.1,-577.75"/>
</a>
</g>
</g>
<!-- PAKNYWRTINFMCN -->
<g id="node6" class="node">
<title>PAKNYWRTINFMCN</title>
<g id="a_node6"><a xlink:title="Informal wage
FRML &lt;Z,EXO&gt; PAKNYWRTINFMCN = (PAKNYWRTINFMCN(-1)*EXP(-PAKNYWRTINFMCN_A+ (-0.122614247140616-0.3*(LOG(PAKNYWRTINFMCN(-1))-LOG(PAKNYGDPFCSTXN(-1))-LOG(PAKNYGDPPOTLKN(-1)/PAKLMEMPSTRLCN(-1)))+0.2*((LOG(PAKNYWRTINFMCN(-1)))-(LOG(PAKNYWRTINFMCN(-2))))+(1-0.2)*(0.5*((LOG(PAKNYGDPFCSTXN(-1)))-(LOG(PAKNYGDPFCSTXN(-2))))+0.5*(PAKINFLEXPT/100)+((LOG(PAKNYGDPMKTPKN/PAKLMEMPSTRLCN))-(LOG(PAKNYGDPMKTPKN(-1)/PAKLMEMPSTRLCN(-1)))))-0.2*(PAKLMUNRTOTLCN-PAKLMUNRSTRLCN)/100+0.15347529018182*DURING_2000-0.183372342445734*DURING_2001) )) * (1-PAKNYWRTINFMCN_D)+ PAKNYWRTINFMCN_X*PAKNYWRTINFMCN_D  $">
<polygon fill="#63b8ff" stroke="black" points="1163.5,-545 937.5,-545 937.5,-509 1163.5,-509 1163.5,-545"/>
<text text-anchor="start" x="943.5" y="-522.8" font-family="Times New Roman,serif" font-size="14.00" fill="blue">PAKNYWRTINFMCN:Informal wage</text>
</a>
</g>
</g>
<!-- PAKNYGDPMKTPKN&#45;&gt;PAKNYWRTINFMCN -->
<g id="edge13" class="edge">
<title>PAKNYGDPMKTPKN-&gt;PAKNYWRTINFMCN</title>
<g id="a_edge13"><a xlink:href="bogus" xlink:title=" PAKNYGDPMKTPKN -&gt; PAKNYWRTINFMCN Min. att. -3148%  max: 101%">
<path fill="none" stroke="black" stroke-width="8" d="M660.52,-410.49C700.72,-435.17 776.4,-478.27 847,-500 870.39,-507.2 895.87,-512.48 920.63,-516.35"/>
<polygon fill="black" stroke="black" stroke-width="8" points="919.38,-523.24 930.29,-517.75 921.4,-509.39 919.38,-523.24"/>
</a>
</g>
</g>
<!-- PAKNYGDPFCSTKN -->
<g id="node11" class="node">
<title>PAKNYGDPFCSTKN</title>
<g id="a_node11"><a xlink:title="GDP at factor cost
FRML  &lt;&gt; PAKNYGDPFCSTKN = PAKNYGDPMKTPKN-PAKNYTAXNINDKN $">
<polygon fill="#63b8ff" stroke="black" points="1171.5,-491 929.5,-491 929.5,-455 1171.5,-455 1171.5,-491"/>
<text text-anchor="start" x="935.5" y="-468.8" font-family="Times New Roman,serif" font-size="14.00" fill="blue">PAKNYGDPFCSTKN:GDP at factor cost</text>
</a>
</g>
</g>
<!-- PAKNYGDPMKTPKN&#45;&gt;PAKNYGDPFCSTKN -->
<g id="edge23" class="edge">
<title>PAKNYGDPMKTPKN-&gt;PAKNYGDPFCSTKN</title>
<g id="a_edge23"><a xlink:href="bogus" xlink:title=" PAKNYGDPMKTPKN -&gt; PAKNYGDPFCSTKN Min. att. 100%  max: 100%">
<path fill="none" stroke="black" stroke-width="8" d="M697.09,-410.49C739.57,-421.95 796.24,-436.29 847,-446 868.1,-450.04 890.55,-453.67 912.53,-456.88"/>
<polygon fill="black" stroke="black" stroke-width="8" points="911.42,-463.79 922.31,-458.26 913.39,-449.93 911.42,-463.79"/>
</a>
</g>
</g>
<!-- PAKNYWRTINFMCN_FITTED -->
<g id="node12" class="node">
<title>PAKNYWRTINFMCN_FITTED</title>
<g id="a_node12"><a xlink:title="Fitted  value:Informal wage
FRML &lt;FIT&gt; PAKNYWRTINFMCN_FITTED = PAKNYWRTINFMCN(-1)*EXP( (-0.122614247140616-0.3*(LOG(PAKNYWRTINFMCN(-1))-LOG(PAKNYGDPFCSTXN(-1))-LOG(PAKNYGDPPOTLKN(-1)/PAKLMEMPSTRLCN(-1)))+0.2*((LOG(PAKNYWRTINFMCN(-1)))-(LOG(PAKNYWRTINFMCN(-2))))+(1-0.2)*(0.5*((LOG(PAKNYGDPFCSTXN(-1)))-(LOG(PAKNYGDPFCSTXN(-2))))+0.5*(PAKINFLEXPT/100)+((LOG(PAKNYGDPMKTPKN/PAKLMEMPSTRLCN))-(LOG(PAKNYGDPMKTPKN(-1)/PAKLMEMPSTRLCN(-1)))))-0.2*(PAKLMUNRTOTLCN-PAKLMUNRSTRLCN)/100+0.15347529018182*DURING_2000-0.183372342445734*DURING_2001) ) $">
<polygon fill="#63b8ff" stroke="black" points="1226,-437 875,-437 875,-401 1226,-401 1226,-437"/>
<text text-anchor="start" x="881.5" y="-414.8" font-family="Times New Roman,serif" font-size="14.00" fill="blue">PAKNYWRTINFMCN_FITTED:Fitted  value:Informal wage</text>
</a>
</g>
</g>
<!-- PAKNYGDPMKTPKN&#45;&gt;PAKNYWRTINFMCN_FITTED -->
<g id="edge3" class="edge">
<title>PAKNYGDPMKTPKN-&gt;PAKNYWRTINFMCN_FITTED</title>
<g id="a_edge3"><a xlink:href="bogus" xlink:title=" PAKNYGDPMKTPKN -&gt; PAKNYWRTINFMCN_FITTED Min. att. -3148%  max: 101%">
<path fill="none" stroke="black" stroke-width="8" d="M811.5,-403.63C826.84,-404.62 842.4,-405.62 857.83,-406.62"/>
<polygon fill="black" stroke="black" stroke-width="8" points="857.12,-413.59 867.55,-407.25 858.02,-399.62 857.12,-413.59"/>
</a>
</g>
</g>
<!-- PAKNYGDPMKTPKD -->
<g id="node13" class="node">
<title>PAKNYGDPMKTPKD</title>
<g id="a_node13"><a xlink:title="PAKNYGDPMKTPKD
FRML  &lt;&gt; PAKNYGDPMKTPKD = (PAKNYGDPMKTPKN*((PAKNYGDPMKTPCN_VALUE_2010)/((PAKNYGDPMKTPKN_VALUE_2010))))/(PAKPANUSATLS_VALUE_2010) $">
<polygon fill="#63b8ff" stroke="black" points="1124,-383 977,-383 977,-347 1124,-347 1124,-383"/>
<text text-anchor="start" x="983.5" y="-360.8" font-family="Times New Roman,serif" font-size="14.00" fill="blue">PAKNYGDPMKTPKD:</text>
</a>
</g>
</g>
<!-- PAKNYGDPMKTPKN&#45;&gt;PAKNYGDPMKTPKD -->
<g id="edge18" class="edge">
<title>PAKNYGDPMKTPKN-&gt;PAKNYGDPMKTPKD</title>
<g id="a_edge18"><a xlink:href="bogus" xlink:title=" PAKNYGDPMKTPKN -&gt; PAKNYGDPMKTPKD Min. att. 100%  max: 100%">
<path fill="none" stroke="black" stroke-width="8" d="M811.5,-380.37C862.84,-377.06 916.56,-373.59 959.94,-370.78"/>
<polygon fill="black" stroke="black" stroke-width="8" points="960.15,-377.79 969.68,-370.16 959.25,-363.81 960.15,-377.79"/>
</a>
</g>
</g>
<!-- PAKNYWRTFORMCN_FITTED -->
<g id="node14" class="node">
<title>PAKNYWRTFORMCN_FITTED</title>
<g id="a_node14"><a xlink:title="Fitted  value:Formal wage
FRML &lt;FIT&gt; PAKNYWRTFORMCN_FITTED = PAKNYWRTFORMCN(-1)*EXP( (-0.120164450250183-0.3*(LOG(PAKNYWRTFORMCN(-1))-LOG(PAKNYGDPFCSTXN(-1))-LOG(PAKNYGDPPOTLKN(-1)/PAKLMEMPSTRLCN(-1)))+0.2*((LOG(PAKNYWRTFORMCN(-1)))-(LOG(PAKNYWRTFORMCN(-2))))+(1-0.2)*(0.5*((LOG(PAKNYGDPFCSTXN(-1)))-(LOG(PAKNYGDPFCSTXN(-2))))+0.5*(PAKINFLEXPT/100)+((LOG(PAKNYGDPMKTPKN/PAKLMEMPSTRLCN))-(LOG(PAKNYGDPMKTPKN(-1)/PAKLMEMPSTRLCN(-1)))))-0.2*(PAKLMUNRTOTLCN-PAKLMUNRSTRLCN)/100+0.15233813938029*DURING_2000-0.183411483907703*DURING_2001) ) $">
<polygon fill="#63b8ff" stroke="black" points="1224,-329 877,-329 877,-293 1224,-293 1224,-329"/>
<text text-anchor="start" x="883.5" y="-306.8" font-family="Times New Roman,serif" font-size="14.00" fill="blue">PAKNYWRTFORMCN_FITTED:Fitted  value:Formal wage</text>
</a>
</g>
</g>
<!-- PAKNYGDPMKTPKN&#45;&gt;PAKNYWRTFORMCN_FITTED -->
<g id="edge4" class="edge">
<title>PAKNYGDPMKTPKN-&gt;PAKNYWRTFORMCN_FITTED</title>
<g id="a_edge4"><a xlink:href="bogus" xlink:title=" PAKNYGDPMKTPKN -&gt; PAKNYWRTFORMCN_FITTED Min. att. -3148%  max: 101%">
<path fill="none" stroke="black" stroke-width="8" d="M697.09,-373.51C739.57,-362.05 796.24,-347.71 847,-338 857.82,-335.93 869.01,-333.96 880.3,-332.11"/>
<polygon fill="black" stroke="black" stroke-width="8" points="881.22,-339.05 890,-330.56 879.02,-325.22 881.22,-339.05"/>
</a>
</g>
</g>
<!-- PAKGDPPCKN -->
<g id="node15" class="node">
<title>PAKGDPPCKN</title>
<g id="a_node15"><a xlink:title="PAKGDPPCKN
FRML  &lt;&gt; PAKGDPPCKN = (PAKNYGDPMKTPKN/PAKSPPOPTOTL) $">
<polygon fill="#63b8ff" stroke="black" points="1103.5,-275 997.5,-275 997.5,-239 1103.5,-239 1103.5,-275"/>
<text text-anchor="start" x="1003.5" y="-252.8" font-family="Times New Roman,serif" font-size="14.00" fill="blue">PAKGDPPCKN:</text>
</a>
</g>
</g>
<!-- PAKNYGDPMKTPKN&#45;&gt;PAKGDPPCKN -->
<g id="edge5" class="edge">
<title>PAKNYGDPMKTPKN-&gt;PAKGDPPCKN</title>
<g id="a_edge5"><a xlink:href="bogus" xlink:title=" PAKNYGDPMKTPKN -&gt; PAKGDPPCKN Min. att. 100%  max: 100%">
<path fill="none" stroke="black" stroke-width="8" d="M660.52,-373.51C700.72,-348.83 776.4,-305.73 847,-284 890.26,-270.69 940.71,-263.94 980.43,-260.52"/>
<polygon fill="black" stroke="black" stroke-width="8" points="980.92,-267.5 990.35,-259.75 979.84,-253.54 980.92,-267.5"/>
</a>
</g>
</g>
<!-- PAKNYGDPGAP_ -->
<g id="node16" class="node">
<title>PAKNYGDPGAP_</title>
<g id="a_node16"><a xlink:title="Output Gap (% of Potential GDP)
FRML  &lt;&gt; PAKNYGDPGAP_ = ((PAKNYGDPMKTPKN/PAKNYGDPPOTLKN-1)*100) $">
<polygon fill="#63b8ff" stroke="black" points="1205,-221 896,-221 896,-185 1205,-185 1205,-221"/>
<text text-anchor="start" x="902.5" y="-198.8" font-family="Times New Roman,serif" font-size="14.00" fill="blue">PAKNYGDPGAP_:Output Gap (% of Potential GDP)</text>
</a>
</g>
</g>
<!-- PAKNYGDPMKTPKN&#45;&gt;PAKNYGDPGAP_ -->
<g id="edge10" class="edge">
<title>PAKNYGDPMKTPKN-&gt;PAKNYGDPGAP_</title>
<g id="a_edge10"><a xlink:href="bogus" xlink:title=" PAKNYGDPMKTPKN -&gt; PAKNYGDPGAP_ Min. att. -78553%  max: 128142%">
<path fill="none" stroke="black" stroke-width="8" d="M649.04,-373.61C683.37,-338.92 763.4,-264.23 847,-230 857.31,-225.78 868.14,-222.19 879.2,-219.13"/>
<polygon fill="black" stroke="black" stroke-width="8" points="880.79,-225.95 888.78,-216.73 877.38,-212.37 880.79,-225.95"/>
</a>
</g>
</g>
<!-- PAKNEADPKMAXKN_FITTED -->
<g id="node17" class="node">
<title>PAKNEADPKMAXKN_FITTED</title>
<g id="a_node17"><a xlink:title="Fitted  value:PAKNEADPKMAXKN
FRML &lt;FIT&gt; PAKNEADPKMAXKN_FITTED = 0*DUMH+((1+0.01)/(0.01+PAKDEPR))*(PAKAVDAMAGE/100)*PAKNYGDPMKTPKN $">
<polygon fill="#63b8ff" stroke="black" points="1254,-167 847,-167 847,-131 1254,-131 1254,-167"/>
<text text-anchor="start" x="853.5" y="-144.8" font-family="Times New Roman,serif" font-size="14.00" fill="blue">PAKNEADPKMAXKN_FITTED:Fitted  value:PAKNEADPKMAXKN</text>
</a>
</g>
</g>
<!-- PAKNYGDPMKTPKN&#45;&gt;PAKNEADPKMAXKN_FITTED -->
<g id="edge20" class="edge">
<title>PAKNYGDPMKTPKN-&gt;PAKNEADPKMAXKN_FITTED</title>
<g id="a_edge20"><a xlink:href="bogus" xlink:title=" PAKNYGDPMKTPKN -&gt; PAKNEADPKMAXKN_FITTED Min. att. 100%  max: 100%">
<path fill="none" stroke="black" stroke-width="8" d="M643.42,-373.56C672.37,-330.51 751.1,-223.46 847,-176 848.51,-175.25 850.03,-174.53 851.57,-173.81"/>
<polygon fill="black" stroke="black" stroke-width="8" points="853.98,-180.39 860.54,-170.09 848.62,-167.46 853.98,-180.39"/>
</a>
</g>
</g>
<!-- PAKNYGDPMKTPXN -->
<g id="node21" class="node">
<title>PAKNYGDPMKTPXN</title>
<g id="a_node21"><a xlink:title="GDP deflator
FRML  &lt;&gt; PAKNYGDPMKTPXN = PAKNYGDPMKTPCN/PAKNYGDPMKTPKN $">
<polygon fill="#63b8ff" stroke="black" points="1160.5,-113 940.5,-113 940.5,-77 1160.5,-77 1160.5,-113"/>
<text text-anchor="start" x="946.5" y="-90.8" font-family="Times New Roman,serif" font-size="14.00" fill="blue">PAKNYGDPMKTPXN:GDP deflator</text>
</a>
</g>
</g>
<!-- PAKNYGDPMKTPKN&#45;&gt;PAKNYGDPMKTPXN -->
<g id="edge11" class="edge">
<title>PAKNYGDPMKTPKN-&gt;PAKNYGDPMKTPXN</title>
<g id="a_edge11"><a xlink:href="bogus" xlink:title=" PAKNYGDPMKTPKN -&gt; PAKNYGDPMKTPXN Min. att. -81%  max: 46%">
<path fill="none" stroke="black" stroke-width="8" d="M639.94,-373.56C664.02,-323.28 738.42,-183.43 847,-122 870.14,-108.91 897.08,-101.17 923.62,-96.77"/>
<polygon fill="black" stroke="black" stroke-width="8" points="924.23,-103.76 933.15,-95.42 922.27,-89.89 924.23,-103.76"/>
</a>
</g>
</g>
<!-- PAKFMLBLMTWOKN_FITTED -->
<g id="node24" class="node">
<title>PAKFMLBLMTWOKN_FITTED</title>
<g id="a_node24"><a xlink:title="Fitted  value:Real money supply
FRML &lt;FIT&gt; PAKFMLBLMTWOKN_FITTED = PAKFMLBLMTWOKN(-1)*EXP( (-0.2*(LOG(PAKFMLBLMTWOKN(-1))-LOG(PAKNYGDPMKTPKN(-1))+0.1*PAKFMLBLPOLYXN(-1)/100-LOG(PAKVELOCITY(-1)))-0.32628131688075+0.7*((LOG(PAKNYGDPMKTPKN))-(LOG(PAKNYGDPMKTPKN(-1))))-1*((PAKFMLBLPOLYXN/100)-(PAKFMLBLPOLYXN(-1)/100))-((LOG(PAKVELOCITY))-(LOG(PAKVELOCITY(-1))))) ) $">
<polygon fill="#63b8ff" stroke="black" points="1242,-59 859,-59 859,-23 1242,-23 1242,-59"/>
<text text-anchor="start" x="865.5" y="-36.8" font-family="Times New Roman,serif" font-size="14.00" fill="blue">PAKFMLBLMTWOKN_FITTED:Fitted  value:Real money supply</text>
</a>
</g>
</g>
<!-- PAKNYGDPMKTPKN&#45;&gt;PAKFMLBLMTWOKN_FITTED -->
<g id="edge7" class="edge">
<title>PAKNYGDPMKTPKN-&gt;PAKFMLBLMTWOKN_FITTED</title>
<g id="a_edge7"><a xlink:href="bogus" xlink:title=" PAKNYGDPMKTPKN -&gt; PAKFMLBLMTWOKN_FITTED Min. att. -360%  max: 149%">
<path fill="none" stroke="black" stroke-width="8" d="M637.5,-373.7C657.13,-317.09 725.23,-144.04 847,-68 847.48,-67.7 847.96,-67.4 848.44,-67.11"/>
<polygon fill="black" stroke="black" stroke-width="8" points="851.31,-73.52 856.79,-62.61 844.67,-61.19 851.31,-73.52"/>
</a>
</g>
</g>
<!-- PAKNEIMPGNFSKN -->
<g id="node7" class="node">
<title>PAKNEIMPGNFSKN</title>
<g id="a_node7"><a xlink:title="Imports (G&amp;S)
FRML &lt;Z,EXO&gt; PAKNEIMPGNFSKN = (PAKNEIMPGNFSKN(-1)*EXP(-PAKNEIMPGNFSKN_A+ (-0.324143718656754*(LOG(PAKNEIMPGNFSKN(-1))-LOG(PAKNEGDETTOTKN(-1))+0.8*LOG(PAKNEIMPGNFSXN(-1)/PAKNYGDPFCSTXN(-1)))-0.583459272245018+1*((LOG(PAKNEGDETTOTKN))-(LOG(PAKNEGDETTOTKN(-1))))-0.0921874580409631*((LOG(PAKNEIMPGNFSXN/PAKNYGDPFCSTXN))-(LOG(PAKNEIMPGNFSXN(-1)/PAKNYGDPFCSTXN(-1))))-0.0361746331863615*DURING_2012) )) * (1-PAKNEIMPGNFSKN_D)+ PAKNEIMPGNFSKN_X*PAKNEIMPGNFSKN_D  $">
<polygon fill="#63b8ff" stroke="black" points="318.5,-626 95.5,-626 95.5,-590 318.5,-590 318.5,-626"/>
<text text-anchor="start" x="102" y="-603.8" font-family="Times New Roman,serif" font-size="14.00" fill="blue">PAKNEIMPGNFSKN:Imports (G&amp;S)</text>
</a>
</g>
</g>
<!-- PAKNEIMPGNFSKN&#45;&gt;PAKNYGDPMKTPKN -->
<g id="edge19" class="edge">
<title>PAKNEIMPGNFSKN-&gt;PAKNYGDPMKTPKN</title>
<g id="a_edge19"><a xlink:href="bogus" xlink:title=" PAKNEIMPGNFSKN -&gt; PAKNYGDPMKTPKN Min. att. -46%  max: 456%">
<path fill="none" stroke="black" stroke-width="8" d="M318.75,-605.49C350.57,-601.62 384.59,-594.32 414,-581 494.99,-544.33 567.9,-466.79 604.56,-423.28"/>
<polygon fill="black" stroke="black" stroke-width="8" points="609.74,-428 610.71,-415.83 598.95,-419.09 609.74,-428"/>
</a>
</g>
</g>
<!-- PAKNECONGOVTKN -->
<g id="node8" class="node">
<title>PAKNECONGOVTKN</title>
<g id="a_node8"><a xlink:title="Government Consumption
FRML  &lt;&gt; PAKNECONGOVTKN = PAKNECONGOVTCN/PAKNECONGOVTXN $">
<polygon fill="#63b8ff" stroke="black" points="353,-572 61,-572 61,-536 353,-536 353,-572"/>
<text text-anchor="start" x="67" y="-549.8" font-family="Times New Roman,serif" font-size="14.00" fill="blue">PAKNECONGOVTKN:Government Consumption</text>
</a>
</g>
</g>
<!-- PAKNECONGOVTKN&#45;&gt;PAKNYGDPMKTPKN -->
<g id="edge22" class="edge">
<title>PAKNECONGOVTKN-&gt;PAKNYGDPMKTPKN</title>
<g id="a_edge22"><a xlink:href="bogus" xlink:title=" PAKNECONGOVTKN -&gt; PAKNYGDPMKTPKN Min. att. -108%  max: 835%">
<path fill="none" stroke="black" stroke-width="8" d="M353.38,-542.92C374.07,-539.06 394.82,-533.89 414,-527 483.31,-502.09 553.81,-452.32 594.51,-420.66"/>
<polygon fill="black" stroke="black" stroke-width="8" points="598.64,-426.31 602.14,-414.62 589.95,-415.34 598.64,-426.31"/>
</a>
</g>
</g>
<!-- PAKNECONPRVTKN -->
<g id="node9" class="node">
<title>PAKNECONPRVTKN</title>
<g id="a_node9"><a xlink:title="Household Consumption
FRML &lt;Z,EXO&gt; PAKNECONPRVTKN = (PAKNECONPRVTKN(-1)*EXP(-PAKNECONPRVTKN_A+ (-0.2*(LOG(PAKNECONPRVTKN(-1))-LOG((PAKNYYWBTOTLCN(-1)*(1-PAKGGREVDRCTXN(-1)/100))/PAKNECONPRVTXN(-1)))+1*((LOG((PAKNYYWBTOTLCN*(1-PAKGGREVDRCTXN/100))/PAKNECONPRVTXN))-(LOG((PAKNYYWBTOTLCN(-1)*(1-PAKGGREVDRCTXN(-1)/100))/PAKNECONPRVTXN(-1))))+0.0303228629698929+0.0163839011059956*DURING_2010-0.3*(PAKFMLBLPOLYXN/100-((LOG(PAKNECONPRVTXN))-(LOG(PAKNECONPRVTXN(-1)))))) )) * (1-PAKNECONPRVTKN_D)+ PAKNECONPRVTKN_X*PAKNECONPRVTKN_D  $">
<polygon fill="#63b8ff" stroke="black" points="346,-518 68,-518 68,-482 346,-482 346,-518"/>
<text text-anchor="start" x="74" y="-495.8" font-family="Times New Roman,serif" font-size="14.00" fill="blue">PAKNECONPRVTKN:Household Consumption</text>
</a>
</g>
</g>
<!-- PAKNECONPRVTKN&#45;&gt;PAKNYGDPMKTPKN -->
<g id="edge17" class="edge">
<title>PAKNECONPRVTKN-&gt;PAKNYGDPMKTPKN</title>
<g id="a_edge17"><a xlink:href="bogus" xlink:title=" PAKNECONPRVTKN -&gt; PAKNYGDPMKTPKN Min. att. -1557%  max: 290%">
<path fill="none" stroke="black" stroke-width="8" d="M346.23,-486.33C369.03,-482.8 392.3,-478.42 414,-473 469.7,-459.08 530.74,-435.28 573.6,-417.07"/>
<polygon fill="black" stroke="black" stroke-width="8" points="576.26,-423.54 582.67,-413.15 570.72,-410.68 576.26,-423.54"/>
</a>
</g>
</g>
<!-- PAKNEGDIFTOTKN -->
<g id="node10" class="node">
<title>PAKNEGDIFTOTKN</title>
<g id="a_node10"><a xlink:title="Total Gross Capital Formation
FRML  &lt;&gt; PAKNEGDIFTOTKN = PAKNEGDIFGOVKN+PAKNEGDIFPRVKN $">
<polygon fill="#63b8ff" stroke="black" points="359,-464 55,-464 55,-428 359,-428 359,-464"/>
<text text-anchor="start" x="61" y="-441.8" font-family="Times New Roman,serif" font-size="14.00" fill="blue">PAKNEGDIFTOTKN:Total Gross Capital Formation</text>
</a>
</g>
</g>
<!-- PAKNEGDIFTOTKN&#45;&gt;PAKNYGDPMKTPKN -->
<g id="edge1" class="edge">
<title>PAKNEGDIFTOTKN-&gt;PAKNYGDPMKTPKN</title>
<g id="a_edge1"><a xlink:href="bogus" xlink:title=" PAKNEGDIFTOTKN -&gt; PAKNYGDPMKTPKN Min. att. -36%  max: 366%">
<path fill="none" stroke="black" stroke-width="8" d="M352.17,-427.53C389.66,-422.73 430.27,-417.52 468.56,-412.62"/>
<polygon fill="black" stroke="black" stroke-width="8" points="469.44,-419.56 478.47,-411.35 467.66,-405.68 469.44,-419.56"/>
</a>
</g>
</g>
<!-- PAKNEEXPGNFSKN -->
<g id="node18" class="node">
<title>PAKNEEXPGNFSKN</title>
<g id="a_node18"><a xlink:title="Exports (G&amp;S)
FRML &lt;Z,EXO&gt; PAKNEEXPGNFSKN = (PAKNEEXPGNFSKN(-1)*EXP(-PAKNEEXPGNFSKN_A+ (-0.35*(LOG(PAKNEEXPGNFSKN(-1))-LOG(PAKXMKT(-1))-0.6*LOG(PAKNEEXPGNFSXN(-1)/(PAKNYGDPFCSTXN(-1))))+1*((LOG(PAKXMKT))-(LOG(PAKXMKT(-1))))+0.3*((LOG(PAKNEEXPGNFSXN/(PAKNYGDPFCSTXN)))-(LOG(PAKNEEXPGNFSXN(-1)/(PAKNYGDPFCSTXN(-1)))))+4.38465374402991-0.237469889780178*DURING_1999-0.230689812873392*DURING_1998+0.320967524344658*DURING_1991+0.250252413901575*DURING_1986) )) * (1-PAKNEEXPGNFSKN_D)+ PAKNEEXPGNFSKN_X*PAKNEEXPGNFSKN_D  $">
<polygon fill="#63b8ff" stroke="black" points="318.5,-410 95.5,-410 95.5,-374 318.5,-374 318.5,-410"/>
<text text-anchor="start" x="102" y="-387.8" font-family="Times New Roman,serif" font-size="14.00" fill="blue">PAKNEEXPGNFSKN:Exports (G&amp;S)</text>
</a>
</g>
</g>
<!-- PAKNEEXPGNFSKN&#45;&gt;PAKNYGDPMKTPKN -->
<g id="edge8" class="edge">
<title>PAKNEEXPGNFSKN-&gt;PAKNYGDPMKTPKN</title>
<g id="a_edge8"><a xlink:href="bogus" xlink:title=" PAKNEEXPGNFSKN -&gt; PAKNYGDPMKTPKN Min. att. -10%  max: 0%">
<path fill="none" stroke="black" d="M318.74,-392C355.5,-392 397.53,-392 438.56,-392"/>
<polygon fill="black" stroke="black" points="438.3,-395.5 448.3,-392 438.3,-388.5 438.3,-395.5"/>
</a>
</g>
</g>
<!-- PAKNEGDISTKBKN -->
<g id="node19" class="node">
<title>PAKNEGDISTKBKN</title>
<g id="a_node19"><a xlink:title="Change in Inventories
Exogen">
<polygon fill="yellow" stroke="black" points="336.5,-356 77.5,-356 77.5,-320 336.5,-320 336.5,-356"/>
<text text-anchor="start" x="84" y="-333.8" font-family="Times New Roman,serif" font-size="14.00" fill="blue">PAKNEGDISTKBKN:Change in Inventories</text>
</a>
</g>
</g>
<!-- PAKNEGDISTKBKN&#45;&gt;PAKNYGDPMKTPKN -->
<g id="edge2" class="edge">
<title>PAKNEGDISTKBKN-&gt;PAKNYGDPMKTPKN</title>
<g id="a_edge2"><a xlink:href="bogus" xlink:title=" PAKNEGDISTKBKN -&gt; PAKNYGDPMKTPKN Min. att. -0%  max: 0%">
<path fill="none" stroke="black" d="M336.75,-354.5C380.05,-360.04 428.82,-366.29 473.96,-372.07"/>
<polygon fill="black" stroke="black" points="473.48,-375.54 483.85,-373.34 474.37,-368.6 473.48,-375.54"/>
</a>
</g>
</g>
<!-- PAKDISPREPKN -->
<g id="node20" class="node">
<title>PAKDISPREPKN</title>
<g id="a_node20"><a xlink:title="Investment in disaster risk preparation, constant prices
FRML  &lt;&gt; PAKDISPREPKN = PAKDISPREPCN/PAKNYGDPMKTPXN $">
<polygon fill="#63b8ff" stroke="black" points="414,-302 0,-302 0,-266 414,-266 414,-302"/>
<text text-anchor="start" x="6" y="-279.8" font-family="Times New Roman,serif" font-size="14.00" fill="blue">PAKDISPREPKN:Investment in disaster risk preparation, constant prices</text>
</a>
</g>
</g>
<!-- PAKDISPREPKN&#45;&gt;PAKNYGDPMKTPKN -->
<g id="edge6" class="edge">
<title>PAKDISPREPKN-&gt;PAKNYGDPMKTPKN</title>
<g id="a_edge6"><a xlink:href="bogus" xlink:title=" PAKDISPREPKN -&gt; PAKNYGDPMKTPKN Min. att. -0%  max: 0%">
<path fill="none" stroke="black" d="M374.46,-302.47C387.91,-304.98 401.23,-307.81 414,-311 471.91,-325.47 535.59,-350.63 578.61,-369.07"/>
<polygon fill="black" stroke="black" points="577.12,-372.25 587.69,-373.01 579.9,-365.82 577.12,-372.25"/>
</a>
</g>
</g>
<!-- PAKADAP -->
<g id="node22" class="node">
<title>PAKADAP</title>
<g id="a_node22"><a xlink:title="Switch on adaptation mode (0 or 1)
Exogen">
<polygon fill="yellow" stroke="black" points="344,-248 70,-248 70,-212 344,-212 344,-248"/>
<text text-anchor="start" x="76" y="-225.8" font-family="Times New Roman,serif" font-size="14.00" fill="blue">PAKADAP:Switch on adaptation mode (0 or 1)</text>
</a>
</g>
</g>
<!-- PAKADAP&#45;&gt;PAKNYGDPMKTPKN -->
<g id="edge16" class="edge">
<title>PAKADAP-&gt;PAKNYGDPMKTPKN</title>
<g id="a_edge16"><a xlink:href="bogus" xlink:title=" PAKADAP -&gt; PAKNYGDPMKTPKN Min. att. -0%  max: 0%">
<path fill="none" stroke="black" d="M344.33,-239.47C367.98,-243.47 392.02,-249.1 414,-257 485.73,-282.78 558.73,-335.19 598.66,-366.59"/>
<polygon fill="black" stroke="black" points="596.42,-369.28 606.42,-372.77 600.78,-363.8 596.42,-369.28"/>
</a>
</g>
</g>
<!-- PAKNYGDPDISCKN -->
<g id="node23" class="node">
<title>PAKNYGDPDISCKN</title>
<g id="a_node23"><a xlink:title="Statistical Discrepency (Expenditure Side)
Exogen">
<polygon fill="yellow" stroke="black" points="392,-194 22,-194 22,-158 392,-158 392,-194"/>
<text text-anchor="start" x="28" y="-171.8" font-family="Times New Roman,serif" font-size="14.00" fill="blue">PAKNYGDPDISCKN:Statistical Discrepency (Expenditure Side)</text>
</a>
</g>
</g>
<!-- PAKNYGDPDISCKN&#45;&gt;PAKNYGDPMKTPKN -->
<g id="edge21" class="edge">
<title>PAKNYGDPDISCKN-&gt;PAKNYGDPMKTPKN</title>
<g id="a_edge21"><a xlink:href="bogus" xlink:title=" PAKNYGDPDISCKN -&gt; PAKNYGDPMKTPKN Min. att. -0%  max: 0%">
<path fill="none" stroke="black" d="M392.36,-194.5C399.77,-197.02 407.02,-199.84 414,-203 497.62,-240.86 572.63,-322.29 608.01,-364.84"/>
<polygon fill="black" stroke="black" points="605.14,-366.86 614.19,-372.38 610.56,-362.43 605.14,-366.86"/>
</a>
</g>
</g>
</g>
</svg>