<svg xmlns="http://www.w3.org/2000/svg" xmlns:xlink="http://www.w3.org/1999/xlink" width="432pt" height="377pt" viewBox="0.00 0.00 432.00 377.23">
<g id="graph0" class="graph" transform="scale(0.382979 0.382979) rotate(0) translate(4 981)">
<title>TD</title>
<polygon fill="white" stroke="none" points="-4,4 -4,-981 1124,-981 1124,4 -4,4"/>
<text text-anchor="middle" x="560" y="-7.8" font-family="Times New Roman,serif" font-size="14.00">PAKNECONPRVTKN</text>
<!-- PAKNECONENGYKN -->
<g id="node1" class="node">
<title>PAKNECONENGYKN</title>
<g id="a_node1"><a xlink:title="Energy Consumption
FRML  &lt;&gt; PAKNECONENGYKN = PAKNECONENGYSH**(PAKCESENGYCON)*(PAKNECONPRVTKN*(PAKNECONPRVTXN/PAKNECONENGYXN)**(PAKCESENGYCON)) $">
<polygon fill="#63b8ff" stroke="black" points="1049.5,-977 787.5,-977 787.5,-941 1049.5,-941 1049.5,-977"/>
<text text-anchor="start" x="793.5" y="-954.8" font-family="Times New Roman,serif" font-size="14.00" fill="blue">PAKNECONENGYKN:Energy Consumption</text>
</a>
</g>
</g>
<!-- PAKNECONPRVTKN_FITTED -->
<g id="node2" class="node">
<title>PAKNECONPRVTKN_FITTED</title>
<g id="a_node2"><a xlink:title="Fitted  value:Household Consumption
FRML &lt;FIT&gt; PAKNECONPRVTKN_FITTED = PAKNECONPRVTKN(-1)*EXP( (-0.2*(LOG(PAKNECONPRVTKN(-1))-LOG((PAKNYYWBTOTLCN(-1)*(1-PAKGGREVDRCTXN(-1)/100))/PAKNECONPRVTXN(-1)))+1*((LOG((PAKNYYWBTOTLCN*(1-PAKGGREVDRCTXN/100))/PAKNECONPRVTXN))-(LOG((PAKNYYWBTOTLCN(-1)*(1-PAKGGREVDRCTXN(-1)/100))/PAKNECONPRVTXN(-1))))+0.0303228629698929+0.0163839011059956*DURING_2010-0.3*(PAKFMLBLPOLYXN/100-((LOG(PAKNECONPRVTXN))-(LOG(PAKNECONPRVTXN(-1)))))) ) $">
<polygon fill="#63b8ff" stroke="black" points="1120,-923 717,-923 717,-887 1120,-887 1120,-923"/>
<text text-anchor="start" x="723.5" y="-900.8" font-family="Times New Roman,serif" font-size="14.00" fill="blue">PAKNECONPRVTKN_FITTED:Fitted  value:Household Consumption</text>
</a>
</g>
</g>
<!-- PAKNYYWBTOTLCN -->
<g id="node3" class="node">
<title>PAKNYYWBTOTLCN</title>
<g id="a_node3"><a xlink:title="Economy-wide wage bill
FRML  &lt;&gt; PAKNYYWBTOTLCN = PAKNYWRTTOTLCN*PAKLMEMPTOTLCN $">
<polygon fill="#63b8ff" stroke="black" points="326,-707 41,-707 41,-671 326,-671 326,-707"/>
<text text-anchor="start" x="47.5" y="-684.8" font-family="Times New Roman,serif" font-size="14.00" fill="blue">PAKNYYWBTOTLCN:Economy-wide wage bill</text>
</a>
</g>
</g>
<!-- PAKNECONPRVTKN -->
<g id="node13" class="node">
<title>PAKNECONPRVTKN</title>
<g id="a_node13"><a xlink:title="Household Consumption
FRML &lt;Z,EXO&gt; PAKNECONPRVTKN = (PAKNECONPRVTKN(-1)*EXP(-PAKNECONPRVTKN_A+ (-0.2*(LOG(PAKNECONPRVTKN(-1))-LOG((PAKNYYWBTOTLCN(-1)*(1-PAKGGREVDRCTXN(-1)/100))/PAKNECONPRVTXN(-1)))+1*((LOG((PAKNYYWBTOTLCN*(1-PAKGGREVDRCTXN/100))/PAKNECONPRVTXN))-(LOG((PAKNYYWBTOTLCN(-1)*(1-PAKGGREVDRCTXN(-1)/100))/PAKNECONPRVTXN(-1))))+0.0303228629698929+0.0163839011059956*DURING_2010-0.3*(PAKFMLBLPOLYXN/100-((LOG(PAKNECONPRVTXN))-(LOG(PAKNECONPRVTXN(-1)))))) )) * (1-PAKNECONPRVTKN_D)+ PAKNECONPRVTKN_X*PAKNECONPRVTKN_D  $">
<polygon fill="red" stroke="black" points="681,-518 403,-518 403,-482 681,-482 681,-518"/>
<text text-anchor="start" x="409" y="-495.8" font-family="Times New Roman,serif" font-size="14.00" fill="blue">PAKNECONPRVTKN:Household Consumption</text>
</a>
</g>
</g>
<!-- PAKNYYWBTOTLCN&#45;&gt;PAKNECONPRVTKN -->
<g id="edge25" class="edge">
<title>PAKNYYWBTOTLCN-&gt;PAKNECONPRVTKN</title>
<g id="a_edge25"><a xlink:href="bogus" xlink:title=" PAKNYYWBTOTLCN -&gt; PAKNECONPRVTKN Min. att. -594%  max: 5821%">
<path fill="none" stroke="black" stroke-width="8" d="M326.07,-676.81C340.26,-673.02 354.16,-668.18 367,-662 430.66,-631.38 486.96,-569.31 517.3,-531.51"/>
<polygon fill="black" stroke="black" stroke-width="8" points="522.67,-536.01 523.32,-523.82 511.64,-527.38 522.67,-536.01"/>
</a>
</g>
</g>
<!-- PAKSMENGTOTLKN -->
<g id="node4" class="node">
<title>PAKSMENGTOTLKN</title>
<g id="a_node4"><a xlink:title="PAKSMENGTOTLKN
FRML  &lt;&gt; PAKSMENGTOTLKN = ((1+1.65868473220397)*(0.0775261497897936*PAKNECONPRVTKN+0*PAKNECONGOVTKN+0*PAKNEGDIFTOTKN+0.0217448978257548*PAKNEEXPGNFSKN+0.0458991644104248*PAKNEGDISTKBKN)-0.11894699850705*PAKNEIMPGNFSKN--0.50579180838529*PAKNYTAXNINDKN-0)/(1+5.65663938581514) $">
<polygon fill="#63b8ff" stroke="black" points="991,-869 846,-869 846,-833 991,-833 991,-869"/>
<text text-anchor="start" x="852.5" y="-846.8" font-family="Times New Roman,serif" font-size="14.00" fill="blue">PAKSMENGTOTLKN:</text>
</a>
</g>
</g>
<!-- PAKNEGDETTOTKN -->
<g id="node5" class="node">
<title>PAKNEGDETTOTKN</title>
<g id="a_node5"><a xlink:title="GDE
FRML  &lt;&gt; PAKNEGDETTOTKN = (PAKNECONPRVTKN+PAKNECONGOVTKN+PAKNEGDIFTOTKN+PAKNEGDISTKBKN+PAKNYGDPDISCKN) $">
<polygon fill="#63b8ff" stroke="black" points="1003.5,-815 833.5,-815 833.5,-779 1003.5,-779 1003.5,-815"/>
<text text-anchor="start" x="839.5" y="-792.8" font-family="Times New Roman,serif" font-size="14.00" fill="blue">PAKNEGDETTOTKN:GDE</text>
</a>
</g>
</g>
<!-- PAKNYGDPMKTPKN -->
<g id="node6" class="node">
<title>PAKNYGDPMKTPKN</title>
<g id="a_node6"><a xlink:title="GDP Expenditure side at market prices
FRML  &lt;&gt; PAKNYGDPMKTPKN = PAKNECONPRVTKN+PAKNECONGOVTKN+PAKNEGDIFTOTKN+PAKNEGDISTKBKN+PAKNEEXPGNFSKN-PAKNEIMPGNFSKN+PAKNYGDPDISCKN+PAKADAP*PAKDISPREPKN $">
<polygon fill="#63b8ff" stroke="black" points="1099,-761 738,-761 738,-725 1099,-725 1099,-761"/>
<text text-anchor="start" x="744.5" y="-738.8" font-family="Times New Roman,serif" font-size="14.00" fill="blue">PAKNYGDPMKTPKN:GDP Expenditure side at market prices</text>
</a>
</g>
</g>
<!-- PAKGGREVDRCTXN -->
<g id="node7" class="node">
<title>PAKGGREVDRCTXN</title>
<g id="a_node7"><a xlink:title="Effective tax rates
Exogen">
<polygon fill="yellow" stroke="black" points="305.5,-653 61.5,-653 61.5,-617 305.5,-617 305.5,-653"/>
<text text-anchor="start" x="67.5" y="-630.8" font-family="Times New Roman,serif" font-size="14.00" fill="blue">PAKGGREVDRCTXN:Effective tax rates</text>
</a>
</g>
</g>
<!-- PAKGGREVDRCTXN&#45;&gt;PAKNECONPRVTKN -->
<g id="edge14" class="edge">
<title>PAKGGREVDRCTXN-&gt;PAKNECONPRVTKN</title>
<g id="a_edge14"><a xlink:href="bogus" xlink:title=" PAKGGREVDRCTXN -&gt; PAKNECONPRVTKN Min. att. 0%  max: 0%">
<path fill="none" stroke="black" d="M305.52,-624.21C326.39,-620.35 347.6,-615.11 367,-608 421.01,-588.21 476.25,-550.3 509.59,-525.07"/>
<polygon fill="black" stroke="black" points="511.39,-528.11 517.2,-519.24 507.13,-522.55 511.39,-528.11"/>
</a>
</g>
</g>
<!-- PAKSMSRVTRNSKN -->
<g id="node8" class="node">
<title>PAKSMSRVTRNSKN</title>
<g id="a_node8"><a xlink:title="PAKSMSRVTRNSKN
FRML  &lt;&gt; PAKSMSRVTRNSKN = ((1+0.301074862860981)*(0.204687752761289*PAKNECONPRVTKN+0*PAKNECONGOVTKN+0*PAKNEGDIFTOTKN+0.0551862611209703*PAKNEEXPGNFSKN+0*PAKNEGDISTKBKN)--0.0392641863572605*PAKNEIMPGNFSKN-0.0174996684619017*PAKNYTAXNINDKN-0)/(1+1.11680986862739) $">
<polygon fill="#63b8ff" stroke="black" points="989.5,-707 847.5,-707 847.5,-671 989.5,-671 989.5,-707"/>
<text text-anchor="start" x="853.5" y="-684.8" font-family="Times New Roman,serif" font-size="14.00" fill="blue">PAKSMSRVTRNSKN:</text>
</a>
</g>
</g>
<!-- PAKNECONPRVTXN -->
<g id="node9" class="node">
<title>PAKNECONPRVTXN</title>
<g id="a_node9"><a xlink:title="Household demand
FRML  &lt;&gt; PAKNECONPRVTXN = ((PAKNECONENGYSH**PAKCESENGYCON)*PAKNECONENGYXN**(1-PAKCESENGYCON)+(PAKNECONOTHRSH**PAKCESENGYCON)*PAKNECONOTHRXN**(1-PAKCESENGYCON))**(1/(1-PAKCESENGYCON)) $">
<polygon fill="#63b8ff" stroke="black" points="307.5,-599 59.5,-599 59.5,-563 307.5,-563 307.5,-599"/>
<text text-anchor="start" x="65.5" y="-576.8" font-family="Times New Roman,serif" font-size="14.00" fill="blue">PAKNECONPRVTXN:Household demand</text>
</a>
</g>
</g>
<!-- PAKNECONPRVTXN&#45;&gt;PAKNECONPRVTKN -->
<g id="edge11" class="edge">
<title>PAKNECONPRVTXN-&gt;PAKNECONPRVTKN</title>
<g id="a_edge11"><a xlink:href="bogus" xlink:title=" PAKNECONPRVTXN -&gt; PAKNECONPRVTKN Min. att. -5706%  max: 593%">
<path fill="none" stroke="black" stroke-width="8" d="M307.69,-565.42C327.62,-562.14 347.95,-558.34 367,-554 402.45,-545.93 441.15,-534.21 473.04,-523.76"/>
<polygon fill="black" stroke="black" stroke-width="8" points="475.14,-530.44 482.42,-520.64 470.72,-517.15 475.14,-530.44"/>
</a>
</g>
</g>
<!-- PAKSMAGRFSNGKN -->
<g id="node10" class="node">
<title>PAKSMAGRFSNGKN</title>
<g id="a_node10"><a xlink:title="PAKSMAGRFSNGKN
FRML  &lt;&gt; PAKSMAGRFSNGKN = ((1+1.92407325889309)*(0.00246195499563977*PAKNECONPRVTKN+0*PAKNECONGOVTKN+0*PAKNEGDIFTOTKN+0.00130433854799597*PAKNEEXPGNFSKN+0.00497657560072267*PAKNEGDISTKBKN)-1.14989260682794E-05*PAKNEIMPGNFSKN-2.46467171367829E-07*PAKNYTAXNINDKN-26993)/(1+0.506095544048804) $">
<polygon fill="#63b8ff" stroke="black" points="991,-653 846,-653 846,-617 991,-617 991,-653"/>
<text text-anchor="start" x="852.5" y="-630.8" font-family="Times New Roman,serif" font-size="14.00" fill="blue">PAKSMAGRFSNGKN:</text>
</a>
</g>
</g>
<!-- PAKSMSRVHSNGKN -->
<g id="node11" class="node">
<title>PAKSMSRVHSNGKN</title>
<g id="a_node11"><a xlink:title="PAKSMSRVHSNGKN
FRML  &lt;&gt; PAKSMSRVHSNGKN = ((1+0.782809577554843)*(0.0647364660896117*PAKNECONPRVTKN+0*PAKNECONGOVTKN+0.00605333595533851*PAKNEGDIFTOTKN+0.03048358523237*PAKNEEXPGNFSKN+0*PAKNEGDISTKBKN)-0.0244768173208691*PAKNEIMPGNFSKN-0.0684093628903126*PAKNYTAXNINDKN-0)/(1+0.150771193398883) $">
<polygon fill="#63b8ff" stroke="black" points="991,-599 846,-599 846,-563 991,-563 991,-599"/>
<text text-anchor="start" x="852.5" y="-576.8" font-family="Times New Roman,serif" font-size="14.00" fill="blue">PAKSMSRVHSNGKN:</text>
</a>
</g>
</g>
<!-- PAKSMINDMNGSKN -->
<g id="node12" class="node">
<title>PAKSMINDMNGSKN</title>
<g id="a_node12"><a xlink:title="PAKSMINDMNGSKN
FRML  &lt;&gt; PAKSMINDMNGSKN = ((1+6.96158341862144)*(0.0132800565666619*PAKNECONPRVTKN+0*PAKNECONGOVTKN+0*PAKNEGDIFTOTKN+0.00704674623894759*PAKNEEXPGNFSKN+0.024122890632682*PAKNEGDISTKBKN)-0.134221966110302*PAKNEIMPGNFSKN-0.500981557895139*PAKNYTAXNINDKN-123652.869264758)/(1+0.200800622280983) $">
<polygon fill="#63b8ff" stroke="black" points="991.5,-545 845.5,-545 845.5,-509 991.5,-509 991.5,-545"/>
<text text-anchor="start" x="851.5" y="-522.8" font-family="Times New Roman,serif" font-size="14.00" fill="blue">PAKSMINDMNGSKN:</text>
</a>
</g>
</g>
<!-- PAKNECONPRVTKN&#45;&gt;PAKNECONENGYKN -->
<g id="edge3" class="edge">
<title>PAKNECONPRVTKN-&gt;PAKNECONENGYKN</title>
<g id="a_edge3"><a xlink:href="bogus" xlink:title=" PAKNECONPRVTKN -&gt; PAKNECONENGYKN Min. att. -699%  max: 3890%">
<path fill="none" stroke="black" stroke-width="8" d="M544.13,-518.11C549.38,-585.52 577.53,-823.56 717,-932 732.71,-944.21 751.28,-952.34 770.68,-957.6"/>
<polygon fill="black" stroke="black" stroke-width="8" points="769.01,-964.4 780.32,-959.81 772.14,-950.75 769.01,-964.4"/>
</a>
</g>
</g>
<!-- PAKNECONPRVTKN&#45;&gt;PAKNECONPRVTKN_FITTED -->
<g id="edge9" class="edge">
<title>PAKNECONPRVTKN-&gt;PAKNECONPRVTKN_FITTED</title>
<g id="a_edge9"><a xlink:href="bogus" xlink:title=" PAKNECONPRVTKN -&gt; PAKNECONPRVTKN_FITTED Min. att. -786%  max: 175%">
<path fill="none" stroke="black" stroke-width="8" d="M545.29,-518.44C553.81,-578.85 589.41,-772.41 717.18,-876.5"/>
<polygon fill="black" stroke="black" stroke-width="8" points="712.53,-881.76 724.73,-882.33 721.09,-870.68 712.53,-881.76"/>
</a>
</g>
</g>
<!-- PAKNECONPRVTKN&#45;&gt;PAKSMENGTOTLKN -->
<g id="edge10" class="edge">
<title>PAKNECONPRVTKN-&gt;PAKSMENGTOTLKN</title>
<g id="a_edge10"><a xlink:href="bogus" xlink:title=" PAKNECONPRVTKN -&gt; PAKSMENGTOTLKN Min. att. -14%  max: 2186%">
<path fill="none" stroke="black" stroke-width="8" d="M546.7,-518.19C559.21,-574.49 605.48,-746.73 717,-824 749.3,-846.38 791.65,-854.35 829.11,-856.24"/>
<polygon fill="black" stroke="black" stroke-width="8" points="828.76,-863.23 838.95,-856.52 829.15,-849.24 828.76,-863.23"/>
</a>
</g>
</g>
<!-- PAKNECONPRVTKN&#45;&gt;PAKNEGDETTOTKN -->
<g id="edge1" class="edge">
<title>PAKNECONPRVTKN-&gt;PAKNEGDETTOTKN</title>
<g id="a_edge1"><a xlink:href="bogus" xlink:title=" PAKNECONPRVTKN -&gt; PAKNEGDETTOTKN Min. att. -2284%  max: 2484%">
<path fill="none" stroke="black" stroke-width="8" d="M548.73,-518.36C565.42,-568.43 619.1,-707.79 717,-770 746.16,-788.53 782.52,-796.81 816.24,-799.97"/>
<polygon fill="black" stroke="black" stroke-width="8" points="815.63,-806.95 826.1,-800.67 816.62,-792.98 815.63,-806.95"/>
</a>
</g>
</g>
<!-- PAKNECONPRVTKN&#45;&gt;PAKNYGDPMKTPKN -->
<g id="edge21" class="edge">
<title>PAKNECONPRVTKN-&gt;PAKNYGDPMKTPKN</title>
<g id="a_edge21"><a xlink:href="bogus" xlink:title=" PAKNECONPRVTKN -&gt; PAKNYGDPMKTPKN Min. att. -1557%  max: 290%">
<path fill="none" stroke="black" stroke-width="8" d="M551.65,-518.4C572.92,-561.36 632.26,-668.24 717,-716 718.75,-716.98 720.52,-717.94 722.31,-718.86"/>
<polygon fill="black" stroke="black" stroke-width="8" points="719.22,-725.15 731.23,-722.96 725.06,-712.43 719.22,-725.15"/>
</a>
</g>
</g>
<!-- PAKNECONPRVTKN&#45;&gt;PAKSMSRVTRNSKN -->
<g id="edge16" class="edge">
<title>PAKNECONPRVTKN-&gt;PAKSMSRVTRNSKN</title>
<g id="a_edge16"><a xlink:href="bogus" xlink:title=" PAKNECONPRVTKN -&gt; PAKSMSRVTRNSKN Min. att. 87%  max: 592%">
<path fill="none" stroke="black" stroke-width="8" d="M556.34,-518.42C582.66,-553.16 644.99,-627.94 717,-662 751.95,-678.53 793.91,-685.84 830.39,-688.79"/>
<polygon fill="black" stroke="black" stroke-width="8" points="829.87,-695.78 840.3,-689.44 830.78,-681.81 829.87,-695.78"/>
</a>
</g>
</g>
<!-- PAKNECONPRVTKN&#45;&gt;PAKSMAGRFSNGKN -->
<g id="edge18" class="edge">
<title>PAKNECONPRVTKN-&gt;PAKSMAGRFSNGKN</title>
<g id="a_edge18"><a xlink:href="bogus" xlink:title=" PAKNECONPRVTKN -&gt; PAKSMAGRFSNGKN Min. att. -29%  max: 170%">
<path fill="none" stroke="black" stroke-width="8" d="M565.56,-518.43C597.26,-543.25 657.77,-586.74 717,-608 752.53,-620.76 793.57,-627.56 829.22,-631.16"/>
<polygon fill="black" stroke="black" stroke-width="8" points="828.18,-638.1 838.77,-632.02 829.44,-624.15 828.18,-638.1"/>
</a>
</g>
</g>
<!-- PAKNECONPRVTKN&#45;&gt;PAKSMSRVHSNGKN -->
<g id="edge2" class="edge">
<title>PAKNECONPRVTKN-&gt;PAKSMSRVHSNGKN</title>
<g id="a_edge2"><a xlink:href="bogus" xlink:title=" PAKNECONPRVTKN -&gt; PAKSMSRVHSNGKN Min. att. 34%  max: 147%">
<path fill="none" stroke="black" stroke-width="8" d="M594.55,-518.49C628.86,-530.17 675.15,-544.76 717,-554 753.25,-562.01 793.75,-568.01 828.81,-572.29"/>
<polygon fill="black" stroke="black" stroke-width="8" points="827.86,-579.23 838.61,-573.44 829.5,-565.32 827.86,-579.23"/>
</a>
</g>
</g>
<!-- PAKNECONPRVTKN&#45;&gt;PAKSMINDMNGSKN -->
<g id="edge12" class="edge">
<title>PAKNECONPRVTKN-&gt;PAKSMINDMNGSKN</title>
<g id="a_edge12"><a xlink:href="bogus" xlink:title=" PAKNECONPRVTKN -&gt; PAKSMINDMNGSKN Min. att. -1229%  max: 1716%">
<path fill="none" stroke="black" stroke-width="8" d="M681.39,-509.98C730.41,-513.51 784.23,-517.39 828.1,-520.55"/>
<polygon fill="black" stroke="black" stroke-width="8" points="827.57,-527.53 838.05,-521.27 828.57,-513.57 827.57,-527.53"/>
</a>
</g>
</g>
<!-- PAKNECONOTHRKN -->
<g id="node14" class="node">
<title>PAKNECONOTHRKN</title>
<g id="a_node14"><a xlink:title="Other Consumption
FRML  &lt;&gt; PAKNECONOTHRKN = PAKNECONOTHRSH**(PAKCESENGYCON)*(PAKNECONPRVTKN*(PAKNECONPRVTXN/PAKNECONOTHRXN)**(PAKCESENGYCON)) $">
<polygon fill="#63b8ff" stroke="black" points="1045,-491 792,-491 792,-455 1045,-455 1045,-491"/>
<text text-anchor="start" x="798.5" y="-468.8" font-family="Times New Roman,serif" font-size="14.00" fill="blue">PAKNECONOTHRKN:Other Consumption</text>
</a>
</g>
</g>
<!-- PAKNECONPRVTKN&#45;&gt;PAKNECONOTHRKN -->
<g id="edge13" class="edge">
<title>PAKNECONPRVTKN-&gt;PAKNECONOTHRKN</title>
<g id="a_edge13"><a xlink:href="bogus" xlink:title=" PAKNECONPRVTKN -&gt; PAKNECONOTHRKN Min. att. -12063%  max: 323%">
<path fill="none" stroke="black" stroke-width="8" d="M681.39,-490.02C711.89,-487.82 744.25,-485.49 774.92,-483.28"/>
<polygon fill="black" stroke="black" stroke-width="8" points="775.33,-490.27 784.8,-482.57 774.32,-476.3 775.33,-490.27"/>
</a>
</g>
</g>
<!-- PAKSMSRVWHSLKN -->
<g id="node16" class="node">
<title>PAKSMSRVWHSLKN</title>
<g id="a_node16"><a xlink:title="PAKSMSRVWHSLKN
FRML  &lt;&gt; PAKSMSRVWHSLKN = ((1+1.17766663382018E-08)*(0*PAKNECONPRVTKN+0*PAKNECONGOVTKN+0*PAKNEGDIFTOTKN+0*PAKNEEXPGNFSKN+0*PAKNEGDISTKBKN)-0*PAKNEIMPGNFSKN-0*PAKNYTAXNINDKN--4160770)/(1+0.265916086910196) $">
<polygon fill="#63b8ff" stroke="black" points="992,-437 845,-437 845,-401 992,-401 992,-437"/>
<text text-anchor="start" x="851.5" y="-414.8" font-family="Times New Roman,serif" font-size="14.00" fill="blue">PAKSMSRVWHSLKN:</text>
</a>
</g>
</g>
<!-- PAKNECONPRVTKN&#45;&gt;PAKSMSRVWHSLKN -->
<g id="edge8" class="edge">
<title>PAKNECONPRVTKN-&gt;PAKSMSRVWHSLKN</title>
<g id="a_edge8"><a xlink:href="bogus" xlink:title=" PAKNECONPRVTKN -&gt; PAKSMSRVWHSLKN Min. att. 0%  max: 0%">
<path fill="none" stroke="black" d="M594.55,-481.51C628.86,-469.83 675.15,-455.24 717,-446 754.92,-437.62 797.48,-431.45 833.61,-427.13"/>
<polygon fill="black" stroke="black" points="833.57,-430.66 843.1,-426.03 832.76,-423.71 833.57,-430.66"/>
</a>
</g>
</g>
<!-- PAKSMAGRFSTYKN -->
<g id="node17" class="node">
<title>PAKSMAGRFSTYKN</title>
<g id="a_node17"><a xlink:title="PAKSMAGRFSTYKN
FRML  &lt;&gt; PAKSMAGRFSTYKN = ((1+0.195965019358753)*(0.010131919293849*PAKNECONPRVTKN+0*PAKNECONGOVTKN+0*PAKNEGDIFTOTKN+0.000136733767007103*PAKNEEXPGNFSKN+0.0199955288980741*PAKNEGDISTKBKN)-0.00076829563200478*PAKNEIMPGNFSKN-0.00172030587371022*PAKNYTAXNINDKN-65421)/(1+0.319587584852584) $">
<polygon fill="#63b8ff" stroke="black" points="990.5,-383 846.5,-383 846.5,-347 990.5,-347 990.5,-383"/>
<text text-anchor="start" x="852.5" y="-360.8" font-family="Times New Roman,serif" font-size="14.00" fill="blue">PAKSMAGRFSTYKN:</text>
</a>
</g>
</g>
<!-- PAKNECONPRVTKN&#45;&gt;PAKSMAGRFSTYKN -->
<g id="edge15" class="edge">
<title>PAKNECONPRVTKN-&gt;PAKSMAGRFSTYKN</title>
<g id="a_edge15"><a xlink:href="bogus" xlink:title=" PAKNECONPRVTKN -&gt; PAKSMAGRFSTYKN Min. att. 96%  max: 371%">
<path fill="none" stroke="black" stroke-width="8" d="M565.56,-481.57C597.26,-456.75 657.77,-413.26 717,-392 752.67,-379.19 793.9,-372.39 829.65,-368.8"/>
<polygon fill="black" stroke="black" stroke-width="8" points="829.9,-375.8 839.24,-367.94 828.66,-361.86 829.9,-375.8"/>
</a>
</g>
</g>
<!-- PAKSMAGRCRPSKN -->
<g id="node18" class="node">
<title>PAKSMAGRCRPSKN</title>
<g id="a_node18"><a xlink:title="PAKSMAGRCRPSKN
FRML  &lt;&gt; PAKSMAGRCRPSKN = ((1+2.09928590574241)*(0.144287620838506*PAKNECONPRVTKN+0*PAKNECONGOVTKN+0*PAKNEGDIFTOTKN+0.0572678299039023*PAKNEEXPGNFSKN+0.267381669083985*PAKNEGDISTKBKN)-0.0736247088197363*PAKNEIMPGNFSKN-0.0407034395686347*PAKNYTAXNINDKN-906311)/(1+0.396041694659877) $">
<polygon fill="#63b8ff" stroke="black" points="990.5,-329 846.5,-329 846.5,-293 990.5,-293 990.5,-329"/>
<text text-anchor="start" x="852.5" y="-306.8" font-family="Times New Roman,serif" font-size="14.00" fill="blue">PAKSMAGRCRPSKN:</text>
</a>
</g>
</g>
<!-- PAKNECONPRVTKN&#45;&gt;PAKSMAGRCRPSKN -->
<g id="edge22" class="edge">
<title>PAKNECONPRVTKN-&gt;PAKSMAGRCRPSKN</title>
<g id="a_edge22"><a xlink:href="bogus" xlink:title=" PAKNECONPRVTKN -&gt; PAKSMAGRCRPSKN Min. att. -25%  max: 208%">
<path fill="none" stroke="black" stroke-width="8" d="M556.34,-481.58C582.66,-446.84 644.99,-372.06 717,-338 751.67,-321.6 793.25,-314.28 829.53,-311.28"/>
<polygon fill="black" stroke="black" stroke-width="8" points="829.85,-318.27 839.36,-310.62 828.92,-304.3 829.85,-318.27"/>
</a>
</g>
</g>
<!-- PAKSMSRVGOVSKN -->
<g id="node21" class="node">
<title>PAKSMSRVGOVSKN</title>
<g id="a_node21"><a xlink:title="PAKSMSRVGOVSKN
FRML  &lt;&gt; PAKSMSRVGOVSKN = ((1+0)*(0*PAKNECONPRVTKN+0.789129947325563*PAKNECONGOVTKN+0*PAKNEGDIFTOTKN+0*PAKNEEXPGNFSKN+0*PAKNEGDISTKBKN)-0*PAKNEIMPGNFSKN-0*PAKNYTAXNINDKN-0)/(1+0.947258014252215) $">
<polygon fill="#63b8ff" stroke="black" points="991,-275 846,-275 846,-239 991,-239 991,-275"/>
<text text-anchor="start" x="852.5" y="-252.8" font-family="Times New Roman,serif" font-size="14.00" fill="blue">PAKSMSRVGOVSKN:</text>
</a>
</g>
</g>
<!-- PAKNECONPRVTKN&#45;&gt;PAKSMSRVGOVSKN -->
<g id="edge7" class="edge">
<title>PAKNECONPRVTKN-&gt;PAKSMSRVGOVSKN</title>
<g id="a_edge7"><a xlink:href="bogus" xlink:title=" PAKNECONPRVTKN -&gt; PAKSMSRVGOVSKN Min. att. 0%  max: 0%">
<path fill="none" stroke="black" d="M551.65,-481.6C572.92,-438.64 632.26,-331.76 717,-284 752.37,-264.06 796.67,-256.63 834.63,-254.47"/>
<polygon fill="black" stroke="black" points="834.33,-257.98 844.16,-254.04 834.02,-250.99 834.33,-257.98"/>
</a>
</g>
</g>
<!-- PAKSMINDCNSTKN -->
<g id="node22" class="node">
<title>PAKSMINDCNSTKN</title>
<g id="a_node22"><a xlink:title="PAKSMINDCNSTKN
FRML  &lt;&gt; PAKSMINDCNSTKN = ((1+0.0370651228196874)*(0*PAKNECONPRVTKN+0*PAKNECONGOVTKN+0.433487212699245*PAKNEGDIFTOTKN+0.00170061231445462*PAKNEEXPGNFSKN+0.0166541213494276*PAKNEGDISTKBKN)-0.00444968266528859*PAKNEIMPGNFSKN-0*PAKNYTAXNINDKN-55116.3653855153)/(1+1.91367284458402) $">
<polygon fill="#63b8ff" stroke="black" points="989,-221 848,-221 848,-185 989,-185 989,-221"/>
<text text-anchor="start" x="854.5" y="-198.8" font-family="Times New Roman,serif" font-size="14.00" fill="blue">PAKSMINDCNSTKN:</text>
</a>
</g>
</g>
<!-- PAKNECONPRVTKN&#45;&gt;PAKSMINDCNSTKN -->
<g id="edge26" class="edge">
<title>PAKNECONPRVTKN-&gt;PAKSMINDCNSTKN</title>
<g id="a_edge26"><a xlink:href="bogus" xlink:title=" PAKNECONPRVTKN -&gt; PAKSMINDCNSTKN Min. att. 0%  max: 0%">
<path fill="none" stroke="black" d="M548.73,-481.64C565.42,-431.57 619.1,-292.21 717,-230 752.07,-207.71 797.56,-200.26 836.34,-198.69"/>
<polygon fill="black" stroke="black" points="836.19,-202.19 846.09,-198.43 836,-195.2 836.19,-202.19"/>
</a>
</g>
</g>
<!-- PAKSMINDOTHRTKN -->
<g id="node24" class="node">
<title>PAKSMINDOTHRTKN</title>
<g id="a_node24"><a xlink:title="PAKSMINDOTHRTKN
FRML  &lt;&gt; PAKSMINDOTHRTKN = ((1+0.483473985412524)*(0.40172973397176*PAKNECONPRVTKN+0*PAKNECONGOVTKN+0.560459287907094*PAKNEGDIFTOTKN+0.719299486591763*PAKNEEXPGNFSKN+0.620970563578771*PAKNEGDISTKBKN)-0.606734386430279*PAKNEIMPGNFSKN-0.866045585295928*PAKNYTAXNINDKN-2983275.63714814)/(1+2.46379868577176) $">
<polygon fill="#63b8ff" stroke="black" points="994,-167 843,-167 843,-131 994,-131 994,-167"/>
<text text-anchor="start" x="849.5" y="-144.8" font-family="Times New Roman,serif" font-size="14.00" fill="blue">PAKSMINDOTHRTKN:</text>
</a>
</g>
</g>
<!-- PAKNECONPRVTKN&#45;&gt;PAKSMINDOTHRTKN -->
<g id="edge17" class="edge">
<title>PAKNECONPRVTKN-&gt;PAKSMINDOTHRTKN</title>
<g id="a_edge17"><a xlink:href="bogus" xlink:title=" PAKNECONPRVTKN -&gt; PAKSMINDOTHRTKN Min. att. -11779%  max: 971%">
<path fill="none" stroke="black" stroke-width="8" d="M546.7,-481.81C559.21,-425.51 605.48,-253.27 717,-176 748.42,-154.23 789.36,-146.09 826.05,-143.93"/>
<polygon fill="black" stroke="black" stroke-width="8" points="825.85,-150.94 835.59,-143.58 825.34,-136.95 825.85,-150.94"/>
</a>
</g>
</g>
<!-- PAKNECONPRVTCN -->
<g id="node26" class="node">
<title>PAKNECONPRVTCN</title>
<g id="a_node26"><a xlink:title="Household demand
FRML  &lt;&gt; PAKNECONPRVTCN = PAKNECONPRVTKN*PAKNECONPRVTXN $">
<polygon fill="#63b8ff" stroke="black" points="1042,-113 795,-113 795,-77 1042,-77 1042,-113"/>
<text text-anchor="start" x="801.5" y="-90.8" font-family="Times New Roman,serif" font-size="14.00" fill="blue">PAKNECONPRVTCN:Household demand</text>
</a>
</g>
</g>
<!-- PAKNECONPRVTKN&#45;&gt;PAKNECONPRVTCN -->
<g id="edge19" class="edge">
<title>PAKNECONPRVTKN-&gt;PAKNECONPRVTCN</title>
<g id="a_edge19"><a xlink:href="bogus" xlink:title=" PAKNECONPRVTKN -&gt; PAKNECONPRVTCN Min. att. -720%  max: 6450%">
<path fill="none" stroke="black" stroke-width="8" d="M545.29,-481.56C554.09,-419.14 591.81,-214.55 717,-122 734.92,-108.75 756.28,-100.41 778.27,-95.36"/>
<polygon fill="black" stroke="black" stroke-width="8" points="779.42,-102.27 787.91,-93.5 776.76,-88.52 779.42,-102.27"/>
</a>
</g>
</g>
<!-- PAKSMSRVFINSKN -->
<g id="node27" class="node">
<title>PAKSMSRVFINSKN</title>
<g id="a_node27"><a xlink:title="PAKSMSRVFINSKN
FRML  &lt;&gt; PAKSMSRVFINSKN = ((1+1.04148314760779)*(0.0520379651885469*PAKNECONPRVTKN+0*PAKNECONGOVTKN+0*PAKNEGDIFTOTKN+0.00879145012359898*PAKNEEXPGNFSKN+0*PAKNEGDISTKBKN)-0.00594416979264236*PAKNEIMPGNFSKN-0.000103762679145856*PAKNYTAXNINDKN-0)/(1+0.24687745523084) $">
<polygon fill="#63b8ff" stroke="black" points="987,-59 850,-59 850,-23 987,-23 987,-59"/>
<text text-anchor="start" x="856.5" y="-36.8" font-family="Times New Roman,serif" font-size="14.00" fill="blue">PAKSMSRVFINSKN:</text>
</a>
</g>
</g>
<!-- PAKNECONPRVTKN&#45;&gt;PAKSMSRVFINSKN -->
<g id="edge24" class="edge">
<title>PAKNECONPRVTKN-&gt;PAKSMSRVFINSKN</title>
<g id="a_edge24"><a xlink:href="bogus" xlink:title=" PAKNECONPRVTKN -&gt; PAKSMSRVFINSKN Min. att. -104%  max: 125%">
<path fill="none" stroke="black" stroke-width="8" d="M544.13,-481.89C549.38,-414.48 577.53,-176.44 717,-68 749.37,-42.83 793.9,-35.01 832.78,-33.93"/>
<polygon fill="black" stroke="black" stroke-width="8" points="832.66,-40.93 842.63,-33.9 832.61,-26.93 832.66,-40.93"/>
</a>
</g>
</g>
<!-- PAKNECONPRVTKN_D -->
<g id="node15" class="node">
<title>PAKNECONPRVTKN_D</title>
<g id="a_node15"><a xlink:title="Exo dummy:Household Consumption
Exogen">
<polygon fill="yellow" stroke="black" points="367,-545 0,-545 0,-509 367,-509 367,-545"/>
<text text-anchor="start" x="6.5" y="-522.8" font-family="Times New Roman,serif" font-size="14.00" fill="blue">PAKNECONPRVTKN_D:Exo dummy:Household Consumption</text>
</a>
</g>
</g>
<!-- PAKNECONPRVTKN_D&#45;&gt;PAKNECONPRVTKN -->
<g id="edge5" class="edge">
<title>PAKNECONPRVTKN_D-&gt;PAKNECONPRVTKN</title>
<g id="a_edge5"><a xlink:href="bogus" xlink:title=" PAKNECONPRVTKN_D -&gt; PAKNECONPRVTKN Min. att. 0%  max: 0%">
<path fill="none" stroke="black" d="M367.45,-513.14C375.38,-512.54 383.29,-511.94 391.13,-511.35"/>
<polygon fill="black" stroke="black" points="391.33,-514.85 401.04,-510.6 390.8,-507.87 391.33,-514.85"/>
</a>
</g>
</g>
<!-- DURING_2010 -->
<g id="node19" class="node">
<title>DURING_2010</title>
<g id="a_node19"><a xlink:title="DURING_2010
Exogen">
<polygon fill="yellow" stroke="black" points="235,-491 132,-491 132,-455 235,-455 235,-491"/>
<text text-anchor="start" x="138.5" y="-468.8" font-family="Times New Roman,serif" font-size="14.00" fill="blue">DURING_2010:</text>
</a>
</g>
</g>
<!-- DURING_2010&#45;&gt;PAKNECONPRVTKN -->
<g id="edge23" class="edge">
<title>DURING_2010-&gt;PAKNECONPRVTKN</title>
<g id="a_edge23"><a xlink:href="bogus" xlink:title=" DURING_2010 -&gt; PAKNECONPRVTKN Min. att. 0%  max: 0%">
<path fill="none" stroke="black" d="M235.2,-476.84C276.02,-479.93 335.59,-484.44 391.33,-488.66"/>
<polygon fill="black" stroke="black" points="391.05,-492.15 401.28,-489.42 391.58,-485.17 391.05,-492.15"/>
</a>
</g>
</g>
<!-- PAKFMLBLPOLYXN -->
<g id="node20" class="node">
<title>PAKFMLBLPOLYXN</title>
<g id="a_node20"><a xlink:title="Policy Rate
FRML &lt;Z,EXO&gt; PAKFMLBLPOLYXN = (-100*PAKFMLBLPOLYXN_A+100* (0.905129162122953*PAKFMLBLPOLYXN(-1)/100+(1-0.905129162122953)*(PAKMPPOLNATRXN/100+1.2*(((LOG(PAKNECONPRVTXN))-(LOG(PAKNECONPRVTXN(-1))))-PAKINFLEXPT/100)+0.5*PAKNYGDPGAP_/100)) ) * (1-PAKFMLBLPOLYXN_D)+ PAKFMLBLPOLYXN_X*PAKFMLBLPOLYXN_D  $">
<polygon fill="#63b8ff" stroke="black" points="286,-437 81,-437 81,-401 286,-401 286,-437"/>
<text text-anchor="start" x="87.5" y="-414.8" font-family="Times New Roman,serif" font-size="14.00" fill="blue">PAKFMLBLPOLYXN:Policy Rate</text>
</a>
</g>
</g>
<!-- PAKFMLBLPOLYXN&#45;&gt;PAKNECONPRVTKN -->
<g id="edge20" class="edge">
<title>PAKFMLBLPOLYXN-&gt;PAKNECONPRVTKN</title>
<g id="a_edge20"><a xlink:href="bogus" xlink:title=" PAKFMLBLPOLYXN -&gt; PAKNECONPRVTKN Min. att. -160%  max: 20%">
<path fill="none" stroke="black" stroke-width="8" d="M286.38,-431.24C312.78,-435.18 341.08,-440.1 367,-446 402.45,-454.07 441.15,-465.79 473.04,-476.24"/>
<polygon fill="black" stroke="black" stroke-width="8" points="470.72,-482.85 482.42,-479.36 475.14,-469.56 470.72,-482.85"/>
</a>
</g>
</g>
<!-- PAKNECONPRVTKN_X -->
<g id="node23" class="node">
<title>PAKNECONPRVTKN_X</title>
<g id="a_node23"><a xlink:title="Exo value:Household Consumption
Exogen">
<polygon fill="yellow" stroke="black" points="360,-383 7,-383 7,-347 360,-347 360,-383"/>
<text text-anchor="start" x="13.5" y="-360.8" font-family="Times New Roman,serif" font-size="14.00" fill="blue">PAKNECONPRVTKN_X:Exo value:Household Consumption</text>
</a>
</g>
</g>
<!-- PAKNECONPRVTKN_X&#45;&gt;PAKNECONPRVTKN -->
<g id="edge4" class="edge">
<title>PAKNECONPRVTKN_X-&gt;PAKNECONPRVTKN</title>
<g id="a_edge4"><a xlink:href="bogus" xlink:title=" PAKNECONPRVTKN_X -&gt; PAKNECONPRVTKN Min. att. 0%  max: 0%">
<path fill="none" stroke="black" d="M339.45,-383.37C348.88,-385.89 358.13,-388.75 367,-392 421.01,-411.79 476.25,-449.7 509.59,-474.93"/>
<polygon fill="black" stroke="black" points="507.13,-477.45 517.2,-480.76 511.39,-471.89 507.13,-477.45"/>
</a>
</g>
</g>
<!-- PAKNECONPRVTKN_A -->
<g id="node25" class="node">
<title>PAKNECONPRVTKN_A</title>
<g id="a_node25"><a xlink:title="Add factor:Household Consumption
Exogen">
<polygon fill="yellow" stroke="black" points="362,-329 5,-329 5,-293 362,-293 362,-329"/>
<text text-anchor="start" x="11.5" y="-306.8" font-family="Times New Roman,serif" font-size="14.00" fill="blue">PAKNECONPRVTKN_A:Add factor:Household Consumption</text>
</a>
</g>
</g>
<!-- PAKNECONPRVTKN_A&#45;&gt;PAKNECONPRVTKN -->
<g id="edge6" class="edge">
<title>PAKNECONPRVTKN_A-&gt;PAKNECONPRVTKN</title>
<g id="a_edge6"><a xlink:href="bogus" xlink:title=" PAKNECONPRVTKN_A -&gt; PAKNECONPRVTKN Min. att. 0%  max: 0%">
<path fill="none" stroke="black" d="M346.35,-329.45C353.44,-331.97 360.36,-334.81 367,-338 433.18,-369.83 491.42,-435.67 520.78,-472.87"/>
<polygon fill="black" stroke="black" points="517.79,-474.72 526.69,-480.47 523.32,-470.43 517.79,-474.72"/>
</a>
</g>
</g>
</g>
</svg>