<svg xmlns="http://www.w3.org/2000/svg" xmlns:xlink="http://www.w3.org/1999/xlink" width="432pt" height="253pt" viewBox="0.00 0.00 432.00 252.88">
<g id="graph0" class="graph" transform="scale(0.43487 0.43487) rotate(0) translate(4 577.5)">
<title>TD</title>
<polygon fill="white" stroke="none" points="-4,4 -4,-577.5 989.4,-577.5 989.4,4 -4,4"/>
<text text-anchor="middle" x="492.7" y="-7.2" font-family="Times New Roman,serif" font-size="14.00">FY</text>
<!-- PY -->
<g id="node1" class="node">
<title>PY</title>
<g id="a_node1"><a xlink:title="BNP-deflator
FRML &lt;_D&gt; PY            = Y/FY $">
<polygon fill="#63b8ff" stroke="black" points="865.8,-103.5 761.2,-103.5 761.2,-67.5 865.8,-67.5 865.8,-103.5"/>
<text text-anchor="start" x="767" y="-80.45" font-family="Times New Roman,serif" font-size="14.00" fill="blue">PY:BNP-deflator</text>
</a>
</g>
</g>
<!-- FY -->
<g id="node12" class="node">
<title>FY</title>
<g id="a_node12"><a xlink:title="BNP
FRML &lt;_I&gt; FY            = (FAE*PAE(-1)-FM*PM(-1))/PY(-1)$">
<polygon fill="red" stroke="black" points="985.4,-172.5 927.3,-172.5 927.3,-136.5 985.4,-136.5 985.4,-172.5"/>
<text text-anchor="start" x="933.1" y="-149.45" font-family="Times New Roman,serif" font-size="14.00" fill="blue">FY:BNP</text>
</a>
</g>
</g>
<!-- PY&#45;&gt;FY -->
<g id="edge9" class="edge">
<title>PY-&gt;FY</title>
<g id="a_edge9"><a xlink:href="bogus" xlink:title="NA">
<path fill="none" stroke="black" stroke-width="0.5" d="M866.14,-97.07C874.63,-100.61 883.27,-104.53 891.3,-108.5 904.36,-114.96 918.43,-122.96 930.04,-130.65"/>
<polygon fill="black" stroke="black" stroke-width="0.5" points="927.8,-133.36 938.01,-136.17 931.78,-127.6 927.8,-133.36"/>
</a>
</g>
</g>
<!-- Y -->
<g id="node2" class="node">
<title>Y</title>
<g id="a_node2"><a xlink:title="BNP
FRML &lt;_I&gt; Y             = CP + CO + I - M + E $">
<polygon fill="#63b8ff" stroke="black" points="599.78,-60.5 545.78,-60.5 545.78,-24.5 599.78,-24.5 599.78,-60.5"/>
<text text-anchor="start" x="553.28" y="-37.45" font-family="Times New Roman,serif" font-size="14.00" fill="blue">Y:BNP</text>
</a>
</g>
</g>
<!-- Y&#45;&gt;PY -->
<g id="edge21" class="edge">
<title>Y-&gt;PY</title>
<g id="a_edge21"><a xlink:href="bogus" xlink:title="NA">
<path fill="none" stroke="black" stroke-width="0.5" d="M600.23,-47.27C636.35,-53.77 702.16,-65.63 750.97,-74.42"/>
<polygon fill="black" stroke="black" stroke-width="0.5" points="750.33,-77.86 760.8,-76.19 751.58,-70.97 750.33,-77.86"/>
</a>
</g>
</g>
<!-- FM -->
<g id="node3" class="node">
<title>FM</title>
<g id="a_node3"><a xlink:title="Import
FRML &lt;_I&gt; FM            = (FMX*PMX(-1) + FME*PME(-1) + FMS*PMS(-1) + FMT*PMT(-1))/PM(-1) $">
<polygon fill="#63b8ff" stroke="black" points="609.33,-384.5 536.23,-384.5 536.23,-348.5 609.33,-348.5 609.33,-384.5"/>
<text text-anchor="start" x="542.03" y="-361.45" font-family="Times New Roman,serif" font-size="14.00" fill="blue">FM:Import</text>
</a>
</g>
</g>
<!-- PM -->
<g id="node8" class="node">
<title>PM</title>
<g id="a_node8"><a xlink:title="Pris på import
FRML &lt;_D&gt; PM            = M/FM $">
<polygon fill="#63b8ff" stroke="black" points="870.3,-384.5 756.7,-384.5 756.7,-348.5 870.3,-348.5 870.3,-384.5"/>
<text text-anchor="start" x="762.5" y="-361.45" font-family="Times New Roman,serif" font-size="14.00" fill="blue">PM:Pris på import</text>
</a>
</g>
</g>
<!-- FM&#45;&gt;PM -->
<g id="edge2" class="edge">
<title>FM-&gt;PM</title>
<g id="a_edge2"><a xlink:href="bogus" xlink:title="NA">
<path fill="none" stroke="black" stroke-width="0.5" d="M609.77,-361.5C645.86,-359.63 702.25,-359.26 746.41,-360.39"/>
<polygon fill="black" stroke="black" stroke-width="0.5" points="746.1,-363.88 756.2,-360.67 746.31,-356.88 746.1,-363.88"/>
</a>
</g>
</g>
<!-- FM&#45;&gt;FY -->
<g id="edge25" class="edge">
<title>FM-&gt;FY</title>
<g id="a_edge25"><a xlink:href="bogus" xlink:title="NA">
<path fill="none" stroke="black" stroke-width="0.5" d="M609.69,-362.7C635.55,-359.05 670.82,-352.14 699.7,-339.5 792.93,-298.7 885.46,-219.71 929.23,-179.43"/>
<polygon fill="black" stroke="black" stroke-width="0.5" points="931.37,-182.21 936.32,-172.84 926.61,-177.08 931.37,-182.21"/>
</a>
</g>
</g>
<!-- PMX -->
<g id="node4" class="node">
<title>PMX</title>
<g id="a_node4"><a xlink:title="Pris på import af varer og tjenester ekskl. energi, søfart og turisme
Exogen">
<polygon fill="yellow" stroke="black" points="409.85,-573.5 0,-573.5 0,-537.5 409.85,-537.5 409.85,-573.5"/>
<text text-anchor="start" x="5.8" y="-550.45" font-family="Times New Roman,serif" font-size="14.00" fill="blue">PMX:Pris på import af varer og tjenester ekskl. energi, søfart og turisme</text>
</a>
</g>
</g>
<!-- PMX&#45;&gt;FM -->
<g id="edge19" class="edge">
<title>PMX-&gt;FM</title>
<g id="a_edge19"><a xlink:href="bogus" xlink:title="NA">
<path fill="none" stroke="black" stroke-width="0.5" d="M398.46,-537.28C402.42,-534.6 406.23,-531.68 409.85,-528.5 456.5,-487.51 400.87,-436.31 445.85,-393.5 467.03,-373.34 499.44,-366.73 526.07,-365.09"/>
<polygon fill="black" stroke="black" stroke-width="0.5" points="526.11,-368.59 535.96,-364.69 525.83,-361.6 526.11,-368.59"/>
</a>
</g>
</g>
<!-- M -->
<g id="node5" class="node">
<title>M</title>
<g id="a_node5"><a xlink:title="Import
FRML &lt;_I&gt; M             = MX + ME + MS + MT $">
<polygon fill="#63b8ff" stroke="black" points="605.58,-438.5 539.98,-438.5 539.98,-402.5 605.58,-402.5 605.58,-438.5"/>
<text text-anchor="start" x="545.78" y="-415.45" font-family="Times New Roman,serif" font-size="14.00" fill="blue">M:Import</text>
</a>
</g>
</g>
<!-- M&#45;&gt;PM -->
<g id="edge13" class="edge">
<title>M-&gt;PM</title>
<g id="a_edge13"><a xlink:href="bogus" xlink:title="NA">
<path fill="none" stroke="black" stroke-width="0.5" d="M605.91,-413.83C631.38,-408.49 667.86,-400.72 699.7,-393.5 714.99,-390.03 731.41,-386.18 746.86,-382.49"/>
<polygon fill="black" stroke="black" stroke-width="0.5" points="747.42,-385.95 756.33,-380.22 745.79,-379.15 747.42,-385.95"/>
</a>
</g>
</g>
<!-- PE -->
<g id="node6" class="node">
<title>PE</title>
<g id="a_node6"><a xlink:title="Pris på eksport
FRML &lt;_D&gt; PE            = E/FE $">
<polygon fill="#63b8ff" stroke="black" points="628.83,-330.5 516.73,-330.5 516.73,-294.5 628.83,-294.5 628.83,-330.5"/>
<text text-anchor="start" x="522.53" y="-307.45" font-family="Times New Roman,serif" font-size="14.00" fill="blue">PE:Pris på eksport</text>
</a>
</g>
</g>
<!-- FAE -->
<g id="node19" class="node">
<title>FAE</title>
<g id="a_node19"><a xlink:title="Endelig efterspørgsel
FRML &lt;_I&gt; FAE           = (FAI*PAI(-1) + FE*PE(-1))/PAE(-1)$">
<polygon fill="#63b8ff" stroke="black" points="891.3,-195.5 735.7,-195.5 735.7,-159.5 891.3,-159.5 891.3,-195.5"/>
<text text-anchor="start" x="741.5" y="-172.45" font-family="Times New Roman,serif" font-size="14.00" fill="blue">FAE:Endelig efterspørgsel</text>
</a>
</g>
</g>
<!-- PE&#45;&gt;FAE -->
<g id="edge3" class="edge">
<title>PE-&gt;FAE</title>
<g id="a_edge3"><a xlink:href="bogus" xlink:title="NA">
<path fill="none" stroke="black" stroke-width="0.5" d="M629.04,-307.36C651.9,-303.56 678.07,-296.97 699.7,-285.5 719.93,-274.78 762.57,-231.19 789.24,-202.77"/>
<polygon fill="black" stroke="black" stroke-width="0.5" points="791.72,-205.25 795.98,-195.55 786.6,-200.47 791.72,-205.25"/>
</a>
</g>
</g>
<!-- FMT -->
<g id="node7" class="node">
<title>FMT</title>
<g id="a_node7"><a xlink:title="Import af turisme
FRML &lt;_I&gt; FMT           = FCT$">
<polygon fill="#63b8ff" stroke="black" points="274.85,-519.5 135,-519.5 135,-483.5 274.85,-483.5 274.85,-519.5"/>
<text text-anchor="start" x="140.8" y="-496.45" font-family="Times New Roman,serif" font-size="14.00" fill="blue">FMT:Import af turisme</text>
</a>
</g>
</g>
<!-- FMT&#45;&gt;FM -->
<g id="edge14" class="edge">
<title>FMT-&gt;FM</title>
<g id="a_edge14"><a xlink:href="bogus" xlink:title="NA">
<path fill="none" stroke="black" stroke-width="0.5" d="M275.09,-508.48C317.85,-509.17 371.67,-503.05 409.85,-474.5 441.4,-450.91 415.26,-418.33 445.85,-393.5 468.25,-375.32 500.05,-368.61 526.09,-366.42"/>
<polygon fill="black" stroke="black" stroke-width="0.5" points="526.01,-369.93 535.76,-365.79 525.55,-362.95 526.01,-369.93"/>
</a>
</g>
</g>
<!-- PM&#45;&gt;FM -->
<g id="edge20" class="edge">
<title>PM-&gt;FM</title>
<g id="a_edge20"><a xlink:href="bogus" xlink:title="NA">
<path fill="none" stroke="black" stroke-width="0.5" d="M756.2,-372.33C714.44,-373.68 658.22,-373.54 619.28,-371.94"/>
<polygon fill="black" stroke="black" stroke-width="0.5" points="619.92,-368.46 609.77,-371.5 619.6,-375.46 619.92,-368.46"/>
</a>
</g>
</g>
<!-- PM&#45;&gt;FY -->
<g id="edge6" class="edge">
<title>PM-&gt;FY</title>
<g id="a_edge6"><a xlink:href="bogus" xlink:title="NA">
<path fill="none" stroke="black" stroke-width="0.5" d="M835.28,-348.28C851.89,-332.97 875.01,-309.88 891.3,-286.5 914.61,-253.03 933.82,-209.79 944.94,-182.09"/>
<polygon fill="black" stroke="black" stroke-width="0.5" points="948.11,-183.57 948.52,-172.99 941.6,-181.01 948.11,-183.57"/>
</a>
</g>
</g>
<!-- FMS -->
<g id="node9" class="node">
<title>FMS</title>
<g id="a_node9"><a xlink:title="Import af søfart
FRML &lt;_D&gt; FMS           = AMSS*FXS + AMSES*FES$">
<polygon fill="#63b8ff" stroke="black" points="269.6,-465.5 140.25,-465.5 140.25,-429.5 269.6,-429.5 269.6,-465.5"/>
<text text-anchor="start" x="146.05" y="-442.45" font-family="Times New Roman,serif" font-size="14.00" fill="blue">FMS:Import af søfart</text>
</a>
</g>
</g>
<!-- FMS&#45;&gt;FM -->
<g id="edge24" class="edge">
<title>FMS-&gt;FM</title>
<g id="a_edge24"><a xlink:href="bogus" xlink:title="NA">
<path fill="none" stroke="black" stroke-width="0.5" d="M270.08,-447.3C311.35,-445.18 365.38,-438.65 409.85,-420.5 428.37,-412.94 427.65,-401.79 445.85,-393.5 471.07,-382.02 501.38,-375.32 525.94,-371.47"/>
<polygon fill="black" stroke="black" stroke-width="0.5" points="526.35,-374.95 535.74,-370.04 525.34,-368.03 526.35,-374.95"/>
</a>
</g>
</g>
<!-- PMT -->
<g id="node10" class="node">
<title>PMT</title>
<g id="a_node10"><a xlink:title="Pris på import af turisme (=PCT)
Exogen">
<polygon fill="yellow" stroke="black" points="317.98,-411.5 91.88,-411.5 91.88,-375.5 317.98,-375.5 317.98,-411.5"/>
<text text-anchor="start" x="97.68" y="-388.45" font-family="Times New Roman,serif" font-size="14.00" fill="blue">PMT:Pris på import af turisme (=PCT)</text>
</a>
</g>
</g>
<!-- PMT&#45;&gt;FM -->
<g id="edge8" class="edge">
<title>PMT-&gt;FM</title>
<g id="a_edge8"><a xlink:href="bogus" xlink:title="NA">
<path fill="none" stroke="black" stroke-width="0.5" d="M318.18,-385.22C388.08,-380.06 474.26,-373.7 526.02,-369.88"/>
<polygon fill="black" stroke="black" stroke-width="0.5" points="526.18,-373.37 535.9,-369.15 525.67,-366.39 526.18,-373.37"/>
</a>
</g>
</g>
<!-- FME -->
<g id="node11" class="node">
<title>FME</title>
<g id="a_node11"><a xlink:title="Import af energi
FRML &lt;_D&gt; FME           = AMEE*FXE + AMES*FXS + AMEEE*FEE + FILME$">
<polygon fill="#63b8ff" stroke="black" points="271.48,-357.5 138.38,-357.5 138.38,-321.5 271.48,-321.5 271.48,-357.5"/>
<text text-anchor="start" x="144.18" y="-334.45" font-family="Times New Roman,serif" font-size="14.00" fill="blue">FME:Import af energi</text>
</a>
</g>
</g>
<!-- FME&#45;&gt;FM -->
<g id="edge1" class="edge">
<title>FME-&gt;FM</title>
<g id="a_edge1"><a xlink:href="bogus" xlink:title="NA">
<path fill="none" stroke="black" stroke-width="0.5" d="M271.75,-344.36C345.18,-349.78 462.02,-358.4 526.08,-363.13"/>
<polygon fill="black" stroke="black" stroke-width="0.5" points="525.66,-366.61 535.89,-363.85 526.17,-359.62 525.66,-366.61"/>
</a>
</g>
</g>
<!-- FY&#45;&gt;PY -->
<g id="edge11" class="edge">
<title>FY-&gt;PY</title>
<g id="a_edge11"><a xlink:href="bogus" xlink:title="NA">
<path fill="none" stroke="black" stroke-width="0.5" d="M927.08,-145.52C916.09,-139.64 903.27,-132.42 891.3,-126.5 878.38,-120.11 863.87,-113.84 850.96,-108.03"/>
<polygon fill="black" stroke="black" stroke-width="0.5" points="852.44,-104.86 841.89,-103.89 849.54,-111.23 852.44,-104.86"/>
</a>
</g>
</g>
<!-- PME -->
<g id="node13" class="node">
<title>PME</title>
<g id="a_node13"><a xlink:title="Pris på import af energi
FRML &lt;_SJRD,JR,EXO,DAMP&gt; PME=( (( (EXP(LOG(PME(-1))+(0.72533)*((LOG(PWOIL*VUSA))-(LOG(PWOIL(-1)*VUSA(-1))))
                               + GPME
                               + (-0.38198)*(LOG(PME(-1)/(PWOIL(-1)*VUSA(-1)))-LOG(BPMEW(-1)))))*(1+JRPME ))*(1-DPME)+ZPME*DPME)*(1+PME_JR ))*(1-PME_D)+PME_X*PME_D$">
<polygon fill="#63b8ff" stroke="black" points="291.73,-303.5 118.13,-303.5 118.13,-267.5 291.73,-267.5 291.73,-303.5"/>
<text text-anchor="start" x="123.93" y="-280.45" font-family="Times New Roman,serif" font-size="14.00" fill="blue">PME:Pris på import af energi</text>
</a>
</g>
</g>
<!-- PME&#45;&gt;FM -->
<g id="edge16" class="edge">
<title>PME-&gt;FM</title>
<g id="a_edge16"><a xlink:href="bogus" xlink:title="NA">
<path fill="none" stroke="black" stroke-width="0.5" d="M292.01,-287.19C329.35,-290.36 372.9,-297.42 409.85,-312.5 428.37,-320.06 427.65,-331.21 445.85,-339.5 471.07,-350.98 501.38,-357.68 525.94,-361.53"/>
<polygon fill="black" stroke="black" stroke-width="0.5" points="525.34,-364.97 535.74,-362.96 526.35,-358.05 525.34,-364.97"/>
</a>
</g>
</g>
<!-- FMX -->
<g id="node14" class="node">
<title>FMX</title>
<g id="a_node14"><a xlink:title="Import (ekskl. energi+søfart+turisme)
FRML &lt;_D&gt; FMX           = FMZX + AMXO*FXO + AMXCB*FCB + FILMX $">
<polygon fill="#63b8ff" stroke="black" points="331.85,-249.5 78,-249.5 78,-213.5 331.85,-213.5 331.85,-249.5"/>
<text text-anchor="start" x="83.8" y="-226.45" font-family="Times New Roman,serif" font-size="14.00" fill="blue">FMX:Import (ekskl. energi+søfart+turisme)</text>
</a>
</g>
</g>
<!-- FMX&#45;&gt;FM -->
<g id="edge22" class="edge">
<title>FMX-&gt;FM</title>
<g id="a_edge22"><a xlink:href="bogus" xlink:title="NA">
<path fill="none" stroke="black" stroke-width="0.5" d="M332.24,-228.31C359.9,-232.79 387.54,-241.82 409.85,-258.5 441.4,-282.09 415.26,-314.67 445.85,-339.5 468.25,-357.68 500.05,-364.39 526.09,-366.58"/>
<polygon fill="black" stroke="black" stroke-width="0.5" points="525.55,-370.05 535.76,-367.21 526.01,-363.07 525.55,-370.05"/>
</a>
</g>
</g>
<!-- PMS -->
<g id="node15" class="node">
<title>PMS</title>
<g id="a_node15"><a xlink:title="Pris på import af søfart
Exogen">
<polygon fill="yellow" stroke="black" points="289.85,-195.5 120,-195.5 120,-159.5 289.85,-159.5 289.85,-195.5"/>
<text text-anchor="start" x="125.8" y="-172.45" font-family="Times New Roman,serif" font-size="14.00" fill="blue">PMS:Pris på import af søfart</text>
</a>
</g>
</g>
<!-- PMS&#45;&gt;FM -->
<g id="edge5" class="edge">
<title>PMS-&gt;FM</title>
<g id="a_edge5"><a xlink:href="bogus" xlink:title="NA">
<path fill="none" stroke="black" stroke-width="0.5" d="M290.18,-168.31C330.84,-168.51 377.66,-176.21 409.85,-204.5 456.5,-245.49 400.87,-296.69 445.85,-339.5 467.03,-359.66 499.44,-366.27 526.07,-367.91"/>
<polygon fill="black" stroke="black" stroke-width="0.5" points="525.83,-371.4 535.96,-368.31 526.11,-364.41 525.83,-371.4"/>
</a>
</g>
</g>
<!-- FE -->
<g id="node16" class="node">
<title>FE</title>
<g id="a_node16"><a xlink:title="Eksport
FRML &lt;_I&gt; FE            = (FEX*PEX(-1) + FEE*PEE(-1) + FES*PES(-1) + FET*PET(-1))/PE(-1) $">
<polygon fill="#63b8ff" stroke="black" points="609.33,-276.5 536.23,-276.5 536.23,-240.5 609.33,-240.5 609.33,-276.5"/>
<text text-anchor="start" x="542.03" y="-253.45" font-family="Times New Roman,serif" font-size="14.00" fill="blue">FE:Eksport</text>
</a>
</g>
</g>
<!-- FE&#45;&gt;FAE -->
<g id="edge12" class="edge">
<title>FE-&gt;FAE</title>
<g id="a_edge12"><a xlink:href="bogus" xlink:title="NA">
<path fill="none" stroke="black" stroke-width="0.5" d="M609.66,-253.12C635.19,-248.74 670.07,-241.61 699.7,-231.5 723.97,-223.22 749.86,-211.08 770.71,-200.41"/>
<polygon fill="black" stroke="black" stroke-width="0.5" points="772.05,-203.66 779.31,-195.94 768.83,-197.44 772.05,-203.66"/>
</a>
</g>
</g>
<!-- FAI -->
<g id="node17" class="node">
<title>FAI</title>
<g id="a_node17"><a xlink:title="Endelig indenlandsk efterspørgsel
FRML &lt;_I&gt; FAI           = (FCP*PCP(-1) + FCO*PCO(-1) + FI*PI(-1))/PAI(-1)$">
<polygon fill="#63b8ff" stroke="black" points="683.2,-222.5 462.35,-222.5 462.35,-186.5 683.2,-186.5 683.2,-222.5"/>
<text text-anchor="start" x="468.15" y="-199.45" font-family="Times New Roman,serif" font-size="14.00" fill="blue">FAI:Endelig indenlandsk efterspørgsel</text>
</a>
</g>
</g>
<!-- FAI&#45;&gt;FAE -->
<g id="edge4" class="edge">
<title>FAI-&gt;FAE</title>
<g id="a_edge4"><a xlink:href="bogus" xlink:title="NA">
<path fill="none" stroke="black" stroke-width="0.5" d="M683.36,-192.11C697.46,-190.51 711.75,-188.9 725.42,-187.35"/>
<polygon fill="black" stroke="black" stroke-width="0.5" points="725.72,-190.84 735.26,-186.24 724.93,-183.88 725.72,-190.84"/>
</a>
</g>
</g>
<!-- PAE -->
<g id="node18" class="node">
<title>PAE</title>
<g id="a_node18"><a xlink:title="Pris på samlet endelig anvendelse
FRML &lt;_D&gt; PAE           = AE/FAE $">
<polygon fill="#63b8ff" stroke="black" points="685.08,-114.5 460.48,-114.5 460.48,-78.5 685.08,-78.5 685.08,-114.5"/>
<text text-anchor="start" x="466.28" y="-91.45" font-family="Times New Roman,serif" font-size="14.00" fill="blue">PAE:Pris på samlet endelig anvendelse</text>
</a>
</g>
</g>
<!-- PAE&#45;&gt;FY -->
<g id="edge18" class="edge">
<title>PAE-&gt;FY</title>
<g id="a_edge18"><a xlink:href="bogus" xlink:title="NA">
<path fill="none" stroke="black" stroke-width="0.5" d="M685.42,-113.47C763.74,-125.37 863.67,-140.56 917.28,-148.71"/>
<polygon fill="black" stroke="black" stroke-width="0.5" points="916.63,-152.16 927.05,-150.2 917.68,-145.23 916.63,-152.16"/>
</a>
</g>
</g>
<!-- PAE&#45;&gt;FAE -->
<g id="edge7" class="edge">
<title>PAE-&gt;FAE</title>
<g id="a_edge7"><a xlink:href="bogus" xlink:title="NA">
<path fill="none" stroke="black" stroke-width="0.5" d="M685.29,-109.26C690.2,-110.89 695.03,-112.63 699.7,-114.5 717.11,-121.45 719,-127.98 735.7,-136.5 748.44,-143 762.8,-149.25 775.64,-155"/>
<polygon fill="black" stroke="black" stroke-width="0.5" points="774.11,-158.16 784.67,-159.1 777,-151.78 774.11,-158.16"/>
</a>
</g>
</g>
<!-- FAE&#45;&gt;FY -->
<g id="edge15" class="edge">
<title>FAE-&gt;FY</title>
<g id="a_edge15"><a xlink:href="bogus" xlink:title="NA">
<path fill="none" stroke="black" stroke-width="0.5" d="M891.52,-164.92C900.37,-163.48 909.08,-162.06 917.09,-160.75"/>
<polygon fill="black" stroke="black" stroke-width="0.5" points="917.5,-164.23 926.8,-159.16 916.37,-157.32 917.5,-164.23"/>
</a>
</g>
</g>
<!-- FAE&#45;&gt;PAE -->
<g id="edge17" class="edge">
<title>FAE-&gt;PAE</title>
<g id="a_edge17"><a xlink:href="bogus" xlink:title="NA">
<path fill="none" stroke="black" stroke-width="0.5" d="M745.21,-159.16C741.97,-157.64 738.79,-156.08 735.7,-154.5 719,-145.98 717.11,-139.45 699.7,-132.5 683.84,-126.17 666.24,-121.21 649.35,-117.14"/>
<polygon fill="black" stroke="black" stroke-width="0.5" points="650.59,-113.83 640.05,-114.96 648.99,-120.65 650.59,-113.83"/>
</a>
</g>
</g>
<!-- AE -->
<g id="node20" class="node">
<title>AE</title>
<g id="a_node20"><a xlink:title="Endelig samlet efterspørgsel
FRML &lt;_I&gt; AE            = CP + CO + I + E $">
<polygon fill="#63b8ff" stroke="black" points="299.23,-114.5 110.63,-114.5 110.63,-78.5 299.23,-78.5 299.23,-114.5"/>
<text text-anchor="start" x="116.43" y="-91.45" font-family="Times New Roman,serif" font-size="14.00" fill="blue">AE:Endelig samlet efterspørgsel</text>
</a>
</g>
</g>
<!-- AE&#45;&gt;PAE -->
<g id="edge10" class="edge">
<title>AE-&gt;PAE</title>
<g id="a_edge10"><a xlink:href="bogus" xlink:title="NA">
<path fill="none" stroke="black" stroke-width="0.5" d="M299.67,-96.5C345.51,-96.5 401.26,-96.5 450.33,-96.5"/>
<polygon fill="black" stroke="black" stroke-width="0.5" points="450.05,-100 460.05,-96.5 450.05,-93 450.05,-100"/>
</a>
</g>
</g>
<!-- PAI -->
<g id="node21" class="node">
<title>PAI</title>
<g id="a_node21"><a xlink:title="Pris på endelig, indenlandsk anvendelse
FRML &lt;_D&gt; PAI           = AI/FAI $">
<polygon fill="#63b8ff" stroke="black" points="699.7,-168.5 445.85,-168.5 445.85,-132.5 699.7,-132.5 699.7,-168.5"/>
<text text-anchor="start" x="451.65" y="-145.45" font-family="Times New Roman,serif" font-size="14.00" fill="blue">PAI:Pris på endelig, indenlandsk anvendelse</text>
</a>
</g>
</g>
<!-- PAI&#45;&gt;FAE -->
<g id="edge23" class="edge">
<title>PAI-&gt;FAE</title>
<g id="a_edge23"><a xlink:href="bogus" xlink:title="NA">
<path fill="none" stroke="black" stroke-width="0.5" d="M700.13,-164.79C708.64,-165.75 717.1,-166.71 725.33,-167.64"/>
<polygon fill="black" stroke="black" stroke-width="0.5" points="724.93,-171.12 735.26,-168.76 725.72,-164.16 724.93,-171.12"/>
</a>
</g>
</g>
</g>
</svg>