<svg xmlns="http://www.w3.org/2000/svg" xmlns:xlink="http://www.w3.org/1999/xlink" width="432pt" height="287pt" viewBox="0.00 0.00 432.00 287.02">
<g id="graph0" class="graph" transform="scale(0.433235 0.433235) rotate(0) translate(4 658.5)">
<title>TD</title>
<polygon fill="white" stroke="none" points="-4,4 -4,-658.5 993.15,-658.5 993.15,4 -4,4"/>
<text text-anchor="middle" x="494.58" y="-7.2" font-family="Times New Roman,serif" font-size="14.00">FY</text>
<!-- FAI -->
<g id="node1" class="node">
<title>FAI</title>
<g id="a_node1"><a xlink:title="Endelig indenlandsk efterspørgsel
FRML &lt;_I&gt; FAI           = (FCP*PCP(-1) + FCO*PCO(-1) + FI*PI(-1))/PAI(-1)$">
<polygon fill="#63b8ff" stroke="black" points="315.35,-654.5 94.5,-654.5 94.5,-618.5 315.35,-618.5 315.35,-654.5"/>
<text text-anchor="start" x="100.3" y="-631.45" font-family="Times New Roman,serif" font-size="14.00" fill="blue">FAI:Endelig indenlandsk efterspørgsel</text>
</a>
</g>
</g>
<!-- FAE -->
<g id="node13" class="node">
<title>FAE</title>
<g id="a_node13"><a xlink:title="Endelig efterspørgsel
FRML &lt;_I&gt; FAE           = (FAI*PAI(-1) + FE*PE(-1))/PAE(-1)$">
<polygon fill="#63b8ff" stroke="black" points="617.95,-519.5 462.35,-519.5 462.35,-483.5 617.95,-483.5 617.95,-519.5"/>
<text text-anchor="start" x="468.15" y="-496.45" font-family="Times New Roman,serif" font-size="14.00" fill="blue">FAE:Endelig efterspørgsel</text>
</a>
</g>
</g>
<!-- FAI&#45;&gt;FAE -->
<g id="edge16" class="edge">
<title>FAI-&gt;FAE</title>
<g id="a_edge16"><a xlink:href="bogus" xlink:title="NA">
<path fill="none" stroke="black" stroke-width="0.5" d="M315.79,-641.85C348.7,-638.49 383.11,-629.5 409.85,-609.5 441.4,-585.91 416.16,-554.39 445.85,-528.5 448.26,-526.39 450.83,-524.45 453.52,-522.66"/>
<polygon fill="black" stroke="black" stroke-width="0.5" points="455.07,-525.82 461.91,-517.73 451.52,-519.78 455.07,-525.82"/>
</a>
</g>
</g>
<!-- FME -->
<g id="node2" class="node">
<title>FME</title>
<g id="a_node2"><a xlink:title="Import af energi
FRML &lt;_D&gt; FME           = AMEE*FXE + AMES*FXS + AMEEE*FEE + FILME$">
<polygon fill="#63b8ff" stroke="black" points="271.47,-438.5 138.37,-438.5 138.37,-402.5 271.47,-402.5 271.47,-438.5"/>
<text text-anchor="start" x="144.17" y="-415.45" font-family="Times New Roman,serif" font-size="14.00" fill="blue">FME:Import af energi</text>
</a>
</g>
</g>
<!-- FM -->
<g id="node16" class="node">
<title>FM</title>
<g id="a_node16"><a xlink:title="Import
FRML &lt;_I&gt; FM            = (FMX*PMX(-1) + FME*PME(-1) + FMS*PMS(-1) + FMT*PMT(-1))/PM(-1) $">
<polygon fill="#63b8ff" stroke="black" points="576.7,-281.5 503.6,-281.5 503.6,-245.5 576.7,-245.5 576.7,-281.5"/>
<text text-anchor="start" x="509.4" y="-258.45" font-family="Times New Roman,serif" font-size="14.00" fill="blue">FM:Import</text>
</a>
</g>
</g>
<!-- FME&#45;&gt;FM -->
<g id="edge18" class="edge">
<title>FME-&gt;FM</title>
<g id="a_edge18"><a xlink:href="bogus" xlink:title="NA">
<path fill="none" stroke="black" stroke-width="0.5" d="M271.6,-428.41C315.35,-430.02 371.62,-424.61 409.85,-393.5 447.46,-362.89 410.64,-323.84 445.85,-290.5 458.75,-278.29 476.83,-271.55 493.64,-267.86"/>
<polygon fill="black" stroke="black" stroke-width="0.5" points="494.17,-271.32 503.34,-266.01 492.86,-264.44 494.17,-271.32"/>
</a>
</g>
</g>
<!-- AE -->
<g id="node3" class="node">
<title>AE</title>
<g id="a_node3"><a xlink:title="Endelig samlet efterspørgsel
FRML &lt;_I&gt; AE            = CP + CO + I + E $">
<polygon fill="#63b8ff" stroke="black" points="634.45,-573.5 445.85,-573.5 445.85,-537.5 634.45,-537.5 634.45,-573.5"/>
<text text-anchor="start" x="451.65" y="-550.45" font-family="Times New Roman,serif" font-size="14.00" fill="blue">AE:Endelig samlet efterspørgsel</text>
</a>
</g>
</g>
<!-- PAE -->
<g id="node7" class="node">
<title>PAE</title>
<g id="a_node7"><a xlink:title="Pris på samlet endelig anvendelse
FRML &lt;_D&gt; PAE           = AE/FAE $">
<polygon fill="#63b8ff" stroke="black" points="895.05,-519.5 670.45,-519.5 670.45,-483.5 895.05,-483.5 895.05,-519.5"/>
<text text-anchor="start" x="676.25" y="-496.45" font-family="Times New Roman,serif" font-size="14.00" fill="blue">PAE:Pris på samlet endelig anvendelse</text>
</a>
</g>
</g>
<!-- AE&#45;&gt;PAE -->
<g id="edge23" class="edge">
<title>AE-&gt;PAE</title>
<g id="a_edge23"><a xlink:href="bogus" xlink:title="NA">
<path fill="none" stroke="black" stroke-width="0.5" d="M623.28,-537.07C644.74,-532.25 668.01,-527.03 689.95,-522.1"/>
<polygon fill="black" stroke="black" stroke-width="0.5" points="690.59,-525.55 699.58,-519.94 689.06,-518.72 690.59,-525.55"/>
</a>
</g>
</g>
<!-- PE -->
<g id="node4" class="node">
<title>PE</title>
<g id="a_node4"><a xlink:title="Pris på eksport
FRML &lt;_D&gt; PE            = E/FE $">
<polygon fill="#63b8ff" stroke="black" points="260.97,-600.5 148.87,-600.5 148.87,-564.5 260.97,-564.5 260.97,-600.5"/>
<text text-anchor="start" x="154.67" y="-577.45" font-family="Times New Roman,serif" font-size="14.00" fill="blue">PE:Pris på eksport</text>
</a>
</g>
</g>
<!-- PE&#45;&gt;FAE -->
<g id="edge8" class="edge">
<title>PE-&gt;FAE</title>
<g id="a_edge8"><a xlink:href="bogus" xlink:title="NA">
<path fill="none" stroke="black" stroke-width="0.5" d="M261.09,-582.7C303.26,-581.09 362.07,-575 409.85,-555.5 428.37,-547.94 427.95,-537.43 445.85,-528.5 449.32,-526.77 452.91,-525.14 456.58,-523.59"/>
<polygon fill="black" stroke="black" stroke-width="0.5" points="457.83,-526.86 465.85,-519.93 455.26,-520.35 457.83,-526.86"/>
</a>
</g>
</g>
<!-- PAI -->
<g id="node5" class="node">
<title>PAI</title>
<g id="a_node5"><a xlink:title="Pris på endelig, indenlandsk anvendelse
FRML &lt;_D&gt; PAI           = AI/FAI $">
<polygon fill="#63b8ff" stroke="black" points="331.85,-546.5 78,-546.5 78,-510.5 331.85,-510.5 331.85,-546.5"/>
<text text-anchor="start" x="83.8" y="-523.45" font-family="Times New Roman,serif" font-size="14.00" fill="blue">PAI:Pris på endelig, indenlandsk anvendelse</text>
</a>
</g>
</g>
<!-- PAI&#45;&gt;FAE -->
<g id="edge3" class="edge">
<title>PAI-&gt;FAE</title>
<g id="a_edge3"><a xlink:href="bogus" xlink:title="NA">
<path fill="none" stroke="black" stroke-width="0.5" d="M331.9,-518.29C372.17,-515.03 415.81,-511.49 452.61,-508.51"/>
<polygon fill="black" stroke="black" stroke-width="0.5" points="452.62,-512.02 462.3,-507.73 452.05,-505.05 452.62,-512.02"/>
</a>
</g>
</g>
<!-- FY -->
<g id="node6" class="node">
<title>FY</title>
<g id="a_node6"><a xlink:title="BNP
FRML &lt;_I&gt; FY            = (FAE*PAE(-1)-FM*PM(-1))/PY(-1)$">
<polygon fill="red" stroke="black" points="989.15,-395.5 931.05,-395.5 931.05,-359.5 989.15,-359.5 989.15,-395.5"/>
<text text-anchor="start" x="936.85" y="-372.45" font-family="Times New Roman,serif" font-size="14.00" fill="blue">FY:BNP</text>
</a>
</g>
</g>
<!-- PY -->
<g id="node9" class="node">
<title>PY</title>
<g id="a_node9"><a xlink:title="BNP-deflator
FRML &lt;_D&gt; PY            = Y/FY $">
<polygon fill="#63b8ff" stroke="black" points="835.05,-395.5 730.45,-395.5 730.45,-359.5 835.05,-359.5 835.05,-395.5"/>
<text text-anchor="start" x="736.25" y="-372.45" font-family="Times New Roman,serif" font-size="14.00" fill="blue">PY:BNP-deflator</text>
</a>
</g>
</g>
<!-- FY&#45;&gt;PY -->
<g id="edge14" class="edge">
<title>FY-&gt;PY</title>
<g id="a_edge14"><a xlink:href="bogus" xlink:title="NA">
<path fill="none" stroke="black" stroke-width="0.5" d="M930.66,-382.63C907.58,-384.16 874.2,-384.6 845.1,-383.97"/>
<polygon fill="black" stroke="black" stroke-width="0.5" points="845.5,-380.48 835.41,-383.72 845.32,-387.48 845.5,-380.48"/>
</a>
</g>
</g>
<!-- PAE&#45;&gt;FY -->
<g id="edge24" class="edge">
<title>PAE-&gt;FY</title>
<g id="a_edge24"><a xlink:href="bogus" xlink:title="NA">
<path fill="none" stroke="black" stroke-width="0.5" d="M848.58,-483.11C864.65,-476.81 881.21,-468.7 895.05,-458.5 914.89,-443.87 931.9,-421.59 943.39,-404.1"/>
<polygon fill="black" stroke="black" stroke-width="0.5" points="946.16,-406.26 948.58,-395.95 940.25,-402.51 946.16,-406.26"/>
</a>
</g>
</g>
<!-- PAE&#45;&gt;FAE -->
<g id="edge15" class="edge">
<title>PAE-&gt;FAE</title>
<g id="a_edge15"><a xlink:href="bogus" xlink:title="NA">
<path fill="none" stroke="black" stroke-width="0.5" d="M670.01,-508.23C655.92,-508.28 641.69,-508.21 628.07,-508.01"/>
<polygon fill="black" stroke="black" stroke-width="0.5" points="628.33,-504.52 618.27,-507.85 628.21,-511.52 628.33,-504.52"/>
</a>
</g>
</g>
<!-- FMX -->
<g id="node8" class="node">
<title>FMX</title>
<g id="a_node8"><a xlink:title="Import (ekskl. energi+søfart+turisme)
FRML &lt;_D&gt; FMX           = FMZX + AMXO*FXO + AMXCB*FCB + FILMX $">
<polygon fill="#63b8ff" stroke="black" points="331.85,-384.5 78,-384.5 78,-348.5 331.85,-348.5 331.85,-384.5"/>
<text text-anchor="start" x="83.8" y="-361.45" font-family="Times New Roman,serif" font-size="14.00" fill="blue">FMX:Import (ekskl. energi+søfart+turisme)</text>
</a>
</g>
</g>
<!-- FMX&#45;&gt;FM -->
<g id="edge1" class="edge">
<title>FMX-&gt;FM</title>
<g id="a_edge1"><a xlink:href="bogus" xlink:title="NA">
<path fill="none" stroke="black" stroke-width="0.5" d="M332.23,-365.69C359.21,-361.27 386.57,-353.28 409.85,-339.5 433.11,-325.74 423.69,-305.97 445.85,-290.5 460.07,-280.58 477.91,-274.27 494.18,-270.27"/>
<polygon fill="black" stroke="black" stroke-width="0.5" points="494.55,-273.78 503.54,-268.18 493.02,-266.95 494.55,-273.78"/>
</a>
</g>
</g>
<!-- PY&#45;&gt;FY -->
<g id="edge4" class="edge">
<title>PY-&gt;FY</title>
<g id="a_edge4"><a xlink:href="bogus" xlink:title="NA">
<path fill="none" stroke="black" stroke-width="0.5" d="M835.41,-371.28C862.76,-370.43 895.76,-370.6 920.8,-371.81"/>
<polygon fill="black" stroke="black" stroke-width="0.5" points="920.48,-375.3 930.66,-372.37 920.87,-368.31 920.48,-375.3"/>
</a>
</g>
</g>
<!-- FMS -->
<g id="node10" class="node">
<title>FMS</title>
<g id="a_node10"><a xlink:title="Import af søfart
FRML &lt;_D&gt; FMS           = AMSS*FXS + AMSES*FES$">
<polygon fill="#63b8ff" stroke="black" points="269.6,-330.5 140.25,-330.5 140.25,-294.5 269.6,-294.5 269.6,-330.5"/>
<text text-anchor="start" x="146.05" y="-307.45" font-family="Times New Roman,serif" font-size="14.00" fill="blue">FMS:Import af søfart</text>
</a>
</g>
</g>
<!-- FMS&#45;&gt;FM -->
<g id="edge5" class="edge">
<title>FMS-&gt;FM</title>
<g id="a_edge5"><a xlink:href="bogus" xlink:title="NA">
<path fill="none" stroke="black" stroke-width="0.5" d="M269.85,-304.65C310.08,-299.56 363.06,-292.58 409.85,-285.5 437.65,-281.3 468.72,-276.03 493.43,-271.7"/>
<polygon fill="black" stroke="black" stroke-width="0.5" points="494.02,-275.15 503.26,-269.97 492.8,-268.26 494.02,-275.15"/>
</a>
</g>
</g>
<!-- PME -->
<g id="node11" class="node">
<title>PME</title>
<g id="a_node11"><a xlink:title="Pris på import af energi
FRML &lt;_SJRD,JR,EXO,DAMP&gt; PME=( (( (EXP(LOG(PME(-1))+(0.72533)*((LOG(PWOIL*VUSA))-(LOG(PWOIL(-1)*VUSA(-1))))
                               + GPME
                               + (-0.38198)*(LOG(PME(-1)/(PWOIL(-1)*VUSA(-1)))-LOG(BPMEW(-1)))))*(1+JRPME ))*(1-DPME)+ZPME*DPME)*(1+PME_JR ))*(1-PME_D)+PME_X*PME_D$">
<polygon fill="#63b8ff" stroke="black" points="291.72,-276.5 118.12,-276.5 118.12,-240.5 291.72,-240.5 291.72,-276.5"/>
<text text-anchor="start" x="123.92" y="-253.45" font-family="Times New Roman,serif" font-size="14.00" fill="blue">PME:Pris på import af energi</text>
</a>
</g>
</g>
<!-- PME&#45;&gt;FM -->
<g id="edge22" class="edge">
<title>PME-&gt;FM</title>
<g id="a_edge22"><a xlink:href="bogus" xlink:title="NA">
<path fill="none" stroke="black" stroke-width="0.5" d="M292.17,-259.79C356.53,-260.76 441.93,-262.04 493.59,-262.82"/>
<polygon fill="black" stroke="black" stroke-width="0.5" points="493.41,-266.31 503.46,-262.96 493.51,-259.31 493.41,-266.31"/>
</a>
</g>
</g>
<!-- FMT -->
<g id="node12" class="node">
<title>FMT</title>
<g id="a_node12"><a xlink:title="Import af turisme
FRML &lt;_I&gt; FMT           = FCT$">
<polygon fill="#63b8ff" stroke="black" points="274.85,-222.5 135,-222.5 135,-186.5 274.85,-186.5 274.85,-222.5"/>
<text text-anchor="start" x="140.8" y="-199.45" font-family="Times New Roman,serif" font-size="14.00" fill="blue">FMT:Import af turisme</text>
</a>
</g>
</g>
<!-- FMT&#45;&gt;FM -->
<g id="edge21" class="edge">
<title>FMT-&gt;FM</title>
<g id="a_edge21"><a xlink:href="bogus" xlink:title="NA">
<path fill="none" stroke="black" stroke-width="0.5" d="M275.14,-211.73C314.75,-216.35 365.29,-223.06 409.85,-231.5 437.93,-236.82 469.04,-244.46 493.7,-250.94"/>
<polygon fill="black" stroke="black" stroke-width="0.5" points="492.6,-254.27 503.16,-253.45 494.39,-247.5 492.6,-254.27"/>
</a>
</g>
</g>
<!-- FAE&#45;&gt;FY -->
<g id="edge12" class="edge">
<title>FAE-&gt;FY</title>
<g id="a_edge12"><a xlink:href="bogus" xlink:title="NA">
<path fill="none" stroke="black" stroke-width="0.5" d="M618.32,-483.46C690.62,-465.82 801.28,-436.96 895.05,-404.5 903.76,-401.49 912.97,-397.87 921.61,-394.27"/>
<polygon fill="black" stroke="black" stroke-width="0.5" points="922.88,-397.54 930.72,-390.41 920.14,-391.09 922.88,-397.54"/>
</a>
</g>
</g>
<!-- FAE&#45;&gt;PAE -->
<g id="edge10" class="edge">
<title>FAE-&gt;PAE</title>
<g id="a_edge10"><a xlink:href="bogus" xlink:title="NA">
<path fill="none" stroke="black" stroke-width="0.5" d="M618.27,-495.15C631.67,-494.89 645.9,-494.76 660.15,-494.75"/>
<polygon fill="black" stroke="black" stroke-width="0.5" points="660,-498.25 670.01,-494.77 660.01,-491.25 660,-498.25"/>
</a>
</g>
</g>
<!-- Y -->
<g id="node14" class="node">
<title>Y</title>
<g id="a_node14"><a xlink:title="BNP
FRML &lt;_I&gt; Y             = CP + CO + I - M + E $">
<polygon fill="#63b8ff" stroke="black" points="567.15,-395.5 513.15,-395.5 513.15,-359.5 567.15,-359.5 567.15,-395.5"/>
<text text-anchor="start" x="520.65" y="-372.45" font-family="Times New Roman,serif" font-size="14.00" fill="blue">Y:BNP</text>
</a>
</g>
</g>
<!-- Y&#45;&gt;PY -->
<g id="edge2" class="edge">
<title>Y-&gt;PY</title>
<g id="a_edge2"><a xlink:href="bogus" xlink:title="NA">
<path fill="none" stroke="black" stroke-width="0.5" d="M567.36,-377.5C603.82,-377.5 670.94,-377.5 720.4,-377.5"/>
<polygon fill="black" stroke="black" stroke-width="0.5" points="720.36,-381 730.36,-377.5 720.36,-374 720.36,-381"/>
</a>
</g>
</g>
<!-- PMX -->
<g id="node15" class="node">
<title>PMX</title>
<g id="a_node15"><a xlink:title="Pris på import af varer og tjenester ekskl. energi, søfart og turisme
Exogen">
<polygon fill="yellow" stroke="black" points="409.85,-168.5 0,-168.5 0,-132.5 409.85,-132.5 409.85,-168.5"/>
<text text-anchor="start" x="5.8" y="-145.45" font-family="Times New Roman,serif" font-size="14.00" fill="blue">PMX:Pris på import af varer og tjenester ekskl. energi, søfart og turisme</text>
</a>
</g>
</g>
<!-- PMX&#45;&gt;FM -->
<g id="edge11" class="edge">
<title>PMX-&gt;FM</title>
<g id="a_edge11"><a xlink:href="bogus" xlink:title="NA">
<path fill="none" stroke="black" stroke-width="0.5" d="M383.45,-168.96C392.47,-171.47 401.32,-174.3 409.85,-177.5 447.88,-191.78 485.94,-219.05 510.82,-239.07"/>
<polygon fill="black" stroke="black" stroke-width="0.5" points="508.46,-241.66 518.42,-245.28 512.89,-236.24 508.46,-241.66"/>
</a>
</g>
</g>
<!-- FM&#45;&gt;FY -->
<g id="edge13" class="edge">
<title>FM-&gt;FY</title>
<g id="a_edge13"><a xlink:href="bogus" xlink:title="NA">
<path fill="none" stroke="black" stroke-width="0.5" d="M577.12,-256.25C644.43,-244.65 791.95,-228.67 895.05,-286.5 920,-300.5 937.52,-328.75 947.85,-350.08"/>
<polygon fill="black" stroke="black" stroke-width="0.5" points="944.61,-351.41 951.97,-359.03 950.97,-348.48 944.61,-351.41"/>
</a>
</g>
</g>
<!-- PM -->
<g id="node18" class="node">
<title>PM</title>
<g id="a_node18"><a xlink:title="Pris på import
FRML &lt;_D&gt; PM            = M/FM $">
<polygon fill="#63b8ff" stroke="black" points="839.55,-331.5 725.95,-331.5 725.95,-295.5 839.55,-295.5 839.55,-331.5"/>
<text text-anchor="start" x="731.75" y="-308.45" font-family="Times New Roman,serif" font-size="14.00" fill="blue">PM:Pris på import</text>
</a>
</g>
</g>
<!-- FM&#45;&gt;PM -->
<g id="edge25" class="edge">
<title>FM-&gt;PM</title>
<g id="a_edge25"><a xlink:href="bogus" xlink:title="NA">
<path fill="none" stroke="black" stroke-width="0.5" d="M577.17,-266C613.81,-271.72 671.41,-283.32 716.17,-293.78"/>
<polygon fill="black" stroke="black" stroke-width="0.5" points="715.26,-297.17 725.8,-296.07 716.88,-290.36 715.26,-297.17"/>
</a>
</g>
</g>
<!-- FE -->
<g id="node17" class="node">
<title>FE</title>
<g id="a_node17"><a xlink:title="Eksport
FRML &lt;_I&gt; FE            = (FEX*PEX(-1) + FEE*PEE(-1) + FES*PES(-1) + FET*PET(-1))/PE(-1) $">
<polygon fill="#63b8ff" stroke="black" points="241.47,-492.5 168.37,-492.5 168.37,-456.5 241.47,-456.5 241.47,-492.5"/>
<text text-anchor="start" x="174.17" y="-469.45" font-family="Times New Roman,serif" font-size="14.00" fill="blue">FE:Eksport</text>
</a>
</g>
</g>
<!-- FE&#45;&gt;FAE -->
<g id="edge19" class="edge">
<title>FE-&gt;FAE</title>
<g id="a_edge19"><a xlink:href="bogus" xlink:title="NA">
<path fill="none" stroke="black" stroke-width="0.5" d="M241.9,-477.42C291.79,-481.46 383.54,-488.89 451.97,-494.44"/>
<polygon fill="black" stroke="black" stroke-width="0.5" points="451.63,-497.92 461.88,-495.24 452.2,-490.94 451.63,-497.92"/>
</a>
</g>
</g>
<!-- PM&#45;&gt;FY -->
<g id="edge17" class="edge">
<title>PM-&gt;FY</title>
<g id="a_edge17"><a xlink:href="bogus" xlink:title="NA">
<path fill="none" stroke="black" stroke-width="0.5" d="M839.81,-331.19C857.58,-337.05 877.23,-343.79 895.05,-350.5 903.68,-353.75 912.86,-357.46 921.49,-361.07"/>
<polygon fill="black" stroke="black" stroke-width="0.5" points="920.02,-364.25 930.6,-364.92 922.75,-357.8 920.02,-364.25"/>
</a>
</g>
</g>
<!-- PM&#45;&gt;FM -->
<g id="edge20" class="edge">
<title>PM-&gt;FM</title>
<g id="a_edge20"><a xlink:href="bogus" xlink:title="NA">
<path fill="none" stroke="black" stroke-width="0.5" d="M725.8,-307.68C683.56,-300.27 626.31,-288.25 586.81,-278.42"/>
<polygon fill="black" stroke="black" stroke-width="0.5" points="587.72,-275.04 577.17,-275.97 586,-281.82 587.72,-275.04"/>
</a>
</g>
</g>
<!-- PMS -->
<g id="node19" class="node">
<title>PMS</title>
<g id="a_node19"><a xlink:title="Pris på import af søfart
Exogen">
<polygon fill="yellow" stroke="black" points="289.85,-114.5 120,-114.5 120,-78.5 289.85,-78.5 289.85,-114.5"/>
<text text-anchor="start" x="125.8" y="-91.45" font-family="Times New Roman,serif" font-size="14.00" fill="blue">PMS:Pris på import af søfart</text>
</a>
</g>
</g>
<!-- PMS&#45;&gt;FM -->
<g id="edge7" class="edge">
<title>PMS-&gt;FM</title>
<g id="a_edge7"><a xlink:href="bogus" xlink:title="NA">
<path fill="none" stroke="black" stroke-width="0.5" d="M290.19,-94.84C328.54,-97.23 373.39,-104.59 409.85,-123.5 460.54,-149.78 501.65,-204.25 523.06,-236.96"/>
<polygon fill="black" stroke="black" stroke-width="0.5" points="519.97,-238.64 528.32,-245.17 525.87,-234.87 519.97,-238.64"/>
</a>
</g>
</g>
<!-- M -->
<g id="node20" class="node">
<title>M</title>
<g id="a_node20"><a xlink:title="Import
FRML &lt;_I&gt; M             = MX + ME + MS + MT $">
<polygon fill="#63b8ff" stroke="black" points="572.95,-335.5 507.35,-335.5 507.35,-299.5 572.95,-299.5 572.95,-335.5"/>
<text text-anchor="start" x="513.15" y="-312.45" font-family="Times New Roman,serif" font-size="14.00" fill="blue">M:Import</text>
</a>
</g>
</g>
<!-- M&#45;&gt;PM -->
<g id="edge9" class="edge">
<title>M-&gt;PM</title>
<g id="a_edge9"><a xlink:href="bogus" xlink:title="NA">
<path fill="none" stroke="black" stroke-width="0.5" d="M573.1,-316.97C609.3,-316.37 669.3,-315.37 715.69,-314.6"/>
<polygon fill="black" stroke="black" stroke-width="0.5" points="715.72,-318.1 725.66,-314.43 715.61,-311.1 715.72,-318.1"/>
</a>
</g>
</g>
<!-- PMT -->
<g id="node21" class="node">
<title>PMT</title>
<g id="a_node21"><a xlink:title="Pris på import af turisme (=PCT)
Exogen">
<polygon fill="yellow" stroke="black" points="317.97,-60.5 91.87,-60.5 91.87,-24.5 317.97,-24.5 317.97,-60.5"/>
<text text-anchor="start" x="97.67" y="-37.45" font-family="Times New Roman,serif" font-size="14.00" fill="blue">PMT:Pris på import af turisme (=PCT)</text>
</a>
</g>
</g>
<!-- PMT&#45;&gt;FM -->
<g id="edge6" class="edge">
<title>PMT-&gt;FM</title>
<g id="a_edge6"><a xlink:href="bogus" xlink:title="NA">
<path fill="none" stroke="black" stroke-width="0.5" d="M318.34,-40.49C349.82,-44.26 382.8,-52.64 409.85,-69.5 473.4,-109.1 512.63,-192.79 529.5,-236.15"/>
<polygon fill="black" stroke="black" stroke-width="0.5" points="526.13,-237.15 532.94,-245.27 532.68,-234.67 526.13,-237.15"/>
</a>
</g>
</g>
</g>
</svg>