<svg xmlns="http://www.w3.org/2000/svg" xmlns:xlink="http://www.w3.org/1999/xlink" width="432pt" height="287pt" viewBox="0.00 0.00 432.00 287.02">
<g id="graph0" class="graph" transform="scale(0.433235 0.433235) rotate(0) translate(4 658.5)">
<title>TD</title>
<polygon fill="white" stroke="none" points="-4,4 -4,-658.5 993.15,-658.5 993.15,4 -4,4"/>
<text text-anchor="middle" x="494.58" y="-7.2" font-family="Times New Roman,serif" font-size="14.00">FY</text>
<!-- FAE -->
<g id="node1" class="node">
<title>FAE</title>
<g id="a_node1"><a xlink:title="Endelig efterspørgsel
FRML &lt;_I&gt; FAE           = (FAI*PAI(-1) + FE*PE(-1))/PAE(-1)$">
<polygon fill="#63b8ff" stroke="black" points="617.95,-195.5 462.35,-195.5 462.35,-159.5 617.95,-159.5 617.95,-195.5"/>
<text text-anchor="start" x="468.15" y="-172.45" font-family="Times New Roman,serif" font-size="14.00" fill="blue">FAE:Endelig efterspørgsel</text>
</a>
</g>
</g>
<!-- FY -->
<g id="node8" class="node">
<title>FY</title>
<g id="a_node8"><a xlink:title="BNP
FRML &lt;_I&gt; FY            = (FAE*PAE(-1)-FM*PM(-1))/PY(-1)$">
<polygon fill="red" stroke="black" points="989.15,-388.5 931.05,-388.5 931.05,-352.5 989.15,-352.5 989.15,-388.5"/>
<text text-anchor="start" x="936.85" y="-365.45" font-family="Times New Roman,serif" font-size="14.00" fill="blue">FY:BNP</text>
</a>
</g>
</g>
<!-- FAE&#45;&gt;FY -->
<g id="edge24" class="edge">
<title>FAE-&gt;FY</title>
<g id="a_edge24"><a xlink:href="bogus" xlink:title="NA">
<path fill="none" stroke="black" stroke-width="0.5" d="M618.28,-160.27C695.96,-147.6 815.4,-141.48 895.05,-200.5 940.29,-234.02 953.58,-303.48 957.48,-342.44"/>
<polygon fill="black" stroke="black" stroke-width="0.5" points="953.97,-342.44 958.32,-352.1 960.94,-341.84 953.97,-342.44"/>
</a>
</g>
</g>
<!-- PAE -->
<g id="node11" class="node">
<title>PAE</title>
<g id="a_node11"><a xlink:title="Pris på samlet endelig anvendelse
FRML &lt;_D&gt; PAE           = AE/FAE $">
<polygon fill="#63b8ff" stroke="black" points="895.05,-245.5 670.45,-245.5 670.45,-209.5 895.05,-209.5 895.05,-245.5"/>
<text text-anchor="start" x="676.25" y="-222.45" font-family="Times New Roman,serif" font-size="14.00" fill="blue">PAE:Pris på samlet endelig anvendelse</text>
</a>
</g>
</g>
<!-- FAE&#45;&gt;PAE -->
<g id="edge4" class="edge">
<title>FAE-&gt;PAE</title>
<g id="a_edge4"><a xlink:href="bogus" xlink:title="NA">
<path fill="none" stroke="black" stroke-width="0.5" d="M618.27,-187.18C648.28,-192.83 682.42,-199.98 711.71,-206.75"/>
<polygon fill="black" stroke="black" stroke-width="0.5" points="710.91,-210.16 721.45,-209.03 712.51,-203.34 710.91,-210.16"/>
</a>
</g>
</g>
<!-- PMX -->
<g id="node2" class="node">
<title>PMX</title>
<g id="a_node2"><a xlink:title="Pris på import af varer og tjenester ekskl. energi, søfart og turisme
Exogen">
<polygon fill="yellow" stroke="black" points="409.85,-654.5 0,-654.5 0,-618.5 409.85,-618.5 409.85,-654.5"/>
<text text-anchor="start" x="5.8" y="-631.45" font-family="Times New Roman,serif" font-size="14.00" fill="blue">PMX:Pris på import af varer og tjenester ekskl. energi, søfart og turisme</text>
</a>
</g>
</g>
<!-- FM -->
<g id="node12" class="node">
<title>FM</title>
<g id="a_node12"><a xlink:title="Import
FRML &lt;_I&gt; FM            = (FMX*PMX(-1) + FME*PME(-1) + FMS*PMS(-1) + FMT*PMT(-1))/PM(-1) $">
<polygon fill="#63b8ff" stroke="black" points="576.7,-411.5 503.6,-411.5 503.6,-375.5 576.7,-375.5 576.7,-411.5"/>
<text text-anchor="start" x="509.4" y="-388.45" font-family="Times New Roman,serif" font-size="14.00" fill="blue">FM:Import</text>
</a>
</g>
</g>
<!-- PMX&#45;&gt;FM -->
<g id="edge14" class="edge">
<title>PMX-&gt;FM</title>
<g id="a_edge14"><a xlink:href="bogus" xlink:title="NA">
<path fill="none" stroke="black" stroke-width="0.5" d="M399.63,-618.01C403.19,-615.4 406.61,-612.57 409.85,-609.5 472,-550.77 388.28,-483.72 445.85,-420.5 458.11,-407.03 476.63,-400.13 493.95,-396.64"/>
<polygon fill="black" stroke="black" stroke-width="0.5" points="494.13,-400.16 503.4,-395.03 492.95,-393.26 494.13,-400.16"/>
</a>
</g>
</g>
<!-- FMX -->
<g id="node3" class="node">
<title>FMX</title>
<g id="a_node3"><a xlink:title="Import (ekskl. energi+søfart+turisme)
FRML &lt;_D&gt; FMX           = FMZX + AMXO*FXO + AMXCB*FCB + FILMX $">
<polygon fill="#63b8ff" stroke="black" points="331.85,-600.5 78,-600.5 78,-564.5 331.85,-564.5 331.85,-600.5"/>
<text text-anchor="start" x="83.8" y="-577.45" font-family="Times New Roman,serif" font-size="14.00" fill="blue">FMX:Import (ekskl. energi+søfart+turisme)</text>
</a>
</g>
</g>
<!-- FMX&#45;&gt;FM -->
<g id="edge6" class="edge">
<title>FMX-&gt;FM</title>
<g id="a_edge6"><a xlink:href="bogus" xlink:title="NA">
<path fill="none" stroke="black" stroke-width="0.5" d="M332.12,-588.5C360.43,-584.07 388.39,-574.36 409.85,-555.5 456.5,-514.51 402.41,-464.87 445.85,-420.5 458.37,-407.71 476.56,-400.88 493.55,-397.28"/>
<polygon fill="black" stroke="black" stroke-width="0.5" points="494.15,-400.72 503.37,-395.5 492.9,-393.84 494.15,-400.72"/>
</a>
</g>
</g>
<!-- FMS -->
<g id="node4" class="node">
<title>FMS</title>
<g id="a_node4"><a xlink:title="Import af søfart
FRML &lt;_D&gt; FMS           = AMSS*FXS + AMSES*FES$">
<polygon fill="#63b8ff" stroke="black" points="269.6,-546.5 140.25,-546.5 140.25,-510.5 269.6,-510.5 269.6,-546.5"/>
<text text-anchor="start" x="146.05" y="-523.45" font-family="Times New Roman,serif" font-size="14.00" fill="blue">FMS:Import af søfart</text>
</a>
</g>
</g>
<!-- FMS&#45;&gt;FM -->
<g id="edge19" class="edge">
<title>FMS-&gt;FM</title>
<g id="a_edge19"><a xlink:href="bogus" xlink:title="NA">
<path fill="none" stroke="black" stroke-width="0.5" d="M269.87,-535.36C313.39,-536.63 370.1,-531.23 409.85,-501.5 441.4,-477.91 416.16,-446.39 445.85,-420.5 459.13,-408.92 477.11,-402.29 493.75,-398.51"/>
<polygon fill="black" stroke="black" stroke-width="0.5" points="494.22,-401.98 503.34,-396.59 492.85,-395.12 494.22,-401.98"/>
</a>
</g>
</g>
<!-- AE -->
<g id="node5" class="node">
<title>AE</title>
<g id="a_node5"><a xlink:title="Endelig samlet efterspørgsel
FRML &lt;_I&gt; AE            = CP + CO + I + E $">
<polygon fill="#63b8ff" stroke="black" points="634.45,-249.5 445.85,-249.5 445.85,-213.5 634.45,-213.5 634.45,-249.5"/>
<text text-anchor="start" x="451.65" y="-226.45" font-family="Times New Roman,serif" font-size="14.00" fill="blue">AE:Endelig samlet efterspørgsel</text>
</a>
</g>
</g>
<!-- AE&#45;&gt;PAE -->
<g id="edge3" class="edge">
<title>AE-&gt;PAE</title>
<g id="a_edge3"><a xlink:href="bogus" xlink:title="NA">
<path fill="none" stroke="black" stroke-width="0.5" d="M634.86,-229.94C643.3,-229.8 651.92,-229.66 660.54,-229.52"/>
<polygon fill="black" stroke="black" stroke-width="0.5" points="660.34,-233.02 670.28,-229.35 660.22,-226.02 660.34,-233.02"/>
</a>
</g>
</g>
<!-- PE -->
<g id="node6" class="node">
<title>PE</title>
<g id="a_node6"><a xlink:title="Pris på eksport
FRML &lt;_D&gt; PE            = E/FE $">
<polygon fill="#63b8ff" stroke="black" points="260.97,-222.5 148.87,-222.5 148.87,-186.5 260.97,-186.5 260.97,-222.5"/>
<text text-anchor="start" x="154.67" y="-199.45" font-family="Times New Roman,serif" font-size="14.00" fill="blue">PE:Pris på eksport</text>
</a>
</g>
</g>
<!-- PE&#45;&gt;FAE -->
<g id="edge22" class="edge">
<title>PE-&gt;FAE</title>
<g id="a_edge22"><a xlink:href="bogus" xlink:title="NA">
<path fill="none" stroke="black" stroke-width="0.5" d="M261.32,-200.01C313.3,-195.8 391.86,-189.43 452.19,-184.55"/>
<polygon fill="black" stroke="black" stroke-width="0.5" points="452.4,-188.04 462.09,-183.74 451.84,-181.06 452.4,-188.04"/>
</a>
</g>
</g>
<!-- FE -->
<g id="node7" class="node">
<title>FE</title>
<g id="a_node7"><a xlink:title="Eksport
FRML &lt;_I&gt; FE            = (FEX*PEX(-1) + FEE*PEE(-1) + FES*PES(-1) + FET*PET(-1))/PE(-1) $">
<polygon fill="#63b8ff" stroke="black" points="241.47,-168.5 168.37,-168.5 168.37,-132.5 241.47,-132.5 241.47,-168.5"/>
<text text-anchor="start" x="174.17" y="-145.45" font-family="Times New Roman,serif" font-size="14.00" fill="blue">FE:Eksport</text>
</a>
</g>
</g>
<!-- FE&#45;&gt;FAE -->
<g id="edge11" class="edge">
<title>FE-&gt;FAE</title>
<g id="a_edge11"><a xlink:href="bogus" xlink:title="NA">
<path fill="none" stroke="black" stroke-width="0.5" d="M241.9,-153.42C291.79,-157.46 383.54,-164.89 451.97,-170.44"/>
<polygon fill="black" stroke="black" stroke-width="0.5" points="451.63,-173.92 461.88,-171.24 452.2,-166.94 451.63,-173.92"/>
</a>
</g>
</g>
<!-- PY -->
<g id="node17" class="node">
<title>PY</title>
<g id="a_node17"><a xlink:title="BNP-deflator
FRML &lt;_D&gt; PY            = Y/FY $">
<polygon fill="#63b8ff" stroke="black" points="835.05,-465.5 730.45,-465.5 730.45,-429.5 835.05,-429.5 835.05,-465.5"/>
<text text-anchor="start" x="736.25" y="-442.45" font-family="Times New Roman,serif" font-size="14.00" fill="blue">PY:BNP-deflator</text>
</a>
</g>
</g>
<!-- FY&#45;&gt;PY -->
<g id="edge13" class="edge">
<title>FY-&gt;PY</title>
<g id="a_edge13"><a xlink:href="bogus" xlink:title="NA">
<path fill="none" stroke="black" stroke-width="0.5" d="M947.41,-388.98C935.31,-402.6 915.37,-419.67 895.05,-429.5 879.56,-436.99 861.83,-442.5 845.14,-446.17"/>
<polygon fill="black" stroke="black" stroke-width="0.5" points="844.57,-442.71 835.46,-448.11 845.95,-449.57 844.57,-442.71"/>
</a>
</g>
</g>
<!-- PMS -->
<g id="node9" class="node">
<title>PMS</title>
<g id="a_node9"><a xlink:title="Pris på import af søfart
Exogen">
<polygon fill="yellow" stroke="black" points="289.85,-492.5 120,-492.5 120,-456.5 289.85,-456.5 289.85,-492.5"/>
<text text-anchor="start" x="125.8" y="-469.45" font-family="Times New Roman,serif" font-size="14.00" fill="blue">PMS:Pris på import af søfart</text>
</a>
</g>
</g>
<!-- PMS&#45;&gt;FM -->
<g id="edge15" class="edge">
<title>PMS-&gt;FM</title>
<g id="a_edge15"><a xlink:href="bogus" xlink:title="NA">
<path fill="none" stroke="black" stroke-width="0.5" d="M290.26,-472.96C327.99,-469.86 372.32,-462.82 409.85,-447.5 428.37,-439.94 427.95,-429.43 445.85,-420.5 460.85,-413.02 478.26,-407.28 493.95,-403.06"/>
<polygon fill="black" stroke="black" stroke-width="0.5" points="494.65,-406.49 503.46,-400.62 492.91,-399.71 494.65,-406.49"/>
</a>
</g>
</g>
<!-- FMT -->
<g id="node10" class="node">
<title>FMT</title>
<g id="a_node10"><a xlink:title="Import af turisme
FRML &lt;_I&gt; FMT           = FCT$">
<polygon fill="#63b8ff" stroke="black" points="274.85,-438.5 135,-438.5 135,-402.5 274.85,-402.5 274.85,-438.5"/>
<text text-anchor="start" x="140.8" y="-415.45" font-family="Times New Roman,serif" font-size="14.00" fill="blue">FMT:Import af turisme</text>
</a>
</g>
</g>
<!-- FMT&#45;&gt;FM -->
<g id="edge8" class="edge">
<title>FMT-&gt;FM</title>
<g id="a_edge8"><a xlink:href="bogus" xlink:title="NA">
<path fill="none" stroke="black" stroke-width="0.5" d="M274.97,-414.91C340.61,-409.59 437.44,-401.74 493.83,-397.17"/>
<polygon fill="black" stroke="black" stroke-width="0.5" points="493.85,-400.68 503.53,-396.39 493.28,-393.71 493.85,-400.68"/>
</a>
</g>
</g>
<!-- PAE&#45;&gt;FAE -->
<g id="edge12" class="edge">
<title>PAE-&gt;FAE</title>
<g id="a_edge12"><a xlink:href="bogus" xlink:title="NA">
<path fill="none" stroke="black" stroke-width="0.5" d="M670.2,-211.05C650.06,-206.94 629.58,-202.5 611.05,-198.22"/>
<polygon fill="black" stroke="black" stroke-width="0.5" points="612.09,-194.87 601.55,-196 610.49,-201.68 612.09,-194.87"/>
</a>
</g>
</g>
<!-- PAE&#45;&gt;FY -->
<g id="edge20" class="edge">
<title>PAE-&gt;FY</title>
<g id="a_edge20"><a xlink:href="bogus" xlink:title="NA">
<path fill="none" stroke="black" stroke-width="0.5" d="M806.31,-245.9C837.62,-271.43 894.29,-317.64 929.11,-346.05"/>
<polygon fill="black" stroke="black" stroke-width="0.5" points="926.66,-348.56 936.62,-352.17 931.08,-343.14 926.66,-348.56"/>
</a>
</g>
</g>
<!-- FM&#45;&gt;FY -->
<g id="edge25" class="edge">
<title>FM-&gt;FY</title>
<g id="a_edge25"><a xlink:href="bogus" xlink:title="NA">
<path fill="none" stroke="black" stroke-width="0.5" d="M577.06,-383.92C602.84,-377.56 638.51,-369.8 670.45,-366.5 759.85,-357.27 865.65,-362.93 921,-367.15"/>
<polygon fill="black" stroke="black" stroke-width="0.5" points="920.49,-370.62 930.73,-367.92 921.04,-363.65 920.49,-370.62"/>
</a>
</g>
</g>
<!-- PM -->
<g id="node20" class="node">
<title>PM</title>
<g id="a_node20"><a xlink:title="Pris på import
FRML &lt;_D&gt; PM            = M/FM $">
<polygon fill="#63b8ff" stroke="black" points="839.55,-411.5 725.95,-411.5 725.95,-375.5 839.55,-375.5 839.55,-411.5"/>
<text text-anchor="start" x="731.75" y="-388.45" font-family="Times New Roman,serif" font-size="14.00" fill="blue">PM:Pris på import</text>
</a>
</g>
</g>
<!-- FM&#45;&gt;PM -->
<g id="edge2" class="edge">
<title>FM-&gt;PM</title>
<g id="a_edge2"><a xlink:href="bogus" xlink:title="NA">
<path fill="none" stroke="black" stroke-width="0.5" d="M577.17,-388.52C613.73,-386.62 671.17,-386.25 715.89,-387.41"/>
<polygon fill="black" stroke="black" stroke-width="0.5" points="715.7,-390.9 725.8,-387.69 715.91,-383.91 715.7,-390.9"/>
</a>
</g>
</g>
<!-- PME -->
<g id="node13" class="node">
<title>PME</title>
<g id="a_node13"><a xlink:title="Pris på import af energi
FRML &lt;_SJRD,JR,EXO,DAMP&gt; PME=( (( (EXP(LOG(PME(-1))+(0.72533)*((LOG(PWOIL*VUSA))-(LOG(PWOIL(-1)*VUSA(-1))))
                               + GPME
                               + (-0.38198)*(LOG(PME(-1)/(PWOIL(-1)*VUSA(-1)))-LOG(BPMEW(-1)))))*(1+JRPME ))*(1-DPME)+ZPME*DPME)*(1+PME_JR ))*(1-PME_D)+PME_X*PME_D$">
<polygon fill="#63b8ff" stroke="black" points="291.72,-384.5 118.12,-384.5 118.12,-348.5 291.72,-348.5 291.72,-384.5"/>
<text text-anchor="start" x="123.92" y="-361.45" font-family="Times New Roman,serif" font-size="14.00" fill="blue">PME:Pris på import af energi</text>
</a>
</g>
</g>
<!-- PME&#45;&gt;FM -->
<g id="edge7" class="edge">
<title>PME-&gt;FM</title>
<g id="a_edge7"><a xlink:href="bogus" xlink:title="NA">
<path fill="none" stroke="black" stroke-width="0.5" d="M292.17,-373.49C356.53,-378.7 441.93,-385.62 493.59,-389.81"/>
<polygon fill="black" stroke="black" stroke-width="0.5" points="493.21,-393.29 503.46,-390.61 493.77,-386.31 493.21,-393.29"/>
</a>
</g>
</g>
<!-- FME -->
<g id="node14" class="node">
<title>FME</title>
<g id="a_node14"><a xlink:title="Import af energi
FRML &lt;_D&gt; FME           = AMEE*FXE + AMES*FXS + AMEEE*FEE + FILME$">
<polygon fill="#63b8ff" stroke="black" points="271.47,-330.5 138.37,-330.5 138.37,-294.5 271.47,-294.5 271.47,-330.5"/>
<text text-anchor="start" x="144.17" y="-307.45" font-family="Times New Roman,serif" font-size="14.00" fill="blue">FME:Import af energi</text>
</a>
</g>
</g>
<!-- FME&#45;&gt;FM -->
<g id="edge23" class="edge">
<title>FME-&gt;FM</title>
<g id="a_edge23"><a xlink:href="bogus" xlink:title="NA">
<path fill="none" stroke="black" stroke-width="0.5" d="M271.54,-316.76C311.94,-320.47 364.51,-327.26 409.85,-339.5 438.8,-347.31 469.84,-360.12 494.26,-371.3"/>
<polygon fill="black" stroke="black" stroke-width="0.5" points="492.73,-374.45 503.27,-375.49 495.68,-368.1 492.73,-374.45"/>
</a>
</g>
</g>
<!-- M -->
<g id="node15" class="node">
<title>M</title>
<g id="a_node15"><a xlink:title="Import
FRML &lt;_I&gt; M             = MX + ME + MS + MT $">
<polygon fill="#63b8ff" stroke="black" points="572.95,-465.5 507.35,-465.5 507.35,-429.5 572.95,-429.5 572.95,-465.5"/>
<text text-anchor="start" x="513.15" y="-442.45" font-family="Times New Roman,serif" font-size="14.00" fill="blue">M:Import</text>
</a>
</g>
</g>
<!-- M&#45;&gt;PM -->
<g id="edge5" class="edge">
<title>M-&gt;PM</title>
<g id="a_edge5"><a xlink:href="bogus" xlink:title="NA">
<path fill="none" stroke="black" stroke-width="0.5" d="M573.1,-440.33C609.38,-432.19 669.55,-418.68 715.98,-408.26"/>
<polygon fill="black" stroke="black" stroke-width="0.5" points="716.67,-411.69 725.66,-406.09 715.14,-404.86 716.67,-411.69"/>
</a>
</g>
</g>
<!-- Y -->
<g id="node16" class="node">
<title>Y</title>
<g id="a_node16"><a xlink:title="BNP
FRML &lt;_I&gt; Y             = CP + CO + I - M + E $">
<polygon fill="#63b8ff" stroke="black" points="567.15,-519.5 513.15,-519.5 513.15,-483.5 567.15,-483.5 567.15,-519.5"/>
<text text-anchor="start" x="520.65" y="-496.45" font-family="Times New Roman,serif" font-size="14.00" fill="blue">Y:BNP</text>
</a>
</g>
</g>
<!-- Y&#45;&gt;PY -->
<g id="edge16" class="edge">
<title>Y-&gt;PY</title>
<g id="a_edge16"><a xlink:href="bogus" xlink:title="NA">
<path fill="none" stroke="black" stroke-width="0.5" d="M567.36,-495.62C603.89,-487.42 671.22,-472.31 720.71,-461.2"/>
<polygon fill="black" stroke="black" stroke-width="0.5" points="721.37,-464.64 730.36,-459.03 719.83,-457.81 721.37,-464.64"/>
</a>
</g>
</g>
<!-- PY&#45;&gt;FY -->
<g id="edge18" class="edge">
<title>PY-&gt;FY</title>
<g id="a_edge18"><a xlink:href="bogus" xlink:title="NA">
<path fill="none" stroke="black" stroke-width="0.5" d="M835.46,-431.3C854.78,-426.59 876.52,-420.46 895.05,-411.5 904.58,-406.89 914.02,-400.69 922.61,-394.45"/>
<polygon fill="black" stroke="black" stroke-width="0.5" points="924.65,-397.3 930.56,-388.51 920.46,-391.69 924.65,-397.3"/>
</a>
</g>
</g>
<!-- FAI -->
<g id="node18" class="node">
<title>FAI</title>
<g id="a_node18"><a xlink:title="Endelig indenlandsk efterspørgsel
FRML &lt;_I&gt; FAI           = (FCP*PCP(-1) + FCO*PCO(-1) + FI*PI(-1))/PAI(-1)$">
<polygon fill="#63b8ff" stroke="black" points="315.35,-114.5 94.5,-114.5 94.5,-78.5 315.35,-78.5 315.35,-114.5"/>
<text text-anchor="start" x="100.3" y="-91.45" font-family="Times New Roman,serif" font-size="14.00" fill="blue">FAI:Endelig indenlandsk efterspørgsel</text>
</a>
</g>
</g>
<!-- FAI&#45;&gt;FAE -->
<g id="edge9" class="edge">
<title>FAI-&gt;FAE</title>
<g id="a_edge9"><a xlink:href="bogus" xlink:title="NA">
<path fill="none" stroke="black" stroke-width="0.5" d="M315.72,-105.64C346.5,-109.66 379.77,-115.38 409.85,-123.5 438.49,-131.23 469.17,-143.84 493.46,-154.94"/>
<polygon fill="black" stroke="black" stroke-width="0.5" points="491.9,-158.07 502.44,-159.1 494.84,-151.72 491.9,-158.07"/>
</a>
</g>
</g>
<!-- PMT -->
<g id="node19" class="node">
<title>PMT</title>
<g id="a_node19"><a xlink:title="Pris på import af turisme (=PCT)
Exogen">
<polygon fill="yellow" stroke="black" points="317.97,-276.5 91.87,-276.5 91.87,-240.5 317.97,-240.5 317.97,-276.5"/>
<text text-anchor="start" x="97.67" y="-253.45" font-family="Times New Roman,serif" font-size="14.00" fill="blue">PMT:Pris på import af turisme (=PCT)</text>
</a>
</g>
</g>
<!-- PMT&#45;&gt;FM -->
<g id="edge21" class="edge">
<title>PMT-&gt;FM</title>
<g id="a_edge21"><a xlink:href="bogus" xlink:title="NA">
<path fill="none" stroke="black" stroke-width="0.5" d="M318.27,-261.97C348.93,-265.93 381.48,-273.04 409.85,-285.5 453.24,-304.55 493.49,-342.74 517.2,-368.22"/>
<polygon fill="black" stroke="black" stroke-width="0.5" points="514.4,-370.34 523.73,-375.36 519.57,-365.62 514.4,-370.34"/>
</a>
</g>
</g>
<!-- PM&#45;&gt;FY -->
<g id="edge1" class="edge">
<title>PM-&gt;FY</title>
<g id="a_edge1"><a xlink:href="bogus" xlink:title="NA">
<path fill="none" stroke="black" stroke-width="0.5" d="M839.71,-386.16C866.2,-382.69 897.15,-378.63 920.9,-375.51"/>
<polygon fill="black" stroke="black" stroke-width="0.5" points="921.14,-379.01 930.6,-374.24 920.23,-372.07 921.14,-379.01"/>
</a>
</g>
</g>
<!-- PM&#45;&gt;FM -->
<g id="edge17" class="edge">
<title>PM-&gt;FM</title>
<g id="a_edge17"><a xlink:href="bogus" xlink:title="NA">
<path fill="none" stroke="black" stroke-width="0.5" d="M725.8,-399.31C683.64,-400.68 626.55,-400.55 587.06,-398.94"/>
<polygon fill="black" stroke="black" stroke-width="0.5" points="587.32,-395.45 577.17,-398.48 587,-402.44 587.32,-395.45"/>
</a>
</g>
</g>
<!-- PAI -->
<g id="node21" class="node">
<title>PAI</title>
<g id="a_node21"><a xlink:title="Pris på endelig, indenlandsk anvendelse
FRML &lt;_D&gt; PAI           = AI/FAI $">
<polygon fill="#63b8ff" stroke="black" points="331.85,-60.5 78,-60.5 78,-24.5 331.85,-24.5 331.85,-60.5"/>
<text text-anchor="start" x="83.8" y="-37.45" font-family="Times New Roman,serif" font-size="14.00" fill="blue">PAI:Pris på endelig, indenlandsk anvendelse</text>
</a>
</g>
</g>
<!-- PAI&#45;&gt;FAE -->
<g id="edge10" class="edge">
<title>PAI-&gt;FAE</title>
<g id="a_edge10"><a xlink:href="bogus" xlink:title="NA">
<path fill="none" stroke="black" stroke-width="0.5" d="M332.16,-47.97C358.59,-52.18 385.73,-58.91 409.85,-69.5 453.24,-88.55 493.49,-126.74 517.2,-152.22"/>
<polygon fill="black" stroke="black" stroke-width="0.5" points="514.4,-154.34 523.73,-159.36 519.57,-149.62 514.4,-154.34"/>
</a>
</g>
</g>
</g>
</svg>