<svg xmlns="http://www.w3.org/2000/svg" xmlns:xlink="http://www.w3.org/1999/xlink" width="432pt" height="263pt" viewBox="0.00 0.00 432.00 263.24">
<g id="graph0" class="graph" transform="scale(0.342314 0.342314) rotate(0) translate(4 765)">
<title>TD</title>
<polygon fill="white" stroke="none" points="-4,4 -4,-765 1258,-765 1258,4 -4,4"/>
<text text-anchor="middle" x="627" y="-7.8" font-family="Times New Roman,serif" font-size="14.00">PAKNYGDPMKTPKN</text>
<!-- PAKNYWRTINFMCN_FITTED -->
<g id="node1" class="node">
<title>PAKNYWRTINFMCN_FITTED</title>
<g id="a_node1"><a xlink:title="Fitted  value:Informal wage
FRML &lt;FIT&gt; PAKNYWRTINFMCN_FITTED = PAKNYWRTINFMCN(-1)*EXP( (-0.122614247140616-0.3*(LOG(PAKNYWRTINFMCN(-1))-LOG(PAKNYGDPFCSTXN(-1))-LOG(PAKNYGDPPOTLKN(-1)/PAKLMEMPSTRLCN(-1)))+0.2*((LOG(PAKNYWRTINFMCN(-1)))-(LOG(PAKNYWRTINFMCN(-2))))+(1-0.2)*(0.5*((LOG(PAKNYGDPFCSTXN(-1)))-(LOG(PAKNYGDPFCSTXN(-2))))+0.5*(PAKINFLEXPT/100)+((LOG(PAKNYGDPMKTPKN/PAKLMEMPSTRLCN))-(LOG(PAKNYGDPMKTPKN(-1)/PAKLMEMPSTRLCN(-1)))))-0.2*(PAKLMUNRTOTLCN-PAKLMUNRSTRLCN)/100+0.15347529018182*DURING_2000-0.183372342445734*DURING_2001) ) $">
<polygon fill="#63b8ff" stroke="black" points="1226,-761 875,-761 875,-725 1226,-725 1226,-761"/>
<text text-anchor="start" x="881.5" y="-738.8" font-family="Times New Roman,serif" font-size="14.00" fill="blue">PAKNYWRTINFMCN_FITTED:Fitted  value:Informal wage</text>
</a>
</g>
</g>
<!-- PAKNEEXPGNFSKN -->
<g id="node2" class="node">
<title>PAKNEEXPGNFSKN</title>
<g id="a_node2"><a xlink:title="Exports (G&amp;S)
FRML &lt;Z,EXO&gt; PAKNEEXPGNFSKN = (PAKNEEXPGNFSKN(-1)*EXP(-PAKNEEXPGNFSKN_A+ (-0.35*(LOG(PAKNEEXPGNFSKN(-1))-LOG(PAKXMKT(-1))-0.6*LOG(PAKNEEXPGNFSXN(-1)/(PAKNYGDPFCSTXN(-1))))+1*((LOG(PAKXMKT))-(LOG(PAKXMKT(-1))))+0.3*((LOG(PAKNEEXPGNFSXN/(PAKNYGDPFCSTXN)))-(LOG(PAKNEEXPGNFSXN(-1)/(PAKNYGDPFCSTXN(-1)))))+4.38465374402991-0.237469889780178*DURING_1999-0.230689812873392*DURING_1998+0.320967524344658*DURING_1991+0.250252413901575*DURING_1986) )) * (1-PAKNEEXPGNFSKN_D)+ PAKNEEXPGNFSKN_X*PAKNEEXPGNFSKN_D  $">
<polygon fill="#63b8ff" stroke="black" points="318.5,-626 95.5,-626 95.5,-590 318.5,-590 318.5,-626"/>
<text text-anchor="start" x="102" y="-603.8" font-family="Times New Roman,serif" font-size="14.00" fill="blue">PAKNEEXPGNFSKN:Exports (G&amp;S)</text>
</a>
</g>
</g>
<!-- PAKNYGDPMKTPKN -->
<g id="node5" class="node">
<title>PAKNYGDPMKTPKN</title>
<g id="a_node5"><a xlink:title="GDP Expenditure side at market prices
FRML  &lt;&gt; PAKNYGDPMKTPKN = PAKNECONPRVTKN+PAKNECONGOVTKN+PAKNEGDIFTOTKN+PAKNEGDISTKBKN+PAKNEEXPGNFSKN-PAKNEIMPGNFSKN+PAKNYGDPDISCKN+PAKADAP*PAKDISPREPKN $">
<polygon fill="red" stroke="black" points="811,-410 450,-410 450,-374 811,-374 811,-410"/>
<text text-anchor="start" x="456.5" y="-387.8" font-family="Times New Roman,serif" font-size="14.00" fill="blue">PAKNYGDPMKTPKN:GDP Expenditure side at market prices</text>
</a>
</g>
</g>
<!-- PAKNEEXPGNFSKN&#45;&gt;PAKNYGDPMKTPKN -->
<g id="edge3" class="edge">
<title>PAKNEEXPGNFSKN-&gt;PAKNYGDPMKTPKN</title>
<g id="a_edge3"><a xlink:href="bogus" xlink:title=" PAKNEEXPGNFSKN -&gt; PAKNYGDPMKTPKN Min. att. -10%  max: 0%">
<path fill="none" stroke="black" d="M318.75,-605.49C350.57,-601.62 384.59,-594.32 414,-581 498.36,-542.8 573.95,-460.27 608.94,-418.04"/>
<polygon fill="black" stroke="black" points="611.77,-420.11 615.39,-410.16 606.35,-415.68 611.77,-420.11"/>
</a>
</g>
</g>
<!-- PAKNECONPRVTKN -->
<g id="node3" class="node">
<title>PAKNECONPRVTKN</title>
<g id="a_node3"><a xlink:title="Household Consumption
FRML &lt;Z,EXO&gt; PAKNECONPRVTKN = (PAKNECONPRVTKN(-1)*EXP(-PAKNECONPRVTKN_A+ (-0.2*(LOG(PAKNECONPRVTKN(-1))-LOG((PAKNYYWBTOTLCN(-1)*(1-PAKGGREVDRCTXN(-1)/100))/PAKNECONPRVTXN(-1)))+1*((LOG((PAKNYYWBTOTLCN*(1-PAKGGREVDRCTXN/100))/PAKNECONPRVTXN))-(LOG((PAKNYYWBTOTLCN(-1)*(1-PAKGGREVDRCTXN(-1)/100))/PAKNECONPRVTXN(-1))))+0.0303228629698929+0.0163839011059956*DURING_2010-0.3*(PAKFMLBLPOLYXN/100-((LOG(PAKNECONPRVTXN))-(LOG(PAKNECONPRVTXN(-1)))))) )) * (1-PAKNECONPRVTKN_D)+ PAKNECONPRVTKN_X*PAKNECONPRVTKN_D  $">
<polygon fill="#63b8ff" stroke="black" points="346,-572 68,-572 68,-536 346,-536 346,-572"/>
<text text-anchor="start" x="74" y="-549.8" font-family="Times New Roman,serif" font-size="14.00" fill="blue">PAKNECONPRVTKN:Household Consumption</text>
</a>
</g>
</g>
<!-- PAKNECONPRVTKN&#45;&gt;PAKNYGDPMKTPKN -->
<g id="edge19" class="edge">
<title>PAKNECONPRVTKN-&gt;PAKNYGDPMKTPKN</title>
<g id="a_edge19"><a xlink:href="bogus" xlink:title=" PAKNECONPRVTKN -&gt; PAKNYGDPMKTPKN Min. att. -1557%  max: 290%">
<path fill="none" stroke="black" stroke-width="8" d="M346.25,-544.2C369.28,-540.22 392.61,-534.68 414,-527 486.53,-500.93 560.36,-447.64 599.98,-416.37"/>
<polygon fill="black" stroke="black" stroke-width="8" points="604.45,-421.76 607.91,-410.05 595.72,-410.81 604.45,-421.76"/>
</a>
</g>
</g>
<!-- PAKADAP -->
<g id="node4" class="node">
<title>PAKADAP</title>
<g id="a_node4"><a xlink:title="Switch on adaptation mode (0 or 1)
Exogen">
<polygon fill="yellow" stroke="black" points="344,-518 70,-518 70,-482 344,-482 344,-518"/>
<text text-anchor="start" x="76" y="-495.8" font-family="Times New Roman,serif" font-size="14.00" fill="blue">PAKADAP:Switch on adaptation mode (0 or 1)</text>
</a>
</g>
</g>
<!-- PAKADAP&#45;&gt;PAKNYGDPMKTPKN -->
<g id="edge1" class="edge">
<title>PAKADAP-&gt;PAKNYGDPMKTPKN</title>
<g id="a_edge1"><a xlink:href="bogus" xlink:title=" PAKADAP -&gt; PAKNYGDPMKTPKN Min. att. -0%  max: 0%">
<path fill="none" stroke="black" d="M344.02,-486.66C367.53,-483.08 391.6,-478.6 414,-473 472.76,-458.31 537.47,-432.63 580.49,-414.12"/>
<polygon fill="black" stroke="black" points="582.09,-417.24 589.87,-410.05 579.3,-410.82 582.09,-417.24"/>
</a>
</g>
</g>
<!-- PAKNYGDPMKTPKN&#45;&gt;PAKNYWRTINFMCN_FITTED -->
<g id="edge20" class="edge">
<title>PAKNYGDPMKTPKN-&gt;PAKNYWRTINFMCN_FITTED</title>
<g id="a_edge20"><a xlink:href="bogus" xlink:title=" PAKNYGDPMKTPKN -&gt; PAKNYWRTINFMCN_FITTED Min. att. -3148%  max: 101%">
<path fill="none" stroke="black" stroke-width="8" d="M637.5,-410.3C657.13,-466.91 725.23,-639.96 847,-716 852.86,-719.66 859,-722.92 865.35,-725.82"/>
<polygon fill="black" stroke="black" stroke-width="8" points="862.85,-732.36 874.79,-729.81 868.3,-719.47 862.85,-732.36"/>
</a>
</g>
</g>
<!-- PAKFMLBLMTWOKN -->
<g id="node7" class="node">
<title>PAKFMLBLMTWOKN</title>
<g id="a_node7"><a xlink:title="Real money supply
FRML &lt;Z,EXO&gt; PAKFMLBLMTWOKN = (PAKFMLBLMTWOKN(-1)*EXP(-PAKFMLBLMTWOKN_A+ (-0.2*(LOG(PAKFMLBLMTWOKN(-1))-LOG(PAKNYGDPMKTPKN(-1))+0.1*PAKFMLBLPOLYXN(-1)/100-LOG(PAKVELOCITY(-1)))-0.32628131688075+0.7*((LOG(PAKNYGDPMKTPKN))-(LOG(PAKNYGDPMKTPKN(-1))))-1*((PAKFMLBLPOLYXN/100)-(PAKFMLBLPOLYXN(-1)/100))-((LOG(PAKVELOCITY))-(LOG(PAKVELOCITY(-1))))) )) * (1-PAKFMLBLMTWOKN_D)+ PAKFMLBLMTWOKN_X*PAKFMLBLMTWOKN_D  $">
<polygon fill="#63b8ff" stroke="black" points="1179.5,-707 921.5,-707 921.5,-671 1179.5,-671 1179.5,-707"/>
<text text-anchor="start" x="927.5" y="-684.8" font-family="Times New Roman,serif" font-size="14.00" fill="blue">PAKFMLBLMTWOKN:Real money supply</text>
</a>
</g>
</g>
<!-- PAKNYGDPMKTPKN&#45;&gt;PAKFMLBLMTWOKN -->
<g id="edge22" class="edge">
<title>PAKNYGDPMKTPKN-&gt;PAKFMLBLMTWOKN</title>
<g id="a_edge22"><a xlink:href="bogus" xlink:title=" PAKNYGDPMKTPKN -&gt; PAKFMLBLMTWOKN Min. att. -360%  max: 149%">
<path fill="none" stroke="black" stroke-width="8" d="M639.76,-410.08C663.66,-460.05 738.16,-600.42 847,-662 866.56,-673.07 888.85,-680.31 911.31,-684.94"/>
<polygon fill="black" stroke="black" stroke-width="8" points="910.16,-691.85 921.29,-686.83 912.76,-678.09 910.16,-691.85"/>
</a>
</g>
</g>
<!-- PAKNYWRTFORMCN_FITTED -->
<g id="node8" class="node">
<title>PAKNYWRTFORMCN_FITTED</title>
<g id="a_node8"><a xlink:title="Fitted  value:Formal wage
FRML &lt;FIT&gt; PAKNYWRTFORMCN_FITTED = PAKNYWRTFORMCN(-1)*EXP( (-0.120164450250183-0.3*(LOG(PAKNYWRTFORMCN(-1))-LOG(PAKNYGDPFCSTXN(-1))-LOG(PAKNYGDPPOTLKN(-1)/PAKLMEMPSTRLCN(-1)))+0.2*((LOG(PAKNYWRTFORMCN(-1)))-(LOG(PAKNYWRTFORMCN(-2))))+(1-0.2)*(0.5*((LOG(PAKNYGDPFCSTXN(-1)))-(LOG(PAKNYGDPFCSTXN(-2))))+0.5*(PAKINFLEXPT/100)+((LOG(PAKNYGDPMKTPKN/PAKLMEMPSTRLCN))-(LOG(PAKNYGDPMKTPKN(-1)/PAKLMEMPSTRLCN(-1)))))-0.2*(PAKLMUNRTOTLCN-PAKLMUNRSTRLCN)/100+0.15233813938029*DURING_2000-0.183411483907703*DURING_2001) ) $">
<polygon fill="#63b8ff" stroke="black" points="1224,-653 877,-653 877,-617 1224,-617 1224,-653"/>
<text text-anchor="start" x="883.5" y="-630.8" font-family="Times New Roman,serif" font-size="14.00" fill="blue">PAKNYWRTFORMCN_FITTED:Fitted  value:Formal wage</text>
</a>
</g>
</g>
<!-- PAKNYGDPMKTPKN&#45;&gt;PAKNYWRTFORMCN_FITTED -->
<g id="edge8" class="edge">
<title>PAKNYGDPMKTPKN-&gt;PAKNYWRTFORMCN_FITTED</title>
<g id="a_edge8"><a xlink:href="bogus" xlink:title=" PAKNYGDPMKTPKN -&gt; PAKNYWRTFORMCN_FITTED Min. att. -3148%  max: 101%">
<path fill="none" stroke="black" stroke-width="8" d="M643.21,-410.12C671.98,-452.96 750.86,-560.42 847,-608 853.56,-611.24 860.37,-614.14 867.36,-616.73"/>
<polygon fill="black" stroke="black" stroke-width="8" points="865.25,-623.4 876.99,-620.06 869.83,-610.17 865.25,-623.4"/>
</a>
</g>
</g>
<!-- PAKNYWRTINFMCN -->
<g id="node11" class="node">
<title>PAKNYWRTINFMCN</title>
<g id="a_node11"><a xlink:title="Informal wage
FRML &lt;Z,EXO&gt; PAKNYWRTINFMCN = (PAKNYWRTINFMCN(-1)*EXP(-PAKNYWRTINFMCN_A+ (-0.122614247140616-0.3*(LOG(PAKNYWRTINFMCN(-1))-LOG(PAKNYGDPFCSTXN(-1))-LOG(PAKNYGDPPOTLKN(-1)/PAKLMEMPSTRLCN(-1)))+0.2*((LOG(PAKNYWRTINFMCN(-1)))-(LOG(PAKNYWRTINFMCN(-2))))+(1-0.2)*(0.5*((LOG(PAKNYGDPFCSTXN(-1)))-(LOG(PAKNYGDPFCSTXN(-2))))+0.5*(PAKINFLEXPT/100)+((LOG(PAKNYGDPMKTPKN/PAKLMEMPSTRLCN))-(LOG(PAKNYGDPMKTPKN(-1)/PAKLMEMPSTRLCN(-1)))))-0.2*(PAKLMUNRTOTLCN-PAKLMUNRSTRLCN)/100+0.15347529018182*DURING_2000-0.183372342445734*DURING_2001) )) * (1-PAKNYWRTINFMCN_D)+ PAKNYWRTINFMCN_X*PAKNYWRTINFMCN_D  $">
<polygon fill="#63b8ff" stroke="black" points="1163.5,-599 937.5,-599 937.5,-563 1163.5,-563 1163.5,-599"/>
<text text-anchor="start" x="943.5" y="-576.8" font-family="Times New Roman,serif" font-size="14.00" fill="blue">PAKNYWRTINFMCN:Informal wage</text>
</a>
</g>
</g>
<!-- PAKNYGDPMKTPKN&#45;&gt;PAKNYWRTINFMCN -->
<g id="edge4" class="edge">
<title>PAKNYGDPMKTPKN-&gt;PAKNYWRTINFMCN</title>
<g id="a_edge4"><a xlink:href="bogus" xlink:title=" PAKNYGDPMKTPKN -&gt; PAKNYWRTINFMCN Min. att. -3148%  max: 101%">
<path fill="none" stroke="black" stroke-width="8" d="M648.77,-410.12C682.95,-444.69 763.18,-519.69 847,-554 872.07,-564.26 900.2,-570.8 927.34,-574.93"/>
<polygon fill="black" stroke="black" stroke-width="8" points="926.4,-581.87 937.28,-576.35 928.37,-568.01 926.4,-581.87"/>
</a>
</g>
</g>
<!-- PAKNYWRTFORMCN -->
<g id="node13" class="node">
<title>PAKNYWRTFORMCN</title>
<g id="a_node13"><a xlink:title="Formal wage
FRML &lt;Z,EXO&gt; PAKNYWRTFORMCN = (PAKNYWRTFORMCN(-1)*EXP(-PAKNYWRTFORMCN_A+ (-0.120164450250183-0.3*(LOG(PAKNYWRTFORMCN(-1))-LOG(PAKNYGDPFCSTXN(-1))-LOG(PAKNYGDPPOTLKN(-1)/PAKLMEMPSTRLCN(-1)))+0.2*((LOG(PAKNYWRTFORMCN(-1)))-(LOG(PAKNYWRTFORMCN(-2))))+(1-0.2)*(0.5*((LOG(PAKNYGDPFCSTXN(-1)))-(LOG(PAKNYGDPFCSTXN(-2))))+0.5*(PAKINFLEXPT/100)+((LOG(PAKNYGDPMKTPKN/PAKLMEMPSTRLCN))-(LOG(PAKNYGDPMKTPKN(-1)/PAKLMEMPSTRLCN(-1)))))-0.2*(PAKLMUNRTOTLCN-PAKLMUNRSTRLCN)/100+0.15233813938029*DURING_2000-0.183411483907703*DURING_2001) )) * (1-PAKNYWRTFORMCN_D)+ PAKNYWRTFORMCN_X*PAKNYWRTFORMCN_D  $">
<polygon fill="#63b8ff" stroke="black" points="1161.5,-545 939.5,-545 939.5,-509 1161.5,-509 1161.5,-545"/>
<text text-anchor="start" x="945.5" y="-522.8" font-family="Times New Roman,serif" font-size="14.00" fill="blue">PAKNYWRTFORMCN:Formal wage</text>
</a>
</g>
</g>
<!-- PAKNYGDPMKTPKN&#45;&gt;PAKNYWRTFORMCN -->
<g id="edge2" class="edge">
<title>PAKNYGDPMKTPKN-&gt;PAKNYWRTFORMCN</title>
<g id="a_edge2"><a xlink:href="bogus" xlink:title=" PAKNYGDPMKTPKN -&gt; PAKNYWRTFORMCN Min. att. -3148%  max: 101%">
<path fill="none" stroke="black" stroke-width="8" d="M659.84,-410.07C699.86,-434.68 776,-478.15 847,-500 873.11,-508.04 901.85,-513.68 929.27,-517.65"/>
<polygon fill="black" stroke="black" stroke-width="8" points="928.43,-524.6 939.3,-519.03 930.35,-510.73 928.43,-524.6"/>
</a>
</g>
</g>
<!-- PAKNYGDPMKTPXN -->
<g id="node14" class="node">
<title>PAKNYGDPMKTPXN</title>
<g id="a_node14"><a xlink:title="GDP deflator
FRML  &lt;&gt; PAKNYGDPMKTPXN = PAKNYGDPMKTPCN/PAKNYGDPMKTPKN $">
<polygon fill="#63b8ff" stroke="black" points="1160.5,-491 940.5,-491 940.5,-455 1160.5,-455 1160.5,-491"/>
<text text-anchor="start" x="946.5" y="-468.8" font-family="Times New Roman,serif" font-size="14.00" fill="blue">PAKNYGDPMKTPXN:GDP deflator</text>
</a>
</g>
</g>
<!-- PAKNYGDPMKTPKN&#45;&gt;PAKNYGDPMKTPXN -->
<g id="edge10" class="edge">
<title>PAKNYGDPMKTPKN-&gt;PAKNYGDPMKTPXN</title>
<g id="a_edge10"><a xlink:href="bogus" xlink:title=" PAKNYGDPMKTPKN -&gt; PAKNYGDPMKTPXN Min. att. -81%  max: 46%">
<path fill="none" stroke="black" stroke-width="8" d="M695.67,-410.1C738.3,-421.63 795.67,-436.18 847,-446 873.84,-451.13 902.86,-455.62 930.32,-459.39"/>
<polygon fill="black" stroke="black" stroke-width="8" points="929.52,-466.35 940.36,-460.75 931.39,-452.47 929.52,-466.35"/>
</a>
</g>
</g>
<!-- PAKNEADPKMAXKN -->
<g id="node15" class="node">
<title>PAKNEADPKMAXKN</title>
<g id="a_node15"><a xlink:title="PAKNEADPKMAXKN
FRML &lt;Z,EXO&gt; PAKNEADPKMAXKN = (0*DUMH+((1+0.01)/(0.01+PAKDEPR))*(PAKAVDAMAGE/100)*PAKNYGDPMKTPKN + PAKNEADPKMAXKN_A)* (1-PAKNEADPKMAXKN_D)+ PAKNEADPKMAXKN_X*PAKNEADPKMAXKN_D  $">
<polygon fill="#63b8ff" stroke="black" points="1125,-437 976,-437 976,-401 1125,-401 1125,-437"/>
<text text-anchor="start" x="982.5" y="-414.8" font-family="Times New Roman,serif" font-size="14.00" fill="blue">PAKNEADPKMAXKN:</text>
</a>
</g>
</g>
<!-- PAKNYGDPMKTPKN&#45;&gt;PAKNEADPKMAXKN -->
<g id="edge9" class="edge">
<title>PAKNYGDPMKTPKN-&gt;PAKNEADPKMAXKN</title>
<g id="a_edge9"><a xlink:href="bogus" xlink:title=" PAKNYGDPMKTPKN -&gt; PAKNEADPKMAXKN Min. att. 100%  max: 100%">
<path fill="none" stroke="black" stroke-width="8" d="M811.2,-403.61C864.88,-407.07 921.19,-410.71 965.59,-413.58"/>
<polygon fill="black" stroke="black" stroke-width="8" points="965.31,-420.58 975.74,-414.24 966.21,-406.61 965.31,-420.58"/>
</a>
</g>
</g>
<!-- PAKHURDAMKN -->
<g id="node16" class="node">
<title>PAKHURDAMKN</title>
<g id="a_node16"><a xlink:title="Hurricane damage, constant prices
FRML  &lt;&gt; PAKHURDAMKN = (PAKNEHURAVERKN_/100)*PAKNYGDPMKTPKN(-1)*(1-PAKNEHURPTVTKN) $">
<polygon fill="#63b8ff" stroke="black" points="1206.5,-383 894.5,-383 894.5,-347 1206.5,-347 1206.5,-383"/>
<text text-anchor="start" x="900.5" y="-360.8" font-family="Times New Roman,serif" font-size="14.00" fill="blue">PAKHURDAMKN:Hurricane damage, constant prices</text>
</a>
</g>
</g>
<!-- PAKNYGDPMKTPKN&#45;&gt;PAKHURDAMKN -->
<g id="edge11" class="edge">
<title>PAKNYGDPMKTPKN-&gt;PAKHURDAMKN</title>
<g id="a_edge11"><a xlink:href="bogus" xlink:title=" PAKNYGDPMKTPKN -&gt; PAKHURDAMKN Min. att. 0%  max: 0%">
<path fill="none" stroke="black" d="M811.2,-380.39C835.4,-378.83 860.13,-377.23 884.07,-375.69"/>
<polygon fill="black" stroke="black" points="884.53,-379.16 894.28,-375.03 884.07,-372.18 884.53,-379.16"/>
</a>
</g>
</g>
<!-- PAKGDPPCKN -->
<g id="node17" class="node">
<title>PAKGDPPCKN</title>
<g id="a_node17"><a xlink:title="PAKGDPPCKN
FRML  &lt;&gt; PAKGDPPCKN = (PAKNYGDPMKTPKN/PAKSPPOPTOTL) $">
<polygon fill="#63b8ff" stroke="black" points="1103.5,-329 997.5,-329 997.5,-293 1103.5,-293 1103.5,-329"/>
<text text-anchor="start" x="1003.5" y="-306.8" font-family="Times New Roman,serif" font-size="14.00" fill="blue">PAKGDPPCKN:</text>
</a>
</g>
</g>
<!-- PAKNYGDPMKTPKN&#45;&gt;PAKGDPPCKN -->
<g id="edge7" class="edge">
<title>PAKNYGDPMKTPKN-&gt;PAKGDPPCKN</title>
<g id="a_edge7"><a xlink:href="bogus" xlink:title=" PAKNYGDPMKTPKN -&gt; PAKGDPPCKN Min. att. 100%  max: 100%">
<path fill="none" stroke="black" stroke-width="8" d="M695.67,-373.9C738.3,-362.37 795.67,-347.82 847,-338 893.63,-329.08 946.85,-322.11 987.03,-317.48"/>
<polygon fill="black" stroke="black" stroke-width="8" points="988.07,-324.41 997.22,-316.33 986.49,-310.5 988.07,-324.41"/>
</a>
</g>
</g>
<!-- PAKNYGDPGAP_ -->
<g id="node19" class="node">
<title>PAKNYGDPGAP_</title>
<g id="a_node19"><a xlink:title="Output Gap (% of Potential GDP)
FRML  &lt;&gt; PAKNYGDPGAP_ = ((PAKNYGDPMKTPKN/PAKNYGDPPOTLKN-1)*100) $">
<polygon fill="#63b8ff" stroke="black" points="1205,-275 896,-275 896,-239 1205,-239 1205,-275"/>
<text text-anchor="start" x="902.5" y="-252.8" font-family="Times New Roman,serif" font-size="14.00" fill="blue">PAKNYGDPGAP_:Output Gap (% of Potential GDP)</text>
</a>
</g>
</g>
<!-- PAKNYGDPMKTPKN&#45;&gt;PAKNYGDPGAP_ -->
<g id="edge18" class="edge">
<title>PAKNYGDPMKTPKN-&gt;PAKNYGDPGAP_</title>
<g id="a_edge18"><a xlink:href="bogus" xlink:title=" PAKNYGDPMKTPKN -&gt; PAKNYGDPGAP_ Min. att. -78566%  max: 128265%">
<path fill="none" stroke="black" stroke-width="8" d="M659.84,-373.93C699.86,-349.32 776,-305.85 847,-284 859.43,-280.18 872.45,-276.89 885.63,-274.08"/>
<polygon fill="black" stroke="black" stroke-width="8" points="887.35,-280.87 895.74,-272.01 884.54,-267.15 887.35,-280.87"/>
</a>
</g>
</g>
<!-- PAKFMLBLMTWOKN_FITTED -->
<g id="node20" class="node">
<title>PAKFMLBLMTWOKN_FITTED</title>
<g id="a_node20"><a xlink:title="Fitted  value:Real money supply
FRML &lt;FIT&gt; PAKFMLBLMTWOKN_FITTED = PAKFMLBLMTWOKN(-1)*EXP( (-0.2*(LOG(PAKFMLBLMTWOKN(-1))-LOG(PAKNYGDPMKTPKN(-1))+0.1*PAKFMLBLPOLYXN(-1)/100-LOG(PAKVELOCITY(-1)))-0.32628131688075+0.7*((LOG(PAKNYGDPMKTPKN))-(LOG(PAKNYGDPMKTPKN(-1))))-1*((PAKFMLBLPOLYXN/100)-(PAKFMLBLPOLYXN(-1)/100))-((LOG(PAKVELOCITY))-(LOG(PAKVELOCITY(-1))))) ) $">
<polygon fill="#63b8ff" stroke="black" points="1242,-221 859,-221 859,-185 1242,-185 1242,-221"/>
<text text-anchor="start" x="865.5" y="-198.8" font-family="Times New Roman,serif" font-size="14.00" fill="blue">PAKFMLBLMTWOKN_FITTED:Fitted  value:Real money supply</text>
</a>
</g>
</g>
<!-- PAKNYGDPMKTPKN&#45;&gt;PAKFMLBLMTWOKN_FITTED -->
<g id="edge13" class="edge">
<title>PAKNYGDPMKTPKN-&gt;PAKFMLBLMTWOKN_FITTED</title>
<g id="a_edge13"><a xlink:href="bogus" xlink:title=" PAKNYGDPMKTPKN -&gt; PAKFMLBLMTWOKN_FITTED Min. att. -360%  max: 149%">
<path fill="none" stroke="black" stroke-width="8" d="M648.77,-373.88C682.95,-339.31 763.18,-264.31 847,-230 852.13,-227.9 857.39,-225.96 862.74,-224.16"/>
<polygon fill="black" stroke="black" stroke-width="8" points="865.05,-230.77 872.46,-221.07 860.81,-217.42 865.05,-230.77"/>
</a>
</g>
</g>
<!-- PAKNYGDPMKTPKD -->
<g id="node22" class="node">
<title>PAKNYGDPMKTPKD</title>
<g id="a_node22"><a xlink:title="PAKNYGDPMKTPKD
FRML  &lt;&gt; PAKNYGDPMKTPKD = (PAKNYGDPMKTPKN*((PAKNYGDPMKTPCN_VALUE_2010)/((PAKNYGDPMKTPKN_VALUE_2010))))/(PAKPANUSATLS_VALUE_2010) $">
<polygon fill="#63b8ff" stroke="black" points="1124,-167 977,-167 977,-131 1124,-131 1124,-167"/>
<text text-anchor="start" x="983.5" y="-144.8" font-family="Times New Roman,serif" font-size="14.00" fill="blue">PAKNYGDPMKTPKD:</text>
</a>
</g>
</g>
<!-- PAKNYGDPMKTPKN&#45;&gt;PAKNYGDPMKTPKD -->
<g id="edge6" class="edge">
<title>PAKNYGDPMKTPKN-&gt;PAKNYGDPMKTPKD</title>
<g id="a_edge6"><a xlink:href="bogus" xlink:title=" PAKNYGDPMKTPKN -&gt; PAKNYGDPMKTPKD Min. att. 100%  max: 100%">
<path fill="none" stroke="black" stroke-width="8" d="M643.21,-373.88C671.98,-331.04 750.86,-223.58 847,-176 883.77,-157.8 928.65,-150.54 966.8,-148.04"/>
<polygon fill="black" stroke="black" stroke-width="8" points="967.27,-155.03 976.86,-147.48 966.49,-141.05 967.27,-155.03"/>
</a>
</g>
</g>
<!-- PAKNEADPKMAXKN_FITTED -->
<g id="node23" class="node">
<title>PAKNEADPKMAXKN_FITTED</title>
<g id="a_node23"><a xlink:title="Fitted  value:PAKNEADPKMAXKN
FRML &lt;FIT&gt; PAKNEADPKMAXKN_FITTED = 0*DUMH+((1+0.01)/(0.01+PAKDEPR))*(PAKAVDAMAGE/100)*PAKNYGDPMKTPKN $">
<polygon fill="#63b8ff" stroke="black" points="1254,-113 847,-113 847,-77 1254,-77 1254,-113"/>
<text text-anchor="start" x="853.5" y="-90.8" font-family="Times New Roman,serif" font-size="14.00" fill="blue">PAKNEADPKMAXKN_FITTED:Fitted  value:PAKNEADPKMAXKN</text>
</a>
</g>
</g>
<!-- PAKNYGDPMKTPKN&#45;&gt;PAKNEADPKMAXKN_FITTED -->
<g id="edge23" class="edge">
<title>PAKNYGDPMKTPKN-&gt;PAKNEADPKMAXKN_FITTED</title>
<g id="a_edge23"><a xlink:href="bogus" xlink:title=" PAKNYGDPMKTPKN -&gt; PAKNEADPKMAXKN_FITTED Min. att. 100%  max: 100%">
<path fill="none" stroke="black" stroke-width="8" d="M639.76,-373.92C663.66,-323.95 738.16,-183.58 847,-122 849.93,-120.34 852.93,-118.77 855.97,-117.28"/>
<polygon fill="black" stroke="black" stroke-width="8" points="859.06,-123.56 865.26,-113.04 853.26,-110.82 859.06,-123.56"/>
</a>
</g>
</g>
<!-- PAKNYGDPFCSTKN -->
<g id="node24" class="node">
<title>PAKNYGDPFCSTKN</title>
<g id="a_node24"><a xlink:title="GDP at factor cost
FRML  &lt;&gt; PAKNYGDPFCSTKN = PAKNYGDPMKTPKN-PAKNYTAXNINDKN $">
<polygon fill="#63b8ff" stroke="black" points="1171.5,-59 929.5,-59 929.5,-23 1171.5,-23 1171.5,-59"/>
<text text-anchor="start" x="935.5" y="-36.8" font-family="Times New Roman,serif" font-size="14.00" fill="blue">PAKNYGDPFCSTKN:GDP at factor cost</text>
</a>
</g>
</g>
<!-- PAKNYGDPMKTPKN&#45;&gt;PAKNYGDPFCSTKN -->
<g id="edge21" class="edge">
<title>PAKNYGDPMKTPKN-&gt;PAKNYGDPFCSTKN</title>
<g id="a_edge21"><a xlink:href="bogus" xlink:title=" PAKNYGDPMKTPKN -&gt; PAKNYGDPFCSTKN Min. att. 100%  max: 100%">
<path fill="none" stroke="black" stroke-width="8" d="M637.5,-373.7C657.13,-317.09 725.23,-144.04 847,-68 868.58,-54.53 893.96,-46.48 919.33,-41.88"/>
<polygon fill="black" stroke="black" stroke-width="8" points="920.68,-48.76 929.42,-40.23 918.41,-34.94 920.68,-48.76"/>
</a>
</g>
</g>
<!-- PAKNEGDISTKBKN -->
<g id="node6" class="node">
<title>PAKNEGDISTKBKN</title>
<g id="a_node6"><a xlink:title="Change in Inventories
Exogen">
<polygon fill="yellow" stroke="black" points="336.5,-464 77.5,-464 77.5,-428 336.5,-428 336.5,-464"/>
<text text-anchor="start" x="84" y="-441.8" font-family="Times New Roman,serif" font-size="14.00" fill="blue">PAKNEGDISTKBKN:Change in Inventories</text>
</a>
</g>
</g>
<!-- PAKNEGDISTKBKN&#45;&gt;PAKNYGDPMKTPKN -->
<g id="edge5" class="edge">
<title>PAKNEGDISTKBKN-&gt;PAKNYGDPMKTPKN</title>
<g id="a_edge5"><a xlink:href="bogus" xlink:title=" PAKNEGDISTKBKN -&gt; PAKNYGDPMKTPKN Min. att. -0%  max: 0%">
<path fill="none" stroke="black" d="M336.75,-429.5C381.53,-423.77 432.15,-417.28 478.55,-411.34"/>
<polygon fill="black" stroke="black" points="479.22,-414.78 488.69,-410.04 478.33,-407.84 479.22,-414.78"/>
</a>
</g>
</g>
<!-- PAKNECONGOVTKN -->
<g id="node9" class="node">
<title>PAKNECONGOVTKN</title>
<g id="a_node9"><a xlink:title="Government Consumption
FRML  &lt;&gt; PAKNECONGOVTKN = PAKNECONGOVTCN/PAKNECONGOVTXN $">
<polygon fill="#63b8ff" stroke="black" points="353,-410 61,-410 61,-374 353,-374 353,-410"/>
<text text-anchor="start" x="67" y="-387.8" font-family="Times New Roman,serif" font-size="14.00" fill="blue">PAKNECONGOVTKN:Government Consumption</text>
</a>
</g>
</g>
<!-- PAKNECONGOVTKN&#45;&gt;PAKNYGDPMKTPKN -->
<g id="edge14" class="edge">
<title>PAKNECONGOVTKN-&gt;PAKNYGDPMKTPKN</title>
<g id="a_edge14"><a xlink:href="bogus" xlink:title=" PAKNECONGOVTKN -&gt; PAKNYGDPMKTPKN Min. att. -108%  max: 835%">
<path fill="none" stroke="black" stroke-width="8" d="M353.06,-392C380.96,-392 410.57,-392 439.65,-392"/>
<polygon fill="black" stroke="black" stroke-width="8" points="439.91,-399 449.91,-392 439.91,-385 439.91,-399"/>
</a>
</g>
</g>
<!-- PAKDISPREPKN -->
<g id="node10" class="node">
<title>PAKDISPREPKN</title>
<g id="a_node10"><a xlink:title="Investment in disaster risk preparation, constant prices
FRML  &lt;&gt; PAKDISPREPKN = PAKDISPREPCN/PAKNYGDPMKTPXN $">
<polygon fill="#63b8ff" stroke="black" points="414,-356 0,-356 0,-320 414,-320 414,-356"/>
<text text-anchor="start" x="6" y="-333.8" font-family="Times New Roman,serif" font-size="14.00" fill="blue">PAKDISPREPKN:Investment in disaster risk preparation, constant prices</text>
</a>
</g>
</g>
<!-- PAKDISPREPKN&#45;&gt;PAKNYGDPMKTPKN -->
<g id="edge17" class="edge">
<title>PAKDISPREPKN-&gt;PAKNYGDPMKTPKN</title>
<g id="a_edge17"><a xlink:href="bogus" xlink:title=" PAKDISPREPKN -&gt; PAKNYGDPMKTPKN Min. att. -0%  max: 0%">
<path fill="none" stroke="black" d="M348.65,-356.02C390.42,-361.37 436.35,-367.25 478.74,-372.69"/>
<polygon fill="black" stroke="black" points="478.5,-376.18 488.87,-373.98 479.39,-369.24 478.5,-376.18"/>
</a>
</g>
</g>
<!-- PAKNEIMPGNFSKN -->
<g id="node12" class="node">
<title>PAKNEIMPGNFSKN</title>
<g id="a_node12"><a xlink:title="Imports (G&amp;S)
FRML &lt;Z,EXO&gt; PAKNEIMPGNFSKN = (PAKNEIMPGNFSKN(-1)*EXP(-PAKNEIMPGNFSKN_A+ (-0.324143718656754*(LOG(PAKNEIMPGNFSKN(-1))-LOG(PAKNEGDETTOTKN(-1))+0.8*LOG(PAKNEIMPGNFSXN(-1)/PAKNYGDPFCSTXN(-1)))-0.583459272245018+1*((LOG(PAKNEGDETTOTKN))-(LOG(PAKNEGDETTOTKN(-1))))-0.0921874580409631*((LOG(PAKNEIMPGNFSXN/PAKNYGDPFCSTXN))-(LOG(PAKNEIMPGNFSXN(-1)/PAKNYGDPFCSTXN(-1))))-0.0361746331863615*DURING_2012) )) * (1-PAKNEIMPGNFSKN_D)+ PAKNEIMPGNFSKN_X*PAKNEIMPGNFSKN_D  $">
<polygon fill="#63b8ff" stroke="black" points="318.5,-302 95.5,-302 95.5,-266 318.5,-266 318.5,-302"/>
<text text-anchor="start" x="102" y="-279.8" font-family="Times New Roman,serif" font-size="14.00" fill="blue">PAKNEIMPGNFSKN:Imports (G&amp;S)</text>
</a>
</g>
</g>
<!-- PAKNEIMPGNFSKN&#45;&gt;PAKNYGDPMKTPKN -->
<g id="edge12" class="edge">
<title>PAKNEIMPGNFSKN-&gt;PAKNYGDPMKTPKN</title>
<g id="a_edge12"><a xlink:href="bogus" xlink:title=" PAKNEIMPGNFSKN -&gt; PAKNYGDPMKTPKN Min. att. -46%  max: 456%">
<path fill="none" stroke="black" stroke-width="8" d="M318.73,-293.78C349.82,-297.8 383.47,-303.37 414,-311 472.76,-325.69 537.47,-351.37 580.49,-369.88"/>
<polygon fill="black" stroke="black" stroke-width="8" points="577.91,-376.39 589.87,-373.95 583.48,-363.55 577.91,-376.39"/>
</a>
</g>
</g>
<!-- PAKNEGDIFTOTKN -->
<g id="node18" class="node">
<title>PAKNEGDIFTOTKN</title>
<g id="a_node18"><a xlink:title="Total Gross Capital Formation
FRML  &lt;&gt; PAKNEGDIFTOTKN = PAKNEGDIFGOVKN+PAKNEGDIFPRVKN $">
<polygon fill="#63b8ff" stroke="black" points="359,-248 55,-248 55,-212 359,-212 359,-248"/>
<text text-anchor="start" x="61" y="-225.8" font-family="Times New Roman,serif" font-size="14.00" fill="blue">PAKNEGDIFTOTKN:Total Gross Capital Formation</text>
</a>
</g>
</g>
<!-- PAKNEGDIFTOTKN&#45;&gt;PAKNYGDPMKTPKN -->
<g id="edge16" class="edge">
<title>PAKNEGDIFTOTKN-&gt;PAKNYGDPMKTPKN</title>
<g id="a_edge16"><a xlink:href="bogus" xlink:title=" PAKNEGDIFTOTKN -&gt; PAKNYGDPMKTPKN Min. att. -36%  max: 366%">
<path fill="none" stroke="black" stroke-width="8" d="M359.15,-242.19C377.92,-245.92 396.6,-250.75 414,-257 486.53,-283.07 560.36,-336.36 599.98,-367.63"/>
<polygon fill="black" stroke="black" stroke-width="8" points="595.72,-373.19 607.91,-373.95 604.45,-362.24 595.72,-373.19"/>
</a>
</g>
</g>
<!-- PAKNYGDPDISCKN -->
<g id="node21" class="node">
<title>PAKNYGDPDISCKN</title>
<g id="a_node21"><a xlink:title="Statistical Discrepency (Expenditure Side)
Exogen">
<polygon fill="yellow" stroke="black" points="392,-194 22,-194 22,-158 392,-158 392,-194"/>
<text text-anchor="start" x="28" y="-171.8" font-family="Times New Roman,serif" font-size="14.00" fill="blue">PAKNYGDPDISCKN:Statistical Discrepency (Expenditure Side)</text>
</a>
</g>
</g>
<!-- PAKNYGDPDISCKN&#45;&gt;PAKNYGDPMKTPKN -->
<g id="edge15" class="edge">
<title>PAKNYGDPDISCKN-&gt;PAKNYGDPMKTPKN</title>
<g id="a_edge15"><a xlink:href="bogus" xlink:title=" PAKNYGDPDISCKN -&gt; PAKNYGDPMKTPKN Min. att. -0%  max: 0%">
<path fill="none" stroke="black" d="M391.05,-194.06C398.92,-196.69 406.61,-199.65 414,-203 498.36,-241.2 573.95,-323.73 608.94,-365.96"/>
<polygon fill="black" stroke="black" points="606.35,-368.32 615.39,-373.84 611.77,-363.89 606.35,-368.32"/>
</a>
</g>
</g>
</g>
</svg>