<svg xmlns="http://www.w3.org/2000/svg" xmlns:xlink="http://www.w3.org/1999/xlink" width="432pt" height="149pt" viewBox="0.00 0.00 432.00 148.63">
<g id="graph0" class="graph" transform="scale(0.386059 0.386059) rotate(0) translate(4 381)">
<title>TD</title>
<polygon fill="white" stroke="none" points="-4,4 -4,-381 1115,-381 1115,4 -4,4"/>
<text text-anchor="middle" x="555.5" y="-7.8" font-family="Times New Roman,serif" font-size="14.00">PAKNYGDPMKTPKN</text>
<!-- PAKNEGDIFTOTKN -->
<g id="node1" class="node">
<title>PAKNEGDIFTOTKN</title>
<polygon fill="none" stroke="black" points="520,-377 0,-377 0,-185 520,-185 520,-377"/>
<g id="a_node1_0"><a xlink:href="bogus" xlink:title="Total Gross Capital Formation
FRML  &lt;&gt; PAKNEGDIFTOTKN = PAKNEGDIFGOVKN+PAKNEGDIFPRVKN $">
<polygon fill="#ff7f24" stroke="none" points="5,-351 5,-372 515,-372 515,-351 5,-351"/>
<polygon fill="none" stroke="black" points="5,-351 5,-372 515,-372 515,-351 5,-351"/>
<text text-anchor="start" x="114" y="-357.8" font-family="Times New Roman,serif" font-size="14.00" fill="blue">PAKNEGDIFTOTKN:Total Gross Capital Formation</text>
</a>
</g>
<polygon fill="none" stroke="black" points="5,-328 5,-349 80,-349 80,-328 5,-328"/>
<text text-anchor="start" x="8" y="-334.8" font-family="Times New Roman,serif" font-size="14.00" fill="blue">Per</text>
<polygon fill="none" stroke="black" points="82,-328 82,-349 167,-349 167,-328 82,-328"/>
<text text-anchor="start" x="110.5" y="-334.8" font-family="Times New Roman,serif" font-size="14.00" fill="blue">2020</text>
<polygon fill="none" stroke="black" points="169,-328 169,-349 254,-349 254,-328 169,-328"/>
<text text-anchor="start" x="197.5" y="-334.8" font-family="Times New Roman,serif" font-size="14.00" fill="blue">2021</text>
<polygon fill="none" stroke="black" points="256,-328 256,-349 341,-349 341,-328 256,-328"/>
<text text-anchor="start" x="284.5" y="-334.8" font-family="Times New Roman,serif" font-size="14.00" fill="blue">2022</text>
<polygon fill="none" stroke="black" points="343,-328 343,-349 428,-349 428,-328 343,-328"/>
<text text-anchor="start" x="371.5" y="-334.8" font-family="Times New Roman,serif" font-size="14.00" fill="blue">2023</text>
<polygon fill="none" stroke="black" points="430,-328 430,-349 515,-349 515,-328 430,-328"/>
<text text-anchor="start" x="458.5" y="-334.8" font-family="Times New Roman,serif" font-size="14.00" fill="blue">2024</text>
<g id="a_node1_1"><a xlink:href="bogus" xlink:title="Baseline values">
<polygon fill="none" stroke="black" points="5,-305 5,-326 80,-326 80,-305 5,-305"/>
<text text-anchor="start" x="8" y="-311.8" font-family="Times New Roman,serif" font-size="14.00" fill="blue">Base</text>
</a>
</g>
<g id="a_node1_2"><a xlink:href="bogus" xlink:title="Baseline values">
<polygon fill="none" stroke="black" points="82,-305 82,-326 167,-326 167,-305 82,-305"/>
<text text-anchor="start" x="85" y="-311.8" font-family="Times New Roman,serif" font-size="14.00" fill="blue">3,897,262.074</text>
</a>
</g>
<g id="a_node1_3"><a xlink:href="bogus" xlink:title="Baseline values">
<polygon fill="none" stroke="black" points="169,-305 169,-326 254,-326 254,-305 169,-305"/>
<text text-anchor="start" x="172" y="-311.8" font-family="Times New Roman,serif" font-size="14.00" fill="blue">4,049,448.991</text>
</a>
</g>
<g id="a_node1_4"><a xlink:href="bogus" xlink:title="Baseline values">
<polygon fill="none" stroke="black" points="256,-305 256,-326 341,-326 341,-305 256,-305"/>
<text text-anchor="start" x="259" y="-311.8" font-family="Times New Roman,serif" font-size="14.00" fill="blue">4,210,847.327</text>
</a>
</g>
<g id="a_node1_5"><a xlink:href="bogus" xlink:title="Baseline values">
<polygon fill="none" stroke="black" points="343,-305 343,-326 428,-326 428,-305 343,-305"/>
<text text-anchor="start" x="346" y="-311.8" font-family="Times New Roman,serif" font-size="14.00" fill="blue">4,380,029.522</text>
</a>
</g>
<g id="a_node1_6"><a xlink:href="bogus" xlink:title="Baseline values">
<polygon fill="none" stroke="black" points="430,-305 430,-326 515,-326 515,-305 430,-305"/>
<text text-anchor="start" x="433" y="-311.8" font-family="Times New Roman,serif" font-size="14.00" fill="blue">4,553,907.602</text>
</a>
</g>
<g id="a_node1_7"><a xlink:href="bogus" xlink:title="Latest run values">
<polygon fill="none" stroke="black" points="5,-282 5,-303 80,-303 80,-282 5,-282"/>
<text text-anchor="start" x="8" y="-288.8" font-family="Times New Roman,serif" font-size="14.00" fill="blue">Last</text>
</a>
</g>
<polygon fill="none" stroke="black" points="82,-282 82,-303 167,-303 167,-282 82,-282"/>
<text text-anchor="start" x="85" y="-288.8" font-family="Times New Roman,serif" font-size="14.00" fill="blue">3,975,227.861</text>
<polygon fill="none" stroke="black" points="169,-282 169,-303 254,-303 254,-282 169,-282"/>
<text text-anchor="start" x="172" y="-288.8" font-family="Times New Roman,serif" font-size="14.00" fill="blue">4,170,245.171</text>
<polygon fill="none" stroke="black" points="256,-282 256,-303 341,-303 341,-282 256,-282"/>
<text text-anchor="start" x="259" y="-288.8" font-family="Times New Roman,serif" font-size="14.00" fill="blue">4,354,170.443</text>
<polygon fill="none" stroke="black" points="343,-282 343,-303 428,-303 428,-282 343,-282"/>
<text text-anchor="start" x="346" y="-288.8" font-family="Times New Roman,serif" font-size="14.00" fill="blue">4,535,628.810</text>
<polygon fill="none" stroke="black" points="430,-282 430,-303 515,-303 515,-282 430,-282"/>
<text text-anchor="start" x="433" y="-288.8" font-family="Times New Roman,serif" font-size="14.00" fill="blue">4,717,894.765</text>
<g id="a_node1_8"><a xlink:href="bogus" xlink:title="Difference between baseline and latest run">
<polygon fill="none" stroke="black" points="5,-259 5,-280 80,-280 80,-259 5,-259"/>
<text text-anchor="start" x="8" y="-265.8" font-family="Times New Roman,serif" font-size="14.00" fill="blue">Diff</text>
</a>
</g>
<polygon fill="none" stroke="black" points="82,-259 82,-280 167,-280 167,-259 82,-259"/>
<text text-anchor="start" x="102" y="-265.8" font-family="Times New Roman,serif" font-size="14.00" fill="blue">77,965.787</text>
<polygon fill="none" stroke="black" points="169,-259 169,-280 254,-280 254,-259 169,-259"/>
<text text-anchor="start" x="182" y="-265.8" font-family="Times New Roman,serif" font-size="14.00" fill="blue">120,796.180</text>
<polygon fill="none" stroke="black" points="256,-259 256,-280 341,-280 341,-259 256,-259"/>
<text text-anchor="start" x="269" y="-265.8" font-family="Times New Roman,serif" font-size="14.00" fill="blue">143,323.116</text>
<polygon fill="none" stroke="black" points="343,-259 343,-280 428,-280 428,-259 343,-259"/>
<text text-anchor="start" x="356" y="-265.8" font-family="Times New Roman,serif" font-size="14.00" fill="blue">155,599.288</text>
<polygon fill="none" stroke="black" points="430,-259 430,-280 515,-280 515,-259 430,-259"/>
<text text-anchor="start" x="443" y="-265.8" font-family="Times New Roman,serif" font-size="14.00" fill="blue">163,987.163</text>
<polygon fill="none" stroke="black" points="5,-236 5,-257 515,-257 515,-236 5,-236"/>
<text text-anchor="start" x="225" y="-242.8" font-family="Times New Roman,serif" font-size="14.00" fill="blue"> Growth rate</text>
<g id="a_node1_9"><a xlink:href="bogus" xlink:title="Base growth
Exogen">
<polygon fill="none" stroke="black" points="5,-213 5,-234 80,-234 80,-213 5,-213"/>
<text text-anchor="start" x="8" y="-219.8" font-family="Times New Roman,serif" font-size="14.00" fill="blue">Base growth</text>
</a>
</g>
<polygon fill="none" stroke="black" points="82,-213 82,-234 167,-234 167,-213 82,-213"/>
<text text-anchor="start" x="133" y="-219.8" font-family="Times New Roman,serif" font-size="14.00" fill="blue">3.925</text>
<polygon fill="none" stroke="black" points="169,-213 169,-234 254,-234 254,-213 169,-213"/>
<text text-anchor="start" x="220" y="-219.8" font-family="Times New Roman,serif" font-size="14.00" fill="blue">3.905</text>
<polygon fill="none" stroke="black" points="256,-213 256,-234 341,-234 341,-213 256,-213"/>
<text text-anchor="start" x="307" y="-219.8" font-family="Times New Roman,serif" font-size="14.00" fill="blue">3.986</text>
<polygon fill="none" stroke="black" points="343,-213 343,-234 428,-234 428,-213 343,-213"/>
<text text-anchor="start" x="394" y="-219.8" font-family="Times New Roman,serif" font-size="14.00" fill="blue">4.018</text>
<polygon fill="none" stroke="black" points="430,-213 430,-234 515,-234 515,-213 430,-213"/>
<text text-anchor="start" x="481" y="-219.8" font-family="Times New Roman,serif" font-size="14.00" fill="blue">3.970</text>
<g id="a_node1_10"><a xlink:href="bogus" xlink:title="Last growth
Exogen">
<polygon fill="none" stroke="black" points="5,-190 5,-211 80,-211 80,-190 5,-190"/>
<text text-anchor="start" x="8" y="-196.8" font-family="Times New Roman,serif" font-size="14.00" fill="blue">Last growth</text>
</a>
</g>
<polygon fill="none" stroke="black" points="82,-190 82,-211 167,-211 167,-190 82,-190"/>
<text text-anchor="start" x="133" y="-196.8" font-family="Times New Roman,serif" font-size="14.00" fill="blue">6.005</text>
<polygon fill="none" stroke="black" points="169,-190 169,-211 254,-211 254,-190 169,-190"/>
<text text-anchor="start" x="220" y="-196.8" font-family="Times New Roman,serif" font-size="14.00" fill="blue">4.906</text>
<polygon fill="none" stroke="black" points="256,-190 256,-211 341,-211 341,-190 256,-190"/>
<text text-anchor="start" x="307" y="-196.8" font-family="Times New Roman,serif" font-size="14.00" fill="blue">4.410</text>
<polygon fill="none" stroke="black" points="343,-190 343,-211 428,-211 428,-190 343,-190"/>
<text text-anchor="start" x="394" y="-196.8" font-family="Times New Roman,serif" font-size="14.00" fill="blue">4.167</text>
<polygon fill="none" stroke="black" points="430,-190 430,-211 515,-211 515,-190 430,-190"/>
<text text-anchor="start" x="481" y="-196.8" font-family="Times New Roman,serif" font-size="14.00" fill="blue">4.019</text>
<polygon fill="none" stroke="black" points="2,-187 2,-375 518,-375 518,-187 2,-187"/>
</g>
<!-- PAKNYGDPMKTPKN -->
<g id="node3" class="node">
<title>PAKNYGDPMKTPKN</title>
<polygon fill="none" stroke="black" points="1111,-218 556,-218 556,-26 1111,-26 1111,-218"/>
<g id="a_node3_11"><a xlink:href="bogus" xlink:title="GDP Expenditure side at market prices
FRML  &lt;&gt; PAKNYGDPMKTPKN = PAKNECONPRVTKN+PAKNECONGOVTKN+PAKNEGDIFTOTKN+PAKNEGDISTKBKN+PAKNEEXPGNFSKN-PAKNEIMPGNFSKN+PAKNYGDPDISCKN+PAKADAP*PAKDISPREPKN $">
<polygon fill="red" stroke="none" points="561.5,-192 561.5,-213 1106.5,-213 1106.5,-192 561.5,-192"/>
<polygon fill="none" stroke="black" points="561.5,-192 561.5,-213 1106.5,-213 1106.5,-192 561.5,-192"/>
<text text-anchor="start" x="659.5" y="-198.8" font-family="Times New Roman,serif" font-size="14.00" fill="blue">PAKNYGDPMKTPKN:GDP Expenditure side at market prices</text>
</a>
</g>
<polygon fill="none" stroke="black" points="561.5,-169 561.5,-190 636.5,-190 636.5,-169 561.5,-169"/>
<text text-anchor="start" x="564.5" y="-175.8" font-family="Times New Roman,serif" font-size="14.00" fill="blue">Per</text>
<polygon fill="none" stroke="black" points="638.5,-169 638.5,-190 730.5,-190 730.5,-169 638.5,-169"/>
<text text-anchor="start" x="670.5" y="-175.8" font-family="Times New Roman,serif" font-size="14.00" fill="blue">2020</text>
<polygon fill="none" stroke="black" points="732.5,-169 732.5,-190 824.5,-190 824.5,-169 732.5,-169"/>
<text text-anchor="start" x="764.5" y="-175.8" font-family="Times New Roman,serif" font-size="14.00" fill="blue">2021</text>
<polygon fill="none" stroke="black" points="826.5,-169 826.5,-190 918.5,-190 918.5,-169 826.5,-169"/>
<text text-anchor="start" x="858.5" y="-175.8" font-family="Times New Roman,serif" font-size="14.00" fill="blue">2022</text>
<polygon fill="none" stroke="black" points="920.5,-169 920.5,-190 1012.5,-190 1012.5,-169 920.5,-169"/>
<text text-anchor="start" x="952.5" y="-175.8" font-family="Times New Roman,serif" font-size="14.00" fill="blue">2023</text>
<polygon fill="none" stroke="black" points="1014.5,-169 1014.5,-190 1106.5,-190 1106.5,-169 1014.5,-169"/>
<text text-anchor="start" x="1046.5" y="-175.8" font-family="Times New Roman,serif" font-size="14.00" fill="blue">2024</text>
<g id="a_node3_12"><a xlink:href="bogus" xlink:title="Baseline values">
<polygon fill="none" stroke="black" points="561.5,-146 561.5,-167 636.5,-167 636.5,-146 561.5,-146"/>
<text text-anchor="start" x="564.5" y="-152.8" font-family="Times New Roman,serif" font-size="14.00" fill="blue">Base</text>
</a>
</g>
<g id="a_node3_13"><a xlink:href="bogus" xlink:title="Baseline values">
<polygon fill="none" stroke="black" points="638.5,-146 638.5,-167 730.5,-167 730.5,-146 638.5,-146"/>
<text text-anchor="start" x="641.5" y="-152.8" font-family="Times New Roman,serif" font-size="14.00" fill="blue">26,701,602.431</text>
</a>
</g>
<g id="a_node3_14"><a xlink:href="bogus" xlink:title="Baseline values">
<polygon fill="none" stroke="black" points="732.5,-146 732.5,-167 824.5,-167 824.5,-146 732.5,-146"/>
<text text-anchor="start" x="735.5" y="-152.8" font-family="Times New Roman,serif" font-size="14.00" fill="blue">27,202,580.709</text>
</a>
</g>
<g id="a_node3_15"><a xlink:href="bogus" xlink:title="Baseline values">
<polygon fill="none" stroke="black" points="826.5,-146 826.5,-167 918.5,-167 918.5,-146 826.5,-146"/>
<text text-anchor="start" x="829.5" y="-152.8" font-family="Times New Roman,serif" font-size="14.00" fill="blue">27,801,259.405</text>
</a>
</g>
<g id="a_node3_16"><a xlink:href="bogus" xlink:title="Baseline values">
<polygon fill="none" stroke="black" points="920.5,-146 920.5,-167 1012.5,-167 1012.5,-146 920.5,-146"/>
<text text-anchor="start" x="923.5" y="-152.8" font-family="Times New Roman,serif" font-size="14.00" fill="blue">28,499,818.713</text>
</a>
</g>
<g id="a_node3_17"><a xlink:href="bogus" xlink:title="Baseline values">
<polygon fill="none" stroke="black" points="1014.5,-146 1014.5,-167 1106.5,-167 1106.5,-146 1014.5,-146"/>
<text text-anchor="start" x="1017.5" y="-152.8" font-family="Times New Roman,serif" font-size="14.00" fill="blue">29,256,735.696</text>
</a>
</g>
<g id="a_node3_18"><a xlink:href="bogus" xlink:title="Latest run values">
<polygon fill="none" stroke="black" points="561.5,-123 561.5,-144 636.5,-144 636.5,-123 561.5,-123"/>
<text text-anchor="start" x="564.5" y="-129.8" font-family="Times New Roman,serif" font-size="14.00" fill="blue">Last</text>
</a>
</g>
<polygon fill="none" stroke="black" points="638.5,-123 638.5,-144 730.5,-144 730.5,-123 638.5,-123"/>
<text text-anchor="start" x="641.5" y="-129.8" font-family="Times New Roman,serif" font-size="14.00" fill="blue">26,483,175.564</text>
<polygon fill="none" stroke="black" points="732.5,-123 732.5,-144 824.5,-144 824.5,-123 732.5,-123"/>
<text text-anchor="start" x="735.5" y="-129.8" font-family="Times New Roman,serif" font-size="14.00" fill="blue">27,235,594.386</text>
<polygon fill="none" stroke="black" points="826.5,-123 826.5,-144 918.5,-144 918.5,-123 826.5,-123"/>
<text text-anchor="start" x="829.5" y="-129.8" font-family="Times New Roman,serif" font-size="14.00" fill="blue">27,963,320.841</text>
<polygon fill="none" stroke="black" points="920.5,-123 920.5,-144 1012.5,-144 1012.5,-123 920.5,-123"/>
<text text-anchor="start" x="923.5" y="-129.8" font-family="Times New Roman,serif" font-size="14.00" fill="blue">28,690,715.598</text>
<polygon fill="none" stroke="black" points="1014.5,-123 1014.5,-144 1106.5,-144 1106.5,-123 1014.5,-123"/>
<text text-anchor="start" x="1017.5" y="-129.8" font-family="Times New Roman,serif" font-size="14.00" fill="blue">29,445,700.449</text>
<g id="a_node3_19"><a xlink:href="bogus" xlink:title="Difference between baseline and latest run">
<polygon fill="none" stroke="black" points="561.5,-100 561.5,-121 636.5,-121 636.5,-100 561.5,-100"/>
<text text-anchor="start" x="564.5" y="-106.8" font-family="Times New Roman,serif" font-size="14.00" fill="blue">Diff</text>
</a>
</g>
<polygon fill="none" stroke="black" points="638.5,-100 638.5,-121 730.5,-121 730.5,-100 638.5,-100"/>
<text text-anchor="start" x="654.5" y="-106.8" font-family="Times New Roman,serif" font-size="14.00" fill="blue">-218,426.867</text>
<polygon fill="none" stroke="black" points="732.5,-100 732.5,-121 824.5,-121 824.5,-100 732.5,-100"/>
<text text-anchor="start" x="759.5" y="-106.8" font-family="Times New Roman,serif" font-size="14.00" fill="blue">33,013.677</text>
<polygon fill="none" stroke="black" points="826.5,-100 826.5,-121 918.5,-121 918.5,-100 826.5,-100"/>
<text text-anchor="start" x="846.5" y="-106.8" font-family="Times New Roman,serif" font-size="14.00" fill="blue">162,061.436</text>
<polygon fill="none" stroke="black" points="920.5,-100 920.5,-121 1012.5,-121 1012.5,-100 920.5,-100"/>
<text text-anchor="start" x="940.5" y="-106.8" font-family="Times New Roman,serif" font-size="14.00" fill="blue">190,896.885</text>
<polygon fill="none" stroke="black" points="1014.5,-100 1014.5,-121 1106.5,-121 1106.5,-100 1014.5,-100"/>
<text text-anchor="start" x="1034.5" y="-106.8" font-family="Times New Roman,serif" font-size="14.00" fill="blue">188,964.753</text>
<polygon fill="none" stroke="black" points="561.5,-77 561.5,-98 1106.5,-98 1106.5,-77 561.5,-77"/>
<text text-anchor="start" x="799" y="-83.8" font-family="Times New Roman,serif" font-size="14.00" fill="blue"> Growth rate</text>
<g id="a_node3_20"><a xlink:href="bogus" xlink:title="Base growth
Exogen">
<polygon fill="none" stroke="black" points="561.5,-54 561.5,-75 636.5,-75 636.5,-54 561.5,-54"/>
<text text-anchor="start" x="564.5" y="-60.8" font-family="Times New Roman,serif" font-size="14.00" fill="blue">Base growth</text>
</a>
</g>
<polygon fill="none" stroke="black" points="638.5,-54 638.5,-75 730.5,-75 730.5,-54 638.5,-54"/>
<text text-anchor="start" x="696.5" y="-60.8" font-family="Times New Roman,serif" font-size="14.00" fill="blue">2.087</text>
<polygon fill="none" stroke="black" points="732.5,-54 732.5,-75 824.5,-75 824.5,-54 732.5,-54"/>
<text text-anchor="start" x="790.5" y="-60.8" font-family="Times New Roman,serif" font-size="14.00" fill="blue">1.876</text>
<polygon fill="none" stroke="black" points="826.5,-54 826.5,-75 918.5,-75 918.5,-54 826.5,-54"/>
<text text-anchor="start" x="884.5" y="-60.8" font-family="Times New Roman,serif" font-size="14.00" fill="blue">2.201</text>
<polygon fill="none" stroke="black" points="920.5,-54 920.5,-75 1012.5,-75 1012.5,-54 920.5,-54"/>
<text text-anchor="start" x="978.5" y="-60.8" font-family="Times New Roman,serif" font-size="14.00" fill="blue">2.513</text>
<polygon fill="none" stroke="black" points="1014.5,-54 1014.5,-75 1106.5,-75 1106.5,-54 1014.5,-54"/>
<text text-anchor="start" x="1072.5" y="-60.8" font-family="Times New Roman,serif" font-size="14.00" fill="blue">2.656</text>
<g id="a_node3_21"><a xlink:href="bogus" xlink:title="Last growth
Exogen">
<polygon fill="none" stroke="black" points="561.5,-31 561.5,-52 636.5,-52 636.5,-31 561.5,-31"/>
<text text-anchor="start" x="564.5" y="-37.8" font-family="Times New Roman,serif" font-size="14.00" fill="blue">Last growth</text>
</a>
</g>
<polygon fill="none" stroke="black" points="638.5,-31 638.5,-52 730.5,-52 730.5,-31 638.5,-31"/>
<text text-anchor="start" x="696.5" y="-37.8" font-family="Times New Roman,serif" font-size="14.00" fill="blue">1.252</text>
<polygon fill="none" stroke="black" points="732.5,-31 732.5,-52 824.5,-52 824.5,-31 732.5,-31"/>
<text text-anchor="start" x="790.5" y="-37.8" font-family="Times New Roman,serif" font-size="14.00" fill="blue">2.841</text>
<polygon fill="none" stroke="black" points="826.5,-31 826.5,-52 918.5,-52 918.5,-31 826.5,-31"/>
<text text-anchor="start" x="884.5" y="-37.8" font-family="Times New Roman,serif" font-size="14.00" fill="blue">2.672</text>
<polygon fill="none" stroke="black" points="920.5,-31 920.5,-52 1012.5,-52 1012.5,-31 920.5,-31"/>
<text text-anchor="start" x="978.5" y="-37.8" font-family="Times New Roman,serif" font-size="14.00" fill="blue">2.601</text>
<polygon fill="none" stroke="black" points="1014.5,-31 1014.5,-52 1106.5,-52 1106.5,-31 1014.5,-31"/>
<text text-anchor="start" x="1072.5" y="-37.8" font-family="Times New Roman,serif" font-size="14.00" fill="blue">2.631</text>
<polygon fill="none" stroke="black" points="558,-28 558,-216 1109,-216 1109,-28 558,-28"/>
</g>
<!-- PAKNEGDIFTOTKN&#45;&gt;PAKNYGDPMKTPKN -->
<g id="edge2" class="edge">
<title>PAKNEGDIFTOTKN-&gt;PAKNYGDPMKTPKN</title>
<g id="a_edge2"><a xlink:href="bogus" xlink:title=" PAKNEGDIFTOTKN -&gt; PAKNYGDPMKTPKN Min. att. -36%  max: 366%">
<path fill="none" stroke="black" stroke-width="8" d="M520.41,-208.83C528.99,-206.44 537.6,-204.05 546.21,-201.65"/>
<polygon fill="black" stroke="black" stroke-width="8" points="548.17,-208.37 555.92,-198.95 544.41,-194.88 548.17,-208.37"/>
</a>
</g>
</g>
<!-- PAKNECONGOVTKN -->
<g id="node2" class="node">
<title>PAKNECONGOVTKN</title>
<g id="a_node2"><a xlink:title="Government Consumption
FRML  &lt;&gt; PAKNECONGOVTKN = PAKNECONGOVTCN/PAKNECONGOVTXN $">
<polygon fill="#63b8ff" stroke="black" points="406,-167 114,-167 114,-131 406,-131 406,-167"/>
<text text-anchor="start" x="120" y="-144.8" font-family="Times New Roman,serif" font-size="14.00" fill="blue">PAKNECONGOVTKN:Government Consumption</text>
</a>
</g>
</g>
<!-- PAKNECONGOVTKN&#45;&gt;PAKNYGDPMKTPKN -->
<g id="edge1" class="edge">
<title>PAKNECONGOVTKN-&gt;PAKNYGDPMKTPKN</title>
<g id="a_edge1"><a xlink:href="bogus" xlink:title=" PAKNECONGOVTKN -&gt; PAKNYGDPMKTPKN Min. att. -108%  max: 835%">
<path fill="none" stroke="black" stroke-width="8" d="M406.32,-142.13C449.09,-140.11 497.45,-137.83 545.85,-135.54"/>
<polygon fill="black" stroke="black" stroke-width="8" points="546.19,-142.53 555.85,-135.07 545.53,-128.55 546.19,-142.53"/>
</a>
</g>
</g>
<!-- PAKNEIMPGNFSKN -->
<g id="node4" class="node">
<title>PAKNEIMPGNFSKN</title>
<g id="a_node4"><a xlink:title="Imports (G&amp;S)
FRML &lt;Z,EXO&gt; PAKNEIMPGNFSKN = (PAKNEIMPGNFSKN(-1)*EXP(-PAKNEIMPGNFSKN_A+ (-0.324143718656754*(LOG(PAKNEIMPGNFSKN(-1))-LOG(PAKNEGDETTOTKN(-1))+0.8*LOG(PAKNEIMPGNFSXN(-1)/PAKNYGDPFCSTXN(-1)))-0.583459272245018+1*((LOG(PAKNEGDETTOTKN))-(LOG(PAKNEGDETTOTKN(-1))))-0.0921874580409631*((LOG(PAKNEIMPGNFSXN/PAKNYGDPFCSTXN))-(LOG(PAKNEIMPGNFSXN(-1)/PAKNYGDPFCSTXN(-1))))-0.0361746331863615*DURING_2012) )) * (1-PAKNEIMPGNFSKN_D)+ PAKNEIMPGNFSKN_X*PAKNEIMPGNFSKN_D  $">
<polygon fill="#63b8ff" stroke="black" points="371.5,-113 148.5,-113 148.5,-77 371.5,-77 371.5,-113"/>
<text text-anchor="start" x="155" y="-90.8" font-family="Times New Roman,serif" font-size="14.00" fill="blue">PAKNEIMPGNFSKN:Imports (G&amp;S)</text>
</a>
</g>
</g>
<!-- PAKNEIMPGNFSKN&#45;&gt;PAKNYGDPMKTPKN -->
<g id="edge4" class="edge">
<title>PAKNEIMPGNFSKN-&gt;PAKNYGDPMKTPKN</title>
<g id="a_edge4"><a xlink:href="bogus" xlink:title=" PAKNEIMPGNFSKN -&gt; PAKNYGDPMKTPKN Min. att. -46%  max: 456%">
<path fill="none" stroke="black" stroke-width="8" d="M371.53,-100.22C421.71,-102.59 483.63,-105.52 545.62,-108.45"/>
<polygon fill="black" stroke="black" stroke-width="8" points="545.65,-115.46 555.97,-108.94 546.31,-101.47 545.65,-115.46"/>
</a>
</g>
</g>
<!-- PAKNECONPRVTKN -->
<g id="node5" class="node">
<title>PAKNECONPRVTKN</title>
<g id="a_node5"><a xlink:title="Household Consumption
FRML &lt;Z,EXO&gt; PAKNECONPRVTKN = (PAKNECONPRVTKN(-1)*EXP(-PAKNECONPRVTKN_A+ (-0.2*(LOG(PAKNECONPRVTKN(-1))-LOG((PAKNYYWBTOTLCN(-1)*(1-PAKGGREVDRCTXN(-1)/100))/PAKNECONPRVTXN(-1)))+1*((LOG((PAKNYYWBTOTLCN*(1-PAKGGREVDRCTXN/100))/PAKNECONPRVTXN))-(LOG((PAKNYYWBTOTLCN(-1)*(1-PAKGGREVDRCTXN(-1)/100))/PAKNECONPRVTXN(-1))))+0.0303228629698929+0.0163839011059956*DURING_2010-0.3*(PAKFMLBLPOLYXN/100-((LOG(PAKNECONPRVTXN))-(LOG(PAKNECONPRVTXN(-1)))))) )) * (1-PAKNECONPRVTKN_D)+ PAKNECONPRVTKN_X*PAKNECONPRVTKN_D  $">
<polygon fill="#63b8ff" stroke="black" points="399,-59 121,-59 121,-23 399,-23 399,-59"/>
<text text-anchor="start" x="127" y="-36.8" font-family="Times New Roman,serif" font-size="14.00" fill="blue">PAKNECONPRVTKN:Household Consumption</text>
</a>
</g>
</g>
<!-- PAKNECONPRVTKN&#45;&gt;PAKNYGDPMKTPKN -->
<g id="edge3" class="edge">
<title>PAKNECONPRVTKN-&gt;PAKNYGDPMKTPKN</title>
<g id="a_edge3"><a xlink:href="bogus" xlink:title=" PAKNECONPRVTKN -&gt; PAKNYGDPMKTPKN Min. att. -1557%  max: 290%">
<path fill="none" stroke="black" stroke-width="8" d="M399.32,-53.68C438.4,-57.74 480.93,-62.59 520,-68 528.43,-69.17 536.98,-70.39 545.6,-71.66"/>
<polygon fill="black" stroke="black" stroke-width="8" points="544.84,-78.62 555.76,-73.16 546.89,-64.77 544.84,-78.62"/>
</a>
</g>
</g>
</g>
</svg>