<svg xmlns="http://www.w3.org/2000/svg" xmlns:xlink="http://www.w3.org/1999/xlink" width="1440pt" height="590pt" viewBox="0.00 0.00 1440.00 589.69">
<g id="graph0" class="graph" transform="scale(0.824742 0.824742) rotate(0) translate(4 711)">
<title>TD</title>
<polygon fill="white" stroke="transparent" points="-4,4 -4,-711 1742,-711 1742,4 -4,4"/>
<text text-anchor="middle" x="869" y="-7.8" font-family="Times New Roman,serif" font-size="14.00">XGDP</text>
<!-- EX -->
<g id="node1" class="node">
<title>EX</title>
<g id="a_node1"><a xlink:title="Exports of goods and services, cw 2012$
FRML &lt;Z&gt; EX = EX(-1)*EXP(EX_A+EX_AERR+ (0.8398526775741691+-0.1077278728634364*LOG(EX(-1)*(PXR(-1)*PXP(-1)*FPX(-1))/(FGDP(-1)*FPC(-1)))+1.481642245331822*(FXGAP-FXGAP(-1))/100+1.027448537481708*(FXGAP(-1)-FXGAP(-2))/100+1.015857050459678*DDOCKX) ) $">
<polygon fill="#63b8ff" stroke="black" points="868,-86 609,-86 609,-50 868,-50 868,-86"/>
<text text-anchor="start" x="615.5" y="-63.8" font-family="Times New Roman,serif" font-size="14.00" fill="blue">EX:Exports of goods and services, cw 2012$</text>
</a>
</g>
</g>
<!-- XFS -->
<g id="node19" class="node">
<title>XFS</title>
<g id="a_node19"><a xlink:title="Final sales of gross domestic product, cw 2012$
FRML &lt;Z&gt; XFS = EXP(XFS_A+XFS_AERR+ (LOG(XFS(-1))+0.6849*LOG(ECNIA/ECNIA(-1))+0.0386*LOG(EH/EH(-1))+0.1324*LOG(EBFI/EBFI(-1))+0.0429*LOG(EGFE/EGFE(-1))+0.0223*LOG(EGFL/EGFL(-1))+0.0395*LOG(EGSE/EGSE(-1))+0.0691*LOG(EGSL/EGSL(-1))+0.1203*LOG(EX/EX(-1))+-0.1399*LOG(EMO/EMO(-1))+-0.0101*LOG(EMP/EMP(-1))) ) $">
<polygon fill="#63b8ff" stroke="black" points="1285,-491 980,-491 980,-455 1285,-455 1285,-491"/>
<text text-anchor="start" x="986.5" y="-468.8" font-family="Times New Roman,serif" font-size="14.00" fill="blue">XFS:Final sales of gross domestic product, cw 2012$</text>
</a>
</g>
</g>
<!-- EX&#45;&gt;XFS -->
<g id="edge27" class="edge">
<title>EX-&gt;XFS</title>
<g id="a_edge27"><a xlink:href="bogus" xlink:title=" EX -&gt; XFS Min. att. -626%  max: 56%">
<path fill="none" stroke="black" stroke-width="8" d="M818.94,-86.03C859.83,-98.43 908.43,-118.32 944,-149 1042.17,-233.66 1101.19,-383.08 1122.47,-444.96"/>
<polygon fill="black" stroke="black" stroke-width="8" points="1115.95,-447.55 1125.78,-454.79 1129.22,-443.07 1115.95,-447.55"/>
</a>
</g>
</g>
<!-- EMP -->
<g id="node2" class="node">
<title>EMP</title>
<g id="a_node2"><a xlink:title="Petroleum imports, cw 2012$
FRML &lt;Z&gt; EMP = XGDP*EXP(EMP_A+EMP_AERR+ (LOG(EMPTRT)+0.048026*((LOG(PMP/PXB))-(LOG(PMP(-1)/PXB(-1))))+0.022115*XGAP2(-1)) ) $">
<polygon fill="#63b8ff" stroke="black" points="842.5,-653 634.5,-653 634.5,-617 842.5,-617 842.5,-653"/>
<text text-anchor="start" x="640.5" y="-630.8" font-family="Times New Roman,serif" font-size="14.00" fill="blue">EMP:Petroleum imports, cw 2012$</text>
</a>
</g>
</g>
<!-- EMP&#45;&gt;XFS -->
<g id="edge17" class="edge">
<title>EMP-&gt;XFS</title>
<g id="a_edge17"><a xlink:href="bogus" xlink:title=" EMP -&gt; XFS Min. att. -108%  max: 5%">
<path fill="none" stroke="black" stroke-width="8" d="M842.63,-631.31C875.87,-627.53 912.29,-620.58 944,-608 961.18,-601.18 1050.84,-534.19 1099.69,-497.21"/>
<polygon fill="black" stroke="black" stroke-width="8" points="1103.99,-502.73 1107.73,-491.11 1095.53,-491.58 1103.99,-502.73"/>
</a>
</g>
</g>
<!-- PMO -->
<g id="node3" class="node">
<title>PMO</title>
<g id="a_node3"><a xlink:title="Price index for imports ex. petroleum, cw
FRML &lt;Z&gt; PMO = PMO(-1)*EXP(PMO_A+PMO_AERR+ (0.0+0.3776815983707077*(LOG(QPMO)+.64*LOG(FPC(-1)/FPX(-1))+.36*LOG(PXB(-1))-LOG(PMO(-1)))+0.2343966603329429*((LOG(FPC/FPX))-(LOG(FPC(-1)/FPX(-1))))+(1-0.2343966603329429)*((LOG(PXB))-(LOG(PXB(-1))))) ) $">
<polygon fill="#63b8ff" stroke="black" points="386.5,-491 110.5,-491 110.5,-455 386.5,-455 386.5,-491"/>
<text text-anchor="start" x="116.5" y="-468.8" font-family="Times New Roman,serif" font-size="14.00" fill="blue">PMO:Price index for imports ex. petroleum, cw</text>
</a>
</g>
</g>
<!-- EMO -->
<g id="node17" class="node">
<title>EMO</title>
<g id="a_node17"><a xlink:title="Imports of goods and services ex. petroleum, cw 2012$
FRML &lt;Z&gt; EMO = EMO(-1)*EXP(EMO_A+EMO_AERR+ (0.01620546980581163+-0.1807104996815989*LOG(EMO(-1)*(PMO(-1)/100)/(UEMOT(-1)*XGDPN(-1)))+1.358186927724613*(XGAP2-XGAP2(-1))/100+1.637077186962015*(XGAP2(-1)-XGAP2(-2))/100+0.3188307105827468*LOG(DDOCKM)+0.4046942138546456*((LOG(DDOCKM))-(LOG(DDOCKM(-1))))) ) $">
<polygon fill="#63b8ff" stroke="black" points="914.5,-491 562.5,-491 562.5,-455 914.5,-455 914.5,-491"/>
<text text-anchor="start" x="568.5" y="-468.8" font-family="Times New Roman,serif" font-size="14.00" fill="blue">EMO:Imports of goods and services ex. petroleum, cw 2012$</text>
</a>
</g>
</g>
<!-- PMO&#45;&gt;EMO -->
<g id="edge12" class="edge">
<title>PMO-&gt;EMO</title>
<g id="a_edge12"><a xlink:href="bogus" xlink:title=" PMO -&gt; EMO Min. att. -126%  max: 1689%">
<path fill="none" stroke="black" stroke-width="8" d="M386.73,-473C438.09,-473 497.3,-473 552.28,-473"/>
<polygon fill="black" stroke="black" stroke-width="8" points="552.49,-480 562.49,-473 552.49,-466 552.49,-480"/>
</a>
</g>
</g>
<!-- EGSLT -->
<g id="node4" class="node">
<title>EGSLT</title>
<g id="a_node4"><a xlink:title="S&amp;L government employee compensation, cw 2012$, trend
FRML &lt;Z&gt; EGSLT = EGSLT(-1)*EXP(EGSLT_A+EGSLT_AERR+ (-.259779+-.1*LOG(.01*PGSL(-1)*EGSLT(-1)/XGDPTN(-1))+1.0*(HGGDPT+HGGDPT(-1)+HGGDPT(-2)+HGGDPT(-3))/1600) ) $">
<polygon fill="#63b8ff" stroke="black" points="441,-329 56,-329 56,-293 441,-293 441,-329"/>
<text text-anchor="start" x="62.5" y="-306.8" font-family="Times New Roman,serif" font-size="14.00" fill="blue">EGSLT:S&amp;L government employee compensation, cw 2012$, trend</text>
</a>
</g>
</g>
<!-- EGSL -->
<g id="node10" class="node">
<title>EGSL</title>
<g id="a_node10"><a xlink:title="S&amp;L government employee compensation, cw 2012$
FRML &lt;Z&gt; EGSL = EGSL(-1)*EXP(EGSL_A+EGSL_AERR+ (0.0003682770277494773+-0.1114151303946257*LOG(EGSL(-1)/EGSLT(-1))+0.1562467669415557*((LOG(EGSL(-1)))-(LOG(EGSL(-2))))+0.02155815410956755*((LOG(EGSL(-2)))-(LOG(EGSL(-3))))+0.7449614274122569*((LOG(EGSLT))-(LOG(EGSLT(-1))))+-0.001432565493088224*XGAP2+0.001765173794440745*XGAP2(-1)) ) $">
<polygon fill="#63b8ff" stroke="black" points="910,-363 567,-363 567,-327 910,-327 910,-363"/>
<text text-anchor="start" x="573.5" y="-340.8" font-family="Times New Roman,serif" font-size="14.00" fill="blue">EGSL:S&amp;L government employee compensation, cw 2012$</text>
</a>
</g>
</g>
<!-- EGSLT&#45;&gt;EGSL -->
<g id="edge6" class="edge">
<title>EGSLT-&gt;EGSL</title>
<g id="a_edge6"><a xlink:href="bogus" xlink:title=" EGSLT -&gt; EGSL Min. att. 5%  max: 57%">
<path fill="none" stroke="black" stroke-width="5.73" d="M441.32,-324.36C479.29,-327.01 519.03,-329.78 556.63,-332.4"/>
<polygon fill="black" stroke="black" stroke-width="5.73" points="556.33,-337.4 566.65,-333.1 557.02,-327.4 556.33,-337.4"/>
</a>
</g>
</g>
<!-- FXGAP -->
<g id="node5" class="node">
<title>FXGAP</title>
<g id="a_node5"><a xlink:title="Foreign output gap (world, bilateral export weights)
FRML &lt;Z&gt; FXGAP = FXGAP_A+FXGAP_AERR+ (+1.290723676327916*FXGAP(-1)+-0.4680091148746248*FXGAP(-2)+-0.05*((FRS10(-1)-(FPI10(-1)+FPI10(-2)+FPI10(-3)+FPI10(-4))/4+FRS10(-2)-(FPI10(-2)+FPI10(-3)+FPI10(-4)+FPI10(-5))/4+FRS10(-3)-(FPI10(-3)+FPI10(-4)+FPI10(-5)+FPI10(-6))/4)/3-FRSTAR)+0.03734559019022718*XGAP2(-1))  $">
<polygon fill="#63b8ff" stroke="black" points="420.5,-59 76.5,-59 76.5,-23 420.5,-23 420.5,-59"/>
<text text-anchor="start" x="82.5" y="-36.8" font-family="Times New Roman,serif" font-size="14.00" fill="blue">FXGAP:Foreign output gap (world, bilateral export weights)</text>
</a>
</g>
</g>
<!-- FXGAP&#45;&gt;EX -->
<g id="edge11" class="edge">
<title>FXGAP-&gt;EX</title>
<g id="a_edge11"><a xlink:href="bogus" xlink:title=" FXGAP -&gt; EX Min. att. -96%  max: 199%">
<path fill="none" stroke="black" stroke-width="8" d="M420.52,-50.46C478.72,-53.68 543.01,-57.24 598.4,-60.3"/>
<polygon fill="black" stroke="black" stroke-width="8" points="598.26,-67.31 608.63,-60.87 599.04,-53.33 598.26,-67.31"/>
</a>
</g>
</g>
<!-- XB -->
<g id="node6" class="node">
<title>XB</title>
<g id="a_node6"><a xlink:title="Business output (BEA definition), cw 2012$
FRML  &lt;&gt; XB = XB_A+XB_AERR+ (XBN/(PXB/100))  $">
<polygon fill="#63b8ff" stroke="black" points="387,-221 110,-221 110,-185 387,-185 387,-221"/>
<text text-anchor="start" x="116.5" y="-198.8" font-family="Times New Roman,serif" font-size="14.00" fill="blue">XB:Business output (BEA definition), cw 2012$</text>
</a>
</g>
</g>
<!-- EBFI -->
<g id="node26" class="node">
<title>EBFI</title>
<g id="a_node26"><a xlink:title="Business Fixed Investment, cw 2012$
FRML &lt;Z&gt; EBFI = EBFI(-1)*EXP(EBFI_A+EBFI_AERR+ ((0.07358150979200171*(LOG(QEBFI(-1)/EBFI(-1)))+0.5222641043182303*((LOG(EBFI(-1)))-(LOG(EBFI(-2))))+0.3022170849291267*((LOG(EBFI(-2)))-(LOG(EBFI(-3))))+1*ZEBFI)*(1-0.3835146156808873)+0.3835146156808873*(((LOG(XB(-1)))-(LOG(XB(-2))))-HGPBFIR(-1)/400)) ) $">
<polygon fill="#63b8ff" stroke="black" points="865,-194 612,-194 612,-158 865,-158 865,-194"/>
<text text-anchor="start" x="618.5" y="-171.8" font-family="Times New Roman,serif" font-size="14.00" fill="blue">EBFI:Business Fixed Investment, cw 2012$</text>
</a>
</g>
</g>
<!-- XB&#45;&gt;EBFI -->
<g id="edge1" class="edge">
<title>XB-&gt;EBFI</title>
<g id="a_edge1"><a xlink:href="bogus" xlink:title=" XB -&gt; EBFI Min. att. -71%  max: 70%">
<path fill="none" stroke="black" stroke-width="7.09" d="M387.06,-195.39C454.22,-191.67 534.77,-187.22 601.7,-183.51"/>
<polygon fill="black" stroke="black" stroke-width="7.09" points="602.25,-189.69 611.89,-182.95 601.56,-177.31 602.25,-189.69"/>
</a>
</g>
</g>
<!-- EGFL -->
<g id="node7" class="node">
<title>EGFL</title>
<g id="a_node7"><a xlink:title="Federal government employee compensation, cw 2012$
FRML &lt;Z&gt; EGFL = EGFL(-1)*EXP(EGFL_A+EGFL_AERR+ (0.0002417378554669395+-0.0795584254267964*LOG(EGFL(-1)/EGFLT(-1))+0.2415347480637823*((LOG(EGFL(-1)))-(LOG(EGFL(-2))))+-0.06133379374138964*((LOG(EGFL(-2)))-(LOG(EGFL(-3))))+1.206872311101357*((LOG(EGFLT))-(LOG(EGFLT(-1))))+-0.002507254010777311*XGAP2+0.002350674896424264*XGAP2(-1)) ) $">
<polygon fill="#63b8ff" stroke="black" points="917,-707 560,-707 560,-671 917,-671 917,-707"/>
<text text-anchor="start" x="566.5" y="-684.8" font-family="Times New Roman,serif" font-size="14.00" fill="blue">EGFL:Federal government employee compensation, cw 2012$</text>
</a>
</g>
</g>
<!-- EGFL&#45;&gt;XFS -->
<g id="edge26" class="edge">
<title>EGFL-&gt;XFS</title>
<g id="a_edge26"><a xlink:href="bogus" xlink:title=" EGFL -&gt; XFS Min. att. -131%  max: 12%">
<path fill="none" stroke="black" stroke-width="8" d="M917.12,-673.06C926.4,-669.92 935.42,-666.26 944,-662 1020.74,-623.95 1084.63,-541.95 1114.06,-499.57"/>
<polygon fill="black" stroke="black" stroke-width="8" points="1119.95,-503.36 1119.81,-491.15 1108.39,-495.46 1119.95,-503.36"/>
</a>
</g>
</g>
<!-- EH -->
<g id="node8" class="node">
<title>EH</title>
<g id="a_node8"><a xlink:title="Residential investment expenditures, cw 2012$
FRML &lt;Z&gt; EH = EH(-1)*EXP(EH_A+EH_AERR+ (0.01309931436163227*LOG(QEH(-1)/EH(-1))+0.370727139760127*((LOG(EH(-1)))-(LOG(EH(-2))))+0.206060944066708*((LOG(EH(-2)))-(LOG(EH(-3))))+1*ZEH+-0.05620618046332654*((RME(-1))-(RME(-2)))+0.02793327971442171*D83*((RME(-1))-(RME(-2)))) ) $">
<polygon fill="#63b8ff" stroke="black" points="884.5,-430 592.5,-430 592.5,-394 884.5,-394 884.5,-430"/>
<text text-anchor="start" x="598.5" y="-407.8" font-family="Times New Roman,serif" font-size="14.00" fill="blue">EH:Residential investment expenditures, cw 2012$</text>
</a>
</g>
</g>
<!-- EH&#45;&gt;XFS -->
<g id="edge16" class="edge">
<title>EH-&gt;XFS</title>
<g id="a_edge16"><a xlink:href="bogus" xlink:title=" EH -&gt; XFS Min. att. -124%  max: 1248%">
<path fill="none" stroke="black" stroke-width="8" d="M855.26,-430.01C902.58,-437.38 957.44,-445.91 1005.74,-453.43"/>
<polygon fill="black" stroke="black" stroke-width="8" points="1004.67,-460.35 1015.63,-454.97 1006.82,-446.51 1004.67,-460.35"/>
</a>
</g>
</g>
<!-- EGFLT -->
<g id="node9" class="node">
<title>EGFLT</title>
<g id="a_node9"><a xlink:title="Federal government employee compensation, cw 2012$, trend
FRML &lt;Z&gt; EGFLT = EGFLT(-1)*EXP(EGFLT_A+EGFLT_AERR+ (-.375978+-.1*LOG(.01*PGFL(-1)*EGFLT(-1)/XGDPTN(-1))+1.0*(HGGDPT+HGGDPT(-1)+HGGDPT(-2)+HGGDPT(-3))/1600) ) $">
<polygon fill="#63b8ff" stroke="black" points="448,-707 49,-707 49,-671 448,-671 448,-707"/>
<text text-anchor="start" x="55.5" y="-684.8" font-family="Times New Roman,serif" font-size="14.00" fill="blue">EGFLT:Federal government employee compensation, cw 2012$, trend</text>
</a>
</g>
</g>
<!-- EGFLT&#45;&gt;EGFL -->
<g id="edge21" class="edge">
<title>EGFLT-&gt;EGFL</title>
<g id="a_edge21"><a xlink:href="bogus" xlink:title=" EGFLT -&gt; EGFL Min. att. -3%  max: 146%">
<path fill="none" stroke="black" stroke-width="8" d="M448.34,-689C481.8,-689 516.43,-689 549.6,-689"/>
<polygon fill="black" stroke="black" stroke-width="8" points="549.85,-696 559.85,-689 549.85,-682 549.85,-696"/>
</a>
</g>
</g>
<!-- EGSL&#45;&gt;XFS -->
<g id="edge19" class="edge">
<title>EGSL-&gt;XFS</title>
<g id="a_edge19"><a xlink:href="bogus" xlink:title=" EGSL -&gt; XFS Min. att. -487%  max: 75%">
<path fill="none" stroke="black" stroke-width="8" d="M857.83,-363.02C886.39,-368.77 916.58,-376.03 944,-385 996.3,-402.1 1053.08,-430.2 1090.29,-450.04"/>
<polygon fill="black" stroke="black" stroke-width="8" points="1087.19,-456.32 1099.31,-454.9 1093.82,-443.99 1087.19,-456.32"/>
</a>
</g>
</g>
<!-- KI -->
<g id="node11" class="node">
<title>KI</title>
<g id="a_node11"><a xlink:title="Stock of private inventories, cw 2012$
FRML &lt;Z&gt; KI = KI(-1)*EXP(KI_A+KI_AERR+ (-0.00120624751419073+0.01469206254903638*(LOG(QKIR)-LOG(KI(-1)/XFS(-1)))+0.4567399290262596*(((LOG(KI(-1)))-(LOG(KI(-2))))--0.00120624751419073)+0.236031927797704*((LOG(XFS(-1)))-(LOG(XFS(-2))))+0.3072281431760363*((LOG(XFS(-2)))-(LOG(XFS(-3))))) ) $">
<polygon fill="#63b8ff" stroke="black" points="1563,-537 1321,-537 1321,-501 1563,-501 1563,-537"/>
<text text-anchor="start" x="1327" y="-514.8" font-family="Times New Roman,serif" font-size="14.00" fill="blue">KI:Stock of private inventories, cw 2012$</text>
</a>
</g>
</g>
<!-- XGDP -->
<g id="node22" class="node">
<title>XGDP</title>
<g id="a_node22"><a xlink:title="GDP, cw 2012$
FRML &lt;Z&gt; XGDP = EXP(XGDP_A+XGDP_AERR+ (LOG(XGDP(-1))+0.9985*LOG(XFS/XFS(-1))+0.6264*(LOG(KI)-LOG(KI(-1)))+-0.6249*(LOG(KI(-1))-LOG(KI(-2)))) ) $">
<polygon fill="red" stroke="black" points="1738,-537 1599,-537 1599,-501 1738,-501 1738,-537"/>
<text text-anchor="start" x="1605.5" y="-514.8" font-family="Times New Roman,serif" font-size="14.00" fill="blue">XGDP:GDP, cw 2012$</text>
</a>
</g>
</g>
<!-- KI&#45;&gt;XGDP -->
<g id="edge13" class="edge">
<title>KI-&gt;XGDP</title>
<g id="a_edge13"><a xlink:href="bogus" xlink:title=" KI -&gt; XGDP Min. att. -88%  max: 189%">
<path fill="none" stroke="black" stroke-width="8" d="M1563.14,-519C1571.81,-519 1580.42,-519 1588.75,-519"/>
<polygon fill="black" stroke="black" stroke-width="8" points="1588.77,-526 1598.77,-519 1588.77,-512 1588.77,-526"/>
</a>
</g>
</g>
<!-- QEBFI -->
<g id="node12" class="node">
<title>QEBFI</title>
<g id="a_node12"><a xlink:title="Desired level of investment in business investment
FRML  &lt;&gt; QEBFI = QEBFI_A+QEBFI_AERR+ (XB*VBFI*(HXBT/100-.01*HGPBFIR+JRBFI))  $">
<polygon fill="#63b8ff" stroke="black" points="415.5,-167 81.5,-167 81.5,-131 415.5,-131 415.5,-167"/>
<text text-anchor="start" x="87.5" y="-144.8" font-family="Times New Roman,serif" font-size="14.00" fill="blue">QEBFI:Desired level of investment in business investment</text>
</a>
</g>
</g>
<!-- QEBFI&#45;&gt;EBFI -->
<g id="edge15" class="edge">
<title>QEBFI-&gt;EBFI</title>
<g id="a_edge15"><a xlink:href="bogus" xlink:title=" QEBFI -&gt; EBFI Min. att. -28%  max: 22%">
<path fill="none" stroke="black" stroke-width="2.84" d="M415.74,-158.2C476.32,-161.55 544.04,-165.3 601.67,-168.48"/>
<polygon fill="black" stroke="black" stroke-width="2.84" points="601.76,-172 611.94,-169.05 602.15,-165.01 601.76,-172"/>
</a>
</g>
</g>
<!-- EGFE -->
<g id="node13" class="node">
<title>EGFE</title>
<g id="a_node13"><a xlink:title="Federal Government expenditures, CW 2012$
FRML &lt;Z&gt; EGFE = EGFE(-1)*EXP(EGFE_A+EGFE_AERR+ (-0.0008045327442607825+-0.1204156945139518*LOG(EGFE(-1)/EGFET(-1))+-0.153308131863314*((LOG(EGFE(-1)))-(LOG(EGFE(-2))))+-0.1035937599294917*((LOG(EGFE(-2)))-(LOG(EGFE(-3))))+1.50381543495264*((LOG(EGFET))-(LOG(EGFET(-1))))+-0.0009835524480447814*XGAP2+0.0007256812123007961*XGAP2(-1)) ) $">
<polygon fill="#63b8ff" stroke="black" points="889.5,-599 587.5,-599 587.5,-563 889.5,-563 889.5,-599"/>
<text text-anchor="start" x="593.5" y="-576.8" font-family="Times New Roman,serif" font-size="14.00" fill="blue">EGFE:Federal Government expenditures, CW 2012$</text>
</a>
</g>
</g>
<!-- EGFE&#45;&gt;XFS -->
<g id="edge8" class="edge">
<title>EGFE-&gt;XFS</title>
<g id="a_edge8"><a xlink:href="bogus" xlink:title=" EGFE -&gt; XFS Min. att. -20%  max: 79%">
<path fill="none" stroke="black" stroke-width="7.89" d="M889.57,-566.05C908.06,-562.78 926.57,-558.82 944,-554 995.52,-539.77 1051.37,-514.22 1088.59,-495.61"/>
<polygon fill="black" stroke="black" stroke-width="7.89" points="1091.82,-501.7 1097.64,-491.04 1085.6,-489.39 1091.82,-501.7"/>
</a>
</g>
</g>
<!-- XGDPN -->
<g id="node14" class="node">
<title>XGDPN</title>
<g id="a_node14"><a xlink:title="GDP, current $
FRML  &lt;&gt; XGDPN = XGDPN_A+XGDPN_AERR+ (XPN+EIN-EMN+EGFLN+EGSLN)  $">
<polygon fill="#63b8ff" stroke="black" points="321,-437 176,-437 176,-401 321,-401 321,-437"/>
<text text-anchor="start" x="182.5" y="-414.8" font-family="Times New Roman,serif" font-size="14.00" fill="blue">XGDPN:GDP, current $</text>
</a>
</g>
</g>
<!-- XGDPN&#45;&gt;EMO -->
<g id="edge3" class="edge">
<title>XGDPN-&gt;EMO</title>
<g id="a_edge3"><a xlink:href="bogus" xlink:title=" XGDPN -&gt; EMO Min. att. -1014%  max: 75%">
<path fill="none" stroke="black" stroke-width="8" d="M321.26,-426.77C370.67,-432.13 437.82,-439.45 497,-446 519.84,-448.53 543.89,-451.21 567.6,-453.86"/>
<polygon fill="black" stroke="black" stroke-width="8" points="567.02,-460.84 577.74,-454.99 568.58,-446.92 567.02,-460.84"/>
</a>
</g>
</g>
<!-- ZEBFI -->
<g id="node15" class="node">
<title>ZEBFI</title>
<g id="a_node15"><a xlink:title="Expected growth rate of business output EBFI (VAR exp.)
FRML  &lt;&gt; ZEBFI = ZEBFI_A+ZEBFI_AERR+ (-1.836241195103586E-16+-0.0004311442119548698*PICNIA(-1)+-0.0005071417360301063*PICNIA(-2)+-3.881819160880394E-05*PICNIA(-3)+0.0001679875754395107*PICNIA(-4)+-0.0009752514829426216*RFF(-1)+0.0004172696850180997*RFF(-2)+9.804022481480238E-06*RFF(-3)+0.0004025448938499502*RFF(-4)+0.0001456328815931833*RTR(-1)+0.0008091165641542619*PTR(-1)+0.0006914817407124366*XGAP(-1)+-0.001524629901125206*XGAP(-2)+0.0001821021224146923*XGAP(-3)+0.0001709602428972692*XGAP(-4)+0.01429456576547675*((LOG(QEBFI(-1)))-(LOG(QEBFI(-2))))+0.01004233676573099*((LOG(QEBFI(-2)))-(LOG(QEBFI(-3))))+0.005011839434648968*((LOG(QEBFI(-3)))-(LOG(QEBFI(-4))))+0.003887436951496095*((LOG(QEBFI(-4)))-(LOG(QEBFI(-5))))+0.1422818153960116*HXBT(-1)/400+-0.1422818153960531*HGPBFIR(-1)/400)  $">
<polygon fill="#63b8ff" stroke="black" points="435,-113 62,-113 62,-77 435,-77 435,-113"/>
<text text-anchor="start" x="68.5" y="-90.8" font-family="Times New Roman,serif" font-size="14.00" fill="blue">ZEBFI:Expected growth rate of business output EBFI (VAR exp.)</text>
</a>
</g>
</g>
<!-- ZEBFI&#45;&gt;EBFI -->
<g id="edge2" class="edge">
<title>ZEBFI-&gt;EBFI</title>
<g id="a_edge2"><a xlink:href="bogus" xlink:title=" ZEBFI -&gt; EBFI Min. att. -23%  max: 21%">
<path fill="none" stroke="black" stroke-width="2.35" d="M435.3,-112.98C456.16,-115.68 477.07,-118.69 497,-122 550.79,-130.94 610.63,-144.37 657.16,-155.59"/>
<polygon fill="black" stroke="black" stroke-width="2.35" points="656.33,-158.99 666.88,-157.95 657.99,-152.19 656.33,-158.99"/>
</a>
</g>
</g>
<!-- EGSE -->
<g id="node16" class="node">
<title>EGSE</title>
<g id="a_node16"><a xlink:title="S&amp;L Government expenditures, CW 2012$
FRML &lt;Z&gt; EGSE = EGSE(-1)*EXP(EGSE_A+EGSE_AERR+ (-0.0003205558585065158+-0.1310861864392932*LOG(EGSE(-1)/EGSET(-1))+0.1315799717205844*((LOG(EGSE(-1)))-(LOG(EGSE(-2))))+0.002629649907733779*((LOG(EGSE(-2)))-(LOG(EGSE(-3))))+0.9287008343314474*((LOG(EGSET))-(LOG(EGSET(-1))))+0.001580665878764003*XGAP2+-0.0008537660921935765*XGAP2(-1)) ) $">
<polygon fill="#63b8ff" stroke="black" points="883,-545 594,-545 594,-509 883,-509 883,-545"/>
<text text-anchor="start" x="600.5" y="-522.8" font-family="Times New Roman,serif" font-size="14.00" fill="blue">EGSE:S&amp;L Government expenditures, CW 2012$</text>
</a>
</g>
</g>
<!-- EGSE&#45;&gt;XFS -->
<g id="edge18" class="edge">
<title>EGSE-&gt;XFS</title>
<g id="a_edge18"><a xlink:href="bogus" xlink:title=" EGSE -&gt; XFS Min. att. -7%  max: 93%">
<path fill="none" stroke="black" stroke-width="8" d="M877.58,-508.99C899.8,-506.03 922.54,-502.96 944,-500 961.39,-497.6 979.67,-495.03 997.73,-492.46"/>
<polygon fill="black" stroke="black" stroke-width="8" points="998.81,-499.37 1007.73,-491.03 996.84,-485.52 998.81,-499.37"/>
</a>
</g>
</g>
<!-- EMO&#45;&gt;XFS -->
<g id="edge4" class="edge">
<title>EMO-&gt;XFS</title>
<g id="a_edge4"><a xlink:href="bogus" xlink:title=" EMO -&gt; XFS Min. att. -2128%  max: 139%">
<path fill="none" stroke="black" stroke-width="8" d="M914.58,-473C932.91,-473 951.49,-473 969.66,-473"/>
<polygon fill="black" stroke="black" stroke-width="8" points="969.71,-480 979.71,-473 969.71,-466 969.71,-480"/>
</a>
</g>
</g>
<!-- ECO -->
<g id="node18" class="node">
<title>ECO</title>
<g id="a_node18"><a xlink:title="Consumer expenditures on non-durable goods and non-housing services, cw 2012$
FRML &lt;Z&gt; ECO = ECO(-1)*EXP(ECO_A+ECO_AERR+ ((0.1584215605793791*LOG(QECO(-1)/ECO(-1))+0.4118129978512995*((LOG(ECO(-1)))-(LOG(ECO(-2))))+1*ZECO)*(1-0.3075237404993435)+0.3075237404993435*((LOG(YHL+YHT))-(LOG(YHL(-1)+YHT(-1))))) ) $">
<polygon fill="#63b8ff" stroke="black" points="497,-275 0,-275 0,-239 497,-239 497,-275"/>
<text text-anchor="start" x="6.5" y="-252.8" font-family="Times New Roman,serif" font-size="14.00" fill="blue">ECO:Consumer expenditures on non-durable goods and non-housing services, cw 2012$</text>
</a>
</g>
</g>
<!-- ECNIA -->
<g id="node21" class="node">
<title>ECNIA</title>
<g id="a_node21"><a xlink:title="Personal consumption expenditures, cw 2012$ (NIPA definition)
FRML &lt;Z&gt; ECNIA = EXP(ECNIA_A+ECNIA_AERR+ (LOG(ECNIA(-1))+0.735*LOG(ECO/ECO(-1))+0.1055*LOG(ECD/ECD(-1))+0.1595*LOG(ECH/ECH(-1))) ) $">
<polygon fill="#63b8ff" stroke="black" points="944,-282 533,-282 533,-246 944,-246 944,-282"/>
<text text-anchor="start" x="539.5" y="-259.8" font-family="Times New Roman,serif" font-size="14.00" fill="blue">ECNIA:Personal consumption expenditures, cw 2012$ (NIPA definition)</text>
</a>
</g>
</g>
<!-- ECO&#45;&gt;ECNIA -->
<g id="edge7" class="edge">
<title>ECO-&gt;ECNIA</title>
<g id="a_edge7"><a xlink:href="bogus" xlink:title=" ECO -&gt; ECNIA Min. att. -308%  max: 148%">
<path fill="none" stroke="black" stroke-width="8" d="M497.07,-260.55C505.54,-260.67 514.01,-260.79 522.43,-260.91"/>
<polygon fill="black" stroke="black" stroke-width="8" points="522.57,-267.92 532.67,-261.06 522.77,-253.92 522.57,-267.92"/>
</a>
</g>
</g>
<!-- XFS&#45;&gt;KI -->
<g id="edge28" class="edge">
<title>XFS-&gt;KI</title>
<g id="a_edge28"><a xlink:href="bogus" xlink:title=" XFS -&gt; KI Min. att. -173%  max: 69%">
<path fill="none" stroke="black" stroke-width="8" d="M1254.15,-491.05C1272.76,-493.83 1292.05,-496.72 1310.86,-499.53"/>
<polygon fill="black" stroke="black" stroke-width="8" points="1310.02,-506.48 1320.95,-501.04 1312.1,-492.64 1310.02,-506.48"/>
</a>
</g>
</g>
<!-- XFS&#45;&gt;XGDP -->
<g id="edge31" class="edge">
<title>XFS-&gt;XGDP</title>
<g id="a_edge31"><a xlink:href="bogus" xlink:title=" XFS -&gt; XGDP Min. att. -195%  max: 589%">
<path fill="none" stroke="black" stroke-width="8" d="M1285.31,-472.02C1367.84,-473.42 1471.47,-478.3 1563,-492 1574.04,-493.65 1585.59,-496 1596.83,-498.62"/>
<polygon fill="black" stroke="black" stroke-width="8" points="1595.24,-505.44 1606.6,-500.99 1598.54,-491.83 1595.24,-505.44"/>
</a>
</g>
</g>
<!-- EGSET -->
<g id="node20" class="node">
<title>EGSET</title>
<g id="a_node20"><a xlink:title="S&amp;L Government expenditures, CW 2012$, Trend
FRML &lt;Z&gt; EGSET = EGSET(-1)*EXP(EGSET_A+EGSET_AERR+ (-0.32+-0.1*LOG(.01*PEGSR(-1)*PXP(-1)*EGSET(-1)/XGDPTN(-1))+1*(HGGDPT+HGGDPT(-1)+HGGDPT(-2)+HGGDPT(-3))/1600) ) $">
<polygon fill="#63b8ff" stroke="black" points="416,-545 81,-545 81,-509 416,-509 416,-545"/>
<text text-anchor="start" x="87.5" y="-522.8" font-family="Times New Roman,serif" font-size="14.00" fill="blue">EGSET:S&amp;L Government expenditures, CW 2012$, Trend</text>
</a>
</g>
</g>
<!-- EGSET&#45;&gt;EGSE -->
<g id="edge29" class="edge">
<title>EGSET-&gt;EGSE</title>
<g id="a_edge29"><a xlink:href="bogus" xlink:title=" EGSET -&gt; EGSE Min. att. -241%  max: 409%">
<path fill="none" stroke="black" stroke-width="8" d="M416.08,-527C470.29,-527 530.19,-527 583.45,-527"/>
<polygon fill="black" stroke="black" stroke-width="8" points="583.66,-534 593.66,-527 583.66,-520 583.66,-534"/>
</a>
</g>
</g>
<!-- ECNIA&#45;&gt;XFS -->
<g id="edge24" class="edge">
<title>ECNIA-&gt;XFS</title>
<g id="a_edge24"><a xlink:href="bogus" xlink:title=" ECNIA -&gt; XFS Min. att. -134%  max: 2016%">
<path fill="none" stroke="black" stroke-width="8" d="M842.55,-282.04C876.05,-290.27 912.64,-301.89 944,-318 1010.54,-352.17 1074.75,-413.25 1108.01,-447.65"/>
<polygon fill="black" stroke="black" stroke-width="8" points="1103.04,-452.58 1115.01,-454.97 1113.16,-442.91 1103.04,-452.58"/>
</a>
</g>
</g>
<!-- XGDP&#45;&gt;EMP -->
<g id="edge22" class="edge">
<title>XGDP-&gt;EMP</title>
<g id="a_edge22"><a xlink:href="bogus" xlink:title=" XGDP -&gt; EMP Min. att. -47%  max: 216%">
<path fill="none" stroke="black" stroke-width="8" d="M1603.72,-537.05C1590.35,-540.39 1576.27,-543.58 1563,-546 1311.57,-591.82 1012.35,-616.91 852.87,-627.98"/>
<polygon fill="black" stroke="black" stroke-width="8" points="852.07,-621.02 842.57,-628.69 853.03,-634.98 852.07,-621.02"/>
</a>
</g>
</g>
<!-- RME -->
<g id="node23" class="node">
<title>RME</title>
<g id="a_node23"><a xlink:title="Interest rate on conventional mortgages
FRML &lt;Z&gt; RME = RME_A+RME_AERR+ (0.515870426113512+0.6286405556840244*((RG10)-(RG10(-1)))+0.2555601487902845*D87*((RG10)-(RG10(-1)))+0.2889775740676342*(RG10(-1)-RME(-1))+0.05071546489585005*D87*(RG10(-1)-RME(-1))) +RME(-1) $">
<polygon fill="#63b8ff" stroke="black" points="379.5,-383 117.5,-383 117.5,-347 379.5,-347 379.5,-383"/>
<text text-anchor="start" x="123.5" y="-360.8" font-family="Times New Roman,serif" font-size="14.00" fill="blue">RME:Interest rate on conventional mortgages</text>
</a>
</g>
</g>
<!-- RME&#45;&gt;EH -->
<g id="edge20" class="edge">
<title>RME-&gt;EH</title>
<g id="a_edge20"><a xlink:href="bogus" xlink:title=" RME -&gt; EH Min. att. -11%  max: 33%">
<path fill="none" stroke="black" stroke-width="3.3" d="M379.63,-377.53C441.94,-383.53 517.02,-390.76 582.28,-397.05"/>
<polygon fill="black" stroke="black" stroke-width="3.3" points="581.96,-400.54 592.25,-398.01 582.63,-393.57 581.96,-400.54"/>
</a>
</g>
</g>
<!-- EGFET -->
<g id="node24" class="node">
<title>EGFET</title>
<g id="a_node24"><a xlink:title="Federal Government expenditures, CW 2012$, Trend
FRML &lt;Z&gt; EGFET = EGFET(-1)*EXP(EGFET_A+EGFET_AERR+ (-0.3101+-0.1*LOG(.01*PEGFR(-1)*PXP(-1)*EGFET(-1)/XGDPTN(-1))+1*(HGGDPT+HGGDPT(-1)+HGGDPT(-2)+HGGDPT(-3))/1600) ) $">
<polygon fill="#63b8ff" stroke="black" points="423,-599 74,-599 74,-563 423,-563 423,-599"/>
<text text-anchor="start" x="80.5" y="-576.8" font-family="Times New Roman,serif" font-size="14.00" fill="blue">EGFET:Federal Government expenditures, CW 2012$, Trend</text>
</a>
</g>
</g>
<!-- EGFET&#45;&gt;EGFE -->
<g id="edge25" class="edge">
<title>EGFET-&gt;EGFE</title>
<g id="a_edge25"><a xlink:href="bogus" xlink:title=" EGFET -&gt; EGFE Min. att. -1231%  max: 263%">
<path fill="none" stroke="black" stroke-width="8" d="M423.27,-581C473.48,-581 528.03,-581 577.37,-581"/>
<polygon fill="black" stroke="black" stroke-width="8" points="577.49,-588 587.49,-581 577.49,-574 577.49,-588"/>
</a>
</g>
</g>
<!-- XGAP2 -->
<g id="node25" class="node">
<title>XGAP2</title>
<g id="a_node25"><a xlink:title="Output gap for GDP (100*(actual/potential -1)
FRML  &lt;&gt; XGAP2 = XGAP2_A+XGAP2_AERR+ (100*(XGDO/XGDPT-1))  $">
<polygon fill="#63b8ff" stroke="black" points="405,-653 92,-653 92,-617 405,-617 405,-653"/>
<text text-anchor="start" x="98.5" y="-630.8" font-family="Times New Roman,serif" font-size="14.00" fill="blue">XGAP2:Output gap for GDP (100*(actual/potential -1)</text>
</a>
</g>
</g>
<!-- XGAP2&#45;&gt;EMP -->
<g id="edge14" class="edge">
<title>XGAP2-&gt;EMP</title>
<g id="a_edge14"><a xlink:href="bogus" xlink:title=" XGAP2 -&gt; EMP Min. att. -122%  max: 150%">
<path fill="none" stroke="black" stroke-width="8" d="M405.25,-635C476.34,-635 558.98,-635 624.06,-635"/>
<polygon fill="black" stroke="black" stroke-width="8" points="624.35,-642 634.35,-635 624.35,-628 624.35,-642"/>
</a>
</g>
</g>
<!-- XGAP2&#45;&gt;EGFL -->
<g id="edge5" class="edge">
<title>XGAP2-&gt;EGFL</title>
<g id="a_edge5"><a xlink:href="bogus" xlink:title=" XGAP2 -&gt; EGFL Min. att. -124%  max: 30%">
<path fill="none" stroke="black" stroke-width="8" d="M405.3,-651.92C435.71,-655.25 467.36,-658.72 497,-662 519.84,-664.53 543.89,-667.21 567.6,-669.86"/>
<polygon fill="black" stroke="black" stroke-width="8" points="567.02,-676.84 577.74,-670.99 568.58,-662.92 567.02,-676.84"/>
</a>
</g>
</g>
<!-- XGAP2&#45;&gt;EGFE -->
<g id="edge30" class="edge">
<title>XGAP2-&gt;EGFE</title>
<g id="a_edge30"><a xlink:href="bogus" xlink:title=" XGAP2 -&gt; EGFE Min. att. -281%  max: 19%">
<path fill="none" stroke="black" stroke-width="8" d="M405.3,-618.08C435.71,-614.75 467.36,-611.28 497,-608 522.92,-605.13 550.41,-602.07 577.18,-599.07"/>
<polygon fill="black" stroke="black" stroke-width="8" points="578.25,-605.99 587.41,-597.92 576.69,-592.08 578.25,-605.99"/>
</a>
</g>
</g>
<!-- XGAP2&#45;&gt;EGSE -->
<g id="edge23" class="edge">
<title>XGAP2-&gt;EGSE</title>
<g id="a_edge23"><a xlink:href="bogus" xlink:title=" XGAP2 -&gt; EGSE Min. att. -218%  max: 113%">
<path fill="none" stroke="black" stroke-width="8" d="M405.14,-638.69C437.23,-633.92 469.57,-624.66 497,-608 521.65,-593.03 508.52,-569.25 533,-554 548.45,-544.38 565.83,-537.51 583.76,-532.68"/>
<polygon fill="black" stroke="black" stroke-width="8" points="585.75,-539.4 593.78,-530.21 582.39,-525.81 585.75,-539.4"/>
</a>
</g>
</g>
<!-- XGAP2&#45;&gt;EMO -->
<g id="edge10" class="edge">
<title>XGAP2-&gt;EMO</title>
<g id="a_edge10"><a xlink:href="bogus" xlink:title=" XGAP2 -&gt; EMO Min. att. -197%  max: 1131%">
<path fill="none" stroke="black" stroke-width="8" d="M405.3,-644.51C438.38,-639.67 471.1,-628.9 497,-608 536.38,-576.23 493.98,-532.21 533,-500 539.21,-494.87 545.91,-490.43 552.97,-486.61"/>
<polygon fill="black" stroke="black" stroke-width="8" points="556.24,-492.8 562.08,-482.08 550.02,-480.26 556.24,-492.8"/>
</a>
</g>
</g>
<!-- EBFI&#45;&gt;XFS -->
<g id="edge9" class="edge">
<title>EBFI-&gt;XFS</title>
<g id="a_edge9"><a xlink:href="bogus" xlink:title=" EBFI -&gt; XFS Min. att. -77%  max: 2724%">
<path fill="none" stroke="black" stroke-width="8" d="M843.72,-194.06C877.66,-203.23 914.23,-216.87 944,-237 1026.7,-292.93 1090.27,-396.57 1117.29,-445.74"/>
<polygon fill="black" stroke="black" stroke-width="8" points="1111.29,-449.36 1122.21,-454.82 1123.6,-442.7 1111.29,-449.36"/>
</a>
</g>
</g>
</g>
</svg>