<svg xmlns="http://www.w3.org/2000/svg" xmlns:xlink="http://www.w3.org/1999/xlink" width="432pt" height="296pt" viewBox="0.00 0.00 432.00 295.56">
<g id="graph0" class="graph" transform="scale(0.384342 0.384342) rotate(0) translate(4 765)">
<title>TD</title>
<polygon fill="white" stroke="none" points="-4,4 -4,-765 1120,-765 1120,4 -4,4"/>
<text text-anchor="middle" x="558" y="-7.8" font-family="Times New Roman,serif" font-size="14.00">XGDP</text>
<!-- XFS -->
<g id="node1" class="node">
<title>XFS</title>
<g id="a_node1"><a xlink:title="Final sales of gross domestic product, cw 2012$
FRML &lt;Z&gt; XFS = EXP(1.0*(1.0*XFS_AERR + 0.1324*LOG(EBFI/EBFI(-1)) + 0.6849*LOG(ECNIA/ECNIA(-1)) + 0.0429*LOG(EGFE/EGFE(-1)) + 0.0223*LOG(EGFL/EGFL(-1)) + 0.0395*LOG(EGSE/EGSE(-1)) + 0.0691*LOG(EGSL/EGSL(-1)) + 0.0386*LOG(EH/EH(-1)) - 0.1399*LOG(EMO/EMO(-1)) - 0.0101*LOG(EMP/EMP(-1)) + 0.1203*LOG(EX/EX(-1)) + 1.0*LOG(XFS(-1))))   $">
<polygon fill="#63b8ff" stroke="black" points="1028,-761 723,-761 723,-725 1028,-725 1028,-761"/>
<text text-anchor="start" x="729.5" y="-738.8" font-family="Times New Roman,serif" font-size="14.00" fill="blue">XFS:Final sales of gross domestic product, cw 2012$</text>
</a>
</g>
</g>
<!-- PGDP -->
<g id="node2" class="node">
<title>PGDP</title>
<g id="a_node2"><a xlink:title="Price index for GDP, cw
FRML  &lt;&gt; PGDP=100*XGDPN/XGDP+PGDP_AERR  $">
<polygon fill="#63b8ff" stroke="black" points="479,-356 295,-356 295,-320 479,-320 479,-356"/>
<text text-anchor="start" x="301" y="-333.8" font-family="Times New Roman,serif" font-size="14.00" fill="blue">PGDP:Price index for GDP, cw</text>
</a>
</g>
</g>
<!-- XGDPTN -->
<g id="node3" class="node">
<title>XGDPTN</title>
<g id="a_node3"><a xlink:title="Potential GDP, current $
FRML  &lt;&gt; XGDPTN=.01*PGDP*XGDPT+XGDPTN_AERR  $">
<polygon fill="#63b8ff" stroke="black" points="978,-545 773,-545 773,-509 978,-509 978,-545"/>
<text text-anchor="start" x="779.5" y="-522.8" font-family="Times New Roman,serif" font-size="14.00" fill="blue">XGDPTN:Potential GDP, current $</text>
</a>
</g>
</g>
<!-- PGDP&#45;&gt;XGDPTN -->
<g id="edge8" class="edge">
<title>PGDP-&gt;XGDPTN</title>
<g id="a_edge8"><a xlink:href="bogus" xlink:title=" PGDP -&gt; XGDPTN Min. att. -200%  max: 14729%">
<path fill="none" stroke="black" stroke-width="8" d="M408.29,-356.23C448.31,-391 541.66,-466.31 635,-500 675.27,-514.53 721.61,-521.76 762.73,-525.21"/>
<polygon fill="black" stroke="black" stroke-width="8" points="762.28,-532.19 772.79,-525.98 763.35,-518.23 762.28,-532.19"/>
</a>
</g>
</g>
<!-- PXB -->
<g id="node5" class="node">
<title>PXB</title>
<g id="a_node5"><a xlink:title="Price index for business output
FRML  &lt;&gt; PXB=UPXB*PGDP+PXB_AERR  $">
<polygon fill="#63b8ff" stroke="black" points="981,-491 770,-491 770,-455 981,-455 981,-491"/>
<text text-anchor="start" x="776.5" y="-468.8" font-family="Times New Roman,serif" font-size="14.00" fill="blue">PXB:Price index for business output</text>
</a>
</g>
</g>
<!-- PGDP&#45;&gt;PXB -->
<g id="edge20" class="edge">
<title>PGDP-&gt;PXB</title>
<g id="a_edge20"><a xlink:href="bogus" xlink:title=" PGDP -&gt; PXB Min. att. 100%  max: 100%">
<path fill="none" stroke="black" stroke-width="8" d="M420.8,-356.16C467.05,-380.87 554.77,-424.46 635,-446 674.96,-456.72 719.77,-463.19 759.74,-467.09"/>
<polygon fill="black" stroke="black" stroke-width="8" points="759.18,-474.07 769.79,-468.03 760.48,-460.13 759.18,-474.07"/>
</a>
</g>
</g>
<!-- FNIN -->
<g id="node9" class="node">
<title>FNIN</title>
<g id="a_node9"><a xlink:title="Net stock of claims of US residents on the rest of the world, current $
FRML  &lt;&gt; FNIN = 0.25*FCBN + FNIN_AERR + FNIRN + 0.54*FNICN(-1)*LOG(FPC/FPC(-1)) - 0.67*FNICN(-1)*LOG(FPX/FPX(-1)) + 0.06*FNILN(-1)*LOG(FPX/FPX(-1)) - 0.32*FNILN(-1)*LOG(PGDP/PGDP(-1)) + FNIN(-1)  $">
<polygon fill="#63b8ff" stroke="black" points="1090.5,-437 660.5,-437 660.5,-401 1090.5,-401 1090.5,-437"/>
<text text-anchor="start" x="666.5" y="-414.8" font-family="Times New Roman,serif" font-size="14.00" fill="blue">FNIN:Net stock of claims of US residents on the rest of the world, current $</text>
</a>
</g>
</g>
<!-- PGDP&#45;&gt;FNIN -->
<g id="edge17" class="edge">
<title>PGDP-&gt;FNIN</title>
<g id="a_edge17"><a xlink:href="bogus" xlink:title=" PGDP -&gt; FNIN Min. att. -2%  max: 2%">
<path fill="none" stroke="black" d="M461.11,-356.06C510.07,-367.64 576.1,-382.27 635,-392 651.57,-394.74 668.82,-397.28 686.14,-399.62"/>
<polygon fill="black" stroke="black" points="685.97,-403.13 696.35,-400.98 686.9,-396.19 685.97,-403.13"/>
</a>
</g>
</g>
<!-- PIGDP -->
<g id="node10" class="node">
<title>PIGDP</title>
<g id="a_node10"><a xlink:title="Inflation rate, GDP, cw
FRML  &lt;&gt; PIGDP=400*(LOG((PGDP)/(PGDP(-1))))+PIGDP_AERR  $">
<polygon fill="#63b8ff" stroke="black" points="966.5,-383 784.5,-383 784.5,-347 966.5,-347 966.5,-383"/>
<text text-anchor="start" x="790.5" y="-360.8" font-family="Times New Roman,serif" font-size="14.00" fill="blue">PIGDP:Inflation rate, GDP, cw</text>
</a>
</g>
</g>
<!-- PGDP&#45;&gt;PIGDP -->
<g id="edge1" class="edge">
<title>PGDP-&gt;PIGDP</title>
<g id="a_edge1"><a xlink:href="bogus" xlink:title=" PGDP -&gt; PIGDP Min. att. 100%  max: 100%">
<path fill="none" stroke="black" stroke-width="8" d="M479.22,-343.06C563.12,-347.72 687.29,-354.61 774,-359.42"/>
<polygon fill="black" stroke="black" stroke-width="8" points="773.75,-366.42 784.12,-359.98 774.52,-352.44 773.75,-366.42"/>
</a>
</g>
</g>
<!-- GTN -->
<g id="node12" class="node">
<title>GTN</title>
<g id="a_node12"><a xlink:title="Federal government net transfer payments, current $
FRML &lt;Z&gt; GTN=.01*PGDP*GTR +GTN_AERR   $">
<polygon fill="#63b8ff" stroke="black" points="1041,-329 710,-329 710,-293 1041,-293 1041,-329"/>
<text text-anchor="start" x="716.5" y="-306.8" font-family="Times New Roman,serif" font-size="14.00" fill="blue">GTN:Federal government net transfer payments, current $</text>
</a>
</g>
</g>
<!-- PGDP&#45;&gt;GTN -->
<g id="edge7" class="edge">
<title>PGDP-&gt;GTN</title>
<g id="a_edge7"><a xlink:href="bogus" xlink:title=" PGDP -&gt; GTN Min. att. -189%  max: 100%">
<path fill="none" stroke="black" stroke-width="8" d="M479.22,-332.94C541.23,-329.5 625.24,-324.83 699.87,-320.69"/>
<polygon fill="black" stroke="black" stroke-width="8" points="700.27,-327.68 709.86,-320.14 699.49,-313.7 700.27,-327.68"/>
</a>
</g>
</g>
<!-- XGDIN -->
<g id="node16" class="node">
<title>XGDIN</title>
<g id="a_node16"><a xlink:title="Gross domestic income, current $
FRML  &lt;&gt; XGDIN=XGDI*(PGDP/100)+XGDIN_AERR  $">
<polygon fill="#63b8ff" stroke="black" points="998,-275 753,-275 753,-239 998,-239 998,-275"/>
<text text-anchor="start" x="759.5" y="-252.8" font-family="Times New Roman,serif" font-size="14.00" fill="blue">XGDIN:Gross domestic income, current $</text>
</a>
</g>
</g>
<!-- PGDP&#45;&gt;XGDIN -->
<g id="edge15" class="edge">
<title>PGDP-&gt;XGDIN</title>
<g id="a_edge15"><a xlink:href="bogus" xlink:title=" PGDP -&gt; XGDIN Min. att. -50%  max: 95%">
<path fill="none" stroke="black" stroke-width="8" d="M461.11,-319.94C510.07,-308.36 576.1,-293.73 635,-284 669.76,-278.26 707.55,-273.37 742.64,-269.4"/>
<polygon fill="black" stroke="black" stroke-width="8" points="743.78,-276.32 752.94,-268.25 742.23,-262.4 743.78,-276.32"/>
</a>
</g>
</g>
<!-- XBN -->
<g id="node19" class="node">
<title>XBN</title>
<g id="a_node19"><a xlink:title="Business output (BEA definition), current $
FRML  &lt;&gt; XBN=PXB/100*XBO+XGDPN-XGDO*PGDP/100+XBN_AERR  $">
<polygon fill="#63b8ff" stroke="black" points="1017,-221 734,-221 734,-185 1017,-185 1017,-221"/>
<text text-anchor="start" x="740.5" y="-198.8" font-family="Times New Roman,serif" font-size="14.00" fill="blue">XBN:Business output (BEA definition), current $</text>
</a>
</g>
</g>
<!-- PGDP&#45;&gt;XBN -->
<g id="edge10" class="edge">
<title>PGDP-&gt;XBN</title>
<g id="a_edge10"><a xlink:href="bogus" xlink:title=" PGDP -&gt; XBN Min. att. -123%  max: 44%">
<path fill="none" stroke="black" stroke-width="8" d="M420.8,-319.84C467.05,-295.13 554.77,-251.54 635,-230 663.32,-222.4 694.08,-216.94 723.83,-213.01"/>
<polygon fill="black" stroke="black" stroke-width="8" points="724.83,-219.94 733.87,-211.74 723.07,-206.05 724.83,-219.94"/>
</a>
</g>
</g>
<!-- EMP -->
<g id="node4" class="node">
<title>EMP</title>
<g id="a_node4"><a xlink:title="Petroleum imports, cw 2012$
FRML &lt;Z&gt; EMP = XGDP*(EMPTRT**1.0*(PMP*PXB(-1)/(PXB*PMP(-1)))**0.048026*EXP(1.0*EMP_AERR + 0.022115*XGAP2(-1)))   $">
<polygon fill="#63b8ff" stroke="black" points="491,-653 283,-653 283,-617 491,-617 491,-653"/>
<text text-anchor="start" x="289" y="-630.8" font-family="Times New Roman,serif" font-size="14.00" fill="blue">EMP:Petroleum imports, cw 2012$</text>
</a>
</g>
</g>
<!-- EMP&#45;&gt;XFS -->
<g id="edge19" class="edge">
<title>EMP-&gt;XFS</title>
<g id="a_edge19"><a xlink:href="bogus" xlink:title=" EMP -&gt; XFS Min. att. -2%  max: 0%">
<path fill="none" stroke="black" d="M433.65,-653.1C482.64,-671.78 563.13,-700.34 635,-716 660.01,-721.45 686.75,-725.84 712.96,-729.36"/>
<polygon fill="black" stroke="black" points="712.61,-732.84 722.97,-730.67 713.51,-725.9 712.61,-732.84"/>
</a>
</g>
</g>
<!-- EMPN -->
<g id="node14" class="node">
<title>EMPN</title>
<g id="a_node14"><a xlink:title="Petroleum imports, current $
FRML  &lt;&gt; EMPN=.01*PMP*EMP+EMPN_AERR  $">
<polygon fill="#63b8ff" stroke="black" points="982,-707 769,-707 769,-671 982,-671 982,-707"/>
<text text-anchor="start" x="775.5" y="-684.8" font-family="Times New Roman,serif" font-size="14.00" fill="blue">EMPN:Petroleum imports, current $</text>
</a>
</g>
</g>
<!-- EMP&#45;&gt;EMPN -->
<g id="edge2" class="edge">
<title>EMP-&gt;EMPN</title>
<g id="a_edge2"><a xlink:href="bogus" xlink:title=" EMP -&gt; EMPN Min. att. 16%  max: 150%">
<path fill="none" stroke="black" stroke-width="8" d="M491.17,-646.45C569.55,-655.15 677.35,-667.12 758.67,-676.14"/>
<polygon fill="black" stroke="black" stroke-width="8" points="758.24,-683.14 768.96,-677.28 759.79,-669.22 758.24,-683.14"/>
</a>
</g>
</g>
<!-- EM -->
<g id="node15" class="node">
<title>EM</title>
<g id="a_node15"><a xlink:title="Imports of goods and services, cw 2012$
FRML  &lt;&gt; EM = EXP(1.0*(1.0*EM_AERR*EMN*EMN(-1) + 1.0*EMN*EMN(-1)*LOG(EM(-1)) + 0.5*EMN*EMON(-1)*LOG(EMO/EMO(-1)) + 0.5*EMN*EMPN(-1)*LOG(EMP/EMP(-1)) + 0.5*EMON*EMN(-1)*LOG(EMO/EMO(-1)) + 0.5*EMPN*EMN(-1)*LOG(EMP/EMP(-1)))/(EMN*EMN(-1)))  $">
<polygon fill="#63b8ff" stroke="black" points="1006.5,-653 744.5,-653 744.5,-617 1006.5,-617 1006.5,-653"/>
<text text-anchor="start" x="750.5" y="-630.8" font-family="Times New Roman,serif" font-size="14.00" fill="blue">EM:Imports of goods and services, cw 2012$</text>
</a>
</g>
</g>
<!-- EMP&#45;&gt;EM -->
<g id="edge4" class="edge">
<title>EMP-&gt;EM</title>
<g id="a_edge4"><a xlink:href="bogus" xlink:title=" EMP -&gt; EM Min. att. -0%  max: 6%">
<path fill="none" stroke="black" d="M491.17,-635C561.78,-635 656.27,-635 733.76,-635"/>
<polygon fill="black" stroke="black" points="734.1,-638.5 744.1,-635 734.1,-631.5 734.1,-638.5"/>
</a>
</g>
</g>
<!-- HGEMP -->
<g id="node20" class="node">
<title>HGEMP</title>
<g id="a_node20"><a xlink:title="Petroleum imports, cw 2012$, trend growth rate
FRML &lt;Z&gt; HGEMP=.9*HGEMP(-1)+.1*400*LOG(EMP/EMP(-1))+HGEMP_AERR   $">
<polygon fill="#63b8ff" stroke="black" points="1039.5,-599 711.5,-599 711.5,-563 1039.5,-563 1039.5,-599"/>
<text text-anchor="start" x="717.5" y="-576.8" font-family="Times New Roman,serif" font-size="14.00" fill="blue">HGEMP:Petroleum imports, cw 2012$, trend growth rate</text>
</a>
</g>
</g>
<!-- EMP&#45;&gt;HGEMP -->
<g id="edge16" class="edge">
<title>EMP-&gt;HGEMP</title>
<g id="a_edge16"><a xlink:href="bogus" xlink:title=" EMP -&gt; HGEMP Min. att. -0%  max: 101%">
<path fill="none" stroke="black" stroke-width="8" d="M491.17,-623.55C552.32,-616.76 631.38,-607.99 701.8,-600.17"/>
<polygon fill="black" stroke="black" stroke-width="8" points="702.96,-607.08 712.12,-599.02 701.41,-593.17 702.96,-607.08"/>
</a>
</g>
</g>
<!-- YHSHR -->
<g id="node6" class="node">
<title>YHSHR</title>
<g id="a_node6"><a xlink:title="Income, household, total, ratio to XGDP (real after-tax)
FRML  &lt;&gt; YHSHR=YH/XGDP+YHSHR_AERR  $">
<polygon fill="#63b8ff" stroke="black" points="570.5,-140 203.5,-140 203.5,-104 570.5,-104 570.5,-140"/>
<text text-anchor="start" x="210" y="-117.8" font-family="Times New Roman,serif" font-size="14.00" fill="blue">YHSHR:Income, household, total, ratio to XGDP (real after-tax)</text>
</a>
</g>
</g>
<!-- YHGAP -->
<g id="node8" class="node">
<title>YHGAP</title>
<g id="a_node8"><a xlink:title="Income, household, total, ratio to XGDP, cyclical component (real after-tax)
FRML  &lt;&gt; YHGAP=100*LOG(YHSHR/ZYHST) +YHGAP_AERR  $">
<polygon fill="#63b8ff" stroke="black" points="1116,-59 635,-59 635,-23 1116,-23 1116,-59"/>
<text text-anchor="start" x="641.5" y="-36.8" font-family="Times New Roman,serif" font-size="14.00" fill="blue">YHGAP:Income, household, total, ratio to XGDP, cyclical component (real after-tax)</text>
</a>
</g>
</g>
<!-- YHSHR&#45;&gt;YHGAP -->
<g id="edge5" class="edge">
<title>YHSHR-&gt;YHGAP</title>
<g id="a_edge5"><a xlink:href="bogus" xlink:title=" YHSHR -&gt; YHGAP Min. att. 93%  max: 210%">
<path fill="none" stroke="black" stroke-width="8" d="M570.55,-104.76C580.3,-101.95 589.85,-98.71 599,-95 617.53,-87.48 616.41,-75.38 635,-68 640.42,-65.85 645.96,-63.85 651.59,-62"/>
<polygon fill="black" stroke="black" stroke-width="8" points="653.68,-68.68 661.14,-59.01 649.51,-55.31 653.68,-68.68"/>
</a>
</g>
</g>
<!-- XGDP -->
<g id="node7" class="node">
<title>XGDP</title>
<g id="a_node7"><a xlink:title="GDP, cw 2012$
FRML &lt;Z&gt; XGDP = EXP(-1.2513*(-0.799168864381044*XGDP_AERR - 0.500599376648286*LOG(KI) - 0.797970111084472*LOG(XFS/XFS(-1)) - 0.499400623351714*LOG(KI(-2)) + 1.0*LOG(KI(-1)) - 0.799168864381044*LOG(XGDP(-1))))   $">
<polygon fill="red" stroke="black" points="139,-194 0,-194 0,-158 139,-158 139,-194"/>
<text text-anchor="start" x="6.5" y="-171.8" font-family="Times New Roman,serif" font-size="14.00" fill="blue">XGDP:GDP, cw 2012$</text>
</a>
</g>
</g>
<!-- XGDP&#45;&gt;PGDP -->
<g id="edge11" class="edge">
<title>XGDP-&gt;PGDP</title>
<g id="a_edge11"><a xlink:href="bogus" xlink:title=" XGDP -&gt; PGDP Min. att. -9885%  max: 19460%">
<path fill="none" stroke="black" stroke-width="8" d="M105.77,-194.11C163.55,-223.78 278.25,-282.68 341.52,-315.16"/>
<polygon fill="black" stroke="black" stroke-width="8" points="338.38,-321.42 350.47,-319.76 344.77,-308.96 338.38,-321.42"/>
</a>
</g>
</g>
<!-- XGDP&#45;&gt;EMP -->
<g id="edge3" class="edge">
<title>XGDP-&gt;EMP</title>
<g id="a_edge3"><a xlink:href="bogus" xlink:title=" XGDP -&gt; EMP Min. att. 35%  max: 109%">
<path fill="none" stroke="black" stroke-width="8" d="M79.25,-194C96.16,-228.27 135.19,-304.79 175,-365 237.22,-459.1 323.02,-561.93 363.34,-608.93"/>
<polygon fill="black" stroke="black" stroke-width="8" points="358.27,-613.77 370.1,-616.78 368.88,-604.63 358.27,-613.77"/>
</a>
</g>
</g>
<!-- XGDP&#45;&gt;YHSHR -->
<g id="edge14" class="edge">
<title>XGDP-&gt;YHSHR</title>
<g id="a_edge14"><a xlink:href="bogus" xlink:title=" XGDP -&gt; YHSHR Min. att. -221%  max: 285%">
<path fill="none" stroke="black" stroke-width="8" d="M135.16,-157.95C148.27,-154.66 162.03,-151.5 175,-149 188.92,-146.32 203.41,-143.84 217.99,-141.55"/>
<polygon fill="black" stroke="black" stroke-width="8" points="219.27,-148.44 228.09,-140 217.15,-134.6 219.27,-148.44"/>
</a>
</g>
</g>
<!-- XGDO -->
<g id="node13" class="node">
<title>XGDO</title>
<g id="a_node13"><a xlink:title="Gross domestic product, adjusted for measurement error, cw 2012$
FRML  &lt;&gt; XGDO=XGDP/MEP+XGDO_AERR  $">
<polygon fill="#63b8ff" stroke="black" points="599,-194 175,-194 175,-158 599,-158 599,-194"/>
<text text-anchor="start" x="181" y="-171.8" font-family="Times New Roman,serif" font-size="14.00" fill="blue">XGDO:Gross domestic product, adjusted for measurement error, cw 2012$</text>
</a>
</g>
</g>
<!-- XGDP&#45;&gt;XGDO -->
<g id="edge12" class="edge">
<title>XGDP-&gt;XGDO</title>
<g id="a_edge12"><a xlink:href="bogus" xlink:title=" XGDP -&gt; XGDO Min. att. 100%  max: 100%">
<path fill="none" stroke="black" stroke-width="8" d="M139.35,-176C147.38,-176 155.88,-176 164.69,-176"/>
<polygon fill="black" stroke="black" stroke-width="8" points="164.76,-183 174.76,-176 164.76,-169 164.76,-183"/>
</a>
</g>
</g>
<!-- HGGDP -->
<g id="node18" class="node">
<title>HGGDP</title>
<g id="a_node18"><a xlink:title="Growth rate of GDP, cw 2012$ (annual rate)
FRML  &lt;&gt; HGGDP=400*(LOG((XGDP)/(XGDP(-1))))+HGGDP_AERR  $">
<polygon fill="#63b8ff" stroke="black" points="540,-86 234,-86 234,-50 540,-50 540,-86"/>
<text text-anchor="start" x="240" y="-63.8" font-family="Times New Roman,serif" font-size="14.00" fill="blue">HGGDP:Growth rate of GDP, cw 2012$ (annual rate)</text>
</a>
</g>
</g>
<!-- XGDP&#45;&gt;HGGDP -->
<g id="edge9" class="edge">
<title>XGDP-&gt;HGGDP</title>
<g id="a_edge9"><a xlink:href="bogus" xlink:title=" XGDP -&gt; HGGDP Min. att. 100%  max: 100%">
<path fill="none" stroke="black" stroke-width="8" d="M87.82,-157.73C107.12,-138.61 140.23,-109.43 175,-95 190.47,-88.58 207.08,-83.59 223.94,-79.72"/>
<polygon fill="black" stroke="black" stroke-width="8" points="225.59,-86.52 233.89,-77.57 222.64,-72.84 225.59,-86.52"/>
</a>
</g>
</g>
<!-- XGDI -->
<g id="node11" class="node">
<title>XGDI</title>
<g id="a_node11"><a xlink:title="Gross domestic income, cw 2012$
FRML  &lt;&gt; XGDI=XGDO*MEI+XGDI_AERR  $">
<polygon fill="#63b8ff" stroke="black" points="995.5,-167 755.5,-167 755.5,-131 995.5,-131 995.5,-167"/>
<text text-anchor="start" x="761.5" y="-144.8" font-family="Times New Roman,serif" font-size="14.00" fill="blue">XGDI:Gross domestic income, cw 2012$</text>
</a>
</g>
</g>
<!-- XGDO&#45;&gt;XGDI -->
<g id="edge18" class="edge">
<title>XGDO-&gt;XGDI</title>
<g id="a_edge18"><a xlink:href="bogus" xlink:title=" XGDO -&gt; XGDI Min. att. 100%  max: 100%">
<path fill="none" stroke="black" stroke-width="8" d="M599.26,-164.28C648.97,-161.52 700.49,-158.66 745.33,-156.17"/>
<polygon fill="black" stroke="black" stroke-width="8" points="745.78,-163.15 755.38,-155.61 745.01,-149.18 745.78,-163.15"/>
</a>
</g>
</g>
<!-- XGAP2 -->
<g id="node17" class="node">
<title>XGAP2</title>
<g id="a_node17"><a xlink:title="Output gap for GDP (100*log(actual/potential)
FRML  &lt;&gt; XGAP2=100*LOG(XGDO/XGDPT)+XGAP2_AERR  $">
<polygon fill="#63b8ff" stroke="black" points="1033.5,-113 717.5,-113 717.5,-77 1033.5,-77 1033.5,-113"/>
<text text-anchor="start" x="723.5" y="-90.8" font-family="Times New Roman,serif" font-size="14.00" fill="blue">XGAP2:Output gap for GDP (100*log(actual/potential)</text>
</a>
</g>
</g>
<!-- XGDO&#45;&gt;XGAP2 -->
<g id="edge13" class="edge">
<title>XGDO-&gt;XGAP2</title>
<g id="a_edge13"><a xlink:href="bogus" xlink:title=" XGDO -&gt; XGAP2 Min. att. 94%  max: 132%">
<path fill="none" stroke="black" stroke-width="8" d="M573.28,-157.96C582.08,-155.34 590.7,-152.37 599,-149 617.53,-141.48 616.41,-129.38 635,-122 657.75,-112.97 682.6,-106.66 707.41,-102.29"/>
<polygon fill="black" stroke="black" stroke-width="8" points="708.56,-109.2 717.28,-100.65 706.27,-95.38 708.56,-109.2"/>
</a>
</g>
</g>
<!-- XGDO&#45;&gt;XBN -->
<g id="edge6" class="edge">
<title>XGDO-&gt;XBN</title>
<g id="a_edge6"><a xlink:href="bogus" xlink:title=" XGDO -&gt; XBN Min. att. -131%  max: -6%">
<path fill="none" stroke="black" stroke-width="8" d="M599.26,-187.72C641.14,-190.05 684.29,-192.44 723.66,-194.63"/>
<polygon fill="black" stroke="black" stroke-width="8" points="723.48,-201.63 733.85,-195.19 724.25,-187.65 723.48,-201.63"/>
</a>
</g>
</g>
</g>
</svg>