<svg xmlns="http://www.w3.org/2000/svg" xmlns:xlink="http://www.w3.org/1999/xlink" width="1440pt" height="590pt" viewBox="0.00 0.00 1440.00 589.69">
<g id="graph0" class="graph" transform="scale(0.824742 0.824742) rotate(0) translate(4 711)">
<title>TD</title>
<polygon fill="white" stroke="transparent" points="-4,4 -4,-711 1742,-711 1742,4 -4,4"/>
<text text-anchor="middle" x="869" y="-7.8" font-family="Times New Roman,serif" font-size="14.00">XGDP</text>
<!-- EX -->
<g id="node1" class="node">
<title>EX</title>
<g id="a_node1"><a xlink:title="Exports of goods and services, cw 2012$
FRML &lt;Z&gt; EX = EX(-1)*EXP(EX_A+EX_AERR+ (0.8398526775741691+-0.1077278728634364*LOG(EX(-1)*(PXR(-1)*PXP(-1)*FPX(-1))/(FGDP(-1)*FPC(-1)))+1.481642245331822*(FXGAP-FXGAP(-1))/100+1.027448537481708*(FXGAP(-1)-FXGAP(-2))/100+1.015857050459678*DDOCKX) ) $">
<polygon fill="#63b8ff" stroke="black" points="868,-545 609,-545 609,-509 868,-509 868,-545"/>
<text text-anchor="start" x="615.5" y="-522.8" font-family="Times New Roman,serif" font-size="14.00" fill="blue">EX:Exports of goods and services, cw 2012$</text>
</a>
</g>
</g>
<!-- XFS -->
<g id="node19" class="node">
<title>XFS</title>
<g id="a_node19"><a xlink:title="Final sales of gross domestic product, cw 2012$
FRML &lt;Z&gt; XFS = EXP(XFS_A+XFS_AERR+ (LOG(XFS(-1))+0.6849*LOG(ECNIA/ECNIA(-1))+0.0386*LOG(EH/EH(-1))+0.1324*LOG(EBFI/EBFI(-1))+0.0429*LOG(EGFE/EGFE(-1))+0.0223*LOG(EGFL/EGFL(-1))+0.0395*LOG(EGSE/EGSE(-1))+0.0691*LOG(EGSL/EGSL(-1))+0.1203*LOG(EX/EX(-1))+-0.1399*LOG(EMO/EMO(-1))+-0.0101*LOG(EMP/EMP(-1))) ) $">
<polygon fill="#63b8ff" stroke="black" points="1285,-329 980,-329 980,-293 1285,-293 1285,-329"/>
<text text-anchor="start" x="986.5" y="-306.8" font-family="Times New Roman,serif" font-size="14.00" fill="blue">XFS:Final sales of gross domestic product, cw 2012$</text>
</a>
</g>
</g>
<!-- EX&#45;&gt;XFS -->
<g id="edge18" class="edge">
<title>EX-&gt;XFS</title>
<g id="a_edge18"><a xlink:href="bogus" xlink:title=" EX -&gt; XFS Min. att. -626%  max: 56%">
<path fill="none" stroke="black" stroke-width="8" d="M868.23,-523.05C894.25,-518.7 920.74,-511.53 944,-500 1020.74,-461.95 1084.63,-379.95 1114.06,-337.57"/>
<polygon fill="black" stroke="black" stroke-width="8" points="1119.95,-341.36 1119.81,-329.15 1108.39,-333.46 1119.95,-341.36"/>
</a>
</g>
</g>
<!-- EGFET -->
<g id="node2" class="node">
<title>EGFET</title>
<g id="a_node2"><a xlink:title="Federal Government expenditures, CW 2012$, Trend
FRML &lt;Z&gt; EGFET = EGFET(-1)*EXP(EGFET_A+EGFET_AERR+ (-0.3101+-0.1*LOG(.01*PEGFR(-1)*PXP(-1)*EGFET(-1)/XGDPTN(-1))+1*(HGGDPT+HGGDPT(-1)+HGGDPT(-2)+HGGDPT(-3))/1600) ) $">
<polygon fill="#63b8ff" stroke="black" points="423,-329 74,-329 74,-293 423,-293 423,-329"/>
<text text-anchor="start" x="80.5" y="-306.8" font-family="Times New Roman,serif" font-size="14.00" fill="blue">EGFET:Federal Government expenditures, CW 2012$, Trend</text>
</a>
</g>
</g>
<!-- EGFE -->
<g id="node25" class="node">
<title>EGFE</title>
<g id="a_node25"><a xlink:title="Federal Government expenditures, CW 2012$
FRML &lt;Z&gt; EGFE = EGFE(-1)*EXP(EGFE_A+EGFE_AERR+ (-0.0008045327442607825+-0.1204156945139518*LOG(EGFE(-1)/EGFET(-1))+-0.153308131863314*((LOG(EGFE(-1)))-(LOG(EGFE(-2))))+-0.1035937599294917*((LOG(EGFE(-2)))-(LOG(EGFE(-3))))+1.50381543495264*((LOG(EGFET))-(LOG(EGFET(-1))))+-0.0009835524480447814*XGAP2+0.0007256812123007961*XGAP2(-1)) ) $">
<polygon fill="#63b8ff" stroke="black" points="889.5,-329 587.5,-329 587.5,-293 889.5,-293 889.5,-329"/>
<text text-anchor="start" x="593.5" y="-306.8" font-family="Times New Roman,serif" font-size="14.00" fill="blue">EGFE:Federal Government expenditures, CW 2012$</text>
</a>
</g>
</g>
<!-- EGFET&#45;&gt;EGFE -->
<g id="edge7" class="edge">
<title>EGFET-&gt;EGFE</title>
<g id="a_edge7"><a xlink:href="bogus" xlink:title=" EGFET -&gt; EGFE Min. att. -1231%  max: 263%">
<path fill="none" stroke="black" stroke-width="8" d="M423.27,-311C473.48,-311 528.03,-311 577.37,-311"/>
<polygon fill="black" stroke="black" stroke-width="8" points="577.49,-318 587.49,-311 577.49,-304 577.49,-318"/>
</a>
</g>
</g>
<!-- QEBFI -->
<g id="node3" class="node">
<title>QEBFI</title>
<g id="a_node3"><a xlink:title="Desired level of investment in business investment
FRML  &lt;&gt; QEBFI = QEBFI_A+QEBFI_AERR+ (XB*VBFI*(HXBT/100-.01*HGPBFIR+JRBFI))  $">
<polygon fill="#63b8ff" stroke="black" points="415.5,-653 81.5,-653 81.5,-617 415.5,-617 415.5,-653"/>
<text text-anchor="start" x="87.5" y="-630.8" font-family="Times New Roman,serif" font-size="14.00" fill="blue">QEBFI:Desired level of investment in business investment</text>
</a>
</g>
</g>
<!-- EBFI -->
<g id="node26" class="node">
<title>EBFI</title>
<g id="a_node26"><a xlink:title="Business Fixed Investment, cw 2012$
FRML &lt;Z&gt; EBFI = EBFI(-1)*EXP(EBFI_A+EBFI_AERR+ ((0.07358150979200171*(LOG(QEBFI(-1)/EBFI(-1)))+0.5222641043182303*((LOG(EBFI(-1)))-(LOG(EBFI(-2))))+0.3022170849291267*((LOG(EBFI(-2)))-(LOG(EBFI(-3))))+1*ZEBFI)*(1-0.3835146156808873)+0.3835146156808873*(((LOG(XB(-1)))-(LOG(XB(-2))))-HGPBFIR(-1)/400)) ) $">
<polygon fill="#63b8ff" stroke="black" points="865,-626 612,-626 612,-590 865,-590 865,-626"/>
<text text-anchor="start" x="618.5" y="-603.8" font-family="Times New Roman,serif" font-size="14.00" fill="blue">EBFI:Business Fixed Investment, cw 2012$</text>
</a>
</g>
</g>
<!-- QEBFI&#45;&gt;EBFI -->
<g id="edge16" class="edge">
<title>QEBFI-&gt;EBFI</title>
<g id="a_edge16"><a xlink:href="bogus" xlink:title=" QEBFI -&gt; EBFI Min. att. -28%  max: 22%">
<path fill="none" stroke="black" stroke-width="2.84" d="M415.74,-625.8C476.32,-622.45 544.04,-618.7 601.67,-615.52"/>
<polygon fill="black" stroke="black" stroke-width="2.84" points="602.15,-618.99 611.94,-614.95 601.76,-612 602.15,-618.99"/>
</a>
</g>
</g>
<!-- EGSL -->
<g id="node4" class="node">
<title>EGSL</title>
<g id="a_node4"><a xlink:title="S&amp;L government employee compensation, cw 2012$
FRML &lt;Z&gt; EGSL = EGSL(-1)*EXP(EGSL_A+EGSL_AERR+ (0.0003682770277494773+-0.1114151303946257*LOG(EGSL(-1)/EGSLT(-1))+0.1562467669415557*((LOG(EGSL(-1)))-(LOG(EGSL(-2))))+0.02155815410956755*((LOG(EGSL(-2)))-(LOG(EGSL(-3))))+0.7449614274122569*((LOG(EGSLT))-(LOG(EGSLT(-1))))+-0.001432565493088224*XGAP2+0.001765173794440745*XGAP2(-1)) ) $">
<polygon fill="#63b8ff" stroke="black" points="910,-491 567,-491 567,-455 910,-455 910,-491"/>
<text text-anchor="start" x="573.5" y="-468.8" font-family="Times New Roman,serif" font-size="14.00" fill="blue">EGSL:S&amp;L government employee compensation, cw 2012$</text>
</a>
</g>
</g>
<!-- EGSL&#45;&gt;XFS -->
<g id="edge31" class="edge">
<title>EGSL-&gt;XFS</title>
<g id="a_edge31"><a xlink:href="bogus" xlink:title=" EGSL -&gt; XFS Min. att. -487%  max: 75%">
<path fill="none" stroke="black" stroke-width="8" d="M910.21,-457.01C921.81,-453.93 933.18,-450.29 944,-446 1008.55,-420.39 1071.54,-367.68 1105.56,-336.24"/>
<polygon fill="black" stroke="black" stroke-width="8" points="1110.66,-341.05 1113.17,-329.11 1101.09,-330.83 1110.66,-341.05"/>
</a>
</g>
</g>
<!-- EGFL -->
<g id="node5" class="node">
<title>EGFL</title>
<g id="a_node5"><a xlink:title="Federal government employee compensation, cw 2012$
FRML &lt;Z&gt; EGFL = EGFL(-1)*EXP(EGFL_A+EGFL_AERR+ (0.0002417378554669395+-0.0795584254267964*LOG(EGFL(-1)/EGFLT(-1))+0.2415347480637823*((LOG(EGFL(-1)))-(LOG(EGFL(-2))))+-0.06133379374138964*((LOG(EGFL(-2)))-(LOG(EGFL(-3))))+1.206872311101357*((LOG(EGFLT))-(LOG(EGFLT(-1))))+-0.002507254010777311*XGAP2+0.002350674896424264*XGAP2(-1)) ) $">
<polygon fill="#63b8ff" stroke="black" points="917,-275 560,-275 560,-239 917,-239 917,-275"/>
<text text-anchor="start" x="566.5" y="-252.8" font-family="Times New Roman,serif" font-size="14.00" fill="blue">EGFL:Federal government employee compensation, cw 2012$</text>
</a>
</g>
</g>
<!-- EGFL&#45;&gt;XFS -->
<g id="edge22" class="edge">
<title>EGFL-&gt;XFS</title>
<g id="a_edge22"><a xlink:href="bogus" xlink:title=" EGFL -&gt; XFS Min. att. -131%  max: 12%">
<path fill="none" stroke="black" stroke-width="8" d="M877.58,-275.01C899.8,-277.97 922.54,-281.04 944,-284 961.39,-286.4 979.67,-288.97 997.73,-291.54"/>
<polygon fill="black" stroke="black" stroke-width="8" points="996.84,-298.48 1007.73,-292.97 998.81,-284.63 996.84,-298.48"/>
</a>
</g>
</g>
<!-- XGDPN -->
<g id="node6" class="node">
<title>XGDPN</title>
<g id="a_node6"><a xlink:title="GDP, current $
FRML  &lt;&gt; XGDPN = XGDPN_A+XGDPN_AERR+ (XPN+EIN-EMN+EGFLN+EGSLN)  $">
<polygon fill="#63b8ff" stroke="black" points="321,-59 176,-59 176,-23 321,-23 321,-59"/>
<text text-anchor="start" x="182.5" y="-36.8" font-family="Times New Roman,serif" font-size="14.00" fill="blue">XGDPN:GDP, current $</text>
</a>
</g>
</g>
<!-- EMO -->
<g id="node23" class="node">
<title>EMO</title>
<g id="a_node23"><a xlink:title="Imports of goods and services ex. petroleum, cw 2012$
FRML &lt;Z&gt; EMO = EMO(-1)*EXP(EMO_A+EMO_AERR+ (0.01620546980581163+-0.1807104996815989*LOG(EMO(-1)*(PMO(-1)/100)/(UEMOT(-1)*XGDPN(-1)))+1.358186927724613*(XGAP2-XGAP2(-1))/100+1.637077186962015*(XGAP2(-1)-XGAP2(-2))/100+0.3188307105827468*LOG(DDOCKM)+0.4046942138546456*((LOG(DDOCKM))-(LOG(DDOCKM(-1))))) ) $">
<polygon fill="#63b8ff" stroke="black" points="914.5,-113 562.5,-113 562.5,-77 914.5,-77 914.5,-113"/>
<text text-anchor="start" x="568.5" y="-90.8" font-family="Times New Roman,serif" font-size="14.00" fill="blue">EMO:Imports of goods and services ex. petroleum, cw 2012$</text>
</a>
</g>
</g>
<!-- XGDPN&#45;&gt;EMO -->
<g id="edge6" class="edge">
<title>XGDPN-&gt;EMO</title>
<g id="a_edge6"><a xlink:href="bogus" xlink:title=" XGDPN -&gt; EMO Min. att. -1014%  max: 75%">
<path fill="none" stroke="black" stroke-width="8" d="M321.26,-48.77C370.67,-54.13 437.82,-61.45 497,-68 519.84,-70.53 543.89,-73.21 567.6,-75.86"/>
<polygon fill="black" stroke="black" stroke-width="8" points="567.02,-82.84 577.74,-76.99 568.58,-68.92 567.02,-82.84"/>
</a>
</g>
</g>
<!-- KI -->
<g id="node7" class="node">
<title>KI</title>
<g id="a_node7"><a xlink:title="Stock of private inventories, cw 2012$
FRML &lt;Z&gt; KI = KI(-1)*EXP(KI_A+KI_AERR+ (-0.00120624751419073+0.01469206254903638*(LOG(QKIR)-LOG(KI(-1)/XFS(-1)))+0.4567399290262596*(((LOG(KI(-1)))-(LOG(KI(-2))))--0.00120624751419073)+0.236031927797704*((LOG(XFS(-1)))-(LOG(XFS(-2))))+0.3072281431760363*((LOG(XFS(-2)))-(LOG(XFS(-3))))) ) $">
<polygon fill="#63b8ff" stroke="black" points="1563,-283 1321,-283 1321,-247 1563,-247 1563,-283"/>
<text text-anchor="start" x="1327" y="-260.8" font-family="Times New Roman,serif" font-size="14.00" fill="blue">KI:Stock of private inventories, cw 2012$</text>
</a>
</g>
</g>
<!-- XGDP -->
<g id="node12" class="node">
<title>XGDP</title>
<g id="a_node12"><a xlink:title="GDP, cw 2012$
FRML &lt;Z&gt; XGDP = EXP(XGDP_A+XGDP_AERR+ (LOG(XGDP(-1))+0.9985*LOG(XFS/XFS(-1))+0.6264*(LOG(KI)-LOG(KI(-1)))+-0.6249*(LOG(KI(-1))-LOG(KI(-2)))) ) $">
<polygon fill="red" stroke="black" points="1738,-283 1599,-283 1599,-247 1738,-247 1738,-283"/>
<text text-anchor="start" x="1605.5" y="-260.8" font-family="Times New Roman,serif" font-size="14.00" fill="blue">XGDP:GDP, cw 2012$</text>
</a>
</g>
</g>
<!-- KI&#45;&gt;XGDP -->
<g id="edge11" class="edge">
<title>KI-&gt;XGDP</title>
<g id="a_edge11"><a xlink:href="bogus" xlink:title=" KI -&gt; XGDP Min. att. -88%  max: 189%">
<path fill="none" stroke="black" stroke-width="8" d="M1563.14,-265C1571.81,-265 1580.42,-265 1588.75,-265"/>
<polygon fill="black" stroke="black" stroke-width="8" points="1588.77,-272 1598.77,-265 1588.77,-258 1588.77,-272"/>
</a>
</g>
</g>
<!-- FXGAP -->
<g id="node8" class="node">
<title>FXGAP</title>
<g id="a_node8"><a xlink:title="Foreign output gap (world, bilateral export weights)
FRML &lt;Z&gt; FXGAP = FXGAP_A+FXGAP_AERR+ (+1.290723676327916*FXGAP(-1)+-0.4680091148746248*FXGAP(-2)+-0.05*((FRS10(-1)-(FPI10(-1)+FPI10(-2)+FPI10(-3)+FPI10(-4))/4+FRS10(-2)-(FPI10(-2)+FPI10(-3)+FPI10(-4)+FPI10(-5))/4+FRS10(-3)-(FPI10(-3)+FPI10(-4)+FPI10(-5)+FPI10(-6))/4)/3-FRSTAR)+0.03734559019022718*XGAP2(-1))  $">
<polygon fill="#63b8ff" stroke="black" points="420.5,-545 76.5,-545 76.5,-509 420.5,-509 420.5,-545"/>
<text text-anchor="start" x="82.5" y="-522.8" font-family="Times New Roman,serif" font-size="14.00" fill="blue">FXGAP:Foreign output gap (world, bilateral export weights)</text>
</a>
</g>
</g>
<!-- FXGAP&#45;&gt;EX -->
<g id="edge9" class="edge">
<title>FXGAP-&gt;EX</title>
<g id="a_edge9"><a xlink:href="bogus" xlink:title=" FXGAP -&gt; EX Min. att. -96%  max: 199%">
<path fill="none" stroke="black" stroke-width="8" d="M420.52,-527C478.72,-527 543.01,-527 598.4,-527"/>
<polygon fill="black" stroke="black" stroke-width="8" points="598.63,-534 608.63,-527 598.63,-520 598.63,-534"/>
</a>
</g>
</g>
<!-- EGFLT -->
<g id="node9" class="node">
<title>EGFLT</title>
<g id="a_node9"><a xlink:title="Federal government employee compensation, cw 2012$, trend
FRML &lt;Z&gt; EGFLT = EGFLT(-1)*EXP(EGFLT_A+EGFLT_AERR+ (-.375978+-.1*LOG(.01*PGFL(-1)*EGFLT(-1)/XGDPTN(-1))+1.0*(HGGDPT+HGGDPT(-1)+HGGDPT(-2)+HGGDPT(-3))/1600) ) $">
<polygon fill="#63b8ff" stroke="black" points="448,-275 49,-275 49,-239 448,-239 448,-275"/>
<text text-anchor="start" x="55.5" y="-252.8" font-family="Times New Roman,serif" font-size="14.00" fill="blue">EGFLT:Federal government employee compensation, cw 2012$, trend</text>
</a>
</g>
</g>
<!-- EGFLT&#45;&gt;EGFL -->
<g id="edge28" class="edge">
<title>EGFLT-&gt;EGFL</title>
<g id="a_edge28"><a xlink:href="bogus" xlink:title=" EGFLT -&gt; EGFL Min. att. -3%  max: 146%">
<path fill="none" stroke="black" stroke-width="8" d="M448.34,-257C481.8,-257 516.43,-257 549.6,-257"/>
<polygon fill="black" stroke="black" stroke-width="8" points="549.85,-264 559.85,-257 549.85,-250 549.85,-264"/>
</a>
</g>
</g>
<!-- ECNIA -->
<g id="node10" class="node">
<title>ECNIA</title>
<g id="a_node10"><a xlink:title="Personal consumption expenditures, cw 2012$ (NIPA definition)
FRML &lt;Z&gt; ECNIA = EXP(ECNIA_A+ECNIA_AERR+ (LOG(ECNIA(-1))+0.735*LOG(ECO/ECO(-1))+0.1055*LOG(ECD/ECD(-1))+0.1595*LOG(ECH/ECH(-1))) ) $">
<polygon fill="#63b8ff" stroke="black" points="944,-437 533,-437 533,-401 944,-401 944,-437"/>
<text text-anchor="start" x="539.5" y="-414.8" font-family="Times New Roman,serif" font-size="14.00" fill="blue">ECNIA:Personal consumption expenditures, cw 2012$ (NIPA definition)</text>
</a>
</g>
</g>
<!-- ECNIA&#45;&gt;XFS -->
<g id="edge14" class="edge">
<title>ECNIA-&gt;XFS</title>
<g id="a_edge14"><a xlink:href="bogus" xlink:title=" ECNIA -&gt; XFS Min. att. -134%  max: 2016%">
<path fill="none" stroke="black" stroke-width="8" d="M906.02,-400.95C918.96,-398.35 931.75,-395.39 944,-392 995.52,-377.77 1051.37,-352.22 1088.59,-333.61"/>
<polygon fill="black" stroke="black" stroke-width="8" points="1091.87,-339.79 1097.64,-329.04 1085.56,-327.3 1091.87,-339.79"/>
</a>
</g>
</g>
<!-- XB -->
<g id="node11" class="node">
<title>XB</title>
<g id="a_node11"><a xlink:title="Business output (BEA definition), cw 2012$
FRML  &lt;&gt; XB = XB_A+XB_AERR+ (XBN/(PXB/100))  $">
<polygon fill="#63b8ff" stroke="black" points="387,-599 110,-599 110,-563 387,-563 387,-599"/>
<text text-anchor="start" x="116.5" y="-576.8" font-family="Times New Roman,serif" font-size="14.00" fill="blue">XB:Business output (BEA definition), cw 2012$</text>
</a>
</g>
</g>
<!-- XB&#45;&gt;EBFI -->
<g id="edge23" class="edge">
<title>XB-&gt;EBFI</title>
<g id="a_edge23"><a xlink:href="bogus" xlink:title=" XB -&gt; EBFI Min. att. -71%  max: 70%">
<path fill="none" stroke="black" stroke-width="7.09" d="M387.06,-588.61C454.22,-592.33 534.77,-596.78 601.7,-600.49"/>
<polygon fill="black" stroke="black" stroke-width="7.09" points="601.56,-606.69 611.89,-601.05 602.25,-594.31 601.56,-606.69"/>
</a>
</g>
</g>
<!-- EMP -->
<g id="node24" class="node">
<title>EMP</title>
<g id="a_node24"><a xlink:title="Petroleum imports, cw 2012$
FRML &lt;Z&gt; EMP = XGDP*EXP(EMP_A+EMP_AERR+ (LOG(EMPTRT)+0.048026*((LOG(PMP/PXB))-(LOG(PMP(-1)/PXB(-1))))+0.022115*XGAP2(-1)) ) $">
<polygon fill="#63b8ff" stroke="black" points="842.5,-167 634.5,-167 634.5,-131 842.5,-131 842.5,-167"/>
<text text-anchor="start" x="640.5" y="-144.8" font-family="Times New Roman,serif" font-size="14.00" fill="blue">EMP:Petroleum imports, cw 2012$</text>
</a>
</g>
</g>
<!-- XGDP&#45;&gt;EMP -->
<g id="edge25" class="edge">
<title>XGDP-&gt;EMP</title>
<g id="a_edge25"><a xlink:href="bogus" xlink:title=" XGDP -&gt; EMP Min. att. -47%  max: 216%">
<path fill="none" stroke="black" stroke-width="8" d="M1603.72,-246.95C1590.35,-243.61 1576.27,-240.42 1563,-238 1311.57,-192.18 1012.35,-167.09 852.87,-156.02"/>
<polygon fill="black" stroke="black" stroke-width="8" points="853.03,-149.02 842.57,-155.31 852.07,-162.98 853.03,-149.02"/>
</a>
</g>
</g>
<!-- XGAP2 -->
<g id="node13" class="node">
<title>XGAP2</title>
<g id="a_node13"><a xlink:title="Output gap for GDP (100*(actual/potential -1)
FRML  &lt;&gt; XGAP2 = XGAP2_A+XGAP2_AERR+ (100*(XGDO/XGDPT-1))  $">
<polygon fill="#63b8ff" stroke="black" points="405,-167 92,-167 92,-131 405,-131 405,-167"/>
<text text-anchor="start" x="98.5" y="-144.8" font-family="Times New Roman,serif" font-size="14.00" fill="blue">XGAP2:Output gap for GDP (100*(actual/potential -1)</text>
</a>
</g>
</g>
<!-- XGAP2&#45;&gt;EGFL -->
<g id="edge5" class="edge">
<title>XGAP2-&gt;EGFL</title>
<g id="a_edge5"><a xlink:href="bogus" xlink:title=" XGAP2 -&gt; EGFL Min. att. -124%  max: 30%">
<path fill="none" stroke="black" stroke-width="8" d="M405.14,-145.31C437.23,-150.08 469.57,-159.34 497,-176 521.65,-190.97 508.52,-214.75 533,-230 538.54,-233.45 544.32,-236.54 550.29,-239.31"/>
<polygon fill="black" stroke="black" stroke-width="8" points="547.85,-245.89 559.81,-243.41 553.39,-233.03 547.85,-245.89"/>
</a>
</g>
</g>
<!-- EGSE -->
<g id="node22" class="node">
<title>EGSE</title>
<g id="a_node22"><a xlink:title="S&amp;L Government expenditures, CW 2012$
FRML &lt;Z&gt; EGSE = EGSE(-1)*EXP(EGSE_A+EGSE_AERR+ (-0.0003205558585065158+-0.1310861864392932*LOG(EGSE(-1)/EGSET(-1))+0.1315799717205844*((LOG(EGSE(-1)))-(LOG(EGSE(-2))))+0.002629649907733779*((LOG(EGSE(-2)))-(LOG(EGSE(-3))))+0.9287008343314474*((LOG(EGSET))-(LOG(EGSET(-1))))+0.001580665878764003*XGAP2+-0.0008537660921935765*XGAP2(-1)) ) $">
<polygon fill="#63b8ff" stroke="black" points="883,-221 594,-221 594,-185 883,-185 883,-221"/>
<text text-anchor="start" x="600.5" y="-198.8" font-family="Times New Roman,serif" font-size="14.00" fill="blue">EGSE:S&amp;L Government expenditures, CW 2012$</text>
</a>
</g>
</g>
<!-- XGAP2&#45;&gt;EGSE -->
<g id="edge17" class="edge">
<title>XGAP2-&gt;EGSE</title>
<g id="a_edge17"><a xlink:href="bogus" xlink:title=" XGAP2 -&gt; EGSE Min. att. -218%  max: 113%">
<path fill="none" stroke="black" stroke-width="8" d="M405.3,-165.92C435.71,-169.25 467.36,-172.72 497,-176 525.02,-179.1 554.87,-182.43 583.67,-185.66"/>
<polygon fill="black" stroke="black" stroke-width="8" points="583.09,-192.64 593.8,-186.79 584.64,-178.72 583.09,-192.64"/>
</a>
</g>
</g>
<!-- XGAP2&#45;&gt;EMO -->
<g id="edge30" class="edge">
<title>XGAP2-&gt;EMO</title>
<g id="a_edge30"><a xlink:href="bogus" xlink:title=" XGAP2 -&gt; EMO Min. att. -197%  max: 1131%">
<path fill="none" stroke="black" stroke-width="8" d="M405.3,-132.08C435.71,-128.75 467.36,-125.28 497,-122 519.84,-119.47 543.89,-116.79 567.6,-114.14"/>
<polygon fill="black" stroke="black" stroke-width="8" points="568.58,-121.08 577.74,-113.01 567.02,-107.16 568.58,-121.08"/>
</a>
</g>
</g>
<!-- XGAP2&#45;&gt;EMP -->
<g id="edge15" class="edge">
<title>XGAP2-&gt;EMP</title>
<g id="a_edge15"><a xlink:href="bogus" xlink:title=" XGAP2 -&gt; EMP Min. att. -122%  max: 150%">
<path fill="none" stroke="black" stroke-width="8" d="M405.25,-149C476.34,-149 558.98,-149 624.06,-149"/>
<polygon fill="black" stroke="black" stroke-width="8" points="624.35,-156 634.35,-149 624.35,-142 624.35,-156"/>
</a>
</g>
</g>
<!-- XGAP2&#45;&gt;EGFE -->
<g id="edge27" class="edge">
<title>XGAP2-&gt;EGFE</title>
<g id="a_edge27"><a xlink:href="bogus" xlink:title=" XGAP2 -&gt; EGFE Min. att. -281%  max: 19%">
<path fill="none" stroke="black" stroke-width="8" d="M405.3,-139.49C438.38,-144.33 471.1,-155.1 497,-176 536.38,-207.77 493.98,-251.79 533,-284 546.16,-294.86 561.5,-302.62 577.76,-308.05"/>
<polygon fill="black" stroke="black" stroke-width="8" points="575.83,-314.78 587.44,-310.98 579.9,-301.38 575.83,-314.78"/>
</a>
</g>
</g>
<!-- EGSET -->
<g id="node14" class="node">
<title>EGSET</title>
<g id="a_node14"><a xlink:title="S&amp;L Government expenditures, CW 2012$, Trend
FRML &lt;Z&gt; EGSET = EGSET(-1)*EXP(EGSET_A+EGSET_AERR+ (-0.32+-0.1*LOG(.01*PEGSR(-1)*PXP(-1)*EGSET(-1)/XGDPTN(-1))+1*(HGGDPT+HGGDPT(-1)+HGGDPT(-2)+HGGDPT(-3))/1600) ) $">
<polygon fill="#63b8ff" stroke="black" points="416,-221 81,-221 81,-185 416,-185 416,-221"/>
<text text-anchor="start" x="87.5" y="-198.8" font-family="Times New Roman,serif" font-size="14.00" fill="blue">EGSET:S&amp;L Government expenditures, CW 2012$, Trend</text>
</a>
</g>
</g>
<!-- EGSET&#45;&gt;EGSE -->
<g id="edge24" class="edge">
<title>EGSET-&gt;EGSE</title>
<g id="a_edge24"><a xlink:href="bogus" xlink:title=" EGSET -&gt; EGSE Min. att. -241%  max: 409%">
<path fill="none" stroke="black" stroke-width="8" d="M416.08,-203C470.29,-203 530.19,-203 583.45,-203"/>
<polygon fill="black" stroke="black" stroke-width="8" points="583.66,-210 593.66,-203 583.66,-196 583.66,-210"/>
</a>
</g>
</g>
<!-- EH -->
<g id="node15" class="node">
<title>EH</title>
<g id="a_node15"><a xlink:title="Residential investment expenditures, cw 2012$
FRML &lt;Z&gt; EH = EH(-1)*EXP(EH_A+EH_AERR+ (0.01309931436163227*LOG(QEH(-1)/EH(-1))+0.370727139760127*((LOG(EH(-1)))-(LOG(EH(-2))))+0.206060944066708*((LOG(EH(-2)))-(LOG(EH(-3))))+1*ZEH+-0.05620618046332654*((RME(-1))-(RME(-2)))+0.02793327971442171*D83*((RME(-1))-(RME(-2)))) ) $">
<polygon fill="#63b8ff" stroke="black" points="884.5,-383 592.5,-383 592.5,-347 884.5,-347 884.5,-383"/>
<text text-anchor="start" x="598.5" y="-360.8" font-family="Times New Roman,serif" font-size="14.00" fill="blue">EH:Residential investment expenditures, cw 2012$</text>
</a>
</g>
</g>
<!-- EH&#45;&gt;XFS -->
<g id="edge12" class="edge">
<title>EH-&gt;XFS</title>
<g id="a_edge12"><a xlink:href="bogus" xlink:title=" EH -&gt; XFS Min. att. -124%  max: 1248%">
<path fill="none" stroke="black" stroke-width="8" d="M877.58,-346.99C899.8,-344.03 922.54,-340.96 944,-338 961.39,-335.6 979.67,-333.03 997.73,-330.46"/>
<polygon fill="black" stroke="black" stroke-width="8" points="998.81,-337.37 1007.73,-329.03 996.84,-323.52 998.81,-337.37"/>
</a>
</g>
</g>
<!-- ECO -->
<g id="node16" class="node">
<title>ECO</title>
<g id="a_node16"><a xlink:title="Consumer expenditures on non-durable goods and non-housing services, cw 2012$
FRML &lt;Z&gt; ECO = ECO(-1)*EXP(ECO_A+ECO_AERR+ ((0.1584215605793791*LOG(QECO(-1)/ECO(-1))+0.4118129978512995*((LOG(ECO(-1)))-(LOG(ECO(-2))))+1*ZECO)*(1-0.3075237404993435)+0.3075237404993435*((LOG(YHL+YHT))-(LOG(YHL(-1)+YHT(-1))))) ) $">
<polygon fill="#63b8ff" stroke="black" points="497,-437 0,-437 0,-401 497,-401 497,-437"/>
<text text-anchor="start" x="6.5" y="-414.8" font-family="Times New Roman,serif" font-size="14.00" fill="blue">ECO:Consumer expenditures on non-durable goods and non-housing services, cw 2012$</text>
</a>
</g>
</g>
<!-- ECO&#45;&gt;ECNIA -->
<g id="edge26" class="edge">
<title>ECO-&gt;ECNIA</title>
<g id="a_edge26"><a xlink:href="bogus" xlink:title=" ECO -&gt; ECNIA Min. att. -308%  max: 148%">
<path fill="none" stroke="black" stroke-width="8" d="M497.07,-419C505.54,-419 514.01,-419 522.43,-419"/>
<polygon fill="black" stroke="black" stroke-width="8" points="522.67,-426 532.67,-419 522.67,-412 522.67,-426"/>
</a>
</g>
</g>
<!-- ZEBFI -->
<g id="node17" class="node">
<title>ZEBFI</title>
<g id="a_node17"><a xlink:title="Expected growth rate of business output EBFI (VAR exp.)
FRML  &lt;&gt; ZEBFI = ZEBFI_A+ZEBFI_AERR+ (-1.836241195103586E-16+-0.0004311442119548698*PICNIA(-1)+-0.0005071417360301063*PICNIA(-2)+-3.881819160880394E-05*PICNIA(-3)+0.0001679875754395107*PICNIA(-4)+-0.0009752514829426216*RFF(-1)+0.0004172696850180997*RFF(-2)+9.804022481480238E-06*RFF(-3)+0.0004025448938499502*RFF(-4)+0.0001456328815931833*RTR(-1)+0.0008091165641542619*PTR(-1)+0.0006914817407124366*XGAP(-1)+-0.001524629901125206*XGAP(-2)+0.0001821021224146923*XGAP(-3)+0.0001709602428972692*XGAP(-4)+0.01429456576547675*((LOG(QEBFI(-1)))-(LOG(QEBFI(-2))))+0.01004233676573099*((LOG(QEBFI(-2)))-(LOG(QEBFI(-3))))+0.005011839434648968*((LOG(QEBFI(-3)))-(LOG(QEBFI(-4))))+0.003887436951496095*((LOG(QEBFI(-4)))-(LOG(QEBFI(-5))))+0.1422818153960116*HXBT(-1)/400+-0.1422818153960531*HGPBFIR(-1)/400)  $">
<polygon fill="#63b8ff" stroke="black" points="435,-707 62,-707 62,-671 435,-671 435,-707"/>
<text text-anchor="start" x="68.5" y="-684.8" font-family="Times New Roman,serif" font-size="14.00" fill="blue">ZEBFI:Expected growth rate of business output EBFI (VAR exp.)</text>
</a>
</g>
</g>
<!-- ZEBFI&#45;&gt;EBFI -->
<g id="edge10" class="edge">
<title>ZEBFI-&gt;EBFI</title>
<g id="a_edge10"><a xlink:href="bogus" xlink:title=" ZEBFI -&gt; EBFI Min. att. -23%  max: 21%">
<path fill="none" stroke="black" stroke-width="2.35" d="M435.3,-671.02C456.16,-668.32 477.07,-665.31 497,-662 550.79,-653.06 610.63,-639.63 657.16,-628.41"/>
<polygon fill="black" stroke="black" stroke-width="2.35" points="657.99,-631.81 666.88,-626.05 656.33,-625.01 657.99,-631.81"/>
</a>
</g>
</g>
<!-- PMO -->
<g id="node18" class="node">
<title>PMO</title>
<g id="a_node18"><a xlink:title="Price index for imports ex. petroleum, cw
FRML &lt;Z&gt; PMO = PMO(-1)*EXP(PMO_A+PMO_AERR+ (0.0+0.3776815983707077*(LOG(QPMO)+.64*LOG(FPC(-1)/FPX(-1))+.36*LOG(PXB(-1))-LOG(PMO(-1)))+0.2343966603329429*((LOG(FPC/FPX))-(LOG(FPC(-1)/FPX(-1))))+(1-0.2343966603329429)*((LOG(PXB))-(LOG(PXB(-1))))) ) $">
<polygon fill="#63b8ff" stroke="black" points="386.5,-113 110.5,-113 110.5,-77 386.5,-77 386.5,-113"/>
<text text-anchor="start" x="116.5" y="-90.8" font-family="Times New Roman,serif" font-size="14.00" fill="blue">PMO:Price index for imports ex. petroleum, cw</text>
</a>
</g>
</g>
<!-- PMO&#45;&gt;EMO -->
<g id="edge20" class="edge">
<title>PMO-&gt;EMO</title>
<g id="a_edge20"><a xlink:href="bogus" xlink:title=" PMO -&gt; EMO Min. att. -126%  max: 1689%">
<path fill="none" stroke="black" stroke-width="8" d="M386.73,-95C438.09,-95 497.3,-95 552.28,-95"/>
<polygon fill="black" stroke="black" stroke-width="8" points="552.49,-102 562.49,-95 552.49,-88 552.49,-102"/>
</a>
</g>
</g>
<!-- XFS&#45;&gt;KI -->
<g id="edge19" class="edge">
<title>XFS-&gt;KI</title>
<g id="a_edge19"><a xlink:href="bogus" xlink:title=" XFS -&gt; KI Min. att. -173%  max: 69%">
<path fill="none" stroke="black" stroke-width="8" d="M1254.15,-292.95C1272.76,-290.17 1292.05,-287.28 1310.86,-284.47"/>
<polygon fill="black" stroke="black" stroke-width="8" points="1312.1,-291.36 1320.95,-282.96 1310.02,-277.52 1312.1,-291.36"/>
</a>
</g>
</g>
<!-- XFS&#45;&gt;XGDP -->
<g id="edge21" class="edge">
<title>XFS-&gt;XGDP</title>
<g id="a_edge21"><a xlink:href="bogus" xlink:title=" XFS -&gt; XGDP Min. att. -195%  max: 589%">
<path fill="none" stroke="black" stroke-width="8" d="M1285.31,-311.98C1367.84,-310.58 1471.47,-305.7 1563,-292 1574.04,-290.35 1585.59,-288 1596.83,-285.38"/>
<polygon fill="black" stroke="black" stroke-width="8" points="1598.54,-292.17 1606.6,-283.01 1595.24,-278.56 1598.54,-292.17"/>
</a>
</g>
</g>
<!-- RME -->
<g id="node20" class="node">
<title>RME</title>
<g id="a_node20"><a xlink:title="Interest rate on conventional mortgages
FRML &lt;Z&gt; RME = RME_A+RME_AERR+ (0.515870426113512+0.6286405556840244*((RG10)-(RG10(-1)))+0.2555601487902845*D87*((RG10)-(RG10(-1)))+0.2889775740676342*(RG10(-1)-RME(-1))+0.05071546489585005*D87*(RG10(-1)-RME(-1))) +RME(-1) $">
<polygon fill="#63b8ff" stroke="black" points="379.5,-383 117.5,-383 117.5,-347 379.5,-347 379.5,-383"/>
<text text-anchor="start" x="123.5" y="-360.8" font-family="Times New Roman,serif" font-size="14.00" fill="blue">RME:Interest rate on conventional mortgages</text>
</a>
</g>
</g>
<!-- RME&#45;&gt;EH -->
<g id="edge29" class="edge">
<title>RME-&gt;EH</title>
<g id="a_edge29"><a xlink:href="bogus" xlink:title=" RME -&gt; EH Min. att. -11%  max: 33%">
<path fill="none" stroke="black" stroke-width="3.3" d="M379.63,-365C441.81,-365 516.71,-365 581.88,-365"/>
<polygon fill="black" stroke="black" stroke-width="3.3" points="582.25,-368.5 592.25,-365 582.25,-361.5 582.25,-368.5"/>
</a>
</g>
</g>
<!-- EGSLT -->
<g id="node21" class="node">
<title>EGSLT</title>
<g id="a_node21"><a xlink:title="S&amp;L government employee compensation, cw 2012$, trend
FRML &lt;Z&gt; EGSLT = EGSLT(-1)*EXP(EGSLT_A+EGSLT_AERR+ (-.259779+-.1*LOG(.01*PGSL(-1)*EGSLT(-1)/XGDPTN(-1))+1.0*(HGGDPT+HGGDPT(-1)+HGGDPT(-2)+HGGDPT(-3))/1600) ) $">
<polygon fill="#63b8ff" stroke="black" points="441,-491 56,-491 56,-455 441,-455 441,-491"/>
<text text-anchor="start" x="62.5" y="-468.8" font-family="Times New Roman,serif" font-size="14.00" fill="blue">EGSLT:S&amp;L government employee compensation, cw 2012$, trend</text>
</a>
</g>
</g>
<!-- EGSLT&#45;&gt;EGSL -->
<g id="edge2" class="edge">
<title>EGSLT-&gt;EGSL</title>
<g id="a_edge2"><a xlink:href="bogus" xlink:title=" EGSLT -&gt; EGSL Min. att. 5%  max: 57%">
<path fill="none" stroke="black" stroke-width="5.73" d="M441.32,-473C479.29,-473 519.03,-473 556.63,-473"/>
<polygon fill="black" stroke="black" stroke-width="5.73" points="556.65,-478.01 566.65,-473 556.65,-467.99 556.65,-478.01"/>
</a>
</g>
</g>
<!-- EGSE&#45;&gt;XFS -->
<g id="edge1" class="edge">
<title>EGSE-&gt;XFS</title>
<g id="a_edge1"><a xlink:href="bogus" xlink:title=" EGSE -&gt; XFS Min. att. -7%  max: 93%">
<path fill="none" stroke="black" stroke-width="8" d="M883.25,-216.87C903.83,-220.33 924.58,-224.64 944,-230 995.52,-244.23 1051.37,-269.78 1088.59,-288.39"/>
<polygon fill="black" stroke="black" stroke-width="8" points="1085.56,-294.7 1097.64,-292.96 1091.87,-282.21 1085.56,-294.7"/>
</a>
</g>
</g>
<!-- EMO&#45;&gt;XFS -->
<g id="edge4" class="edge">
<title>EMO-&gt;XFS</title>
<g id="a_edge4"><a xlink:href="bogus" xlink:title=" EMO -&gt; XFS Min. att. -2128%  max: 139%">
<path fill="none" stroke="black" stroke-width="8" d="M914.51,-110.07C924.71,-113.4 934.62,-117.35 944,-122 1020.74,-160.05 1084.63,-242.05 1114.06,-284.43"/>
<polygon fill="black" stroke="black" stroke-width="8" points="1108.39,-288.54 1119.81,-292.85 1119.95,-280.64 1108.39,-288.54"/>
</a>
</g>
</g>
<!-- EMP&#45;&gt;XFS -->
<g id="edge3" class="edge">
<title>EMP-&gt;XFS</title>
<g id="a_edge3"><a xlink:href="bogus" xlink:title=" EMP -&gt; XFS Min. att. -108%  max: 5%">
<path fill="none" stroke="black" stroke-width="8" d="M842.63,-152.69C875.87,-156.47 912.29,-163.42 944,-176 961.18,-182.82 1050.84,-249.81 1099.69,-286.79"/>
<polygon fill="black" stroke="black" stroke-width="8" points="1095.53,-292.42 1107.73,-292.89 1103.99,-281.27 1095.53,-292.42"/>
</a>
</g>
</g>
<!-- EGFE&#45;&gt;XFS -->
<g id="edge13" class="edge">
<title>EGFE-&gt;XFS</title>
<g id="a_edge13"><a xlink:href="bogus" xlink:title=" EGFE -&gt; XFS Min. att. -20%  max: 79%">
<path fill="none" stroke="black" stroke-width="7.89" d="M889.66,-311C915.9,-311 943.3,-311 969.84,-311"/>
<polygon fill="black" stroke="black" stroke-width="7.89" points="969.97,-317.9 979.97,-311 969.96,-304.1 969.97,-317.9"/>
</a>
</g>
</g>
<!-- EBFI&#45;&gt;XFS -->
<g id="edge8" class="edge">
<title>EBFI-&gt;XFS</title>
<g id="a_edge8"><a xlink:href="bogus" xlink:title=" EBFI -&gt; XFS Min. att. -77%  max: 2724%">
<path fill="none" stroke="black" stroke-width="8" d="M860.53,-589.93C889.46,-581.96 919.14,-570.5 944,-554 1029.3,-497.39 1092.17,-388.89 1118.23,-338.27"/>
<polygon fill="black" stroke="black" stroke-width="8" points="1124.54,-341.31 1122.81,-329.23 1112.05,-334.99 1124.54,-341.31"/>
</a>
</g>
</g>
</g>
</svg>