<svg xmlns="http://www.w3.org/2000/svg" xmlns:xlink="http://www.w3.org/1999/xlink" width="432pt" height="155pt" viewBox="0.00 0.00 432.00 154.92">
<g id="graph0" class="graph" transform="scale(0.885246 0.885246) rotate(0) translate(4 171)">
<title>TD</title>
<polygon fill="white" stroke="none" points="-4,4 -4,-171 484,-171 484,4 -4,4"/>
<text text-anchor="middle" x="240" y="-7.8" font-family="Times New Roman,serif" font-size="14.00">XGDP</text>
<!-- XFS -->
<g id="node1" class="node">
<title>XFS</title>
<g id="a_node1"><a xlink:title="Final sales of gross domestic product, cw 2012$
FRML &lt;Z&gt; XFS = EXP(1.0*(1.0*XFS_AERR + 0.1324*LOG(EBFI/EBFI(-1)) + 0.6849*LOG(ECNIA/ECNIA(-1)) + 0.0429*LOG(EGFE/EGFE(-1)) + 0.0223*LOG(EGFL/EGFL(-1)) + 0.0395*LOG(EGSE/EGSE(-1)) + 0.0691*LOG(EGSL/EGSL(-1)) + 0.0386*LOG(EH/EH(-1)) - 0.1399*LOG(EMO/EMO(-1)) - 0.0101*LOG(EMP/EMP(-1)) + 0.1203*LOG(EX/EX(-1)) + 1.0*LOG(XFS(-1))))   $">
<polygon fill="#63b8ff" stroke="black" points="305,-167 0,-167 0,-131 305,-131 305,-167"/>
<text text-anchor="start" x="6.5" y="-144.8" font-family="Times New Roman,serif" font-size="14.00" fill="blue">XFS:Final sales of gross domestic product, cw 2012$</text>
</a>
</g>
</g>
<!-- XGDP -->
<g id="node4" class="node">
<title>XGDP</title>
<g id="a_node4"><a xlink:title="GDP, cw 2012$
FRML &lt;Z&gt; XGDP = EXP(-1.2513*(-0.799168864381044*XGDP_AERR - 0.500599376648286*LOG(KI) - 0.797970111084472*LOG(XFS/XFS(-1)) - 0.499400623351714*LOG(KI(-2)) + 1.0*LOG(KI(-1)) - 0.799168864381044*LOG(XGDP(-1))))   $">
<polygon fill="red" stroke="black" points="480,-113 341,-113 341,-77 480,-77 480,-113"/>
<text text-anchor="start" x="347.5" y="-90.8" font-family="Times New Roman,serif" font-size="14.00" fill="blue">XGDP:GDP, cw 2012$</text>
</a>
</g>
</g>
<!-- XFS&#45;&gt;XGDP -->
<g id="edge3" class="edge">
<title>XFS-&gt;XGDP</title>
<g id="a_edge3"><a xlink:href="bogus" xlink:title=" XFS -&gt; XGDP Min. att. 1%  max: 100%">
<path fill="none" stroke="black" stroke-width="8" d="M260.47,-130.99C275.46,-128.16 290.64,-125.13 305,-122 314.1,-120.02 323.61,-117.78 333.03,-115.47"/>
<polygon fill="black" stroke="black" stroke-width="8" points="334.77,-122.25 342.79,-113.05 331.39,-108.67 334.77,-122.25"/>
</a>
</g>
</g>
<!-- KI -->
<g id="node2" class="node">
<title>KI</title>
<g id="a_node2"><a xlink:title="Stock of private inventories, cw 2012$
FRML &lt;Z&gt; KI = (0.9993449085559846*QKIR**0.01469206254903638*(KI(-1)/KI(-2))**0.4567399290262596*(KI(-1)/XFS(-1))**(-0.01469206254903638)*(XFS(-2)/XFS(-3))**0.3072281431760363*(XFS(-1)/XFS(-2))**0.236031927797704*EXP(1.0*KI_AERR))*KI(-1)   $">
<polygon fill="#63b8ff" stroke="black" points="273.5,-113 31.5,-113 31.5,-77 273.5,-77 273.5,-113"/>
<text text-anchor="start" x="37.5" y="-90.8" font-family="Times New Roman,serif" font-size="14.00" fill="blue">KI:Stock of private inventories, cw 2012$</text>
</a>
</g>
</g>
<!-- KI&#45;&gt;XGDP -->
<g id="edge1" class="edge">
<title>KI-&gt;XGDP</title>
<g id="a_edge1"><a xlink:href="bogus" xlink:title=" KI -&gt; XGDP Min. att. -1%  max: 7%">
<path fill="none" stroke="black" d="M273.63,-95C293.05,-95 312.71,-95 330.82,-95"/>
<polygon fill="black" stroke="black" points="331,-98.5 341,-95 331,-91.5 331,-98.5"/>
</a>
</g>
</g>
<!-- XGDP_AERR -->
<g id="node3" class="node">
<title>XGDP_AERR</title>
<g id="a_node3"><a xlink:title="XGDP_AERR
Exogen">
<polygon fill="yellow" stroke="black" points="200.5,-59 104.5,-59 104.5,-23 200.5,-23 200.5,-59"/>
<text text-anchor="start" x="110.5" y="-36.8" font-family="Times New Roman,serif" font-size="14.00" fill="blue">XGDP_AERR:</text>
</a>
</g>
</g>
<!-- XGDP_AERR&#45;&gt;XGDP -->
<g id="edge2" class="edge">
<title>XGDP_AERR-&gt;XGDP</title>
<g id="a_edge2"><a xlink:href="bogus" xlink:title=" XGDP_AERR -&gt; XGDP Min. att. 0%  max: 0%">
<path fill="none" stroke="black" d="M200.77,-48.47C230.75,-53.44 270.28,-60.43 305,-68 314.1,-69.98 323.61,-72.22 333.03,-74.53"/>
<polygon fill="black" stroke="black" points="332.24,-77.93 342.79,-76.95 333.93,-71.14 332.24,-77.93"/>
</a>
</g>
</g>
</g>
</svg>