<svg xmlns="http://www.w3.org/2000/svg" xmlns:xlink="http://www.w3.org/1999/xlink" width="1124pt" height="769pt" viewBox="0.00 0.00 1124.00 769.00">
<g id="graph0" class="graph" transform="scale(1 1) rotate(0) translate(4 765)">
<title>TD</title>
<polygon fill="white" stroke="transparent" points="-4,4 -4,-765 1120,-765 1120,4 -4,4"/>
<text text-anchor="middle" x="558" y="-7.8" font-family="Times New Roman,serif" font-size="14.00">XGDP</text>
<!-- XGDP -->
<g id="node1" class="node">
<title>XGDP</title>
<g id="a_node1"><a xlink:title="GDP, cw 2012$
FRML &lt;Z&gt; XGDP = EXP(XGDP_A+XGDP_AERR+ (LOG(XGDP(-1))+0.9985*LOG(XFS/XFS(-1))+0.6264*(LOG(KI)-LOG(KI(-1)))+-0.6249*(LOG(KI(-1))-LOG(KI(-2)))) ) $">
<polygon fill="red" stroke="black" points="139,-302 0,-302 0,-266 139,-266 139,-302"/>
<text text-anchor="start" x="6.5" y="-279.8" font-family="Times New Roman,serif" font-size="14.00" fill="blue">XGDP:GDP, cw 2012$</text>
</a>
</g>
</g>
<!-- PGDP -->
<g id="node4" class="node">
<title>PGDP</title>
<g id="a_node4"><a xlink:title="Price index for GDP, cw
FRML  &lt;&gt; PGDP = PGDP_A+PGDP_AERR+ (100*XGDPN/XGDP)  $">
<polygon fill="#63b8ff" stroke="black" points="479,-572 295,-572 295,-536 479,-536 479,-572"/>
<text text-anchor="start" x="301" y="-549.8" font-family="Times New Roman,serif" font-size="14.00" fill="blue">PGDP:Price index for GDP, cw</text>
</a>
</g>
</g>
<!-- XGDP&#45;&gt;PGDP -->
<g id="edge17" class="edge">
<title>XGDP-&gt;PGDP</title>
<g id="a_edge17"><a xlink:href="bogus" xlink:title=" XGDP -&gt; PGDP Min. att. -2763%  max: 15152%">
<path fill="none" stroke="black" stroke-width="8" d="M89.91,-302.13C110.71,-321.45 144.83,-352.79 175,-379 238.33,-434 314.47,-496.22 355.77,-529.64"/>
<polygon fill="black" stroke="black" stroke-width="8" points="351.37,-535.09 363.55,-535.94 360.17,-524.2 351.37,-535.09"/>
</a>
</g>
</g>
<!-- XGDO -->
<g id="node6" class="node">
<title>XGDO</title>
<g id="a_node6"><a xlink:title="Gross domestic product, adjusted for measurement error, cw 2012$
FRML  &lt;&gt; XGDO = XGDO_A+XGDO_AERR+ (XGDP/MEP)  $">
<polygon fill="#63b8ff" stroke="black" points="599,-370 175,-370 175,-334 599,-334 599,-370"/>
<text text-anchor="start" x="181" y="-347.8" font-family="Times New Roman,serif" font-size="14.00" fill="blue">XGDO:Gross domestic product, adjusted for measurement error, cw 2012$</text>
</a>
</g>
</g>
<!-- XGDP&#45;&gt;XGDO -->
<g id="edge12" class="edge">
<title>XGDP-&gt;XGDO</title>
<g id="a_edge12"><a xlink:href="bogus" xlink:title=" XGDP -&gt; XGDO Min. att. -9175%  max: 1573%">
<path fill="none" stroke="black" stroke-width="8" d="M137.81,-302.03C150.15,-305.16 162.94,-308.27 175,-311 207.9,-318.44 243.88,-325.74 276.66,-332.07"/>
<polygon fill="black" stroke="black" stroke-width="8" points="275.58,-338.99 286.72,-334 278.22,-325.24 275.58,-338.99"/>
</a>
</g>
</g>
<!-- YHSHR -->
<g id="node8" class="node">
<title>YHSHR</title>
<g id="a_node8"><a xlink:title="Income, household, total, ratio to XGDP (real after-tax)
FRML  &lt;&gt; YHSHR = YHSHR_A+YHSHR_AERR+ (YH/XGDP)  $">
<polygon fill="#63b8ff" stroke="black" points="570.5,-302 203.5,-302 203.5,-266 570.5,-266 570.5,-302"/>
<text text-anchor="start" x="210" y="-279.8" font-family="Times New Roman,serif" font-size="14.00" fill="blue">YHSHR:Income, household, total, ratio to XGDP (real after-tax)</text>
</a>
</g>
</g>
<!-- XGDP&#45;&gt;YHSHR -->
<g id="edge14" class="edge">
<title>XGDP-&gt;YHSHR</title>
<g id="a_edge14"><a xlink:href="bogus" xlink:title=" XGDP -&gt; YHSHR Min. att. -825%  max: 268%">
<path fill="none" stroke="black" stroke-width="8" d="M139.35,-284C155.79,-284 174.15,-284 193.23,-284"/>
<polygon fill="black" stroke="black" stroke-width="8" points="193.26,-291 203.26,-284 193.26,-277 193.26,-291"/>
</a>
</g>
</g>
<!-- HGGDP -->
<g id="node17" class="node">
<title>HGGDP</title>
<g id="a_node17"><a xlink:title="Growth rate of GDP, cw 2012$ (annual rate)
FRML  &lt;&gt; HGGDP = HGGDP_A+HGGDP_AERR+ (400*((LOG(XGDP))-(LOG(XGDP(-1)))))  $">
<polygon fill="#63b8ff" stroke="black" points="540,-248 234,-248 234,-212 540,-212 540,-248"/>
<text text-anchor="start" x="240" y="-225.8" font-family="Times New Roman,serif" font-size="14.00" fill="blue">HGGDP:Growth rate of GDP, cw 2012$ (annual rate)</text>
</a>
</g>
</g>
<!-- XGDP&#45;&gt;HGGDP -->
<g id="edge10" class="edge">
<title>XGDP-&gt;HGGDP</title>
<g id="a_edge10"><a xlink:href="bogus" xlink:title=" XGDP -&gt; HGGDP Min. att. 100%  max: 100%">
<path fill="none" stroke="black" stroke-width="8" d="M135.16,-265.95C148.27,-262.66 162.03,-259.5 175,-257 190.69,-253.98 207.11,-251.21 223.55,-248.69"/>
<polygon fill="black" stroke="black" stroke-width="8" points="224.94,-255.56 233.79,-247.16 222.86,-241.72 224.94,-255.56"/>
</a>
</g>
</g>
<!-- EMP -->
<g id="node19" class="node">
<title>EMP</title>
<g id="a_node19"><a xlink:title="Petroleum imports, cw 2012$
FRML &lt;Z&gt; EMP = XGDP*EXP(EMP_A+EMP_AERR+ (LOG(EMPTRT)+0.048026*((LOG(PMP/PXB))-(LOG(PMP(-1)/PXB(-1))))+0.022115*XGAP2(-1)) ) $">
<polygon fill="#63b8ff" stroke="black" points="491,-167 283,-167 283,-131 491,-131 491,-167"/>
<text text-anchor="start" x="289" y="-144.8" font-family="Times New Roman,serif" font-size="14.00" fill="blue">EMP:Petroleum imports, cw 2012$</text>
</a>
</g>
</g>
<!-- XGDP&#45;&gt;EMP -->
<g id="edge15" class="edge">
<title>XGDP-&gt;EMP</title>
<g id="a_edge15"><a xlink:href="bogus" xlink:title=" XGDP -&gt; EMP Min. att. -47%  max: 216%">
<path fill="none" stroke="black" stroke-width="8" d="M88.91,-265.87C108.62,-247.44 141.6,-219.34 175,-203 205.4,-188.13 240.33,-177.06 272.91,-168.94"/>
<polygon fill="black" stroke="black" stroke-width="8" points="274.86,-175.67 282.93,-166.52 271.57,-162.07 274.86,-175.67"/>
</a>
</g>
</g>
<!-- XGDPTN -->
<g id="node2" class="node">
<title>XGDPTN</title>
<g id="a_node2"><a xlink:title="Potential GDP, current $
FRML  &lt;&gt; XGDPTN = XGDPTN_A+XGDPTN_AERR+ (.01*PGDP*XGDPT)  $">
<polygon fill="#63b8ff" stroke="black" points="978,-761 773,-761 773,-725 978,-725 978,-761"/>
<text text-anchor="start" x="779.5" y="-738.8" font-family="Times New Roman,serif" font-size="14.00" fill="blue">XGDPTN:Potential GDP, current $</text>
</a>
</g>
</g>
<!-- GTN -->
<g id="node3" class="node">
<title>GTN</title>
<g id="a_node3"><a xlink:title="Federal government net transfer payments, current $
FRML &lt;Z&gt; GTN = GTN_A+GTN_AERR+ (.01*PGDP*GTR)  $">
<polygon fill="#63b8ff" stroke="black" points="1041,-707 710,-707 710,-671 1041,-671 1041,-707"/>
<text text-anchor="start" x="716.5" y="-684.8" font-family="Times New Roman,serif" font-size="14.00" fill="blue">GTN:Federal government net transfer payments, current $</text>
</a>
</g>
</g>
<!-- PGDP&#45;&gt;XGDPTN -->
<g id="edge3" class="edge">
<title>PGDP-&gt;XGDPTN</title>
<g id="a_edge3"><a xlink:href="bogus" xlink:title=" PGDP -&gt; XGDPTN Min. att. -10595%  max: 1487%">
<path fill="none" stroke="black" stroke-width="8" d="M408.29,-572.23C448.31,-607 541.66,-682.31 635,-716 675.27,-730.53 721.61,-737.76 762.73,-741.21"/>
<polygon fill="black" stroke="black" stroke-width="8" points="762.28,-748.19 772.79,-741.98 763.35,-734.23 762.28,-748.19"/>
</a>
</g>
</g>
<!-- PGDP&#45;&gt;GTN -->
<g id="edge9" class="edge">
<title>PGDP-&gt;GTN</title>
<g id="a_edge9"><a xlink:href="bogus" xlink:title=" PGDP -&gt; GTN Min. att. -7725%  max: 2555%">
<path fill="none" stroke="black" stroke-width="8" d="M420.8,-572.16C467.05,-596.87 554.77,-640.46 635,-662 655.76,-667.57 677.84,-672 699.87,-675.51"/>
<polygon fill="black" stroke="black" stroke-width="8" points="699.03,-682.46 709.98,-677.06 701.16,-668.62 699.03,-682.46"/>
</a>
</g>
</g>
<!-- XGDIN -->
<g id="node5" class="node">
<title>XGDIN</title>
<g id="a_node5"><a xlink:title="Gross domestic income, current $
FRML  &lt;&gt; XGDIN = XGDIN_A+XGDIN_AERR+ (XGDI*(PGDP/100))  $">
<polygon fill="#63b8ff" stroke="black" points="998,-653 753,-653 753,-617 998,-617 998,-653"/>
<text text-anchor="start" x="759.5" y="-630.8" font-family="Times New Roman,serif" font-size="14.00" fill="blue">XGDIN:Gross domestic income, current $</text>
</a>
</g>
</g>
<!-- PGDP&#45;&gt;XGDIN -->
<g id="edge19" class="edge">
<title>PGDP-&gt;XGDIN</title>
<g id="a_edge19"><a xlink:href="bogus" xlink:title=" PGDP -&gt; XGDIN Min. att. -198%  max: 196%">
<path fill="none" stroke="black" stroke-width="8" d="M461.11,-572.06C510.07,-583.64 576.1,-598.27 635,-608 669.76,-613.74 707.55,-618.63 742.64,-622.6"/>
<polygon fill="black" stroke="black" stroke-width="8" points="742.23,-629.6 752.94,-623.75 743.78,-615.68 742.23,-629.6"/>
</a>
</g>
</g>
<!-- XBN -->
<g id="node10" class="node">
<title>XBN</title>
<g id="a_node10"><a xlink:title="Business output (BEA definition), current $
FRML  &lt;&gt; XBN = XBN_A+XBN_AERR+ (PXB/100*XBO+XGDPN-XGDO*PGDP/100)  $">
<polygon fill="#63b8ff" stroke="black" points="1017,-437 734,-437 734,-401 1017,-401 1017,-437"/>
<text text-anchor="start" x="740.5" y="-414.8" font-family="Times New Roman,serif" font-size="14.00" fill="blue">XBN:Business output (BEA definition), current $</text>
</a>
</g>
</g>
<!-- PGDP&#45;&gt;XBN -->
<g id="edge1" class="edge">
<title>PGDP-&gt;XBN</title>
<g id="a_edge1"><a xlink:href="bogus" xlink:title=" PGDP -&gt; XBN Min. att. -681%  max: 183%">
<path fill="none" stroke="black" stroke-width="8" d="M420.8,-535.84C467.05,-511.13 554.77,-467.54 635,-446 663.32,-438.4 694.08,-432.94 723.83,-429.01"/>
<polygon fill="black" stroke="black" stroke-width="8" points="724.83,-435.94 733.87,-427.74 723.07,-422.05 724.83,-435.94"/>
</a>
</g>
</g>
<!-- PXB -->
<g id="node11" class="node">
<title>PXB</title>
<g id="a_node11"><a xlink:title="Price index for business output
FRML  &lt;&gt; PXB = PXB_A+PXB_AERR+ (UPXB*PGDP)  $">
<polygon fill="#63b8ff" stroke="black" points="981,-599 770,-599 770,-563 981,-563 981,-599"/>
<text text-anchor="start" x="776.5" y="-576.8" font-family="Times New Roman,serif" font-size="14.00" fill="blue">PXB:Price index for business output</text>
</a>
</g>
</g>
<!-- PGDP&#45;&gt;PXB -->
<g id="edge4" class="edge">
<title>PGDP-&gt;PXB</title>
<g id="a_edge4"><a xlink:href="bogus" xlink:title=" PGDP -&gt; PXB Min. att. 100%  max: 100%">
<path fill="none" stroke="black" stroke-width="8" d="M479.22,-559.06C558.62,-563.47 674.08,-569.88 759.74,-574.63"/>
<polygon fill="black" stroke="black" stroke-width="8" points="759.39,-581.62 769.77,-575.19 760.17,-567.64 759.39,-581.62"/>
</a>
</g>
</g>
<!-- PIGDP -->
<g id="node12" class="node">
<title>PIGDP</title>
<g id="a_node12"><a xlink:title="Inflation rate, GDP, cw
FRML  &lt;&gt; PIGDP = PIGDP_A+PIGDP_AERR+ (400*((LOG(PGDP))-(LOG(PGDP(-1)))))  $">
<polygon fill="#63b8ff" stroke="black" points="966.5,-545 784.5,-545 784.5,-509 966.5,-509 966.5,-545"/>
<text text-anchor="start" x="790.5" y="-522.8" font-family="Times New Roman,serif" font-size="14.00" fill="blue">PIGDP:Inflation rate, GDP, cw</text>
</a>
</g>
</g>
<!-- PGDP&#45;&gt;PIGDP -->
<g id="edge13" class="edge">
<title>PGDP-&gt;PIGDP</title>
<g id="a_edge13"><a xlink:href="bogus" xlink:title=" PGDP -&gt; PIGDP Min. att. 100%  max: 100%">
<path fill="none" stroke="black" stroke-width="8" d="M479.22,-548.94C563.12,-544.28 687.29,-537.39 774,-532.58"/>
<polygon fill="black" stroke="black" stroke-width="8" points="774.52,-539.56 784.12,-532.02 773.75,-525.58 774.52,-539.56"/>
</a>
</g>
</g>
<!-- FNIN -->
<g id="node15" class="node">
<title>FNIN</title>
<g id="a_node15"><a xlink:title="Net stock of claims of US residents on the rest of the world, current $
FRML  &lt;&gt; FNIN = FNIN_A+FNIN_AERR+ (.25*FCBN+.54*(((LOG(FPC))-(LOG(FPC(-1))))*FNICN(-1))-.32*(((LOG(PGDP))-(LOG(PGDP(-1))))*FNILN(-1))-.67*(((LOG(FPX))-(LOG(FPX(-1))))*FNICN(-1))+.06*(((LOG(FPX))-(LOG(FPX(-1))))*FNILN(-1))+FNIRN) +FNIN(-1) $">
<polygon fill="#63b8ff" stroke="black" points="1090.5,-491 660.5,-491 660.5,-455 1090.5,-455 1090.5,-491"/>
<text text-anchor="start" x="666.5" y="-468.8" font-family="Times New Roman,serif" font-size="14.00" fill="blue">FNIN:Net stock of claims of US residents on the rest of the world, current $</text>
</a>
</g>
</g>
<!-- PGDP&#45;&gt;FNIN -->
<g id="edge6" class="edge">
<title>PGDP-&gt;FNIN</title>
<g id="a_edge6"><a xlink:href="bogus" xlink:title=" PGDP -&gt; FNIN Min. att. -16%  max: 13%">
<path fill="none" stroke="black" stroke-width="1.58" d="M461.11,-535.94C510.07,-524.36 576.1,-509.73 635,-500 651.57,-497.26 668.82,-494.72 686.14,-492.38"/>
<polygon fill="black" stroke="black" stroke-width="1.58" points="686.9,-495.81 696.35,-491.02 685.97,-488.87 686.9,-495.81"/>
</a>
</g>
</g>
<!-- XGDO&#45;&gt;XBN -->
<g id="edge20" class="edge">
<title>XGDO-&gt;XBN</title>
<g id="a_edge20"><a xlink:href="bogus" xlink:title=" XGDO -&gt; XBN Min. att. -412%  max: 993%">
<path fill="none" stroke="black" stroke-width="8" d="M492.09,-370C536.11,-377.32 587.98,-385.55 635,-392 663.68,-395.94 694.35,-399.72 723.84,-403.14"/>
<polygon fill="black" stroke="black" stroke-width="8" points="723.05,-410.09 733.79,-404.28 724.65,-396.19 723.05,-410.09"/>
</a>
</g>
</g>
<!-- XGDI -->
<g id="node13" class="node">
<title>XGDI</title>
<g id="a_node13"><a xlink:title="Gross domestic income, cw 2012$
FRML  &lt;&gt; XGDI = XGDI_A+XGDI_AERR+ (XGDO*MEI)  $">
<polygon fill="#63b8ff" stroke="black" points="995.5,-383 755.5,-383 755.5,-347 995.5,-347 995.5,-383"/>
<text text-anchor="start" x="761.5" y="-360.8" font-family="Times New Roman,serif" font-size="14.00" fill="blue">XGDI:Gross domestic income, cw 2012$</text>
</a>
</g>
</g>
<!-- XGDO&#45;&gt;XGDI -->
<g id="edge16" class="edge">
<title>XGDO-&gt;XGDI</title>
<g id="a_edge16"><a xlink:href="bogus" xlink:title=" XGDO -&gt; XGDI Min. att. -1633%  max: 465%">
<path fill="none" stroke="black" stroke-width="8" d="M599.26,-357.65C648.97,-358.97 700.49,-360.35 745.33,-361.55"/>
<polygon fill="black" stroke="black" stroke-width="8" points="745.2,-368.55 755.38,-361.82 745.57,-354.55 745.2,-368.55"/>
</a>
</g>
</g>
<!-- XGAP2 -->
<g id="node20" class="node">
<title>XGAP2</title>
<g id="a_node20"><a xlink:title="Output gap for GDP (100*(actual/potential -1)
FRML  &lt;&gt; XGAP2 = XGAP2_A+XGAP2_AERR+ (100*(XGDO/XGDPT-1))  $">
<polygon fill="#63b8ff" stroke="black" points="1032,-329 719,-329 719,-293 1032,-293 1032,-329"/>
<text text-anchor="start" x="725.5" y="-306.8" font-family="Times New Roman,serif" font-size="14.00" fill="blue">XGAP2:Output gap for GDP (100*(actual/potential -1)</text>
</a>
</g>
</g>
<!-- XGDO&#45;&gt;XGAP2 -->
<g id="edge7" class="edge">
<title>XGDO-&gt;XGAP2</title>
<g id="a_edge7"><a xlink:href="bogus" xlink:title=" XGDO -&gt; XGAP2 Min. att. -732%  max: 596%">
<path fill="none" stroke="black" stroke-width="8" d="M599.26,-334.2C635.79,-331.12 673.29,-327.96 708.41,-325"/>
<polygon fill="black" stroke="black" stroke-width="8" points="709.35,-331.94 718.73,-324.13 708.18,-317.99 709.35,-331.94"/>
</a>
</g>
</g>
<!-- EM -->
<g id="node7" class="node">
<title>EM</title>
<g id="a_node7"><a xlink:title="Imports of goods and services, cw 2012$
FRML  &lt;&gt; EM = EXP(EM_A+EM_AERR+ (LOG(EM(-1))+.5*(EMON/EMN+EMON(-1)/EMN(-1))*((LOG(EMO))-(LOG(EMO(-1))))+.5*(EMPN/EMN+EMPN(-1)/EMN(-1))*((LOG(EMP))-(LOG(EMP(-1))))) ) $">
<polygon fill="#63b8ff" stroke="black" points="1006.5,-221 744.5,-221 744.5,-185 1006.5,-185 1006.5,-221"/>
<text text-anchor="start" x="750.5" y="-198.8" font-family="Times New Roman,serif" font-size="14.00" fill="blue">EM:Imports of goods and services, cw 2012$</text>
</a>
</g>
</g>
<!-- YHGAP -->
<g id="node9" class="node">
<title>YHGAP</title>
<g id="a_node9"><a xlink:title="Income, household, total, ratio to XGDP, cyclical component (real after-tax)
FRML  &lt;&gt; YHGAP = YHGAP_A+YHGAP_AERR+ (100*LOG(YHSHR/ZYHST))  $">
<polygon fill="#63b8ff" stroke="black" points="1116,-275 635,-275 635,-239 1116,-239 1116,-275"/>
<text text-anchor="start" x="641.5" y="-252.8" font-family="Times New Roman,serif" font-size="14.00" fill="blue">YHGAP:Income, household, total, ratio to XGDP, cyclical component (real after-tax)</text>
</a>
</g>
</g>
<!-- YHSHR&#45;&gt;YHGAP -->
<g id="edge18" class="edge">
<title>YHSHR-&gt;YHGAP</title>
<g id="a_edge18"><a xlink:href="bogus" xlink:title=" YHSHR -&gt; YHGAP Min. att. -2287%  max: 2200%">
<path fill="none" stroke="black" stroke-width="8" d="M570.54,-273.87C588.28,-272.88 606.49,-271.87 624.74,-270.86"/>
<polygon fill="black" stroke="black" stroke-width="8" points="625.29,-277.84 634.89,-270.3 624.51,-263.86 625.29,-277.84"/>
</a>
</g>
</g>
<!-- XFS -->
<g id="node14" class="node">
<title>XFS</title>
<g id="a_node14"><a xlink:title="Final sales of gross domestic product, cw 2012$
FRML &lt;Z&gt; XFS = EXP(XFS_A+XFS_AERR+ (LOG(XFS(-1))+0.6849*LOG(ECNIA/ECNIA(-1))+0.0386*LOG(EH/EH(-1))+0.1324*LOG(EBFI/EBFI(-1))+0.0429*LOG(EGFE/EGFE(-1))+0.0223*LOG(EGFL/EGFL(-1))+0.0395*LOG(EGSE/EGSE(-1))+0.0691*LOG(EGSL/EGSL(-1))+0.1203*LOG(EX/EX(-1))+-0.1399*LOG(EMO/EMO(-1))+-0.0101*LOG(EMP/EMP(-1))) ) $">
<polygon fill="#63b8ff" stroke="black" points="1028,-167 723,-167 723,-131 1028,-131 1028,-167"/>
<text text-anchor="start" x="729.5" y="-144.8" font-family="Times New Roman,serif" font-size="14.00" fill="blue">XFS:Final sales of gross domestic product, cw 2012$</text>
</a>
</g>
</g>
<!-- EMPN -->
<g id="node16" class="node">
<title>EMPN</title>
<g id="a_node16"><a xlink:title="Petroleum imports, current $
FRML  &lt;&gt; EMPN = EMPN_A+EMPN_AERR+ (.01*PMP*EMP)  $">
<polygon fill="#63b8ff" stroke="black" points="982,-113 769,-113 769,-77 982,-77 982,-113"/>
<text text-anchor="start" x="775.5" y="-90.8" font-family="Times New Roman,serif" font-size="14.00" fill="blue">EMPN:Petroleum imports, current $</text>
</a>
</g>
</g>
<!-- HGEMP -->
<g id="node18" class="node">
<title>HGEMP</title>
<g id="a_node18"><a xlink:title="Petroleum imports, cw 2012$, trend growth rate
FRML &lt;Z&gt; HGEMP = HGEMP_A+HGEMP_AERR+ (.9*HGEMP(-1)+.1*400*LOG(EMP/EMP(-1)))  $">
<polygon fill="#63b8ff" stroke="black" points="1039.5,-59 711.5,-59 711.5,-23 1039.5,-23 1039.5,-59"/>
<text text-anchor="start" x="717.5" y="-36.8" font-family="Times New Roman,serif" font-size="14.00" fill="blue">HGEMP:Petroleum imports, cw 2012$, trend growth rate</text>
</a>
</g>
</g>
<!-- EMP&#45;&gt;EM -->
<g id="edge5" class="edge">
<title>EMP-&gt;EM</title>
<g id="a_edge5"><a xlink:href="bogus" xlink:title=" EMP -&gt; EM Min. att. -78%  max: 24%">
<path fill="none" stroke="black" stroke-width="7.78" d="M491.17,-160.45C561.78,-168.29 656.27,-178.78 733.76,-187.38"/>
<polygon fill="black" stroke="black" stroke-width="7.78" points="733.41,-194.19 744.1,-188.53 734.91,-180.65 733.41,-194.19"/>
</a>
</g>
</g>
<!-- EMP&#45;&gt;XFS -->
<g id="edge2" class="edge">
<title>EMP-&gt;XFS</title>
<g id="a_edge2"><a xlink:href="bogus" xlink:title=" EMP -&gt; XFS Min. att. -108%  max: 5%">
<path fill="none" stroke="black" stroke-width="8" d="M491.17,-149C555.51,-149 639.67,-149 712.74,-149"/>
<polygon fill="black" stroke="black" stroke-width="8" points="712.98,-156 722.98,-149 712.98,-142 712.98,-156"/>
</a>
</g>
</g>
<!-- EMP&#45;&gt;EMPN -->
<g id="edge11" class="edge">
<title>EMP-&gt;EMPN</title>
<g id="a_edge11"><a xlink:href="bogus" xlink:title=" EMP -&gt; EMPN Min. att. -3490%  max: 237%">
<path fill="none" stroke="black" stroke-width="8" d="M491.17,-137.55C569.55,-128.85 677.35,-116.88 758.67,-107.86"/>
<polygon fill="black" stroke="black" stroke-width="8" points="759.79,-114.78 768.96,-106.72 758.24,-100.86 759.79,-114.78"/>
</a>
</g>
</g>
<!-- EMP&#45;&gt;HGEMP -->
<g id="edge8" class="edge">
<title>EMP-&gt;HGEMP</title>
<g id="a_edge8"><a xlink:href="bogus" xlink:title=" EMP -&gt; HGEMP Min. att. -665%  max: 313%">
<path fill="none" stroke="black" stroke-width="8" d="M433.65,-130.9C482.64,-112.22 563.13,-83.66 635,-68 656.37,-63.34 678.99,-59.46 701.47,-56.24"/>
<polygon fill="black" stroke="black" stroke-width="8" points="702.5,-63.16 711.44,-54.84 700.57,-49.29 702.5,-63.16"/>
</a>
</g>
</g>
</g>
</svg>