<svg xmlns="http://www.w3.org/2000/svg" xmlns:xlink="http://www.w3.org/1999/xlink" width="432pt" height="259pt" viewBox="0.00 0.00 432.00 258.93">
<g id="graph0" class="graph" transform="scale(0.336711 0.336711) rotate(0) translate(4 765)">
<title>TD</title>
<polygon fill="white" stroke="none" points="-4,4 -4,-765 1279,-765 1279,4 -4,4"/>
<text text-anchor="middle" x="637.5" y="-7.8" font-family="Times New Roman,serif" font-size="14.00">PAKNYGDPMKTPKN</text>
<!-- PAKFMLBLMTWOKN_FITTED -->
<g id="node1" class="node"><title>PAKFMLBLMTWOKN_FITTED</title>
<g id="a_node1"><a xlink:title="Fitted  value:Real money supply
FRML &lt;FIT&gt; PAKFMLBLMTWOKN_FITTED = PAKFMLBLMTWOKN(-1)*EXP( (-0.2*(LOG(PAKFMLBLMTWOKN(-1))-LOG(PAKNYGDPMKTPKN(-1))+0.1*PAKFMLBLPOLYXN(-1)/100-LOG(PAKVELOCITY(-1)))-0.32628131688075+0.7*((LOG(PAKNYGDPMKTPKN))-(LOG(PAKNYGDPMKTPKN(-1))))-1*((PAKFMLBLPOLYXN/100)-(PAKFMLBLPOLYXN(-1)/100))-((LOG(PAKVELOCITY))-(LOG(PAKVELOCITY(-1))))) ) $">
<polygon fill="#63b8ff" stroke="black" points="1263,-761 875,-761 875,-725 1263,-725 1263,-761"/>
<text text-anchor="start" x="881" y="-738.8" font-family="Times New Roman,serif" font-size="14.00" fill="blue">PAKFMLBLMTWOKN_FITTED:Fitted  value:Real money supply</text>
</a>
</g>
</g>
<!-- PAKNEADPKMAXKN_FITTED -->
<g id="node2" class="node"><title>PAKNEADPKMAXKN_FITTED</title>
<g id="a_node2"><a xlink:title="Fitted  value:PAKNEADPKMAXKN
FRML &lt;FIT&gt; PAKNEADPKMAXKN_FITTED = 0*DUMH+((1+0.01)/(0.01+PAKDEPR))*(PAKAVDAMAGE/100)*PAKNYGDPMKTPKN $">
<polygon fill="#63b8ff" stroke="black" points="1275,-707 863,-707 863,-671 1275,-671 1275,-707"/>
<text text-anchor="start" x="869" y="-684.8" font-family="Times New Roman,serif" font-size="14.00" fill="blue">PAKNEADPKMAXKN_FITTED:Fitted  value:PAKNEADPKMAXKN</text>
</a>
</g>
</g>
<!-- PAKNEIMPGNFSKN -->
<g id="node3" class="node"><title>PAKNEIMPGNFSKN</title>
<g id="a_node3"><a xlink:title="Imports (G&amp;S)
FRML &lt;Z,EXO&gt; PAKNEIMPGNFSKN = (PAKNEIMPGNFSKN(-1)*EXP(-PAKNEIMPGNFSKN_A+ (-0.324143718656754*(LOG(PAKNEIMPGNFSKN(-1))-LOG(PAKNEGDETTOTKN(-1))+0.8*LOG(PAKNEIMPGNFSXN(-1)/PAKNYGDPFCSTXN(-1)))-0.583459272245018+1*((LOG(PAKNEGDETTOTKN))-(LOG(PAKNEGDETTOTKN(-1))))-0.0921874580409631*((LOG(PAKNEIMPGNFSXN/PAKNYGDPFCSTXN))-(LOG(PAKNEIMPGNFSXN(-1)/PAKNYGDPFCSTXN(-1))))-0.0361746331863615*DURING_2012) )) * (1-PAKNEIMPGNFSKN_D)+ PAKNEIMPGNFSKN_X*PAKNEIMPGNFSKN_D  $">
<polygon fill="#63b8ff" stroke="black" points="326.5,-626 97.5,-626 97.5,-590 326.5,-590 326.5,-626"/>
<text text-anchor="start" x="104" y="-603.8" font-family="Times New Roman,serif" font-size="14.00" fill="blue">PAKNEIMPGNFSKN:Imports (G&amp;S)</text>
</a>
</g>
</g>
<!-- PAKNYGDPMKTPKN -->
<g id="node18" class="node"><title>PAKNYGDPMKTPKN</title>
<g id="a_node18"><a xlink:title="GDP Expenditure side at market prices
FRML  &lt;&gt; PAKNYGDPMKTPKN = PAKNECONPRVTKN+PAKNECONGOVTKN+PAKNEGDIFTOTKN+PAKNEGDISTKBKN+PAKNEEXPGNFSKN-PAKNEIMPGNFSKN+PAKNYGDPDISCKN+PAKADAP*PAKDISPREPKN $">
<polygon fill="red" stroke="black" points="827,-410 460,-410 460,-374 827,-374 827,-410"/>
<text text-anchor="start" x="466.5" y="-387.8" font-family="Times New Roman,serif" font-size="14.00" fill="blue">PAKNYGDPMKTPKN:GDP Expenditure side at market prices</text>
</a>
</g>
</g>
<!-- PAKNEIMPGNFSKN&#45;&gt;PAKNYGDPMKTPKN -->
<g id="edge23" class="edge"><title>PAKNEIMPGNFSKN-&gt;PAKNYGDPMKTPKN</title>
<g id="a_edge23"><a xlink:href="bogus" xlink:title=" PAKNEIMPGNFSKN -&gt; PAKNYGDPMKTPKN Min. att. -46%  max: 456%">
<path fill="none" stroke="black" stroke-width="8" d="M326.64,-605.672C359.151,-601.798 393.907,-594.446 424,-581 509.218,-542.923 586.002,-460.332 621.583,-418.065"/>
<polygon fill="black" stroke="black" stroke-width="8" points="627.132,-422.339 628.14,-410.175 616.365,-413.392 627.132,-422.339"/>
</a>
</g>
</g>
<!-- PAKFMLBLMTWOKN -->
<g id="node4" class="node"><title>PAKFMLBLMTWOKN</title>
<g id="a_node4"><a xlink:title="Real money supply
FRML &lt;Z,EXO&gt; PAKFMLBLMTWOKN = (PAKFMLBLMTWOKN(-1)*EXP(-PAKFMLBLMTWOKN_A+ (-0.2*(LOG(PAKFMLBLMTWOKN(-1))-LOG(PAKNYGDPMKTPKN(-1))+0.1*PAKFMLBLPOLYXN(-1)/100-LOG(PAKVELOCITY(-1)))-0.32628131688075+0.7*((LOG(PAKNYGDPMKTPKN))-(LOG(PAKNYGDPMKTPKN(-1))))-1*((PAKFMLBLPOLYXN/100)-(PAKFMLBLPOLYXN(-1)/100))-((LOG(PAKVELOCITY))-(LOG(PAKVELOCITY(-1))))) )) * (1-PAKFMLBLMTWOKN_D)+ PAKFMLBLMTWOKN_X*PAKFMLBLMTWOKN_D  $">
<polygon fill="#63b8ff" stroke="black" points="1199.5,-653 938.5,-653 938.5,-617 1199.5,-617 1199.5,-653"/>
<text text-anchor="start" x="945" y="-630.8" font-family="Times New Roman,serif" font-size="14.00" fill="blue">PAKFMLBLMTWOKN:Real money supply</text>
</a>
</g>
</g>
<!-- PAKNECONPRVTKN -->
<g id="node5" class="node"><title>PAKNECONPRVTKN</title>
<g id="a_node5"><a xlink:title="Household Consumption
FRML &lt;Z,EXO&gt; PAKNECONPRVTKN = (PAKNECONPRVTKN(-1)*EXP(-PAKNECONPRVTKN_A+ (-0.2*(LOG(PAKNECONPRVTKN(-1))-LOG((PAKNYYWBTOTLCN(-1)*(1-PAKGGREVDRCTXN(-1)/100))/PAKNECONPRVTXN(-1)))+1*((LOG((PAKNYYWBTOTLCN*(1-PAKGGREVDRCTXN/100))/PAKNECONPRVTXN))-(LOG((PAKNYYWBTOTLCN(-1)*(1-PAKGGREVDRCTXN(-1)/100))/PAKNECONPRVTXN(-1))))+0.0303228629698929+0.0163839011059956*DURING_2010-0.3*(PAKFMLBLPOLYXN/100-((LOG(PAKNECONPRVTXN))-(LOG(PAKNECONPRVTXN(-1)))))) )) * (1-PAKNECONPRVTKN_D)+ PAKNECONPRVTKN_X*PAKNECONPRVTKN_D  $">
<polygon fill="#63b8ff" stroke="black" points="356,-572 68,-572 68,-536 356,-536 356,-572"/>
<text text-anchor="start" x="74" y="-549.8" font-family="Times New Roman,serif" font-size="14.00" fill="blue">PAKNECONPRVTKN:Household Consumption</text>
</a>
</g>
</g>
<!-- PAKNECONPRVTKN&#45;&gt;PAKNYGDPMKTPKN -->
<g id="edge21" class="edge"><title>PAKNECONPRVTKN-&gt;PAKNYGDPMKTPKN</title>
<g id="a_edge21"><a xlink:href="bogus" xlink:title=" PAKNECONPRVTKN -&gt; PAKNYGDPMKTPKN Min. att. -1557%  max: 290%">
<path fill="none" stroke="black" stroke-width="8" d="M356.243,-544.056C379.29,-540.079 402.591,-534.582 424,-527 497.381,-501.013 572.294,-447.686 612.522,-416.394"/>
<polygon fill="black" stroke="black" stroke-width="8" points="617.032,-421.752 620.567,-410.069 608.379,-410.747 617.032,-421.752"/>
</a>
</g>
</g>
<!-- PAKADAP -->
<g id="node6" class="node"><title>PAKADAP</title>
<g id="a_node6"><a xlink:title="Switch on adaptation mode (0 or 1)
Exogen">
<polygon fill="yellow" stroke="black" points="352,-518 72,-518 72,-482 352,-482 352,-518"/>
<text text-anchor="start" x="78" y="-495.8" font-family="Times New Roman,serif" font-size="14.00" fill="blue">PAKADAP:Switch on adaptation mode (0 or 1)</text>
</a>
</g>
</g>
<!-- PAKADAP&#45;&gt;PAKNYGDPMKTPKN -->
<g id="edge16" class="edge"><title>PAKADAP-&gt;PAKNYGDPMKTPKN</title>
<g id="a_edge16"><a xlink:href="bogus" xlink:title=" PAKADAP -&gt; PAKNYGDPMKTPKN Min. att. -0%  max: 0%">
<path fill="none" stroke="black" d="M352.018,-486.786C376.192,-483.189 400.959,-478.666 424,-473 483.659,-458.329 549.425,-432.561 593.06,-414.024"/>
<polygon fill="black" stroke="black" points="594.482,-417.222 602.296,-410.068 591.726,-410.788 594.482,-417.222"/>
</a>
</g>
</g>
<!-- PAKHURDAMKN -->
<g id="node7" class="node"><title>PAKHURDAMKN</title>
<g id="a_node7"><a xlink:title="Hurricane damage, constant prices
FRML  &lt;&gt; PAKHURDAMKN = (PAKNEHURAVERKN_/100)*PAKNYGDPMKTPKN(-1)*(1-PAKNEHURPTVTKN) $">
<polygon fill="#63b8ff" stroke="black" points="1227,-599 911,-599 911,-563 1227,-563 1227,-599"/>
<text text-anchor="start" x="917" y="-576.8" font-family="Times New Roman,serif" font-size="14.00" fill="blue">PAKHURDAMKN:Hurricane damage, constant prices</text>
</a>
</g>
</g>
<!-- PAKNYWRTFORMCN -->
<g id="node8" class="node"><title>PAKNYWRTFORMCN</title>
<g id="a_node8"><a xlink:title="Formal wage
FRML &lt;Z,EXO&gt; PAKNYWRTFORMCN = (PAKNYWRTFORMCN(-1)*EXP(-PAKNYWRTFORMCN_A+ (-0.120164450250183-0.3*(LOG(PAKNYWRTFORMCN(-1))-LOG(PAKNYGDPFCSTXN(-1))-LOG(PAKNYGDPPOTLKN(-1)/PAKLMEMPSTRLCN(-1)))+0.2*((LOG(PAKNYWRTFORMCN(-1)))-(LOG(PAKNYWRTFORMCN(-2))))+(1-0.2)*(0.5*((LOG(PAKNYGDPFCSTXN(-1)))-(LOG(PAKNYGDPFCSTXN(-2))))+0.5*(PAKINFLEXPT/100)+((LOG(PAKNYGDPMKTPKN/PAKLMEMPSTRLCN))-(LOG(PAKNYGDPMKTPKN(-1)/PAKLMEMPSTRLCN(-1)))))-0.2*(PAKLMUNRTOTLCN-PAKLMUNRSTRLCN)/100+0.15233813938029*DURING_2000-0.183411483907703*DURING_2001) )) * (1-PAKNYWRTFORMCN_D)+ PAKNYWRTFORMCN_X*PAKNYWRTFORMCN_D  $">
<polygon fill="#63b8ff" stroke="black" points="1182.5,-545 955.5,-545 955.5,-509 1182.5,-509 1182.5,-545"/>
<text text-anchor="start" x="962" y="-522.8" font-family="Times New Roman,serif" font-size="14.00" fill="blue">PAKNYWRTFORMCN:Formal wage</text>
</a>
</g>
</g>
<!-- PAKNYGDPMKTPKD -->
<g id="node9" class="node"><title>PAKNYGDPMKTPKD</title>
<g id="a_node9"><a xlink:title="PAKNYGDPMKTPKD
FRML  &lt;&gt; PAKNYGDPMKTPKD = (PAKNYGDPMKTPKN*((PAKNYGDPMKTPCN_VALUE_2010)/((PAKNYGDPMKTPKN_VALUE_2010))))/(PAKPANUSATLS_VALUE_2010) $">
<polygon fill="#63b8ff" stroke="black" points="1144,-491 994,-491 994,-455 1144,-455 1144,-491"/>
<text text-anchor="start" x="1000" y="-468.8" font-family="Times New Roman,serif" font-size="14.00" fill="blue">PAKNYGDPMKTPKD:</text>
</a>
</g>
</g>
<!-- PAKNYWRTFORMCN_FITTED -->
<g id="node10" class="node"><title>PAKNYWRTFORMCN_FITTED</title>
<g id="a_node10"><a xlink:title="Fitted  value:Formal wage
FRML &lt;FIT&gt; PAKNYWRTFORMCN_FITTED = PAKNYWRTFORMCN(-1)*EXP( (-0.120164450250183-0.3*(LOG(PAKNYWRTFORMCN(-1))-LOG(PAKNYGDPFCSTXN(-1))-LOG(PAKNYGDPPOTLKN(-1)/PAKLMEMPSTRLCN(-1)))+0.2*((LOG(PAKNYWRTFORMCN(-1)))-(LOG(PAKNYWRTFORMCN(-2))))+(1-0.2)*(0.5*((LOG(PAKNYGDPFCSTXN(-1)))-(LOG(PAKNYGDPFCSTXN(-2))))+0.5*(PAKINFLEXPT/100)+((LOG(PAKNYGDPMKTPKN/PAKLMEMPSTRLCN))-(LOG(PAKNYGDPMKTPKN(-1)/PAKLMEMPSTRLCN(-1)))))-0.2*(PAKLMUNRTOTLCN-PAKLMUNRSTRLCN)/100+0.15233813938029*DURING_2000-0.183411483907703*DURING_2001) ) $">
<polygon fill="#63b8ff" stroke="black" points="1246.5,-437 891.5,-437 891.5,-401 1246.5,-401 1246.5,-437"/>
<text text-anchor="start" x="898" y="-414.8" font-family="Times New Roman,serif" font-size="14.00" fill="blue">PAKNYWRTFORMCN_FITTED:Fitted  value:Formal wage</text>
</a>
</g>
</g>
<!-- PAKGDPPCKN -->
<g id="node11" class="node"><title>PAKGDPPCKN</title>
<g id="a_node11"><a xlink:title="PAKGDPPCKN
FRML  &lt;&gt; PAKGDPPCKN = (PAKNYGDPMKTPKN/PAKSPPOPTOTL) $">
<polygon fill="#63b8ff" stroke="black" points="1123.5,-383 1014.5,-383 1014.5,-347 1123.5,-347 1123.5,-383"/>
<text text-anchor="start" x="1021" y="-360.8" font-family="Times New Roman,serif" font-size="14.00" fill="blue">PAKGDPPCKN:</text>
</a>
</g>
</g>
<!-- PAKNYGDPGAP_ -->
<g id="node12" class="node"><title>PAKNYGDPGAP_</title>
<g id="a_node12"><a xlink:title="Output Gap (% of Potential GDP)
FRML  &lt;&gt; PAKNYGDPGAP_ = ((PAKNYGDPMKTPKN/PAKNYGDPPOTLKN-1)*100) $">
<polygon fill="#63b8ff" stroke="black" points="1228.5,-329 909.5,-329 909.5,-293 1228.5,-293 1228.5,-329"/>
<text text-anchor="start" x="916" y="-306.8" font-family="Times New Roman,serif" font-size="14.00" fill="blue">PAKNYGDPGAP_:Output Gap (% of Potential GDP)</text>
</a>
</g>
</g>
<!-- PAKNEGDIFTOTKN -->
<g id="node13" class="node"><title>PAKNEGDIFTOTKN</title>
<g id="a_node13"><a xlink:title="Total Gross Capital Formation
FRML  &lt;&gt; PAKNEGDIFTOTKN = PAKNEGDIFGOVKN+PAKNEGDIFPRVKN $">
<polygon fill="#63b8ff" stroke="black" points="369,-464 55,-464 55,-428 369,-428 369,-464"/>
<text text-anchor="start" x="61" y="-441.8" font-family="Times New Roman,serif" font-size="14.00" fill="blue">PAKNEGDIFTOTKN:Total Gross Capital Formation</text>
</a>
</g>
</g>
<!-- PAKNEGDIFTOTKN&#45;&gt;PAKNYGDPMKTPKN -->
<g id="edge12" class="edge"><title>PAKNEGDIFTOTKN-&gt;PAKNYGDPMKTPKN</title>
<g id="a_edge12"><a xlink:href="bogus" xlink:title=" PAKNEGDIFTOTKN -&gt; PAKNYGDPMKTPKN Min. att. -36%  max: 366%">
<path fill="none" stroke="black" stroke-width="8" d="M356.316,-427.981C398.977,-422.618 445.882,-416.72 489.155,-411.28"/>
<polygon fill="black" stroke="black" stroke-width="8" points="490.149,-418.21 499.198,-410.017 488.403,-404.319 490.149,-418.21"/>
</a>
</g>
</g>
<!-- PAKNEADPKMAXKN -->
<g id="node14" class="node"><title>PAKNEADPKMAXKN</title>
<g id="a_node14"><a xlink:title="PAKNEADPKMAXKN
FRML &lt;Z,EXO&gt; PAKNEADPKMAXKN = (0*DUMH+((1+0.01)/(0.01+PAKDEPR))*(PAKAVDAMAGE/100)*PAKNYGDPMKTPKN + PAKNEADPKMAXKN_A)* (1-PAKNEADPKMAXKN_D)+ PAKNEADPKMAXKN_X*PAKNEADPKMAXKN_D  $">
<polygon fill="#63b8ff" stroke="black" points="1144,-275 994,-275 994,-239 1144,-239 1144,-275"/>
<text text-anchor="start" x="1000" y="-252.8" font-family="Times New Roman,serif" font-size="14.00" fill="blue">PAKNEADPKMAXKN:</text>
</a>
</g>
</g>
<!-- PAKNECONGOVTKN -->
<g id="node15" class="node"><title>PAKNECONGOVTKN</title>
<g id="a_node15"><a xlink:title="Government Consumption
FRML  &lt;&gt; PAKNECONGOVTKN = PAKNECONGOVTCN/PAKNECONGOVTXN $">
<polygon fill="#63b8ff" stroke="black" points="361.5,-410 62.5,-410 62.5,-374 361.5,-374 361.5,-410"/>
<text text-anchor="start" x="69" y="-387.8" font-family="Times New Roman,serif" font-size="14.00" fill="blue">PAKNECONGOVTKN:Government Consumption</text>
</a>
</g>
</g>
<!-- PAKNECONGOVTKN&#45;&gt;PAKNYGDPMKTPKN -->
<g id="edge7" class="edge"><title>PAKNECONGOVTKN-&gt;PAKNYGDPMKTPKN</title>
<g id="a_edge7"><a xlink:href="bogus" xlink:title=" PAKNECONGOVTKN -&gt; PAKNYGDPMKTPKN Min. att. -108%  max: 835%">
<path fill="none" stroke="black" stroke-width="8" d="M361.712,-392C390.13,-392 420.257,-392 449.82,-392"/>
<polygon fill="black" stroke="black" stroke-width="8" points="449.821,-399 459.821,-392 449.821,-385 449.821,-399"/>
</a>
</g>
</g>
<!-- PAKDISPREPKN -->
<g id="node16" class="node"><title>PAKDISPREPKN</title>
<g id="a_node16"><a xlink:title="Investment in disaster risk preparation, constant prices
FRML  &lt;&gt; PAKDISPREPKN = PAKDISPREPCN/PAKNYGDPMKTPXN $">
<polygon fill="#63b8ff" stroke="black" points="424,-356 0,-356 0,-320 424,-320 424,-356"/>
<text text-anchor="start" x="6" y="-333.8" font-family="Times New Roman,serif" font-size="14.00" fill="blue">PAKDISPREPKN:Investment in disaster risk preparation, constant prices</text>
</a>
</g>
</g>
<!-- PAKDISPREPKN&#45;&gt;PAKNYGDPMKTPKN -->
<g id="edge9" class="edge"><title>PAKDISPREPKN-&gt;PAKNYGDPMKTPKN</title>
<g id="a_edge9"><a xlink:href="bogus" xlink:title=" PAKDISPREPKN -&gt; PAKNYGDPMKTPKN Min. att. -0%  max: 0%">
<path fill="none" stroke="black" d="M356.316,-356.019C398.977,-361.382 445.882,-367.28 489.155,-372.72"/>
<polygon fill="black" stroke="black" points="488.839,-376.208 499.198,-373.983 489.713,-369.263 488.839,-376.208"/>
</a>
</g>
</g>
<!-- PAKNYWRTINFMCN_FITTED -->
<g id="node17" class="node"><title>PAKNYWRTINFMCN_FITTED</title>
<g id="a_node17"><a xlink:title="Fitted  value:Informal wage
FRML &lt;FIT&gt; PAKNYWRTINFMCN_FITTED = PAKNYWRTINFMCN(-1)*EXP( (-0.122614247140616-0.3*(LOG(PAKNYWRTINFMCN(-1))-LOG(PAKNYGDPFCSTXN(-1))-LOG(PAKNYGDPPOTLKN(-1)/PAKLMEMPSTRLCN(-1)))+0.2*((LOG(PAKNYWRTINFMCN(-1)))-(LOG(PAKNYWRTINFMCN(-2))))+(1-0.2)*(0.5*((LOG(PAKNYGDPFCSTXN(-1)))-(LOG(PAKNYGDPFCSTXN(-2))))+0.5*(PAKINFLEXPT/100)+((LOG(PAKNYGDPMKTPKN/PAKLMEMPSTRLCN))-(LOG(PAKNYGDPMKTPKN(-1)/PAKLMEMPSTRLCN(-1)))))-0.2*(PAKLMUNRTOTLCN-PAKLMUNRSTRLCN)/100+0.15347529018182*DURING_2000-0.183372342445734*DURING_2001) ) $">
<polygon fill="#63b8ff" stroke="black" points="1247,-221 891,-221 891,-185 1247,-185 1247,-221"/>
<text text-anchor="start" x="897" y="-198.8" font-family="Times New Roman,serif" font-size="14.00" fill="blue">PAKNYWRTINFMCN_FITTED:Fitted  value:Informal wage</text>
</a>
</g>
</g>
<!-- PAKNYGDPMKTPKN&#45;&gt;PAKFMLBLMTWOKN_FITTED -->
<g id="edge17" class="edge"><title>PAKNYGDPMKTPKN-&gt;PAKFMLBLMTWOKN_FITTED</title>
<g id="a_edge17"><a xlink:href="bogus" xlink:title=" PAKNYGDPMKTPKN -&gt; PAKFMLBLMTWOKN_FITTED Min. att. -360%  max: 149%">
<path fill="none" stroke="black" stroke-width="8" d="M650.664,-410.314C670.785,-466.969 740.408,-640.126 863,-716 865.504,-717.55 868.058,-719.028 870.656,-720.437"/>
<polygon fill="black" stroke="black" stroke-width="8" points="867.572,-726.722 879.652,-724.97 873.871,-714.219 867.572,-726.722"/>
</a>
</g>
</g>
<!-- PAKNYGDPMKTPKN&#45;&gt;PAKNEADPKMAXKN_FITTED -->
<g id="edge18" class="edge"><title>PAKNYGDPMKTPKN-&gt;PAKNEADPKMAXKN_FITTED</title>
<g id="a_edge18"><a xlink:href="bogus" xlink:title=" PAKNYGDPMKTPKN -&gt; PAKNEADPKMAXKN_FITTED Min. att. 100%  max: 100%">
<path fill="none" stroke="black" stroke-width="8" d="M652.947,-410.09C677.358,-460.095 753.314,-600.546 863,-662 866.068,-663.719 869.202,-665.346 872.391,-666.885"/>
<polygon fill="black" stroke="black" stroke-width="8" points="869.527,-673.273 881.52,-670.996 875.276,-660.507 869.527,-673.273"/>
</a>
</g>
</g>
<!-- PAKNYGDPMKTPKN&#45;&gt;PAKFMLBLMTWOKN -->
<g id="edge8" class="edge"><title>PAKNYGDPMKTPKN-&gt;PAKFMLBLMTWOKN</title>
<g id="a_edge8"><a xlink:href="bogus" xlink:title=" PAKNYGDPMKTPKN -&gt; PAKFMLBLMTWOKN Min. att. -360%  max: 149%">
<path fill="none" stroke="black" stroke-width="8" d="M656.429,-410.135C685.735,-452.995 765.988,-560.502 863,-608 883.151,-617.866 905.681,-624.524 928.229,-628.952"/>
<polygon fill="black" stroke="black" stroke-width="8" points="927.139,-635.869 938.232,-630.775 929.649,-622.095 927.139,-635.869"/>
</a>
</g>
</g>
<!-- PAKNYGDPMKTPKN&#45;&gt;PAKHURDAMKN -->
<g id="edge6" class="edge"><title>PAKNYGDPMKTPKN-&gt;PAKHURDAMKN</title>
<g id="a_edge6"><a xlink:href="bogus" xlink:title=" PAKNYGDPMKTPKN -&gt; PAKHURDAMKN Min. att. 0%  max: 0%">
<path fill="none" stroke="black" d="M662.065,-410.125C696.806,-444.711 778.294,-519.728 863,-554 875.066,-558.882 887.826,-562.922 900.841,-566.262"/>
<polygon fill="black" stroke="black" points="900.294,-569.731 910.837,-568.682 901.941,-562.927 900.294,-569.731"/>
</a>
</g>
</g>
<!-- PAKNYGDPMKTPKN&#45;&gt;PAKNYWRTFORMCN -->
<g id="edge11" class="edge"><title>PAKNYGDPMKTPKN-&gt;PAKNYWRTFORMCN</title>
<g id="a_edge11"><a xlink:href="bogus" xlink:title=" PAKNYGDPMKTPKN -&gt; PAKNYWRTFORMCN Min. att. -3148%  max: 101%">
<path fill="none" stroke="black" stroke-width="8" d="M673.264,-410.077C713.884,-434.687 791.136,-478.162 863,-500 889.155,-507.948 917.888,-513.556 945.352,-517.514"/>
<polygon fill="black" stroke="black" stroke-width="8" points="944.544,-524.469 955.405,-518.899 946.454,-510.6 944.544,-524.469"/>
</a>
</g>
</g>
<!-- PAKNYGDPMKTPKN&#45;&gt;PAKNYGDPMKTPKD -->
<g id="edge19" class="edge"><title>PAKNYGDPMKTPKN-&gt;PAKNYGDPMKTPKD</title>
<g id="a_edge19"><a xlink:href="bogus" xlink:title=" PAKNYGDPMKTPKN -&gt; PAKNYGDPMKTPKD Min. att. 100%  max: 100%">
<path fill="none" stroke="black" stroke-width="8" d="M709.577,-410.1C752.807,-421.624 810.972,-436.176 863,-446 902.336,-453.427 946.302,-459.507 983.399,-464.004"/>
<polygon fill="black" stroke="black" stroke-width="8" points="982.912,-470.996 993.671,-465.23 984.571,-457.094 982.912,-470.996"/>
</a>
</g>
</g>
<!-- PAKNYGDPMKTPKN&#45;&gt;PAKNYWRTFORMCN_FITTED -->
<g id="edge13" class="edge"><title>PAKNYGDPMKTPKN-&gt;PAKNYWRTFORMCN_FITTED</title>
<g id="a_edge13"><a xlink:href="bogus" xlink:title=" PAKNYGDPMKTPKN -&gt; PAKNYWRTFORMCN_FITTED Min. att. -3148%  max: 101%">
<path fill="none" stroke="black" stroke-width="8" d="M827.175,-403.646C844.953,-404.78 863.01,-405.931 880.831,-407.067"/>
<polygon fill="black" stroke="black" stroke-width="8" points="880.868,-414.084 891.293,-407.734 881.759,-400.112 880.868,-414.084"/>
</a>
</g>
</g>
<!-- PAKNYGDPMKTPKN&#45;&gt;PAKGDPPCKN -->
<g id="edge20" class="edge"><title>PAKNYGDPMKTPKN-&gt;PAKGDPPCKN</title>
<g id="a_edge20"><a xlink:href="bogus" xlink:title=" PAKNYGDPMKTPKN -&gt; PAKGDPPCKN Min. att. 100%  max: 100%">
<path fill="none" stroke="black" stroke-width="8" d="M827.175,-380.354C890.37,-376.325 957.086,-372.071 1004.23,-369.066"/>
<polygon fill="black" stroke="black" stroke-width="8" points="1004.75,-376.047 1014.28,-368.425 1003.86,-362.075 1004.75,-376.047"/>
</a>
</g>
</g>
<!-- PAKNYGDPMKTPKN&#45;&gt;PAKNYGDPGAP_ -->
<g id="edge15" class="edge"><title>PAKNYGDPMKTPKN-&gt;PAKNYGDPGAP_</title>
<g id="a_edge15"><a xlink:href="bogus" xlink:title=" PAKNYGDPMKTPKN -&gt; PAKNYGDPGAP_ Min. att. -78566%  max: 128265%">
<path fill="none" stroke="black" stroke-width="8" d="M709.577,-373.9C752.807,-362.376 810.972,-347.824 863,-338 877.044,-335.348 891.677,-332.868 906.378,-330.571"/>
<polygon fill="black" stroke="black" stroke-width="8" points="907.736,-337.445 916.559,-329.01 905.614,-323.606 907.736,-337.445"/>
</a>
</g>
</g>
<!-- PAKNYGDPMKTPKN&#45;&gt;PAKNEADPKMAXKN -->
<g id="edge4" class="edge"><title>PAKNYGDPMKTPKN-&gt;PAKNEADPKMAXKN</title>
<g id="a_edge4"><a xlink:href="bogus" xlink:title=" PAKNYGDPMKTPKN -&gt; PAKNEADPKMAXKN Min. att. 100%  max: 100%">
<path fill="none" stroke="black" stroke-width="8" d="M673.264,-373.923C713.884,-349.313 791.136,-305.838 863,-284 901.616,-272.266 945.853,-265.63 983.326,-261.879"/>
<polygon fill="black" stroke="black" stroke-width="8" points="984.411,-268.808 993.706,-260.895 983.09,-254.87 984.411,-268.808"/>
</a>
</g>
</g>
<!-- PAKNYGDPMKTPKN&#45;&gt;PAKNYWRTINFMCN_FITTED -->
<g id="edge14" class="edge"><title>PAKNYGDPMKTPKN-&gt;PAKNYWRTINFMCN_FITTED</title>
<g id="a_edge14"><a xlink:href="bogus" xlink:title=" PAKNYGDPMKTPKN -&gt; PAKNYWRTINFMCN_FITTED Min. att. -3148%  max: 101%">
<path fill="none" stroke="black" stroke-width="8" d="M662.065,-373.875C696.806,-339.289 778.294,-264.272 863,-230 868.896,-227.614 874.958,-225.43 881.135,-223.429"/>
<polygon fill="black" stroke="black" stroke-width="8" points="883.412,-230.053 890.929,-220.436 879.319,-216.665 883.412,-230.053"/>
</a>
</g>
</g>
<!-- PAKNYGDPFCSTKN -->
<g id="node19" class="node"><title>PAKNYGDPFCSTKN</title>
<g id="a_node19"><a xlink:title="GDP at factor cost
FRML  &lt;&gt; PAKNYGDPFCSTKN = PAKNYGDPMKTPKN-PAKNYTAXNINDKN $">
<polygon fill="#63b8ff" stroke="black" points="1195.5,-167 942.5,-167 942.5,-131 1195.5,-131 1195.5,-167"/>
<text text-anchor="start" x="949" y="-144.8" font-family="Times New Roman,serif" font-size="14.00" fill="blue">PAKNYGDPFCSTKN:GDP at factor cost</text>
</a>
</g>
</g>
<!-- PAKNYGDPMKTPKN&#45;&gt;PAKNYGDPFCSTKN -->
<g id="edge5" class="edge"><title>PAKNYGDPMKTPKN-&gt;PAKNYGDPFCSTKN</title>
<g id="a_edge5"><a xlink:href="bogus" xlink:title=" PAKNYGDPMKTPKN -&gt; PAKNYGDPFCSTKN Min. att. 100%  max: 100%">
<path fill="none" stroke="black" stroke-width="8" d="M656.429,-373.865C685.735,-331.005 765.988,-223.498 863,-176 884.394,-165.525 908.471,-158.667 932.402,-154.253"/>
<polygon fill="black" stroke="black" stroke-width="8" points="933.6,-161.15 942.278,-152.565 931.242,-147.35 933.6,-161.15"/>
</a>
</g>
</g>
<!-- PAKNYGDPMKTPXN -->
<g id="node20" class="node"><title>PAKNYGDPMKTPXN</title>
<g id="a_node20"><a xlink:title="GDP deflator
FRML  &lt;&gt; PAKNYGDPMKTPXN = PAKNYGDPMKTPCN/PAKNYGDPMKTPKN $">
<polygon fill="#63b8ff" stroke="black" points="1181.5,-113 956.5,-113 956.5,-77 1181.5,-77 1181.5,-113"/>
<text text-anchor="start" x="963" y="-90.8" font-family="Times New Roman,serif" font-size="14.00" fill="blue">PAKNYGDPMKTPXN:GDP deflator</text>
</a>
</g>
</g>
<!-- PAKNYGDPMKTPKN&#45;&gt;PAKNYGDPMKTPXN -->
<g id="edge2" class="edge"><title>PAKNYGDPMKTPKN-&gt;PAKNYGDPMKTPXN</title>
<g id="a_edge2"><a xlink:href="bogus" xlink:title=" PAKNYGDPMKTPKN -&gt; PAKNYGDPMKTPXN Min. att. -81%  max: 46%">
<path fill="none" stroke="black" stroke-width="8" d="M652.947,-373.91C677.358,-323.905 753.314,-183.454 863,-122 888.143,-107.913 917.678,-100.006 946.377,-95.7889"/>
<polygon fill="black" stroke="black" stroke-width="8" points="947.493,-102.702 956.485,-94.4469 945.65,-88.8241 947.493,-102.702"/>
</a>
</g>
</g>
<!-- PAKNYWRTINFMCN -->
<g id="node21" class="node"><title>PAKNYWRTINFMCN</title>
<g id="a_node21"><a xlink:title="Informal wage
FRML &lt;Z,EXO&gt; PAKNYWRTINFMCN = (PAKNYWRTINFMCN(-1)*EXP(-PAKNYWRTINFMCN_A+ (-0.122614247140616-0.3*(LOG(PAKNYWRTINFMCN(-1))-LOG(PAKNYGDPFCSTXN(-1))-LOG(PAKNYGDPPOTLKN(-1)/PAKLMEMPSTRLCN(-1)))+0.2*((LOG(PAKNYWRTINFMCN(-1)))-(LOG(PAKNYWRTINFMCN(-2))))+(1-0.2)*(0.5*((LOG(PAKNYGDPFCSTXN(-1)))-(LOG(PAKNYGDPFCSTXN(-2))))+0.5*(PAKINFLEXPT/100)+((LOG(PAKNYGDPMKTPKN/PAKLMEMPSTRLCN))-(LOG(PAKNYGDPMKTPKN(-1)/PAKLMEMPSTRLCN(-1)))))-0.2*(PAKLMUNRTOTLCN-PAKLMUNRSTRLCN)/100+0.15347529018182*DURING_2000-0.183372342445734*DURING_2001) )) * (1-PAKNYWRTINFMCN_D)+ PAKNYWRTINFMCN_X*PAKNYWRTINFMCN_D  $">
<polygon fill="#63b8ff" stroke="black" points="1183.5,-59 954.5,-59 954.5,-23 1183.5,-23 1183.5,-59"/>
<text text-anchor="start" x="961" y="-36.8" font-family="Times New Roman,serif" font-size="14.00" fill="blue">PAKNYWRTINFMCN:Informal wage</text>
</a>
</g>
</g>
<!-- PAKNYGDPMKTPKN&#45;&gt;PAKNYWRTINFMCN -->
<g id="edge22" class="edge"><title>PAKNYGDPMKTPKN-&gt;PAKNYWRTINFMCN</title>
<g id="a_edge22"><a xlink:href="bogus" xlink:title=" PAKNYGDPMKTPKN -&gt; PAKNYWRTINFMCN Min. att. -3148%  max: 101%">
<path fill="none" stroke="black" stroke-width="8" d="M650.664,-373.686C670.785,-317.031 740.408,-143.874 863,-68 887.165,-53.044 915.988,-44.756 944.279,-40.4422"/>
<polygon fill="black" stroke="black" stroke-width="8" points="945.295,-47.3684 954.254,-39.0777 943.398,-33.4976 945.295,-47.3684"/>
</a>
</g>
</g>
<!-- PAKNEGDISTKBKN -->
<g id="node22" class="node"><title>PAKNEGDISTKBKN</title>
<g id="a_node22"><a xlink:title="Change in Inventories
Exogen">
<polygon fill="yellow" stroke="black" points="343,-302 81,-302 81,-266 343,-266 343,-302"/>
<text text-anchor="start" x="87" y="-279.8" font-family="Times New Roman,serif" font-size="14.00" fill="blue">PAKNEGDISTKBKN:Change in Inventories</text>
</a>
</g>
</g>
<!-- PAKNEGDISTKBKN&#45;&gt;PAKNYGDPMKTPKN -->
<g id="edge10" class="edge"><title>PAKNEGDISTKBKN-&gt;PAKNYGDPMKTPKN</title>
<g id="a_edge10"><a xlink:href="bogus" xlink:title=" PAKNEGDISTKBKN -&gt; PAKNYGDPMKTPKN Min. att. -0%  max: 0%">
<path fill="none" stroke="black" d="M343.02,-295.914C369.998,-299.702 398.09,-304.628 424,-311 483.659,-325.671 549.425,-351.439 593.06,-369.976"/>
<polygon fill="black" stroke="black" points="591.726,-373.212 602.296,-373.932 594.482,-366.778 591.726,-373.212"/>
</a>
</g>
</g>
<!-- PAKNEEXPGNFSKN -->
<g id="node23" class="node"><title>PAKNEEXPGNFSKN</title>
<g id="a_node23"><a xlink:title="Exports (G&amp;S)
FRML &lt;Z,EXO&gt; PAKNEEXPGNFSKN = (PAKNEEXPGNFSKN(-1)*EXP(-PAKNEEXPGNFSKN_A+ (-0.35*(LOG(PAKNEEXPGNFSKN(-1))-LOG(PAKXMKT(-1))-0.6*LOG(PAKNEEXPGNFSXN(-1)/(PAKNYGDPFCSTXN(-1))))+1*((LOG(PAKXMKT))-(LOG(PAKXMKT(-1))))+0.3*((LOG(PAKNEEXPGNFSXN/(PAKNYGDPFCSTXN)))-(LOG(PAKNEEXPGNFSXN(-1)/(PAKNYGDPFCSTXN(-1)))))+4.38465374402991-0.237469889780178*DURING_1999-0.230689812873392*DURING_1998+0.320967524344658*DURING_1991+0.250252413901575*DURING_1986) )) * (1-PAKNEEXPGNFSKN_D)+ PAKNEEXPGNFSKN_X*PAKNEEXPGNFSKN_D  $">
<polygon fill="#63b8ff" stroke="black" points="327.5,-248 96.5,-248 96.5,-212 327.5,-212 327.5,-248"/>
<text text-anchor="start" x="103" y="-225.8" font-family="Times New Roman,serif" font-size="14.00" fill="blue">PAKNEEXPGNFSKN:Exports (G&amp;S)</text>
</a>
</g>
</g>
<!-- PAKNEEXPGNFSKN&#45;&gt;PAKNYGDPMKTPKN -->
<g id="edge1" class="edge"><title>PAKNEEXPGNFSKN-&gt;PAKNYGDPMKTPKN</title>
<g id="a_edge1"><a xlink:href="bogus" xlink:title=" PAKNEEXPGNFSKN -&gt; PAKNYGDPMKTPKN Min. att. -10%  max: 0%">
<path fill="none" stroke="black" d="M327.585,-235.707C359.447,-239.683 393.626,-246.244 424,-257 497.381,-282.987 572.294,-336.314 612.522,-367.606"/>
<polygon fill="black" stroke="black" points="610.542,-370.502 620.567,-373.931 614.869,-364.999 610.542,-370.502"/>
</a>
</g>
</g>
<!-- PAKNYGDPDISCKN -->
<g id="node24" class="node"><title>PAKNYGDPDISCKN</title>
<g id="a_node24"><a xlink:title="Statistical Discrepency (Expenditure Side)
Exogen">
<polygon fill="yellow" stroke="black" points="401,-194 23,-194 23,-158 401,-158 401,-194"/>
<text text-anchor="start" x="29" y="-171.8" font-family="Times New Roman,serif" font-size="14.00" fill="blue">PAKNYGDPDISCKN:Statistical Discrepency (Expenditure Side)</text>
</a>
</g>
</g>
<!-- PAKNYGDPDISCKN&#45;&gt;PAKNYGDPMKTPKN -->
<g id="edge3" class="edge"><title>PAKNYGDPDISCKN-&gt;PAKNYGDPMKTPKN</title>
<g id="a_edge3"><a xlink:href="bogus" xlink:title=" PAKNYGDPDISCKN -&gt; PAKNYGDPMKTPKN Min. att. -0%  max: 0%">
<path fill="none" stroke="black" d="M400.731,-194.039C408.706,-196.675 416.498,-199.648 424,-203 509.218,-241.077 586.002,-323.668 621.583,-365.935"/>
<polygon fill="black" stroke="black" points="619.057,-368.371 628.14,-373.825 624.44,-363.897 619.057,-368.371"/>
</a>
</g>
</g>
</g>
</svg>