<svg xmlns="http://www.w3.org/2000/svg" xmlns:xlink="http://www.w3.org/1999/xlink" width="432pt" height="202pt" viewBox="0.00 0.00 432.00 202.01">
<g id="graph0" class="graph" transform="scale(0.245455 0.245455) rotate(0) translate(4 819)">
<title>TD</title>
<polygon fill="white" stroke="none" points="-4,4 -4,-819 1756,-819 1756,4 -4,4"/>
<text text-anchor="middle" x="876" y="-7.8" font-family="Times New Roman,serif" font-size="14.00">PAKNECONPRVTKN</text>
<!-- PAKSMAGRFSNGKN -->
<g id="node1" class="node"><title>PAKSMAGRFSNGKN</title>
<g id="a_node1"><a xlink:title="PAKSMAGRFSNGKN
FRML  &lt;&gt; PAKSMAGRFSNGKN = ((1+1.92407325889309)*(0.00246195499563977*PAKNECONPRVTKN+0*PAKNECONGOVTKN+0*PAKNEGDIFTOTKN+0.00130433854799597*PAKNEEXPGNFSKN+0.00497657560072267*PAKNEGDISTKBKN)-1.14989260682794E-05*PAKNEIMPGNFSKN-2.46467171367829E-07*PAKNYTAXNINDKN-26993)/(1+0.506095544048804) $">
<polygon fill="#63b8ff" stroke="black" points="1619.5,-815 1469.5,-815 1469.5,-779 1619.5,-779 1619.5,-815"/>
<text text-anchor="start" x="1475.5" y="-792.8" font-family="Times New Roman,serif" font-size="14.00" fill="blue">PAKSMAGRFSNGKN:</text>
</a>
</g>
</g>
<!-- PAKSMINDMNGSKN -->
<g id="node2" class="node"><title>PAKSMINDMNGSKN</title>
<g id="a_node2"><a xlink:title="PAKSMINDMNGSKN
FRML  &lt;&gt; PAKSMINDMNGSKN = ((1+6.96158341862144)*(0.0132800565666619*PAKNECONPRVTKN+0*PAKNECONGOVTKN+0*PAKNEGDIFTOTKN+0.00704674623894759*PAKNEEXPGNFSKN+0.024122890632682*PAKNEGDISTKBKN)-0.134221966110302*PAKNEIMPGNFSKN-0.500981557895139*PAKNYTAXNINDKN-123652.869264758)/(1+0.200800622280983) $">
<polygon fill="#63b8ff" stroke="black" points="1618.5,-761 1470.5,-761 1470.5,-725 1618.5,-725 1618.5,-761"/>
<text text-anchor="start" x="1476.5" y="-738.8" font-family="Times New Roman,serif" font-size="14.00" fill="blue">PAKSMINDMNGSKN:</text>
</a>
</g>
</g>
<!-- PAKSMSRVFINSKN -->
<g id="node3" class="node"><title>PAKSMSRVFINSKN</title>
<g id="a_node3"><a xlink:title="PAKSMSRVFINSKN
FRML  &lt;&gt; PAKSMSRVFINSKN = ((1+1.04148314760779)*(0.0520379651885469*PAKNECONPRVTKN+0*PAKNECONGOVTKN+0*PAKNEGDIFTOTKN+0.00879145012359898*PAKNEEXPGNFSKN+0*PAKNEGDISTKBKN)-0.00594416979264236*PAKNEIMPGNFSKN-0.000103762679145856*PAKNYTAXNINDKN-0)/(1+0.24687745523084) $">
<polygon fill="#63b8ff" stroke="black" points="1615.5,-707 1473.5,-707 1473.5,-671 1615.5,-671 1615.5,-707"/>
<text text-anchor="start" x="1479.5" y="-684.8" font-family="Times New Roman,serif" font-size="14.00" fill="blue">PAKSMSRVFINSKN:</text>
</a>
</g>
</g>
<!-- PAKNECONPRVTKN -->
<g id="node4" class="node"><title>PAKNECONPRVTKN</title>
<g id="a_node4"><a xlink:title="Household Consumption
FRML &lt;Z,EXO&gt; PAKNECONPRVTKN = (PAKNECONPRVTKN(-1)*EXP(-PAKNECONPRVTKN_A+ (-0.2*(LOG(PAKNECONPRVTKN(-1))-LOG((PAKNYYWBTOTLCN(-1)*(1-PAKGGREVDRCTXN(-1)/100))/PAKNECONPRVTXN(-1)))+1*((LOG((PAKNYYWBTOTLCN*(1-PAKGGREVDRCTXN/100))/PAKNECONPRVTXN))-(LOG((PAKNYYWBTOTLCN(-1)*(1-PAKGGREVDRCTXN(-1)/100))/PAKNECONPRVTXN(-1))))+0.0303228629698929+0.0163839011059956*DURING_2010-0.3*(PAKFMLBLPOLYXN/100-((LOG(PAKNECONPRVTXN))-(LOG(PAKNECONPRVTXN(-1)))))) )) * (1-PAKNECONPRVTKN_D)+ PAKNECONPRVTKN_X*PAKNECONPRVTKN_D  $">
<polygon fill="red" stroke="black" points="1301,-437 1013,-437 1013,-401 1301,-401 1301,-437"/>
<text text-anchor="start" x="1019" y="-414.8" font-family="Times New Roman,serif" font-size="14.00" fill="blue">PAKNECONPRVTKN:Household Consumption</text>
</a>
</g>
</g>
<!-- PAKNECONPRVTKN&#45;&gt;PAKSMAGRFSNGKN -->
<g id="edge12" class="edge"><title>PAKNECONPRVTKN-&gt;PAKSMAGRFSNGKN</title>
<g id="a_edge12"><a xlink:href="bogus" xlink:title=" PAKNECONPRVTKN -&gt; PAKSMAGRFSNGKN Min. att. -29%  max: 170%">
<path fill="none" stroke="black" stroke-width="8" d="M1161.14,-437.011C1172.47,-496.145 1217.12,-685.392 1337,-770 1371.99,-794.698 1418.82,-802.32 1459.03,-803.381"/>
<polygon fill="black" stroke="black" stroke-width="8" points="1459.01,-810.381 1469.1,-803.516 1459.2,-796.382 1459.01,-810.381"/>
</a>
</g>
</g>
<!-- PAKNECONPRVTKN&#45;&gt;PAKSMINDMNGSKN -->
<g id="edge22" class="edge"><title>PAKNECONPRVTKN-&gt;PAKSMINDMNGSKN</title>
<g id="a_edge22"><a xlink:href="bogus" xlink:title=" PAKNECONPRVTKN -&gt; PAKSMINDMNGSKN Min. att. -1229%  max: 1716%">
<path fill="none" stroke="black" stroke-width="8" d="M1162.9,-437.238C1178.27,-490.535 1230.94,-646.634 1337,-716 1372.98,-739.535 1420.1,-747.031 1460.24,-748.31"/>
<polygon fill="black" stroke="black" stroke-width="8" points="1460.14,-755.309 1470.28,-748.507 1460.42,-741.312 1460.14,-755.309"/>
</a>
</g>
</g>
<!-- PAKNECONPRVTKN&#45;&gt;PAKSMSRVFINSKN -->
<g id="edge8" class="edge"><title>PAKNECONPRVTKN-&gt;PAKSMSRVFINSKN</title>
<g id="a_edge8"><a xlink:href="bogus" xlink:title=" PAKNECONPRVTKN -&gt; PAKSMSRVFINSKN Min. att. -104%  max: 125%">
<path fill="none" stroke="black" stroke-width="8" d="M1165.32,-437.251C1185.07,-483.83 1244.26,-607.291 1337,-662 1374.61,-684.185 1422.69,-691.447 1462.99,-692.929"/>
<polygon fill="black" stroke="black" stroke-width="8" points="1462.88,-699.929 1473.06,-693.187 1463.24,-685.933 1462.88,-699.929"/>
</a>
</g>
</g>
<!-- PAKNECONENGYKN -->
<g id="node5" class="node"><title>PAKNECONENGYKN</title>
<g id="a_node5"><a xlink:title="Energy Consumption
FRML  &lt;&gt; PAKNECONENGYKN = PAKNECONENGYSH**(PAKCESENGYCON)*(PAKNECONPRVTKN*(PAKNECONPRVTXN/PAKNECONENGYXN)**(PAKCESENGYCON)) $">
<polygon fill="#63b8ff" stroke="black" points="1678.5,-653 1410.5,-653 1410.5,-617 1678.5,-617 1678.5,-653"/>
<text text-anchor="start" x="1416.5" y="-630.8" font-family="Times New Roman,serif" font-size="14.00" fill="blue">PAKNECONENGYKN:Energy Consumption</text>
</a>
</g>
</g>
<!-- PAKNECONPRVTKN&#45;&gt;PAKNECONENGYKN -->
<g id="edge4" class="edge"><title>PAKNECONPRVTKN-&gt;PAKNECONENGYKN</title>
<g id="a_edge4"><a xlink:href="bogus" xlink:title=" PAKNECONPRVTKN -&gt; PAKNECONENGYKN Min. att. -699%  max: 3894%">
<path fill="none" stroke="black" stroke-width="8" d="M1168.94,-437.157C1193.47,-476.07 1257.07,-567.269 1337,-608 1356.49,-617.929 1378.29,-624.674 1400.23,-629.184"/>
<polygon fill="black" stroke="black" stroke-width="8" points="1399.18,-636.11 1410.32,-631.103 1401.8,-622.357 1399.18,-636.11"/>
</a>
</g>
</g>
<!-- PAKSMAGRFSTYKN -->
<g id="node6" class="node"><title>PAKSMAGRFSTYKN</title>
<g id="a_node6"><a xlink:title="PAKSMAGRFSTYKN
FRML  &lt;&gt; PAKSMAGRFSTYKN = ((1+0.195965019358753)*(0.010131919293849*PAKNECONPRVTKN+0*PAKNECONGOVTKN+0*PAKNEGDIFTOTKN+0.000136733767007103*PAKNEEXPGNFSKN+0.0199955288980741*PAKNEGDISTKBKN)-0.00076829563200478*PAKNEIMPGNFSKN-0.00172030587371022*PAKNYTAXNINDKN-65421)/(1+0.319587584852584) $">
<polygon fill="#63b8ff" stroke="black" points="1618.5,-599 1470.5,-599 1470.5,-563 1618.5,-563 1618.5,-599"/>
<text text-anchor="start" x="1476.5" y="-576.8" font-family="Times New Roman,serif" font-size="14.00" fill="blue">PAKSMAGRFSTYKN:</text>
</a>
</g>
</g>
<!-- PAKNECONPRVTKN&#45;&gt;PAKSMAGRFSTYKN -->
<g id="edge14" class="edge"><title>PAKNECONPRVTKN-&gt;PAKSMAGRFSTYKN</title>
<g id="a_edge14"><a xlink:href="bogus" xlink:title=" PAKNECONPRVTKN -&gt; PAKSMAGRFSTYKN Min. att. 96%  max: 372%">
<path fill="none" stroke="black" stroke-width="8" d="M1175.32,-437.132C1205.17,-467.118 1269.63,-526.455 1337,-554 1375.71,-569.826 1421.59,-576.862 1460.27,-579.822"/>
<polygon fill="black" stroke="black" stroke-width="8" points="1460,-586.819 1470.45,-580.521 1460.96,-572.852 1460,-586.819"/>
</a>
</g>
</g>
<!-- PAKSMAGRCRPSKN -->
<g id="node10" class="node"><title>PAKSMAGRCRPSKN</title>
<g id="a_node10"><a xlink:title="PAKSMAGRCRPSKN
FRML  &lt;&gt; PAKSMAGRCRPSKN = ((1+2.09928590574241)*(0.144287620838506*PAKNECONPRVTKN+0*PAKNECONGOVTKN+0*PAKNEGDIFTOTKN+0.0572678299039023*PAKNEEXPGNFSKN+0.267381669083985*PAKNEGDISTKBKN)-0.0736247088197363*PAKNEIMPGNFSKN-0.0407034395686347*PAKNYTAXNINDKN-906311)/(1+0.396041694659877) $">
<polygon fill="#63b8ff" stroke="black" points="1619,-545 1470,-545 1470,-509 1619,-509 1619,-545"/>
<text text-anchor="start" x="1476.5" y="-522.8" font-family="Times New Roman,serif" font-size="14.00" fill="blue">PAKSMAGRCRPSKN:</text>
</a>
</g>
</g>
<!-- PAKNECONPRVTKN&#45;&gt;PAKSMAGRCRPSKN -->
<g id="edge6" class="edge"><title>PAKNECONPRVTKN-&gt;PAKSMAGRCRPSKN</title>
<g id="a_edge6"><a xlink:href="bogus" xlink:title=" PAKNECONPRVTKN -&gt; PAKSMAGRCRPSKN Min. att. -25%  max: 208%">
<path fill="none" stroke="black" stroke-width="8" d="M1190.21,-437.1C1225.22,-455.92 1283.36,-484.723 1337,-500 1376.58,-511.274 1421.79,-517.86 1459.8,-521.698"/>
<polygon fill="black" stroke="black" stroke-width="8" points="1459.18,-528.671 1469.8,-522.663 1460.52,-514.736 1459.18,-528.671"/>
</a>
</g>
</g>
<!-- PAKNECONPRVTCN -->
<g id="node12" class="node"><title>PAKNECONPRVTCN</title>
<g id="a_node12"><a xlink:title="Household demand
FRML  &lt;&gt; PAKNECONPRVTCN = PAKNECONPRVTKN*PAKNECONPRVTXN $">
<polygon fill="#63b8ff" stroke="black" points="1672.5,-491 1416.5,-491 1416.5,-455 1672.5,-455 1672.5,-491"/>
<text text-anchor="start" x="1422.5" y="-468.8" font-family="Times New Roman,serif" font-size="14.00" fill="blue">PAKNECONPRVTCN:Household demand</text>
</a>
</g>
</g>
<!-- PAKNECONPRVTKN&#45;&gt;PAKNECONPRVTCN -->
<g id="edge20" class="edge"><title>PAKNECONPRVTKN-&gt;PAKNECONPRVTCN</title>
<g id="a_edge20"><a xlink:href="bogus" xlink:title=" PAKNECONPRVTKN -&gt; PAKNECONPRVTCN Min. att. -720%  max: 6450%">
<path fill="none" stroke="black" stroke-width="8" d="M1275.42,-437.05C1295.94,-440.107 1317.08,-443.196 1337,-446 1359.38,-449.15 1383.14,-452.372 1406.27,-455.442"/>
<polygon fill="black" stroke="black" stroke-width="8" points="1405.66,-462.422 1416.49,-456.794 1407.5,-448.543 1405.66,-462.422"/>
</a>
</g>
</g>
<!-- PAKSMINDOTHRTKN -->
<g id="node13" class="node"><title>PAKSMINDOTHRTKN</title>
<g id="a_node13"><a xlink:title="PAKSMINDOTHRTKN
FRML  &lt;&gt; PAKSMINDOTHRTKN = ((1+0.483473985412524)*(0.40172973397176*PAKNECONPRVTKN+0*PAKNECONGOVTKN+0.560459287907094*PAKNEGDIFTOTKN+0.719299486591763*PAKNEEXPGNFSKN+0.620970563578771*PAKNEGDISTKBKN)-0.606734386430279*PAKNEIMPGNFSKN-0.866045585295928*PAKNYTAXNINDKN-2983275.63714814)/(1+2.46379868577176) $">
<polygon fill="#63b8ff" stroke="black" points="1622,-437 1467,-437 1467,-401 1622,-401 1622,-437"/>
<text text-anchor="start" x="1473.5" y="-414.8" font-family="Times New Roman,serif" font-size="14.00" fill="blue">PAKSMINDOTHRTKN:</text>
</a>
</g>
</g>
<!-- PAKNECONPRVTKN&#45;&gt;PAKSMINDOTHRTKN -->
<g id="edge1" class="edge"><title>PAKNECONPRVTKN-&gt;PAKSMINDOTHRTKN</title>
<g id="a_edge1"><a xlink:href="bogus" xlink:title=" PAKNECONPRVTKN -&gt; PAKSMINDOTHRTKN Min. att. -11779%  max: 971%">
<path fill="none" stroke="black" stroke-width="8" d="M1301.27,-419C1353.44,-419 1410.79,-419 1456.59,-419"/>
<polygon fill="black" stroke="black" stroke-width="8" points="1456.78,-426 1466.78,-419 1456.78,-412 1456.78,-426"/>
</a>
</g>
</g>
<!-- PAKSMSRVTRNSKN -->
<g id="node14" class="node"><title>PAKSMSRVTRNSKN</title>
<g id="a_node14"><a xlink:title="PAKSMSRVTRNSKN
FRML  &lt;&gt; PAKSMSRVTRNSKN = ((1+0.301074862860981)*(0.204687752761289*PAKNECONPRVTKN+0*PAKNECONGOVTKN+0*PAKNEGDIFTOTKN+0.0551862611209703*PAKNEEXPGNFSKN+0*PAKNEGDISTKBKN)--0.0392641863572605*PAKNEIMPGNFSKN-0.0174996684619017*PAKNYTAXNINDKN-0)/(1+1.11680986862739) $">
<polygon fill="#63b8ff" stroke="black" points="1618.5,-383 1470.5,-383 1470.5,-347 1618.5,-347 1618.5,-383"/>
<text text-anchor="start" x="1476.5" y="-360.8" font-family="Times New Roman,serif" font-size="14.00" fill="blue">PAKSMSRVTRNSKN:</text>
</a>
</g>
</g>
<!-- PAKNECONPRVTKN&#45;&gt;PAKSMSRVTRNSKN -->
<g id="edge18" class="edge"><title>PAKNECONPRVTKN-&gt;PAKSMSRVTRNSKN</title>
<g id="a_edge18"><a xlink:href="bogus" xlink:title=" PAKNECONPRVTKN -&gt; PAKSMSRVTRNSKN Min. att. 87%  max: 593%">
<path fill="none" stroke="black" stroke-width="8" d="M1275.42,-400.95C1295.94,-397.893 1317.08,-394.804 1337,-392 1377.59,-386.286 1422.73,-380.338 1460.42,-375.483"/>
<polygon fill="black" stroke="black" stroke-width="8" points="1461.32,-382.426 1470.34,-374.209 1459.53,-368.54 1461.32,-382.426"/>
</a>
</g>
</g>
<!-- PAKNYGDPMKTPKN -->
<g id="node16" class="node"><title>PAKNYGDPMKTPKN</title>
<g id="a_node16"><a xlink:title="GDP Expenditure side at market prices
FRML  &lt;&gt; PAKNYGDPMKTPKN = PAKNECONPRVTKN+PAKNECONGOVTKN+PAKNEGDIFTOTKN+PAKNEGDISTKBKN+PAKNEEXPGNFSKN-PAKNEIMPGNFSKN+PAKNYGDPDISCKN+PAKADAP*PAKDISPREPKN $">
<polygon fill="#63b8ff" stroke="black" points="1728,-329 1361,-329 1361,-293 1728,-293 1728,-329"/>
<text text-anchor="start" x="1367.5" y="-306.8" font-family="Times New Roman,serif" font-size="14.00" fill="blue">PAKNYGDPMKTPKN:GDP Expenditure side at market prices</text>
</a>
</g>
</g>
<!-- PAKNECONPRVTKN&#45;&gt;PAKNYGDPMKTPKN -->
<g id="edge23" class="edge"><title>PAKNECONPRVTKN-&gt;PAKNYGDPMKTPKN</title>
<g id="a_edge23"><a xlink:href="bogus" xlink:title=" PAKNECONPRVTKN -&gt; PAKNYGDPMKTPKN Min. att. -1557%  max: 290%">
<path fill="none" stroke="black" stroke-width="8" d="M1190.21,-400.9C1225.22,-382.08 1283.36,-353.277 1337,-338 1345.75,-335.509 1354.77,-333.247 1363.92,-331.192"/>
<polygon fill="black" stroke="black" stroke-width="8" points="1365.6,-337.991 1373.91,-329.044 1362.66,-324.304 1365.6,-337.991"/>
</a>
</g>
</g>
<!-- PAKNECONPRVTKN_FITTED -->
<g id="node17" class="node"><title>PAKNECONPRVTKN_FITTED</title>
<g id="a_node17"><a xlink:title="Fitted  value:Household Consumption
FRML &lt;FIT&gt; PAKNECONPRVTKN_FITTED = PAKNECONPRVTKN(-1)*EXP( (-0.2*(LOG(PAKNECONPRVTKN(-1))-LOG((PAKNYYWBTOTLCN(-1)*(1-PAKGGREVDRCTXN(-1)/100))/PAKNECONPRVTXN(-1)))+1*((LOG((PAKNYYWBTOTLCN*(1-PAKGGREVDRCTXN/100))/PAKNECONPRVTXN))-(LOG((PAKNYYWBTOTLCN(-1)*(1-PAKGGREVDRCTXN(-1)/100))/PAKNECONPRVTXN(-1))))+0.0303228629698929+0.0163839011059956*DURING_2010-0.3*(PAKFMLBLPOLYXN/100-((LOG(PAKNECONPRVTXN))-(LOG(PAKNECONPRVTXN(-1)))))) ) $">
<polygon fill="#63b8ff" stroke="black" points="1752,-275 1337,-275 1337,-239 1752,-239 1752,-275"/>
<text text-anchor="start" x="1343.5" y="-252.8" font-family="Times New Roman,serif" font-size="14.00" fill="blue">PAKNECONPRVTKN_FITTED:Fitted  value:Household Consumption</text>
</a>
</g>
</g>
<!-- PAKNECONPRVTKN&#45;&gt;PAKNECONPRVTKN_FITTED -->
<g id="edge19" class="edge"><title>PAKNECONPRVTKN-&gt;PAKNECONPRVTKN_FITTED</title>
<g id="a_edge19"><a xlink:href="bogus" xlink:title=" PAKNECONPRVTKN -&gt; PAKNECONPRVTKN_FITTED Min. att. -786%  max: 175%">
<path fill="none" stroke="black" stroke-width="8" d="M1175.32,-400.868C1205.17,-370.882 1269.63,-311.545 1337,-284 1342.18,-281.884 1347.48,-279.924 1352.88,-278.111"/>
<polygon fill="black" stroke="black" stroke-width="8" points="1355.28,-284.695 1362.69,-275.002 1351.05,-271.349 1355.28,-284.695"/>
</a>
</g>
</g>
<!-- PAKNECONOTHRKN -->
<g id="node18" class="node"><title>PAKNECONOTHRKN</title>
<g id="a_node18"><a xlink:title="Other Consumption
FRML  &lt;&gt; PAKNECONOTHRKN = PAKNECONOTHRSH**(PAKCESENGYCON)*(PAKNECONPRVTKN*(PAKNECONPRVTXN/PAKNECONOTHRXN)**(PAKCESENGYCON)) $">
<polygon fill="#63b8ff" stroke="black" points="1675,-221 1414,-221 1414,-185 1675,-185 1675,-221"/>
<text text-anchor="start" x="1420.5" y="-198.8" font-family="Times New Roman,serif" font-size="14.00" fill="blue">PAKNECONOTHRKN:Other Consumption</text>
</a>
</g>
</g>
<!-- PAKNECONPRVTKN&#45;&gt;PAKNECONOTHRKN -->
<g id="edge11" class="edge"><title>PAKNECONPRVTKN-&gt;PAKNECONOTHRKN</title>
<g id="a_edge11"><a xlink:href="bogus" xlink:title=" PAKNECONPRVTKN -&gt; PAKNECONOTHRKN Min. att. -12062%  max: 323%">
<path fill="none" stroke="black" stroke-width="8" d="M1168.94,-400.843C1193.47,-361.93 1257.07,-270.731 1337,-230 1357.58,-219.514 1380.74,-212.58 1403.92,-208.078"/>
<polygon fill="black" stroke="black" stroke-width="8" points="1405.24,-214.953 1413.85,-206.295 1402.77,-201.173 1405.24,-214.953"/>
</a>
</g>
</g>
<!-- PAKSMENGTOTLKN -->
<g id="node19" class="node"><title>PAKSMENGTOTLKN</title>
<g id="a_node19"><a xlink:title="PAKSMENGTOTLKN
FRML  &lt;&gt; PAKSMENGTOTLKN = ((1+1.65868473220397)*(0.0775261497897936*PAKNECONPRVTKN+0*PAKNECONGOVTKN+0*PAKNEGDIFTOTKN+0.0217448978257548*PAKNEEXPGNFSKN+0.0458991644104248*PAKNEGDISTKBKN)-0.11894699850705*PAKNEIMPGNFSKN--0.50579180838529*PAKNYTAXNINDKN-0)/(1+5.65663938581514) $">
<polygon fill="#63b8ff" stroke="black" points="1618.5,-167 1470.5,-167 1470.5,-131 1618.5,-131 1618.5,-167"/>
<text text-anchor="start" x="1476.5" y="-144.8" font-family="Times New Roman,serif" font-size="14.00" fill="blue">PAKSMENGTOTLKN:</text>
</a>
</g>
</g>
<!-- PAKNECONPRVTKN&#45;&gt;PAKSMENGTOTLKN -->
<g id="edge15" class="edge"><title>PAKNECONPRVTKN-&gt;PAKSMENGTOTLKN</title>
<g id="a_edge15"><a xlink:href="bogus" xlink:title=" PAKNECONPRVTKN -&gt; PAKSMENGTOTLKN Min. att. -14%  max: 2187%">
<path fill="none" stroke="black" stroke-width="8" d="M1165.32,-400.749C1185.07,-354.17 1244.26,-230.709 1337,-176 1373.67,-154.369 1420.29,-146.925 1459.96,-145.193"/>
<polygon fill="black" stroke="black" stroke-width="8" points="1460.38,-152.183 1470.15,-144.865 1459.93,-138.19 1460.38,-152.183"/>
</a>
</g>
</g>
<!-- PAKNEGDETTOTKN -->
<g id="node20" class="node"><title>PAKNEGDETTOTKN</title>
<g id="a_node20"><a xlink:title="GDE
FRML  &lt;&gt; PAKNEGDETTOTKN = (PAKNECONPRVTKN+PAKNECONGOVTKN+PAKNEGDIFTOTKN+PAKNEGDISTKBKN+PAKNYGDPDISCKN) $">
<polygon fill="#63b8ff" stroke="black" points="1632,-113 1457,-113 1457,-77 1632,-77 1632,-113"/>
<text text-anchor="start" x="1463.5" y="-90.8" font-family="Times New Roman,serif" font-size="14.00" fill="blue">PAKNEGDETTOTKN:GDE</text>
</a>
</g>
</g>
<!-- PAKNECONPRVTKN&#45;&gt;PAKNEGDETTOTKN -->
<g id="edge9" class="edge"><title>PAKNECONPRVTKN-&gt;PAKNEGDETTOTKN</title>
<g id="a_edge9"><a xlink:href="bogus" xlink:title=" PAKNECONPRVTKN -&gt; PAKNEGDETTOTKN Min. att. -2284%  max: 2484%">
<path fill="none" stroke="black" stroke-width="8" d="M1162.9,-400.762C1178.27,-347.465 1230.94,-191.366 1337,-122 1368.95,-101.107 1409.66,-92.8541 1446.48,-90.3697"/>
<polygon fill="black" stroke="black" stroke-width="8" points="1447.15,-97.3442 1456.75,-89.8162 1446.39,-83.3645 1447.15,-97.3442"/>
</a>
</g>
</g>
<!-- PAKSMSRVHSNGKN -->
<g id="node22" class="node"><title>PAKSMSRVHSNGKN</title>
<g id="a_node22"><a xlink:title="PAKSMSRVHSNGKN
FRML  &lt;&gt; PAKSMSRVHSNGKN = ((1+0.782809577554843)*(0.0647364660896117*PAKNECONPRVTKN+0*PAKNECONGOVTKN+0.00605333595533851*PAKNEGDIFTOTKN+0.03048358523237*PAKNEEXPGNFSKN+0*PAKNEGDISTKBKN)-0.0244768173208691*PAKNEIMPGNFSKN-0.0684093628903126*PAKNYTAXNINDKN-0)/(1+0.150771193398883) $">
<polygon fill="#63b8ff" stroke="black" points="1619,-59 1470,-59 1470,-23 1619,-23 1619,-59"/>
<text text-anchor="start" x="1476.5" y="-36.8" font-family="Times New Roman,serif" font-size="14.00" fill="blue">PAKSMSRVHSNGKN:</text>
</a>
</g>
</g>
<!-- PAKNECONPRVTKN&#45;&gt;PAKSMSRVHSNGKN -->
<g id="edge13" class="edge"><title>PAKNECONPRVTKN-&gt;PAKSMSRVHSNGKN</title>
<g id="a_edge13"><a xlink:href="bogus" xlink:title=" PAKNECONPRVTKN -&gt; PAKSMSRVHSNGKN Min. att. 34%  max: 147%">
<path fill="none" stroke="black" stroke-width="8" d="M1161.14,-400.989C1172.47,-341.855 1217.12,-152.608 1337,-68 1372.13,-43.2062 1419.18,-35.6212 1459.5,-34.6072"/>
<polygon fill="black" stroke="black" stroke-width="8" points="1459.68,-41.6056 1469.59,-34.4845 1459.51,-27.6066 1459.68,-41.6056"/>
</a>
</g>
</g>
<!-- PAKLMEMPTOTLCN -->
<g id="node7" class="node"><title>PAKLMEMPTOTLCN</title>
<g id="a_node7"><a xlink:title="Employment
FRML &lt;Z,EXO&gt; PAKLMEMPTOTLCN = (PAKLMEMPTOTLCN(-1)*EXP(-PAKLMEMPTOTLCN_A+ (-0.345624644563667*(LOG(PAKLMEMPTOTLCN(-1))-LOG(PAKLMEMPSTRLCN(-1)))-0.1*(((LOG(PAKNYWRTTOTLCN/PAKNYGDPFCSTXN))-(LOG(PAKNYWRTTOTLCN(-1)/PAKNYGDPFCSTXN(-1))))-((LOG(PAKNYGDPPOTLKN/PAKLMEMPSTRLCN))-(LOG(PAKNYGDPPOTLKN(-1)/PAKLMEMPSTRLCN(-1)))))-0.0011790007645121+((LOG(PAKLMEMPSTRLCN))-(LOG(PAKLMEMPSTRLCN(-1))))+0.175412878170024*PAKNYGDPGAP_/100+0.0369790799942338*DURING_2010) )) * (1-PAKLMEMPTOTLCN_D)+ PAKLMEMPTOTLCN_X*PAKLMEMPTOTLCN_D  $">
<polygon fill="#63b8ff" stroke="black" points="602,-547 383,-547 383,-511 602,-511 602,-547"/>
<text text-anchor="start" x="389.5" y="-524.8" font-family="Times New Roman,serif" font-size="14.00" fill="blue">PAKLMEMPTOTLCN:Employment</text>
</a>
</g>
</g>
<!-- PAKNYYWBTOTLCN -->
<g id="node15" class="node"><title>PAKNYYWBTOTLCN</title>
<g id="a_node15"><a xlink:title="Economy-wide wage bill
FRML  &lt;&gt; PAKNYYWBTOTLCN = PAKNYWRTTOTLCN*PAKLMEMPTOTLCN $">
<polygon fill="#63b8ff" stroke="black" points="977,-493 688,-493 688,-457 977,-457 977,-493"/>
<text text-anchor="start" x="694.5" y="-470.8" font-family="Times New Roman,serif" font-size="14.00" fill="blue">PAKNYYWBTOTLCN:Economy-wide wage bill</text>
</a>
</g>
</g>
<!-- PAKLMEMPTOTLCN&#45;&gt;PAKNYYWBTOTLCN -->
<g id="edge10" class="edge"><title>PAKLMEMPTOTLCN-&gt;PAKNYYWBTOTLCN</title>
<g id="a_edge10"><a xlink:href="bogus" xlink:title=" PAKLMEMPTOTLCN -&gt; PAKNYYWBTOTLCN Min. att. -6%  max: 84%">
<path fill="none" stroke="black" stroke-width="8" d="M602.306,-511.617C636.206,-506.201 673.822,-500.191 708.615,-494.632"/>
<polygon fill="black" stroke="black" stroke-width="8" points="710.059,-501.491 718.83,-493.001 707.851,-487.666 710.059,-501.491"/>
</a>
</g>
</g>
<!-- PAKNYWRTTOTLCN -->
<g id="node8" class="node"><title>PAKNYWRTTOTLCN</title>
<g id="a_node8"><a xlink:title="Wages
FRML  &lt;&gt; PAKNYWRTTOTLCN = (PAKNYWBINFMSH**PAKINFCES*(PAKNYWRTINFMCN)**(1-PAKINFCES)+PAKNYWBFORMSH**PAKINFCES*(PAKNYWRTFORMCN*(1+PAKGGREVDRCTXN/100))**(1-PAKINFCES))**(1/(1-PAKINFCES)) $">
<polygon fill="#63b8ff" stroke="black" points="587.5,-493 397.5,-493 397.5,-457 587.5,-457 587.5,-493"/>
<text text-anchor="start" x="403.5" y="-470.8" font-family="Times New Roman,serif" font-size="14.00" fill="blue">PAKNYWRTTOTLCN:Wages</text>
</a>
</g>
</g>
<!-- PAKNYWRTTOTLCN&#45;&gt;PAKNYYWBTOTLCN -->
<g id="edge16" class="edge"><title>PAKNYWRTTOTLCN-&gt;PAKNYYWBTOTLCN</title>
<g id="a_edge16"><a xlink:href="bogus" xlink:title=" PAKNYWRTTOTLCN -&gt; PAKNYYWBTOTLCN Min. att. 16%  max: 106%">
<path fill="none" stroke="black" stroke-width="8" d="M587.652,-475C615.556,-475 646.871,-475 677.522,-475"/>
<polygon fill="black" stroke="black" stroke-width="8" points="677.886,-482 687.886,-475 677.886,-468 677.886,-482"/>
</a>
</g>
</g>
<!-- PAKNECONOTHRXN -->
<g id="node9" class="node"><title>PAKNECONOTHRXN</title>
<g id="a_node9"><a xlink:title="Non-Energy Consumption
FRML &lt;Z,EXO&gt; PAKNECONOTHRXN = (PAKNECONOTHRXN(-1)*EXP(-PAKNECONOTHRXN_A+ (0.598859116610832*((LOG(PAKNYGDPFCSTXN))-(LOG(PAKNYGDPFCSTXN(-1))))+((PAKGGREVGNFSXN/100)-(PAKGGREVGNFSXN(-1)/100))+(1-0.598859116610832)*((LOG(PAKNEIMPGNFSXN))-(LOG(PAKNEIMPGNFSXN(-1))))+0.2*PAKNYGDPGAP_/100) )) * (1-PAKNECONOTHRXN_D)+ PAKNECONOTHRXN_X*PAKNECONOTHRXN_D  $">
<polygon fill="#63b8ff" stroke="black" points="297,-412 0,-412 0,-376 297,-376 297,-412"/>
<text text-anchor="start" x="6.5" y="-389.8" font-family="Times New Roman,serif" font-size="14.00" fill="blue">PAKNECONOTHRXN:Non-Energy Consumption</text>
</a>
</g>
</g>
<!-- PAKNECONPRVTXN -->
<g id="node24" class="node"><title>PAKNECONPRVTXN</title>
<g id="a_node24"><a xlink:title="Household demand
FRML  &lt;&gt; PAKNECONPRVTXN = ((PAKNECONENGYSH**PAKCESENGYCON)*PAKNECONENGYXN**(1-PAKCESENGYCON)+(PAKNECONOTHRSH**PAKCESENGYCON)*PAKNECONOTHRXN**(1-PAKCESENGYCON))**(1/(1-PAKCESENGYCON)) $">
<polygon fill="#63b8ff" stroke="black" points="620.5,-385 364.5,-385 364.5,-349 620.5,-349 620.5,-385"/>
<text text-anchor="start" x="370.5" y="-362.8" font-family="Times New Roman,serif" font-size="14.00" fill="blue">PAKNECONPRVTXN:Household demand</text>
</a>
</g>
</g>
<!-- PAKNECONOTHRXN&#45;&gt;PAKNECONPRVTXN -->
<g id="edge2" class="edge"><title>PAKNECONOTHRXN-&gt;PAKNECONPRVTXN</title>
<g id="a_edge2"><a xlink:href="bogus" xlink:title=" PAKNECONOTHRXN -&gt; PAKNECONPRVTXN Min. att. 71%  max: 99%">
<path fill="none" stroke="black" stroke-width="8" d="M297.02,-382.354C316.022,-380.853 335.419,-379.322 354.247,-377.836"/>
<polygon fill="black" stroke="black" stroke-width="8" points="354.92,-384.805 364.338,-377.039 353.818,-370.848 354.92,-384.805"/>
</a>
</g>
</g>
<!-- PAKNYGDPGAP_ -->
<g id="node11" class="node"><title>PAKNYGDPGAP_</title>
<g id="a_node11"><a xlink:title="Output Gap (% of Potential GDP)
FRML  &lt;&gt; PAKNYGDPGAP_ = ((PAKNYGDPMKTPKN/PAKNYGDPPOTLKN-1)*100) $">
<polygon fill="#63b8ff" stroke="black" points="652,-439 333,-439 333,-403 652,-403 652,-439"/>
<text text-anchor="start" x="339.5" y="-416.8" font-family="Times New Roman,serif" font-size="14.00" fill="blue">PAKNYGDPGAP_:Output Gap (% of Potential GDP)</text>
</a>
</g>
</g>
<!-- PAKFMLBLPOLYXN -->
<g id="node21" class="node"><title>PAKFMLBLPOLYXN</title>
<g id="a_node21"><a xlink:title="Policy Rate
FRML &lt;Z,EXO&gt; PAKFMLBLPOLYXN = (-100*PAKFMLBLPOLYXN_A+100* (0.905129162122953*PAKFMLBLPOLYXN(-1)/100+(1-0.905129162122953)*(PAKMPPOLNATRXN/100+1.2*(((LOG(PAKNECONPRVTXN))-(LOG(PAKNECONPRVTXN(-1))))-PAKINFLEXPT/100)+0.5*PAKNYGDPGAP_/100)) ) * (1-PAKFMLBLPOLYXN_D)+ PAKFMLBLPOLYXN_X*PAKFMLBLPOLYXN_D  $">
<polygon fill="#63b8ff" stroke="black" points="937.5,-437 727.5,-437 727.5,-401 937.5,-401 937.5,-437"/>
<text text-anchor="start" x="733.5" y="-414.8" font-family="Times New Roman,serif" font-size="14.00" fill="blue">PAKFMLBLPOLYXN:Policy Rate</text>
</a>
</g>
</g>
<!-- PAKNYGDPGAP_&#45;&gt;PAKFMLBLPOLYXN -->
<g id="edge7" class="edge"><title>PAKNYGDPGAP_-&gt;PAKFMLBLPOLYXN</title>
<g id="a_edge7"><a xlink:href="bogus" xlink:title=" PAKNYGDPGAP_ -&gt; PAKFMLBLPOLYXN Min. att. -15%  max: 83%">
<path fill="none" stroke="black" stroke-width="8" d="M652.108,-420.061C674.071,-419.932 696.268,-419.8 717.209,-419.676"/>
<polygon fill="black" stroke="black" stroke-width="8" points="717.424,-426.675 727.382,-419.616 717.341,-412.675 717.424,-426.675"/>
</a>
</g>
</g>
<!-- PAKNYYWBTOTLCN&#45;&gt;PAKNECONPRVTKN -->
<g id="edge21" class="edge"><title>PAKNYYWBTOTLCN-&gt;PAKNECONPRVTKN</title>
<g id="a_edge21"><a xlink:href="bogus" xlink:title=" PAKNYYWBTOTLCN -&gt; PAKNECONPRVTKN Min. att. -594%  max: 5823%">
<path fill="none" stroke="black" stroke-width="8" d="M937.316,-456.973C970.751,-451.167 1007.97,-444.704 1042.1,-438.779"/>
<polygon fill="black" stroke="black" stroke-width="8" points="1043.45,-445.649 1052.1,-437.041 1041.05,-431.855 1043.45,-445.649"/>
</a>
</g>
</g>
<!-- PAKFMLBLPOLYXN&#45;&gt;PAKNECONPRVTKN -->
<g id="edge24" class="edge"><title>PAKFMLBLPOLYXN-&gt;PAKNECONPRVTKN</title>
<g id="a_edge24"><a xlink:href="bogus" xlink:title=" PAKFMLBLPOLYXN -&gt; PAKNECONPRVTKN Min. att. -160%  max: 20%">
<path fill="none" stroke="black" stroke-width="8" d="M937.761,-419C958.508,-419 980.698,-419 1002.69,-419"/>
<polygon fill="black" stroke="black" stroke-width="8" points="1002.78,-426 1012.78,-419 1002.78,-412 1002.78,-426"/>
</a>
</g>
</g>
<!-- PAKNECONENGYXN -->
<g id="node23" class="node"><title>PAKNECONENGYXN</title>
<g id="a_node23"><a xlink:title="Energy Consumption
FRML &lt;Z,EXO&gt; PAKNECONENGYXN = (PAKNECONENGYXN(-1)*EXP(-PAKNECONENGYXN_A+ (((LOG(PAKNECONENGYGN))-(LOG(PAKNECONENGYGN(-1))))+0.0550557534575806*DUMH) )) * (1-PAKNECONENGYXN_D)+ PAKNECONENGYXN_X*PAKNECONENGYXN_D  $">
<polygon fill="#63b8ff" stroke="black" points="282.5,-358 14.5,-358 14.5,-322 282.5,-322 282.5,-358"/>
<text text-anchor="start" x="20.5" y="-335.8" font-family="Times New Roman,serif" font-size="14.00" fill="blue">PAKNECONENGYXN:Energy Consumption</text>
</a>
</g>
</g>
<!-- PAKNECONENGYXN&#45;&gt;PAKNECONPRVTXN -->
<g id="edge17" class="edge"><title>PAKNECONENGYXN-&gt;PAKNECONPRVTXN</title>
<g id="a_edge17"><a xlink:href="bogus" xlink:title=" PAKNECONENGYXN -&gt; PAKNECONPRVTXN Min. att. 1%  max: 29%">
<path fill="none" stroke="black" stroke-width="2.9098" d="M282.705,-350.516C306.173,-352.369 330.641,-354.301 354.218,-356.162"/>
<polygon fill="black" stroke="black" stroke-width="2.9098" points="354.017,-359.657 364.262,-356.955 354.568,-352.679 354.017,-359.657"/>
</a>
</g>
</g>
<!-- PAKNECONPRVTXN&#45;&gt;PAKNECONPRVTKN -->
<g id="edge3" class="edge"><title>PAKNECONPRVTXN-&gt;PAKNECONPRVTKN</title>
<g id="a_edge3"><a xlink:href="bogus" xlink:title=" PAKNECONPRVTXN -&gt; PAKNECONPRVTKN Min. att. -5708%  max: 593%">
<path fill="none" stroke="black" stroke-width="8" d="M620.5,-370.166C718.168,-373.422 856.367,-379.813 977,-392 996.751,-393.995 1017.65,-396.65 1037.93,-399.517"/>
<polygon fill="black" stroke="black" stroke-width="8" points="1036.94,-406.445 1047.83,-400.939 1038.93,-392.588 1036.94,-406.445"/>
</a>
</g>
</g>
<!-- PAKNECONPRVTXN&#45;&gt;PAKFMLBLPOLYXN -->
<g id="edge5" class="edge"><title>PAKNECONPRVTXN-&gt;PAKFMLBLPOLYXN</title>
<g id="a_edge5"><a xlink:href="bogus" xlink:title=" PAKNECONPRVTXN -&gt; PAKFMLBLPOLYXN Min. att. -94%  max: 1459%">
<path fill="none" stroke="black" stroke-width="8" d="M610.767,-385.041C645.302,-390.354 683.025,-396.158 717.36,-401.44"/>
<polygon fill="black" stroke="black" stroke-width="8" points="716.475,-408.386 727.423,-402.988 718.603,-394.549 716.475,-408.386"/>
</a>
</g>
</g>
</g>
</svg>