<svg xmlns="http://www.w3.org/2000/svg" xmlns:xlink="http://www.w3.org/1999/xlink" width="432pt" height="200pt" viewBox="0.00 0.00 432.00 199.53">
<g id="graph0" class="graph" transform="scale(0.27907 0.27907) rotate(0) translate(4 711)">
<title>TD</title>
<polygon fill="white" stroke="none" points="-4,4 -4,-711 1544,-711 1544,4 -4,4"/>
<text text-anchor="middle" x="770" y="-7.8" font-family="Times New Roman,serif" font-size="14.00">PAKNYGDPMKTPKN</text>
<!-- PAKFMLBLMTWOKN_FITTED -->
<g id="node1" class="node"><title>PAKFMLBLMTWOKN_FITTED</title>
<g id="a_node1"><a xlink:title="Fitted  value:Real money supply
FRML &lt;FIT&gt; PAKFMLBLMTWOKN_FITTED = PAKFMLBLMTWOKN(-1)*EXP( (-0.2*(LOG(PAKFMLBLMTWOKN(-1))-LOG(PAKNYGDPMKTPKN(-1))+0.1*PAKFMLBLPOLYXN(-1)/100-LOG(PAKVELOCITY(-1)))-0.32628131688075+0.7*((LOG(PAKNYGDPMKTPKN))-(LOG(PAKNYGDPMKTPKN(-1))))-1*((PAKFMLBLPOLYXN/100)-(PAKFMLBLPOLYXN(-1)/100))-((LOG(PAKVELOCITY))-(LOG(PAKVELOCITY(-1))))) ) $">
<polygon fill="#63b8ff" stroke="black" points="1528,-707 1140,-707 1140,-671 1528,-671 1528,-707"/>
<text text-anchor="start" x="1146" y="-684.8" font-family="Times New Roman,serif" font-size="14.00" fill="blue">PAKFMLBLMTWOKN_FITTED:Fitted  value:Real money supply</text>
</a>
</g>
</g>
<!-- PAKNYGDPFCSTXN -->
<g id="node2" class="node"><title>PAKNYGDPFCSTXN</title>
<g id="a_node2"><a xlink:title="GDP at factor cost
FRML &lt;Z,EXO&gt; PAKNYGDPFCSTXN = (PAKNYGDPFCSTXN(-1)*EXP(-PAKNYGDPFCSTXN_A+ (0.6*((LOG(PAKNYGDPFCSTXN(-1)))-(LOG(PAKNYGDPFCSTXN(-2))))+(1-0.6)*(0.7*PAKINFLEXPT/100+(1-0.7)*((LOG(PAKPSTAR(-1)))-(LOG(PAKPSTAR(-2)))))+0.25*PAKNYGDPGAP_/100+0.262461811660072*DURING_2000-0.205776950553378*DURING_2001) )) * (1-PAKNYGDPFCSTXN_D)+ PAKNYGDPFCSTXN_X*PAKNYGDPFCSTXN_D  $">
<polygon fill="#63b8ff" stroke="black" points="296,-667 43,-667 43,-631 296,-631 296,-667"/>
<text text-anchor="start" x="49.5" y="-644.8" font-family="Times New Roman,serif" font-size="14.00" fill="blue">PAKNYGDPFCSTXN:GDP at factor cost</text>
</a>
</g>
</g>
<!-- PAKNEIMPGNFSKN -->
<g id="node4" class="node"><title>PAKNEIMPGNFSKN</title>
<g id="a_node4"><a xlink:title="Imports (G&amp;S)
FRML &lt;Z,EXO&gt; PAKNEIMPGNFSKN = (PAKNEIMPGNFSKN(-1)*EXP(-PAKNEIMPGNFSKN_A+ (-0.324143718656754*(LOG(PAKNEIMPGNFSKN(-1))-LOG(PAKNEGDETTOTKN(-1))+0.8*LOG(PAKNEIMPGNFSXN(-1)/PAKNYGDPFCSTXN(-1)))-0.583459272245018+1*((LOG(PAKNEGDETTOTKN))-(LOG(PAKNEGDETTOTKN(-1))))-0.0921874580409631*((LOG(PAKNEIMPGNFSXN/PAKNYGDPFCSTXN))-(LOG(PAKNEIMPGNFSXN(-1)/PAKNYGDPFCSTXN(-1))))-0.0361746331863615*DURING_2012) )) * (1-PAKNEIMPGNFSKN_D)+ PAKNEIMPGNFSKN_X*PAKNEIMPGNFSKN_D  $">
<polygon fill="#63b8ff" stroke="black" points="646.5,-586 417.5,-586 417.5,-550 646.5,-550 646.5,-586"/>
<text text-anchor="start" x="424" y="-563.8" font-family="Times New Roman,serif" font-size="14.00" fill="blue">PAKNEIMPGNFSKN:Imports (G&amp;S)</text>
</a>
</g>
</g>
<!-- PAKNYGDPFCSTXN&#45;&gt;PAKNEIMPGNFSKN -->
<g id="edge18" class="edge"><title>PAKNYGDPFCSTXN-&gt;PAKNEIMPGNFSKN</title>
<g id="a_edge18"><a xlink:href="bogus" xlink:title=" PAKNYGDPFCSTXN -&gt; PAKNEIMPGNFSKN Min. att. -1112%  max: 296%">
<path fill="none" stroke="black" stroke-width="8" d="M293.669,-630.951C308.984,-628.211 324.388,-625.214 339,-622 380.909,-612.781 427.236,-599.833 463.883,-588.927"/>
<polygon fill="black" stroke="black" stroke-width="8" points="465.895,-595.632 473.465,-586.057 461.877,-582.221 465.895,-595.632"/>
</a>
</g>
</g>
<!-- PAKNEADPKMAXKN_FITTED -->
<g id="node3" class="node"><title>PAKNEADPKMAXKN_FITTED</title>
<g id="a_node3"><a xlink:title="Fitted  value:PAKNEADPKMAXKN
FRML &lt;FIT&gt; PAKNEADPKMAXKN_FITTED = 0*DUMH+((1+0.01)/(0.01+PAKDEPR))*(PAKAVDAMAGE/100)*PAKNYGDPMKTPKN $">
<polygon fill="#63b8ff" stroke="black" points="1540,-653 1128,-653 1128,-617 1540,-617 1540,-653"/>
<text text-anchor="start" x="1134" y="-630.8" font-family="Times New Roman,serif" font-size="14.00" fill="blue">PAKNEADPKMAXKN_FITTED:Fitted  value:PAKNEADPKMAXKN</text>
</a>
</g>
</g>
<!-- PAKNYGDPMKTPKN -->
<g id="node19" class="node"><title>PAKNYGDPMKTPKN</title>
<g id="a_node19"><a xlink:title="GDP Expenditure side at market prices
FRML  &lt;&gt; PAKNYGDPMKTPKN = PAKNECONPRVTKN+PAKNECONGOVTKN+PAKNEGDIFTOTKN+PAKNEGDISTKBKN+PAKNEEXPGNFSKN-PAKNEIMPGNFSKN+PAKNYGDPDISCKN+PAKADAP*PAKDISPREPKN $">
<polygon fill="red" stroke="black" points="1092,-383 725,-383 725,-347 1092,-347 1092,-383"/>
<text text-anchor="start" x="731.5" y="-360.8" font-family="Times New Roman,serif" font-size="14.00" fill="blue">PAKNYGDPMKTPKN:GDP Expenditure side at market prices</text>
</a>
</g>
</g>
<!-- PAKNEIMPGNFSKN&#45;&gt;PAKNYGDPMKTPKN -->
<g id="edge27" class="edge"><title>PAKNEIMPGNFSKN-&gt;PAKNYGDPMKTPKN</title>
<g id="a_edge27"><a xlink:href="bogus" xlink:title=" PAKNEIMPGNFSKN -&gt; PAKNYGDPMKTPKN Min. att. -46%  max: 456%">
<path fill="none" stroke="black" stroke-width="8" d="M566.234,-549.985C634.301,-513.089 789.487,-428.97 864.852,-388.117"/>
<polygon fill="black" stroke="black" stroke-width="8" points="868.616,-394.04 874.071,-383.12 861.944,-381.732 868.616,-394.04"/>
</a>
</g>
</g>
<!-- PAKFMLBLMTWOKN -->
<g id="node5" class="node"><title>PAKFMLBLMTWOKN</title>
<g id="a_node5"><a xlink:title="Real money supply
FRML &lt;Z,EXO&gt; PAKFMLBLMTWOKN = (PAKFMLBLMTWOKN(-1)*EXP(-PAKFMLBLMTWOKN_A+ (-0.2*(LOG(PAKFMLBLMTWOKN(-1))-LOG(PAKNYGDPMKTPKN(-1))+0.1*PAKFMLBLPOLYXN(-1)/100-LOG(PAKVELOCITY(-1)))-0.32628131688075+0.7*((LOG(PAKNYGDPMKTPKN))-(LOG(PAKNYGDPMKTPKN(-1))))-1*((PAKFMLBLPOLYXN/100)-(PAKFMLBLPOLYXN(-1)/100))-((LOG(PAKVELOCITY))-(LOG(PAKVELOCITY(-1))))) )) * (1-PAKFMLBLMTWOKN_D)+ PAKFMLBLMTWOKN_X*PAKFMLBLMTWOKN_D  $">
<polygon fill="#63b8ff" stroke="black" points="1464.5,-599 1203.5,-599 1203.5,-563 1464.5,-563 1464.5,-599"/>
<text text-anchor="start" x="1210" y="-576.8" font-family="Times New Roman,serif" font-size="14.00" fill="blue">PAKFMLBLMTWOKN:Real money supply</text>
</a>
</g>
</g>
<!-- PAKNECONPRVTKN -->
<g id="node6" class="node"><title>PAKNECONPRVTKN</title>
<g id="a_node6"><a xlink:title="Household Consumption
FRML &lt;Z,EXO&gt; PAKNECONPRVTKN = (PAKNECONPRVTKN(-1)*EXP(-PAKNECONPRVTKN_A+ (-0.2*(LOG(PAKNECONPRVTKN(-1))-LOG((PAKNYYWBTOTLCN(-1)*(1-PAKGGREVDRCTXN(-1)/100))/PAKNECONPRVTXN(-1)))+1*((LOG((PAKNYYWBTOTLCN*(1-PAKGGREVDRCTXN/100))/PAKNECONPRVTXN))-(LOG((PAKNYYWBTOTLCN(-1)*(1-PAKGGREVDRCTXN(-1)/100))/PAKNECONPRVTXN(-1))))+0.0303228629698929+0.0163839011059956*DURING_2010-0.3*(PAKFMLBLPOLYXN/100-((LOG(PAKNECONPRVTXN))-(LOG(PAKNECONPRVTXN(-1)))))) )) * (1-PAKNECONPRVTKN_D)+ PAKNECONPRVTKN_X*PAKNECONPRVTKN_D  $">
<polygon fill="#63b8ff" stroke="black" points="676,-424 388,-424 388,-388 676,-388 676,-424"/>
<text text-anchor="start" x="394" y="-401.8" font-family="Times New Roman,serif" font-size="14.00" fill="blue">PAKNECONPRVTKN:Household Consumption</text>
</a>
</g>
</g>
<!-- PAKNECONPRVTKN&#45;&gt;PAKNYGDPMKTPKN -->
<g id="edge24" class="edge"><title>PAKNECONPRVTKN-&gt;PAKNYGDPMKTPKN</title>
<g id="a_edge24"><a xlink:href="bogus" xlink:title=" PAKNECONPRVTKN -&gt; PAKNYGDPMKTPKN Min. att. -1557%  max: 290%">
<path fill="none" stroke="black" stroke-width="8" d="M676.185,-390.324C694.651,-388.303 713.723,-386.215 732.627,-384.145"/>
<polygon fill="black" stroke="black" stroke-width="8" points="733.619,-391.078 742.798,-383.031 732.095,-377.161 733.619,-391.078"/>
</a>
</g>
</g>
<!-- PAKNECONPRVTXN -->
<g id="node7" class="node"><title>PAKNECONPRVTXN</title>
<g id="a_node7"><a xlink:title="Household demand
FRML  &lt;&gt; PAKNECONPRVTXN = ((PAKNECONENGYSH**PAKCESENGYCON)*PAKNECONENGYXN**(1-PAKCESENGYCON)+(PAKNECONOTHRSH**PAKCESENGYCON)*PAKNECONOTHRXN**(1-PAKCESENGYCON))**(1/(1-PAKCESENGYCON)) $">
<polygon fill="#63b8ff" stroke="black" points="297.5,-505 41.5,-505 41.5,-469 297.5,-469 297.5,-505"/>
<text text-anchor="start" x="47.5" y="-482.8" font-family="Times New Roman,serif" font-size="14.00" fill="blue">PAKNECONPRVTXN:Household demand</text>
</a>
</g>
</g>
<!-- PAKNECONPRVTXN&#45;&gt;PAKNECONPRVTKN -->
<g id="edge3" class="edge"><title>PAKNECONPRVTXN-&gt;PAKNECONPRVTKN</title>
<g id="a_edge3"><a xlink:href="bogus" xlink:title=" PAKNECONPRVTXN -&gt; PAKNECONPRVTKN Min. att. -5708%  max: 593%">
<path fill="none" stroke="black" stroke-width="8" d="M293.669,-468.951C308.984,-466.211 324.388,-463.214 339,-460 380.909,-450.781 427.236,-437.833 463.883,-426.927"/>
<polygon fill="black" stroke="black" stroke-width="8" points="465.895,-433.632 473.465,-424.057 461.877,-420.221 465.895,-433.632"/>
</a>
</g>
</g>
<!-- PAKNYWRTFORMCN -->
<g id="node8" class="node"><title>PAKNYWRTFORMCN</title>
<g id="a_node8"><a xlink:title="Formal wage
FRML &lt;Z,EXO&gt; PAKNYWRTFORMCN = (PAKNYWRTFORMCN(-1)*EXP(-PAKNYWRTFORMCN_A+ (-0.120164450250183-0.3*(LOG(PAKNYWRTFORMCN(-1))-LOG(PAKNYGDPFCSTXN(-1))-LOG(PAKNYGDPPOTLKN(-1)/PAKLMEMPSTRLCN(-1)))+0.2*((LOG(PAKNYWRTFORMCN(-1)))-(LOG(PAKNYWRTFORMCN(-2))))+(1-0.2)*(0.5*((LOG(PAKNYGDPFCSTXN(-1)))-(LOG(PAKNYGDPFCSTXN(-2))))+0.5*(PAKINFLEXPT/100)+((LOG(PAKNYGDPMKTPKN/PAKLMEMPSTRLCN))-(LOG(PAKNYGDPMKTPKN(-1)/PAKLMEMPSTRLCN(-1)))))-0.2*(PAKLMUNRTOTLCN-PAKLMUNRSTRLCN)/100+0.15233813938029*DURING_2000-0.183411483907703*DURING_2001) )) * (1-PAKNYWRTFORMCN_D)+ PAKNYWRTFORMCN_X*PAKNYWRTFORMCN_D  $">
<polygon fill="#63b8ff" stroke="black" points="1447.5,-545 1220.5,-545 1220.5,-509 1447.5,-509 1447.5,-545"/>
<text text-anchor="start" x="1227" y="-522.8" font-family="Times New Roman,serif" font-size="14.00" fill="blue">PAKNYWRTFORMCN:Formal wage</text>
</a>
</g>
</g>
<!-- PAKNYGDPMKTPKD -->
<g id="node9" class="node"><title>PAKNYGDPMKTPKD</title>
<g id="a_node9"><a xlink:title="PAKNYGDPMKTPKD
FRML  &lt;&gt; PAKNYGDPMKTPKD = (PAKNYGDPMKTPKN*((PAKNYGDPMKTPCN_VALUE_2010)/((PAKNYGDPMKTPKN_VALUE_2010))))/(PAKPANUSATLS_VALUE_2010) $">
<polygon fill="#63b8ff" stroke="black" points="1409,-491 1259,-491 1259,-455 1409,-455 1409,-491"/>
<text text-anchor="start" x="1265" y="-468.8" font-family="Times New Roman,serif" font-size="14.00" fill="blue">PAKNYGDPMKTPKD:</text>
</a>
</g>
</g>
<!-- PAKNYWRTFORMCN_FITTED -->
<g id="node10" class="node"><title>PAKNYWRTFORMCN_FITTED</title>
<g id="a_node10"><a xlink:title="Fitted  value:Formal wage
FRML &lt;FIT&gt; PAKNYWRTFORMCN_FITTED = PAKNYWRTFORMCN(-1)*EXP( (-0.120164450250183-0.3*(LOG(PAKNYWRTFORMCN(-1))-LOG(PAKNYGDPFCSTXN(-1))-LOG(PAKNYGDPPOTLKN(-1)/PAKLMEMPSTRLCN(-1)))+0.2*((LOG(PAKNYWRTFORMCN(-1)))-(LOG(PAKNYWRTFORMCN(-2))))+(1-0.2)*(0.5*((LOG(PAKNYGDPFCSTXN(-1)))-(LOG(PAKNYGDPFCSTXN(-2))))+0.5*(PAKINFLEXPT/100)+((LOG(PAKNYGDPMKTPKN/PAKLMEMPSTRLCN))-(LOG(PAKNYGDPMKTPKN(-1)/PAKLMEMPSTRLCN(-1)))))-0.2*(PAKLMUNRTOTLCN-PAKLMUNRSTRLCN)/100+0.15233813938029*DURING_2000-0.183411483907703*DURING_2001) ) $">
<polygon fill="#63b8ff" stroke="black" points="1511.5,-437 1156.5,-437 1156.5,-401 1511.5,-401 1511.5,-437"/>
<text text-anchor="start" x="1163" y="-414.8" font-family="Times New Roman,serif" font-size="14.00" fill="blue">PAKNYWRTFORMCN_FITTED:Fitted  value:Formal wage</text>
</a>
</g>
</g>
<!-- PAKNEGDIFGOVKN -->
<g id="node11" class="node"><title>PAKNEGDIFGOVKN</title>
<g id="a_node11"><a xlink:title="Government Investment
FRML  &lt;&gt; PAKNEGDIFGOVKN = PAKNEGDIFGOVCN/PAKNEGDIFGOVXN $">
<polygon fill="#63b8ff" stroke="black" points="308.5,-343 30.5,-343 30.5,-307 308.5,-307 308.5,-343"/>
<text text-anchor="start" x="36.5" y="-320.8" font-family="Times New Roman,serif" font-size="14.00" fill="blue">PAKNEGDIFGOVKN:Government Investment</text>
</a>
</g>
</g>
<!-- PAKNEGDIFTOTKN -->
<g id="node14" class="node"><title>PAKNEGDIFTOTKN</title>
<g id="a_node14"><a xlink:title="Total Gross Capital Formation
FRML  &lt;&gt; PAKNEGDIFTOTKN = PAKNEGDIFGOVKN+PAKNEGDIFPRVKN $">
<polygon fill="#63b8ff" stroke="black" points="689,-343 375,-343 375,-307 689,-307 689,-343"/>
<text text-anchor="start" x="381" y="-320.8" font-family="Times New Roman,serif" font-size="14.00" fill="blue">PAKNEGDIFTOTKN:Total Gross Capital Formation</text>
</a>
</g>
</g>
<!-- PAKNEGDIFGOVKN&#45;&gt;PAKNEGDIFTOTKN -->
<g id="edge7" class="edge"><title>PAKNEGDIFGOVKN-&gt;PAKNEGDIFTOTKN</title>
<g id="a_edge7"><a xlink:href="bogus" xlink:title=" PAKNEGDIFGOVKN -&gt; PAKNEGDIFTOTKN Min. att. 6%  max: 105%">
<path fill="none" stroke="black" stroke-width="8" d="M308.59,-325C326.946,-325 345.919,-325 364.69,-325"/>
<polygon fill="black" stroke="black" stroke-width="8" points="364.786,-332 374.786,-325 364.786,-318 364.786,-332"/>
</a>
</g>
</g>
<!-- PAKGDPPCKN -->
<g id="node12" class="node"><title>PAKGDPPCKN</title>
<g id="a_node12"><a xlink:title="PAKGDPPCKN
FRML  &lt;&gt; PAKGDPPCKN = (PAKNYGDPMKTPKN/PAKSPPOPTOTL) $">
<polygon fill="#63b8ff" stroke="black" points="1388.5,-383 1279.5,-383 1279.5,-347 1388.5,-347 1388.5,-383"/>
<text text-anchor="start" x="1286" y="-360.8" font-family="Times New Roman,serif" font-size="14.00" fill="blue">PAKGDPPCKN:</text>
</a>
</g>
</g>
<!-- PAKNYGDPGAP_ -->
<g id="node13" class="node"><title>PAKNYGDPGAP_</title>
<g id="a_node13"><a xlink:title="Output Gap (% of Potential GDP)
FRML  &lt;&gt; PAKNYGDPGAP_ = ((PAKNYGDPMKTPKN/PAKNYGDPPOTLKN-1)*100) $">
<polygon fill="#63b8ff" stroke="black" points="1493.5,-329 1174.5,-329 1174.5,-293 1493.5,-293 1493.5,-329"/>
<text text-anchor="start" x="1181" y="-306.8" font-family="Times New Roman,serif" font-size="14.00" fill="blue">PAKNYGDPGAP_:Output Gap (% of Potential GDP)</text>
</a>
</g>
</g>
<!-- PAKNEGDIFTOTKN&#45;&gt;PAKNYGDPMKTPKN -->
<g id="edge12" class="edge"><title>PAKNEGDIFTOTKN-&gt;PAKNYGDPMKTPKN</title>
<g id="a_edge12"><a xlink:href="bogus" xlink:title=" PAKNEGDIFTOTKN -&gt; PAKNYGDPMKTPKN Min. att. -36%  max: 366%">
<path fill="none" stroke="black" stroke-width="8" d="M689.11,-341.674C702.224,-343.075 715.549,-344.498 728.815,-345.915"/>
<polygon fill="black" stroke="black" stroke-width="8" points="728.258,-352.895 738.945,-346.997 729.745,-338.974 728.258,-352.895"/>
</a>
</g>
</g>
<!-- PAKNECONGOVTXN -->
<g id="node15" class="node"><title>PAKNECONGOVTXN</title>
<g id="a_node15"><a xlink:title="Government consumption (G&amp;S)
FRML &lt;Z,EXO&gt; PAKNECONGOVTXN = (PAKNECONGOVTXN(-1)*EXP(-PAKNECONGOVTXN_A+ (-0.3*(LOG(PAKNECONGOVTXN(-1))-LOG(PAKNECONPRVTXN(-1)))+0.0752362082122748+0.5*((LOG(PAKNECONGOVTXN(-1)))-(LOG(PAKNECONGOVTXN(-2))))+(1-0.5)*((LOG(PAKNECONPRVTXN))-(LOG(PAKNECONPRVTXN(-1))))) )) * (1-PAKNECONGOVTXN_D)+ PAKNECONGOVTXN_X*PAKNECONGOVTXN_D  $">
<polygon fill="#63b8ff" stroke="black" points="339,-235 0,-235 0,-199 339,-199 339,-235"/>
<text text-anchor="start" x="6.5" y="-212.8" font-family="Times New Roman,serif" font-size="14.00" fill="blue">PAKNECONGOVTXN:Government consumption (G&amp;S)</text>
</a>
</g>
</g>
<!-- PAKNECONGOVTKN -->
<g id="node17" class="node"><title>PAKNECONGOVTKN</title>
<g id="a_node17"><a xlink:title="Government Consumption
FRML  &lt;&gt; PAKNECONGOVTKN = PAKNECONGOVTCN/PAKNECONGOVTXN $">
<polygon fill="#63b8ff" stroke="black" points="681.5,-235 382.5,-235 382.5,-199 681.5,-199 681.5,-235"/>
<text text-anchor="start" x="389" y="-212.8" font-family="Times New Roman,serif" font-size="14.00" fill="blue">PAKNECONGOVTKN:Government Consumption</text>
</a>
</g>
</g>
<!-- PAKNECONGOVTXN&#45;&gt;PAKNECONGOVTKN -->
<g id="edge9" class="edge"><title>PAKNECONGOVTXN-&gt;PAKNECONGOVTKN</title>
<g id="a_edge9"><a xlink:href="bogus" xlink:title=" PAKNECONGOVTXN -&gt; PAKNECONGOVTKN Min. att. -867%  max: -19%">
<path fill="none" stroke="black" stroke-width="8" d="M339.139,-217C350.223,-217 361.366,-217 372.399,-217"/>
<polygon fill="black" stroke="black" stroke-width="8" points="372.495,-224 382.495,-217 372.495,-210 372.495,-224"/>
</a>
</g>
</g>
<!-- PAKNEADPKMAXKN -->
<g id="node16" class="node"><title>PAKNEADPKMAXKN</title>
<g id="a_node16"><a xlink:title="PAKNEADPKMAXKN
FRML &lt;Z,EXO&gt; PAKNEADPKMAXKN = (0*DUMH+((1+0.01)/(0.01+PAKDEPR))*(PAKAVDAMAGE/100)*PAKNYGDPMKTPKN + PAKNEADPKMAXKN_A)* (1-PAKNEADPKMAXKN_D)+ PAKNEADPKMAXKN_X*PAKNEADPKMAXKN_D  $">
<polygon fill="#63b8ff" stroke="black" points="1409,-275 1259,-275 1259,-239 1409,-239 1409,-275"/>
<text text-anchor="start" x="1265" y="-252.8" font-family="Times New Roman,serif" font-size="14.00" fill="blue">PAKNEADPKMAXKN:</text>
</a>
</g>
</g>
<!-- PAKNECONGOVTKN&#45;&gt;PAKNYGDPMKTPKN -->
<g id="edge8" class="edge"><title>PAKNECONGOVTKN-&gt;PAKNYGDPMKTPKN</title>
<g id="a_edge8"><a xlink:href="bogus" xlink:title=" PAKNECONGOVTKN -&gt; PAKNYGDPMKTPKN Min. att. -108%  max: 835%">
<path fill="none" stroke="black" stroke-width="8" d="M578.921,-235.148C647.896,-262.406 778.039,-313.838 852.156,-343.128"/>
<polygon fill="black" stroke="black" stroke-width="8" points="849.917,-349.77 861.79,-346.936 855.062,-336.75 849.917,-349.77"/>
</a>
</g>
</g>
<!-- PAKNYWRTINFMCN_FITTED -->
<g id="node18" class="node"><title>PAKNYWRTINFMCN_FITTED</title>
<g id="a_node18"><a xlink:title="Fitted  value:Informal wage
FRML &lt;FIT&gt; PAKNYWRTINFMCN_FITTED = PAKNYWRTINFMCN(-1)*EXP( (-0.122614247140616-0.3*(LOG(PAKNYWRTINFMCN(-1))-LOG(PAKNYGDPFCSTXN(-1))-LOG(PAKNYGDPPOTLKN(-1)/PAKLMEMPSTRLCN(-1)))+0.2*((LOG(PAKNYWRTINFMCN(-1)))-(LOG(PAKNYWRTINFMCN(-2))))+(1-0.2)*(0.5*((LOG(PAKNYGDPFCSTXN(-1)))-(LOG(PAKNYGDPFCSTXN(-2))))+0.5*(PAKINFLEXPT/100)+((LOG(PAKNYGDPMKTPKN/PAKLMEMPSTRLCN))-(LOG(PAKNYGDPMKTPKN(-1)/PAKLMEMPSTRLCN(-1)))))-0.2*(PAKLMUNRTOTLCN-PAKLMUNRSTRLCN)/100+0.15347529018182*DURING_2000-0.183372342445734*DURING_2001) ) $">
<polygon fill="#63b8ff" stroke="black" points="1512,-221 1156,-221 1156,-185 1512,-185 1512,-221"/>
<text text-anchor="start" x="1162" y="-198.8" font-family="Times New Roman,serif" font-size="14.00" fill="blue">PAKNYWRTINFMCN_FITTED:Fitted  value:Informal wage</text>
</a>
</g>
</g>
<!-- PAKNYGDPMKTPKN&#45;&gt;PAKFMLBLMTWOKN_FITTED -->
<g id="edge19" class="edge"><title>PAKNYGDPMKTPKN-&gt;PAKFMLBLMTWOKN_FITTED</title>
<g id="a_edge19"><a xlink:href="bogus" xlink:title=" PAKNYGDPMKTPKN -&gt; PAKFMLBLMTWOKN_FITTED Min. att. -360%  max: 149%">
<path fill="none" stroke="black" stroke-width="8" d="M916.76,-383.315C939.031,-436.824 1011.99,-593.447 1128,-662 1130.69,-663.592 1133.44,-665.107 1136.24,-666.549"/>
<polygon fill="black" stroke="black" stroke-width="8" points="1133.28,-672.892 1145.32,-670.906 1139.33,-660.269 1133.28,-672.892"/>
</a>
</g>
</g>
<!-- PAKNYGDPMKTPKN&#45;&gt;PAKNEADPKMAXKN_FITTED -->
<g id="edge20" class="edge"><title>PAKNYGDPMKTPKN-&gt;PAKNEADPKMAXKN_FITTED</title>
<g id="a_edge20"><a xlink:href="bogus" xlink:title=" PAKNYGDPMKTPKN -&gt; PAKNEADPKMAXKN_FITTED Min. att. 100%  max: 100%">
<path fill="none" stroke="black" stroke-width="8" d="M919.61,-383.296C946.503,-429.983 1024.84,-553.677 1128,-608 1131.37,-609.777 1134.82,-611.453 1138.33,-613.034"/>
<polygon fill="black" stroke="black" stroke-width="8" points="1135.82,-619.572 1147.75,-616.997 1141.25,-606.668 1135.82,-619.572"/>
</a>
</g>
</g>
<!-- PAKNYGDPMKTPKN&#45;&gt;PAKFMLBLMTWOKN -->
<g id="edge10" class="edge"><title>PAKNYGDPMKTPKN-&gt;PAKFMLBLMTWOKN</title>
<g id="a_edge10"><a xlink:href="bogus" xlink:title=" PAKNYGDPMKTPKN -&gt; PAKFMLBLMTWOKN Min. att. -360%  max: 149%">
<path fill="none" stroke="black" stroke-width="8" d="M923.872,-383.149C955.831,-422.047 1037.18,-513.218 1128,-554 1148.33,-563.126 1170.84,-569.415 1193.3,-573.704"/>
<polygon fill="black" stroke="black" stroke-width="8" points="1192.18,-580.616 1203.26,-575.48 1194.64,-566.833 1192.18,-580.616"/>
</a>
</g>
</g>
<!-- PAKNYGDPMKTPKN&#45;&gt;PAKNYWRTFORMCN -->
<g id="edge11" class="edge"><title>PAKNYGDPMKTPKN-&gt;PAKNYWRTFORMCN</title>
<g id="a_edge11"><a xlink:href="bogus" xlink:title=" PAKNYGDPMKTPKN -&gt; PAKNYWRTFORMCN Min. att. -3148%  max: 101%">
<path fill="none" stroke="black" stroke-width="8" d="M931.444,-383.037C969.069,-412.883 1049.45,-472.02 1128,-500 1153.9,-509.226 1182.65,-515.349 1210.23,-519.398"/>
<polygon fill="black" stroke="black" stroke-width="8" points="1209.47,-526.359 1220.33,-520.799 1211.39,-512.492 1209.47,-526.359"/>
</a>
</g>
</g>
<!-- PAKNYGDPMKTPKN&#45;&gt;PAKNYGDPMKTPKD -->
<g id="edge21" class="edge"><title>PAKNYGDPMKTPKN-&gt;PAKNYGDPMKTPKD</title>
<g id="a_edge21"><a xlink:href="bogus" xlink:title=" PAKNYGDPMKTPKN -&gt; PAKNYGDPMKTPKD Min. att. 100%  max: 100%">
<path fill="none" stroke="black" stroke-width="8" d="M949.715,-383.021C992.912,-401.634 1063.99,-430.134 1128,-446 1167.01,-455.671 1211.12,-462.047 1248.4,-466.161"/>
<polygon fill="black" stroke="black" stroke-width="8" points="1248.03,-473.162 1258.72,-467.262 1249.52,-459.241 1248.03,-473.162"/>
</a>
</g>
</g>
<!-- PAKNYGDPMKTPKN&#45;&gt;PAKNYWRTFORMCN_FITTED -->
<g id="edge13" class="edge"><title>PAKNYGDPMKTPKN-&gt;PAKNYWRTFORMCN_FITTED</title>
<g id="a_edge13"><a xlink:href="bogus" xlink:title=" PAKNYGDPMKTPKN -&gt; PAKNYWRTFORMCN_FITTED Min. att. -3148%  max: 101%">
<path fill="none" stroke="black" stroke-width="8" d="M1050.81,-383.019C1092.79,-388.371 1138.93,-394.255 1181.53,-399.686"/>
<polygon fill="black" stroke="black" stroke-width="8" points="1180.89,-406.662 1191.7,-400.983 1182.67,-392.774 1180.89,-406.662"/>
</a>
</g>
</g>
<!-- PAKNYGDPMKTPKN&#45;&gt;PAKGDPPCKN -->
<g id="edge22" class="edge"><title>PAKNYGDPMKTPKN-&gt;PAKGDPPCKN</title>
<g id="a_edge22"><a xlink:href="bogus" xlink:title=" PAKNYGDPMKTPKN -&gt; PAKGDPPCKN Min. att. 100%  max: 100%">
<path fill="none" stroke="black" stroke-width="8" d="M1092.17,-365C1155.37,-365 1222.09,-365 1269.23,-365"/>
<polygon fill="black" stroke="black" stroke-width="8" points="1269.28,-372 1279.28,-365 1269.28,-358 1269.28,-372"/>
</a>
</g>
</g>
<!-- PAKNYGDPMKTPKN&#45;&gt;PAKNYGDPGAP_ -->
<g id="edge17" class="edge"><title>PAKNYGDPMKTPKN-&gt;PAKNYGDPGAP_</title>
<g id="a_edge17"><a xlink:href="bogus" xlink:title=" PAKNYGDPMKTPKN -&gt; PAKNYGDPGAP_ Min. att. -78566%  max: 128265%">
<path fill="none" stroke="black" stroke-width="8" d="M1050.81,-346.981C1092.79,-341.629 1138.93,-335.745 1181.53,-330.314"/>
<polygon fill="black" stroke="black" stroke-width="8" points="1182.67,-337.226 1191.7,-329.017 1180.89,-323.338 1182.67,-337.226"/>
</a>
</g>
</g>
<!-- PAKNYGDPMKTPKN&#45;&gt;PAKNEADPKMAXKN -->
<g id="edge5" class="edge"><title>PAKNYGDPMKTPKN-&gt;PAKNEADPKMAXKN</title>
<g id="a_edge5"><a xlink:href="bogus" xlink:title=" PAKNYGDPMKTPKN -&gt; PAKNEADPKMAXKN Min. att. 100%  max: 100%">
<path fill="none" stroke="black" stroke-width="8" d="M949.715,-346.979C992.912,-328.366 1063.99,-299.866 1128,-284 1167.01,-274.329 1211.12,-267.953 1248.4,-263.839"/>
<polygon fill="black" stroke="black" stroke-width="8" points="1249.52,-270.759 1258.72,-262.738 1248.03,-256.838 1249.52,-270.759"/>
</a>
</g>
</g>
<!-- PAKNYGDPMKTPKN&#45;&gt;PAKNYWRTINFMCN_FITTED -->
<g id="edge15" class="edge"><title>PAKNYGDPMKTPKN-&gt;PAKNYWRTINFMCN_FITTED</title>
<g id="a_edge15"><a xlink:href="bogus" xlink:title=" PAKNYGDPMKTPKN -&gt; PAKNYWRTINFMCN_FITTED Min. att. -3148%  max: 101%">
<path fill="none" stroke="black" stroke-width="8" d="M931.444,-346.963C969.069,-317.117 1049.45,-257.98 1128,-230 1134.42,-227.714 1141.01,-225.618 1147.72,-223.697"/>
<polygon fill="black" stroke="black" stroke-width="8" points="1149.81,-230.384 1157.62,-221.006 1146.14,-216.874 1149.81,-230.384"/>
</a>
</g>
</g>
<!-- PAKNYGDPFCSTKN -->
<g id="node20" class="node"><title>PAKNYGDPFCSTKN</title>
<g id="a_node20"><a xlink:title="GDP at factor cost
FRML  &lt;&gt; PAKNYGDPFCSTKN = PAKNYGDPMKTPKN-PAKNYTAXNINDKN $">
<polygon fill="#63b8ff" stroke="black" points="1460.5,-167 1207.5,-167 1207.5,-131 1460.5,-131 1460.5,-167"/>
<text text-anchor="start" x="1214" y="-144.8" font-family="Times New Roman,serif" font-size="14.00" fill="blue">PAKNYGDPFCSTKN:GDP at factor cost</text>
</a>
</g>
</g>
<!-- PAKNYGDPMKTPKN&#45;&gt;PAKNYGDPFCSTKN -->
<g id="edge6" class="edge"><title>PAKNYGDPMKTPKN-&gt;PAKNYGDPFCSTKN</title>
<g id="a_edge6"><a xlink:href="bogus" xlink:title=" PAKNYGDPMKTPKN -&gt; PAKNYGDPFCSTKN Min. att. 100%  max: 100%">
<path fill="none" stroke="black" stroke-width="8" d="M923.872,-346.851C955.831,-307.953 1037.18,-216.782 1128,-176 1149.49,-166.35 1173.43,-159.873 1197.16,-155.577"/>
<polygon fill="black" stroke="black" stroke-width="8" points="1198.61,-162.431 1207.31,-153.866 1196.28,-148.626 1198.61,-162.431"/>
</a>
</g>
</g>
<!-- PAKNYGDPMKTPXN -->
<g id="node23" class="node"><title>PAKNYGDPMKTPXN</title>
<g id="a_node23"><a xlink:title="GDP deflator
FRML  &lt;&gt; PAKNYGDPMKTPXN = PAKNYGDPMKTPCN/PAKNYGDPMKTPKN $">
<polygon fill="#63b8ff" stroke="black" points="1446.5,-113 1221.5,-113 1221.5,-77 1446.5,-77 1446.5,-113"/>
<text text-anchor="start" x="1228" y="-90.8" font-family="Times New Roman,serif" font-size="14.00" fill="blue">PAKNYGDPMKTPXN:GDP deflator</text>
</a>
</g>
</g>
<!-- PAKNYGDPMKTPKN&#45;&gt;PAKNYGDPMKTPXN -->
<g id="edge2" class="edge"><title>PAKNYGDPMKTPKN-&gt;PAKNYGDPMKTPXN</title>
<g id="a_edge2"><a xlink:href="bogus" xlink:title=" PAKNYGDPMKTPKN -&gt; PAKNYGDPMKTPXN Min. att. -81%  max: 46%">
<path fill="none" stroke="black" stroke-width="8" d="M919.61,-346.704C946.503,-300.017 1024.84,-176.323 1128,-122 1153.36,-108.646 1182.84,-100.996 1211.4,-96.7899"/>
<polygon fill="black" stroke="black" stroke-width="8" points="1212.48,-103.708 1221.46,-95.4421 1210.62,-89.8325 1212.48,-103.708"/>
</a>
</g>
</g>
<!-- PAKNYWRTINFMCN -->
<g id="node26" class="node"><title>PAKNYWRTINFMCN</title>
<g id="a_node26"><a xlink:title="Informal wage
FRML &lt;Z,EXO&gt; PAKNYWRTINFMCN = (PAKNYWRTINFMCN(-1)*EXP(-PAKNYWRTINFMCN_A+ (-0.122614247140616-0.3*(LOG(PAKNYWRTINFMCN(-1))-LOG(PAKNYGDPFCSTXN(-1))-LOG(PAKNYGDPPOTLKN(-1)/PAKLMEMPSTRLCN(-1)))+0.2*((LOG(PAKNYWRTINFMCN(-1)))-(LOG(PAKNYWRTINFMCN(-2))))+(1-0.2)*(0.5*((LOG(PAKNYGDPFCSTXN(-1)))-(LOG(PAKNYGDPFCSTXN(-2))))+0.5*(PAKINFLEXPT/100)+((LOG(PAKNYGDPMKTPKN/PAKLMEMPSTRLCN))-(LOG(PAKNYGDPMKTPKN(-1)/PAKLMEMPSTRLCN(-1)))))-0.2*(PAKLMUNRTOTLCN-PAKLMUNRSTRLCN)/100+0.15347529018182*DURING_2000-0.183372342445734*DURING_2001) )) * (1-PAKNYWRTINFMCN_D)+ PAKNYWRTINFMCN_X*PAKNYWRTINFMCN_D  $">
<polygon fill="#63b8ff" stroke="black" points="1448.5,-59 1219.5,-59 1219.5,-23 1448.5,-23 1448.5,-59"/>
<text text-anchor="start" x="1226" y="-36.8" font-family="Times New Roman,serif" font-size="14.00" fill="blue">PAKNYWRTINFMCN:Informal wage</text>
</a>
</g>
</g>
<!-- PAKNYGDPMKTPKN&#45;&gt;PAKNYWRTINFMCN -->
<g id="edge25" class="edge"><title>PAKNYGDPMKTPKN-&gt;PAKNYWRTINFMCN</title>
<g id="a_edge25"><a xlink:href="bogus" xlink:title=" PAKNYGDPMKTPKN -&gt; PAKNYWRTINFMCN Min. att. -3148%  max: 101%">
<path fill="none" stroke="black" stroke-width="8" d="M916.76,-346.685C939.031,-293.176 1011.99,-136.553 1128,-68 1152.4,-53.5827 1181.24,-45.4897 1209.47,-41.1914"/>
<polygon fill="black" stroke="black" stroke-width="8" points="1210.47,-48.1204 1219.42,-39.8252 1208.56,-34.2505 1210.47,-48.1204"/>
</a>
</g>
</g>
<!-- PAKNYYWBTOTLCN -->
<g id="node21" class="node"><title>PAKNYYWBTOTLCN</title>
<g id="a_node21"><a xlink:title="Economy-wide wage bill
FRML  &lt;&gt; PAKNYYWBTOTLCN = PAKNYWRTTOTLCN*PAKLMEMPTOTLCN $">
<polygon fill="#63b8ff" stroke="black" points="314,-451 25,-451 25,-415 314,-415 314,-451"/>
<text text-anchor="start" x="31.5" y="-428.8" font-family="Times New Roman,serif" font-size="14.00" fill="blue">PAKNYYWBTOTLCN:Economy-wide wage bill</text>
</a>
</g>
</g>
<!-- PAKNYYWBTOTLCN&#45;&gt;PAKNECONPRVTKN -->
<g id="edge23" class="edge"><title>PAKNYYWBTOTLCN-&gt;PAKNECONPRVTKN</title>
<g id="a_edge23"><a xlink:href="bogus" xlink:title=" PAKNYYWBTOTLCN -&gt; PAKNECONPRVTKN Min. att. -594%  max: 5823%">
<path fill="none" stroke="black" stroke-width="8" d="M314.015,-422.251C335.034,-420.677 356.749,-419.051 377.949,-417.463"/>
<polygon fill="black" stroke="black" stroke-width="8" points="378.53,-424.439 387.979,-416.712 377.484,-410.478 378.53,-424.439"/>
</a>
</g>
</g>
<!-- PAKNEIMPGNFSXN -->
<g id="node22" class="node"><title>PAKNEIMPGNFSXN</title>
<g id="a_node22"><a xlink:title="Imports (G&amp;S)
FRML  &lt;&gt; PAKNEIMPGNFSXN = ((PAKNEIMPENGYSH**PAKCESENGYIMPT)*PAKNVENGNIMPXN**(1-PAKCESENGYIMPT)+(PAKNEIMPOTHRSH**PAKCESENGYIMPT)*PAKNEIMPGSNEXN**(1-PAKCESENGYIMPT))**(1/(1-PAKCESENGYIMPT)) $">
<polygon fill="#63b8ff" stroke="black" points="284,-613 55,-613 55,-577 284,-577 284,-613"/>
<text text-anchor="start" x="61.5" y="-590.8" font-family="Times New Roman,serif" font-size="14.00" fill="blue">PAKNEIMPGNFSXN:Imports (G&amp;S)</text>
</a>
</g>
</g>
<!-- PAKNEIMPGNFSXN&#45;&gt;PAKNEIMPGNFSKN -->
<g id="edge1" class="edge"><title>PAKNEIMPGNFSXN-&gt;PAKNEIMPGNFSKN</title>
<g id="a_edge1"><a xlink:href="bogus" xlink:title=" PAKNEIMPGNFSXN -&gt; PAKNEIMPGNFSKN Min. att. -390%  max: 1559%">
<path fill="none" stroke="black" stroke-width="8" d="M284.07,-586.494C323.264,-583.559 367.354,-580.256 407.317,-577.263"/>
<polygon fill="black" stroke="black" stroke-width="8" points="407.933,-584.237 417.382,-576.51 406.887,-570.276 407.933,-584.237"/>
</a>
</g>
</g>
<!-- PAKNEGDETTOTKN -->
<g id="node24" class="node"><title>PAKNEGDETTOTKN</title>
<g id="a_node24"><a xlink:title="GDE
FRML  &lt;&gt; PAKNEGDETTOTKN = (PAKNECONPRVTKN+PAKNECONGOVTKN+PAKNEGDIFTOTKN+PAKNEGDISTKBKN+PAKNYGDPDISCKN) $">
<polygon fill="#63b8ff" stroke="black" points="257,-559 82,-559 82,-523 257,-523 257,-559"/>
<text text-anchor="start" x="88.5" y="-536.8" font-family="Times New Roman,serif" font-size="14.00" fill="blue">PAKNEGDETTOTKN:GDE</text>
</a>
</g>
</g>
<!-- PAKNEGDETTOTKN&#45;&gt;PAKNEIMPGNFSKN -->
<g id="edge14" class="edge"><title>PAKNEGDETTOTKN-&gt;PAKNEIMPGNFSKN</title>
<g id="a_edge14"><a xlink:href="bogus" xlink:title=" PAKNEGDETTOTKN -&gt; PAKNEIMPGNFSKN Min. att. -755%  max: 207%">
<path fill="none" stroke="black" stroke-width="8" d="M257.307,-547.502C302.235,-550.866 357.869,-555.033 407.22,-558.729"/>
<polygon fill="black" stroke="black" stroke-width="8" points="406.83,-565.72 417.325,-559.486 407.875,-551.759 406.83,-565.72"/>
</a>
</g>
</g>
<!-- PAKFMLBLPOLYXN -->
<g id="node25" class="node"><title>PAKFMLBLPOLYXN</title>
<g id="a_node25"><a xlink:title="Policy Rate
FRML &lt;Z,EXO&gt; PAKFMLBLPOLYXN = (-100*PAKFMLBLPOLYXN_A+100* (0.905129162122953*PAKFMLBLPOLYXN(-1)/100+(1-0.905129162122953)*(PAKMPPOLNATRXN/100+1.2*(((LOG(PAKNECONPRVTXN))-(LOG(PAKNECONPRVTXN(-1))))-PAKINFLEXPT/100)+0.5*PAKNYGDPGAP_/100)) ) * (1-PAKFMLBLPOLYXN_D)+ PAKFMLBLPOLYXN_X*PAKFMLBLPOLYXN_D  $">
<polygon fill="#63b8ff" stroke="black" points="274.5,-397 64.5,-397 64.5,-361 274.5,-361 274.5,-397"/>
<text text-anchor="start" x="70.5" y="-374.8" font-family="Times New Roman,serif" font-size="14.00" fill="blue">PAKFMLBLPOLYXN:Policy Rate</text>
</a>
</g>
</g>
<!-- PAKFMLBLPOLYXN&#45;&gt;PAKNECONPRVTKN -->
<g id="edge26" class="edge"><title>PAKFMLBLPOLYXN-&gt;PAKNECONPRVTKN</title>
<g id="a_edge26"><a xlink:href="bogus" xlink:title=" PAKFMLBLPOLYXN -&gt; PAKNECONPRVTKN Min. att. -160%  max: 20%">
<path fill="none" stroke="black" stroke-width="8" d="M274.772,-386.81C306.852,-389.212 342.863,-391.909 377.523,-394.505"/>
<polygon fill="black" stroke="black" stroke-width="8" points="377.247,-401.504 387.742,-395.271 378.293,-387.543 377.247,-401.504"/>
</a>
</g>
</g>
<!-- PAKNEGDIFPRVKN -->
<g id="node27" class="node"><title>PAKNEGDIFPRVKN</title>
<g id="a_node27"><a xlink:title="Private Investment
FRML &lt;Z,EXO&gt; PAKNEGDIFPRVKN = (-PAKNEGDIFPRVKN_A*PAKNEGDIKSTKKN(-1)+ (-0.00526826150713402+0.826734606421746*(PAKNEGDIFPRVKN(-1)/PAKNEGDIKSTKKN(-2))+(1-0.826734606421746)*(((LOG(PAKNYGDPPOTLKN))-(LOG(PAKNYGDPPOTLKN(-1))))+PAKDEPR)-0.00378813564556318*((LOG(PAKNEKRTTOTLCN/PAKNYGDPFCSTXN))-(LOG(PAKNEKRTTOTLCN(-1)/PAKNYGDPFCSTXN(-1))))) *PAKNEGDIKSTKKN(-1)) * (1-PAKNEGDIFPRVKN_D)+ PAKNEGDIFPRVKN_X*PAKNEGDIFPRVKN_D  $">
<polygon fill="#63b8ff" stroke="black" points="291.5,-289 47.5,-289 47.5,-253 291.5,-253 291.5,-289"/>
<text text-anchor="start" x="53.5" y="-266.8" font-family="Times New Roman,serif" font-size="14.00" fill="blue">PAKNEGDIFPRVKN:Private Investment</text>
</a>
</g>
</g>
<!-- PAKNEGDIFPRVKN&#45;&gt;PAKNEGDIFTOTKN -->
<g id="edge4" class="edge"><title>PAKNEGDIFPRVKN-&gt;PAKNEGDIFTOTKN</title>
<g id="a_edge4"><a xlink:href="bogus" xlink:title=" PAKNEGDIFPRVKN -&gt; PAKNEGDIFTOTKN Min. att. -5%  max: 94%">
<path fill="none" stroke="black" stroke-width="8" d="M290.792,-289.019C326.071,-294.303 364.809,-300.106 400.683,-305.48"/>
<polygon fill="black" stroke="black" stroke-width="8" points="399.793,-312.424 410.72,-306.983 401.867,-298.579 399.793,-312.424"/>
</a>
</g>
</g>
<!-- PAKNECONGOVTCN -->
<g id="node28" class="node"><title>PAKNECONGOVTCN</title>
<g id="a_node28"><a xlink:title="Government consumption (G&amp;S)
FRML &lt;Z,EXO&gt; PAKNECONGOVTCN = (-PAKNECONGOVTCN_A*PAKNECONGOVTCN(-1)/100+ ((100 * ( (PAKGGEXPGNFSCN) / (PAKGGEXPGNFSCN(-1)) -1)) +0.764199817873939*DUMH) *PAKNECONGOVTCN(-1)/100+PAKNECONGOVTCN(-1)) * (1-PAKNECONGOVTCN_D)+ PAKNECONGOVTCN_X*PAKNECONGOVTCN_D  $">
<polygon fill="#63b8ff" stroke="black" points="339,-181 0,-181 0,-145 339,-145 339,-181"/>
<text text-anchor="start" x="6.5" y="-158.8" font-family="Times New Roman,serif" font-size="14.00" fill="blue">PAKNECONGOVTCN:Government consumption (G&amp;S)</text>
</a>
</g>
</g>
<!-- PAKNECONGOVTCN&#45;&gt;PAKNECONGOVTKN -->
<g id="edge16" class="edge"><title>PAKNECONGOVTCN-&gt;PAKNECONGOVTKN</title>
<g id="a_edge16"><a xlink:href="bogus" xlink:title=" PAKNECONGOVTCN -&gt; PAKNECONGOVTKN Min. att. 117%  max: 963%">
<path fill="none" stroke="black" stroke-width="8" d="M290.792,-181.019C326.071,-186.303 364.809,-192.106 400.683,-197.48"/>
<polygon fill="black" stroke="black" stroke-width="8" points="399.793,-204.424 410.72,-198.983 401.867,-190.579 399.793,-204.424"/>
</a>
</g>
</g>
</g>
</svg>