<svg xmlns="http://www.w3.org/2000/svg" xmlns:xlink="http://www.w3.org/1999/xlink" width="1060pt" height="280pt" viewBox="0.00 0.00 1060.00 280.07">
<g id="graph0" class="graph" transform="scale(1 1) rotate(0) translate(4 276.07)">
<title>TD</title>
<polygon fill="white" stroke="none" points="-4,4 -4,-276.07 1056,-276.07 1056,4 -4,4"/>
<text text-anchor="middle" x="526" y="-7.8" font-family="Times New Roman,serif" font-size="14.00">Model Structure</text>
<!-- LABOR_GROWTH -->
<g id="node1" class="node"><title>LABOR_GROWTH</title>
<g id="a_node1"><a xlink:title="LABOR_GROWTH
Exogen">
<polygon fill="yellow" stroke="black" points="133,-88.0697 0,-88.0697 0,-52.0697 133,-52.0697 133,-88.0697"/>
<text text-anchor="start" x="6.5" y="-65.8697" font-family="Times New Roman,serif" font-size="14.00" fill="blue">LABOR_GROWTH:</text>
</a>
</g>
</g>
<!-- LABOR -->
<g id="node7" class="node"><title>LABOR</title>
<g id="a_node7"><a xlink:title="LABOR
FRML &lt;&gt; LABOR=LABOR(-1)+(LABOR_GROWTH * LABOR(-1))$">
<polygon fill="#63b8ff" stroke="black" points="232,-88.0697 169,-88.0697 169,-52.0697 232,-52.0697 232,-88.0697"/>
<text text-anchor="start" x="175.5" y="-65.8697" font-family="Times New Roman,serif" font-size="14.00" fill="blue">LABOR:</text>
</a>
</g>
</g>
<!-- LABOR_GROWTH&#45;&gt;LABOR -->
<g id="edge2" class="edge"><title>LABOR_GROWTH-&gt;LABOR</title>
<g id="a_edge2"><a xlink:href="bogus" xlink:title=" LABOR_GROWTH -&gt; LABOR Min. att. 0%  max: 100%">
<path fill="none" stroke="black" stroke-width="8" d="M133.113,-70.0697C141.751,-70.0697 150.398,-70.0697 158.462,-70.0697"/>
<polygon fill="black" stroke="black" stroke-width="8" points="158.677,-77.0698 168.677,-70.0697 158.677,-63.0698 158.677,-77.0698"/>
</a>
</g>
</g>
<!-- CONSUMPTION -->
<g id="node2" class="node"><title>CONSUMPTION</title>
<g id="a_node2"><a xlink:title="CONSUMPTION
FRML &lt;&gt; CONSUMPTION     = (1-SAVING_RATE)  * INCOME  $">
<polygon fill="#63b8ff" stroke="black" points="552,-142.07 434,-142.07 434,-106.07 552,-106.07 552,-142.07"/>
<text text-anchor="start" x="440" y="-119.87" font-family="Times New Roman,serif" font-size="14.00" fill="blue">CONSUMPTION:</text>
</a>
</g>
</g>
<!-- INVESTMENT -->
<g id="node4" class="node"><title>INVESTMENT</title>
<g id="a_node4"><a xlink:title="INVESTMENT
FRML &lt;&gt; INVESTMENT      = INCOME - CONSUMPTION  $">
<polygon fill="#63b8ff" stroke="black" points="721,-180.07 617,-180.07 617,-144.07 721,-144.07 721,-180.07"/>
<text text-anchor="start" x="623" y="-157.87" font-family="Times New Roman,serif" font-size="14.00" fill="blue">INVESTMENT:</text>
</a>
</g>
</g>
<!-- CONSUMPTION&#45;&gt;INVESTMENT -->
<g id="edge8" class="edge"><title>CONSUMPTION-&gt;INVESTMENT</title>
<g id="a_edge8"><a xlink:href="bogus" xlink:title=" CONSUMPTION -&gt; INVESTMENT Min. att. -1900%  max: -1900%">
<path fill="none" stroke="black" stroke-width="8" d="M552.424,-136.829C569.837,-140.632 588.97,-144.81 606.57,-148.654"/>
<polygon fill="black" stroke="black" stroke-width="8" points="605.467,-155.578 616.731,-150.873 608.455,-141.9 605.467,-155.578"/>
</a>
</g>
</g>
<!-- A -->
<g id="node3" class="node"><title>A</title>
<g id="a_node3"><a xlink:title="A
Exogen">
<polygon fill="yellow" stroke="black" points="227.5,-169.07 173.5,-169.07 173.5,-133.07 227.5,-133.07 227.5,-169.07"/>
<text text-anchor="start" x="194.5" y="-146.87" font-family="Times New Roman,serif" font-size="14.00" fill="blue">A:</text>
</a>
</g>
</g>
<!-- INCOME -->
<g id="node6" class="node"><title>INCOME</title>
<g id="a_node6"><a xlink:title="INCOME
FRML &lt;&gt; INCOME          = A  * CAPITAL**ALFA * LABOR **(1-ALFA)  $">
<polygon fill="#63b8ff" stroke="black" points="368,-196.07 298,-196.07 298,-160.07 368,-160.07 368,-196.07"/>
<text text-anchor="start" x="304" y="-173.87" font-family="Times New Roman,serif" font-size="14.00" fill="blue">INCOME:</text>
</a>
</g>
</g>
<!-- A&#45;&gt;INCOME -->
<g id="edge5" class="edge"><title>A-&gt;INCOME</title>
<g id="a_edge5"><a xlink:href="bogus" xlink:title=" A -&gt; INCOME Min. att. -0%  max: -0%">
<path fill="none" stroke="black" d="M227.595,-156.469C244.775,-160.023 267.703,-164.767 287.695,-168.903"/>
<polygon fill="black" stroke="black" points="287.034,-172.34 297.535,-170.939 288.452,-165.485 287.034,-172.34"/>
</a>
</g>
</g>
<!-- CAPITAL -->
<g id="node9" class="node"><title>CAPITAL</title>
<g id="a_node9"><a xlink:title="CAPITAL
FRML &lt;&gt; CAPITAL=CAPITAL(-1)+(INVESTMENT-DEPRECIATION_RATE * CAPITAL(-1))$">
<polygon fill="#63b8ff" stroke="black" points="861,-203.07 786,-203.07 786,-167.07 861,-167.07 861,-203.07"/>
<text text-anchor="start" x="792.5" y="-180.87" font-family="Times New Roman,serif" font-size="14.00" fill="blue">CAPITAL:</text>
</a>
</g>
</g>
<!-- INVESTMENT&#45;&gt;CAPITAL -->
<g id="edge10" class="edge"><title>INVESTMENT-&gt;CAPITAL</title>
<g id="a_edge10"><a xlink:href="bogus" xlink:title=" INVESTMENT -&gt; CAPITAL Min. att. 6%  max: 100%">
<path fill="none" stroke="black" stroke-width="8" d="M721.205,-169.792C738.689,-172.429 758.15,-175.364 775.303,-177.951"/>
<polygon fill="black" stroke="black" stroke-width="8" points="774.716,-184.942 785.648,-179.512 776.804,-171.098 774.716,-184.942"/>
</a>
</g>
</g>
<!-- ALFA -->
<g id="node5" class="node"><title>ALFA</title>
<g id="a_node5"><a xlink:title="ALFA
Exogen">
<polygon fill="yellow" stroke="black" points="227.5,-223.07 173.5,-223.07 173.5,-187.07 227.5,-187.07 227.5,-223.07"/>
<text text-anchor="start" x="180.5" y="-200.87" font-family="Times New Roman,serif" font-size="14.00" fill="blue">ALFA:</text>
</a>
</g>
</g>
<!-- ALFA&#45;&gt;INCOME -->
<g id="edge9" class="edge"><title>ALFA-&gt;INCOME</title>
<g id="a_edge9"><a xlink:href="bogus" xlink:title=" ALFA -&gt; INCOME Min. att. -0%  max: -0%">
<path fill="none" stroke="black" d="M227.595,-199.671C244.775,-196.116 267.703,-191.373 287.695,-187.236"/>
<polygon fill="black" stroke="black" points="288.452,-190.654 297.535,-185.2 287.034,-183.799 288.452,-190.654"/>
</a>
</g>
</g>
<!-- INCOME&#45;&gt;CONSUMPTION -->
<g id="edge1" class="edge"><title>INCOME-&gt;CONSUMPTION</title>
<g id="a_edge1"><a xlink:href="bogus" xlink:title=" INCOME -&gt; CONSUMPTION Min. att. 100%  max: 100%">
<path fill="none" stroke="black" stroke-width="8" d="M368.284,-166.352C386.229,-160.219 408.763,-152.518 429.667,-145.373"/>
<polygon fill="black" stroke="black" stroke-width="8" points="431.936,-151.996 439.134,-142.138 427.408,-138.748 431.936,-151.996"/>
</a>
</g>
</g>
<!-- INCOME&#45;&gt;INVESTMENT -->
<g id="edge17" class="edge"><title>INCOME-&gt;INVESTMENT</title>
<g id="a_edge17"><a xlink:href="bogus" xlink:title=" INCOME -&gt; INVESTMENT Min. att. 2000%  max: 2000%">
<path fill="none" stroke="black" stroke-width="8" d="M368.174,-176.433C424.272,-173.745 536.64,-168.362 606.753,-165.004"/>
<polygon fill="black" stroke="black" stroke-width="8" points="607.126,-171.994 616.78,-164.523 606.456,-158.01 607.126,-171.994"/>
</a>
</g>
</g>
<!-- LABOR&#45;&gt;INCOME -->
<g id="edge11" class="edge"><title>LABOR-&gt;INCOME</title>
<g id="a_edge11"><a xlink:href="bogus" xlink:title=" LABOR -&gt; INCOME Min. att. 59%  max: 97%">
<path fill="none" stroke="black" stroke-width="8" d="M212.7,-88.3513C224.528,-106.367 244.673,-133.654 268,-151.07 274.112,-155.633 281.111,-159.589 288.185,-162.96"/>
<polygon fill="black" stroke="black" stroke-width="8" points="285.828,-169.571 297.802,-167.196 291.472,-156.759 285.828,-169.571"/>
</a>
</g>
</g>
<!-- CAPITAL_INTENSITY -->
<g id="node11" class="node"><title>CAPITAL_INTENSITY</title>
<g id="a_node11"><a xlink:title="CAPITAL_INTENSITY
FRML &lt;&gt; CAPITAL_INTENSITY = CAPITAL/LABOR  $">
<polygon fill="#63b8ff" stroke="black" points="1052,-96.0697 897,-96.0697 897,-60.0697 1052,-60.0697 1052,-96.0697"/>
<text text-anchor="start" x="903.5" y="-73.8697" font-family="Times New Roman,serif" font-size="14.00" fill="blue">CAPITAL_INTENSITY:</text>
</a>
</g>
</g>
<!-- LABOR&#45;&gt;CAPITAL_INTENSITY -->
<g id="edge12" class="edge"><title>LABOR-&gt;CAPITAL_INTENSITY</title>
<g id="a_edge12"><a xlink:href="bogus" xlink:title=" LABOR -&gt; CAPITAL_INTENSITY Min. att. 103%  max: 1269%">
<path fill="none" stroke="black" stroke-width="8" d="M232.32,-55.3032C243.341,-50.6328 256.004,-45.9438 268,-43.0697 365.163,-19.791 392.087,-24.0697 492,-24.0697 492,-24.0697 492,-24.0697 670,-24.0697 749.466,-24.0697 838.852,-42.2362 899.916,-57.4956"/>
<polygon fill="black" stroke="black" stroke-width="8" points="898.431,-64.3404 909.845,-60.0134 901.873,-50.7699 898.431,-64.3404"/>
</a>
</g>
</g>
<!-- LABOR(&#45;1) -->
<g id="node13" class="node"><title>LABOR(-1)</title>
<g id="a_node13"><a xlink:title="LABOR
FRML &lt;&gt; LABOR=LABOR(-1)+(LABOR_GROWTH * LABOR(-1))$">
<polygon fill="springgreen" stroke="black" points="398,-88.0697 268,-88.0697 268,-52.0697 398,-52.0697 398,-88.0697"/>
<text text-anchor="start" x="274" y="-65.8697" font-family="Times New Roman,serif" font-size="14.00" fill="blue">LABOR(-1):LABOR</text>
</a>
</g>
</g>
<!-- LABOR&#45;&gt;LABOR(&#45;1) -->
<g id="edge13" class="edge"><title>LABOR-&gt;LABOR(-1)</title>
<g id="a_edge13"><a xlink:href="bogus" xlink:title=" LABOR -&gt; LABOR(-1) Min. att. 0%  max: 100%">
<path fill="none" stroke="black" stroke-width="8" d="M232.096,-64.2492C239.924,-63.7846 248.688,-63.4941 257.687,-63.3779"/>
<polygon fill="black" stroke="black" stroke-width="8" points="257.949,-70.3766 267.91,-63.3206 257.87,-56.3768 257.949,-70.3766"/>
</a>
</g>
</g>
<!-- SAVING_RATE -->
<g id="node8" class="node"><title>SAVING_RATE</title>
<g id="a_node8"><a xlink:title="SAVING_RATE
Exogen">
<polygon fill="yellow" stroke="black" points="389,-142.07 277,-142.07 277,-106.07 389,-106.07 389,-142.07"/>
<text text-anchor="start" x="283" y="-119.87" font-family="Times New Roman,serif" font-size="14.00" fill="blue">SAVING_RATE:</text>
</a>
</g>
</g>
<!-- SAVING_RATE&#45;&gt;CONSUMPTION -->
<g id="edge4" class="edge"><title>SAVING_RATE-&gt;CONSUMPTION</title>
<g id="a_edge4"><a xlink:href="bogus" xlink:title=" SAVING_RATE -&gt; CONSUMPTION Min. att. 0%  max: 0%">
<path fill="none" stroke="black" d="M389.261,-124.07C400.411,-124.07 412.256,-124.07 423.789,-124.07"/>
<polygon fill="black" stroke="black" points="423.819,-127.57 433.819,-124.07 423.819,-120.57 423.819,-127.57"/>
</a>
</g>
</g>
<!-- CAPITAL&#45;&gt;INCOME -->
<g id="edge6" class="edge"><title>CAPITAL-&gt;INCOME</title>
<g id="a_edge6"><a xlink:href="bogus" xlink:title=" CAPITAL -&gt; INCOME Min. att. 3%  max: 54%">
<path fill="none" stroke="black" stroke-width="5.42297" d="M785.634,-187.498C774.217,-188.144 761.593,-188.75 750,-189.07 609.591,-192.94 574.312,-190.556 434,-184.07 415.872,-183.232 395.908,-182.08 378.617,-181.01"/>
<polygon fill="black" stroke="black" stroke-width="5.42297" points="378.514,-176.249 368.236,-180.357 377.919,-185.72 378.514,-176.249"/>
</a>
</g>
</g>
<!-- CAPITAL&#45;&gt;CAPITAL_INTENSITY -->
<g id="edge7" class="edge"><title>CAPITAL-&gt;CAPITAL_INTENSITY</title>
<g id="a_edge7"><a xlink:href="bogus" xlink:title=" CAPITAL -&gt; CAPITAL_INTENSITY Min. att. -647%  max: -3%">
<path fill="none" stroke="black" stroke-width="8" d="M849.776,-166.919C874.499,-149.164 912.314,-122.008 939.63,-102.392"/>
<polygon fill="black" stroke="black" stroke-width="8" points="944.061,-107.829 948.1,-96.3098 935.894,-96.457 944.061,-107.829"/>
</a>
</g>
</g>
<!-- CAPITAL(&#45;1) -->
<g id="node12" class="node"><title>CAPITAL(-1)</title>
<g id="a_node12"><a xlink:title="CAPITAL
FRML &lt;&gt; CAPITAL=CAPITAL(-1)+(INVESTMENT-DEPRECIATION_RATE * CAPITAL(-1))$">
<polygon fill="springgreen" stroke="black" points="1051.5,-203.07 897.5,-203.07 897.5,-167.07 1051.5,-167.07 1051.5,-203.07"/>
<text text-anchor="start" x="903.5" y="-180.87" font-family="Times New Roman,serif" font-size="14.00" fill="blue">CAPITAL(-1):CAPITAL</text>
</a>
</g>
</g>
<!-- CAPITAL&#45;&gt;CAPITAL(&#45;1) -->
<g id="edge3" class="edge"><title>CAPITAL-&gt;CAPITAL(-1)</title>
<g id="a_edge3"><a xlink:href="bogus" xlink:title=" CAPITAL -&gt; CAPITAL(-1) Min. att. 0%  max: 94%">
<path fill="none" stroke="black" stroke-width="8" d="M861.331,-179.154C869.346,-178.766 878.15,-178.513 887.192,-178.396"/>
<polygon fill="black" stroke="black" stroke-width="8" points="887.523,-185.393 897.472,-178.321 887.422,-171.394 887.523,-185.393"/>
</a>
</g>
</g>
<!-- DEPRECIATION_RATE -->
<g id="node10" class="node"><title>DEPRECIATION_RATE</title>
<g id="a_node10"><a xlink:title="DEPRECIATION_RATE
Exogen">
<polygon fill="yellow" stroke="black" points="750,-272.07 588,-272.07 588,-236.07 750,-236.07 750,-272.07"/>
<text text-anchor="start" x="594" y="-249.87" font-family="Times New Roman,serif" font-size="14.00" fill="blue">DEPRECIATION_RATE:</text>
</a>
</g>
</g>
<!-- DEPRECIATION_RATE&#45;&gt;CAPITAL -->
<g id="edge16" class="edge"><title>DEPRECIATION_RATE-&gt;CAPITAL</title>
<g id="a_edge16"><a xlink:href="bogus" xlink:title=" DEPRECIATION_RATE -&gt; CAPITAL Min. att. 0%  max: 0%">
<path fill="none" stroke="black" d="M717.258,-235.997C728.096,-231.624 739.512,-226.831 750,-222.07 759.653,-217.687 769.875,-212.695 779.503,-207.828"/>
<polygon fill="black" stroke="black" points="781.202,-210.89 788.515,-203.223 778.017,-204.657 781.202,-210.89"/>
</a>
</g>
</g>
<!-- CAPITAL(&#45;1)&#45;&gt;CAPITAL -->
<g id="edge15" class="edge"><title>CAPITAL(-1)-&gt;CAPITAL</title>
<g id="a_edge15"><a xlink:href="bogus" xlink:title="NA">
<path fill="none" stroke="black" stroke-width="0.5" d="M897.472,-191.818C888.624,-191.804 879.805,-191.662 871.513,-191.394"/>
<polygon fill="black" stroke="black" stroke-width="0.5" points="871.464,-187.889 861.331,-190.985 871.183,-194.883 871.464,-187.889"/>
</a>
</g>
</g>
<!-- LABOR(&#45;1)&#45;&gt;LABOR -->
<g id="edge14" class="edge"><title>LABOR(-1)-&gt;LABOR</title>
<g id="a_edge14"><a xlink:href="bogus" xlink:title="NA">
<path fill="none" stroke="black" stroke-width="0.5" d="M267.91,-76.8187C259.126,-76.8331 250.315,-76.6843 242.113,-76.3724"/>
<polygon fill="black" stroke="black" stroke-width="0.5" points="242.253,-72.8752 232.096,-75.8901 241.917,-79.8671 242.253,-72.8752"/>
</a>
</g>
</g>
</g>
</svg>