<svg xmlns="http://www.w3.org/2000/svg" xmlns:xlink="http://www.w3.org/1999/xlink" width="746pt" height="321pt" viewBox="0.00 0.00 746.00 321.00">
<g id="graph0" class="graph" transform="scale(1 1) rotate(0) translate(4 317)">
<title>TD</title>
<polygon fill="white" stroke="none" points="-4,4 -4,-317 742,-317 742,4 -4,4"/>
<text text-anchor="middle" x="369" y="-7.8" font-family="Times New Roman,serif" font-size="14.00">Model Structure</text>
<!-- DEPRECIATION_RATE -->
<g id="node1" class="node">
<title>DEPRECIATION_RATE</title>
<g id="a_node1"><a xlink:title="DEPRECIATION_RATE
Exogen">
<polygon fill="yellow" stroke="black" points="154,-275 0,-275 0,-239 154,-239 154,-275"/>
<text text-anchor="start" x="6" y="-252.8" font-family="Times New Roman,serif" font-size="14.00" fill="blue">DEPRECIATION_RATE:</text>
</a>
</g>
</g>
<!-- CAPITAL -->
<g id="node2" class="node">
<title>CAPITAL</title>
<g id="a_node2"><a xlink:title="CAPITAL
FRML &lt;&gt; CAPITAL=CAPITAL(-1)+(INVESTMENT-DEPRECIATION_RATE * CAPITAL(-1))$">
<polygon fill="#63b8ff" stroke="black" points="263,-275 190,-275 190,-239 263,-239 263,-275"/>
<text text-anchor="start" x="196.5" y="-252.8" font-family="Times New Roman,serif" font-size="14.00" fill="blue">CAPITAL:</text>
</a>
</g>
</g>
<!-- DEPRECIATION_RATE&#45;&gt;CAPITAL -->
<g id="edge10" class="edge">
<title>DEPRECIATION_RATE-&gt;CAPITAL</title>
<g id="a_edge10"><a xlink:href="bogus" xlink:title=" DEPRECIATION_RATE -&gt; CAPITAL Min. att. 0%  max: 0%">
<path fill="none" stroke="black" d="M154.34,-257C162.94,-257 171.5,-257 179.54,-257"/>
<polygon fill="black" stroke="black" points="179.77,-260.5 189.77,-257 179.77,-253.5 179.77,-260.5"/>
</a>
</g>
</g>
<!-- CAPITAL_INTENSITY -->
<g id="node7" class="node">
<title>CAPITAL_INTENSITY</title>
<g id="a_node7"><a xlink:title="CAPITAL_INTENSITY
FRML &lt;&gt; CAPITAL_INTENSITY = CAPITAL/LABOR  $">
<polygon fill="#63b8ff" stroke="black" points="448,-113 299,-113 299,-77 448,-77 448,-113"/>
<text text-anchor="start" x="305.5" y="-90.8" font-family="Times New Roman,serif" font-size="14.00" fill="blue">CAPITAL_INTENSITY:</text>
</a>
</g>
</g>
<!-- CAPITAL&#45;&gt;CAPITAL_INTENSITY -->
<g id="edge16" class="edge">
<title>CAPITAL-&gt;CAPITAL_INTENSITY</title>
<g id="a_edge16"><a xlink:href="bogus" xlink:title=" CAPITAL -&gt; CAPITAL_INTENSITY Min. att. -647%  max: -3%">
<path fill="none" stroke="black" stroke-width="8" d="M255.09,-238.8C258.02,-236.1 260.75,-233.15 263,-230 292.45,-188.85 263.77,-158.31 299,-122 299.91,-121.07 300.85,-120.17 301.82,-119.3"/>
<polygon fill="black" stroke="black" stroke-width="8" points="306.09,-124.84 309.81,-113.21 297.61,-113.7 306.09,-124.84"/>
</a>
</g>
</g>
<!-- INCOME -->
<g id="node8" class="node">
<title>INCOME</title>
<g id="a_node8"><a xlink:title="INCOME
FRML &lt;&gt; INCOME          = A  * CAPITAL**ALFA * LABOR **(1-ALFA)  $">
<polygon fill="#63b8ff" stroke="black" points="408.5,-221 338.5,-221 338.5,-185 408.5,-185 408.5,-221"/>
<text text-anchor="start" x="344.5" y="-198.8" font-family="Times New Roman,serif" font-size="14.00" fill="blue">INCOME:</text>
</a>
</g>
</g>
<!-- CAPITAL&#45;&gt;INCOME -->
<g id="edge2" class="edge">
<title>CAPITAL-&gt;INCOME</title>
<g id="a_edge2"><a xlink:href="bogus" xlink:title=" CAPITAL -&gt; INCOME Min. att. 3%  max: 54%">
<path fill="none" stroke="black" stroke-width="5.42" d="M263.34,-243.65C283.04,-236.32 307.62,-227.16 328.48,-219.4"/>
<polygon fill="black" stroke="black" stroke-width="5.42" points="330.35,-223.76 338.07,-215.82 327.04,-214.87 330.35,-223.76"/>
</a>
</g>
</g>
<!-- CAPITAL(&#45;1) -->
<g id="node13" class="node">
<title>CAPITAL(-1)</title>
<g id="a_node13"><a xlink:title="CAPITAL
FRML &lt;&gt; CAPITAL=CAPITAL(-1)+(INVESTMENT-DEPRECIATION_RATE * CAPITAL(-1))$">
<polygon fill="springgreen" stroke="black" points="448,-313 299,-313 299,-277 448,-277 448,-313"/>
<text text-anchor="start" x="305.5" y="-290.8" font-family="Times New Roman,serif" font-size="14.00" fill="blue">CAPITAL(-1):CAPITAL</text>
</a>
</g>
</g>
<!-- CAPITAL&#45;&gt;CAPITAL(&#45;1) -->
<g id="edge17" class="edge">
<title>CAPITAL-&gt;CAPITAL(-1)</title>
<g id="a_edge17"><a xlink:href="bogus" xlink:title=" CAPITAL -&gt; CAPITAL(-1) Min. att. 0%  max: 94%">
<path fill="none" stroke="black" stroke-width="8" d="M263.34,-260.48C279.84,-263.98 299.76,-268.99 318.05,-274.17"/>
<polygon fill="black" stroke="black" stroke-width="8" points="316.17,-280.91 327.73,-276.98 320.07,-267.47 316.17,-280.91"/>
</a>
</g>
</g>
<!-- LABOR(&#45;1) -->
<g id="node3" class="node">
<title>LABOR(-1)</title>
<g id="a_node3"><a xlink:title="LABOR
FRML &lt;&gt; LABOR=LABOR(-1)+(LABOR_GROWTH * LABOR(-1))$">
<polygon fill="springgreen" stroke="black" points="437.5,-59 309.5,-59 309.5,-23 437.5,-23 437.5,-59"/>
<text text-anchor="start" x="315.5" y="-36.8" font-family="Times New Roman,serif" font-size="14.00" fill="blue">LABOR(-1):LABOR</text>
</a>
</g>
</g>
<!-- LABOR -->
<g id="node9" class="node">
<title>LABOR</title>
<g id="a_node9"><a xlink:title="LABOR
FRML &lt;&gt; LABOR=LABOR(-1)+(LABOR_GROWTH * LABOR(-1))$">
<polygon fill="#63b8ff" stroke="black" points="257.5,-86 195.5,-86 195.5,-50 257.5,-50 257.5,-86"/>
<text text-anchor="start" x="201.5" y="-63.8" font-family="Times New Roman,serif" font-size="14.00" fill="blue">LABOR:</text>
</a>
</g>
</g>
<!-- LABOR(&#45;1)&#45;&gt;LABOR -->
<g id="edge4" class="edge">
<title>LABOR(-1)-&gt;LABOR</title>
<g id="a_edge4"><a xlink:href="bogus" xlink:title="NA">
<path fill="none" stroke="black" stroke-width="0.5" d="M311.39,-59.05C296.56,-62.01 281.08,-64.71 267.51,-66.66"/>
<polygon fill="black" stroke="black" stroke-width="0.5" points="266.99,-63.2 257.54,-68 267.92,-70.13 266.99,-63.2"/>
</a>
</g>
</g>
<!-- SAVING_RATE -->
<g id="node4" class="node">
<title>SAVING_RATE</title>
<g id="a_node4"><a xlink:title="SAVING_RATE
Exogen">
<polygon fill="yellow" stroke="black" points="426.5,-167 320.5,-167 320.5,-131 426.5,-131 426.5,-167"/>
<text text-anchor="start" x="326.5" y="-144.8" font-family="Times New Roman,serif" font-size="14.00" fill="blue">SAVING_RATE:</text>
</a>
</g>
</g>
<!-- CONSUMPTION -->
<g id="node10" class="node">
<title>CONSUMPTION</title>
<g id="a_node10"><a xlink:title="CONSUMPTION
FRML &lt;&gt; CONSUMPTION     = (1-SAVING_RATE)  * INCOME  $">
<polygon fill="#63b8ff" stroke="black" points="599,-179 484,-179 484,-143 599,-143 599,-179"/>
<text text-anchor="start" x="490.5" y="-156.8" font-family="Times New Roman,serif" font-size="14.00" fill="blue">CONSUMPTION:</text>
</a>
</g>
</g>
<!-- SAVING_RATE&#45;&gt;CONSUMPTION -->
<g id="edge7" class="edge">
<title>SAVING_RATE-&gt;CONSUMPTION</title>
<g id="a_edge7"><a xlink:href="bogus" xlink:title=" SAVING_RATE -&gt; CONSUMPTION Min. att. 0%  max: 0%">
<path fill="none" stroke="black" d="M426.57,-152.76C441.47,-153.84 457.91,-155.03 473.57,-156.16"/>
<polygon fill="black" stroke="black" points="473.49,-159.67 483.72,-156.9 474,-152.68 473.49,-159.67"/>
</a>
</g>
</g>
<!-- INVESTMENT -->
<g id="node5" class="node">
<title>INVESTMENT</title>
<g id="a_node5"><a xlink:title="INVESTMENT
FRML &lt;&gt; INVESTMENT      = INCOME - CONSUMPTION  $">
<polygon fill="#63b8ff" stroke="black" points="738,-225 635,-225 635,-189 738,-189 738,-225"/>
<text text-anchor="start" x="641.5" y="-202.8" font-family="Times New Roman,serif" font-size="14.00" fill="blue">INVESTMENT:</text>
</a>
</g>
</g>
<!-- INVESTMENT&#45;&gt;CAPITAL -->
<g id="edge15" class="edge">
<title>INVESTMENT-&gt;CAPITAL</title>
<g id="a_edge15"><a xlink:href="bogus" xlink:title=" INVESTMENT -&gt; CAPITAL Min. att. 6%  max: 100%">
<path fill="none" stroke="black" stroke-width="8" d="M634.77,-214.35C623.03,-215.96 610.59,-217.6 599,-219 481.91,-233.11 343.64,-246.35 273.41,-252.84"/>
<polygon fill="black" stroke="black" stroke-width="8" points="272.47,-245.9 263.15,-253.78 273.75,-259.84 272.47,-245.9"/>
</a>
</g>
</g>
<!-- ALFA -->
<g id="node6" class="node">
<title>ALFA</title>
<g id="a_node6"><a xlink:title="ALFA
Exogen">
<polygon fill="yellow" stroke="black" points="253.5,-221 199.5,-221 199.5,-185 253.5,-185 253.5,-221"/>
<text text-anchor="start" x="207.5" y="-198.8" font-family="Times New Roman,serif" font-size="14.00" fill="blue">ALFA:</text>
</a>
</g>
</g>
<!-- ALFA&#45;&gt;INCOME -->
<g id="edge8" class="edge">
<title>ALFA-&gt;INCOME</title>
<g id="a_edge8"><a xlink:href="bogus" xlink:title=" ALFA -&gt; INCOME Min. att. -0%  max: -0%">
<path fill="none" stroke="black" d="M253.76,-203C274.47,-203 303.82,-203 328.15,-203"/>
<polygon fill="black" stroke="black" points="328.24,-206.5 338.24,-203 328.24,-199.5 328.24,-206.5"/>
</a>
</g>
</g>
<!-- INCOME&#45;&gt;INVESTMENT -->
<g id="edge6" class="edge">
<title>INCOME-&gt;INVESTMENT</title>
<g id="a_edge6"><a xlink:href="bogus" xlink:title=" INCOME -&gt; INVESTMENT Min. att. 2000%  max: 2000%">
<path fill="none" stroke="black" stroke-width="8" d="M408.67,-203.44C460.65,-204.11 560.32,-205.39 624.8,-206.22"/>
<polygon fill="black" stroke="black" stroke-width="8" points="624.75,-213.22 634.84,-206.35 624.93,-199.22 624.75,-213.22"/>
</a>
</g>
</g>
<!-- INCOME&#45;&gt;CONSUMPTION -->
<g id="edge11" class="edge">
<title>INCOME-&gt;CONSUMPTION</title>
<g id="a_edge11"><a xlink:href="bogus" xlink:title=" INCOME -&gt; CONSUMPTION Min. att. 100%  max: 100%">
<path fill="none" stroke="black" stroke-width="8" d="M408.9,-194.3C427.76,-189.53 451.79,-183.45 474.14,-177.79"/>
<polygon fill="black" stroke="black" stroke-width="8" points="475.95,-184.55 483.93,-175.31 472.52,-170.98 475.95,-184.55"/>
</a>
</g>
</g>
<!-- LABOR&#45;&gt;LABOR(&#45;1) -->
<g id="edge12" class="edge">
<title>LABOR-&gt;LABOR(-1)</title>
<g id="a_edge12"><a xlink:href="bogus" xlink:title=" LABOR -&gt; LABOR(-1) Min. att. 0%  max: 100%">
<path fill="none" stroke="black" stroke-width="8" d="M257.54,-56.81C269.74,-53.78 284.42,-50.67 299.14,-47.91"/>
<polygon fill="black" stroke="black" stroke-width="8" points="300.72,-54.74 309.31,-46.07 298.22,-40.96 300.72,-54.74"/>
</a>
</g>
</g>
<!-- LABOR&#45;&gt;CAPITAL_INTENSITY -->
<g id="edge9" class="edge">
<title>LABOR-&gt;CAPITAL_INTENSITY</title>
<g id="a_edge9"><a xlink:href="bogus" xlink:title=" LABOR -&gt; CAPITAL_INTENSITY Min. att. 103%  max: 1269%">
<path fill="none" stroke="black" stroke-width="8" d="M257.54,-73.59C266.91,-75.34 277.74,-77.35 288.93,-79.44"/>
<polygon fill="black" stroke="black" stroke-width="8" points="287.71,-86.33 298.82,-81.28 290.27,-72.57 287.71,-86.33"/>
</a>
</g>
</g>
<!-- LABOR&#45;&gt;INCOME -->
<g id="edge3" class="edge">
<title>LABOR-&gt;INCOME</title>
<g id="a_edge3"><a xlink:href="bogus" xlink:title=" LABOR -&gt; INCOME Min. att. 59%  max: 97%">
<path fill="none" stroke="black" stroke-width="8" d="M239.41,-86.15C259.48,-116.7 297.96,-175.18 299,-176 307.74,-182.91 318.41,-188.16 328.88,-192.11"/>
<polygon fill="black" stroke="black" stroke-width="8" points="326.65,-198.74 338.38,-195.38 331.2,-185.5 326.65,-198.74"/>
</a>
</g>
</g>
<!-- CONSUMPTION&#45;&gt;INVESTMENT -->
<g id="edge5" class="edge">
<title>CONSUMPTION-&gt;INVESTMENT</title>
<g id="a_edge5"><a xlink:href="bogus" xlink:title=" CONSUMPTION -&gt; INVESTMENT Min. att. -1900%  max: -1900%">
<path fill="none" stroke="black" stroke-width="8" d="M598.61,-179.05C607.25,-181.83 616.2,-184.71 624.94,-187.52"/>
<polygon fill="black" stroke="black" stroke-width="8" points="623.01,-194.25 634.67,-190.65 627.3,-180.92 623.01,-194.25"/>
</a>
</g>
</g>
<!-- LABOR_GROWTH -->
<g id="node11" class="node">
<title>LABOR_GROWTH</title>
<g id="a_node11"><a xlink:title="LABOR_GROWTH
Exogen">
<polygon fill="yellow" stroke="black" points="141.5,-86 12.5,-86 12.5,-50 141.5,-50 141.5,-86"/>
<text text-anchor="start" x="19" y="-63.8" font-family="Times New Roman,serif" font-size="14.00" fill="blue">LABOR_GROWTH:</text>
</a>
</g>
</g>
<!-- LABOR_GROWTH&#45;&gt;LABOR -->
<g id="edge13" class="edge">
<title>LABOR_GROWTH-&gt;LABOR</title>
<g id="a_edge13"><a xlink:href="bogus" xlink:title=" LABOR_GROWTH -&gt; LABOR Min. att. 0%  max: 100%">
<path fill="none" stroke="black" stroke-width="8" d="M141.84,-68C156.46,-68 171.61,-68 184.94,-68"/>
<polygon fill="black" stroke="black" stroke-width="8" points="185.19,-75 195.19,-68 185.19,-61 185.19,-75"/>
</a>
</g>
</g>
<!-- A -->
<g id="node12" class="node">
<title>A</title>
<g id="a_node12"><a xlink:title="A
Exogen">
<polygon fill="yellow" stroke="black" points="253.5,-167 199.5,-167 199.5,-131 253.5,-131 253.5,-167"/>
<text text-anchor="start" x="219.5" y="-144.8" font-family="Times New Roman,serif" font-size="14.00" fill="blue">A:</text>
</a>
</g>
</g>
<!-- A&#45;&gt;INCOME -->
<g id="edge14" class="edge">
<title>A-&gt;INCOME</title>
<g id="a_edge14"><a xlink:href="bogus" xlink:title=" A -&gt; INCOME Min. att. -0%  max: -0%">
<path fill="none" stroke="black" d="M253.63,-158.93C267.16,-164.06 283.95,-170.4 299,-176 308.65,-179.59 319.02,-183.43 328.85,-187.04"/>
<polygon fill="black" stroke="black" points="327.85,-190.4 338.44,-190.56 330.26,-183.83 327.85,-190.4"/>
</a>
</g>
</g>
<!-- CAPITAL(&#45;1)&#45;&gt;CAPITAL -->
<g id="edge1" class="edge">
<title>CAPITAL(-1)-&gt;CAPITAL</title>
<g id="a_edge1"><a xlink:href="bogus" xlink:title="NA">
<path fill="none" stroke="black" stroke-width="0.5" d="M298.8,-282.43C290.03,-280.12 281.27,-277.69 273.06,-275.26"/>
<polygon fill="black" stroke="black" stroke-width="0.5" points="273.93,-271.86 263.34,-272.31 271.9,-278.56 273.93,-271.86"/>
</a>
</g>
</g>
</g>
</svg>