<svg xmlns="http://www.w3.org/2000/svg" xmlns:xlink="http://www.w3.org/1999/xlink" width="432pt" height="118pt" viewBox="0.00 0.00 432.00 118.09">
<g id="graph0" class="graph" transform="scale(0.188646 0.188646) rotate(0) translate(4 622)">
<title>TD</title>
<polygon fill="white" stroke="none" points="-4,4 -4,-622 2286,-622 2286,4 -4,4"/>
<text text-anchor="middle" x="1141" y="-7.8" font-family="Times New Roman,serif" font-size="14.00">PAKNYGDPMKTPKN</text>
<!-- PAKNEIMPGNFSKN -->
<g id="node1" class="node">
<title>PAKNEIMPGNFSKN</title>
<g id="a_node1"><a xlink:title="Imports (G&amp;S)
FRML &lt;Z,EXO&gt; PAKNEIMPGNFSKN = (PAKNEIMPGNFSKN(-1)*EXP(-PAKNEIMPGNFSKN_A+ (-0.324143718656754*(LOG(PAKNEIMPGNFSKN(-1))-LOG(PAKNEGDETTOTKN(-1))+0.8*LOG(PAKNEIMPGNFSXN(-1)/PAKNYGDPFCSTXN(-1)))-0.583459272245018+1*((LOG(PAKNEGDETTOTKN))-(LOG(PAKNEGDETTOTKN(-1))))-0.0921874580409631*((LOG(PAKNEIMPGNFSXN/PAKNYGDPFCSTXN))-(LOG(PAKNEIMPGNFSXN(-1)/PAKNYGDPFCSTXN(-1))))-0.0361746331863615*DURING_2012) )) * (1-PAKNEIMPGNFSKN_D)+ PAKNEIMPGNFSKN_X*PAKNEIMPGNFSKN_D  $">
<polygon fill="#63b8ff" stroke="black" points="1885,-217 1662,-217 1662,-181 1885,-181 1885,-217"/>
<text text-anchor="start" x="1668.5" y="-194.8" font-family="Times New Roman,serif" font-size="14.00" fill="blue">PAKNEIMPGNFSKN:Imports (G&amp;S)</text>
</a>
</g>
</g>
<!-- PAKNYGDPMKTPKN -->
<g id="node11" class="node">
<title>PAKNYGDPMKTPKN</title>
<g id="a_node11"><a xlink:title="GDP Expenditure side at market prices
FRML  &lt;&gt; PAKNYGDPMKTPKN = PAKNECONPRVTKN+PAKNECONGOVTKN+PAKNEGDIFTOTKN+PAKNEGDISTKBKN+PAKNEEXPGNFSKN-PAKNEIMPGNFSKN+PAKNYGDPDISCKN+PAKADAP*PAKDISPREPKN $">
<polygon fill="red" stroke="black" points="2282,-311 1921,-311 1921,-275 2282,-275 2282,-311"/>
<text text-anchor="start" x="1927.5" y="-288.8" font-family="Times New Roman,serif" font-size="14.00" fill="blue">PAKNYGDPMKTPKN:GDP Expenditure side at market prices</text>
</a>
</g>
</g>
<!-- PAKNEIMPGNFSKN&#45;&gt;PAKNYGDPMKTPKN -->
<g id="edge33" class="edge">
<title>PAKNEIMPGNFSKN-&gt;PAKNYGDPMKTPKN</title>
<g id="a_edge33"><a xlink:href="bogus" xlink:title=" PAKNEIMPGNFSKN -&gt; PAKNYGDPMKTPKN Min. att. -46%  max: 456%">
<path fill="none" stroke="black" stroke-width="8" d="M1836.97,-217.01C1891.59,-232.76 1970.91,-255.63 2028.24,-272.17"/>
<polygon fill="black" stroke="black" stroke-width="8" points="2026.42,-278.92 2037.96,-274.97 2030.29,-265.47 2026.42,-278.92"/>
</a>
</g>
</g>
<!-- PAKPSTAR -->
<g id="node2" class="node">
<title>PAKPSTAR</title>
<g id="a_node2"><a xlink:title="Nominal marginal cost
FRML  &lt;&gt; PAKPSTAR = (1/PAKNYGDPTFP)*((PAKNEKRTTOTLCN/(1-PAKNYYWBTOTLCN_))**(1-PAKNYYWBTOTLCN_))*((PAKNYWRTTOTLCN/PAKNYYWBTOTLCN_)**PAKNYYWBTOTLCN_) $">
<polygon fill="#63b8ff" stroke="black" points="598,-59 388,-59 388,-23 598,-23 598,-59"/>
<text text-anchor="start" x="394" y="-36.8" font-family="Times New Roman,serif" font-size="14.00" fill="blue">PAKPSTAR:Nominal marginal cost</text>
</a>
</g>
</g>
<!-- PAKNYGDPFCSTXN -->
<g id="node17" class="node">
<title>PAKNYGDPFCSTXN</title>
<g id="a_node17"><a xlink:title="GDP at factor cost
FRML &lt;Z,EXO&gt; PAKNYGDPFCSTXN = (PAKNYGDPFCSTXN(-1)*EXP(-PAKNYGDPFCSTXN_A+ (0.6*((LOG(PAKNYGDPFCSTXN(-1)))-(LOG(PAKNYGDPFCSTXN(-2))))+(1-0.6)*(0.7*PAKINFLEXPT/100+(1-0.7)*((LOG(PAKPSTAR(-1)))-(LOG(PAKPSTAR(-2)))))+0.25*PAKNYGDPGAP_/100+0.262461811660072*DURING_2000-0.205776950553378*DURING_2001) )) * (1-PAKNYGDPFCSTXN_D)+ PAKNYGDPFCSTXN_X*PAKNYGDPFCSTXN_D  $">
<polygon fill="#63b8ff" stroke="black" points="983,-113 741,-113 741,-77 983,-77 983,-113"/>
<text text-anchor="start" x="747" y="-90.8" font-family="Times New Roman,serif" font-size="14.00" fill="blue">PAKNYGDPFCSTXN:GDP at factor cost</text>
</a>
</g>
</g>
<!-- PAKPSTAR&#45;&gt;PAKNYGDPFCSTXN -->
<g id="edge11" class="edge">
<title>PAKPSTAR-&gt;PAKNYGDPFCSTXN</title>
<g id="a_edge11"><a xlink:href="bogus" xlink:title=" PAKPSTAR -&gt; PAKNYGDPFCSTXN Min. att. -20%  max: 2191%">
<path fill="none" stroke="black" stroke-width="8" d="M598.19,-56.33C639.37,-62.39 687.16,-69.42 730.61,-75.81"/>
<polygon fill="black" stroke="black" stroke-width="8" points="729.76,-82.77 740.68,-77.3 731.8,-68.91 729.76,-82.77"/>
</a>
</g>
</g>
<!-- PAKNEIMPGSNEXN -->
<g id="node3" class="node">
<title>PAKNEIMPGSNEXN</title>
<g id="a_node3"><a xlink:title="Imports (Non-energy)
FRML &lt;Z,EXO&gt; PAKNEIMPGSNEXN = (PAKNEIMPGSNEXN(-1)*EXP(-PAKNEIMPGSNEXN_A+ (-0.278529319815428*(LOG(PAKNEIMPGSNEXN(-1))-0.3*LOG(PAKNYGDPFCSTXN(-1))-(1-0.3)*LOG(PAKPMKEY(-1)*PAKPANUSATLS(-1)))+0.4*((LOG(PAKNYGDPFCSTXN))-(LOG(PAKNYGDPFCSTXN(-1))))+(1-0.4)*((LOG(PAKPMKEY*PAKPANUSATLS))-(LOG(PAKPMKEY(-1)*PAKPANUSATLS(-1))))-0.888813883474775+0.135666902654654*DURING_2012+0.216228696118762*DURING_2008) )) * (1-PAKNEIMPGSNEXN_D)+ PAKNEIMPGSNEXN_X*PAKNEIMPGSNEXN_D  $">
<polygon fill="#63b8ff" stroke="black" points="1345,-159 1085,-159 1085,-123 1345,-123 1345,-159"/>
<text text-anchor="start" x="1091" y="-136.8" font-family="Times New Roman,serif" font-size="14.00" fill="blue">PAKNEIMPGSNEXN:Imports (Non-energy)</text>
</a>
</g>
</g>
<!-- PAKNEIMPGNFSXN -->
<g id="node22" class="node">
<title>PAKNEIMPGNFSXN</title>
<g id="a_node22"><a xlink:title="Imports (G&amp;S)
FRML  &lt;&gt; PAKNEIMPGNFSXN = ((PAKNEIMPENGYSH**PAKCESENGYIMPT)*PAKNVENGNIMPXN**(1-PAKCESENGYIMPT)+(PAKNEIMPOTHRSH**PAKCESENGYIMPT)*PAKNEIMPGSNEXN**(1-PAKCESENGYIMPT))**(1/(1-PAKCESENGYIMPT)) $">
<polygon fill="#63b8ff" stroke="black" points="1626,-213 1403,-213 1403,-177 1626,-177 1626,-213"/>
<text text-anchor="start" x="1409.5" y="-190.8" font-family="Times New Roman,serif" font-size="14.00" fill="blue">PAKNEIMPGNFSXN:Imports (G&amp;S)</text>
</a>
</g>
</g>
<!-- PAKNEIMPGSNEXN&#45;&gt;PAKNEIMPGNFSXN -->
<g id="edge1" class="edge">
<title>PAKNEIMPGSNEXN-&gt;PAKNEIMPGNFSXN</title>
<g id="a_edge1"><a xlink:href="bogus" xlink:title=" PAKNEIMPGSNEXN -&gt; PAKNEIMPGNFSXN Min. att. -4%  max: 63%">
<path fill="none" stroke="black" stroke-width="6.33" d="M1317.14,-159.01C1333.8,-162 1350.89,-165.07 1367,-168 1379.67,-170.3 1392.96,-172.73 1406.14,-175.15"/>
<polygon fill="black" stroke="black" stroke-width="6.33" points="1405.36,-180.63 1416.19,-176.99 1407.36,-169.74 1405.36,-180.63"/>
</a>
</g>
</g>
<!-- PAKNEGDETTOTKN -->
<g id="node4" class="node">
<title>PAKNEGDETTOTKN</title>
<g id="a_node4"><a xlink:title="GDE
FRML  &lt;&gt; PAKNEGDETTOTKN = (PAKNECONPRVTKN+PAKNECONGOVTKN+PAKNEGDIFTOTKN+PAKNEGDISTKBKN+PAKNYGDPDISCKN) $">
<polygon fill="#63b8ff" stroke="black" points="1599.5,-311 1429.5,-311 1429.5,-275 1599.5,-275 1599.5,-311"/>
<text text-anchor="start" x="1435.5" y="-288.8" font-family="Times New Roman,serif" font-size="14.00" fill="blue">PAKNEGDETTOTKN:GDE</text>
</a>
</g>
</g>
<!-- PAKNEGDETTOTKN&#45;&gt;PAKNEIMPGNFSKN -->
<g id="edge28" class="edge">
<title>PAKNEGDETTOTKN-&gt;PAKNEIMPGNFSKN</title>
<g id="a_edge28"><a xlink:href="bogus" xlink:title=" PAKNEGDETTOTKN -&gt; PAKNEIMPGNFSKN Min. att. -755%  max: 207%">
<path fill="none" stroke="black" stroke-width="8" d="M1564.75,-274.99C1607.11,-259.49 1668.34,-237.1 1713.35,-220.64"/>
<polygon fill="black" stroke="black" stroke-width="8" points="1715.99,-227.12 1722.98,-217.11 1711.19,-213.97 1715.99,-227.12"/>
</a>
</g>
</g>
<!-- PAKNEGDIFGOVCN -->
<g id="node5" class="node">
<title>PAKNEGDIFGOVCN</title>
<g id="a_node5"><a xlink:title="Government Investment
FRML &lt;Z,EXO&gt; PAKNEGDIFGOVCN = (PAKNEGDIFGOVCN(-1)*EXP(-PAKNEGDIFGOVCN_A+ (((LOG(PAKGGEXPCAPTCN))-(LOG(PAKGGEXPCAPTCN(-1))))-0.00510713331489238*DUMH) )) * (1-PAKNEGDIFGOVCN_D)+ PAKNEGDIFGOVCN_X*PAKNEGDIFGOVCN_D  $">
<polygon fill="#63b8ff" stroke="black" points="629.5,-402 356.5,-402 356.5,-366 629.5,-366 629.5,-402"/>
<text text-anchor="start" x="363" y="-379.8" font-family="Times New Roman,serif" font-size="14.00" fill="blue">PAKNEGDIFGOVCN:Government Investment</text>
</a>
</g>
</g>
<!-- PAKNEGDIFGOVKN -->
<g id="node16" class="node">
<title>PAKNEGDIFGOVKN</title>
<g id="a_node16"><a xlink:title="Government Investment
FRML  &lt;&gt; PAKNEGDIFGOVKN = PAKNEGDIFGOVCN/PAKNEGDIFGOVXN $">
<polygon fill="#63b8ff" stroke="black" points="999,-421 725,-421 725,-385 999,-385 999,-421"/>
<text text-anchor="start" x="731" y="-398.8" font-family="Times New Roman,serif" font-size="14.00" fill="blue">PAKNEGDIFGOVKN:Government Investment</text>
</a>
</g>
</g>
<!-- PAKNEGDIFGOVCN&#45;&gt;PAKNEGDIFGOVKN -->
<g id="edge2" class="edge">
<title>PAKNEGDIFGOVCN-&gt;PAKNEGDIFGOVKN</title>
<g id="a_edge2"><a xlink:href="bogus" xlink:title=" PAKNEGDIFGOVCN -&gt; PAKNEGDIFGOVKN Min. att. 129%  max: 988%">
<path fill="none" stroke="black" stroke-width="8" d="M629.61,-391.02C657.26,-392.45 686.46,-393.96 714.46,-395.41"/>
<polygon fill="black" stroke="black" stroke-width="8" points="714.37,-402.42 724.72,-395.94 715.09,-388.44 714.37,-402.42"/>
</a>
</g>
</g>
<!-- PAKNEGDIFPRVKN -->
<g id="node6" class="node">
<title>PAKNEGDIFPRVKN</title>
<g id="a_node6"><a xlink:title="Private Investment
FRML &lt;Z,EXO&gt; PAKNEGDIFPRVKN = (-PAKNEGDIFPRVKN_A*PAKNEGDIKSTKKN(-1)+ (-0.00526826150713402+0.826734606421746*(PAKNEGDIFPRVKN(-1)/PAKNEGDIKSTKKN(-2))+(1-0.826734606421746)*(((LOG(PAKNYGDPPOTLKN))-(LOG(PAKNYGDPPOTLKN(-1))))+PAKDEPR)-0.00378813564556318*((LOG(PAKNEKRTTOTLCN/PAKNYGDPFCSTXN))-(LOG(PAKNEKRTTOTLCN(-1)/PAKNYGDPFCSTXN(-1))))) *PAKNEGDIKSTKKN(-1)) * (1-PAKNEGDIFPRVKN_D)+ PAKNEGDIFPRVKN_X*PAKNEGDIFPRVKN_D  $">
<polygon fill="#63b8ff" stroke="black" points="982,-537 742,-537 742,-501 982,-501 982,-537"/>
<text text-anchor="start" x="748" y="-514.8" font-family="Times New Roman,serif" font-size="14.00" fill="blue">PAKNEGDIFPRVKN:Private Investment</text>
</a>
</g>
</g>
<!-- PAKNEGDIFTOTKN -->
<g id="node19" class="node">
<title>PAKNEGDIFTOTKN</title>
<g id="a_node19"><a xlink:title="Total Gross Capital Formation
FRML  &lt;&gt; PAKNEGDIFTOTKN = PAKNEGDIFGOVKN+PAKNEGDIFPRVKN $">
<polygon fill="#63b8ff" stroke="black" points="1367,-413 1063,-413 1063,-377 1367,-377 1367,-413"/>
<text text-anchor="start" x="1069" y="-390.8" font-family="Times New Roman,serif" font-size="14.00" fill="blue">PAKNEGDIFTOTKN:Total Gross Capital Formation</text>
</a>
</g>
</g>
<!-- PAKNEGDIFPRVKN&#45;&gt;PAKNEGDIFTOTKN -->
<g id="edge26" class="edge">
<title>PAKNEGDIFPRVKN-&gt;PAKNEGDIFTOTKN</title>
<g id="a_edge26"><a xlink:href="bogus" xlink:title=" PAKNEGDIFPRVKN -&gt; PAKNEGDIFTOTKN Min. att. -5%  max: 94%">
<path fill="none" stroke="black" stroke-width="8" d="M914.04,-500.97C977.47,-478.56 1085.58,-440.37 1153.22,-416.47"/>
<polygon fill="black" stroke="black" stroke-width="8" points="1155.8,-422.98 1162.9,-413.05 1151.14,-409.78 1155.8,-422.98"/>
</a>
</g>
</g>
<!-- PAKNEGDIFGOVXN -->
<g id="node7" class="node">
<title>PAKNEGDIFGOVXN</title>
<g id="a_node7"><a xlink:title="Government Investment
FRML &lt;Z,EXO&gt; PAKNEGDIFGOVXN = (PAKNEGDIFGOVXN(-1)*EXP(-PAKNEGDIFGOVXN_A+ (-0.480254922468272*(LOG(PAKNEGDIFGOVXN(-1))-LOG(PAKNECONPRVTXN(-1)))+0.00720714576835064+0.0731599680348391*((LOG(PAKNEGDIFGOVXN(-1)))-(LOG(PAKNEGDIFGOVXN(-2))))+(1-0.0731599680348391)*((LOG(PAKNECONPRVTXN))-(LOG(PAKNECONPRVTXN(-1))))) )) * (1-PAKNEGDIFGOVXN_D)+ PAKNEGDIFGOVXN_X*PAKNEGDIFGOVXN_D  $">
<polygon fill="#63b8ff" stroke="black" points="630,-456 356,-456 356,-420 630,-420 630,-456"/>
<text text-anchor="start" x="362" y="-433.8" font-family="Times New Roman,serif" font-size="14.00" fill="blue">PAKNEGDIFGOVXN:Government Investment</text>
</a>
</g>
</g>
<!-- PAKNEGDIFGOVXN&#45;&gt;PAKNEGDIFGOVKN -->
<g id="edge29" class="edge">
<title>PAKNEGDIFGOVXN-&gt;PAKNEGDIFGOVKN</title>
<g id="a_edge29"><a xlink:href="bogus" xlink:title=" PAKNEGDIFGOVXN -&gt; PAKNEGDIFGOVKN Min. att. -892%  max: -32%">
<path fill="none" stroke="black" stroke-width="8" d="M630.14,-425.02C657.66,-422.39 686.71,-419.62 714.57,-416.96"/>
<polygon fill="black" stroke="black" stroke-width="8" points="715.49,-423.91 724.78,-415.99 714.16,-409.97 715.49,-423.91"/>
</a>
</g>
</g>
<!-- PAKNYWRTTOTLCN -->
<g id="node8" class="node">
<title>PAKNYWRTTOTLCN</title>
<g id="a_node8"><a xlink:title="Wages
FRML  &lt;&gt; PAKNYWRTTOTLCN = (PAKNYWBINFMSH**PAKINFCES*(PAKNYWRTINFMCN)**(1-PAKINFCES)+PAKNYWBFORMSH**PAKINFCES*(PAKNYWRTFORMCN*(1+PAKGGREVDRCTXN/100))**(1-PAKINFCES))**(1/(1-PAKINFCES)) $">
<polygon fill="#63b8ff" stroke="black" points="583.5,-221 402.5,-221 402.5,-185 583.5,-185 583.5,-221"/>
<text text-anchor="start" x="409" y="-198.8" font-family="Times New Roman,serif" font-size="14.00" fill="blue">PAKNYWRTTOTLCN:Wages</text>
</a>
</g>
</g>
<!-- PAKNYYWBTOTLCN -->
<g id="node25" class="node">
<title>PAKNYYWBTOTLCN</title>
<g id="a_node25"><a xlink:title="Economy-wide wage bill
FRML  &lt;&gt; PAKNYYWBTOTLCN = PAKNYWRTTOTLCN*PAKLMEMPTOTLCN $">
<polygon fill="#63b8ff" stroke="black" points="1004.5,-167 719.5,-167 719.5,-131 1004.5,-131 1004.5,-167"/>
<text text-anchor="start" x="726" y="-144.8" font-family="Times New Roman,serif" font-size="14.00" fill="blue">PAKNYYWBTOTLCN:Economy-wide wage bill</text>
</a>
</g>
</g>
<!-- PAKNYWRTTOTLCN&#45;&gt;PAKNYYWBTOTLCN -->
<g id="edge3" class="edge">
<title>PAKNYWRTTOTLCN-&gt;PAKNYYWBTOTLCN</title>
<g id="a_edge3"><a xlink:href="bogus" xlink:title=" PAKNYWRTTOTLCN -&gt; PAKNYYWBTOTLCN Min. att. 16%  max: 106%">
<path fill="none" stroke="black" stroke-width="8" d="M583.78,-189.79C627.26,-183.39 680.35,-175.58 728.38,-168.51"/>
<polygon fill="black" stroke="black" stroke-width="8" points="729.68,-175.4 738.55,-167.02 727.64,-161.55 729.68,-175.4"/>
</a>
</g>
</g>
<!-- PAKGGEXPGNFSCN -->
<g id="node9" class="node">
<title>PAKGGEXPGNFSCN</title>
<g id="a_node9"><a xlink:title="Expenditure on Goods and Services
FRML &lt;Z,EXO&gt; PAKGGEXPGNFSCN = (0.3*PAKGGEXPGNFSCN(-1)+(1-0.3)*(0.80*(PAKGGREVTOTLCN-PAKGGEXPINTPCN(-0)))+505277.259999999*DURING_2012 + PAKGGEXPGNFSCN_A)* (1-PAKGGEXPGNFSCN_D)+ PAKGGEXPGNFSCN_X*PAKGGEXPGNFSCN_D  $">
<polygon fill="#63b8ff" stroke="black" points="661,-348 325,-348 325,-312 661,-312 661,-348"/>
<text text-anchor="start" x="331" y="-325.8" font-family="Times New Roman,serif" font-size="14.00" fill="blue">PAKGGEXPGNFSCN:Expenditure on Goods and Services</text>
</a>
</g>
</g>
<!-- PAKNECONGOVTCN -->
<g id="node13" class="node">
<title>PAKNECONGOVTCN</title>
<g id="a_node13"><a xlink:title="Government consumption (G&amp;S)
FRML &lt;Z,EXO&gt; PAKNECONGOVTCN = (-PAKNECONGOVTCN_A*PAKNECONGOVTCN(-1)/100+ ((100 * ( (PAKGGEXPGNFSCN) / (PAKGGEXPGNFSCN(-1)) -1)) +0.764199817873939*DUMH) *PAKNECONGOVTCN(-1)/100+PAKNECONGOVTCN(-1)) * (1-PAKNECONGOVTCN_D)+ PAKNECONGOVTCN_X*PAKNECONGOVTCN_D  $">
<polygon fill="#63b8ff" stroke="black" points="1026.5,-367 697.5,-367 697.5,-331 1026.5,-331 1026.5,-367"/>
<text text-anchor="start" x="704" y="-344.8" font-family="Times New Roman,serif" font-size="14.00" fill="blue">PAKNECONGOVTCN:Government consumption (G&amp;S)</text>
</a>
</g>
</g>
<!-- PAKGGEXPGNFSCN&#45;&gt;PAKNECONGOVTCN -->
<g id="edge18" class="edge">
<title>PAKGGEXPGNFSCN-&gt;PAKNECONGOVTCN</title>
<g id="a_edge18"><a xlink:href="bogus" xlink:title=" PAKGGEXPGNFSCN -&gt; PAKNECONGOVTCN Min. att. -18%  max: 100%">
<path fill="none" stroke="black" stroke-width="8" d="M661.12,-338.65C669.76,-339.1 678.44,-339.55 687.1,-340"/>
<polygon fill="black" stroke="black" stroke-width="8" points="686.89,-347 697.24,-340.52 687.62,-333.01 686.89,-347"/>
</a>
</g>
</g>
<!-- PAKLMEMPTOTLCN -->
<g id="node10" class="node">
<title>PAKLMEMPTOTLCN</title>
<g id="a_node10"><a xlink:title="Employment
FRML &lt;Z,EXO&gt; PAKLMEMPTOTLCN = (PAKLMEMPTOTLCN(-1)*EXP(-PAKLMEMPTOTLCN_A+ (-0.345624644563667*(LOG(PAKLMEMPTOTLCN(-1))-LOG(PAKLMEMPSTRLCN(-1)))-0.1*(((LOG(PAKNYWRTTOTLCN/PAKNYGDPFCSTXN))-(LOG(PAKNYWRTTOTLCN(-1)/PAKNYGDPFCSTXN(-1))))-((LOG(PAKNYGDPPOTLKN/PAKLMEMPSTRLCN))-(LOG(PAKNYGDPPOTLKN(-1)/PAKLMEMPSTRLCN(-1)))))-0.0011790007645121+((LOG(PAKLMEMPSTRLCN))-(LOG(PAKLMEMPSTRLCN(-1))))+0.175412878170024*PAKNYGDPGAP_/100+0.0369790799942338*DURING_2010) )) * (1-PAKLMEMPTOTLCN_D)+ PAKLMEMPTOTLCN_X*PAKLMEMPTOTLCN_D  $">
<polygon fill="#63b8ff" stroke="black" points="601.5,-167 384.5,-167 384.5,-131 601.5,-131 601.5,-167"/>
<text text-anchor="start" x="391" y="-144.8" font-family="Times New Roman,serif" font-size="14.00" fill="blue">PAKLMEMPTOTLCN:Employment</text>
</a>
</g>
</g>
<!-- PAKLMEMPTOTLCN&#45;&gt;PAKNYYWBTOTLCN -->
<g id="edge30" class="edge">
<title>PAKLMEMPTOTLCN-&gt;PAKNYYWBTOTLCN</title>
<g id="a_edge30"><a xlink:href="bogus" xlink:title=" PAKLMEMPTOTLCN -&gt; PAKNYYWBTOTLCN Min. att. -6%  max: 84%">
<path fill="none" stroke="black" stroke-width="8" d="M601.63,-149C635.27,-149 673.04,-149 709.13,-149"/>
<polygon fill="black" stroke="black" stroke-width="8" points="709.25,-156 719.25,-149 709.25,-142 709.25,-156"/>
</a>
</g>
</g>
<!-- PAKNVENGNIMPXN -->
<g id="node12" class="node">
<title>PAKNVENGNIMPXN</title>
<g id="a_node12"><a xlink:title="Energy Imports
FRML  &lt;&gt; PAKNVENGNIMPXN = ((PAKNVCOLNIMPSH**PAKCESENGYIMP)*PAKNVCOLPRODXN**(1-PAKCESENGYIMP)+(PAKNVOILNIMPSH**PAKCESENGYIMP)*PAKNVOILPRODXN**(1-PAKCESENGYIMP)+(PAKNVGASNIMPSH**PAKCESENGYIMP)*PAKNVGASPRODXN**(1-PAKCESENGYIMP)+(PAKNVRENNIMPSH**PAKCESENGYIMP)*PAKNVRENPRODXN**(1-PAKCESENGYIMP))**(1/(1-PAKCESENGYIMP)) $">
<polygon fill="#63b8ff" stroke="black" points="1329.5,-213 1100.5,-213 1100.5,-177 1329.5,-177 1329.5,-213"/>
<text text-anchor="start" x="1107" y="-190.8" font-family="Times New Roman,serif" font-size="14.00" fill="blue">PAKNVENGNIMPXN:Energy Imports</text>
</a>
</g>
</g>
<!-- PAKNVENGNIMPXN&#45;&gt;PAKNEIMPGNFSXN -->
<g id="edge22" class="edge">
<title>PAKNVENGNIMPXN-&gt;PAKNEIMPGNFSXN</title>
<g id="a_edge22"><a xlink:href="bogus" xlink:title=" PAKNVENGNIMPXN -&gt; PAKNEIMPGNFSXN Min. att. 37%  max: 104%">
<path fill="none" stroke="black" stroke-width="8" d="M1329.75,-195C1350.33,-195 1371.86,-195 1392.63,-195"/>
<polygon fill="black" stroke="black" stroke-width="8" points="1392.76,-202 1402.76,-195 1392.76,-188 1392.76,-202"/>
</a>
</g>
</g>
<!-- PAKNECONGOVTKN -->
<g id="node21" class="node">
<title>PAKNECONGOVTKN</title>
<g id="a_node21"><a xlink:title="Government Consumption
FRML  &lt;&gt; PAKNECONGOVTKN = PAKNECONGOVTCN/PAKNECONGOVTXN $">
<polygon fill="#63b8ff" stroke="black" points="1361,-351 1069,-351 1069,-315 1361,-315 1361,-351"/>
<text text-anchor="start" x="1075" y="-328.8" font-family="Times New Roman,serif" font-size="14.00" fill="blue">PAKNECONGOVTKN:Government Consumption</text>
</a>
</g>
</g>
<!-- PAKNECONGOVTCN&#45;&gt;PAKNECONGOVTKN -->
<g id="edge13" class="edge">
<title>PAKNECONGOVTCN-&gt;PAKNECONGOVTKN</title>
<g id="a_edge13"><a xlink:href="bogus" xlink:title=" PAKNECONGOVTCN -&gt; PAKNECONGOVTKN Min. att. 117%  max: 963%">
<path fill="none" stroke="black" stroke-width="8" d="M1026.68,-341.54C1037.38,-341.05 1048.14,-340.56 1058.8,-340.07"/>
<polygon fill="black" stroke="black" stroke-width="8" points="1059.31,-347.06 1068.98,-339.61 1058.67,-333.07 1059.31,-347.06"/>
</a>
</g>
</g>
<!-- PAKNEGDIKSTKKN -->
<g id="node14" class="node">
<title>PAKNEGDIKSTKKN</title>
<g id="a_node14"><a xlink:title="Domestic Capital
FRML  &lt;&gt; PAKNEGDIKSTKKN = (PAKNEGDIKSTKKN(-1)*(1-PAKDEPR))+PAKNEGDIFTOTKN2-2*PAKHURDAMKN $">
<polygon fill="#63b8ff" stroke="black" points="610.5,-618 375.5,-618 375.5,-582 610.5,-582 610.5,-618"/>
<text text-anchor="start" x="382" y="-595.8" font-family="Times New Roman,serif" font-size="14.00" fill="blue">PAKNEGDIKSTKKN:Domestic Capital</text>
</a>
</g>
</g>
<!-- PAKNEGDIKSTKKN&#45;&gt;PAKNEGDIFPRVKN -->
<g id="edge7" class="edge">
<title>PAKNEGDIKSTKKN-&gt;PAKNEGDIFPRVKN</title>
<g id="a_edge7"><a xlink:href="bogus" xlink:title=" PAKNEGDIKSTKKN -&gt; PAKNEGDIFPRVKN Min. att. 0%  max: 76%">
<path fill="none" stroke="black" stroke-width="7.57" d="M610.63,-582.73C627.58,-579.76 644.78,-576.49 661,-573 704.41,-563.66 752.47,-550.76 790.6,-539.92"/>
<polygon fill="black" stroke="black" stroke-width="7.57" points="792.78,-546.18 800.57,-537.07 789.13,-533.45 792.78,-546.18"/>
</a>
</g>
</g>
<!-- PAKFMLBLPOLYXN -->
<g id="node15" class="node">
<title>PAKFMLBLPOLYXN</title>
<g id="a_node15"><a xlink:title="Policy Rate
FRML &lt;Z,EXO&gt; PAKFMLBLPOLYXN = (-100*PAKFMLBLPOLYXN_A+100* (0.905129162122953*PAKFMLBLPOLYXN(-1)/100+(1-0.905129162122953)*(PAKMPPOLNATRXN/100+1.2*(((LOG(PAKNECONPRVTXN))-(LOG(PAKNECONPRVTXN(-1))))-PAKINFLEXPT/100)+0.5*PAKNYGDPGAP_/100)) ) * (1-PAKFMLBLPOLYXN_D)+ PAKFMLBLPOLYXN_X*PAKFMLBLPOLYXN_D  $">
<polygon fill="#63b8ff" stroke="black" points="964.5,-221 759.5,-221 759.5,-185 964.5,-185 964.5,-221"/>
<text text-anchor="start" x="766" y="-198.8" font-family="Times New Roman,serif" font-size="14.00" fill="blue">PAKFMLBLPOLYXN:Policy Rate</text>
</a>
</g>
</g>
<!-- PAKNECONPRVTKN -->
<g id="node28" class="node">
<title>PAKNECONPRVTKN</title>
<g id="a_node28"><a xlink:title="Household Consumption
FRML &lt;Z,EXO&gt; PAKNECONPRVTKN = (PAKNECONPRVTKN(-1)*EXP(-PAKNECONPRVTKN_A+ (-0.2*(LOG(PAKNECONPRVTKN(-1))-LOG((PAKNYYWBTOTLCN(-1)*(1-PAKGGREVDRCTXN(-1)/100))/PAKNECONPRVTXN(-1)))+1*((LOG((PAKNYYWBTOTLCN*(1-PAKGGREVDRCTXN/100))/PAKNECONPRVTXN))-(LOG((PAKNYYWBTOTLCN(-1)*(1-PAKGGREVDRCTXN(-1)/100))/PAKNECONPRVTXN(-1))))+0.0303228629698929+0.0163839011059956*DURING_2010-0.3*(PAKFMLBLPOLYXN/100-((LOG(PAKNECONPRVTXN))-(LOG(PAKNECONPRVTXN(-1)))))) )) * (1-PAKNECONPRVTKN_D)+ PAKNECONPRVTKN_X*PAKNECONPRVTKN_D  $">
<polygon fill="#63b8ff" stroke="black" points="1354,-267 1076,-267 1076,-231 1354,-231 1354,-267"/>
<text text-anchor="start" x="1082" y="-244.8" font-family="Times New Roman,serif" font-size="14.00" fill="blue">PAKNECONPRVTKN:Household Consumption</text>
</a>
</g>
</g>
<!-- PAKFMLBLPOLYXN&#45;&gt;PAKNECONPRVTKN -->
<g id="edge32" class="edge">
<title>PAKFMLBLPOLYXN-&gt;PAKNECONPRVTKN</title>
<g id="a_edge32"><a xlink:href="bogus" xlink:title=" PAKFMLBLPOLYXN -&gt; PAKNECONPRVTKN Min. att. -160%  max: 20%">
<path fill="none" stroke="black" stroke-width="8" d="M964.52,-216.31C996.31,-220.47 1032.06,-225.16 1066.36,-229.65"/>
<polygon fill="black" stroke="black" stroke-width="8" points="1065.64,-236.62 1076.47,-230.98 1067.46,-222.74 1065.64,-236.62"/>
</a>
</g>
</g>
<!-- PAKNEGDIFGOVKN&#45;&gt;PAKNEGDIFTOTKN -->
<g id="edge23" class="edge">
<title>PAKNEGDIFGOVKN-&gt;PAKNEGDIFTOTKN</title>
<g id="a_edge23"><a xlink:href="bogus" xlink:title=" PAKNEGDIFGOVKN -&gt; PAKNEGDIFTOTKN Min. att. 6%  max: 105%">
<path fill="none" stroke="black" stroke-width="8" d="M999.21,-399.9C1016.61,-399.5 1034.55,-399.09 1052.3,-398.69"/>
<polygon fill="black" stroke="black" stroke-width="8" points="1052.88,-405.67 1062.72,-398.45 1052.56,-391.68 1052.88,-405.67"/>
</a>
</g>
</g>
<!-- PAKNYGDPFCSTXN&#45;&gt;PAKNEIMPGNFSKN -->
<g id="edge8" class="edge">
<title>PAKNYGDPFCSTXN-&gt;PAKNEIMPGNFSKN</title>
<g id="a_edge8"><a xlink:href="bogus" xlink:title=" PAKNYGDPFCSTXN -&gt; PAKNEIMPGNFSKN Min. att. -1112%  max: 296%">
<path fill="none" stroke="black" stroke-width="8" d="M983.1,-93.88C1085.5,-94.27 1236.41,-98.04 1367,-114 1483.72,-128.27 1510.92,-143.83 1626,-168 1642.59,-171.48 1660.23,-175.21 1677.31,-178.82"/>
<polygon fill="black" stroke="black" stroke-width="8" points="1676.06,-185.71 1687.3,-180.93 1678.96,-172.01 1676.06,-185.71"/>
</a>
</g>
</g>
<!-- PAKNECONENGYXN -->
<g id="node18" class="node">
<title>PAKNECONENGYXN</title>
<g id="a_node18"><a xlink:title="Energy Consumption
FRML &lt;Z,EXO&gt; PAKNECONENGYXN = (PAKNECONENGYXN(-1)*EXP(-PAKNECONENGYXN_A+ (((LOG(PAKNECONENGYGN))-(LOG(PAKNECONENGYGN(-1))))+0.0550557534575806*DUMH) )) * (1-PAKNECONENGYXN_D)+ PAKNECONENGYXN_X*PAKNECONENGYXN_D  $">
<polygon fill="#63b8ff" stroke="black" points="275.5,-302 13.5,-302 13.5,-266 275.5,-266 275.5,-302"/>
<text text-anchor="start" x="19.5" y="-279.8" font-family="Times New Roman,serif" font-size="14.00" fill="blue">PAKNECONENGYXN:Energy Consumption</text>
</a>
</g>
</g>
<!-- PAKNECONPRVTXN -->
<g id="node26" class="node">
<title>PAKNECONPRVTXN</title>
<g id="a_node26"><a xlink:title="Household demand
FRML  &lt;&gt; PAKNECONPRVTXN = ((PAKNECONENGYSH**PAKCESENGYCON)*PAKNECONENGYXN**(1-PAKCESENGYCON)+(PAKNECONOTHRSH**PAKCESENGYCON)*PAKNECONOTHRXN**(1-PAKCESENGYCON))**(1/(1-PAKCESENGYCON)) $">
<polygon fill="#63b8ff" stroke="black" points="617,-275 369,-275 369,-239 617,-239 617,-275"/>
<text text-anchor="start" x="375" y="-252.8" font-family="Times New Roman,serif" font-size="14.00" fill="blue">PAKNECONPRVTXN:Household demand</text>
</a>
</g>
</g>
<!-- PAKNECONENGYXN&#45;&gt;PAKNECONPRVTXN -->
<g id="edge6" class="edge">
<title>PAKNECONENGYXN-&gt;PAKNECONPRVTXN</title>
<g id="a_edge6"><a xlink:href="bogus" xlink:title=" PAKNECONENGYXN -&gt; PAKNECONPRVTXN Min. att. 1%  max: 29%">
<path fill="none" stroke="black" stroke-width="2.91" d="M275.51,-273.87C302.7,-271.75 331.42,-269.51 358.73,-267.39"/>
<polygon fill="black" stroke="black" stroke-width="2.91" points="359.02,-270.87 368.72,-266.61 358.48,-263.89 359.02,-270.87"/>
</a>
</g>
</g>
<!-- PAKNEGDIFTOTKN&#45;&gt;PAKNEGDETTOTKN -->
<g id="edge31" class="edge">
<title>PAKNEGDIFTOTKN-&gt;PAKNEGDETTOTKN</title>
<g id="a_edge31"><a xlink:href="bogus" xlink:title=" PAKNEGDIFTOTKN -&gt; PAKNEGDETTOTKN Min. att. -1115%  max: 1147%">
<path fill="none" stroke="black" stroke-width="8" d="M1307.46,-376.92C1327.3,-372.13 1348.02,-366.47 1367,-360 1402.71,-347.83 1441.47,-329.88 1470.14,-315.63"/>
<polygon fill="black" stroke="black" stroke-width="8" points="1473.28,-321.88 1479.08,-311.14 1467,-309.37 1473.28,-321.88"/>
</a>
</g>
</g>
<!-- PAKNEGDIFTOTKN&#45;&gt;PAKNYGDPMKTPKN -->
<g id="edge9" class="edge">
<title>PAKNEGDIFTOTKN-&gt;PAKNYGDPMKTPKN</title>
<g id="a_edge9"><a xlink:href="bogus" xlink:title=" PAKNEGDIFTOTKN -&gt; PAKNYGDPMKTPKN Min. att. -36%  max: 366%">
<path fill="none" stroke="black" stroke-width="8" d="M1367.03,-381.56C1502.78,-368.97 1707.51,-348.73 1885,-326 1915.83,-322.05 1949.05,-317.24 1979.96,-312.53"/>
<polygon fill="black" stroke="black" stroke-width="8" points="1981.09,-319.44 1989.91,-311 1978.96,-305.6 1981.09,-319.44"/>
</a>
</g>
</g>
<!-- PAKNECONGOVTXN -->
<g id="node20" class="node">
<title>PAKNECONGOVTXN</title>
<g id="a_node20"><a xlink:title="Government consumption (G&amp;S)
FRML &lt;Z,EXO&gt; PAKNECONGOVTXN = (PAKNECONGOVTXN(-1)*EXP(-PAKNECONGOVTXN_A+ (-0.3*(LOG(PAKNECONGOVTXN(-1))-LOG(PAKNECONPRVTXN(-1)))+0.0752362082122748+0.5*((LOG(PAKNECONGOVTXN(-1)))-(LOG(PAKNECONGOVTXN(-2))))+(1-0.5)*((LOG(PAKNECONPRVTXN))-(LOG(PAKNECONPRVTXN(-1))))) )) * (1-PAKNECONGOVTXN_D)+ PAKNECONGOVTXN_X*PAKNECONGOVTXN_D  $">
<polygon fill="#63b8ff" stroke="black" points="1027,-313 697,-313 697,-277 1027,-277 1027,-313"/>
<text text-anchor="start" x="703" y="-290.8" font-family="Times New Roman,serif" font-size="14.00" fill="blue">PAKNECONGOVTXN:Government consumption (G&amp;S)</text>
</a>
</g>
</g>
<!-- PAKNECONGOVTXN&#45;&gt;PAKNECONGOVTKN -->
<g id="edge10" class="edge">
<title>PAKNECONGOVTXN-&gt;PAKNECONGOVTKN</title>
<g id="a_edge10"><a xlink:href="bogus" xlink:title=" PAKNECONGOVTXN -&gt; PAKNECONGOVTKN Min. att. -867%  max: -19%">
<path fill="none" stroke="black" stroke-width="8" d="M1027.2,-312.78C1037.74,-313.92 1048.34,-315.07 1058.85,-316.2"/>
<polygon fill="black" stroke="black" stroke-width="8" points="1058.18,-323.17 1068.88,-317.29 1059.69,-309.25 1058.18,-323.17"/>
</a>
</g>
</g>
<!-- PAKNECONGOVTKN&#45;&gt;PAKNEGDETTOTKN -->
<g id="edge15" class="edge">
<title>PAKNECONGOVTKN-&gt;PAKNEGDETTOTKN</title>
<g id="a_edge15"><a xlink:href="bogus" xlink:title=" PAKNECONGOVTKN -&gt; PAKNEGDETTOTKN Min. att. -1269%  max: 1236%">
<path fill="none" stroke="black" stroke-width="8" d="M1349.95,-314.99C1373.36,-311.84 1397.26,-308.63 1419.3,-305.67"/>
<polygon fill="black" stroke="black" stroke-width="8" points="1420.31,-312.59 1429.29,-304.32 1418.45,-298.72 1420.31,-312.59"/>
</a>
</g>
</g>
<!-- PAKNECONGOVTKN&#45;&gt;PAKNYGDPMKTPKN -->
<g id="edge24" class="edge">
<title>PAKNECONGOVTKN-&gt;PAKNYGDPMKTPKN</title>
<g id="a_edge24"><a xlink:href="bogus" xlink:title=" PAKNECONGOVTKN -&gt; PAKNYGDPMKTPKN Min. att. -108%  max: 835%">
<path fill="none" stroke="black" stroke-width="8" d="M1361.19,-329.29C1439.63,-327.05 1538.13,-323.89 1626,-320 1719.76,-315.85 1823.88,-310.05 1910.64,-304.9"/>
<polygon fill="black" stroke="black" stroke-width="8" points="1911.3,-311.87 1920.86,-304.29 1910.46,-297.9 1911.3,-311.87"/>
</a>
</g>
</g>
<!-- PAKNEIMPGNFSXN&#45;&gt;PAKNEIMPGNFSKN -->
<g id="edge14" class="edge">
<title>PAKNEIMPGNFSXN-&gt;PAKNEIMPGNFSKN</title>
<g id="a_edge14"><a xlink:href="bogus" xlink:title=" PAKNEIMPGNFSXN -&gt; PAKNEIMPGNFSKN Min. att. -390%  max: 1559%">
<path fill="none" stroke="black" stroke-width="8" d="M1626.36,-196.73C1634.66,-196.85 1643.07,-196.99 1651.43,-197.12"/>
<polygon fill="black" stroke="black" stroke-width="8" points="1651.5,-204.12 1661.6,-197.27 1651.71,-190.12 1651.5,-204.12"/>
</a>
</g>
</g>
<!-- PAKNEKRTTOTLCN -->
<g id="node23" class="node">
<title>PAKNEKRTTOTLCN</title>
<g id="a_node23"><a xlink:title="PAKNEKRTTOTLCN
FRML &lt;Z,EXO&gt; PAKNEKRTTOTLCN = (-PAKNEKRTTOTLCN_A+ (((PAKUCK)-(PAKUCK(-1)))+7.05881784375082E-05*DUMH) +PAKNEKRTTOTLCN(-1)) * (1-PAKNEKRTTOTLCN_D)+ PAKNEKRTTOTLCN_X*PAKNEKRTTOTLCN_D  $">
<polygon fill="#63b8ff" stroke="black" points="563,-564 423,-564 423,-528 563,-528 563,-564"/>
<text text-anchor="start" x="429" y="-541.8" font-family="Times New Roman,serif" font-size="14.00" fill="blue">PAKNEKRTTOTLCN:</text>
</a>
</g>
</g>
<!-- PAKNEKRTTOTLCN&#45;&gt;PAKNEGDIFPRVKN -->
<g id="edge17" class="edge">
<title>PAKNEKRTTOTLCN-&gt;PAKNEGDIFPRVKN</title>
<g id="a_edge17"><a xlink:href="bogus" xlink:title=" PAKNEKRTTOTLCN -&gt; PAKNEGDIFPRVKN Min. att. -0%  max: 90%">
<path fill="none" stroke="black" stroke-width="8" d="M563.03,-540.92C610.43,-537.43 674.8,-532.7 731.59,-528.52"/>
<polygon fill="black" stroke="black" stroke-width="8" points="732.27,-535.49 741.73,-527.77 731.24,-521.53 732.27,-535.49"/>
</a>
</g>
</g>
<!-- PAKNECONOTHRXN -->
<g id="node24" class="node">
<title>PAKNECONOTHRXN</title>
<g id="a_node24"><a xlink:title="Non-Energy Consumption
FRML &lt;Z,EXO&gt; PAKNECONOTHRXN = (PAKNECONOTHRXN(-1)*EXP(-PAKNECONOTHRXN_A+ (0.598859116610832*((LOG(PAKNYGDPFCSTXN))-(LOG(PAKNYGDPFCSTXN(-1))))+((PAKGGREVGNFSXN/100)-(PAKGGREVGNFSXN(-1)/100))+(1-0.598859116610832)*((LOG(PAKNEIMPGNFSXN))-(LOG(PAKNEIMPGNFSXN(-1))))+0.2*PAKNYGDPGAP_/100) )) * (1-PAKNECONOTHRXN_D)+ PAKNECONOTHRXN_X*PAKNECONOTHRXN_D  $">
<polygon fill="#63b8ff" stroke="black" points="289,-248 0,-248 0,-212 289,-212 289,-248"/>
<text text-anchor="start" x="6.5" y="-225.8" font-family="Times New Roman,serif" font-size="14.00" fill="blue">PAKNECONOTHRXN:Non-Energy Consumption</text>
</a>
</g>
</g>
<!-- PAKNECONOTHRXN&#45;&gt;PAKNECONPRVTXN -->
<g id="edge12" class="edge">
<title>PAKNECONOTHRXN-&gt;PAKNECONPRVTXN</title>
<g id="a_edge12"><a xlink:href="bogus" xlink:title=" PAKNECONOTHRXN -&gt; PAKNECONPRVTXN Min. att. 71%  max: 99%">
<path fill="none" stroke="black" stroke-width="8" d="M289.19,-241.2C312.28,-243 336.1,-244.85 358.93,-246.63"/>
<polygon fill="black" stroke="black" stroke-width="8" points="358.49,-253.62 369,-247.42 359.57,-239.66 358.49,-253.62"/>
</a>
</g>
</g>
<!-- PAKNYYWBTOTLCN&#45;&gt;PAKNECONPRVTKN -->
<g id="edge25" class="edge">
<title>PAKNYYWBTOTLCN-&gt;PAKNECONPRVTKN</title>
<g id="a_edge25"><a xlink:href="bogus" xlink:title=" PAKNYYWBTOTLCN -&gt; PAKNECONPRVTKN Min. att. -594%  max: 5823%">
<path fill="none" stroke="black" stroke-width="8" d="M1004.59,-165.14C1012.39,-168.21 1019.93,-171.81 1027,-176 1049.33,-189.24 1040.76,-208.61 1063,-222 1065.71,-223.63 1068.49,-225.17 1071.33,-226.62"/>
<polygon fill="black" stroke="black" stroke-width="8" points="1068.57,-233.05 1080.6,-230.95 1074.51,-220.37 1068.57,-233.05"/>
</a>
</g>
</g>
<!-- PAKNECONPRVTXN&#45;&gt;PAKFMLBLPOLYXN -->
<g id="edge20" class="edge">
<title>PAKNECONPRVTXN-&gt;PAKFMLBLPOLYXN</title>
<g id="a_edge20"><a xlink:href="bogus" xlink:title=" PAKNECONPRVTXN -&gt; PAKFMLBLPOLYXN Min. att. -94%  max: 1459%">
<path fill="none" stroke="black" stroke-width="8" d="M616.46,-238.98C659.4,-232.66 707.37,-225.61 749.37,-219.43"/>
<polygon fill="black" stroke="black" stroke-width="8" points="750.48,-226.34 759.35,-217.96 748.44,-212.49 750.48,-226.34"/>
</a>
</g>
</g>
<!-- PAKNECONPRVTXN&#45;&gt;PAKNECONGOVTXN -->
<g id="edge4" class="edge">
<title>PAKNECONPRVTXN-&gt;PAKNECONGOVTXN</title>
<g id="a_edge4"><a xlink:href="bogus" xlink:title=" PAKNECONPRVTXN -&gt; PAKNECONGOVTXN Min. att. 26%  max: 100%">
<path fill="none" stroke="black" stroke-width="8" d="M617.23,-269.76C639.55,-272.07 663.21,-274.52 686.66,-276.95"/>
<polygon fill="black" stroke="black" stroke-width="8" points="686.03,-283.92 696.7,-277.99 687.48,-270 686.03,-283.92"/>
</a>
</g>
</g>
<!-- PAKNECONPRVTXN&#45;&gt;PAKNECONPRVTKN -->
<g id="edge21" class="edge">
<title>PAKNECONPRVTXN-&gt;PAKNECONPRVTKN</title>
<g id="a_edge21"><a xlink:href="bogus" xlink:title=" PAKNECONPRVTXN -&gt; PAKNECONPRVTKN Min. att. -5708%  max: 593%">
<path fill="none" stroke="black" stroke-width="8" d="M617.36,-255.63C741.52,-254.25 933.08,-252.12 1065.5,-250.65"/>
<polygon fill="black" stroke="black" stroke-width="8" points="1065.8,-257.65 1075.72,-250.54 1065.65,-243.65 1065.8,-257.65"/>
</a>
</g>
</g>
<!-- PAKNYGDPGAP_ -->
<g id="node27" class="node">
<title>PAKNYGDPGAP_</title>
<g id="a_node27"><a xlink:title="Output Gap (% of Potential GDP)
FRML  &lt;&gt; PAKNYGDPGAP_ = ((PAKNYGDPMKTPKN/PAKNYGDPPOTLKN-1)*100) $">
<polygon fill="#63b8ff" stroke="black" points="647.5,-113 338.5,-113 338.5,-77 647.5,-77 647.5,-113"/>
<text text-anchor="start" x="345" y="-90.8" font-family="Times New Roman,serif" font-size="14.00" fill="blue">PAKNYGDPGAP_:Output Gap (% of Potential GDP)</text>
</a>
</g>
</g>
<!-- PAKNYGDPGAP_&#45;&gt;PAKFMLBLPOLYXN -->
<g id="edge34" class="edge">
<title>PAKNYGDPGAP_-&gt;PAKFMLBLPOLYXN</title>
<g id="a_edge34"><a xlink:href="bogus" xlink:title=" PAKNYGDPGAP_ -&gt; PAKFMLBLPOLYXN Min. att. -15%  max: 83%">
<path fill="none" stroke="black" stroke-width="8" d="M644.7,-113.05C650.35,-115.69 655.81,-118.66 661,-122 685.26,-137.6 672.76,-160.36 697,-176 712.62,-186.08 730.76,-192.79 749.17,-197.2"/>
<polygon fill="black" stroke="black" stroke-width="8" points="747.85,-204.08 759.11,-199.36 750.83,-190.4 747.85,-204.08"/>
</a>
</g>
</g>
<!-- PAKNYGDPGAP_&#45;&gt;PAKNYGDPFCSTXN -->
<g id="edge5" class="edge">
<title>PAKNYGDPGAP_-&gt;PAKNYGDPFCSTXN</title>
<g id="a_edge5"><a xlink:href="bogus" xlink:title=" PAKNYGDPGAP_ -&gt; PAKNYGDPFCSTXN Min. att. -56%  max: 7987%">
<path fill="none" stroke="black" stroke-width="8" d="M647.51,-95C675.12,-95 703.66,-95 730.53,-95"/>
<polygon fill="black" stroke="black" stroke-width="8" points="730.75,-102 740.75,-95 730.75,-88 730.75,-102"/>
</a>
</g>
</g>
<!-- PAKNECONPRVTKN&#45;&gt;PAKNEGDETTOTKN -->
<g id="edge16" class="edge">
<title>PAKNECONPRVTKN-&gt;PAKNEGDETTOTKN</title>
<g id="a_edge16"><a xlink:href="bogus" xlink:title=" PAKNECONPRVTKN -&gt; PAKNEGDETTOTKN Min. att. -2284%  max: 2484%">
<path fill="none" stroke="black" stroke-width="8" d="M1337.86,-267.02C1364.92,-271.03 1393.21,-275.21 1418.97,-279.02"/>
<polygon fill="black" stroke="black" stroke-width="8" points="1418.18,-285.98 1429.1,-280.52 1420.23,-272.13 1418.18,-285.98"/>
</a>
</g>
</g>
<!-- PAKNECONPRVTKN&#45;&gt;PAKNYGDPMKTPKN -->
<g id="edge27" class="edge">
<title>PAKNECONPRVTKN-&gt;PAKNYGDPMKTPKN</title>
<g id="a_edge27"><a xlink:href="bogus" xlink:title=" PAKNECONPRVTKN -&gt; PAKNYGDPMKTPKN Min. att. -1557%  max: 290%">
<path fill="none" stroke="black" stroke-width="8" d="M1354.09,-254.2C1433.62,-257.32 1535.45,-261.55 1626,-266 1719.74,-270.61 1823.86,-276.45 1910.62,-281.52"/>
<polygon fill="black" stroke="black" stroke-width="8" points="1910.45,-288.53 1920.84,-282.12 1911.27,-274.55 1910.45,-288.53"/>
</a>
</g>
</g>
<!-- PAKNYGDPPOTLKN -->
<g id="node29" class="node">
<title>PAKNYGDPPOTLKN</title>
<g id="a_node29"><a xlink:title="Potential GDP
FRML  &lt;&gt; PAKNYGDPPOTLKN = PAKNYGDPTFP*(PAKLMEMPSTRLCN**PAKNYYWBTOTLCN_)*(PAKNEGDIKSTKKN(-1)**(1-PAKNYYWBTOTLCN_)) $">
<polygon fill="#63b8ff" stroke="black" points="603.5,-510 382.5,-510 382.5,-474 603.5,-474 603.5,-510"/>
<text text-anchor="start" x="389" y="-487.8" font-family="Times New Roman,serif" font-size="14.00" fill="blue">PAKNYGDPPOTLKN:Potential GDP</text>
</a>
</g>
</g>
<!-- PAKNYGDPPOTLKN&#45;&gt;PAKNEGDIFPRVKN -->
<g id="edge19" class="edge">
<title>PAKNYGDPPOTLKN-&gt;PAKNEGDIFPRVKN</title>
<g id="a_edge19"><a xlink:href="bogus" xlink:title=" PAKNYGDPPOTLKN -&gt; PAKNEGDIFPRVKN Min. att. -8%  max: 66%">
<path fill="none" stroke="black" stroke-width="6.61" d="M603.61,-500.06C643.9,-503.03 689.88,-506.41 731.73,-509.49"/>
<polygon fill="black" stroke="black" stroke-width="6.61" points="731.31,-515.26 741.71,-510.22 732.16,-503.72 731.31,-515.26"/>
</a>
</g>
</g>
</g>
</svg>