<svg xmlns="http://www.w3.org/2000/svg" xmlns:xlink="http://www.w3.org/1999/xlink" width="432pt" height="112pt" viewBox="0.00 0.00 432.00 111.68">
<g id="graph0" class="graph" transform="scale(0.183986 0.183986) rotate(0) translate(4 603)">
<title>TD</title>
<polygon fill="white" stroke="none" points="-4,4 -4,-603 2344,-603 2344,4 -4,4"/>
<text text-anchor="middle" x="1170" y="-7.8" font-family="Times New Roman,serif" font-size="14.00">PAKNYGDPMKTPKN</text>
<!-- PAKNEKRTTOTLCN -->
<g id="node1" class="node"><title>PAKNEKRTTOTLCN</title>
<g id="a_node1"><a xlink:title="PAKNEKRTTOTLCN
FRML &lt;Z,EXO&gt; PAKNEKRTTOTLCN = (-PAKNEKRTTOTLCN_A+ (((PAKUCK)-(PAKUCK(-1)))+7.05881784375082E-05*DUMH) +PAKNEKRTTOTLCN(-1)) * (1-PAKNEKRTTOTLCN_D)+ PAKNEKRTTOTLCN_X*PAKNEKRTTOTLCN_D  $">
<polygon fill="#63b8ff" stroke="black" points="580.5,-491 434.5,-491 434.5,-455 580.5,-455 580.5,-491"/>
<text text-anchor="start" x="440.5" y="-468.8" font-family="Times New Roman,serif" font-size="14.00" fill="blue">PAKNEKRTTOTLCN:</text>
</a>
</g>
</g>
<!-- PAKNEGDIFPRVKN -->
<g id="node19" class="node"><title>PAKNEGDIFPRVKN</title>
<g id="a_node19"><a xlink:title="Private Investment
FRML &lt;Z,EXO&gt; PAKNEGDIFPRVKN = (-PAKNEGDIFPRVKN_A*PAKNEGDIKSTKKN(-1)+ (-0.00526826150713402+0.826734606421746*(PAKNEGDIFPRVKN(-1)/PAKNEGDIKSTKKN(-2))+(1-0.826734606421746)*(((LOG(PAKNYGDPPOTLKN))-(LOG(PAKNYGDPPOTLKN(-1))))+PAKDEPR)-0.00378813564556318*((LOG(PAKNEKRTTOTLCN/PAKNYGDPFCSTXN))-(LOG(PAKNEKRTTOTLCN(-1)/PAKNYGDPFCSTXN(-1))))) *PAKNEGDIKSTKKN(-1)) * (1-PAKNEGDIFPRVKN_D)+ PAKNEGDIFPRVKN_X*PAKNEGDIFPRVKN_D  $">
<polygon fill="#63b8ff" stroke="black" points="1009.5,-518 765.5,-518 765.5,-482 1009.5,-482 1009.5,-518"/>
<text text-anchor="start" x="771.5" y="-495.8" font-family="Times New Roman,serif" font-size="14.00" fill="blue">PAKNEGDIFPRVKN:Private Investment</text>
</a>
</g>
</g>
<!-- PAKNEKRTTOTLCN&#45;&gt;PAKNEGDIFPRVKN -->
<g id="edge24" class="edge"><title>PAKNEKRTTOTLCN-&gt;PAKNEGDIFPRVKN</title>
<g id="a_edge24"><a xlink:href="bogus" xlink:title=" PAKNEKRTTOTLCN -&gt; PAKNEGDIFPRVKN Min. att. -0%  max: 90%">
<path fill="none" stroke="black" stroke-width="8" d="M580.935,-478.174C630.179,-481.691 696.743,-486.446 755.174,-490.62"/>
<polygon fill="black" stroke="black" stroke-width="8" points="754.754,-497.607 765.228,-491.338 755.752,-483.643 754.754,-497.607"/>
</a>
</g>
</g>
<!-- PAKNEGDIFTOTKN -->
<g id="node2" class="node"><title>PAKNEGDIFTOTKN</title>
<g id="a_node2"><a xlink:title="Total Gross Capital Formation
FRML  &lt;&gt; PAKNEGDIFTOTKN = PAKNEGDIFGOVKN+PAKNEGDIFPRVKN $">
<polygon fill="#63b8ff" stroke="black" points="1407,-378 1093,-378 1093,-342 1407,-342 1407,-378"/>
<text text-anchor="start" x="1099" y="-355.8" font-family="Times New Roman,serif" font-size="14.00" fill="blue">PAKNEGDIFTOTKN:Total Gross Capital Formation</text>
</a>
</g>
</g>
<!-- PAKNEGDETTOTKN -->
<g id="node13" class="node"><title>PAKNEGDETTOTKN</title>
<g id="a_node13"><a xlink:title="GDE
FRML  &lt;&gt; PAKNEGDETTOTKN = (PAKNECONPRVTKN+PAKNECONGOVTKN+PAKNEGDIFTOTKN+PAKNEGDISTKBKN+PAKNYGDPDISCKN) $">
<polygon fill="#63b8ff" stroke="black" points="1645,-285 1470,-285 1470,-249 1645,-249 1645,-285"/>
<text text-anchor="start" x="1476.5" y="-262.8" font-family="Times New Roman,serif" font-size="14.00" fill="blue">PAKNEGDETTOTKN:GDE</text>
</a>
</g>
</g>
<!-- PAKNEGDIFTOTKN&#45;&gt;PAKNEGDETTOTKN -->
<g id="edge21" class="edge"><title>PAKNEGDIFTOTKN-&gt;PAKNEGDETTOTKN</title>
<g id="a_edge21"><a xlink:href="bogus" xlink:title=" PAKNEGDIFTOTKN -&gt; PAKNEGDETTOTKN Min. att. -1115%  max: 1147%">
<path fill="none" stroke="black" stroke-width="8" d="M1364.61,-341.923C1378.99,-338.745 1393.42,-335.113 1407,-331 1443.09,-320.069 1482.21,-303.126 1511.37,-289.418"/>
<polygon fill="black" stroke="black" stroke-width="8" points="1514.45,-295.707 1520.48,-285.093 1508.44,-283.061 1514.45,-295.707"/>
</a>
</g>
</g>
<!-- PAKNYGDPMKTPKN -->
<g id="node24" class="node"><title>PAKNYGDPMKTPKN</title>
<g id="a_node24"><a xlink:title="GDP Expenditure side at market prices
FRML  &lt;&gt; PAKNYGDPMKTPKN = PAKNECONPRVTKN+PAKNECONGOVTKN+PAKNEGDIFTOTKN+PAKNEGDISTKBKN+PAKNEEXPGNFSKN-PAKNEIMPGNFSKN+PAKNYGDPDISCKN+PAKADAP*PAKDISPREPKN $">
<polygon fill="red" stroke="black" points="2340,-285 1973,-285 1973,-249 2340,-249 2340,-285"/>
<text text-anchor="start" x="1979.5" y="-262.8" font-family="Times New Roman,serif" font-size="14.00" fill="blue">PAKNYGDPMKTPKN:GDP Expenditure side at market prices</text>
</a>
</g>
</g>
<!-- PAKNEGDIFTOTKN&#45;&gt;PAKNYGDPMKTPKN -->
<g id="edge22" class="edge"><title>PAKNEGDIFTOTKN-&gt;PAKNYGDPMKTPKN</title>
<g id="a_edge22"><a xlink:href="bogus" xlink:title=" PAKNEGDIFTOTKN -&gt; PAKNYGDPMKTPKN Min. att. -36%  max: 366%">
<path fill="none" stroke="black" stroke-width="8" d="M1407.27,-349.134C1546.49,-338.787 1755.67,-321.602 1937,-300 1968.88,-296.202 2003.27,-291.36 2035.12,-286.563"/>
<polygon fill="black" stroke="black" stroke-width="8" points="2036.53,-293.43 2045.37,-285.009 2034.43,-279.588 2036.53,-293.43"/>
</a>
</g>
</g>
<!-- PAKNYGDPGAP_ -->
<g id="node3" class="node"><title>PAKNYGDPGAP_</title>
<g id="a_node3"><a xlink:title="Output Gap (% of Potential GDP)
FRML  &lt;&gt; PAKNYGDPGAP_ = ((PAKNYGDPMKTPKN/PAKNYGDPPOTLKN-1)*100) $">
<polygon fill="#63b8ff" stroke="black" points="667,-113 348,-113 348,-77 667,-77 667,-113"/>
<text text-anchor="start" x="354.5" y="-90.8" font-family="Times New Roman,serif" font-size="14.00" fill="blue">PAKNYGDPGAP_:Output Gap (% of Potential GDP)</text>
</a>
</g>
</g>
<!-- PAKNYGDPFCSTXN -->
<g id="node25" class="node"><title>PAKNYGDPFCSTXN</title>
<g id="a_node25"><a xlink:title="GDP at factor cost
FRML &lt;Z,EXO&gt; PAKNYGDPFCSTXN = (PAKNYGDPFCSTXN(-1)*EXP(-PAKNYGDPFCSTXN_A+ (0.6*((LOG(PAKNYGDPFCSTXN(-1)))-(LOG(PAKNYGDPFCSTXN(-2))))+(1-0.6)*(0.7*PAKINFLEXPT/100+(1-0.7)*((LOG(PAKPSTAR(-1)))-(LOG(PAKPSTAR(-2)))))+0.25*PAKNYGDPGAP_/100+0.262461811660072*DURING_2000-0.205776950553378*DURING_2001) )) * (1-PAKNYGDPFCSTXN_D)+ PAKNYGDPFCSTXN_X*PAKNYGDPFCSTXN_D  $">
<polygon fill="#63b8ff" stroke="black" points="1014,-75 761,-75 761,-39 1014,-39 1014,-75"/>
<text text-anchor="start" x="767.5" y="-52.8" font-family="Times New Roman,serif" font-size="14.00" fill="blue">PAKNYGDPFCSTXN:GDP at factor cost</text>
</a>
</g>
</g>
<!-- PAKNYGDPGAP_&#45;&gt;PAKNYGDPFCSTXN -->
<g id="edge9" class="edge"><title>PAKNYGDPGAP_-&gt;PAKNYGDPFCSTXN</title>
<g id="a_edge9"><a xlink:href="bogus" xlink:title=" PAKNYGDPGAP_ -&gt; PAKNYGDPFCSTXN Min. att. -56%  max: 7987%">
<path fill="none" stroke="black" stroke-width="8" d="M667.163,-79.0497C694.932,-76.2582 723.597,-73.3765 750.677,-70.6542"/>
<polygon fill="black" stroke="black" stroke-width="8" points="751.723,-77.5843 760.973,-69.6191 750.323,-63.6546 751.723,-77.5843"/>
</a>
</g>
</g>
<!-- PAKFMLBLPOLYXN -->
<g id="node27" class="node"><title>PAKFMLBLPOLYXN</title>
<g id="a_node27"><a xlink:title="Policy Rate
FRML &lt;Z,EXO&gt; PAKFMLBLPOLYXN = (-100*PAKFMLBLPOLYXN_A+100* (0.905129162122953*PAKFMLBLPOLYXN(-1)/100+(1-0.905129162122953)*(PAKMPPOLNATRXN/100+1.2*(((LOG(PAKNECONPRVTXN))-(LOG(PAKNECONPRVTXN(-1))))-PAKINFLEXPT/100)+0.5*PAKNYGDPGAP_/100)) ) * (1-PAKFMLBLPOLYXN_D)+ PAKFMLBLPOLYXN_X*PAKFMLBLPOLYXN_D  $">
<polygon fill="#63b8ff" stroke="black" points="992.5,-129 782.5,-129 782.5,-93 992.5,-93 992.5,-129"/>
<text text-anchor="start" x="788.5" y="-106.8" font-family="Times New Roman,serif" font-size="14.00" fill="blue">PAKFMLBLPOLYXN:Policy Rate</text>
</a>
</g>
</g>
<!-- PAKNYGDPGAP_&#45;&gt;PAKFMLBLPOLYXN -->
<g id="edge5" class="edge"><title>PAKNYGDPGAP_-&gt;PAKFMLBLPOLYXN</title>
<g id="a_edge5"><a xlink:href="bogus" xlink:title=" PAKNYGDPGAP_ -&gt; PAKFMLBLPOLYXN Min. att. -15%  max: 83%">
<path fill="none" stroke="black" stroke-width="8" d="M667.163,-101.716C702.409,-103.208 739.101,-104.761 772.161,-106.16"/>
<polygon fill="black" stroke="black" stroke-width="8" points="772.012,-113.16 782.299,-106.589 772.604,-99.1726 772.012,-113.16"/>
</a>
</g>
</g>
<!-- PAKNYGDPPOTLKN -->
<g id="node4" class="node"><title>PAKNYGDPPOTLKN</title>
<g id="a_node4"><a xlink:title="Potential GDP
FRML  &lt;&gt; PAKNYGDPPOTLKN = PAKNYGDPTFP*(PAKLMEMPSTRLCN**PAKNYYWBTOTLCN_)*(PAKNEGDIKSTKKN(-1)**(1-PAKNYYWBTOTLCN_)) $">
<polygon fill="#63b8ff" stroke="black" points="621,-599 394,-599 394,-563 621,-563 621,-599"/>
<text text-anchor="start" x="400.5" y="-576.8" font-family="Times New Roman,serif" font-size="14.00" fill="blue">PAKNYGDPPOTLKN:Potential GDP</text>
</a>
</g>
</g>
<!-- PAKNYGDPPOTLKN&#45;&gt;PAKNEGDIFPRVKN -->
<g id="edge6" class="edge"><title>PAKNYGDPPOTLKN-&gt;PAKNEGDIFPRVKN</title>
<g id="a_edge6"><a xlink:href="bogus" xlink:title=" PAKNYGDPPOTLKN -&gt; PAKNEGDIFPRVKN Min. att. -8%  max: 66%">
<path fill="none" stroke="black" stroke-width="6.61165" d="M621.271,-565.192C641.555,-561.854 662.456,-558.09 682,-554 726.565,-544.675 775.934,-531.715 814.999,-520.829"/>
<polygon fill="black" stroke="black" stroke-width="6.61165" points="816.632,-526.379 824.7,-518.109 813.509,-515.238 816.632,-526.379"/>
</a>
</g>
</g>
<!-- PAKNECONENGYXN -->
<g id="node5" class="node"><title>PAKNECONENGYXN</title>
<g id="a_node5"><a xlink:title="Energy Consumption
FRML &lt;Z,EXO&gt; PAKNECONENGYXN = (PAKNECONENGYXN(-1)*EXP(-PAKNECONENGYXN_A+ (((LOG(PAKNECONENGYGN))-(LOG(PAKNECONENGYGN(-1))))+0.0550557534575806*DUMH) )) * (1-PAKNECONENGYXN_D)+ PAKNECONENGYXN_X*PAKNECONENGYXN_D  $">
<polygon fill="#63b8ff" stroke="black" points="282.5,-194 14.5,-194 14.5,-158 282.5,-158 282.5,-194"/>
<text text-anchor="start" x="20.5" y="-171.8" font-family="Times New Roman,serif" font-size="14.00" fill="blue">PAKNECONENGYXN:Energy Consumption</text>
</a>
</g>
</g>
<!-- PAKNECONPRVTXN -->
<g id="node21" class="node"><title>PAKNECONPRVTXN</title>
<g id="a_node21"><a xlink:title="Household demand
FRML  &lt;&gt; PAKNECONPRVTXN = ((PAKNECONENGYSH**PAKCESENGYCON)*PAKNECONENGYXN**(1-PAKCESENGYCON)+(PAKNECONOTHRSH**PAKCESENGYCON)*PAKNECONOTHRXN**(1-PAKCESENGYCON))**(1/(1-PAKCESENGYCON)) $">
<polygon fill="#63b8ff" stroke="black" points="635.5,-167 379.5,-167 379.5,-131 635.5,-131 635.5,-167"/>
<text text-anchor="start" x="385.5" y="-144.8" font-family="Times New Roman,serif" font-size="14.00" fill="blue">PAKNECONPRVTXN:Household demand</text>
</a>
</g>
</g>
<!-- PAKNECONENGYXN&#45;&gt;PAKNECONPRVTXN -->
<g id="edge30" class="edge"><title>PAKNECONENGYXN-&gt;PAKNECONPRVTXN</title>
<g id="a_edge30"><a xlink:href="bogus" xlink:title=" PAKNECONENGYXN -&gt; PAKNECONPRVTXN Min. att. 1%  max: 29%">
<path fill="none" stroke="black" stroke-width="2.9098" d="M282.687,-165.927C310.958,-163.789 340.853,-161.528 369.272,-159.379"/>
<polygon fill="black" stroke="black" stroke-width="2.9098" points="369.549,-162.868 379.257,-158.623 369.021,-155.888 369.549,-162.868"/>
</a>
</g>
</g>
<!-- PAKNECONGOVTKN -->
<g id="node6" class="node"><title>PAKNECONGOVTKN</title>
<g id="a_node6"><a xlink:title="Government Consumption
FRML  &lt;&gt; PAKNECONGOVTKN = PAKNECONGOVTCN/PAKNECONGOVTXN $">
<polygon fill="#63b8ff" stroke="black" points="1399.5,-322 1100.5,-322 1100.5,-286 1399.5,-286 1399.5,-322"/>
<text text-anchor="start" x="1107" y="-299.8" font-family="Times New Roman,serif" font-size="14.00" fill="blue">PAKNECONGOVTKN:Government Consumption</text>
</a>
</g>
</g>
<!-- PAKNECONGOVTKN&#45;&gt;PAKNEGDETTOTKN -->
<g id="edge3" class="edge"><title>PAKNECONGOVTKN-&gt;PAKNEGDETTOTKN</title>
<g id="a_edge3"><a xlink:href="bogus" xlink:title=" PAKNECONGOVTKN -&gt; PAKNEGDETTOTKN Min. att. -1269%  max: 1236%">
<path fill="none" stroke="black" stroke-width="8" d="M1399.72,-285.988C1420.05,-283.526 1440.46,-281.053 1459.54,-278.743"/>
<polygon fill="black" stroke="black" stroke-width="8" points="1460.6,-285.666 1469.68,-277.515 1458.91,-271.768 1460.6,-285.666"/>
</a>
</g>
</g>
<!-- PAKNECONGOVTKN&#45;&gt;PAKNYGDPMKTPKN -->
<g id="edge8" class="edge"><title>PAKNECONGOVTKN-&gt;PAKNYGDPMKTPKN</title>
<g id="a_edge8"><a xlink:href="bogus" xlink:title=" PAKNECONGOVTKN -&gt; PAKNYGDPMKTPKN Min. att. -108%  max: 835%">
<path fill="none" stroke="black" stroke-width="8" d="M1399.6,-301.631C1480.22,-300.053 1581.6,-297.597 1672,-294 1767.75,-290.19 1874.09,-284.421 1962.6,-279.191"/>
<polygon fill="black" stroke="black" stroke-width="8" points="1963.18,-286.169 1972.75,-278.589 1962.36,-272.194 1963.18,-286.169"/>
</a>
</g>
</g>
<!-- PAKNEGDIFGOVCN -->
<g id="node7" class="node"><title>PAKNEGDIFGOVCN</title>
<g id="a_node7"><a xlink:title="Government Investment
FRML &lt;Z,EXO&gt; PAKNEGDIFGOVCN = (PAKNEGDIFGOVCN(-1)*EXP(-PAKNEGDIFGOVCN_A+ (((LOG(PAKGGEXPCAPTCN))-(LOG(PAKGGEXPCAPTCN(-1))))-0.00510713331489238*DUMH) )) * (1-PAKNEGDIFGOVCN_D)+ PAKNEGDIFGOVCN_X*PAKNEGDIFGOVCN_D  $">
<polygon fill="#63b8ff" stroke="black" points="646.5,-383 368.5,-383 368.5,-347 646.5,-347 646.5,-383"/>
<text text-anchor="start" x="374.5" y="-360.8" font-family="Times New Roman,serif" font-size="14.00" fill="blue">PAKNEGDIFGOVCN:Government Investment</text>
</a>
</g>
</g>
<!-- PAKNEGDIFGOVKN -->
<g id="node20" class="node"><title>PAKNEGDIFGOVKN</title>
<g id="a_node20"><a xlink:title="Government Investment
FRML  &lt;&gt; PAKNEGDIFGOVKN = PAKNEGDIFGOVCN/PAKNEGDIFGOVXN $">
<polygon fill="#63b8ff" stroke="black" points="1026.5,-383 748.5,-383 748.5,-347 1026.5,-347 1026.5,-383"/>
<text text-anchor="start" x="754.5" y="-360.8" font-family="Times New Roman,serif" font-size="14.00" fill="blue">PAKNEGDIFGOVKN:Government Investment</text>
</a>
</g>
</g>
<!-- PAKNEGDIFGOVCN&#45;&gt;PAKNEGDIFGOVKN -->
<g id="edge19" class="edge"><title>PAKNEGDIFGOVCN-&gt;PAKNEGDIFGOVKN</title>
<g id="a_edge19"><a xlink:href="bogus" xlink:title=" PAKNEGDIFGOVCN -&gt; PAKNEGDIFGOVKN Min. att. 129%  max: 988%">
<path fill="none" stroke="black" stroke-width="8" d="M646.571,-365C676.414,-365 708.088,-365 738.301,-365"/>
<polygon fill="black" stroke="black" stroke-width="8" points="738.487,-372 748.487,-365 738.487,-358 738.487,-372"/>
</a>
</g>
</g>
<!-- PAKNVENGNIMPXN -->
<g id="node8" class="node"><title>PAKNVENGNIMPXN</title>
<g id="a_node8"><a xlink:title="Energy Imports
FRML  &lt;&gt; PAKNVENGNIMPXN = ((PAKNVCOLNIMPSH**PAKCESENGYIMP)*PAKNVCOLPRODXN**(1-PAKCESENGYIMP)+(PAKNVOILNIMPSH**PAKCESENGYIMP)*PAKNVOILPRODXN**(1-PAKCESENGYIMP)+(PAKNVGASNIMPSH**PAKCESENGYIMP)*PAKNVGASPRODXN**(1-PAKCESENGYIMP)+(PAKNVRENNIMPSH**PAKCESENGYIMP)*PAKNVRENPRODXN**(1-PAKCESENGYIMP))**(1/(1-PAKCESENGYIMP)) $">
<polygon fill="#63b8ff" stroke="black" points="1366,-187 1134,-187 1134,-151 1366,-151 1366,-187"/>
<text text-anchor="start" x="1140" y="-164.8" font-family="Times New Roman,serif" font-size="14.00" fill="blue">PAKNVENGNIMPXN:Energy Imports</text>
</a>
</g>
</g>
<!-- PAKNEIMPGNFSXN -->
<g id="node10" class="node"><title>PAKNEIMPGNFSXN</title>
<g id="a_node10"><a xlink:title="Imports (G&amp;S)
FRML  &lt;&gt; PAKNEIMPGNFSXN = ((PAKNEIMPENGYSH**PAKCESENGYIMPT)*PAKNVENGNIMPXN**(1-PAKCESENGYIMPT)+(PAKNEIMPOTHRSH**PAKCESENGYIMPT)*PAKNEIMPGSNEXN**(1-PAKCESENGYIMPT))**(1/(1-PAKCESENGYIMPT)) $">
<polygon fill="#63b8ff" stroke="black" points="1672,-187 1443,-187 1443,-151 1672,-151 1672,-187"/>
<text text-anchor="start" x="1449.5" y="-164.8" font-family="Times New Roman,serif" font-size="14.00" fill="blue">PAKNEIMPGNFSXN:Imports (G&amp;S)</text>
</a>
</g>
</g>
<!-- PAKNVENGNIMPXN&#45;&gt;PAKNEIMPGNFSXN -->
<g id="edge33" class="edge"><title>PAKNVENGNIMPXN-&gt;PAKNEIMPGNFSXN</title>
<g id="a_edge33"><a xlink:href="bogus" xlink:title=" PAKNVENGNIMPXN -&gt; PAKNEIMPGNFSXN Min. att. 37%  max: 104%">
<path fill="none" stroke="black" stroke-width="8" d="M1366.06,-169C1387.84,-169 1410.71,-169 1432.75,-169"/>
<polygon fill="black" stroke="black" stroke-width="8" points="1432.81,-176 1442.81,-169 1432.81,-162 1432.81,-176"/>
</a>
</g>
</g>
<!-- PAKNEIMPGNFSKN -->
<g id="node9" class="node"><title>PAKNEIMPGNFSKN</title>
<g id="a_node9"><a xlink:title="Imports (G&amp;S)
FRML &lt;Z,EXO&gt; PAKNEIMPGNFSKN = (PAKNEIMPGNFSKN(-1)*EXP(-PAKNEIMPGNFSKN_A+ (-0.324143718656754*(LOG(PAKNEIMPGNFSKN(-1))-LOG(PAKNEGDETTOTKN(-1))+0.8*LOG(PAKNEIMPGNFSXN(-1)/PAKNYGDPFCSTXN(-1)))-0.583459272245018+1*((LOG(PAKNEGDETTOTKN))-(LOG(PAKNEGDETTOTKN(-1))))-0.0921874580409631*((LOG(PAKNEIMPGNFSXN/PAKNYGDPFCSTXN))-(LOG(PAKNEIMPGNFSXN(-1)/PAKNYGDPFCSTXN(-1))))-0.0361746331863615*DURING_2012) )) * (1-PAKNEIMPGNFSKN_D)+ PAKNEIMPGNFSKN_X*PAKNEIMPGNFSKN_D  $">
<polygon fill="#63b8ff" stroke="black" points="1937,-189 1708,-189 1708,-153 1937,-153 1937,-189"/>
<text text-anchor="start" x="1714.5" y="-166.8" font-family="Times New Roman,serif" font-size="14.00" fill="blue">PAKNEIMPGNFSKN:Imports (G&amp;S)</text>
</a>
</g>
</g>
<!-- PAKNEIMPGNFSKN&#45;&gt;PAKNYGDPMKTPKN -->
<g id="edge20" class="edge"><title>PAKNEIMPGNFSKN-&gt;PAKNYGDPMKTPKN</title>
<g id="a_edge20"><a xlink:href="bogus" xlink:title=" PAKNEIMPGNFSKN -&gt; PAKNYGDPMKTPKN Min. att. -46%  max: 456%">
<path fill="none" stroke="black" stroke-width="8" d="M1885.95,-189.057C1942.08,-205.289 2024.53,-229.129 2083.44,-246.163"/>
<polygon fill="black" stroke="black" stroke-width="8" points="2081.5,-252.889 2093.05,-248.943 2085.39,-239.44 2081.5,-252.889"/>
</a>
</g>
</g>
<!-- PAKNEIMPGNFSXN&#45;&gt;PAKNEIMPGNFSKN -->
<g id="edge1" class="edge"><title>PAKNEIMPGNFSXN-&gt;PAKNEIMPGNFSKN</title>
<g id="a_edge1"><a xlink:href="bogus" xlink:title=" PAKNEIMPGNFSXN -&gt; PAKNEIMPGNFSKN Min. att. -390%  max: 1559%">
<path fill="none" stroke="black" stroke-width="8" d="M1672.33,-169.866C1680.72,-169.929 1689.2,-169.994 1697.65,-170.058"/>
<polygon fill="black" stroke="black" stroke-width="8" points="1697.86,-177.06 1707.92,-170.136 1697.97,-163.06 1697.86,-177.06"/>
</a>
</g>
</g>
<!-- PAKNEIMPGSNEXN -->
<g id="node11" class="node"><title>PAKNEIMPGSNEXN</title>
<g id="a_node11"><a xlink:title="Imports (Non-energy)
FRML &lt;Z,EXO&gt; PAKNEIMPGSNEXN = (PAKNEIMPGSNEXN(-1)*EXP(-PAKNEIMPGSNEXN_A+ (-0.278529319815428*(LOG(PAKNEIMPGSNEXN(-1))-0.3*LOG(PAKNYGDPFCSTXN(-1))-(1-0.3)*LOG(PAKPMKEY(-1)*PAKPANUSATLS(-1)))+0.4*((LOG(PAKNYGDPFCSTXN))-(LOG(PAKNYGDPFCSTXN(-1))))+(1-0.4)*((LOG(PAKPMKEY*PAKPANUSATLS))-(LOG(PAKPMKEY(-1)*PAKPANUSATLS(-1))))-0.888813883474775+0.135666902654654*DURING_2012+0.216228696118762*DURING_2008) )) * (1-PAKNEIMPGSNEXN_D)+ PAKNEIMPGSNEXN_X*PAKNEIMPGSNEXN_D  $">
<polygon fill="#63b8ff" stroke="black" points="1382.5,-133 1117.5,-133 1117.5,-97 1382.5,-97 1382.5,-133"/>
<text text-anchor="start" x="1124" y="-110.8" font-family="Times New Roman,serif" font-size="14.00" fill="blue">PAKNEIMPGSNEXN:Imports (Non-energy)</text>
</a>
</g>
</g>
<!-- PAKNEIMPGSNEXN&#45;&gt;PAKNEIMPGNFSXN -->
<g id="edge25" class="edge"><title>PAKNEIMPGSNEXN-&gt;PAKNEIMPGNFSXN</title>
<g id="a_edge25"><a xlink:href="bogus" xlink:title=" PAKNEIMPGSNEXN -&gt; PAKNEIMPGNFSXN Min. att. -4%  max: 63%">
<path fill="none" stroke="black" stroke-width="6.32843" d="M1355.91,-133.05C1372.99,-136.019 1390.49,-139.08 1407,-142 1420.06,-144.31 1433.76,-146.754 1447.34,-149.191"/>
<polygon fill="black" stroke="black" stroke-width="6.32843" points="1446.38,-154.644 1457.2,-150.962 1448.34,-143.744 1446.38,-154.644"/>
</a>
</g>
</g>
<!-- PAKGGEXPGNFSCN -->
<g id="node12" class="node"><title>PAKGGEXPGNFSCN</title>
<g id="a_node12"><a xlink:title="Expenditure on Goods and Services
FRML &lt;Z,EXO&gt; PAKGGEXPGNFSCN = (0.3*PAKGGEXPGNFSCN(-1)+(1-0.3)*(0.80*(PAKGGREVTOTLCN-PAKGGEXPINTPCN(-0)))+505277.259999999*DURING_2012 + PAKGGEXPGNFSCN_A)* (1-PAKGGEXPGNFSCN_D)+ PAKGGEXPGNFSCN_X*PAKGGEXPGNFSCN_D  $">
<polygon fill="#63b8ff" stroke="black" points="682,-329 333,-329 333,-293 682,-293 682,-329"/>
<text text-anchor="start" x="339.5" y="-306.8" font-family="Times New Roman,serif" font-size="14.00" fill="blue">PAKGGEXPGNFSCN:Expenditure on Goods and Services</text>
</a>
</g>
</g>
<!-- PAKNECONGOVTCN -->
<g id="node29" class="node"><title>PAKNECONGOVTCN</title>
<g id="a_node29"><a xlink:title="Government consumption (G&amp;S)
FRML &lt;Z,EXO&gt; PAKNECONGOVTCN = (-PAKNECONGOVTCN_A*PAKNECONGOVTCN(-1)/100+ ((100 * ( (PAKGGEXPGNFSCN) / (PAKGGEXPGNFSCN(-1)) -1)) +0.764199817873939*DUMH) *PAKNECONGOVTCN(-1)/100+PAKNECONGOVTCN(-1)) * (1-PAKNECONGOVTCN_D)+ PAKNECONGOVTCN_X*PAKNECONGOVTCN_D  $">
<polygon fill="#63b8ff" stroke="black" points="1057,-329 718,-329 718,-293 1057,-293 1057,-329"/>
<text text-anchor="start" x="724.5" y="-306.8" font-family="Times New Roman,serif" font-size="14.00" fill="blue">PAKNECONGOVTCN:Government consumption (G&amp;S)</text>
</a>
</g>
</g>
<!-- PAKGGEXPGNFSCN&#45;&gt;PAKNECONGOVTCN -->
<g id="edge26" class="edge"><title>PAKGGEXPGNFSCN-&gt;PAKNECONGOVTCN</title>
<g id="a_edge26"><a xlink:href="bogus" xlink:title=" PAKGGEXPGNFSCN -&gt; PAKNECONGOVTCN Min. att. -18%  max: 100%">
<path fill="none" stroke="black" stroke-width="8" d="M682.012,-311C690.591,-311 699.212,-311 707.806,-311"/>
<polygon fill="black" stroke="black" stroke-width="8" points="707.876,-318 717.876,-311 707.876,-304 707.876,-318"/>
</a>
</g>
</g>
<!-- PAKNEGDETTOTKN&#45;&gt;PAKNEIMPGNFSKN -->
<g id="edge32" class="edge"><title>PAKNEGDETTOTKN-&gt;PAKNEIMPGNFSKN</title>
<g id="a_edge32"><a xlink:href="bogus" xlink:title=" PAKNEGDETTOTKN -&gt; PAKNEIMPGNFSKN Min. att. -755%  max: 207%">
<path fill="none" stroke="black" stroke-width="8" d="M1607.97,-248.943C1651.73,-232.97 1715.66,-209.632 1762.16,-192.659"/>
<polygon fill="black" stroke="black" stroke-width="8" points="1764.81,-199.143 1771.81,-189.139 1760.01,-185.992 1764.81,-199.143"/>
</a>
</g>
</g>
<!-- PAKNEGDIKSTKKN -->
<g id="node14" class="node"><title>PAKNEGDIKSTKKN</title>
<g id="a_node14"><a xlink:title="Domestic Capital
FRML  &lt;&gt; PAKNEGDIKSTKKN = (PAKNEGDIKSTKKN(-1)*(1-PAKDEPR))+PAKNEGDIFTOTKN2-2*PAKHURDAMKN $">
<polygon fill="#63b8ff" stroke="black" points="626.5,-545 388.5,-545 388.5,-509 626.5,-509 626.5,-545"/>
<text text-anchor="start" x="394.5" y="-522.8" font-family="Times New Roman,serif" font-size="14.00" fill="blue">PAKNEGDIKSTKKN:Domestic Capital</text>
</a>
</g>
</g>
<!-- PAKNEGDIKSTKKN&#45;&gt;PAKNEGDIFPRVKN -->
<g id="edge29" class="edge"><title>PAKNEGDIKSTKKN-&gt;PAKNEGDIFPRVKN</title>
<g id="a_edge29"><a xlink:href="bogus" xlink:title=" PAKNEGDIKSTKKN -&gt; PAKNEGDIFPRVKN Min. att. 0%  max: 76%">
<path fill="none" stroke="black" stroke-width="7.56725" d="M626.547,-518.568C667.457,-515.646 713.557,-512.353 755.451,-509.361"/>
<polygon fill="black" stroke="black" stroke-width="7.56725" points="755.938,-515.964 765.44,-508.647 754.994,-502.755 755.938,-515.964"/>
</a>
</g>
</g>
<!-- PAKLMEMPTOTLCN -->
<g id="node15" class="node"><title>PAKLMEMPTOTLCN</title>
<g id="a_node15"><a xlink:title="Employment
FRML &lt;Z,EXO&gt; PAKLMEMPTOTLCN = (PAKLMEMPTOTLCN(-1)*EXP(-PAKLMEMPTOTLCN_A+ (-0.345624644563667*(LOG(PAKLMEMPTOTLCN(-1))-LOG(PAKLMEMPSTRLCN(-1)))-0.1*(((LOG(PAKNYWRTTOTLCN/PAKNYGDPFCSTXN))-(LOG(PAKNYWRTTOTLCN(-1)/PAKNYGDPFCSTXN(-1))))-((LOG(PAKNYGDPPOTLKN/PAKLMEMPSTRLCN))-(LOG(PAKNYGDPPOTLKN(-1)/PAKLMEMPSTRLCN(-1)))))-0.0011790007645121+((LOG(PAKLMEMPSTRLCN))-(LOG(PAKLMEMPSTRLCN(-1))))+0.175412878170024*PAKNYGDPGAP_/100+0.0369790799942338*DURING_2010) )) * (1-PAKLMEMPTOTLCN_D)+ PAKLMEMPTOTLCN_X*PAKLMEMPTOTLCN_D  $">
<polygon fill="#63b8ff" stroke="black" points="617,-221 398,-221 398,-185 617,-185 617,-221"/>
<text text-anchor="start" x="404.5" y="-198.8" font-family="Times New Roman,serif" font-size="14.00" fill="blue">PAKLMEMPTOTLCN:Employment</text>
</a>
</g>
</g>
<!-- PAKNYYWBTOTLCN -->
<g id="node17" class="node"><title>PAKNYYWBTOTLCN</title>
<g id="a_node17"><a xlink:title="Economy-wide wage bill
FRML  &lt;&gt; PAKNYYWBTOTLCN = PAKNYWRTTOTLCN*PAKLMEMPTOTLCN $">
<polygon fill="#63b8ff" stroke="black" points="1032,-275 743,-275 743,-239 1032,-239 1032,-275"/>
<text text-anchor="start" x="749.5" y="-252.8" font-family="Times New Roman,serif" font-size="14.00" fill="blue">PAKNYYWBTOTLCN:Economy-wide wage bill</text>
</a>
</g>
</g>
<!-- PAKLMEMPTOTLCN&#45;&gt;PAKNYYWBTOTLCN -->
<g id="edge10" class="edge"><title>PAKLMEMPTOTLCN-&gt;PAKNYYWBTOTLCN</title>
<g id="a_edge10"><a xlink:href="bogus" xlink:title=" PAKLMEMPTOTLCN -&gt; PAKNYYWBTOTLCN Min. att. -6%  max: 84%">
<path fill="none" stroke="black" stroke-width="8" d="M617.073,-218.51C658.558,-224.437 706.399,-231.271 750.15,-237.521"/>
<polygon fill="black" stroke="black" stroke-width="8" points="749.405,-244.486 760.294,-238.971 751.385,-230.627 749.405,-244.486"/>
</a>
</g>
</g>
<!-- PAKNECONPRVTKN -->
<g id="node16" class="node"><title>PAKNECONPRVTKN</title>
<g id="a_node16"><a xlink:title="Household Consumption
FRML &lt;Z,EXO&gt; PAKNECONPRVTKN = (PAKNECONPRVTKN(-1)*EXP(-PAKNECONPRVTKN_A+ (-0.2*(LOG(PAKNECONPRVTKN(-1))-LOG((PAKNYYWBTOTLCN(-1)*(1-PAKGGREVDRCTXN(-1)/100))/PAKNECONPRVTXN(-1)))+1*((LOG((PAKNYYWBTOTLCN*(1-PAKGGREVDRCTXN/100))/PAKNECONPRVTXN))-(LOG((PAKNYYWBTOTLCN(-1)*(1-PAKGGREVDRCTXN(-1)/100))/PAKNECONPRVTXN(-1))))+0.0303228629698929+0.0163839011059956*DURING_2010-0.3*(PAKFMLBLPOLYXN/100-((LOG(PAKNECONPRVTXN))-(LOG(PAKNECONPRVTXN(-1)))))) )) * (1-PAKNECONPRVTKN_D)+ PAKNECONPRVTKN_X*PAKNECONPRVTKN_D  $">
<polygon fill="#63b8ff" stroke="black" points="1394,-241 1106,-241 1106,-205 1394,-205 1394,-241"/>
<text text-anchor="start" x="1112" y="-218.8" font-family="Times New Roman,serif" font-size="14.00" fill="blue">PAKNECONPRVTKN:Household Consumption</text>
</a>
</g>
</g>
<!-- PAKNECONPRVTKN&#45;&gt;PAKNEGDETTOTKN -->
<g id="edge2" class="edge"><title>PAKNECONPRVTKN-&gt;PAKNEGDETTOTKN</title>
<g id="a_edge2"><a xlink:href="bogus" xlink:title=" PAKNECONPRVTKN -&gt; PAKNEGDETTOTKN Min. att. -2284%  max: 2484%">
<path fill="none" stroke="black" stroke-width="8" d="M1376.14,-241.023C1404.05,-245.043 1433.23,-249.246 1459.78,-253.07"/>
<polygon fill="black" stroke="black" stroke-width="8" points="1458.93,-260.02 1469.83,-254.517 1460.93,-246.162 1458.93,-260.02"/>
</a>
</g>
</g>
<!-- PAKNECONPRVTKN&#45;&gt;PAKNYGDPMKTPKN -->
<g id="edge7" class="edge"><title>PAKNECONPRVTKN-&gt;PAKNYGDPMKTPKN</title>
<g id="a_edge7"><a xlink:href="bogus" xlink:title=" PAKNECONPRVTKN -&gt; PAKNYGDPMKTPKN Min. att. -1557%  max: 290%">
<path fill="none" stroke="black" stroke-width="8" d="M1394.25,-228.236C1475.69,-231.35 1579.57,-235.553 1672,-240 1767.72,-244.605 1874.05,-250.462 1962.57,-255.543"/>
<polygon fill="black" stroke="black" stroke-width="8" points="1962.34,-262.541 1972.72,-256.127 1963.14,-248.564 1962.34,-262.541"/>
</a>
</g>
</g>
<!-- PAKNYYWBTOTLCN&#45;&gt;PAKNECONPRVTKN -->
<g id="edge28" class="edge"><title>PAKNYYWBTOTLCN-&gt;PAKNECONPRVTKN</title>
<g id="a_edge28"><a xlink:href="bogus" xlink:title=" PAKNYYWBTOTLCN -&gt; PAKNECONPRVTKN Min. att. -594%  max: 5823%">
<path fill="none" stroke="black" stroke-width="8" d="M1032.01,-243.465C1053.03,-241.482 1074.75,-239.434 1095.95,-237.435"/>
<polygon fill="black" stroke="black" stroke-width="8" points="1096.68,-244.397 1105.98,-236.489 1095.37,-230.459 1096.68,-244.397"/>
</a>
</g>
</g>
<!-- PAKNECONGOVTXN -->
<g id="node18" class="node"><title>PAKNECONGOVTXN</title>
<g id="a_node18"><a xlink:title="Government consumption (G&amp;S)
FRML &lt;Z,EXO&gt; PAKNECONGOVTXN = (PAKNECONGOVTXN(-1)*EXP(-PAKNECONGOVTXN_A+ (-0.3*(LOG(PAKNECONGOVTXN(-1))-LOG(PAKNECONPRVTXN(-1)))+0.0752362082122748+0.5*((LOG(PAKNECONGOVTXN(-1)))-(LOG(PAKNECONGOVTXN(-2))))+(1-0.5)*((LOG(PAKNECONPRVTXN))-(LOG(PAKNECONPRVTXN(-1))))) )) * (1-PAKNECONGOVTXN_D)+ PAKNECONGOVTXN_X*PAKNECONGOVTXN_D  $">
<polygon fill="#63b8ff" stroke="black" points="1057,-221 718,-221 718,-185 1057,-185 1057,-221"/>
<text text-anchor="start" x="724.5" y="-198.8" font-family="Times New Roman,serif" font-size="14.00" fill="blue">PAKNECONGOVTXN:Government consumption (G&amp;S)</text>
</a>
</g>
</g>
<!-- PAKNECONGOVTXN&#45;&gt;PAKNECONGOVTKN -->
<g id="edge4" class="edge"><title>PAKNECONGOVTXN-&gt;PAKNECONGOVTKN</title>
<g id="a_edge4"><a xlink:href="bogus" xlink:title=" PAKNECONGOVTXN -&gt; PAKNECONGOVTKN Min. att. -867%  max: -19%">
<path fill="none" stroke="black" stroke-width="8" d="M1026.5,-221.046C1036.93,-223.643 1047.2,-226.611 1057,-230 1074.3,-235.983 1076.29,-242.534 1093,-250 1120.74,-262.393 1152.25,-273.781 1179.66,-282.872"/>
<polygon fill="black" stroke="black" stroke-width="8" points="1177.49,-289.526 1189.17,-285.99 1181.85,-276.223 1177.49,-289.526"/>
</a>
</g>
</g>
<!-- PAKNEGDIFPRVKN&#45;&gt;PAKNEGDIFTOTKN -->
<g id="edge18" class="edge"><title>PAKNEGDIFPRVKN-&gt;PAKNEGDIFTOTKN</title>
<g id="a_edge18"><a xlink:href="bogus" xlink:title=" PAKNEGDIFPRVKN -&gt; PAKNEGDIFTOTKN Min. att. -5%  max: 94%">
<path fill="none" stroke="black" stroke-width="8" d="M934.891,-481.984C1000.91,-456.345 1121.82,-409.391 1192.82,-381.816"/>
<polygon fill="black" stroke="black" stroke-width="8" points="1195.71,-388.203 1202.5,-378.058 1190.65,-375.152 1195.71,-388.203"/>
</a>
</g>
</g>
<!-- PAKNEGDIFGOVKN&#45;&gt;PAKNEGDIFTOTKN -->
<g id="edge12" class="edge"><title>PAKNEGDIFGOVKN-&gt;PAKNEGDIFTOTKN</title>
<g id="a_edge12"><a xlink:href="bogus" xlink:title=" PAKNEGDIFGOVKN -&gt; PAKNEGDIFTOTKN Min. att. 6%  max: 105%">
<path fill="none" stroke="black" stroke-width="8" d="M1026.59,-363.085C1044.95,-362.83 1063.92,-362.567 1082.69,-362.307"/>
<polygon fill="black" stroke="black" stroke-width="8" points="1082.88,-369.305 1092.79,-362.167 1082.69,-355.306 1082.88,-369.305"/>
</a>
</g>
</g>
<!-- PAKNECONPRVTXN&#45;&gt;PAKNECONPRVTKN -->
<g id="edge13" class="edge"><title>PAKNECONPRVTXN-&gt;PAKNECONPRVTKN</title>
<g id="a_edge13"><a xlink:href="bogus" xlink:title=" PAKNECONPRVTXN -&gt; PAKNECONPRVTKN Min. att. -5708%  max: 593%">
<path fill="none" stroke="black" stroke-width="8" d="M635.688,-148.607C772.556,-149.363 980.851,-154.256 1057,-176 1074.6,-181.026 1075.74,-189.909 1093,-196 1099.44,-198.274 1106.11,-200.361 1112.89,-202.275"/>
<polygon fill="black" stroke="black" stroke-width="8" points="1111.42,-209.129 1122.89,-204.959 1115.04,-195.607 1111.42,-209.129"/>
</a>
</g>
</g>
<!-- PAKNECONPRVTXN&#45;&gt;PAKNECONGOVTXN -->
<g id="edge17" class="edge"><title>PAKNECONPRVTXN-&gt;PAKNECONGOVTXN</title>
<g id="a_edge17"><a xlink:href="bogus" xlink:title=" PAKNECONPRVTXN -&gt; PAKNECONGOVTXN Min. att. 26%  max: 100%">
<path fill="none" stroke="black" stroke-width="8" d="M634.631,-167.019C671.781,-172.326 712.589,-178.156 750.339,-183.548"/>
<polygon fill="black" stroke="black" stroke-width="8" points="749.491,-190.498 760.381,-184.983 751.471,-176.639 749.491,-190.498"/>
</a>
</g>
</g>
<!-- PAKNECONPRVTXN&#45;&gt;PAKFMLBLPOLYXN -->
<g id="edge31" class="edge"><title>PAKNECONPRVTXN-&gt;PAKFMLBLPOLYXN</title>
<g id="a_edge31"><a xlink:href="bogus" xlink:title=" PAKNECONPRVTXN -&gt; PAKFMLBLPOLYXN Min. att. -94%  max: 1459%">
<path fill="none" stroke="black" stroke-width="8" d="M635.683,-136.214C679.941,-131.765 729.281,-126.805 772.411,-122.469"/>
<polygon fill="black" stroke="black" stroke-width="8" points="773.122,-129.433 782.371,-121.468 771.721,-115.503 773.122,-129.433"/>
</a>
</g>
</g>
<!-- PAKNYWRTTOTLCN -->
<g id="node22" class="node"><title>PAKNYWRTTOTLCN</title>
<g id="a_node22"><a xlink:title="Wages
FRML  &lt;&gt; PAKNYWRTTOTLCN = (PAKNYWBINFMSH**PAKINFCES*(PAKNYWRTINFMCN)**(1-PAKINFCES)+PAKNYWBFORMSH**PAKINFCES*(PAKNYWRTFORMCN*(1+PAKGGREVDRCTXN/100))**(1-PAKINFCES))**(1/(1-PAKINFCES)) $">
<polygon fill="#63b8ff" stroke="black" points="602.5,-275 412.5,-275 412.5,-239 602.5,-239 602.5,-275"/>
<text text-anchor="start" x="418.5" y="-252.8" font-family="Times New Roman,serif" font-size="14.00" fill="blue">PAKNYWRTTOTLCN:Wages</text>
</a>
</g>
</g>
<!-- PAKNYWRTTOTLCN&#45;&gt;PAKNYYWBTOTLCN -->
<g id="edge14" class="edge"><title>PAKNYWRTTOTLCN-&gt;PAKNYYWBTOTLCN</title>
<g id="a_edge14"><a xlink:href="bogus" xlink:title=" PAKNYWRTTOTLCN -&gt; PAKNYYWBTOTLCN Min. att. 16%  max: 106%">
<path fill="none" stroke="black" stroke-width="8" d="M602.91,-257C642.166,-257 688.757,-257 732.713,-257"/>
<polygon fill="black" stroke="black" stroke-width="8" points="732.932,-264 742.932,-257 732.932,-250 732.932,-264"/>
</a>
</g>
</g>
<!-- PAKNECONOTHRXN -->
<g id="node23" class="node"><title>PAKNECONOTHRXN</title>
<g id="a_node23"><a xlink:title="Non-Energy Consumption
FRML &lt;Z,EXO&gt; PAKNECONOTHRXN = (PAKNECONOTHRXN(-1)*EXP(-PAKNECONOTHRXN_A+ (0.598859116610832*((LOG(PAKNYGDPFCSTXN))-(LOG(PAKNYGDPFCSTXN(-1))))+((PAKGGREVGNFSXN/100)-(PAKGGREVGNFSXN(-1)/100))+(1-0.598859116610832)*((LOG(PAKNEIMPGNFSXN))-(LOG(PAKNEIMPGNFSXN(-1))))+0.2*PAKNYGDPGAP_/100) )) * (1-PAKNECONOTHRXN_D)+ PAKNECONOTHRXN_X*PAKNECONOTHRXN_D  $">
<polygon fill="#63b8ff" stroke="black" points="297,-140 0,-140 0,-104 297,-104 297,-140"/>
<text text-anchor="start" x="6.5" y="-117.8" font-family="Times New Roman,serif" font-size="14.00" fill="blue">PAKNECONOTHRXN:Non-Energy Consumption</text>
</a>
</g>
</g>
<!-- PAKNECONOTHRXN&#45;&gt;PAKNECONPRVTXN -->
<g id="edge11" class="edge"><title>PAKNECONOTHRXN-&gt;PAKNECONPRVTXN</title>
<g id="a_edge11"><a xlink:href="bogus" xlink:title=" PAKNECONOTHRXN -&gt; PAKNECONPRVTXN Min. att. 71%  max: 99%">
<path fill="none" stroke="black" stroke-width="8" d="M297.025,-133.157C320.958,-134.967 345.658,-136.835 369.331,-138.626"/>
<polygon fill="black" stroke="black" stroke-width="8" points="368.909,-145.614 379.409,-139.388 369.965,-131.654 368.909,-145.614"/>
</a>
</g>
</g>
<!-- PAKNYGDPFCSTXN&#45;&gt;PAKNEIMPGNFSKN -->
<g id="edge16" class="edge"><title>PAKNYGDPFCSTXN-&gt;PAKNEIMPGNFSKN</title>
<g id="a_edge16"><a xlink:href="bogus" xlink:title=" PAKNYGDPFCSTXN -&gt; PAKNEIMPGNFSKN Min. att. -1112%  max: 296%">
<path fill="none" stroke="black" stroke-width="8" d="M1014.16,-59.6666C1119.44,-63.06 1273.52,-70.7297 1407,-88 1522.58,-102.954 1654.25,-131.292 1737.59,-150.656"/>
<polygon fill="black" stroke="black" stroke-width="8" points="1736.18,-157.514 1747.51,-152.971 1739.36,-143.881 1736.18,-157.514"/>
</a>
</g>
</g>
<!-- PAKNEGDIFGOVXN -->
<g id="node26" class="node"><title>PAKNEGDIFGOVXN</title>
<g id="a_node26"><a xlink:title="Government Investment
FRML &lt;Z,EXO&gt; PAKNEGDIFGOVXN = (PAKNEGDIFGOVXN(-1)*EXP(-PAKNEGDIFGOVXN_A+ (-0.480254922468272*(LOG(PAKNEGDIFGOVXN(-1))-LOG(PAKNECONPRVTXN(-1)))+0.00720714576835064+0.0731599680348391*((LOG(PAKNEGDIFGOVXN(-1)))-(LOG(PAKNEGDIFGOVXN(-2))))+(1-0.0731599680348391)*((LOG(PAKNECONPRVTXN))-(LOG(PAKNECONPRVTXN(-1))))) )) * (1-PAKNEGDIFGOVXN_D)+ PAKNEGDIFGOVXN_X*PAKNEGDIFGOVXN_D  $">
<polygon fill="#63b8ff" stroke="black" points="646.5,-437 368.5,-437 368.5,-401 646.5,-401 646.5,-437"/>
<text text-anchor="start" x="374.5" y="-414.8" font-family="Times New Roman,serif" font-size="14.00" fill="blue">PAKNEGDIFGOVXN:Government Investment</text>
</a>
</g>
</g>
<!-- PAKNEGDIFGOVXN&#45;&gt;PAKNEGDIFGOVKN -->
<g id="edge23" class="edge"><title>PAKNEGDIFGOVXN-&gt;PAKNEGDIFGOVKN</title>
<g id="a_edge23"><a xlink:href="bogus" xlink:title=" PAKNEGDIFGOVXN -&gt; PAKNEGDIFGOVKN Min. att. -892%  max: -32%">
<path fill="none" stroke="black" stroke-width="8" d="M634.631,-400.981C671.781,-395.674 712.589,-389.844 750.339,-384.452"/>
<polygon fill="black" stroke="black" stroke-width="8" points="751.471,-391.361 760.381,-383.017 749.491,-377.502 751.471,-391.361"/>
</a>
</g>
</g>
<!-- PAKFMLBLPOLYXN&#45;&gt;PAKNECONPRVTKN -->
<g id="edge27" class="edge"><title>PAKFMLBLPOLYXN-&gt;PAKNECONPRVTKN</title>
<g id="a_edge27"><a xlink:href="bogus" xlink:title=" PAKFMLBLPOLYXN -&gt; PAKNECONPRVTKN Min. att. -160%  max: 20%">
<path fill="none" stroke="black" stroke-width="8" d="M992.766,-117.698C1015.25,-122.612 1037.96,-130.499 1057,-143 1080.8,-158.627 1069.07,-180.568 1093,-196 1095.36,-197.519 1097.77,-198.959 1100.24,-200.325"/>
<polygon fill="black" stroke="black" stroke-width="8" points="1097.29,-206.681 1109.38,-204.954 1103.62,-194.191 1097.29,-206.681"/>
</a>
</g>
</g>
<!-- PAKPSTAR -->
<g id="node28" class="node"><title>PAKPSTAR</title>
<g id="a_node28"><a xlink:title="Nominal marginal cost
FRML  &lt;&gt; PAKPSTAR = (1/PAKNYGDPTFP)*((PAKNEKRTTOTLCN/(1-PAKNYYWBTOTLCN_))**(1-PAKNYYWBTOTLCN_))*((PAKNYWRTTOTLCN/PAKNYYWBTOTLCN_)**PAKNYYWBTOTLCN_) $">
<polygon fill="#63b8ff" stroke="black" points="614,-59 401,-59 401,-23 614,-23 614,-59"/>
<text text-anchor="start" x="407.5" y="-36.8" font-family="Times New Roman,serif" font-size="14.00" fill="blue">PAKPSTAR:Nominal marginal cost</text>
</a>
</g>
</g>
<!-- PAKPSTAR&#45;&gt;PAKNYGDPFCSTXN -->
<g id="edge34" class="edge"><title>PAKPSTAR-&gt;PAKNYGDPFCSTXN</title>
<g id="a_edge34"><a xlink:href="bogus" xlink:title=" PAKPSTAR -&gt; PAKNYGDPFCSTXN Min. att. -20%  max: 2191%">
<path fill="none" stroke="black" stroke-width="8" d="M614.045,-45.4675C656.386,-47.2597 705.719,-49.3479 750.68,-51.251"/>
<polygon fill="black" stroke="black" stroke-width="8" points="750.514,-58.2502 760.801,-51.6794 751.107,-44.2627 750.514,-58.2502"/>
</a>
</g>
</g>
<!-- PAKNECONGOVTCN&#45;&gt;PAKNECONGOVTKN -->
<g id="edge15" class="edge"><title>PAKNECONGOVTCN-&gt;PAKNECONGOVTKN</title>
<g id="a_edge15"><a xlink:href="bogus" xlink:title=" PAKNECONGOVTCN -&gt; PAKNECONGOVTKN Min. att. 117%  max: 963%">
<path fill="none" stroke="black" stroke-width="8" d="M1057.14,-307.725C1068.22,-307.51 1079.37,-307.294 1090.4,-307.08"/>
<polygon fill="black" stroke="black" stroke-width="8" points="1090.63,-314.077 1100.49,-306.884 1090.36,-300.079 1090.63,-314.077"/>
</a>
</g>
</g>
</g>
</svg>