<svg xmlns="http://www.w3.org/2000/svg" xmlns:xlink="http://www.w3.org/1999/xlink" width="432pt" height="178pt" viewBox="0.00 0.00 432.00 178.04">
<g id="graph0" class="graph" transform="scale(0.216324 0.216324) rotate(0) translate(4 819)">
<title>TD</title>
<polygon fill="white" stroke="none" points="-4,4 -4,-819 1993,-819 1993,4 -4,4"/>
<text text-anchor="middle" x="994.5" y="-7.8" font-family="Times New Roman,serif" font-size="14.00">PAKNECONPRVTKN</text>
<!-- PAKNYGDPGAP_ -->
<g id="node1" class="node">
<title>PAKNYGDPGAP_</title>
<g id="a_node1"><a xlink:title="Output Gap (% of Potential GDP)
FRML  &lt;&gt; PAKNYGDPGAP_ = ((PAKNYGDPMKTPKN/PAKNYGDPPOTLKN-1)*100) $">
<polygon fill="#63b8ff" stroke="black" points="631,-198 322,-198 322,-162 631,-162 631,-198"/>
<text text-anchor="start" x="328.5" y="-175.8" font-family="Times New Roman,serif" font-size="14.00" fill="blue">PAKNYGDPGAP_:Output Gap (% of Potential GDP)</text>
</a>
</g>
</g>
<!-- PAKLMEMPTOTLCN -->
<g id="node19" class="node">
<title>PAKLMEMPTOTLCN</title>
<g id="a_node19"><a xlink:title="Employment
FRML &lt;Z,EXO&gt; PAKLMEMPTOTLCN = (PAKLMEMPTOTLCN(-1)*EXP(-PAKLMEMPTOTLCN_A+ (-0.345624644563667*(LOG(PAKLMEMPTOTLCN(-1))-LOG(PAKLMEMPSTRLCN(-1)))-0.1*(((LOG(PAKNYWRTTOTLCN/PAKNYGDPFCSTXN))-(LOG(PAKNYWRTTOTLCN(-1)/PAKNYGDPFCSTXN(-1))))-((LOG(PAKNYGDPPOTLKN/PAKLMEMPSTRLCN))-(LOG(PAKNYGDPPOTLKN(-1)/PAKLMEMPSTRLCN(-1)))))-0.0011790007645121+((LOG(PAKLMEMPSTRLCN))-(LOG(PAKLMEMPSTRLCN(-1))))+0.175412878170024*PAKNYGDPGAP_/100+0.0369790799942338*DURING_2010) )) * (1-PAKLMEMPTOTLCN_D)+ PAKLMEMPTOTLCN_X*PAKLMEMPTOTLCN_D  $">
<polygon fill="#63b8ff" stroke="black" points="899.5,-290 682.5,-290 682.5,-254 899.5,-254 899.5,-290"/>
<text text-anchor="start" x="689" y="-267.8" font-family="Times New Roman,serif" font-size="14.00" fill="blue">PAKLMEMPTOTLCN:Employment</text>
</a>
</g>
</g>
<!-- PAKNYGDPGAP_&#45;&gt;PAKLMEMPTOTLCN -->
<g id="edge21" class="edge">
<title>PAKNYGDPGAP_-&gt;PAKLMEMPTOTLCN</title>
<g id="a_edge21"><a xlink:href="bogus" xlink:title=" PAKNYGDPGAP_ -&gt; PAKLMEMPTOTLCN Min. att. -362%  max: 147%">
<path fill="none" stroke="black" stroke-width="8" d="M575.51,-198.06C594.06,-202.15 613.23,-206.83 631,-212 667.3,-222.56 707.09,-237.58 737.79,-249.95"/>
<polygon fill="black" stroke="black" stroke-width="8" points="735.52,-256.59 747.42,-253.87 740.79,-243.62 735.52,-256.59"/>
</a>
</g>
</g>
<!-- PAKFMLBLPOLYXN -->
<g id="node30" class="node">
<title>PAKFMLBLPOLYXN</title>
<g id="a_node30"><a xlink:title="Policy Rate
FRML &lt;Z,EXO&gt; PAKFMLBLPOLYXN = (-100*PAKFMLBLPOLYXN_A+100* (0.905129162122953*PAKFMLBLPOLYXN(-1)/100+(1-0.905129162122953)*(PAKMPPOLNATRXN/100+1.2*(((LOG(PAKNECONPRVTXN))-(LOG(PAKNECONPRVTXN(-1))))-PAKINFLEXPT/100)+0.5*PAKNYGDPGAP_/100)) ) * (1-PAKFMLBLPOLYXN_D)+ PAKFMLBLPOLYXN_X*PAKFMLBLPOLYXN_D  $">
<polygon fill="#63b8ff" stroke="black" points="1196,-387 991,-387 991,-351 1196,-351 1196,-387"/>
<text text-anchor="start" x="997.5" y="-364.8" font-family="Times New Roman,serif" font-size="14.00" fill="blue">PAKFMLBLPOLYXN:Policy Rate</text>
</a>
</g>
</g>
<!-- PAKNYGDPGAP_&#45;&gt;PAKFMLBLPOLYXN -->
<g id="edge16" class="edge">
<title>PAKNYGDPGAP_-&gt;PAKFMLBLPOLYXN</title>
<g id="a_edge16"><a xlink:href="bogus" xlink:title=" PAKNYGDPGAP_ -&gt; PAKFMLBLPOLYXN Min. att. -15%  max: 83%">
<path fill="none" stroke="black" stroke-width="8" d="M631.11,-166.04C722.85,-165.92 836.43,-181.27 915,-245 950.71,-273.97 915.89,-312.31 951,-342 959.86,-349.49 970.16,-355.16 981.08,-359.41"/>
<polygon fill="black" stroke="black" stroke-width="8" points="979.08,-366.12 990.82,-362.79 983.67,-352.9 979.08,-366.12"/>
</a>
</g>
</g>
<!-- PAKSMINDMNGSKN -->
<g id="node2" class="node">
<title>PAKSMINDMNGSKN</title>
<g id="a_node2"><a xlink:title="PAKSMINDMNGSKN
FRML  &lt;&gt; PAKSMINDMNGSKN = ((1+6.96158341862144)*(0.0132800565666619*PAKNECONPRVTKN+0*PAKNECONGOVTKN+0*PAKNEGDIFTOTKN+0.00704674623894759*PAKNEEXPGNFSKN+0.024122890632682*PAKNEGDISTKBKN)-0.134221966110302*PAKNEIMPGNFSKN-0.500981557895139*PAKNYTAXNINDKN-123652.869264758)/(1+0.200800622280983) $">
<polygon fill="#63b8ff" stroke="black" points="1860.5,-653 1714.5,-653 1714.5,-617 1860.5,-617 1860.5,-653"/>
<text text-anchor="start" x="1720.5" y="-630.8" font-family="Times New Roman,serif" font-size="14.00" fill="blue">PAKSMINDMNGSKN:</text>
</a>
</g>
</g>
<!-- PAKSMENGTOTLKN -->
<g id="node3" class="node">
<title>PAKSMENGTOTLKN</title>
<g id="a_node3"><a xlink:title="PAKSMENGTOTLKN
FRML  &lt;&gt; PAKSMENGTOTLKN = ((1+1.65868473220397)*(0.0775261497897936*PAKNECONPRVTKN+0*PAKNECONGOVTKN+0*PAKNEGDIFTOTKN+0.0217448978257548*PAKNEEXPGNFSKN+0.0458991644104248*PAKNEGDISTKBKN)-0.11894699850705*PAKNEIMPGNFSKN--0.50579180838529*PAKNYTAXNINDKN-0)/(1+5.65663938581514) $">
<polygon fill="#63b8ff" stroke="black" points="1860,-599 1715,-599 1715,-563 1860,-563 1860,-599"/>
<text text-anchor="start" x="1721.5" y="-576.8" font-family="Times New Roman,serif" font-size="14.00" fill="blue">PAKSMENGTOTLKN:</text>
</a>
</g>
</g>
<!-- PAKNECONPRVTKN -->
<g id="node4" class="node">
<title>PAKNECONPRVTKN</title>
<g id="a_node4"><a xlink:title="Household Consumption
FRML &lt;Z,EXO&gt; PAKNECONPRVTKN = (PAKNECONPRVTKN(-1)*EXP(-PAKNECONPRVTKN_A+ (-0.2*(LOG(PAKNECONPRVTKN(-1))-LOG((PAKNYYWBTOTLCN(-1)*(1-PAKGGREVDRCTXN(-1)/100))/PAKNECONPRVTXN(-1)))+1*((LOG((PAKNYYWBTOTLCN*(1-PAKGGREVDRCTXN/100))/PAKNECONPRVTXN))-(LOG((PAKNYYWBTOTLCN(-1)*(1-PAKGGREVDRCTXN(-1)/100))/PAKNECONPRVTXN(-1))))+0.0303228629698929+0.0163839011059956*DURING_2010-0.3*(PAKFMLBLPOLYXN/100-((LOG(PAKNECONPRVTXN))-(LOG(PAKNECONPRVTXN(-1)))))) )) * (1-PAKNECONPRVTKN_D)+ PAKNECONPRVTKN_X*PAKNECONPRVTKN_D  $">
<polygon fill="red" stroke="black" points="1550,-410 1272,-410 1272,-374 1550,-374 1550,-410"/>
<text text-anchor="start" x="1278" y="-387.8" font-family="Times New Roman,serif" font-size="14.00" fill="blue">PAKNECONPRVTKN:Household Consumption</text>
</a>
</g>
</g>
<!-- PAKNECONPRVTKN&#45;&gt;PAKSMINDMNGSKN -->
<g id="edge1" class="edge">
<title>PAKNECONPRVTKN-&gt;PAKSMINDMNGSKN</title>
<g id="a_edge1"><a xlink:href="bogus" xlink:title=" PAKNECONPRVTKN -&gt; PAKSMINDMNGSKN Min. att. -1229%  max: 1716%">
<path fill="none" stroke="black" stroke-width="8" d="M1420.49,-410.08C1441.62,-452.83 1501.05,-560.12 1586,-608 1621.53,-628.03 1666.08,-635.44 1704.16,-637.56"/>
<polygon fill="black" stroke="black" stroke-width="8" points="1703.9,-644.56 1714.2,-638.01 1704.52,-630.57 1703.9,-644.56"/>
</a>
</g>
</g>
<!-- PAKNECONPRVTKN&#45;&gt;PAKSMENGTOTLKN -->
<g id="edge33" class="edge">
<title>PAKNECONPRVTKN-&gt;PAKSMENGTOTLKN</title>
<g id="a_edge33"><a xlink:href="bogus" xlink:title=" PAKNECONPRVTKN -&gt; PAKSMENGTOTLKN Min. att. -14%  max: 2186%">
<path fill="none" stroke="black" stroke-width="8" d="M1425.14,-410.15C1451.34,-444.77 1513.8,-519.85 1586,-554 1622.57,-571.3 1666.81,-578.49 1704.43,-581.18"/>
<polygon fill="black" stroke="black" stroke-width="8" points="1704.44,-588.19 1714.85,-581.82 1705.3,-574.22 1704.44,-588.19"/>
</a>
</g>
</g>
<!-- PAKSMSRVFINSKN -->
<g id="node5" class="node">
<title>PAKSMSRVFINSKN</title>
<g id="a_node5"><a xlink:title="PAKSMSRVFINSKN
FRML  &lt;&gt; PAKSMSRVFINSKN = ((1+1.04148314760779)*(0.0520379651885469*PAKNECONPRVTKN+0*PAKNECONGOVTKN+0*PAKNEGDIFTOTKN+0.00879145012359898*PAKNEEXPGNFSKN+0*PAKNEGDISTKBKN)-0.00594416979264236*PAKNEIMPGNFSKN-0.000103762679145856*PAKNYTAXNINDKN-0)/(1+0.24687745523084) $">
<polygon fill="#63b8ff" stroke="black" points="1856,-545 1719,-545 1719,-509 1856,-509 1856,-545"/>
<text text-anchor="start" x="1725.5" y="-522.8" font-family="Times New Roman,serif" font-size="14.00" fill="blue">PAKSMSRVFINSKN:</text>
</a>
</g>
</g>
<!-- PAKNECONPRVTKN&#45;&gt;PAKSMSRVFINSKN -->
<g id="edge27" class="edge">
<title>PAKNECONPRVTKN-&gt;PAKSMSRVFINSKN</title>
<g id="a_edge27"><a xlink:href="bogus" xlink:title=" PAKNECONPRVTKN -&gt; PAKSMSRVFINSKN Min. att. -104%  max: 125%">
<path fill="none" stroke="black" stroke-width="8" d="M1434.03,-410.01C1465.58,-434.76 1526.44,-478.62 1586,-500 1625.15,-514.05 1670.98,-520.88 1708.93,-524.16"/>
<polygon fill="black" stroke="black" stroke-width="8" points="1708.38,-531.14 1718.91,-524.96 1709.5,-517.19 1708.38,-531.14"/>
</a>
</g>
</g>
<!-- PAKNECONPRVTKN_FITTED -->
<g id="node7" class="node">
<title>PAKNECONPRVTKN_FITTED</title>
<g id="a_node7"><a xlink:title="Fitted  value:Household Consumption
FRML &lt;FIT&gt; PAKNECONPRVTKN_FITTED = PAKNECONPRVTKN(-1)*EXP( (-0.2*(LOG(PAKNECONPRVTKN(-1))-LOG((PAKNYYWBTOTLCN(-1)*(1-PAKGGREVDRCTXN(-1)/100))/PAKNECONPRVTXN(-1)))+1*((LOG((PAKNYYWBTOTLCN*(1-PAKGGREVDRCTXN/100))/PAKNECONPRVTXN))-(LOG((PAKNYYWBTOTLCN(-1)*(1-PAKGGREVDRCTXN(-1)/100))/PAKNECONPRVTXN(-1))))+0.0303228629698929+0.0163839011059956*DURING_2010-0.3*(PAKFMLBLPOLYXN/100-((LOG(PAKNECONPRVTXN))-(LOG(PAKNECONPRVTXN(-1)))))) ) $">
<polygon fill="#63b8ff" stroke="black" points="1989,-491 1586,-491 1586,-455 1989,-455 1989,-491"/>
<text text-anchor="start" x="1592.5" y="-468.8" font-family="Times New Roman,serif" font-size="14.00" fill="blue">PAKNECONPRVTKN_FITTED:Fitted  value:Household Consumption</text>
</a>
</g>
</g>
<!-- PAKNECONPRVTKN&#45;&gt;PAKNECONPRVTKN_FITTED -->
<g id="edge9" class="edge">
<title>PAKNECONPRVTKN-&gt;PAKNECONPRVTKN_FITTED</title>
<g id="a_edge9"><a xlink:href="bogus" xlink:title=" PAKNECONPRVTKN -&gt; PAKNECONPRVTKN_FITTED Min. att. -786%  max: 175%">
<path fill="none" stroke="black" stroke-width="8" d="M1462.41,-410.1C1496.83,-421.85 1543.69,-436.65 1586,-446 1597.91,-448.63 1610.27,-451.04 1622.75,-453.25"/>
<polygon fill="black" stroke="black" stroke-width="8" points="1621.74,-460.18 1632.78,-454.98 1624.11,-446.38 1621.74,-460.18"/>
</a>
</g>
</g>
<!-- PAKSMAGRFSTYKN -->
<g id="node9" class="node">
<title>PAKSMAGRFSTYKN</title>
<g id="a_node9"><a xlink:title="PAKSMAGRFSTYKN
FRML  &lt;&gt; PAKSMAGRFSTYKN = ((1+0.195965019358753)*(0.010131919293849*PAKNECONPRVTKN+0*PAKNECONGOVTKN+0*PAKNEGDIFTOTKN+0.000136733767007103*PAKNEEXPGNFSKN+0.0199955288980741*PAKNEGDISTKBKN)-0.00076829563200478*PAKNEIMPGNFSKN-0.00172030587371022*PAKNYTAXNINDKN-65421)/(1+0.319587584852584) $">
<polygon fill="#63b8ff" stroke="black" points="1859.5,-437 1715.5,-437 1715.5,-401 1859.5,-401 1859.5,-437"/>
<text text-anchor="start" x="1721.5" y="-414.8" font-family="Times New Roman,serif" font-size="14.00" fill="blue">PAKSMAGRFSTYKN:</text>
</a>
</g>
</g>
<!-- PAKNECONPRVTKN&#45;&gt;PAKSMAGRFSTYKN -->
<g id="edge11" class="edge">
<title>PAKNECONPRVTKN-&gt;PAKSMAGRFSTYKN</title>
<g id="a_edge11"><a xlink:href="bogus" xlink:title=" PAKNECONPRVTKN -&gt; PAKSMAGRFSTYKN Min. att. 96%  max: 371%">
<path fill="none" stroke="black" stroke-width="8" d="M1550.12,-401.96C1602.35,-405.72 1660.07,-409.88 1705.39,-413.15"/>
<polygon fill="black" stroke="black" stroke-width="8" points="1704.98,-420.14 1715.46,-413.88 1705.99,-406.18 1704.98,-420.14"/>
</a>
</g>
</g>
<!-- PAKSMAGRFSNGKN -->
<g id="node11" class="node">
<title>PAKSMAGRFSNGKN</title>
<g id="a_node11"><a xlink:title="PAKSMAGRFSNGKN
FRML  &lt;&gt; PAKSMAGRFSNGKN = ((1+1.92407325889309)*(0.00246195499563977*PAKNECONPRVTKN+0*PAKNECONGOVTKN+0*PAKNEGDIFTOTKN+0.00130433854799597*PAKNEEXPGNFSKN+0.00497657560072267*PAKNEGDISTKBKN)-1.14989260682794E-05*PAKNEIMPGNFSKN-2.46467171367829E-07*PAKNYTAXNINDKN-26993)/(1+0.506095544048804) $">
<polygon fill="#63b8ff" stroke="black" points="1860,-383 1715,-383 1715,-347 1860,-347 1860,-383"/>
<text text-anchor="start" x="1721.5" y="-360.8" font-family="Times New Roman,serif" font-size="14.00" fill="blue">PAKSMAGRFSNGKN:</text>
</a>
</g>
</g>
<!-- PAKNECONPRVTKN&#45;&gt;PAKSMAGRFSNGKN -->
<g id="edge29" class="edge">
<title>PAKNECONPRVTKN-&gt;PAKSMAGRFSNGKN</title>
<g id="a_edge29"><a xlink:href="bogus" xlink:title=" PAKNECONPRVTKN -&gt; PAKSMAGRFSNGKN Min. att. -29%  max: 170%">
<path fill="none" stroke="black" stroke-width="8" d="M1550.12,-382.04C1602.16,-378.29 1659.64,-374.15 1704.89,-370.88"/>
<polygon fill="black" stroke="black" stroke-width="8" points="1705.47,-377.86 1714.94,-370.16 1704.46,-363.9 1705.47,-377.86"/>
</a>
</g>
</g>
<!-- PAKNYGDPMKTPKN -->
<g id="node12" class="node">
<title>PAKNYGDPMKTPKN</title>
<g id="a_node12"><a xlink:title="GDP Expenditure side at market prices
FRML  &lt;&gt; PAKNYGDPMKTPKN = PAKNECONPRVTKN+PAKNECONGOVTKN+PAKNEGDIFTOTKN+PAKNEGDISTKBKN+PAKNEEXPGNFSKN-PAKNEIMPGNFSKN+PAKNYGDPDISCKN+PAKADAP*PAKDISPREPKN $">
<polygon fill="#63b8ff" stroke="black" points="1968,-59 1607,-59 1607,-23 1968,-23 1968,-59"/>
<text text-anchor="start" x="1613.5" y="-36.8" font-family="Times New Roman,serif" font-size="14.00" fill="blue">PAKNYGDPMKTPKN:GDP Expenditure side at market prices</text>
</a>
</g>
</g>
<!-- PAKNECONPRVTKN&#45;&gt;PAKNYGDPMKTPKN -->
<g id="edge28" class="edge">
<title>PAKNECONPRVTKN-&gt;PAKNYGDPMKTPKN</title>
<g id="a_edge28"><a xlink:href="bogus" xlink:title=" PAKNECONPRVTKN -&gt; PAKNYGDPMKTPKN Min. att. -1557%  max: 290%">
<path fill="none" stroke="black" stroke-width="8" d="M1422.28,-373.79C1445.53,-332.47 1503.73,-228.38 1550,-140 1566.6,-108.3 1556.89,-88.8 1586,-68 1589.8,-65.28 1593.75,-62.78 1597.81,-60.47"/>
<polygon fill="black" stroke="black" stroke-width="8" points="1601.28,-66.55 1606.9,-55.71 1594.79,-54.15 1601.28,-66.55"/>
</a>
</g>
</g>
<!-- PAKSMINDOTHRTKN -->
<g id="node16" class="node">
<title>PAKSMINDOTHRTKN</title>
<g id="a_node16"><a xlink:title="PAKSMINDOTHRTKN
FRML  &lt;&gt; PAKSMINDOTHRTKN = ((1+0.483473985412524)*(0.40172973397176*PAKNECONPRVTKN+0*PAKNECONGOVTKN+0.560459287907094*PAKNEGDIFTOTKN+0.719299486591763*PAKNEEXPGNFSKN+0.620970563578771*PAKNEGDISTKBKN)-0.606734386430279*PAKNEIMPGNFSKN-0.866045585295928*PAKNYTAXNINDKN-2983275.63714814)/(1+2.46379868577176) $">
<polygon fill="#63b8ff" stroke="black" points="1863,-329 1712,-329 1712,-293 1863,-293 1863,-329"/>
<text text-anchor="start" x="1718.5" y="-306.8" font-family="Times New Roman,serif" font-size="14.00" fill="blue">PAKSMINDOTHRTKN:</text>
</a>
</g>
</g>
<!-- PAKNECONPRVTKN&#45;&gt;PAKSMINDOTHRTKN -->
<g id="edge17" class="edge">
<title>PAKNECONPRVTKN-&gt;PAKSMINDOTHRTKN</title>
<g id="a_edge17"><a xlink:href="bogus" xlink:title=" PAKNECONPRVTKN -&gt; PAKSMINDOTHRTKN Min. att. -11779%  max: 971%">
<path fill="none" stroke="black" stroke-width="8" d="M1462.41,-373.9C1496.83,-362.15 1543.69,-347.35 1586,-338 1623.62,-329.69 1665.81,-323.55 1701.75,-319.23"/>
<polygon fill="black" stroke="black" stroke-width="8" points="1702.59,-326.18 1711.71,-318.07 1700.96,-312.28 1702.59,-326.18"/>
</a>
</g>
</g>
<!-- PAKNECONPRVTCN -->
<g id="node18" class="node">
<title>PAKNECONPRVTCN</title>
<g id="a_node18"><a xlink:title="Household demand
FRML  &lt;&gt; PAKNECONPRVTCN = PAKNECONPRVTKN*PAKNECONPRVTXN $">
<polygon fill="#63b8ff" stroke="black" points="1911,-275 1664,-275 1664,-239 1911,-239 1911,-275"/>
<text text-anchor="start" x="1670.5" y="-252.8" font-family="Times New Roman,serif" font-size="14.00" fill="blue">PAKNECONPRVTCN:Household demand</text>
</a>
</g>
</g>
<!-- PAKNECONPRVTKN&#45;&gt;PAKNECONPRVTCN -->
<g id="edge20" class="edge">
<title>PAKNECONPRVTKN-&gt;PAKNECONPRVTCN</title>
<g id="a_edge20"><a xlink:href="bogus" xlink:title=" PAKNECONPRVTKN -&gt; PAKNECONPRVTCN Min. att. -720%  max: 6450%">
<path fill="none" stroke="black" stroke-width="8" d="M1434.03,-373.99C1465.58,-349.24 1526.44,-305.38 1586,-284 1607.38,-276.32 1630.76,-270.8 1653.75,-266.84"/>
<polygon fill="black" stroke="black" stroke-width="8" points="1655.19,-273.7 1663.93,-265.18 1652.93,-259.88 1655.19,-273.7"/>
</a>
</g>
</g>
<!-- PAKNECONENGYKN -->
<g id="node22" class="node">
<title>PAKNECONENGYKN</title>
<g id="a_node22"><a xlink:title="Energy Consumption
FRML  &lt;&gt; PAKNECONENGYKN = PAKNECONENGYSH**(PAKCESENGYCON)*(PAKNECONPRVTKN*(PAKNECONPRVTXN/PAKNECONENGYXN)**(PAKCESENGYCON)) $">
<polygon fill="#63b8ff" stroke="black" points="1918.5,-221 1656.5,-221 1656.5,-185 1918.5,-185 1918.5,-221"/>
<text text-anchor="start" x="1662.5" y="-198.8" font-family="Times New Roman,serif" font-size="14.00" fill="blue">PAKNECONENGYKN:Energy Consumption</text>
</a>
</g>
</g>
<!-- PAKNECONPRVTKN&#45;&gt;PAKNECONENGYKN -->
<g id="edge23" class="edge">
<title>PAKNECONPRVTKN-&gt;PAKNECONENGYKN</title>
<g id="a_edge23"><a xlink:href="bogus" xlink:title=" PAKNECONPRVTKN -&gt; PAKNECONENGYKN Min. att. -699%  max: 3890%">
<path fill="none" stroke="black" stroke-width="8" d="M1425.14,-373.85C1451.34,-339.23 1513.8,-264.15 1586,-230 1604.78,-221.12 1625.58,-214.9 1646.46,-210.59"/>
<polygon fill="black" stroke="black" stroke-width="8" points="1647.89,-217.44 1656.39,-208.68 1645.24,-203.7 1647.89,-217.44"/>
</a>
</g>
</g>
<!-- PAKSMSRVHSNGKN -->
<g id="node23" class="node">
<title>PAKSMSRVHSNGKN</title>
<g id="a_node23"><a xlink:title="PAKSMSRVHSNGKN
FRML  &lt;&gt; PAKSMSRVHSNGKN = ((1+0.782809577554843)*(0.0647364660896117*PAKNECONPRVTKN+0*PAKNECONGOVTKN+0.00605333595533851*PAKNEGDIFTOTKN+0.03048358523237*PAKNEEXPGNFSKN+0*PAKNEGDISTKBKN)-0.0244768173208691*PAKNEIMPGNFSKN-0.0684093628903126*PAKNYTAXNINDKN-0)/(1+0.150771193398883) $">
<polygon fill="#63b8ff" stroke="black" points="1860,-167 1715,-167 1715,-131 1860,-131 1860,-167"/>
<text text-anchor="start" x="1721.5" y="-144.8" font-family="Times New Roman,serif" font-size="14.00" fill="blue">PAKSMSRVHSNGKN:</text>
</a>
</g>
</g>
<!-- PAKNECONPRVTKN&#45;&gt;PAKSMSRVHSNGKN -->
<g id="edge30" class="edge">
<title>PAKNECONPRVTKN-&gt;PAKSMSRVHSNGKN</title>
<g id="a_edge30"><a xlink:href="bogus" xlink:title=" PAKNECONPRVTKN -&gt; PAKSMSRVHSNGKN Min. att. 34%  max: 147%">
<path fill="none" stroke="black" stroke-width="8" d="M1420.49,-373.92C1441.62,-331.17 1501.05,-223.88 1586,-176 1621.67,-155.89 1666.43,-148.5 1704.61,-146.41"/>
<polygon fill="black" stroke="black" stroke-width="8" points="1704.99,-153.4 1714.68,-145.97 1704.38,-139.42 1704.99,-153.4"/>
</a>
</g>
</g>
<!-- PAKSMAGRCRPSKN -->
<g id="node25" class="node">
<title>PAKSMAGRCRPSKN</title>
<g id="a_node25"><a xlink:title="PAKSMAGRCRPSKN
FRML  &lt;&gt; PAKSMAGRCRPSKN = ((1+2.09928590574241)*(0.144287620838506*PAKNECONPRVTKN+0*PAKNECONGOVTKN+0*PAKNEGDIFTOTKN+0.0572678299039023*PAKNEEXPGNFSKN+0.267381669083985*PAKNEGDISTKBKN)-0.0736247088197363*PAKNEIMPGNFSKN-0.0407034395686347*PAKNYTAXNINDKN-906311)/(1+0.396041694659877) $">
<polygon fill="#63b8ff" stroke="black" points="1859.5,-113 1715.5,-113 1715.5,-77 1859.5,-77 1859.5,-113"/>
<text text-anchor="start" x="1721.5" y="-90.8" font-family="Times New Roman,serif" font-size="14.00" fill="blue">PAKSMAGRCRPSKN:</text>
</a>
</g>
</g>
<!-- PAKNECONPRVTKN&#45;&gt;PAKSMAGRCRPSKN -->
<g id="edge7" class="edge">
<title>PAKNECONPRVTKN-&gt;PAKSMAGRCRPSKN</title>
<g id="a_edge7"><a xlink:href="bogus" xlink:title=" PAKNECONPRVTKN -&gt; PAKSMAGRCRPSKN Min. att. -25%  max: 208%">
<path fill="none" stroke="black" stroke-width="8" d="M1417.73,-373.64C1434.42,-323.57 1488.1,-184.21 1586,-122 1620.97,-99.78 1666.28,-92.3 1704.98,-90.7"/>
<polygon fill="black" stroke="black" stroke-width="8" points="1705.39,-97.69 1715.18,-90.41 1704.99,-83.7 1705.39,-97.69"/>
</a>
</g>
</g>
<!-- PAKNEGDETTOTKN -->
<g id="node26" class="node">
<title>PAKNEGDETTOTKN</title>
<g id="a_node26"><a xlink:title="GDE
FRML  &lt;&gt; PAKNEGDETTOTKN = (PAKNECONPRVTKN+PAKNECONGOVTKN+PAKNEGDIFTOTKN+PAKNEGDISTKBKN+PAKNYGDPDISCKN) $">
<polygon fill="#63b8ff" stroke="black" points="1872.5,-815 1702.5,-815 1702.5,-779 1872.5,-779 1872.5,-815"/>
<text text-anchor="start" x="1708.5" y="-792.8" font-family="Times New Roman,serif" font-size="14.00" fill="blue">PAKNEGDETTOTKN:GDE</text>
</a>
</g>
</g>
<!-- PAKNECONPRVTKN&#45;&gt;PAKNEGDETTOTKN -->
<g id="edge4" class="edge">
<title>PAKNECONPRVTKN-&gt;PAKNEGDETTOTKN</title>
<g id="a_edge4"><a xlink:href="bogus" xlink:title=" PAKNECONPRVTKN -&gt; PAKNEGDETTOTKN Min. att. -2284%  max: 2484%">
<path fill="none" stroke="black" stroke-width="8" d="M1414.23,-410.01C1422.92,-471.91 1460.52,-677.23 1586,-770 1616.08,-792.24 1655.82,-800.64 1691.99,-802.88"/>
<polygon fill="black" stroke="black" stroke-width="8" points="1691.77,-809.88 1702.09,-803.36 1692.43,-795.89 1691.77,-809.88"/>
</a>
</g>
</g>
<!-- PAKNECONOTHRKN -->
<g id="node27" class="node">
<title>PAKNECONOTHRKN</title>
<g id="a_node27"><a xlink:title="Other Consumption
FRML  &lt;&gt; PAKNECONOTHRKN = PAKNECONOTHRSH**(PAKCESENGYCON)*(PAKNECONPRVTKN*(PAKNECONPRVTXN/PAKNECONOTHRXN)**(PAKCESENGYCON)) $">
<polygon fill="#63b8ff" stroke="black" points="1914,-761 1661,-761 1661,-725 1914,-725 1914,-761"/>
<text text-anchor="start" x="1667.5" y="-738.8" font-family="Times New Roman,serif" font-size="14.00" fill="blue">PAKNECONOTHRKN:Other Consumption</text>
</a>
</g>
</g>
<!-- PAKNECONPRVTKN&#45;&gt;PAKNECONOTHRKN -->
<g id="edge34" class="edge">
<title>PAKNECONPRVTKN-&gt;PAKNECONOTHRKN</title>
<g id="a_edge34"><a xlink:href="bogus" xlink:title=" PAKNECONPRVTKN -&gt; PAKNECONOTHRKN Min. att. -12063%  max: 323%">
<path fill="none" stroke="black" stroke-width="8" d="M1415.7,-410.19C1428.21,-466.49 1474.48,-638.73 1586,-716 1605.14,-729.26 1627.8,-737.46 1650.89,-742.34"/>
<polygon fill="black" stroke="black" stroke-width="8" points="1649.67,-749.23 1660.8,-744.23 1652.29,-735.48 1649.67,-749.23"/>
</a>
</g>
</g>
<!-- PAKSMSRVTRNSKN -->
<g id="node29" class="node">
<title>PAKSMSRVTRNSKN</title>
<g id="a_node29"><a xlink:title="PAKSMSRVTRNSKN
FRML  &lt;&gt; PAKSMSRVTRNSKN = ((1+0.301074862860981)*(0.204687752761289*PAKNECONPRVTKN+0*PAKNECONGOVTKN+0*PAKNEGDIFTOTKN+0.0551862611209703*PAKNEEXPGNFSKN+0*PAKNEGDISTKBKN)--0.0392641863572605*PAKNEIMPGNFSKN-0.0174996684619017*PAKNYTAXNINDKN-0)/(1+1.11680986862739) $">
<polygon fill="#63b8ff" stroke="black" points="1858.5,-707 1716.5,-707 1716.5,-671 1858.5,-671 1858.5,-707"/>
<text text-anchor="start" x="1722.5" y="-684.8" font-family="Times New Roman,serif" font-size="14.00" fill="blue">PAKSMSRVTRNSKN:</text>
</a>
</g>
</g>
<!-- PAKNECONPRVTKN&#45;&gt;PAKSMSRVTRNSKN -->
<g id="edge8" class="edge">
<title>PAKNECONPRVTKN-&gt;PAKSMSRVTRNSKN</title>
<g id="a_edge8"><a xlink:href="bogus" xlink:title=" PAKNECONPRVTKN -&gt; PAKSMSRVTRNSKN Min. att. 87%  max: 592%">
<path fill="none" stroke="black" stroke-width="8" d="M1417.73,-410.36C1434.42,-460.43 1488.1,-599.79 1586,-662 1621.24,-684.39 1666.99,-691.81 1705.88,-693.33"/>
<polygon fill="black" stroke="black" stroke-width="8" points="1705.95,-700.34 1716.13,-693.61 1706.32,-686.34 1705.95,-700.34"/>
</a>
</g>
</g>
<!-- PAKNYGDPFCSTXN -->
<g id="node6" class="node">
<title>PAKNYGDPFCSTXN</title>
<g id="a_node6"><a xlink:title="GDP at factor cost
FRML &lt;Z,EXO&gt; PAKNYGDPFCSTXN = (PAKNYGDPFCSTXN(-1)*EXP(-PAKNYGDPFCSTXN_A+ (0.6*((LOG(PAKNYGDPFCSTXN(-1)))-(LOG(PAKNYGDPFCSTXN(-2))))+(1-0.6)*(0.7*PAKINFLEXPT/100+(1-0.7)*((LOG(PAKPSTAR(-1)))-(LOG(PAKPSTAR(-2)))))+0.25*PAKNYGDPGAP_/100+0.262461811660072*DURING_2000-0.205776950553378*DURING_2001) )) * (1-PAKNYGDPFCSTXN_D)+ PAKNYGDPFCSTXN_X*PAKNYGDPFCSTXN_D  $">
<polygon fill="#63b8ff" stroke="black" points="597.5,-290 355.5,-290 355.5,-254 597.5,-254 597.5,-290"/>
<text text-anchor="start" x="361.5" y="-267.8" font-family="Times New Roman,serif" font-size="14.00" fill="blue">PAKNYGDPFCSTXN:GDP at factor cost</text>
</a>
</g>
</g>
<!-- PAKNYGDPFCSTXN&#45;&gt;PAKLMEMPTOTLCN -->
<g id="edge2" class="edge">
<title>PAKNYGDPFCSTXN-&gt;PAKLMEMPTOTLCN</title>
<g id="a_edge2"><a xlink:href="bogus" xlink:title=" PAKNYGDPFCSTXN -&gt; PAKLMEMPTOTLCN Min. att. -128%  max: 59%">
<path fill="none" stroke="black" stroke-width="8" d="M597.87,-272C622.25,-272 647.85,-272 672.13,-272"/>
<polygon fill="black" stroke="black" stroke-width="8" points="672.45,-279 682.45,-272 672.45,-265 672.45,-279"/>
</a>
</g>
</g>
<!-- PAKNYWRTINFMCN -->
<g id="node8" class="node">
<title>PAKNYWRTINFMCN</title>
<g id="a_node8"><a xlink:title="Informal wage
FRML &lt;Z,EXO&gt; PAKNYWRTINFMCN = (PAKNYWRTINFMCN(-1)*EXP(-PAKNYWRTINFMCN_A+ (-0.122614247140616-0.3*(LOG(PAKNYWRTINFMCN(-1))-LOG(PAKNYGDPFCSTXN(-1))-LOG(PAKNYGDPPOTLKN(-1)/PAKLMEMPSTRLCN(-1)))+0.2*((LOG(PAKNYWRTINFMCN(-1)))-(LOG(PAKNYWRTINFMCN(-2))))+(1-0.2)*(0.5*((LOG(PAKNYGDPFCSTXN(-1)))-(LOG(PAKNYGDPFCSTXN(-2))))+0.5*(PAKINFLEXPT/100)+((LOG(PAKNYGDPMKTPKN/PAKLMEMPSTRLCN))-(LOG(PAKNYGDPMKTPKN(-1)/PAKLMEMPSTRLCN(-1)))))-0.2*(PAKLMUNRTOTLCN-PAKLMUNRSTRLCN)/100+0.15347529018182*DURING_2000-0.183372342445734*DURING_2001) )) * (1-PAKNYWRTINFMCN_D)+ PAKNYWRTINFMCN_X*PAKNYWRTINFMCN_D  $">
<polygon fill="#63b8ff" stroke="black" points="256,-292 30,-292 30,-256 256,-256 256,-292"/>
<text text-anchor="start" x="36" y="-269.8" font-family="Times New Roman,serif" font-size="14.00" fill="blue">PAKNYWRTINFMCN:Informal wage</text>
</a>
</g>
</g>
<!-- PAKNYWRTTOTLCN -->
<g id="node15" class="node">
<title>PAKNYWRTTOTLCN</title>
<g id="a_node15"><a xlink:title="Wages
FRML  &lt;&gt; PAKNYWRTTOTLCN = (PAKNYWBINFMSH**PAKINFCES*(PAKNYWRTINFMCN)**(1-PAKINFCES)+PAKNYWBFORMSH**PAKINFCES*(PAKNYWRTFORMCN*(1+PAKGGREVDRCTXN/100))**(1-PAKINFCES))**(1/(1-PAKINFCES)) $">
<polygon fill="#63b8ff" stroke="black" points="567,-344 386,-344 386,-308 567,-308 567,-344"/>
<text text-anchor="start" x="392.5" y="-321.8" font-family="Times New Roman,serif" font-size="14.00" fill="blue">PAKNYWRTTOTLCN:Wages</text>
</a>
</g>
</g>
<!-- PAKNYWRTINFMCN&#45;&gt;PAKNYWRTTOTLCN -->
<g id="edge6" class="edge">
<title>PAKNYWRTINFMCN-&gt;PAKNYWRTTOTLCN</title>
<g id="a_edge6"><a xlink:href="bogus" xlink:title=" PAKNYWRTINFMCN -&gt; PAKNYWRTTOTLCN Min. att. 79%  max: 80%">
<path fill="none" stroke="black" stroke-width="7.95" d="M256.23,-291.6C295.03,-297.69 338.2,-304.46 375.92,-310.38"/>
<polygon fill="black" stroke="black" stroke-width="7.95" points="374.93,-317.27 385.89,-311.94 377.09,-303.52 374.93,-317.27"/>
</a>
</g>
</g>
<!-- PAKNECONPRVTXN -->
<g id="node10" class="node">
<title>PAKNECONPRVTXN</title>
<g id="a_node10"><a xlink:title="Household demand
FRML  &lt;&gt; PAKNECONPRVTXN = ((PAKNECONENGYSH**PAKCESENGYCON)*PAKNECONENGYXN**(1-PAKCESENGYCON)+(PAKNECONOTHRSH**PAKCESENGYCON)*PAKNECONOTHRXN**(1-PAKCESENGYCON))**(1/(1-PAKCESENGYCON)) $">
<polygon fill="#63b8ff" stroke="black" points="915,-412 667,-412 667,-376 915,-376 915,-412"/>
<text text-anchor="start" x="673" y="-389.8" font-family="Times New Roman,serif" font-size="14.00" fill="blue">PAKNECONPRVTXN:Household demand</text>
</a>
</g>
</g>
<!-- PAKNECONPRVTXN&#45;&gt;PAKNECONPRVTKN -->
<g id="edge32" class="edge">
<title>PAKNECONPRVTXN-&gt;PAKNECONPRVTKN</title>
<g id="a_edge32"><a xlink:href="bogus" xlink:title=" PAKNECONPRVTXN -&gt; PAKNECONPRVTKN Min. att. -5706%  max: 593%">
<path fill="none" stroke="black" stroke-width="8" d="M915.26,-395.7C927.34,-395.82 939.41,-395.93 951,-396 1077.66,-396.8 1109.34,-397.46 1236,-396 1244.36,-395.9 1252.95,-395.78 1261.61,-395.64"/>
<polygon fill="black" stroke="black" stroke-width="8" points="1261.93,-402.64 1271.81,-395.47 1261.69,-388.64 1261.93,-402.64"/>
</a>
</g>
</g>
<!-- PAKNECONPRVTXN&#45;&gt;PAKFMLBLPOLYXN -->
<g id="edge14" class="edge">
<title>PAKNECONPRVTXN-&gt;PAKFMLBLPOLYXN</title>
<g id="a_edge14"><a xlink:href="bogus" xlink:title=" PAKNECONPRVTXN -&gt; PAKFMLBLPOLYXN Min. att. -94%  max: 1462%">
<path fill="none" stroke="black" stroke-width="8" d="M915.09,-383.76C936.78,-381.96 959.25,-380.09 980.61,-378.31"/>
<polygon fill="black" stroke="black" stroke-width="8" points="981.28,-385.28 990.67,-377.47 980.12,-371.33 981.28,-385.28"/>
</a>
</g>
</g>
<!-- PAKNYGDPMKTPKN&#45;&gt;PAKNYGDPGAP_ -->
<g id="edge22" class="edge">
<title>PAKNYGDPMKTPKN-&gt;PAKNYGDPGAP_</title>
<g id="a_edge22"><a xlink:href="bogus" xlink:title=" PAKNYGDPMKTPKN -&gt; PAKNYGDPGAP_ Min. att. -78553%  max: 128142%">
<path fill="none" stroke="black" stroke-width="8" d="M1616.98,-59C1364.07,-85.86 891.06,-136.09 641.44,-162.59"/>
<polygon fill="black" stroke="black" stroke-width="8" points="640.39,-155.66 631.19,-163.68 641.87,-169.59 640.39,-155.66"/>
</a>
</g>
</g>
<!-- PAKNYWRTFORMCN -->
<g id="node13" class="node">
<title>PAKNYWRTFORMCN</title>
<g id="a_node13"><a xlink:title="Formal wage
FRML &lt;Z,EXO&gt; PAKNYWRTFORMCN = (PAKNYWRTFORMCN(-1)*EXP(-PAKNYWRTFORMCN_A+ (-0.120164450250183-0.3*(LOG(PAKNYWRTFORMCN(-1))-LOG(PAKNYGDPFCSTXN(-1))-LOG(PAKNYGDPPOTLKN(-1)/PAKLMEMPSTRLCN(-1)))+0.2*((LOG(PAKNYWRTFORMCN(-1)))-(LOG(PAKNYWRTFORMCN(-2))))+(1-0.2)*(0.5*((LOG(PAKNYGDPFCSTXN(-1)))-(LOG(PAKNYGDPFCSTXN(-2))))+0.5*(PAKINFLEXPT/100)+((LOG(PAKNYGDPMKTPKN/PAKLMEMPSTRLCN))-(LOG(PAKNYGDPMKTPKN(-1)/PAKLMEMPSTRLCN(-1)))))-0.2*(PAKLMUNRTOTLCN-PAKLMUNRSTRLCN)/100+0.15233813938029*DURING_2000-0.183411483907703*DURING_2001) )) * (1-PAKNYWRTFORMCN_D)+ PAKNYWRTFORMCN_X*PAKNYWRTFORMCN_D  $">
<polygon fill="#63b8ff" stroke="black" points="254,-346 32,-346 32,-310 254,-310 254,-346"/>
<text text-anchor="start" x="38" y="-323.8" font-family="Times New Roman,serif" font-size="14.00" fill="blue">PAKNYWRTFORMCN:Formal wage</text>
</a>
</g>
</g>
<!-- PAKNYWRTFORMCN&#45;&gt;PAKNYWRTTOTLCN -->
<g id="edge12" class="edge">
<title>PAKNYWRTFORMCN-&gt;PAKNYWRTTOTLCN</title>
<g id="a_edge12"><a xlink:href="bogus" xlink:title=" PAKNYWRTFORMCN -&gt; PAKNYWRTTOTLCN Min. att. 21%  max: 21%">
<path fill="none" stroke="black" stroke-width="2.13" d="M254.38,-327.33C293.63,-327.1 337.56,-326.83 375.85,-326.6"/>
<polygon fill="black" stroke="black" stroke-width="2.13" points="376,-330.1 385.98,-326.54 375.96,-323.1 376,-330.1"/>
</a>
</g>
</g>
<!-- PAKNECONOTHRXN -->
<g id="node14" class="node">
<title>PAKNECONOTHRXN</title>
<g id="a_node14"><a xlink:title="Non-Energy Consumption
FRML &lt;Z,EXO&gt; PAKNECONOTHRXN = (PAKNECONOTHRXN(-1)*EXP(-PAKNECONOTHRXN_A+ (0.598859116610832*((LOG(PAKNYGDPFCSTXN))-(LOG(PAKNYGDPFCSTXN(-1))))+((PAKGGREVGNFSXN/100)-(PAKGGREVGNFSXN(-1)/100))+(1-0.598859116610832)*((LOG(PAKNEIMPGNFSXN))-(LOG(PAKNEIMPGNFSXN(-1))))+0.2*PAKNYGDPGAP_/100) )) * (1-PAKNECONOTHRXN_D)+ PAKNECONOTHRXN_X*PAKNECONOTHRXN_D  $">
<polygon fill="#63b8ff" stroke="black" points="621,-456 332,-456 332,-420 621,-420 621,-456"/>
<text text-anchor="start" x="338.5" y="-433.8" font-family="Times New Roman,serif" font-size="14.00" fill="blue">PAKNECONOTHRXN:Non-Energy Consumption</text>
</a>
</g>
</g>
<!-- PAKNECONOTHRXN&#45;&gt;PAKNECONPRVTXN -->
<g id="edge25" class="edge">
<title>PAKNECONOTHRXN-&gt;PAKNECONPRVTXN</title>
<g id="a_edge25"><a xlink:href="bogus" xlink:title=" PAKNECONOTHRXN -&gt; PAKNECONPRVTXN Min. att. 71%  max: 99%">
<path fill="none" stroke="black" stroke-width="8" d="M605.51,-419.98C622.49,-417.59 639.93,-415.13 656.99,-412.73"/>
<polygon fill="black" stroke="black" stroke-width="8" points="658.06,-419.65 666.98,-411.32 656.1,-405.78 658.06,-419.65"/>
</a>
</g>
</g>
<!-- PAKNYWRTTOTLCN&#45;&gt;PAKLMEMPTOTLCN -->
<g id="edge5" class="edge">
<title>PAKNYWRTTOTLCN-&gt;PAKLMEMPTOTLCN</title>
<g id="a_edge5"><a xlink:href="bogus" xlink:title=" PAKNYWRTTOTLCN -&gt; PAKLMEMPTOTLCN Min. att. -1554%  max: 236%">
<path fill="none" stroke="black" stroke-width="8" d="M567.05,-310.53C600.93,-304.67 639.96,-297.93 675.8,-291.73"/>
<polygon fill="black" stroke="black" stroke-width="8" points="677.15,-298.6 685.81,-290 674.77,-284.81 677.15,-298.6"/>
</a>
</g>
</g>
<!-- PAKNYYWBTOTLCN -->
<g id="node24" class="node">
<title>PAKNYYWBTOTLCN</title>
<g id="a_node24"><a xlink:title="Economy-wide wage bill
FRML  &lt;&gt; PAKNYYWBTOTLCN = PAKNYWRTTOTLCN*PAKLMEMPTOTLCN $">
<polygon fill="#63b8ff" stroke="black" points="1236,-333 951,-333 951,-297 1236,-297 1236,-333"/>
<text text-anchor="start" x="957.5" y="-310.8" font-family="Times New Roman,serif" font-size="14.00" fill="blue">PAKNYYWBTOTLCN:Economy-wide wage bill</text>
</a>
</g>
</g>
<!-- PAKNYWRTTOTLCN&#45;&gt;PAKNYYWBTOTLCN -->
<g id="edge15" class="edge">
<title>PAKNYWRTTOTLCN-&gt;PAKNYYWBTOTLCN</title>
<g id="a_edge15"><a xlink:href="bogus" xlink:title=" PAKNYWRTTOTLCN -&gt; PAKNYYWBTOTLCN Min. att. 16%  max: 106%">
<path fill="none" stroke="black" stroke-width="8" d="M567.26,-324.39C665.09,-322.64 823.31,-319.81 940.57,-317.72"/>
<polygon fill="black" stroke="black" stroke-width="8" points="940.84,-324.71 950.71,-317.54 940.59,-310.72 940.84,-324.71"/>
</a>
</g>
</g>
<!-- PAKNECONENGYGN -->
<g id="node17" class="node">
<title>PAKNECONENGYGN</title>
<g id="a_node17"><a xlink:title="Net consumption deflator
FRML  &lt;&gt; PAKNECONENGYGN = (PAKNVCOLPRODSH**(PAKCESENGYPROD)*(PAKNVCOLPRODGN)**(1-PAKCESENGYPROD)+PAKNVGASPRODSH**(PAKCESENGYPROD)*(PAKNVGASPRODGN)**(1-PAKCESENGYPROD)+PAKNVOILPRODSH**(PAKCESENGYPROD)*(PAKNVOILPRODGN)**(1-PAKCESENGYPROD)+PAKNVRENPRODSH**(PAKCESENGYPROD)*(PAKNVRENPRODXN)**(1-PAKCESENGYPROD))**(1/(1-PAKCESENGYPROD)) $">
<polygon fill="#63b8ff" stroke="black" points="286,-402 0,-402 0,-366 286,-366 286,-402"/>
<text text-anchor="start" x="6" y="-379.8" font-family="Times New Roman,serif" font-size="14.00" fill="blue">PAKNECONENGYGN:Net consumption deflator</text>
</a>
</g>
</g>
<!-- PAKNECONENGYXN -->
<g id="node21" class="node">
<title>PAKNECONENGYXN</title>
<g id="a_node21"><a xlink:title="Energy Consumption
FRML &lt;Z,EXO&gt; PAKNECONENGYXN = (PAKNECONENGYXN(-1)*EXP(-PAKNECONENGYXN_A+ (((LOG(PAKNECONENGYGN))-(LOG(PAKNECONENGYGN(-1))))+0.0550557534575806*DUMH) )) * (1-PAKNECONENGYXN_D)+ PAKNECONENGYXN_X*PAKNECONENGYXN_D  $">
<polygon fill="#63b8ff" stroke="black" points="607.5,-402 345.5,-402 345.5,-366 607.5,-366 607.5,-402"/>
<text text-anchor="start" x="351.5" y="-379.8" font-family="Times New Roman,serif" font-size="14.00" fill="blue">PAKNECONENGYXN:Energy Consumption</text>
</a>
</g>
</g>
<!-- PAKNECONENGYGN&#45;&gt;PAKNECONENGYXN -->
<g id="edge31" class="edge">
<title>PAKNECONENGYGN-&gt;PAKNECONENGYXN</title>
<g id="a_edge31"><a xlink:href="bogus" xlink:title=" PAKNECONENGYGN -&gt; PAKNECONENGYXN Min. att. -39%  max: 100%">
<path fill="none" stroke="black" stroke-width="8" d="M286.03,-384C302.33,-384 318.94,-384 335.22,-384"/>
<polygon fill="black" stroke="black" stroke-width="8" points="335.3,-391 345.3,-384 335.3,-377 335.3,-391"/>
</a>
</g>
</g>
<!-- PAKLMEMPTOTLCN&#45;&gt;PAKNYYWBTOTLCN -->
<g id="edge18" class="edge">
<title>PAKLMEMPTOTLCN-&gt;PAKNYYWBTOTLCN</title>
<g id="a_edge18"><a xlink:href="bogus" xlink:title=" PAKLMEMPTOTLCN -&gt; PAKNYYWBTOTLCN Min. att. -6%  max: 84%">
<path fill="none" stroke="black" stroke-width="8" d="M899.64,-287.4C918.14,-290.05 937.58,-292.83 956.7,-295.57"/>
<polygon fill="black" stroke="black" stroke-width="8" points="955.78,-302.51 966.67,-296.99 957.76,-288.65 955.78,-302.51"/>
</a>
</g>
</g>
<!-- PAKNYGDPPOTLKN -->
<g id="node20" class="node">
<title>PAKNYGDPPOTLKN</title>
<g id="a_node20"><a xlink:title="Potential GDP
FRML  &lt;&gt; PAKNYGDPPOTLKN = PAKNYGDPTFP*(PAKLMEMPSTRLCN**PAKNYYWBTOTLCN_)*(PAKNEGDIKSTKKN(-1)**(1-PAKNYYWBTOTLCN_)) $">
<polygon fill="#63b8ff" stroke="black" points="253.5,-217 32.5,-217 32.5,-181 253.5,-181 253.5,-217"/>
<text text-anchor="start" x="39" y="-194.8" font-family="Times New Roman,serif" font-size="14.00" fill="blue">PAKNYGDPPOTLKN:Potential GDP</text>
</a>
</g>
</g>
<!-- PAKNYGDPPOTLKN&#45;&gt;PAKNYGDPGAP_ -->
<g id="edge3" class="edge">
<title>PAKNYGDPPOTLKN-&gt;PAKNYGDPGAP_</title>
<g id="a_edge3"><a xlink:href="bogus" xlink:title=" PAKNYGDPPOTLKN -&gt; PAKNYGDPGAP_ Min. att. -129220%  max: 79383%">
<path fill="none" stroke="black" stroke-width="8" d="M253.92,-192.7C272.46,-191.64 292.05,-190.51 311.61,-189.39"/>
<polygon fill="black" stroke="black" stroke-width="8" points="312.25,-196.37 321.83,-188.81 311.44,-182.39 312.25,-196.37"/>
</a>
</g>
</g>
<!-- PAKNYGDPPOTLKN&#45;&gt;PAKLMEMPTOTLCN -->
<g id="edge19" class="edge">
<title>PAKNYGDPPOTLKN-&gt;PAKLMEMPTOTLCN</title>
<g id="a_edge19"><a xlink:href="bogus" xlink:title=" PAKNYGDPPOTLKN -&gt; PAKLMEMPTOTLCN Min. att. -92%  max: 605%">
<path fill="none" stroke="black" stroke-width="8" d="M253.54,-207.02C352.42,-214.81 501.76,-227.95 631,-245 646.98,-247.11 663.81,-249.63 680.3,-252.28"/>
<polygon fill="black" stroke="black" stroke-width="8" points="679.52,-259.25 690.51,-253.94 681.77,-245.43 679.52,-259.25"/>
</a>
</g>
</g>
<!-- PAKNECONENGYXN&#45;&gt;PAKNECONPRVTXN -->
<g id="edge13" class="edge">
<title>PAKNECONENGYXN-&gt;PAKNECONPRVTXN</title>
<g id="a_edge13"><a xlink:href="bogus" xlink:title=" PAKNECONENGYXN -&gt; PAKNECONPRVTXN Min. att. 1%  max: 29%">
<path fill="none" stroke="black" stroke-width="2.91" d="M607.77,-388.17C623.99,-388.69 640.6,-389.22 656.87,-389.74"/>
<polygon fill="black" stroke="black" stroke-width="2.91" points="656.84,-393.24 666.95,-390.06 657.07,-386.24 656.84,-393.24"/>
</a>
</g>
</g>
<!-- PAKNYYWBTOTLCN&#45;&gt;PAKNECONPRVTKN -->
<g id="edge10" class="edge">
<title>PAKNYYWBTOTLCN-&gt;PAKNECONPRVTKN</title>
<g id="a_edge10"><a xlink:href="bogus" xlink:title=" PAKNYYWBTOTLCN -&gt; PAKNECONPRVTKN Min. att. -594%  max: 5821%">
<path fill="none" stroke="black" stroke-width="8" d="M1195.23,-333.05C1208.97,-335.85 1222.86,-338.87 1236,-342 1271.33,-350.43 1310.21,-361.43 1342.24,-370.97"/>
<polygon fill="black" stroke="black" stroke-width="8" points="1340.37,-377.72 1351.95,-373.88 1344.38,-364.31 1340.37,-377.72"/>
</a>
</g>
</g>
<!-- PAKNEIMPGNFSXN -->
<g id="node28" class="node">
<title>PAKNEIMPGNFSXN</title>
<g id="a_node28"><a xlink:title="Imports (G&amp;S)
FRML  &lt;&gt; PAKNEIMPGNFSXN = ((PAKNEIMPENGYSH**PAKCESENGYIMPT)*PAKNVENGNIMPXN**(1-PAKCESENGYIMPT)+(PAKNEIMPOTHRSH**PAKCESENGYIMPT)*PAKNEIMPGSNEXN**(1-PAKCESENGYIMPT))**(1/(1-PAKCESENGYIMPT)) $">
<polygon fill="#63b8ff" stroke="black" points="254.5,-456 31.5,-456 31.5,-420 254.5,-420 254.5,-456"/>
<text text-anchor="start" x="38" y="-433.8" font-family="Times New Roman,serif" font-size="14.00" fill="blue">PAKNEIMPGNFSXN:Imports (G&amp;S)</text>
</a>
</g>
</g>
<!-- PAKNEIMPGNFSXN&#45;&gt;PAKNECONOTHRXN -->
<g id="edge26" class="edge">
<title>PAKNEIMPGNFSXN-&gt;PAKNECONOTHRXN</title>
<g id="a_edge26"><a xlink:href="bogus" xlink:title=" PAKNEIMPGNFSXN -&gt; PAKNECONOTHRXN Min. att. -10%  max: 114%">
<path fill="none" stroke="black" stroke-width="8" d="M254.85,-438C276.23,-438 298.98,-438 321.45,-438"/>
<polygon fill="black" stroke="black" stroke-width="8" points="321.75,-445 331.75,-438 321.75,-431 321.75,-445"/>
</a>
</g>
</g>
<!-- PAKFMLBLPOLYXN&#45;&gt;PAKNECONPRVTKN -->
<g id="edge24" class="edge">
<title>PAKFMLBLPOLYXN-&gt;PAKNECONPRVTKN</title>
<g id="a_edge24"><a xlink:href="bogus" xlink:title=" PAKFMLBLPOLYXN -&gt; PAKNECONPRVTKN Min. att. -160%  max: 20%">
<path fill="none" stroke="black" stroke-width="8" d="M1196.06,-376.4C1217,-377.93 1239.45,-379.57 1261.65,-381.19"/>
<polygon fill="black" stroke="black" stroke-width="8" points="1261.34,-388.18 1271.83,-381.93 1262.36,-374.22 1261.34,-388.18"/>
</a>
</g>
</g>
</g>
</svg>