<svg xmlns="http://www.w3.org/2000/svg" xmlns:xlink="http://www.w3.org/1999/xlink" width="432pt" height="211pt" viewBox="0.00 0.00 432.00 211.38">
<g id="graph0" class="graph" transform="scale(0.510035 0.510035) rotate(0) translate(4 410.45)">
<title>TD</title>
<polygon fill="white" stroke="none" points="-4,4 -4,-410.45 843,-410.45 843,4 -4,4"/>
<text text-anchor="middle" x="419.5" y="-7.8" font-family="Times New Roman,serif" font-size="14.00">A_model_graph</text>
<!-- CPV_FITTED -->
<g id="node1" class="node">
<title>CPV_FITTED</title>
<g id="a_node1"><a xlink:title="Fitted  value:Private Consumption
FRML &lt;FIT&gt; CPV_FITTED = CPV(-1)*EXP( (-C2_CPV*(LOG(CPV(-1))-LOG(Y(-1))-C1_CPV)+C3_CPV*((LOG(Y))-(LOG(Y(-1))))) )$">
<polygon fill="#63b8ff" stroke="black" points="373,-275 90,-275 90,-239 373,-239 373,-275"/>
<text text-anchor="start" x="96.5" y="-252.8" font-family="Times New Roman,serif" font-size="14.00" fill="blue">CPV_FITTED:Fitted  value:Private Consumption</text>
</a>
</g>
</g>
<!-- M_FITTED -->
<g id="node2" class="node">
<title>M_FITTED</title>
<g id="a_node2"><a xlink:title="Fitted  value:Import
FRML &lt;FIT&gt; M_FITTED = M(-1)*EXP( (-C2_M*(LOG(M(-1))-LOG(GDE(-1))-C1_M)+C3_M*((LOG(GDE))-(LOG(GDE(-1))))) )$">
<polygon fill="#63b8ff" stroke="black" points="839,-244 647,-244 647,-208 839,-208 839,-244"/>
<text text-anchor="start" x="653" y="-221.8" font-family="Times New Roman,serif" font-size="14.00" fill="blue">M_FITTED:Fitted  value:Import</text>
</a>
</g>
</g>
<!-- I_FITTED -->
<g id="node3" class="node">
<title>I_FITTED</title>
<g id="a_node3"><a xlink:title="Fitted  value:Investment
FRML &lt;FIT&gt; I_FITTED = I(-1)*EXP( (-C2_I*(LOG(I(-1))-LOG(Y(-1)-G(-1))-C1_I)+C3_I*((LOG(Y))-(LOG(Y(-1))))) )$">
<polygon fill="#63b8ff" stroke="black" points="335,-221 128,-221 128,-185 335,-185 335,-221"/>
<text text-anchor="start" x="134.5" y="-198.8" font-family="Times New Roman,serif" font-size="14.00" fill="blue">I_FITTED:Fitted  value:Investment</text>
</a>
</g>
</g>
<!-- CPV -->
<g id="node4" class="node">
<title>CPV</title>
<g id="a_node4"><a xlink:title="Private Consumption
FRML &lt;FIXABLE, DAMP&gt; CPV = (CPV(-1)*EXP(CPV_A+ (-C2_CPV*(LOG(CPV(-1))-LOG(Y(-1))-C1_CPV)+C3_CPV*((LOG(Y))-(LOG(Y(-1))))) )) * (1-CPV_D)+ CPV_X*CPV_D $">
<polygon fill="#63b8ff" stroke="black" points="310,-329 153,-329 153,-293 310,-293 310,-329"/>
<text text-anchor="start" x="159.5" y="-306.8" font-family="Times New Roman,serif" font-size="14.00" fill="blue">CPV:Private Consumption</text>
</a>
</g>
</g>
<!-- Y -->
<g id="node6" class="node">
<title>Y</title>
<g id="a_node6"><a xlink:title="GDP
FRML &lt;IDENT&gt; Y = CPV+I+G+X-M+YDISC$">
<polygon fill="#63b8ff" stroke="black" points="54,-194 0,-194 0,-158 54,-158 54,-194"/>
<text text-anchor="start" x="7" y="-171.8" font-family="Times New Roman,serif" font-size="14.00" fill="blue">Y:GDP</text>
</a>
</g>
</g>
<!-- CPV&#45;&gt;Y -->
<g id="edge1" class="edge">
<title>CPV-&gt;Y</title>
<g id="a_edge1"><a xlink:href="bogus" xlink:title="NA">
<path fill="none" stroke="black" stroke-width="0.5" d="M152.84,-316.65C130.96,-313.18 108.2,-305.98 90,-293 60.35,-271.84 42.87,-231.76 34.39,-204.26"/>
<polygon fill="black" stroke="black" stroke-width="0.5" points="37.68,-203.05 31.57,-194.4 30.95,-204.97 37.68,-203.05"/>
</a>
</g>
</g>
<!-- GDE -->
<g id="node8" class="node">
<title>GDE</title>
<g id="a_node8"><a xlink:title="Gross Domestic Expenditure
FRML &lt;IDENT&gt; GDE = CPV+I+G$">
<polygon fill="#63b8ff" stroke="black" points="611,-244 409,-244 409,-208 611,-208 611,-244"/>
<text text-anchor="start" x="415" y="-221.8" font-family="Times New Roman,serif" font-size="14.00" fill="blue">GDE:Gross Domestic Expenditure</text>
</a>
</g>
</g>
<!-- CPV&#45;&gt;GDE -->
<g id="edge14" class="edge">
<title>CPV-&gt;GDE</title>
<g id="a_edge14"><a xlink:href="bogus" xlink:title="NA">
<path fill="none" stroke="black" stroke-width="0.5" d="M310.16,-299.14C330.8,-295.16 352.93,-290.13 373,-284 403.94,-274.55 437.37,-260.35 463.35,-248.36"/>
<polygon fill="black" stroke="black" stroke-width="0.5" points="464.98,-251.46 472.56,-244.06 462.02,-245.12 464.98,-251.46"/>
</a>
</g>
</g>
<!-- M -->
<g id="node5" class="node">
<title>M</title>
<g id="a_node5"><a xlink:title="Import
FRML &lt;FIXABLE, DAMP&gt; M = (M(-1)*EXP(M_A+ (-C2_M*(LOG(M(-1))-LOG(GDE(-1))-C1_M)+C3_M*((LOG(GDE))-(LOG(GDE(-1))))) )) * (1-M_D)+ M_X*M_D $">
<polygon fill="#63b8ff" stroke="black" points="776.5,-337 709.5,-337 709.5,-301 776.5,-301 776.5,-337"/>
<text text-anchor="start" x="716" y="-314.8" font-family="Times New Roman,serif" font-size="14.00" fill="blue">M:Import</text>
</a>
</g>
</g>
<!-- M&#45;&gt;Y -->
<g id="edge13" class="edge">
<title>M-&gt;Y</title>
<g id="a_edge13"><a xlink:href="bogus" xlink:title="NA">
<path fill="none" stroke="black" stroke-width="0.5" d="M709.45,-332.14C607.37,-371.02 288.48,-474.56 90,-338 46.19,-307.86 33.32,-242.23 29.55,-204.4"/>
<polygon fill="black" stroke="black" stroke-width="0.5" points="33.01,-203.75 28.68,-194.08 26.03,-204.34 33.01,-203.75"/>
</a>
</g>
</g>
<!-- Y&#45;&gt;CPV_FITTED -->
<g id="edge9" class="edge">
<title>Y-&gt;CPV_FITTED</title>
<g id="a_edge9"><a xlink:href="bogus" xlink:title="NA">
<path fill="none" stroke="black" stroke-width="0.5" d="M43.84,-194.08C55.42,-206.14 72.16,-221.31 90,-230 93.89,-231.9 97.91,-233.66 102.01,-235.3"/>
<polygon fill="black" stroke="black" stroke-width="0.5" points="101.13,-238.71 111.72,-238.9 103.57,-232.14 101.13,-238.71"/>
</a>
</g>
</g>
<!-- Y&#45;&gt;I_FITTED -->
<g id="edge15" class="edge">
<title>Y-&gt;I_FITTED</title>
<g id="a_edge15"><a xlink:href="bogus" xlink:title="NA">
<path fill="none" stroke="black" stroke-width="0.5" d="M54.06,-179.47C70.86,-181.72 94,-184.8 117.99,-188"/>
<polygon fill="black" stroke="black" stroke-width="0.5" points="117.57,-191.47 127.94,-189.33 118.49,-184.53 117.57,-191.47"/>
</a>
</g>
</g>
<!-- Y&#45;&gt;CPV -->
<g id="edge4" class="edge">
<title>Y-&gt;CPV</title>
<g id="a_edge4"><a xlink:href="bogus" xlink:title="NA">
<path fill="none" stroke="black" stroke-width="0.5" d="M35.41,-194.04C44.23,-216.81 61.49,-254.66 90,-275 105.5,-286.06 124.31,-292.91 143.06,-297.34"/>
<polygon fill="black" stroke="black" stroke-width="0.5" points="142.33,-300.76 152.84,-299.43 143.8,-293.91 142.33,-300.76"/>
</a>
</g>
</g>
<!-- G -->
<g id="node7" class="node">
<title>G</title>
<g id="a_node7"><a xlink:title="Government
FRML &lt;FIXABLE, DAMP&gt; G = (G(-1)*EXP(G_A+ (-C2_G*(LOG(G(-1))-LOG(Y(-1))-C1_G)+C3_G*((LOG(Y))-(LOG(Y(-1))))) )) * (1-G_D)+ G_X*G_D $">
<polygon fill="#63b8ff" stroke="black" points="278.5,-167 184.5,-167 184.5,-131 278.5,-131 278.5,-167"/>
<text text-anchor="start" x="190.5" y="-144.8" font-family="Times New Roman,serif" font-size="14.00" fill="blue">G:Government</text>
</a>
</g>
</g>
<!-- Y&#45;&gt;G -->
<g id="edge7" class="edge">
<title>Y-&gt;G</title>
<g id="a_edge7"><a xlink:href="bogus" xlink:title="NA">
<path fill="none" stroke="black" stroke-width="0.5" d="M54.06,-167.82C84.32,-161.66 135.13,-154.42 174.47,-150.36"/>
<polygon fill="black" stroke="black" stroke-width="0.5" points="174.85,-153.84 184.46,-149.37 174.16,-146.87 174.85,-153.84"/>
</a>
</g>
</g>
<!-- G_FITTED -->
<g id="node9" class="node">
<title>G_FITTED</title>
<g id="a_node9"><a xlink:title="Fitted  value:Government
FRML &lt;FIT&gt; G_FITTED = G(-1)*EXP( (-C2_G*(LOG(G(-1))-LOG(Y(-1))-C1_G)+C3_G*((LOG(Y))-(LOG(Y(-1))))) )$">
<polygon fill="#63b8ff" stroke="black" points="341.5,-113 121.5,-113 121.5,-77 341.5,-77 341.5,-113"/>
<text text-anchor="start" x="127.5" y="-90.8" font-family="Times New Roman,serif" font-size="14.00" fill="blue">G_FITTED:Fitted  value:Government</text>
</a>
</g>
</g>
<!-- Y&#45;&gt;G_FITTED -->
<g id="edge8" class="edge">
<title>Y-&gt;G_FITTED</title>
<g id="a_edge8"><a xlink:href="bogus" xlink:title="NA">
<path fill="none" stroke="black" stroke-width="0.5" d="M43.84,-157.92C55.42,-145.86 72.16,-130.69 90,-122 96.91,-118.64 104.2,-115.69 111.68,-113.11"/>
<polygon fill="black" stroke="black" stroke-width="0.5" points="112.79,-116.43 121.24,-110.04 110.65,-109.77 112.79,-116.43"/>
</a>
</g>
</g>
<!-- I -->
<g id="node10" class="node">
<title>I</title>
<g id="a_node10"><a xlink:title="Investment
FRML &lt;FIXABLE, DAMP&gt; I = (I(-1)*EXP(I_A+ (-C2_I*(LOG(I(-1))-LOG(Y(-1)-G(-1))-C1_I)+C3_I*((LOG(Y))-(LOG(Y(-1))))) )) * (1-I_D)+ I_X*I_D $">
<polygon fill="#63b8ff" stroke="black" points="272.5,-59 190.5,-59 190.5,-23 272.5,-23 272.5,-59"/>
<text text-anchor="start" x="196.5" y="-36.8" font-family="Times New Roman,serif" font-size="14.00" fill="blue">I:Investment</text>
</a>
</g>
</g>
<!-- Y&#45;&gt;I -->
<g id="edge11" class="edge">
<title>Y-&gt;I</title>
<g id="a_edge11"><a xlink:href="bogus" xlink:title="NA">
<path fill="none" stroke="black" stroke-width="0.5" d="M31.57,-157.6C38.61,-130.79 56.56,-82.86 90,-59 116.02,-40.43 151.39,-33.71 180.13,-32.76"/>
<polygon fill="black" stroke="black" stroke-width="0.5" points="180.42,-36.26 190.39,-32.66 180.35,-29.26 180.42,-36.26"/>
</a>
</g>
</g>
<!-- G&#45;&gt;Y -->
<g id="edge6" class="edge">
<title>G-&gt;Y</title>
<g id="a_edge6"><a xlink:href="bogus" xlink:title="NA">
<path fill="none" stroke="black" stroke-width="0.5" d="M184.46,-160.9C148.07,-167.2 97.96,-173.74 64.35,-176.48"/>
<polygon fill="black" stroke="black" stroke-width="0.5" points="63.78,-173.01 54.06,-177.23 64.29,-179.99 63.78,-173.01"/>
</a>
</g>
</g>
<!-- G&#45;&gt;GDE -->
<g id="edge2" class="edge">
<title>G-&gt;GDE</title>
<g id="a_edge2"><a xlink:href="bogus" xlink:title="NA">
<path fill="none" stroke="black" stroke-width="0.5" d="M278.81,-155.95C306.42,-160.58 342.01,-167.39 373,-176 400.82,-183.73 431.03,-194.58 455.89,-204.2"/>
<polygon fill="black" stroke="black" stroke-width="0.5" points="454.9,-207.57 465.49,-207.95 457.45,-201.05 454.9,-207.57"/>
</a>
</g>
</g>
<!-- GDE&#45;&gt;M_FITTED -->
<g id="edge12" class="edge">
<title>GDE-&gt;M_FITTED</title>
<g id="a_edge12"><a xlink:href="bogus" xlink:title="NA">
<path fill="none" stroke="black" stroke-width="0.5" d="M611.31,-226C619.71,-226 628.21,-226 636.65,-226"/>
<polygon fill="black" stroke="black" stroke-width="0.5" points="636.89,-229.5 646.89,-226 636.89,-222.5 636.89,-229.5"/>
</a>
</g>
</g>
<!-- GDE&#45;&gt;M -->
<g id="edge3" class="edge">
<title>GDE-&gt;M</title>
<g id="a_edge3"><a xlink:href="bogus" xlink:title="NA">
<path fill="none" stroke="black" stroke-width="0.5" d="M555.81,-244.04C597.48,-260.81 659.08,-285.62 699.86,-302.03"/>
<polygon fill="black" stroke="black" stroke-width="0.5" points="698.66,-305.32 709.24,-305.81 701.28,-298.83 698.66,-305.32"/>
</a>
</g>
</g>
<!-- I&#45;&gt;Y -->
<g id="edge5" class="edge">
<title>I-&gt;Y</title>
<g id="a_edge5"><a xlink:href="bogus" xlink:title="NA">
<path fill="none" stroke="black" stroke-width="0.5" d="M190.39,-47.42C160.21,-50.24 119.22,-56.15 90,-77 65.16,-94.72 48.87,-125.72 39.25,-148.47"/>
<polygon fill="black" stroke="black" stroke-width="0.5" points="35.91,-147.37 35.41,-157.96 42.4,-150 35.91,-147.37"/>
</a>
</g>
</g>
<!-- I&#45;&gt;GDE -->
<g id="edge10" class="edge">
<title>I-&gt;GDE</title>
<g id="a_edge10"><a xlink:href="bogus" xlink:title="NA">
<path fill="none" stroke="black" stroke-width="0.5" d="M272.8,-41.75C302.31,-43.9 342.37,-50.26 373,-68 428.2,-99.97 471.86,-162.81 493.7,-198.86"/>
<polygon fill="black" stroke="black" stroke-width="0.5" points="490.91,-201.03 499.02,-207.84 496.93,-197.46 490.91,-201.03"/>
</a>
</g>
</g>
</g>
</svg>