<svg xmlns="http://www.w3.org/2000/svg" xmlns:xlink="http://www.w3.org/1999/xlink" width="432pt" height="142pt" viewBox="0.00 0.00 432.00 142.18">
<g id="graph0" class="graph" transform="scale(0.581505 0.581505) rotate(0) translate(4 240.5)">
<title>TD</title>
<polygon fill="white" stroke="none" points="-4,4 -4,-240.5 738.9,-240.5 738.9,4 -4,4"/>
<text text-anchor="middle" x="367.45" y="-7.2" font-family="Times New Roman,serif" font-size="14.00">A_model_graph</text>
<!-- CONSUMPTION(&#45;1) -->
<g id="node1" class="node">
<title>CONSUMPTION(-1)</title>
<g id="a_node1"><a xlink:title="CONSUMPTION
FRML &lt;&gt; CONSUMPTION = MUL * GDP(-1) $">
<polygon fill="springgreen" stroke="black" points="232.1,-121.5 0,-121.5 0,-85.5 232.1,-85.5 232.1,-121.5"/>
<text text-anchor="start" x="5.8" y="-98.45" font-family="Times New Roman,serif" font-size="14.00" fill="blue">CONSUMPTION(-1):CONSUMPTION</text>
</a>
</g>
</g>
<!-- INVESTMENT -->
<g id="node4" class="node">
<title>INVESTMENT</title>
<g id="a_node4"><a xlink:title="INVESTMENT
FRML &lt;&gt; INVESTMENT = ACC * (CONSUMPTION-CONSUMPTION(-1)) + EXO_INVESTMENT $">
<polygon fill="#63b8ff" stroke="black" points="369.7,-186.5 268.1,-186.5 268.1,-150.5 369.7,-150.5 369.7,-186.5"/>
<text text-anchor="start" x="273.9" y="-163.45" font-family="Times New Roman,serif" font-size="14.00" fill="blue">INVESTMENT:</text>
</a>
</g>
</g>
<!-- CONSUMPTION(&#45;1)&#45;&gt;INVESTMENT -->
<g id="edge4" class="edge">
<title>CONSUMPTION(-1)-&gt;INVESTMENT</title>
<g id="a_edge4"><a xlink:href="bogus" xlink:title="NA">
<path fill="none" stroke="black" stroke-width="0.5" d="M182.06,-121.98C198.45,-126.84 215.97,-132.21 232.1,-137.5 240.92,-140.39 250.21,-143.59 259.27,-146.8"/>
<polygon fill="black" stroke="black" stroke-width="0.5" points="258.02,-150.07 268.62,-150.13 260.38,-143.47 258.02,-150.07"/>
</a>
</g>
</g>
<!-- GDP(&#45;1) -->
<g id="node2" class="node">
<title>GDP(-1)</title>
<g id="a_node2"><a xlink:title="GDP
FRML &lt;&gt; GDP = CONSUMPTION+INVESTMENT   $">
<polygon fill="springgreen" stroke="black" points="585.3,-152.5 495.7,-152.5 495.7,-116.5 585.3,-116.5 585.3,-152.5"/>
<text text-anchor="start" x="501.5" y="-129.45" font-family="Times New Roman,serif" font-size="14.00" fill="blue">GDP(-1):GDP</text>
</a>
</g>
</g>
<!-- CONSUMPTION -->
<g id="node3" class="node">
<title>CONSUMPTION</title>
<g id="a_node3"><a xlink:title="CONSUMPTION
FRML &lt;&gt; CONSUMPTION = MUL * GDP(-1) $">
<polygon fill="#63b8ff" stroke="black" points="734.9,-152.5 621.3,-152.5 621.3,-116.5 734.9,-116.5 734.9,-152.5"/>
<text text-anchor="start" x="627.1" y="-129.45" font-family="Times New Roman,serif" font-size="14.00" fill="blue">CONSUMPTION:</text>
</a>
</g>
</g>
<!-- GDP(&#45;1)&#45;&gt;CONSUMPTION -->
<g id="edge1" class="edge">
<title>GDP(-1)-&gt;CONSUMPTION</title>
<g id="a_edge1"><a xlink:href="bogus" xlink:title="NA">
<path fill="none" stroke="black" stroke-width="0.5" d="M585.53,-134.5C593.73,-134.5 602.46,-134.5 611.16,-134.5"/>
<polygon fill="black" stroke="black" stroke-width="0.5" points="610.93,-138 620.93,-134.5 610.93,-131 610.93,-138"/>
</a>
</g>
</g>
<!-- CONSUMPTION&#45;&gt;CONSUMPTION(&#45;1) -->
<g id="edge3" class="edge">
<title>CONSUMPTION-&gt;CONSUMPTION(-1)</title>
<g id="a_edge3"><a xlink:href="bogus" xlink:title="NA">
<path fill="none" stroke="black" stroke-width="0.5" d="M623.78,-116.11C611.3,-112.57 597.95,-109.38 585.3,-107.5 469.96,-90.39 336.89,-91.19 242.15,-95.21"/>
<polygon fill="black" stroke="black" stroke-width="0.5" points="242.07,-91.71 232.24,-95.65 242.38,-98.71 242.07,-91.71"/>
</a>
</g>
</g>
<!-- CONSUMPTION&#45;&gt;INVESTMENT -->
<g id="edge10" class="edge">
<title>CONSUMPTION-&gt;INVESTMENT</title>
<g id="a_edge10"><a xlink:href="bogus" xlink:title="NA">
<path fill="none" stroke="black" stroke-width="0.5" d="M644.95,-152.97C627.77,-162.04 605.96,-172.32 585.3,-178.5 508.49,-201.48 484.95,-207.67 405.7,-195.5 396.97,-194.16 387.91,-192.09 379.1,-189.69"/>
<polygon fill="black" stroke="black" stroke-width="0.5" points="380.23,-186.37 369.65,-186.96 378.29,-193.1 380.23,-186.37"/>
</a>
</g>
</g>
<!-- GDP -->
<g id="node8" class="node">
<title>GDP</title>
<g id="a_node8"><a xlink:title="GDP
FRML &lt;&gt; GDP = CONSUMPTION+INVESTMENT   $">
<polygon fill="#63b8ff" stroke="black" points="459.7,-186.5 405.7,-186.5 405.7,-150.5 459.7,-150.5 459.7,-186.5"/>
<text text-anchor="start" x="417.32" y="-163.45" font-family="Times New Roman,serif" font-size="14.00" fill="blue">GDP:</text>
</a>
</g>
</g>
<!-- CONSUMPTION&#45;&gt;GDP -->
<g id="edge5" class="edge">
<title>CONSUMPTION-&gt;GDP</title>
<g id="a_edge5"><a xlink:href="bogus" xlink:title="NA">
<path fill="none" stroke="black" stroke-width="0.5" d="M622.26,-152.95C610.21,-156.35 597.42,-159.47 585.3,-161.5 546.31,-168.04 500.95,-169.32 470.08,-169.25"/>
<polygon fill="black" stroke="black" stroke-width="0.5" points="470.22,-165.76 460.19,-169.19 470.17,-172.76 470.22,-165.76"/>
</a>
</g>
</g>
<!-- INVESTMENT&#45;&gt;GDP -->
<g id="edge2" class="edge">
<title>INVESTMENT-&gt;GDP</title>
<g id="a_edge2"><a xlink:href="bogus" xlink:title="NA">
<path fill="none" stroke="black" stroke-width="0.5" d="M369.91,-168.5C378.5,-168.5 387.27,-168.5 395.41,-168.5"/>
<polygon fill="black" stroke="black" stroke-width="0.5" points="395.31,-172 405.31,-168.5 395.31,-165 395.31,-172"/>
</a>
</g>
</g>
<!-- MUL -->
<g id="node5" class="node">
<title>MUL</title>
<g id="a_node5"><a xlink:title="MUL
Exogen">
<polygon fill="yellow" stroke="black" points="567.5,-60.5 513.5,-60.5 513.5,-24.5 567.5,-24.5 567.5,-60.5"/>
<text text-anchor="start" x="523.25" y="-37.45" font-family="Times New Roman,serif" font-size="14.00" fill="blue">MUL:</text>
</a>
</g>
</g>
<!-- MUL&#45;&gt;CONSUMPTION -->
<g id="edge8" class="edge">
<title>MUL-&gt;CONSUMPTION</title>
<g id="a_edge8"><a xlink:href="bogus" xlink:title="NA">
<path fill="none" stroke="black" stroke-width="0.5" d="M567.97,-60.46C589.11,-74.8 618.92,-95.03 642.05,-110.72"/>
<polygon fill="black" stroke="black" stroke-width="0.5" points="640,-113.56 650.24,-116.27 643.93,-107.76 640,-113.56"/>
</a>
</g>
</g>
<!-- EXO_INVESTMENT -->
<g id="node6" class="node">
<title>EXO_INVESTMENT</title>
<g id="a_node6"><a xlink:title="EXO_INVESTMENT
Exogen">
<polygon fill="yellow" stroke="black" points="184.1,-236.5 48,-236.5 48,-200.5 184.1,-200.5 184.1,-236.5"/>
<text text-anchor="start" x="53.8" y="-213.45" font-family="Times New Roman,serif" font-size="14.00" fill="blue">EXO_INVESTMENT:</text>
</a>
</g>
</g>
<!-- EXO_INVESTMENT&#45;&gt;INVESTMENT -->
<g id="edge7" class="edge">
<title>EXO_INVESTMENT-&gt;INVESTMENT</title>
<g id="a_edge7"><a xlink:href="bogus" xlink:title="NA">
<path fill="none" stroke="black" stroke-width="0.5" d="M184.36,-203.08C200.05,-199.38 216.68,-195.38 232.1,-191.5 240.56,-189.37 249.47,-187.07 258.21,-184.76"/>
<polygon fill="black" stroke="black" stroke-width="0.5" points="258.84,-188.21 267.61,-182.26 257.05,-181.45 258.84,-188.21"/>
</a>
</g>
</g>
<!-- ACC -->
<g id="node7" class="node">
<title>ACC</title>
<g id="a_node7"><a xlink:title="ACC
Exogen">
<polygon fill="yellow" stroke="black" points="143.05,-182.5 89.05,-182.5 89.05,-146.5 143.05,-146.5 143.05,-182.5"/>
<text text-anchor="start" x="100.3" y="-159.45" font-family="Times New Roman,serif" font-size="14.00" fill="blue">ACC:</text>
</a>
</g>
</g>
<!-- ACC&#45;&gt;INVESTMENT -->
<g id="edge9" class="edge">
<title>ACC-&gt;INVESTMENT</title>
<g id="a_edge9"><a xlink:href="bogus" xlink:title="NA">
<path fill="none" stroke="black" stroke-width="0.5" d="M143.31,-165.02C172.2,-165.6 219.6,-166.54 257.72,-167.3"/>
<polygon fill="black" stroke="black" stroke-width="0.5" points="257.64,-170.8 267.7,-167.5 257.77,-163.8 257.64,-170.8"/>
</a>
</g>
</g>
<!-- GDP&#45;&gt;GDP(&#45;1) -->
<g id="edge6" class="edge">
<title>GDP-&gt;GDP(-1)</title>
<g id="a_edge6"><a xlink:href="bogus" xlink:title="NA">
<path fill="none" stroke="black" stroke-width="0.5" d="M460.12,-160.01C468.03,-157.47 477,-154.59 485.99,-151.7"/>
<polygon fill="black" stroke="black" stroke-width="0.5" points="486.87,-155.09 495.32,-148.7 484.73,-148.43 486.87,-155.09"/>
</a>
</g>
</g>
</g>
</svg>