<svg xmlns="http://www.w3.org/2000/svg" xmlns:xlink="http://www.w3.org/1999/xlink" width="432pt" height="100pt" viewBox="0.00 0.00 432.00 100.11">
<g id="graph0" class="graph" transform="scale(0.472131 0.472131) rotate(0) translate(4 208.03)">
<title>TD</title>
<polygon fill="white" stroke="none" points="-4,4 -4,-208.03 911,-208.03 911,4 -4,4"/>
<text text-anchor="middle" x="453.5" y="-7.2" font-family="Times New Roman,serif" font-size="14.00">A_model_graph</text>
<!-- EXO_INVESTMENT -->
<g id="node1" class="node">
<title>EXO_INVESTMENT</title>
<g id="a_node1"><a xlink:title="EXO_INVESTMENT
Exogen">
<polygon fill="yellow" stroke="black" points="136.1,-198.5 0,-198.5 0,-162.5 136.1,-162.5 136.1,-198.5"/>
<text text-anchor="start" x="5.8" y="-175.45" font-family="Times New Roman,serif" font-size="14.00" fill="blue">EXO_INVESTMENT:</text>
</a>
</g>
</g>
<!-- INVESTMENT -->
<g id="node4" class="node">
<title>INVESTMENT</title>
<g id="a_node4"><a xlink:title="INVESTMENT
FRML &lt;&gt; INVESTMENT = ACC * (CONSUMPTION-CONSUMPTION(-1))  + EXO_INVESTMENT $">
<polygon fill="#63b8ff" stroke="black" points="273.7,-171.5 172.1,-171.5 172.1,-135.5 273.7,-135.5 273.7,-171.5"/>
<text text-anchor="start" x="177.9" y="-148.45" font-family="Times New Roman,serif" font-size="14.00" fill="blue">INVESTMENT:</text>
</a>
</g>
</g>
<!-- EXO_INVESTMENT&#45;&gt;INVESTMENT -->
<g id="edge7" class="edge">
<title>EXO_INVESTMENT-&gt;INVESTMENT</title>
<g id="a_edge7"><a xlink:href="bogus" xlink:title="NA">
<path fill="none" stroke="black" stroke-width="0.5" d="M136.54,-168.58C145.04,-167.08 153.7,-165.55 162.08,-164.07"/>
<polygon fill="black" stroke="black" stroke-width="0.5" points="162.52,-167.54 171.76,-162.36 161.3,-160.65 162.52,-167.54"/>
</a>
</g>
</g>
<!-- CONSUMPTION(&#45;1) -->
<g id="node2" class="node">
<title>CONSUMPTION(-1)</title>
<g id="a_node2"><a xlink:title="CONSUMPTION
FRML &lt;&gt; CONSUMPTION = MUL * GDP(-1) $">
<polygon fill="springgreen" stroke="black" points="907,-190.5 674.9,-190.5 674.9,-154.5 907,-154.5 907,-190.5"/>
<text text-anchor="start" x="680.7" y="-167.45" font-family="Times New Roman,serif" font-size="14.00" fill="blue">CONSUMPTION(-1):CONSUMPTION</text>
</a>
</g>
</g>
<!-- CONSUMPTION(&#45;1)&#45;&gt;INVESTMENT -->
<g id="edge8" class="edge">
<title>CONSUMPTION(-1)-&gt;INVESTMENT</title>
<g id="a_edge8"><a xlink:href="bogus" xlink:title="NA">
<path fill="none" stroke="black" stroke-width="0.5" d="M674.5,-190.95C596.73,-200.81 491.9,-209.13 399.7,-199.5 360.12,-195.37 316.86,-184.14 283.16,-173.81"/>
<polygon fill="black" stroke="black" stroke-width="0.5" points="284.51,-170.57 273.92,-170.93 282.42,-177.25 284.51,-170.57"/>
</a>
</g>
</g>
<!-- GDP -->
<g id="node3" class="node">
<title>GDP</title>
<g id="a_node3"><a xlink:title="GDP
FRML &lt;&gt; GDP = CONSUMPTION+INVESTMENT   $">
<polygon fill="#63b8ff" stroke="black" points="363.7,-171.5 309.7,-171.5 309.7,-135.5 363.7,-135.5 363.7,-171.5"/>
<text text-anchor="start" x="321.32" y="-148.45" font-family="Times New Roman,serif" font-size="14.00" fill="blue">GDP:</text>
</a>
</g>
</g>
<!-- GDP(&#45;1) -->
<g id="node8" class="node">
<title>GDP(-1)</title>
<g id="a_node8"><a xlink:title="GDP
FRML &lt;&gt; GDP = CONSUMPTION+INVESTMENT   $">
<polygon fill="springgreen" stroke="black" points="489.3,-190.5 399.7,-190.5 399.7,-154.5 489.3,-154.5 489.3,-190.5"/>
<text text-anchor="start" x="405.5" y="-167.45" font-family="Times New Roman,serif" font-size="14.00" fill="blue">GDP(-1):GDP</text>
</a>
</g>
</g>
<!-- GDP&#45;&gt;GDP(&#45;1) -->
<g id="edge4" class="edge">
<title>GDP-&gt;GDP(-1)</title>
<g id="a_edge4"><a xlink:href="bogus" xlink:title="NA">
<path fill="none" stroke="black" stroke-width="0.5" d="M364.12,-158.25C371.95,-159.65 380.81,-161.24 389.7,-162.84"/>
<polygon fill="black" stroke="black" stroke-width="0.5" points="388.86,-166.24 399.32,-164.57 390.1,-159.35 388.86,-166.24"/>
</a>
</g>
</g>
<!-- INVESTMENT&#45;&gt;GDP -->
<g id="edge6" class="edge">
<title>INVESTMENT-&gt;GDP</title>
<g id="a_edge6"><a xlink:href="bogus" xlink:title="NA">
<path fill="none" stroke="black" stroke-width="0.5" d="M273.91,-153.5C282.5,-153.5 291.27,-153.5 299.41,-153.5"/>
<polygon fill="black" stroke="black" stroke-width="0.5" points="299.31,-157 309.31,-153.5 299.31,-150 299.31,-157"/>
</a>
</g>
</g>
<!-- MUL -->
<g id="node5" class="node">
<title>MUL</title>
<g id="a_node5"><a xlink:title="MUL
Exogen">
<polygon fill="yellow" stroke="black" points="471.5,-60.5 417.5,-60.5 417.5,-24.5 471.5,-24.5 471.5,-60.5"/>
<text text-anchor="start" x="427.25" y="-37.45" font-family="Times New Roman,serif" font-size="14.00" fill="blue">MUL:</text>
</a>
</g>
</g>
<!-- CONSUMPTION -->
<g id="node6" class="node">
<title>CONSUMPTION</title>
<g id="a_node6"><a xlink:title="CONSUMPTION
FRML &lt;&gt; CONSUMPTION = MUL * GDP(-1) $">
<polygon fill="#63b8ff" stroke="black" points="638.9,-144.5 525.3,-144.5 525.3,-108.5 638.9,-108.5 638.9,-144.5"/>
<text text-anchor="start" x="531.1" y="-121.45" font-family="Times New Roman,serif" font-size="14.00" fill="blue">CONSUMPTION:</text>
</a>
</g>
</g>
<!-- MUL&#45;&gt;CONSUMPTION -->
<g id="edge5" class="edge">
<title>MUL-&gt;CONSUMPTION</title>
<g id="a_edge5"><a xlink:href="bogus" xlink:title="NA">
<path fill="none" stroke="black" stroke-width="0.5" d="M471.97,-58.9C492.2,-71.43 520.36,-88.88 543.02,-102.91"/>
<polygon fill="black" stroke="black" stroke-width="0.5" points="541.06,-105.81 551.4,-108.1 544.74,-99.86 541.06,-105.81"/>
</a>
</g>
</g>
<!-- CONSUMPTION&#45;&gt;CONSUMPTION(&#45;1) -->
<g id="edge9" class="edge">
<title>CONSUMPTION-&gt;CONSUMPTION(-1)</title>
<g id="a_edge9"><a xlink:href="bogus" xlink:title="NA">
<path fill="none" stroke="black" stroke-width="0.5" d="M639.35,-139.01C657.24,-142.99 677.52,-147.5 697.28,-151.89"/>
<polygon fill="black" stroke="black" stroke-width="0.5" points="696.4,-155.28 706.92,-154.04 697.92,-148.45 696.4,-155.28"/>
</a>
</g>
</g>
<!-- CONSUMPTION&#45;&gt;GDP -->
<g id="edge1" class="edge">
<title>CONSUMPTION-&gt;GDP</title>
<g id="a_edge1"><a xlink:href="bogus" xlink:title="NA">
<path fill="none" stroke="black" stroke-width="0.5" d="M525.08,-132.02C489.21,-135.64 441.69,-140.59 399.7,-145.5 391.25,-146.49 382.17,-147.62 373.63,-148.72"/>
<polygon fill="black" stroke="black" stroke-width="0.5" points="373.4,-145.22 363.93,-149.97 374.3,-152.16 373.4,-145.22"/>
</a>
</g>
</g>
<!-- CONSUMPTION&#45;&gt;INVESTMENT -->
<g id="edge10" class="edge">
<title>CONSUMPTION-&gt;INVESTMENT</title>
<g id="a_edge10"><a xlink:href="bogus" xlink:title="NA">
<path fill="none" stroke="black" stroke-width="0.5" d="M524.84,-121.55C469.69,-117.85 383.4,-115.18 309.7,-126.5 300.97,-127.84 291.91,-129.91 283.1,-132.31"/>
<polygon fill="black" stroke="black" stroke-width="0.5" points="282.29,-128.9 273.65,-135.04 284.23,-135.63 282.29,-128.9"/>
</a>
</g>
</g>
<!-- ACC -->
<g id="node7" class="node">
<title>ACC</title>
<g id="a_node7"><a xlink:title="ACC
Exogen">
<polygon fill="yellow" stroke="black" points="95.05,-144.5 41.05,-144.5 41.05,-108.5 95.05,-108.5 95.05,-144.5"/>
<text text-anchor="start" x="52.3" y="-121.45" font-family="Times New Roman,serif" font-size="14.00" fill="blue">ACC:</text>
</a>
</g>
</g>
<!-- ACC&#45;&gt;INVESTMENT -->
<g id="edge2" class="edge">
<title>ACC-&gt;INVESTMENT</title>
<g id="a_edge2"><a xlink:href="bogus" xlink:title="NA">
<path fill="none" stroke="black" stroke-width="0.5" d="M95.33,-131.14C113.7,-134.39 138.99,-138.86 162.15,-142.94"/>
<polygon fill="black" stroke="black" stroke-width="0.5" points="161.45,-146.38 171.91,-144.67 162.67,-139.48 161.45,-146.38"/>
</a>
</g>
</g>
<!-- GDP(&#45;1)&#45;&gt;CONSUMPTION -->
<g id="edge3" class="edge">
<title>GDP(-1)-&gt;CONSUMPTION</title>
<g id="a_edge3"><a xlink:href="bogus" xlink:title="NA">
<path fill="none" stroke="black" stroke-width="0.5" d="M489.53,-157.57C498.46,-154.54 508.02,-151.29 517.47,-148.08"/>
<polygon fill="black" stroke="black" stroke-width="0.5" points="518.52,-151.43 526.86,-144.9 516.27,-144.8 518.52,-151.43"/>
</a>
</g>
</g>
</g>
</svg>