<svg xmlns="http://www.w3.org/2000/svg" xmlns:xlink="http://www.w3.org/1999/xlink" width="432pt" height="110pt" viewBox="0.00 0.00 432.00 110.24">
<g id="graph0" class="graph" transform="scale(0.472131 0.472131) rotate(0) translate(4 229.5)">
<title>TD</title>
<polygon fill="white" stroke="none" points="-4,4 -4,-229.5 911,-229.5 911,4 -4,4"/>
<text text-anchor="middle" x="453.5" y="-7.2" font-family="Times New Roman,serif" font-size="14.00">A_model_graph</text>
<!-- ACC -->
<g id="node1" class="node">
<title>ACC</title>
<g id="a_node1"><a xlink:title="ACC
Exogen">
<polygon fill="yellow" stroke="black" points="95.05,-114.5 41.05,-114.5 41.05,-78.5 95.05,-78.5 95.05,-114.5"/>
<text text-anchor="start" x="52.3" y="-91.45" font-family="Times New Roman,serif" font-size="14.00" fill="blue">ACC:</text>
</a>
</g>
</g>
<!-- INVESTMENT -->
<g id="node4" class="node">
<title>INVESTMENT</title>
<g id="a_node4"><a xlink:title="INVESTMENT
FRML &lt;&gt; INVESTMENT = ACC * (CONSUMPTION-CONSUMPTION(-1))  + EXO_INVESTMENT $">
<polygon fill="#63b8ff" stroke="black" points="273.7,-87.5 172.1,-87.5 172.1,-51.5 273.7,-51.5 273.7,-87.5"/>
<text text-anchor="start" x="177.9" y="-64.45" font-family="Times New Roman,serif" font-size="14.00" fill="blue">INVESTMENT:</text>
</a>
</g>
</g>
<!-- ACC&#45;&gt;INVESTMENT -->
<g id="edge10" class="edge">
<title>ACC-&gt;INVESTMENT</title>
<g id="a_edge10"><a xlink:href="bogus" xlink:title="NA">
<path fill="none" stroke="black" stroke-width="0.5" d="M95.33,-91.86C113.7,-88.61 138.99,-84.14 162.15,-80.06"/>
<polygon fill="black" stroke="black" stroke-width="0.5" points="162.67,-83.52 171.91,-78.33 161.45,-76.62 162.67,-83.52"/>
</a>
</g>
</g>
<!-- MUL -->
<g id="node2" class="node">
<title>MUL</title>
<g id="a_node2"><a xlink:title="MUL
Exogen">
<polygon fill="yellow" stroke="black" points="471.5,-225.5 417.5,-225.5 417.5,-189.5 471.5,-189.5 471.5,-225.5"/>
<text text-anchor="start" x="427.25" y="-202.45" font-family="Times New Roman,serif" font-size="14.00" fill="blue">MUL:</text>
</a>
</g>
</g>
<!-- CONSUMPTION -->
<g id="node8" class="node">
<title>CONSUMPTION</title>
<g id="a_node8"><a xlink:title="CONSUMPTION
FRML &lt;&gt; CONSUMPTION = MUL * GDP(-1) $">
<polygon fill="#63b8ff" stroke="black" points="638.9,-133.5 525.3,-133.5 525.3,-97.5 638.9,-97.5 638.9,-133.5"/>
<text text-anchor="start" x="531.1" y="-110.45" font-family="Times New Roman,serif" font-size="14.00" fill="blue">CONSUMPTION:</text>
</a>
</g>
</g>
<!-- MUL&#45;&gt;CONSUMPTION -->
<g id="edge1" class="edge">
<title>MUL-&gt;CONSUMPTION</title>
<g id="a_edge1"><a xlink:href="bogus" xlink:title="NA">
<path fill="none" stroke="black" stroke-width="0.5" d="M471.97,-189.54C493.11,-175.2 522.92,-154.97 546.05,-139.28"/>
<polygon fill="black" stroke="black" stroke-width="0.5" points="547.93,-142.24 554.24,-133.73 544,-136.44 547.93,-142.24"/>
</a>
</g>
</g>
<!-- EXO_INVESTMENT -->
<g id="node3" class="node">
<title>EXO_INVESTMENT</title>
<g id="a_node3"><a xlink:title="EXO_INVESTMENT
Exogen">
<polygon fill="yellow" stroke="black" points="136.1,-60.5 0,-60.5 0,-24.5 136.1,-24.5 136.1,-60.5"/>
<text text-anchor="start" x="5.8" y="-37.45" font-family="Times New Roman,serif" font-size="14.00" fill="blue">EXO_INVESTMENT:</text>
</a>
</g>
</g>
<!-- EXO_INVESTMENT&#45;&gt;INVESTMENT -->
<g id="edge4" class="edge">
<title>EXO_INVESTMENT-&gt;INVESTMENT</title>
<g id="a_edge4"><a xlink:href="bogus" xlink:title="NA">
<path fill="none" stroke="black" stroke-width="0.5" d="M136.54,-54.42C145.04,-55.92 153.7,-57.45 162.08,-58.93"/>
<polygon fill="black" stroke="black" stroke-width="0.5" points="161.3,-62.35 171.76,-60.64 162.52,-55.46 161.3,-62.35"/>
</a>
</g>
</g>
<!-- GDP -->
<g id="node6" class="node">
<title>GDP</title>
<g id="a_node6"><a xlink:title="GDP
FRML &lt;&gt; GDP = CONSUMPTION+INVESTMENT   $">
<polygon fill="#63b8ff" stroke="black" points="363.7,-133.5 309.7,-133.5 309.7,-97.5 363.7,-97.5 363.7,-133.5"/>
<text text-anchor="start" x="321.32" y="-110.45" font-family="Times New Roman,serif" font-size="14.00" fill="blue">GDP:</text>
</a>
</g>
</g>
<!-- INVESTMENT&#45;&gt;GDP -->
<g id="edge6" class="edge">
<title>INVESTMENT-&gt;GDP</title>
<g id="a_edge6"><a xlink:href="bogus" xlink:title="NA">
<path fill="none" stroke="black" stroke-width="0.5" d="M268.73,-87.94C279.13,-92.23 290.07,-96.73 300.02,-100.82"/>
<polygon fill="black" stroke="black" stroke-width="0.5" points="298.63,-104.03 309.21,-104.6 301.29,-97.56 298.63,-104.03"/>
</a>
</g>
</g>
<!-- GDP(&#45;1) -->
<g id="node5" class="node">
<title>GDP(-1)</title>
<g id="a_node5"><a xlink:title="GDP
FRML &lt;&gt; GDP = CONSUMPTION+INVESTMENT   $">
<polygon fill="springgreen" stroke="black" points="489.3,-133.5 399.7,-133.5 399.7,-97.5 489.3,-97.5 489.3,-133.5"/>
<text text-anchor="start" x="405.5" y="-110.45" font-family="Times New Roman,serif" font-size="14.00" fill="blue">GDP(-1):GDP</text>
</a>
</g>
</g>
<!-- GDP(&#45;1)&#45;&gt;CONSUMPTION -->
<g id="edge9" class="edge">
<title>GDP(-1)-&gt;CONSUMPTION</title>
<g id="a_edge9"><a xlink:href="bogus" xlink:title="NA">
<path fill="none" stroke="black" stroke-width="0.5" d="M489.53,-115.5C497.73,-115.5 506.46,-115.5 515.16,-115.5"/>
<polygon fill="black" stroke="black" stroke-width="0.5" points="514.93,-119 524.93,-115.5 514.93,-112 514.93,-119"/>
</a>
</g>
</g>
<!-- GDP&#45;&gt;GDP(&#45;1) -->
<g id="edge5" class="edge">
<title>GDP-&gt;GDP(-1)</title>
<g id="a_edge5"><a xlink:href="bogus" xlink:title="NA">
<path fill="none" stroke="black" stroke-width="0.5" d="M364.12,-115.5C371.86,-115.5 380.62,-115.5 389.42,-115.5"/>
<polygon fill="black" stroke="black" stroke-width="0.5" points="389.32,-119 399.32,-115.5 389.32,-112 389.32,-119"/>
</a>
</g>
</g>
<!-- CONSUMPTION(&#45;1) -->
<g id="node7" class="node">
<title>CONSUMPTION(-1)</title>
<g id="a_node7"><a xlink:title="CONSUMPTION
FRML &lt;&gt; CONSUMPTION = MUL * GDP(-1) $">
<polygon fill="springgreen" stroke="black" points="907,-91.5 674.9,-91.5 674.9,-55.5 907,-55.5 907,-91.5"/>
<text text-anchor="start" x="680.7" y="-68.45" font-family="Times New Roman,serif" font-size="14.00" fill="blue">CONSUMPTION(-1):CONSUMPTION</text>
</a>
</g>
</g>
<!-- CONSUMPTION(&#45;1)&#45;&gt;INVESTMENT -->
<g id="edge3" class="edge">
<title>CONSUMPTION(-1)-&gt;INVESTMENT</title>
<g id="a_edge3"><a xlink:href="bogus" xlink:title="NA">
<path fill="none" stroke="black" stroke-width="0.5" d="M674.62,-71.09C588.87,-69.43 468.98,-67.36 363.7,-66.5 339.7,-66.3 333.7,-66.08 309.7,-66.5 301.25,-66.65 292.34,-66.88 283.59,-67.14"/>
<polygon fill="black" stroke="black" stroke-width="0.5" points="283.68,-63.64 273.8,-67.46 283.91,-70.64 283.68,-63.64"/>
</a>
</g>
</g>
<!-- CONSUMPTION&#45;&gt;INVESTMENT -->
<g id="edge2" class="edge">
<title>CONSUMPTION-&gt;INVESTMENT</title>
<g id="a_edge2"><a xlink:href="bogus" xlink:title="NA">
<path fill="none" stroke="black" stroke-width="0.5" d="M525.24,-97C513.48,-93.69 501.07,-90.63 489.3,-88.5 419.54,-75.9 338.06,-71.58 283.96,-70.14"/>
<polygon fill="black" stroke="black" stroke-width="0.5" points="284.27,-66.64 274.19,-69.9 284.1,-73.64 284.27,-66.64"/>
</a>
</g>
</g>
<!-- CONSUMPTION&#45;&gt;GDP -->
<g id="edge8" class="edge">
<title>CONSUMPTION-&gt;GDP</title>
<g id="a_edge8"><a xlink:href="bogus" xlink:title="NA">
<path fill="none" stroke="black" stroke-width="0.5" d="M527.79,-133.97C515.31,-137.51 501.96,-140.68 489.3,-142.5 449.88,-148.18 438.69,-150.62 399.7,-142.5 390.75,-140.64 381.51,-137.41 372.99,-133.82"/>
<polygon fill="black" stroke="black" stroke-width="0.5" points="374.62,-130.72 364.07,-129.83 371.77,-137.11 374.62,-130.72"/>
</a>
</g>
</g>
<!-- CONSUMPTION&#45;&gt;CONSUMPTION(&#45;1) -->
<g id="edge7" class="edge">
<title>CONSUMPTION-&gt;CONSUMPTION(-1)</title>
<g id="a_edge7"><a xlink:href="bogus" xlink:title="NA">
<path fill="none" stroke="black" stroke-width="0.5" d="M639.35,-104.08C654.89,-100.92 672.25,-97.4 689.49,-93.9"/>
<polygon fill="black" stroke="black" stroke-width="0.5" points="689.95,-97.38 699.05,-91.96 688.55,-90.52 689.95,-97.38"/>
</a>
</g>
</g>
</g>
</svg>