<svg xmlns="http://www.w3.org/2000/svg" xmlns:xlink="http://www.w3.org/1999/xlink" width="313pt" height="339pt" viewBox="0.00 0.00 312.80 338.50">
<g id="graph0" class="graph" transform="scale(1 1) rotate(0) translate(4 334.5)">
<title>TD</title>
<polygon fill="white" stroke="none" points="-4,4 -4,-334.5 308.8,-334.5 308.8,4 -4,4"/>
<text text-anchor="middle" x="152.4" y="-7.2" font-family="Times New Roman,serif" font-size="14.00">_LCR_C62</text>
<!-- _LCR_C62 -->
<g id="node1" class="node">
<title>_LCR_C62</title>
<g id="a_node1"><a xlink:title="_LCR_C62
FRML XX _LCR_C62=_LCR_C25/_LCR_C59 $">
<polygon fill="red" stroke="black" points="304.8,-181.5 227.2,-181.5 227.2,-145.5 304.8,-145.5 304.8,-181.5"/>
<text text-anchor="start" x="233" y="-158.45" font-family="Times New Roman,serif" font-size="14.00" fill="blue">_LCR_C62:</text>
</a>
</g>
</g>
<!-- _LCR_C59 -->
<g id="node2" class="node">
<title>_LCR_C59</title>
<g id="a_node2"><a xlink:title="_LCR_C59
FRML XX _LCR_C59=_LCR_C39-MIN(_LCR_C55,_LCR_C39)-MIN(_LCR_C53,0.75*MAX(_LCR_C39-_LCR_C55,0)) $">
<polygon fill="#63b8ff" stroke="black" points="191.2,-235.5 113.6,-235.5 113.6,-199.5 191.2,-199.5 191.2,-235.5"/>
<text text-anchor="start" x="119.4" y="-212.45" font-family="Times New Roman,serif" font-size="14.00" fill="blue">_LCR_C59:</text>
</a>
</g>
</g>
<!-- _LCR_C59&#45;&gt;_LCR_C62 -->
<g id="edge5" class="edge">
<title>_LCR_C59-&gt;_LCR_C62</title>
<g id="a_edge5"><a xlink:href="bogus" xlink:title="NA">
<path fill="none" stroke="black" stroke-width="0.5" d="M191.49,-199.07C200.11,-194.9 209.36,-190.42 218.29,-186.1"/>
<polygon fill="black" stroke="black" stroke-width="0.5" points="219.6,-189.36 227.08,-181.85 216.55,-183.05 219.6,-189.36"/>
</a>
</g>
</g>
<!-- _LCR_C24 -->
<g id="node3" class="node">
<title>_LCR_C24</title>
<g id="a_node3"><a xlink:title="_LCR_C24
FRML XX _LCR_C24=SUM_EXCEL(_LCR_C20,_LCR_C21,_LCR_C22,_LCR_C23)-MIN(SUM_EXCEL(_LCR_C20,_LCR_C21,_LCR_C22,_LCR_C23),_LCR_C20/0.3,(_LCR_C20+_LCR_C21)/0.6,(_LCR_C20+_LCR_C21+_LCR_C22)/0.85) $">
<polygon fill="#63b8ff" stroke="black" points="77.6,-168.5 0,-168.5 0,-132.5 77.6,-132.5 77.6,-168.5"/>
<text text-anchor="start" x="5.8" y="-145.45" font-family="Times New Roman,serif" font-size="14.00" fill="blue">_LCR_C24:</text>
</a>
</g>
</g>
<!-- _LCR_C25 -->
<g id="node9" class="node">
<title>_LCR_C25</title>
<g id="a_node9"><a xlink:title="_LCR_C25
FRML XX _LCR_C25=_LCR_C11+_LCR_C15-MIN(_LCR_C11+_LCR_C15,_LCR_C24) $">
<polygon fill="#63b8ff" stroke="black" points="191.2,-154.5 113.6,-154.5 113.6,-118.5 191.2,-118.5 191.2,-154.5"/>
<text text-anchor="start" x="119.4" y="-131.45" font-family="Times New Roman,serif" font-size="14.00" fill="blue">_LCR_C25:</text>
</a>
</g>
</g>
<!-- _LCR_C24&#45;&gt;_LCR_C25 -->
<g id="edge1" class="edge">
<title>_LCR_C24-&gt;_LCR_C25</title>
<g id="a_edge1"><a xlink:href="bogus" xlink:title="NA">
<path fill="none" stroke="black" stroke-width="0.5" d="M77.89,-145.72C86.15,-144.68 94.99,-143.58 103.57,-142.5"/>
<polygon fill="black" stroke="black" stroke-width="0.5" points="103.99,-145.97 113.48,-141.26 103.12,-139.03 103.99,-145.97"/>
</a>
</g>
</g>
<!-- _LCR_C11 -->
<g id="node4" class="node">
<title>_LCR_C11</title>
<g id="a_node4"><a xlink:title="_LCR_C11
FRML XX _LCR_C11=SUM_EXCEL(_LCR_C9,_LCR_C10) $">
<polygon fill="#63b8ff" stroke="black" points="77.6,-114.5 0,-114.5 0,-78.5 77.6,-78.5 77.6,-114.5"/>
<text text-anchor="start" x="5.8" y="-91.45" font-family="Times New Roman,serif" font-size="14.00" fill="blue">_LCR_C11:</text>
</a>
</g>
</g>
<!-- _LCR_C11&#45;&gt;_LCR_C25 -->
<g id="edge3" class="edge">
<title>_LCR_C11-&gt;_LCR_C25</title>
<g id="a_edge3"><a xlink:href="bogus" xlink:title="NA">
<path fill="none" stroke="black" stroke-width="0.5" d="M77.89,-110.15C86.33,-113.18 95.38,-116.42 104.13,-119.56"/>
<polygon fill="black" stroke="black" stroke-width="0.5" points="102.88,-122.83 113.48,-122.91 105.24,-116.24 102.88,-122.83"/>
</a>
</g>
</g>
<!-- _LCR_C55 -->
<g id="node5" class="node">
<title>_LCR_C55</title>
<g id="a_node5"><a xlink:title="_LCR_C55
FRML XX _LCR_C55=_53_N144 $">
<polygon fill="#63b8ff" stroke="black" points="77.6,-330.5 0,-330.5 0,-294.5 77.6,-294.5 77.6,-330.5"/>
<text text-anchor="start" x="5.8" y="-307.45" font-family="Times New Roman,serif" font-size="14.00" fill="blue">_LCR_C55:</text>
</a>
</g>
</g>
<!-- _LCR_C55&#45;&gt;_LCR_C59 -->
<g id="edge8" class="edge">
<title>_LCR_C55-&gt;_LCR_C59</title>
<g id="a_edge8"><a xlink:href="bogus" xlink:title="NA">
<path fill="none" stroke="black" stroke-width="0.5" d="M66.55,-294.03C70.31,-291.24 74.1,-288.35 77.6,-285.5 94.3,-271.93 112.05,-255.63 125.97,-242.39"/>
<polygon fill="black" stroke="black" stroke-width="0.5" points="128.07,-245.23 132.87,-235.78 123.22,-240.17 128.07,-245.23"/>
</a>
</g>
</g>
<!-- _LCR_C53 -->
<g id="node6" class="node">
<title>_LCR_C53</title>
<g id="a_node6"><a xlink:title="_LCR_C53
FRML XX _LCR_C53=SUM_EXCEL(_LCR_C42,_LCR_C43,_LCR_C44,_LCR_C45,_LCR_C46,_LCR_C47,_LCR_C48,_LCR_C49,_LCR_C50,_LCR_C51,_LCR_C52) $">
<polygon fill="#63b8ff" stroke="black" points="77.6,-276.5 0,-276.5 0,-240.5 77.6,-240.5 77.6,-276.5"/>
<text text-anchor="start" x="5.8" y="-253.45" font-family="Times New Roman,serif" font-size="14.00" fill="blue">_LCR_C53:</text>
</a>
</g>
</g>
<!-- _LCR_C53&#45;&gt;_LCR_C59 -->
<g id="edge6" class="edge">
<title>_LCR_C53-&gt;_LCR_C59</title>
<g id="a_edge6"><a xlink:href="bogus" xlink:title="NA">
<path fill="none" stroke="black" stroke-width="0.5" d="M77.89,-244.5C86.33,-241.4 95.38,-238.08 104.13,-234.87"/>
<polygon fill="black" stroke="black" stroke-width="0.5" points="105.3,-238.17 113.48,-231.43 102.88,-231.6 105.3,-238.17"/>
</a>
</g>
</g>
<!-- _LCR_C15 -->
<g id="node7" class="node">
<title>_LCR_C15</title>
<g id="a_node7"><a xlink:title="_LCR_C15
FRML XX _LCR_C15=SUM_EXCEL(_LCR_C12,_LCR_C13,_LCR_C14) $">
<polygon fill="#63b8ff" stroke="black" points="77.6,-60.5 0,-60.5 0,-24.5 77.6,-24.5 77.6,-60.5"/>
<text text-anchor="start" x="5.8" y="-37.45" font-family="Times New Roman,serif" font-size="14.00" fill="blue">_LCR_C15:</text>
</a>
</g>
</g>
<!-- _LCR_C15&#45;&gt;_LCR_C25 -->
<g id="edge4" class="edge">
<title>_LCR_C15-&gt;_LCR_C25</title>
<g id="a_edge4"><a xlink:href="bogus" xlink:title="NA">
<path fill="none" stroke="black" stroke-width="0.5" d="M66.53,-61C70.3,-63.78 74.08,-66.66 77.6,-69.5 93.97,-82.7 111.42,-98.46 125.24,-111.38"/>
<polygon fill="black" stroke="black" stroke-width="0.5" points="122.84,-113.92 132.52,-118.23 127.64,-108.83 122.84,-113.92"/>
</a>
</g>
</g>
<!-- _LCR_C39 -->
<g id="node8" class="node">
<title>_LCR_C39</title>
<g id="a_node8"><a xlink:title="_LCR_C39
FRML XX _LCR_C39=SUM_EXCEL(_LCR_C28,_LCR_C29,_LCR_C30,_LCR_C31,_LCR_C32,_LCR_C33,_LCR_C34,_LCR_C35,_LCR_C36,_LCR_C37,_LCR_C38) $">
<polygon fill="#63b8ff" stroke="black" points="77.6,-222.5 0,-222.5 0,-186.5 77.6,-186.5 77.6,-222.5"/>
<text text-anchor="start" x="5.8" y="-199.45" font-family="Times New Roman,serif" font-size="14.00" fill="blue">_LCR_C39:</text>
</a>
</g>
</g>
<!-- _LCR_C39&#45;&gt;_LCR_C59 -->
<g id="edge7" class="edge">
<title>_LCR_C39-&gt;_LCR_C59</title>
<g id="a_edge7"><a xlink:href="bogus" xlink:title="NA">
<path fill="none" stroke="black" stroke-width="0.5" d="M77.89,-208.94C86.15,-209.9 94.99,-210.93 103.57,-211.93"/>
<polygon fill="black" stroke="black" stroke-width="0.5" points="103.14,-215.4 113.48,-213.08 103.95,-208.45 103.14,-215.4"/>
</a>
</g>
</g>
<!-- _LCR_C25&#45;&gt;_LCR_C62 -->
<g id="edge2" class="edge">
<title>_LCR_C25-&gt;_LCR_C62</title>
<g id="a_edge2"><a xlink:href="bogus" xlink:title="NA">
<path fill="none" stroke="black" stroke-width="0.5" d="M191.49,-145.72C199.84,-147.74 208.78,-149.9 217.45,-152"/>
<polygon fill="black" stroke="black" stroke-width="0.5" points="216.53,-155.38 227.08,-154.33 218.18,-148.57 216.53,-155.38"/>
</a>
</g>
</g>
</g>
</svg>