<svg xmlns="http://www.w3.org/2000/svg" xmlns:xlink="http://www.w3.org/1999/xlink" width="432pt" height="154pt" viewBox="0.00 0.00 432.00 153.91">
<g id="graph0" class="graph" transform="scale(0.581505 0.581505) rotate(0) translate(4 260.68)">
<title>TD</title>
<polygon fill="white" stroke="none" points="-4,4 -4,-260.68 738.9,-260.68 738.9,4 -4,4"/>
<text text-anchor="middle" x="367.45" y="-7.2" font-family="Times New Roman,serif" font-size="14.00">A_model_graph</text>
<!-- GDP(&#45;1) -->
<g id="node1" class="node">
<title>GDP(-1)</title>
<g id="a_node1"><a xlink:title="GDP
FRML &lt;&gt; GDP = CONSUMPTION+INVESTMENT   $">
<polygon fill="springgreen" stroke="black" points="89.6,-106.38 0,-106.38 0,-70.38 89.6,-70.38 89.6,-106.38"/>
<text text-anchor="start" x="5.8" y="-83.33" font-family="Times New Roman,serif" font-size="14.00" fill="blue">GDP(-1):GDP</text>
</a>
</g>
</g>
<!-- CONSUMPTION -->
<g id="node4" class="node">
<title>CONSUMPTION</title>
<g id="a_node4"><a xlink:title="CONSUMPTION
FRML &lt;&gt; CONSUMPTION = MUL * GDP(-1) $">
<polygon fill="#63b8ff" stroke="black" points="239.2,-206.38 125.6,-206.38 125.6,-170.38 239.2,-170.38 239.2,-206.38"/>
<text text-anchor="start" x="131.4" y="-183.33" font-family="Times New Roman,serif" font-size="14.00" fill="blue">CONSUMPTION:</text>
</a>
</g>
</g>
<!-- GDP(&#45;1)&#45;&gt;CONSUMPTION -->
<g id="edge5" class="edge">
<title>GDP(-1)-&gt;CONSUMPTION</title>
<g id="a_edge5"><a xlink:href="bogus" xlink:title="NA">
<path fill="none" stroke="black" stroke-width="0.5" d="M70.67,-106.72C92.65,-122.93 124.86,-146.68 148.88,-164.4"/>
<polygon fill="black" stroke="black" stroke-width="0.5" points="146.56,-167.03 156.69,-170.15 150.72,-161.4 146.56,-167.03"/>
</a>
</g>
</g>
<!-- EXO_INVESTMENT -->
<g id="node2" class="node">
<title>EXO_INVESTMENT</title>
<g id="a_node2"><a xlink:title="EXO_INVESTMENT
Exogen">
<polygon fill="yellow" stroke="black" points="459.3,-137.38 323.2,-137.38 323.2,-101.38 459.3,-101.38 459.3,-137.38"/>
<text text-anchor="start" x="329" y="-114.33" font-family="Times New Roman,serif" font-size="14.00" fill="blue">EXO_INVESTMENT:</text>
</a>
</g>
</g>
<!-- INVESTMENT -->
<g id="node6" class="node">
<title>INVESTMENT</title>
<g id="a_node6"><a xlink:title="INVESTMENT
FRML &lt;&gt; INVESTMENT = ACC * (CONSUMPTION-CONSUMPTION(-1))  + EXO_INVESTMENT $">
<polygon fill="#63b8ff" stroke="black" points="644.9,-160.38 543.3,-160.38 543.3,-124.38 644.9,-124.38 644.9,-160.38"/>
<text text-anchor="start" x="549.1" y="-137.33" font-family="Times New Roman,serif" font-size="14.00" fill="blue">INVESTMENT:</text>
</a>
</g>
</g>
<!-- EXO_INVESTMENT&#45;&gt;INVESTMENT -->
<g id="edge1" class="edge">
<title>EXO_INVESTMENT-&gt;INVESTMENT</title>
<g id="a_edge1"><a xlink:href="bogus" xlink:title="NA">
<path fill="none" stroke="black" stroke-width="0.5" d="M459.69,-127.1C483.52,-129.83 510.14,-132.88 533.3,-135.53"/>
<polygon fill="black" stroke="black" stroke-width="0.5" points="532.66,-138.98 542.99,-136.64 533.45,-132.02 532.66,-138.98"/>
</a>
</g>
</g>
<!-- GDP -->
<g id="node3" class="node">
<title>GDP</title>
<g id="a_node3"><a xlink:title="GDP
FRML &lt;&gt; GDP = CONSUMPTION+INVESTMENT   $">
<polygon fill="#63b8ff" stroke="black" points="734.9,-160.38 680.9,-160.38 680.9,-124.38 734.9,-124.38 734.9,-160.38"/>
<text text-anchor="start" x="692.52" y="-137.33" font-family="Times New Roman,serif" font-size="14.00" fill="blue">GDP:</text>
</a>
</g>
</g>
<!-- GDP&#45;&gt;GDP(&#45;1) -->
<g id="edge6" class="edge">
<title>GDP-&gt;GDP(-1)</title>
<g id="a_edge6"><a xlink:href="bogus" xlink:title="NA">
<path fill="none" stroke="black" stroke-width="0.5" d="M681.42,-123.9C644.97,-98.74 574.86,-54.92 507.3,-38.38 362.63,-2.95 186.3,-44.74 99.44,-70.71"/>
<polygon fill="black" stroke="black" stroke-width="0.5" points="98.61,-67.31 90.05,-73.56 100.64,-74.01 98.61,-67.31"/>
</a>
</g>
</g>
<!-- CONSUMPTION&#45;&gt;GDP -->
<g id="edge9" class="edge">
<title>CONSUMPTION-&gt;GDP</title>
<g id="a_edge9"><a xlink:href="bogus" xlink:title="NA">
<path fill="none" stroke="black" stroke-width="0.5" d="M208.85,-206.77C226.51,-218.35 251.11,-232.24 275.2,-238.38 375.16,-263.83 406.73,-261.31 507.3,-238.38 568.99,-224.31 633.85,-188.66 672.31,-164.99"/>
<polygon fill="black" stroke="black" stroke-width="0.5" points="673.93,-168.1 680.57,-159.84 670.23,-162.16 673.93,-168.1"/>
</a>
</g>
</g>
<!-- CONSUMPTION(&#45;1) -->
<g id="node5" class="node">
<title>CONSUMPTION(-1)</title>
<g id="a_node5"><a xlink:title="CONSUMPTION
FRML &lt;&gt; CONSUMPTION = MUL * GDP(-1) $">
<polygon fill="springgreen" stroke="black" points="507.3,-229.38 275.2,-229.38 275.2,-193.38 507.3,-193.38 507.3,-229.38"/>
<text text-anchor="start" x="281" y="-206.33" font-family="Times New Roman,serif" font-size="14.00" fill="blue">CONSUMPTION(-1):CONSUMPTION</text>
</a>
</g>
</g>
<!-- CONSUMPTION&#45;&gt;CONSUMPTION(&#45;1) -->
<g id="edge8" class="edge">
<title>CONSUMPTION-&gt;CONSUMPTION(-1)</title>
<g id="a_edge8"><a xlink:href="bogus" xlink:title="NA">
<path fill="none" stroke="black" stroke-width="0.5" d="M239.65,-194.63C247.65,-195.52 256.12,-196.46 264.81,-197.43"/>
<polygon fill="black" stroke="black" stroke-width="0.5" points="264.38,-200.9 274.71,-198.53 265.16,-193.95 264.38,-200.9"/>
</a>
</g>
</g>
<!-- CONSUMPTION&#45;&gt;INVESTMENT -->
<g id="edge2" class="edge">
<title>CONSUMPTION-&gt;INVESTMENT</title>
<g id="a_edge2"><a xlink:href="bogus" xlink:title="NA">
<path fill="none" stroke="black" stroke-width="0.5" d="M239.51,-182.08C316.43,-173.44 454.06,-157.99 533.01,-149.12"/>
<polygon fill="black" stroke="black" stroke-width="0.5" points="533.26,-152.62 542.81,-148.02 532.48,-145.66 533.26,-152.62"/>
</a>
</g>
</g>
<!-- CONSUMPTION(&#45;1)&#45;&gt;INVESTMENT -->
<g id="edge4" class="edge">
<title>CONSUMPTION(-1)-&gt;INVESTMENT</title>
<g id="a_edge4"><a xlink:href="bogus" xlink:title="NA">
<path fill="none" stroke="black" stroke-width="0.5" d="M464.52,-192.89C478.81,-188.79 493.61,-184.21 507.3,-179.38 519.49,-175.08 532.4,-169.87 544.41,-164.73"/>
<polygon fill="black" stroke="black" stroke-width="0.5" points="545.61,-168.03 553.39,-160.84 542.82,-161.61 545.61,-168.03"/>
</a>
</g>
</g>
<!-- INVESTMENT&#45;&gt;GDP -->
<g id="edge10" class="edge">
<title>INVESTMENT-&gt;GDP</title>
<g id="a_edge10"><a xlink:href="bogus" xlink:title="NA">
<path fill="none" stroke="black" stroke-width="0.5" d="M645.11,-142.38C653.7,-142.38 662.47,-142.38 670.61,-142.38"/>
<polygon fill="black" stroke="black" stroke-width="0.5" points="670.51,-145.88 680.51,-142.38 670.51,-138.88 670.51,-145.88"/>
</a>
</g>
</g>
<!-- MUL -->
<g id="node7" class="node">
<title>MUL</title>
<g id="a_node7"><a xlink:title="MUL
Exogen">
<polygon fill="yellow" stroke="black" points="71.8,-206.38 17.8,-206.38 17.8,-170.38 71.8,-170.38 71.8,-206.38"/>
<text text-anchor="start" x="27.55" y="-183.33" font-family="Times New Roman,serif" font-size="14.00" fill="blue">MUL:</text>
</a>
</g>
</g>
<!-- MUL&#45;&gt;CONSUMPTION -->
<g id="edge3" class="edge">
<title>MUL-&gt;CONSUMPTION</title>
<g id="a_edge3"><a xlink:href="bogus" xlink:title="NA">
<path fill="none" stroke="black" stroke-width="0.5" d="M72.27,-188.38C84.66,-188.38 100.03,-188.38 115.29,-188.38"/>
<polygon fill="black" stroke="black" stroke-width="0.5" points="115.26,-191.88 125.26,-188.38 115.26,-184.88 115.26,-191.88"/>
</a>
</g>
</g>
<!-- ACC -->
<g id="node8" class="node">
<title>ACC</title>
<g id="a_node8"><a xlink:title="ACC
Exogen">
<polygon fill="yellow" stroke="black" points="418.25,-83.38 364.25,-83.38 364.25,-47.38 418.25,-47.38 418.25,-83.38"/>
<text text-anchor="start" x="375.5" y="-60.33" font-family="Times New Roman,serif" font-size="14.00" fill="blue">ACC:</text>
</a>
</g>
</g>
<!-- ACC&#45;&gt;INVESTMENT -->
<g id="edge7" class="edge">
<title>ACC-&gt;INVESTMENT</title>
<g id="a_edge7"><a xlink:href="bogus" xlink:title="NA">
<path fill="none" stroke="black" stroke-width="0.5" d="M418.51,-69.25C442.28,-73.29 477.95,-80.68 507.3,-92.38 524.87,-99.37 543.13,-109.56 558.27,-118.91"/>
<polygon fill="black" stroke="black" stroke-width="0.5" points="556.01,-121.62 566.34,-123.99 559.74,-115.7 556.01,-121.62"/>
</a>
</g>
</g>
</g>
</svg>