<svg xmlns="http://www.w3.org/2000/svg" xmlns:xlink="http://www.w3.org/1999/xlink" width="432pt" height="129pt" viewBox="0.00 0.00 432.00 129.38">
<g id="graph0" class="graph" transform="scale(0.581505 0.581505) rotate(0) translate(4 218.5)">
<title>TD</title>
<polygon fill="white" stroke="none" points="-4,4 -4,-218.5 738.9,-218.5 738.9,4 -4,4"/>
<text text-anchor="middle" x="367.45" y="-7.2" font-family="Times New Roman,serif" font-size="14.00">A_model_graph</text>
<!-- CONSUMPTION(&#45;1) -->
<g id="node1" class="node">
<title>CONSUMPTION(-1)</title>
<g id="a_node1"><a xlink:title="CONSUMPTION
FRML &lt;&gt; CONSUMPTION = MUL * GDP(-1) $">
<polygon fill="springgreen" stroke="black" points="232.1,-106.5 0,-106.5 0,-70.5 232.1,-70.5 232.1,-106.5"/>
<text text-anchor="start" x="5.8" y="-83.45" font-family="Times New Roman,serif" font-size="14.00" fill="blue">CONSUMPTION(-1):CONSUMPTION</text>
</a>
</g>
</g>
<!-- INVESTMENT -->
<g id="node2" class="node">
<title>INVESTMENT</title>
<g id="a_node2"><a xlink:title="INVESTMENT
FRML &lt;&gt; INVESTMENT = ACC * (CONSUMPTION-CONSUMPTION(-1))  + EXO_INVESTMENT $">
<polygon fill="#63b8ff" stroke="black" points="369.7,-160.5 268.1,-160.5 268.1,-124.5 369.7,-124.5 369.7,-160.5"/>
<text text-anchor="start" x="273.9" y="-137.45" font-family="Times New Roman,serif" font-size="14.00" fill="blue">INVESTMENT:</text>
</a>
</g>
</g>
<!-- CONSUMPTION(&#45;1)&#45;&gt;INVESTMENT -->
<g id="edge10" class="edge">
<title>CONSUMPTION(-1)-&gt;INVESTMENT</title>
<g id="a_edge10"><a xlink:href="bogus" xlink:title="NA">
<path fill="none" stroke="black" stroke-width="0.5" d="M198.95,-106.93C210.12,-109.67 221.42,-112.57 232.1,-115.5 240.62,-117.84 249.56,-120.46 258.32,-123.12"/>
<polygon fill="black" stroke="black" stroke-width="0.5" points="257.14,-126.42 267.73,-126.02 259.2,-119.73 257.14,-126.42"/>
</a>
</g>
</g>
<!-- GDP -->
<g id="node6" class="node">
<title>GDP</title>
<g id="a_node6"><a xlink:title="GDP
FRML &lt;&gt; GDP = CONSUMPTION+INVESTMENT   $">
<polygon fill="#63b8ff" stroke="black" points="459.7,-190.5 405.7,-190.5 405.7,-154.5 459.7,-154.5 459.7,-190.5"/>
<text text-anchor="start" x="417.32" y="-167.45" font-family="Times New Roman,serif" font-size="14.00" fill="blue">GDP:</text>
</a>
</g>
</g>
<!-- INVESTMENT&#45;&gt;GDP -->
<g id="edge8" class="edge">
<title>INVESTMENT-&gt;GDP</title>
<g id="a_edge8"><a xlink:href="bogus" xlink:title="NA">
<path fill="none" stroke="black" stroke-width="0.5" d="M369.91,-155.92C378.59,-158.25 387.47,-160.63 395.68,-162.83"/>
<polygon fill="black" stroke="black" stroke-width="0.5" points="394.75,-166.21 405.31,-165.42 396.56,-159.45 394.75,-166.21"/>
</a>
</g>
</g>
<!-- EXO_INVESTMENT -->
<g id="node3" class="node">
<title>EXO_INVESTMENT</title>
<g id="a_node3"><a xlink:title="EXO_INVESTMENT
Exogen">
<polygon fill="yellow" stroke="black" points="184.1,-214.5 48,-214.5 48,-178.5 184.1,-178.5 184.1,-214.5"/>
<text text-anchor="start" x="53.8" y="-191.45" font-family="Times New Roman,serif" font-size="14.00" fill="blue">EXO_INVESTMENT:</text>
</a>
</g>
</g>
<!-- EXO_INVESTMENT&#45;&gt;INVESTMENT -->
<g id="edge2" class="edge">
<title>EXO_INVESTMENT-&gt;INVESTMENT</title>
<g id="a_edge2"><a xlink:href="bogus" xlink:title="NA">
<path fill="none" stroke="black" stroke-width="0.5" d="M184.49,-181.56C200.17,-177.84 216.77,-173.71 232.1,-169.5 240.62,-167.16 249.56,-164.54 258.32,-161.88"/>
<polygon fill="black" stroke="black" stroke-width="0.5" points="259.2,-165.27 267.73,-158.98 257.14,-158.58 259.2,-165.27"/>
</a>
</g>
</g>
<!-- ACC -->
<g id="node4" class="node">
<title>ACC</title>
<g id="a_node4"><a xlink:title="ACC
Exogen">
<polygon fill="yellow" stroke="black" points="143.05,-160.5 89.05,-160.5 89.05,-124.5 143.05,-124.5 143.05,-160.5"/>
<text text-anchor="start" x="100.3" y="-137.45" font-family="Times New Roman,serif" font-size="14.00" fill="blue">ACC:</text>
</a>
</g>
</g>
<!-- ACC&#45;&gt;INVESTMENT -->
<g id="edge3" class="edge">
<title>ACC-&gt;INVESTMENT</title>
<g id="a_edge3"><a xlink:href="bogus" xlink:title="NA">
<path fill="none" stroke="black" stroke-width="0.5" d="M143.31,-142.5C172.2,-142.5 219.6,-142.5 257.72,-142.5"/>
<polygon fill="black" stroke="black" stroke-width="0.5" points="257.7,-146 267.7,-142.5 257.7,-139 257.7,-146"/>
</a>
</g>
</g>
<!-- CONSUMPTION -->
<g id="node5" class="node">
<title>CONSUMPTION</title>
<g id="a_node5"><a xlink:title="CONSUMPTION
FRML &lt;&gt; CONSUMPTION = MUL * GDP(-1) $">
<polygon fill="#63b8ff" stroke="black" points="734.9,-144.5 621.3,-144.5 621.3,-108.5 734.9,-108.5 734.9,-144.5"/>
<text text-anchor="start" x="627.1" y="-121.45" font-family="Times New Roman,serif" font-size="14.00" fill="blue">CONSUMPTION:</text>
</a>
</g>
</g>
<!-- CONSUMPTION&#45;&gt;CONSUMPTION(&#45;1) -->
<g id="edge7" class="edge">
<title>CONSUMPTION-&gt;CONSUMPTION(-1)</title>
<g id="a_edge7"><a xlink:href="bogus" xlink:title="NA">
<path fill="none" stroke="black" stroke-width="0.5" d="M621.16,-122.7C533.32,-116.74 360.82,-105.04 242.28,-97"/>
<polygon fill="black" stroke="black" stroke-width="0.5" points="242.63,-93.51 232.41,-96.33 242.15,-100.5 242.63,-93.51"/>
</a>
</g>
</g>
<!-- CONSUMPTION&#45;&gt;INVESTMENT -->
<g id="edge1" class="edge">
<title>CONSUMPTION-&gt;INVESTMENT</title>
<g id="a_edge1"><a xlink:href="bogus" xlink:title="NA">
<path fill="none" stroke="black" stroke-width="0.5" d="M620.93,-129.02C555.18,-131.96 446.76,-136.82 379.55,-139.83"/>
<polygon fill="black" stroke="black" stroke-width="0.5" points="379.78,-136.31 369.94,-140.26 380.09,-143.31 379.78,-136.31"/>
</a>
</g>
</g>
<!-- CONSUMPTION&#45;&gt;GDP -->
<g id="edge9" class="edge">
<title>CONSUMPTION-&gt;GDP</title>
<g id="a_edge9"><a xlink:href="bogus" xlink:title="NA">
<path fill="none" stroke="black" stroke-width="0.5" d="M661.34,-144.73C644.58,-162.61 616.25,-188.69 585.3,-199.5 547.7,-212.63 534.69,-207.62 495.7,-199.5 486.75,-197.64 477.51,-194.41 468.99,-190.82"/>
<polygon fill="black" stroke="black" stroke-width="0.5" points="470.62,-187.72 460.07,-186.83 467.77,-194.11 470.62,-187.72"/>
</a>
</g>
</g>
<!-- GDP(&#45;1) -->
<g id="node8" class="node">
<title>GDP(-1)</title>
<g id="a_node8"><a xlink:title="GDP
FRML &lt;&gt; GDP = CONSUMPTION+INVESTMENT   $">
<polygon fill="springgreen" stroke="black" points="585.3,-190.5 495.7,-190.5 495.7,-154.5 585.3,-154.5 585.3,-190.5"/>
<text text-anchor="start" x="501.5" y="-167.45" font-family="Times New Roman,serif" font-size="14.00" fill="blue">GDP(-1):GDP</text>
</a>
</g>
</g>
<!-- GDP&#45;&gt;GDP(&#45;1) -->
<g id="edge5" class="edge">
<title>GDP-&gt;GDP(-1)</title>
<g id="a_edge5"><a xlink:href="bogus" xlink:title="NA">
<path fill="none" stroke="black" stroke-width="0.5" d="M460.12,-172.5C467.86,-172.5 476.62,-172.5 485.42,-172.5"/>
<polygon fill="black" stroke="black" stroke-width="0.5" points="485.32,-176 495.32,-172.5 485.32,-169 485.32,-176"/>
</a>
</g>
</g>
<!-- MUL -->
<g id="node7" class="node">
<title>MUL</title>
<g id="a_node7"><a xlink:title="MUL
Exogen">
<polygon fill="yellow" stroke="black" points="567.5,-60.5 513.5,-60.5 513.5,-24.5 567.5,-24.5 567.5,-60.5"/>
<text text-anchor="start" x="523.25" y="-37.45" font-family="Times New Roman,serif" font-size="14.00" fill="blue">MUL:</text>
</a>
</g>
</g>
<!-- MUL&#45;&gt;CONSUMPTION -->
<g id="edge4" class="edge">
<title>MUL-&gt;CONSUMPTION</title>
<g id="a_edge4"><a xlink:href="bogus" xlink:title="NA">
<path fill="none" stroke="black" stroke-width="0.5" d="M567.97,-58.9C588.2,-71.43 616.36,-88.88 639.02,-102.91"/>
<polygon fill="black" stroke="black" stroke-width="0.5" points="637.06,-105.81 647.4,-108.1 640.74,-99.86 637.06,-105.81"/>
</a>
</g>
</g>
<!-- GDP(&#45;1)&#45;&gt;CONSUMPTION -->
<g id="edge6" class="edge">
<title>GDP(-1)-&gt;CONSUMPTION</title>
<g id="a_edge6"><a xlink:href="bogus" xlink:title="NA">
<path fill="none" stroke="black" stroke-width="0.5" d="M585.53,-157.57C594.46,-154.54 604.02,-151.29 613.47,-148.08"/>
<polygon fill="black" stroke="black" stroke-width="0.5" points="614.52,-151.43 622.86,-144.9 612.27,-144.8 614.52,-151.43"/>
</a>
</g>
</g>
</g>
</svg>