<svg xmlns="http://www.w3.org/2000/svg" xmlns:xlink="http://www.w3.org/1999/xlink" width="432pt" height="91pt" viewBox="0.00 0.00 432.00 91.23">
<g id="graph0" class="graph" transform="scale(0.472131 0.472131) rotate(0) translate(4 189.22)">
<title>TD</title>
<polygon fill="white" stroke="none" points="-4,4 -4,-189.22 911,-189.22 911,4 -4,4"/>
<text text-anchor="middle" x="453.5" y="-7.2" font-family="Times New Roman,serif" font-size="14.00">A_model_graph</text>
<!-- INVESTMENT -->
<g id="node1" class="node">
<title>INVESTMENT</title>
<g id="a_node1"><a xlink:title="INVESTMENT
FRML &lt;&gt; INVESTMENT = ACC * (CONSUMPTION-CONSUMPTION(-1))  + EXO_INVESTMENT $">
<polygon fill="#63b8ff" stroke="black" points="273.7,-98.4 172.1,-98.4 172.1,-62.4 273.7,-62.4 273.7,-98.4"/>
<text text-anchor="start" x="177.9" y="-75.35" font-family="Times New Roman,serif" font-size="14.00" fill="blue">INVESTMENT:</text>
</a>
</g>
</g>
<!-- GDP -->
<g id="node4" class="node">
<title>GDP</title>
<g id="a_node4"><a xlink:title="GDP
FRML &lt;&gt; GDP = CONSUMPTION+INVESTMENT   $">
<polygon fill="#63b8ff" stroke="black" points="363.7,-98.4 309.7,-98.4 309.7,-62.4 363.7,-62.4 363.7,-98.4"/>
<text text-anchor="start" x="321.32" y="-75.35" font-family="Times New Roman,serif" font-size="14.00" fill="blue">GDP:</text>
</a>
</g>
</g>
<!-- INVESTMENT&#45;&gt;GDP -->
<g id="edge3" class="edge">
<title>INVESTMENT-&gt;GDP</title>
<g id="a_edge3"><a xlink:href="bogus" xlink:title="NA">
<path fill="none" stroke="black" stroke-width="0.5" d="M273.91,-80.4C282.5,-80.4 291.27,-80.4 299.41,-80.4"/>
<polygon fill="black" stroke="black" stroke-width="0.5" points="299.31,-83.9 309.31,-80.4 299.31,-76.9 299.31,-83.9"/>
</a>
</g>
</g>
<!-- ACC -->
<g id="node2" class="node">
<title>ACC</title>
<g id="a_node2"><a xlink:title="ACC
Exogen">
<polygon fill="yellow" stroke="black" points="95.05,-125.4 41.05,-125.4 41.05,-89.4 95.05,-89.4 95.05,-125.4"/>
<text text-anchor="start" x="52.3" y="-102.35" font-family="Times New Roman,serif" font-size="14.00" fill="blue">ACC:</text>
</a>
</g>
</g>
<!-- ACC&#45;&gt;INVESTMENT -->
<g id="edge8" class="edge">
<title>ACC-&gt;INVESTMENT</title>
<g id="a_edge8"><a xlink:href="bogus" xlink:title="NA">
<path fill="none" stroke="black" stroke-width="0.5" d="M95.33,-102.76C113.7,-99.51 138.99,-95.05 162.15,-90.96"/>
<polygon fill="black" stroke="black" stroke-width="0.5" points="162.67,-94.42 171.91,-89.23 161.45,-87.52 162.67,-94.42"/>
</a>
</g>
</g>
<!-- GDP(&#45;1) -->
<g id="node3" class="node">
<title>GDP(-1)</title>
<g id="a_node3"><a xlink:title="GDP
FRML &lt;&gt; GDP = CONSUMPTION+INVESTMENT   $">
<polygon fill="springgreen" stroke="black" points="489.3,-75.4 399.7,-75.4 399.7,-39.4 489.3,-39.4 489.3,-75.4"/>
<text text-anchor="start" x="405.5" y="-52.35" font-family="Times New Roman,serif" font-size="14.00" fill="blue">GDP(-1):GDP</text>
</a>
</g>
</g>
<!-- CONSUMPTION -->
<g id="node8" class="node">
<title>CONSUMPTION</title>
<g id="a_node8"><a xlink:title="CONSUMPTION
FRML &lt;&gt; CONSUMPTION = MUL * GDP(-1) $">
<polygon fill="#63b8ff" stroke="black" points="638.9,-121.4 525.3,-121.4 525.3,-85.4 638.9,-85.4 638.9,-121.4"/>
<text text-anchor="start" x="531.1" y="-98.35" font-family="Times New Roman,serif" font-size="14.00" fill="blue">CONSUMPTION:</text>
</a>
</g>
</g>
<!-- GDP(&#45;1)&#45;&gt;CONSUMPTION -->
<g id="edge6" class="edge">
<title>GDP(-1)-&gt;CONSUMPTION</title>
<g id="a_edge6"><a xlink:href="bogus" xlink:title="NA">
<path fill="none" stroke="black" stroke-width="0.5" d="M489.53,-72.34C498.46,-75.37 508.02,-78.61 517.47,-81.82"/>
<polygon fill="black" stroke="black" stroke-width="0.5" points="516.27,-85.1 526.86,-85 518.52,-78.47 516.27,-85.1"/>
</a>
</g>
</g>
<!-- GDP&#45;&gt;GDP(&#45;1) -->
<g id="edge10" class="edge">
<title>GDP-&gt;GDP(-1)</title>
<g id="a_edge10"><a xlink:href="bogus" xlink:title="NA">
<path fill="none" stroke="black" stroke-width="0.5" d="M364.12,-74.66C371.95,-72.96 380.81,-71.03 389.7,-69.1"/>
<polygon fill="black" stroke="black" stroke-width="0.5" points="390.29,-72.55 399.32,-67 388.8,-65.71 390.29,-72.55"/>
</a>
</g>
</g>
<!-- CONSUMPTION(&#45;1) -->
<g id="node5" class="node">
<title>CONSUMPTION(-1)</title>
<g id="a_node5"><a xlink:title="CONSUMPTION
FRML &lt;&gt; CONSUMPTION = MUL * GDP(-1) $">
<polygon fill="springgreen" stroke="black" points="907,-75.4 674.9,-75.4 674.9,-39.4 907,-39.4 907,-75.4"/>
<text text-anchor="start" x="680.7" y="-52.35" font-family="Times New Roman,serif" font-size="14.00" fill="blue">CONSUMPTION(-1):CONSUMPTION</text>
</a>
</g>
</g>
<!-- CONSUMPTION(&#45;1)&#45;&gt;INVESTMENT -->
<g id="edge7" class="edge">
<title>CONSUMPTION(-1)-&gt;INVESTMENT</title>
<g id="a_edge7"><a xlink:href="bogus" xlink:title="NA">
<path fill="none" stroke="black" stroke-width="0.5" d="M683.63,-38.95C604.99,-27.99 495.38,-18.37 399.7,-30.4 359.84,-35.41 316.41,-47.7 282.69,-58.83"/>
<polygon fill="black" stroke="black" stroke-width="0.5" points="281.82,-55.43 273.45,-61.94 284.04,-62.07 281.82,-55.43"/>
</a>
</g>
</g>
<!-- EXO_INVESTMENT -->
<g id="node6" class="node">
<title>EXO_INVESTMENT</title>
<g id="a_node6"><a xlink:title="EXO_INVESTMENT
Exogen">
<polygon fill="yellow" stroke="black" points="136.1,-71.4 0,-71.4 0,-35.4 136.1,-35.4 136.1,-71.4"/>
<text text-anchor="start" x="5.8" y="-48.35" font-family="Times New Roman,serif" font-size="14.00" fill="blue">EXO_INVESTMENT:</text>
</a>
</g>
</g>
<!-- EXO_INVESTMENT&#45;&gt;INVESTMENT -->
<g id="edge1" class="edge">
<title>EXO_INVESTMENT-&gt;INVESTMENT</title>
<g id="a_edge1"><a xlink:href="bogus" xlink:title="NA">
<path fill="none" stroke="black" stroke-width="0.5" d="M136.54,-65.32C145.04,-66.82 153.7,-68.35 162.08,-69.83"/>
<polygon fill="black" stroke="black" stroke-width="0.5" points="161.3,-73.25 171.76,-71.54 162.52,-66.36 161.3,-73.25"/>
</a>
</g>
</g>
<!-- MUL -->
<g id="node7" class="node">
<title>MUL</title>
<g id="a_node7"><a xlink:title="MUL
Exogen">
<polygon fill="yellow" stroke="black" points="471.5,-167.4 417.5,-167.4 417.5,-131.4 471.5,-131.4 471.5,-167.4"/>
<text text-anchor="start" x="427.25" y="-144.35" font-family="Times New Roman,serif" font-size="14.00" fill="blue">MUL:</text>
</a>
</g>
</g>
<!-- MUL&#45;&gt;CONSUMPTION -->
<g id="edge5" class="edge">
<title>MUL-&gt;CONSUMPTION</title>
<g id="a_edge5"><a xlink:href="bogus" xlink:title="NA">
<path fill="none" stroke="black" stroke-width="0.5" d="M471.97,-140.42C484.98,-136.01 501.28,-130.48 517.29,-125.05"/>
<polygon fill="black" stroke="black" stroke-width="0.5" points="518.3,-128.4 526.65,-121.87 516.05,-121.77 518.3,-128.4"/>
</a>
</g>
</g>
<!-- CONSUMPTION&#45;&gt;INVESTMENT -->
<g id="edge2" class="edge">
<title>CONSUMPTION-&gt;INVESTMENT</title>
<g id="a_edge2"><a xlink:href="bogus" xlink:title="NA">
<path fill="none" stroke="black" stroke-width="0.5" d="M565.34,-121.63C548.58,-139.51 520.25,-165.59 489.3,-176.4 451.7,-189.53 438.29,-186.25 399.7,-176.4 345.5,-162.56 290,-128.21 256.23,-104.59"/>
<polygon fill="black" stroke="black" stroke-width="0.5" points="258.31,-101.77 248.13,-98.83 254.26,-107.48 258.31,-101.77"/>
</a>
</g>
</g>
<!-- CONSUMPTION&#45;&gt;GDP -->
<g id="edge9" class="edge">
<title>CONSUMPTION-&gt;GDP</title>
<g id="a_edge9"><a xlink:href="bogus" xlink:title="NA">
<path fill="none" stroke="black" stroke-width="0.5" d="M525.03,-98.1C478.41,-93.7 413.46,-87.56 373.57,-83.79"/>
<polygon fill="black" stroke="black" stroke-width="0.5" points="374.03,-80.32 363.75,-82.86 373.37,-87.29 374.03,-80.32"/>
</a>
</g>
</g>
<!-- CONSUMPTION&#45;&gt;CONSUMPTION(&#45;1) -->
<g id="edge4" class="edge">
<title>CONSUMPTION-&gt;CONSUMPTION(-1)</title>
<g id="a_edge4"><a xlink:href="bogus" xlink:title="NA">
<path fill="none" stroke="black" stroke-width="0.5" d="M639.35,-90.89C657.24,-86.91 677.52,-82.4 697.28,-78.01"/>
<polygon fill="black" stroke="black" stroke-width="0.5" points="697.92,-81.45 706.92,-75.86 696.4,-74.62 697.92,-81.45"/>
</a>
</g>
</g>
</g>
</svg>