<svg xmlns="http://www.w3.org/2000/svg" xmlns:xlink="http://www.w3.org/1999/xlink" width="432pt" height="143pt" viewBox="0.00 0.00 432.00 142.89">
<g id="graph0" class="graph" transform="scale(0.51867 0.51867) rotate(0) translate(4 271.5)">
<title>TD</title>
<polygon fill="white" stroke="none" points="-4,4 -4,-271.5 828.9,-271.5 828.9,4 -4,4"/>
<text text-anchor="middle" x="412.45" y="-7.2" font-family="Times New Roman,serif" font-size="14.00">A_model_graph</text>
<!-- CONSUMPTION -->
<g id="node1" class="node">
<title>CONSUMPTION</title>
<g id="a_node1"><a xlink:title="CONSUMPTION
FRML &lt;&gt; CONSUMPTION = MUL * GDP(-1) $">
<polygon fill="#63b8ff" stroke="black" points="203.6,-94.5 90,-94.5 90,-58.5 203.6,-58.5 203.6,-94.5"/>
<text text-anchor="start" x="95.8" y="-71.45" font-family="Times New Roman,serif" font-size="14.00" fill="blue">CONSUMPTION:</text>
</a>
</g>
</g>
<!-- CONSUMPTION(&#45;1) -->
<g id="node3" class="node">
<title>CONSUMPTION(-1)</title>
<g id="a_node3"><a xlink:title="CONSUMPTION
FRML &lt;&gt; CONSUMPTION = MUL * GDP(-1) $">
<polygon fill="springgreen" stroke="black" points="471.7,-159.5 239.6,-159.5 239.6,-123.5 471.7,-123.5 471.7,-159.5"/>
<text text-anchor="start" x="245.4" y="-136.45" font-family="Times New Roman,serif" font-size="14.00" fill="blue">CONSUMPTION(-1):CONSUMPTION</text>
</a>
</g>
</g>
<!-- CONSUMPTION&#45;&gt;CONSUMPTION(&#45;1) -->
<g id="edge7" class="edge">
<title>CONSUMPTION-&gt;CONSUMPTION(-1)</title>
<g id="a_edge7"><a xlink:href="bogus" xlink:title="NA">
<path fill="none" stroke="black" stroke-width="0.5" d="M197.12,-94.98C210.81,-99.91 225.72,-105.08 239.6,-109.5 251.14,-113.17 263.39,-116.83 275.45,-120.3"/>
<polygon fill="black" stroke="black" stroke-width="0.5" points="274.47,-123.66 285.05,-123.03 276.39,-116.93 274.47,-123.66"/>
</a>
</g>
</g>
<!-- INVESTMENT -->
<g id="node7" class="node">
<title>INVESTMENT</title>
<g id="a_node7"><a xlink:title="INVESTMENT
FRML &lt;&gt; INVESTMENT = ACC * (CONSUMPTION-CONSUMPTION(-1))  + EXO_INVESTMENT $">
<polygon fill="#63b8ff" stroke="black" points="609.3,-159.5 507.7,-159.5 507.7,-123.5 609.3,-123.5 609.3,-159.5"/>
<text text-anchor="start" x="513.5" y="-136.45" font-family="Times New Roman,serif" font-size="14.00" fill="blue">INVESTMENT:</text>
</a>
</g>
</g>
<!-- CONSUMPTION&#45;&gt;INVESTMENT -->
<g id="edge10" class="edge">
<title>CONSUMPTION-&gt;INVESTMENT</title>
<g id="a_edge10"><a xlink:href="bogus" xlink:title="NA">
<path fill="none" stroke="black" stroke-width="0.5" d="M203.92,-79.87C268.92,-84.51 378.96,-94.65 471.7,-114.5 480.33,-116.35 489.34,-118.7 498.13,-121.24"/>
<polygon fill="black" stroke="black" stroke-width="0.5" points="496.98,-124.54 507.56,-124.05 498.98,-117.84 496.98,-124.54"/>
</a>
</g>
</g>
<!-- GDP -->
<g id="node8" class="node">
<title>GDP</title>
<g id="a_node8"><a xlink:title="GDP
FRML &lt;&gt; GDP = CONSUMPTION+INVESTMENT   $">
<polygon fill="#63b8ff" stroke="black" points="699.3,-83.5 645.3,-83.5 645.3,-47.5 699.3,-47.5 699.3,-83.5"/>
<text text-anchor="start" x="656.92" y="-60.45" font-family="Times New Roman,serif" font-size="14.00" fill="blue">GDP:</text>
</a>
</g>
</g>
<!-- CONSUMPTION&#45;&gt;GDP -->
<g id="edge4" class="edge">
<title>CONSUMPTION-&gt;GDP</title>
<g id="a_edge4"><a xlink:href="bogus" xlink:title="NA">
<path fill="none" stroke="black" stroke-width="0.5" d="M203.82,-75.32C311.64,-73.06 545.25,-68.15 635.09,-66.26"/>
<polygon fill="black" stroke="black" stroke-width="0.5" points="634.89,-69.77 644.82,-66.06 634.75,-62.77 634.89,-69.77"/>
</a>
</g>
</g>
<!-- GDP(&#45;1) -->
<g id="node2" class="node">
<title>GDP(-1)</title>
<g id="a_node2"><a xlink:title="GDP
FRML &lt;&gt; GDP = CONSUMPTION+INVESTMENT   $">
<polygon fill="springgreen" stroke="black" points="824.9,-60.5 735.3,-60.5 735.3,-24.5 824.9,-24.5 824.9,-60.5"/>
<text text-anchor="start" x="741.1" y="-37.45" font-family="Times New Roman,serif" font-size="14.00" fill="blue">GDP(-1):GDP</text>
</a>
</g>
</g>
<!-- GDP(&#45;1)&#45;&gt;CONSUMPTION -->
<g id="edge1" class="edge">
<title>GDP(-1)-&gt;CONSUMPTION</title>
<g id="a_edge1"><a xlink:href="bogus" xlink:title="NA">
<path fill="none" stroke="black" stroke-width="0.5" d="M734.8,-39.75C708.74,-38.48 675.15,-37.47 645.3,-38.5 464.67,-44.73 419.63,-50.49 239.6,-66.5 231.25,-67.24 222.47,-68.1 213.8,-68.99"/>
<polygon fill="black" stroke="black" stroke-width="0.5" points="213.66,-65.49 204.08,-70.01 214.39,-72.45 213.66,-65.49"/>
</a>
</g>
</g>
<!-- CONSUMPTION(&#45;1)&#45;&gt;INVESTMENT -->
<g id="edge2" class="edge">
<title>CONSUMPTION(-1)-&gt;INVESTMENT</title>
<g id="a_edge2"><a xlink:href="bogus" xlink:title="NA">
<path fill="none" stroke="black" stroke-width="0.5" d="M472.03,-141.5C480.86,-141.5 489.52,-141.5 497.75,-141.5"/>
<polygon fill="black" stroke="black" stroke-width="0.5" points="497.56,-145 507.56,-141.5 497.56,-138 497.56,-145"/>
</a>
</g>
</g>
<!-- ACC -->
<g id="node4" class="node">
<title>ACC</title>
<g id="a_node4"><a xlink:title="ACC
Exogen">
<polygon fill="yellow" stroke="black" points="382.65,-267.5 328.65,-267.5 328.65,-231.5 382.65,-231.5 382.65,-267.5"/>
<text text-anchor="start" x="339.9" y="-244.45" font-family="Times New Roman,serif" font-size="14.00" fill="blue">ACC:</text>
</a>
</g>
</g>
<!-- ACC&#45;&gt;INVESTMENT -->
<g id="edge8" class="edge">
<title>ACC-&gt;INVESTMENT</title>
<g id="a_edge8"><a xlink:href="bogus" xlink:title="NA">
<path fill="none" stroke="black" stroke-width="0.5" d="M382.7,-247.3C406.96,-244.37 443.51,-237.66 471.7,-222.5 497.27,-208.74 520.83,-185.39 536.77,-167.28"/>
<polygon fill="black" stroke="black" stroke-width="0.5" points="539.26,-169.75 543.11,-159.88 533.94,-165.19 539.26,-169.75"/>
</a>
</g>
</g>
<!-- EXO_INVESTMENT -->
<g id="node5" class="node">
<title>EXO_INVESTMENT</title>
<g id="a_node5"><a xlink:title="EXO_INVESTMENT
Exogen">
<polygon fill="yellow" stroke="black" points="423.7,-213.5 287.6,-213.5 287.6,-177.5 423.7,-177.5 423.7,-213.5"/>
<text text-anchor="start" x="293.4" y="-190.45" font-family="Times New Roman,serif" font-size="14.00" fill="blue">EXO_INVESTMENT:</text>
</a>
</g>
</g>
<!-- EXO_INVESTMENT&#45;&gt;INVESTMENT -->
<g id="edge6" class="edge">
<title>EXO_INVESTMENT-&gt;INVESTMENT</title>
<g id="a_edge6"><a xlink:href="bogus" xlink:title="NA">
<path fill="none" stroke="black" stroke-width="0.5" d="M424.09,-180.56C439.77,-176.84 456.37,-172.71 471.7,-168.5 480.22,-166.16 489.16,-163.54 497.92,-160.88"/>
<polygon fill="black" stroke="black" stroke-width="0.5" points="498.8,-164.27 507.33,-157.98 496.74,-157.58 498.8,-164.27"/>
</a>
</g>
</g>
<!-- MUL -->
<g id="node6" class="node">
<title>MUL</title>
<g id="a_node6"><a xlink:title="MUL
Exogen">
<polygon fill="yellow" stroke="black" points="54,-94.5 0,-94.5 0,-58.5 54,-58.5 54,-94.5"/>
<text text-anchor="start" x="9.75" y="-71.45" font-family="Times New Roman,serif" font-size="14.00" fill="blue">MUL:</text>
</a>
</g>
</g>
<!-- MUL&#45;&gt;CONSUMPTION -->
<g id="edge9" class="edge">
<title>MUL-&gt;CONSUMPTION</title>
<g id="a_edge9"><a xlink:href="bogus" xlink:title="NA">
<path fill="none" stroke="black" stroke-width="0.5" d="M54.44,-76.5C62.11,-76.5 70.85,-76.5 79.81,-76.5"/>
<polygon fill="black" stroke="black" stroke-width="0.5" points="79.58,-80 89.58,-76.5 79.58,-73 79.58,-80"/>
</a>
</g>
</g>
<!-- INVESTMENT&#45;&gt;GDP -->
<g id="edge5" class="edge">
<title>INVESTMENT-&gt;GDP</title>
<g id="a_edge5"><a xlink:href="bogus" xlink:title="NA">
<path fill="none" stroke="black" stroke-width="0.5" d="M586.56,-123.1C601.64,-112.85 620.58,-99.98 636.72,-89.01"/>
<polygon fill="black" stroke="black" stroke-width="0.5" points="638.57,-91.98 644.87,-83.47 634.63,-86.19 638.57,-91.98"/>
</a>
</g>
</g>
<!-- GDP&#45;&gt;GDP(&#45;1) -->
<g id="edge3" class="edge">
<title>GDP-&gt;GDP(-1)</title>
<g id="a_edge3"><a xlink:href="bogus" xlink:title="NA">
<path fill="none" stroke="black" stroke-width="0.5" d="M699.72,-59.76C707.55,-58.06 716.41,-56.13 725.3,-54.2"/>
<polygon fill="black" stroke="black" stroke-width="0.5" points="725.89,-57.65 734.92,-52.1 724.4,-50.81 725.89,-57.65"/>
</a>
</g>
</g>
</g>
</svg>