<svg xmlns="http://www.w3.org/2000/svg" xmlns:xlink="http://www.w3.org/1999/xlink" width="432pt" height="101pt" viewBox="0.00 0.00 432.00 100.66">
<g id="graph0" class="graph" transform="scale(0.472131 0.472131) rotate(0) translate(4 209.2)">
<title>TD</title>
<polygon fill="white" stroke="none" points="-4,4 -4,-209.2 911,-209.2 911,4 -4,4"/>
<text text-anchor="middle" x="453.5" y="-7.2" font-family="Times New Roman,serif" font-size="14.00">A_model_graph</text>
<!-- ACC -->
<g id="node1" class="node">
<title>ACC</title>
<g id="a_node1"><a xlink:title="ACC
Exogen">
<polygon fill="yellow" stroke="black" points="95.05,-205.2 41.05,-205.2 41.05,-169.2 95.05,-169.2 95.05,-205.2"/>
<text text-anchor="start" x="52.3" y="-182.15" font-family="Times New Roman,serif" font-size="14.00" fill="blue">ACC:</text>
</a>
</g>
</g>
<!-- INVESTMENT -->
<g id="node5" class="node">
<title>INVESTMENT</title>
<g id="a_node5"><a xlink:title="INVESTMENT
FRML &lt;&gt; INVESTMENT = ACC * (CONSUMPTION-CONSUMPTION(-1))  + EXO_INVESTMENT $">
<polygon fill="#63b8ff" stroke="black" points="273.7,-178.2 172.1,-178.2 172.1,-142.2 273.7,-142.2 273.7,-178.2"/>
<text text-anchor="start" x="177.9" y="-155.15" font-family="Times New Roman,serif" font-size="14.00" fill="blue">INVESTMENT:</text>
</a>
</g>
</g>
<!-- ACC&#45;&gt;INVESTMENT -->
<g id="edge3" class="edge">
<title>ACC-&gt;INVESTMENT</title>
<g id="a_edge3"><a xlink:href="bogus" xlink:title="NA">
<path fill="none" stroke="black" stroke-width="0.5" d="M95.33,-182.56C113.7,-179.31 138.99,-174.84 162.15,-170.75"/>
<polygon fill="black" stroke="black" stroke-width="0.5" points="162.67,-174.22 171.91,-169.03 161.45,-167.32 162.67,-174.22"/>
</a>
</g>
</g>
<!-- MUL -->
<g id="node2" class="node">
<title>MUL</title>
<g id="a_node2"><a xlink:title="MUL
Exogen">
<polygon fill="yellow" stroke="black" points="471.5,-132.2 417.5,-132.2 417.5,-96.2 471.5,-96.2 471.5,-132.2"/>
<text text-anchor="start" x="427.25" y="-109.15" font-family="Times New Roman,serif" font-size="14.00" fill="blue">MUL:</text>
</a>
</g>
</g>
<!-- CONSUMPTION -->
<g id="node3" class="node">
<title>CONSUMPTION</title>
<g id="a_node3"><a xlink:title="CONSUMPTION
FRML &lt;&gt; CONSUMPTION = MUL * GDP(-1) $">
<polygon fill="#63b8ff" stroke="black" points="638.9,-132.2 525.3,-132.2 525.3,-96.2 638.9,-96.2 638.9,-132.2"/>
<text text-anchor="start" x="531.1" y="-109.15" font-family="Times New Roman,serif" font-size="14.00" fill="blue">CONSUMPTION:</text>
</a>
</g>
</g>
<!-- MUL&#45;&gt;CONSUMPTION -->
<g id="edge9" class="edge">
<title>MUL-&gt;CONSUMPTION</title>
<g id="a_edge9"><a xlink:href="bogus" xlink:title="NA">
<path fill="none" stroke="black" stroke-width="0.5" d="M471.97,-114.2C484.36,-114.2 499.73,-114.2 514.99,-114.2"/>
<polygon fill="black" stroke="black" stroke-width="0.5" points="514.96,-117.7 524.96,-114.2 514.96,-110.7 514.96,-117.7"/>
</a>
</g>
</g>
<!-- CONSUMPTION(&#45;1) -->
<g id="node4" class="node">
<title>CONSUMPTION(-1)</title>
<g id="a_node4"><a xlink:title="CONSUMPTION
FRML &lt;&gt; CONSUMPTION = MUL * GDP(-1) $">
<polygon fill="springgreen" stroke="black" points="907,-174.2 674.9,-174.2 674.9,-138.2 907,-138.2 907,-174.2"/>
<text text-anchor="start" x="680.7" y="-151.15" font-family="Times New Roman,serif" font-size="14.00" fill="blue">CONSUMPTION(-1):CONSUMPTION</text>
</a>
</g>
</g>
<!-- CONSUMPTION&#45;&gt;CONSUMPTION(&#45;1) -->
<g id="edge2" class="edge">
<title>CONSUMPTION-&gt;CONSUMPTION(-1)</title>
<g id="a_edge2"><a xlink:href="bogus" xlink:title="NA">
<path fill="none" stroke="black" stroke-width="0.5" d="M639.35,-125.62C654.89,-128.78 672.25,-132.3 689.49,-135.8"/>
<polygon fill="black" stroke="black" stroke-width="0.5" points="688.55,-139.18 699.05,-137.74 689.95,-132.32 688.55,-139.18"/>
</a>
</g>
</g>
<!-- CONSUMPTION&#45;&gt;INVESTMENT -->
<g id="edge10" class="edge">
<title>CONSUMPTION-&gt;INVESTMENT</title>
<g id="a_edge10"><a xlink:href="bogus" xlink:title="NA">
<path fill="none" stroke="black" stroke-width="0.5" d="M525.24,-132.7C513.48,-136.01 501.07,-139.07 489.3,-141.2 419.54,-153.8 338.06,-158.12 283.96,-159.56"/>
<polygon fill="black" stroke="black" stroke-width="0.5" points="284.1,-156.06 274.19,-159.8 284.27,-163.06 284.1,-156.06"/>
</a>
</g>
</g>
<!-- GDP -->
<g id="node6" class="node">
<title>GDP</title>
<g id="a_node6"><a xlink:title="GDP
FRML &lt;&gt; GDP = CONSUMPTION+INVESTMENT   $">
<polygon fill="#63b8ff" stroke="black" points="363.7,-78.2 309.7,-78.2 309.7,-42.2 363.7,-42.2 363.7,-78.2"/>
<text text-anchor="start" x="321.32" y="-55.15" font-family="Times New Roman,serif" font-size="14.00" fill="blue">GDP:</text>
</a>
</g>
</g>
<!-- CONSUMPTION&#45;&gt;GDP -->
<g id="edge4" class="edge">
<title>CONSUMPTION-&gt;GDP</title>
<g id="a_edge4"><a xlink:href="bogus" xlink:title="NA">
<path fill="none" stroke="black" stroke-width="0.5" d="M567.28,-95.83C551.1,-76.03 522.3,-45.68 489.3,-33.2 452.05,-19.12 438.69,-25.08 399.7,-33.2 390.75,-35.06 381.51,-38.29 372.99,-41.88"/>
<polygon fill="black" stroke="black" stroke-width="0.5" points="371.77,-38.59 364.07,-45.87 374.62,-44.98 371.77,-38.59"/>
</a>
</g>
</g>
<!-- CONSUMPTION(&#45;1)&#45;&gt;INVESTMENT -->
<g id="edge5" class="edge">
<title>CONSUMPTION(-1)-&gt;INVESTMENT</title>
<g id="a_edge5"><a xlink:href="bogus" xlink:title="NA">
<path fill="none" stroke="black" stroke-width="0.5" d="M674.65,-161.35C588.9,-164.92 469.02,-169.35 363.7,-171.2 339.7,-171.62 333.65,-172.73 309.7,-171.2 301.32,-170.66 292.5,-169.84 283.84,-168.87"/>
<polygon fill="black" stroke="black" stroke-width="0.5" points="284.5,-165.43 274.16,-167.73 283.68,-172.38 284.5,-165.43"/>
</a>
</g>
</g>
<!-- INVESTMENT&#45;&gt;GDP -->
<g id="edge7" class="edge">
<title>INVESTMENT-&gt;GDP</title>
<g id="a_edge7"><a xlink:href="bogus" xlink:title="NA">
<path fill="none" stroke="black" stroke-width="0.5" d="M244.41,-141.86C262.29,-125.86 288.39,-102.51 308.11,-84.88"/>
<polygon fill="black" stroke="black" stroke-width="0.5" points="310.2,-87.7 315.32,-78.42 305.54,-82.48 310.2,-87.7"/>
</a>
</g>
</g>
<!-- GDP(&#45;1) -->
<g id="node8" class="node">
<title>GDP(-1)</title>
<g id="a_node8"><a xlink:title="GDP
FRML &lt;&gt; GDP = CONSUMPTION+INVESTMENT   $">
<polygon fill="springgreen" stroke="black" points="489.3,-78.2 399.7,-78.2 399.7,-42.2 489.3,-42.2 489.3,-78.2"/>
<text text-anchor="start" x="405.5" y="-55.15" font-family="Times New Roman,serif" font-size="14.00" fill="blue">GDP(-1):GDP</text>
</a>
</g>
</g>
<!-- GDP&#45;&gt;GDP(&#45;1) -->
<g id="edge8" class="edge">
<title>GDP-&gt;GDP(-1)</title>
<g id="a_edge8"><a xlink:href="bogus" xlink:title="NA">
<path fill="none" stroke="black" stroke-width="0.5" d="M364.12,-60.2C371.86,-60.2 380.62,-60.2 389.42,-60.2"/>
<polygon fill="black" stroke="black" stroke-width="0.5" points="389.32,-63.7 399.32,-60.2 389.32,-56.7 389.32,-63.7"/>
</a>
</g>
</g>
<!-- EXO_INVESTMENT -->
<g id="node7" class="node">
<title>EXO_INVESTMENT</title>
<g id="a_node7"><a xlink:title="EXO_INVESTMENT
Exogen">
<polygon fill="yellow" stroke="black" points="136.1,-151.2 0,-151.2 0,-115.2 136.1,-115.2 136.1,-151.2"/>
<text text-anchor="start" x="5.8" y="-128.15" font-family="Times New Roman,serif" font-size="14.00" fill="blue">EXO_INVESTMENT:</text>
</a>
</g>
</g>
<!-- EXO_INVESTMENT&#45;&gt;INVESTMENT -->
<g id="edge6" class="edge">
<title>EXO_INVESTMENT-&gt;INVESTMENT</title>
<g id="a_edge6"><a xlink:href="bogus" xlink:title="NA">
<path fill="none" stroke="black" stroke-width="0.5" d="M136.54,-145.12C145.04,-146.62 153.7,-148.15 162.08,-149.63"/>
<polygon fill="black" stroke="black" stroke-width="0.5" points="161.3,-153.05 171.76,-151.34 162.52,-146.16 161.3,-153.05"/>
</a>
</g>
</g>
<!-- GDP(&#45;1)&#45;&gt;CONSUMPTION -->
<g id="edge1" class="edge">
<title>GDP(-1)-&gt;CONSUMPTION</title>
<g id="a_edge1"><a xlink:href="bogus" xlink:title="NA">
<path fill="none" stroke="black" stroke-width="0.5" d="M489.53,-77.73C501.11,-82.35 513.76,-87.38 525.85,-92.2"/>
<polygon fill="black" stroke="black" stroke-width="0.5" points="524.38,-95.38 534.96,-95.83 526.97,-88.88 524.38,-95.38"/>
</a>
</g>
</g>
</g>
</svg>