<svg xmlns="http://www.w3.org/2000/svg" xmlns:xlink="http://www.w3.org/1999/xlink" width="432pt" height="259pt" viewBox="0.00 0.00 432.00 258.93">
<g id="graph0" class="graph" transform="scale(0.336711 0.336711) rotate(0) translate(4 765)">
<title>TD</title>
<polygon fill="white" stroke="none" points="-4,4 -4,-765 1279,-765 1279,4 -4,4"/>
<text text-anchor="middle" x="637.5" y="-7.8" font-family="Times New Roman,serif" font-size="14.00">PAKNYGDPMKTPKN</text>
<!-- PAKFMLBLMTWOKN -->
<g id="node1" class="node"><title>PAKFMLBLMTWOKN</title>
<g id="a_node1"><a xlink:title="Real money supply
FRML &lt;Z,EXO&gt; PAKFMLBLMTWOKN = (PAKFMLBLMTWOKN(-1)*EXP(-PAKFMLBLMTWOKN_A+ (-0.2*(LOG(PAKFMLBLMTWOKN(-1))-LOG(PAKNYGDPMKTPKN(-1))+0.1*PAKFMLBLPOLYXN(-1)/100-LOG(PAKVELOCITY(-1)))-0.32628131688075+0.7*((LOG(PAKNYGDPMKTPKN))-(LOG(PAKNYGDPMKTPKN(-1))))-1*((PAKFMLBLPOLYXN/100)-(PAKFMLBLPOLYXN(-1)/100))-((LOG(PAKVELOCITY))-(LOG(PAKVELOCITY(-1))))) )) * (1-PAKFMLBLMTWOKN_D)+ PAKFMLBLMTWOKN_X*PAKFMLBLMTWOKN_D  $">
<polygon fill="#63b8ff" stroke="black" points="1199.5,-761 938.5,-761 938.5,-725 1199.5,-725 1199.5,-761"/>
<text text-anchor="start" x="945" y="-738.8" font-family="Times New Roman,serif" font-size="14.00" fill="blue">PAKFMLBLMTWOKN:Real money supply</text>
</a>
</g>
</g>
<!-- PAKNYGDPMKTPKD -->
<g id="node2" class="node"><title>PAKNYGDPMKTPKD</title>
<g id="a_node2"><a xlink:title="PAKNYGDPMKTPKD
FRML  &lt;&gt; PAKNYGDPMKTPKD = (PAKNYGDPMKTPKN*((PAKNYGDPMKTPCN_VALUE_2010)/((PAKNYGDPMKTPKN_VALUE_2010))))/(PAKPANUSATLS_VALUE_2010) $">
<polygon fill="#63b8ff" stroke="black" points="1144,-707 994,-707 994,-671 1144,-671 1144,-707"/>
<text text-anchor="start" x="1000" y="-684.8" font-family="Times New Roman,serif" font-size="14.00" fill="blue">PAKNYGDPMKTPKD:</text>
</a>
</g>
</g>
<!-- PAKNEGDISTKBKN -->
<g id="node3" class="node"><title>PAKNEGDISTKBKN</title>
<g id="a_node3"><a xlink:title="Change in Inventories
Exogen">
<polygon fill="yellow" stroke="black" points="343,-626 81,-626 81,-590 343,-590 343,-626"/>
<text text-anchor="start" x="87" y="-603.8" font-family="Times New Roman,serif" font-size="14.00" fill="blue">PAKNEGDISTKBKN:Change in Inventories</text>
</a>
</g>
</g>
<!-- PAKNYGDPMKTPKN -->
<g id="node5" class="node"><title>PAKNYGDPMKTPKN</title>
<g id="a_node5"><a xlink:title="GDP Expenditure side at market prices
FRML  &lt;&gt; PAKNYGDPMKTPKN = PAKNECONPRVTKN+PAKNECONGOVTKN+PAKNEGDIFTOTKN+PAKNEGDISTKBKN+PAKNEEXPGNFSKN-PAKNEIMPGNFSKN+PAKNYGDPDISCKN+PAKADAP*PAKDISPREPKN $">
<polygon fill="red" stroke="black" points="827,-410 460,-410 460,-374 827,-374 827,-410"/>
<text text-anchor="start" x="466.5" y="-387.8" font-family="Times New Roman,serif" font-size="14.00" fill="blue">PAKNYGDPMKTPKN:GDP Expenditure side at market prices</text>
</a>
</g>
</g>
<!-- PAKNEGDISTKBKN&#45;&gt;PAKNYGDPMKTPKN -->
<g id="edge2" class="edge"><title>PAKNEGDISTKBKN-&gt;PAKNYGDPMKTPKN</title>
<g id="a_edge2"><a xlink:href="bogus" xlink:title=" PAKNEGDISTKBKN -&gt; PAKNYGDPMKTPKN Min. att. -0%  max: 0%">
<path fill="none" stroke="black" d="M343.19,-603.411C370.702,-599.155 398.964,-592.186 424,-581 509.218,-542.923 586.002,-460.332 621.583,-418.065"/>
<polygon fill="black" stroke="black" points="624.44,-420.103 628.14,-410.175 619.057,-415.629 624.44,-420.103"/>
</a>
</g>
</g>
<!-- PAKNECONPRVTKN -->
<g id="node4" class="node"><title>PAKNECONPRVTKN</title>
<g id="a_node4"><a xlink:title="Household Consumption
FRML &lt;Z,EXO&gt; PAKNECONPRVTKN = (PAKNECONPRVTKN(-1)*EXP(-PAKNECONPRVTKN_A+ (-0.2*(LOG(PAKNECONPRVTKN(-1))-LOG((PAKNYYWBTOTLCN(-1)*(1-PAKGGREVDRCTXN(-1)/100))/PAKNECONPRVTXN(-1)))+1*((LOG((PAKNYYWBTOTLCN*(1-PAKGGREVDRCTXN/100))/PAKNECONPRVTXN))-(LOG((PAKNYYWBTOTLCN(-1)*(1-PAKGGREVDRCTXN(-1)/100))/PAKNECONPRVTXN(-1))))+0.0303228629698929+0.0163839011059956*DURING_2010-0.3*(PAKFMLBLPOLYXN/100-((LOG(PAKNECONPRVTXN))-(LOG(PAKNECONPRVTXN(-1)))))) )) * (1-PAKNECONPRVTKN_D)+ PAKNECONPRVTKN_X*PAKNECONPRVTKN_D  $">
<polygon fill="#63b8ff" stroke="black" points="356,-572 68,-572 68,-536 356,-536 356,-572"/>
<text text-anchor="start" x="74" y="-549.8" font-family="Times New Roman,serif" font-size="14.00" fill="blue">PAKNECONPRVTKN:Household Consumption</text>
</a>
</g>
</g>
<!-- PAKNECONPRVTKN&#45;&gt;PAKNYGDPMKTPKN -->
<g id="edge18" class="edge"><title>PAKNECONPRVTKN-&gt;PAKNYGDPMKTPKN</title>
<g id="a_edge18"><a xlink:href="bogus" xlink:title=" PAKNECONPRVTKN -&gt; PAKNYGDPMKTPKN Min. att. -1557%  max: 290%">
<path fill="none" stroke="black" stroke-width="8" d="M356.243,-544.056C379.29,-540.079 402.591,-534.582 424,-527 497.381,-501.013 572.294,-447.686 612.522,-416.394"/>
<polygon fill="black" stroke="black" stroke-width="8" points="617.032,-421.752 620.567,-410.069 608.379,-410.747 617.032,-421.752"/>
</a>
</g>
</g>
<!-- PAKNYGDPMKTPKN&#45;&gt;PAKFMLBLMTWOKN -->
<g id="edge4" class="edge"><title>PAKNYGDPMKTPKN-&gt;PAKFMLBLMTWOKN</title>
<g id="a_edge4"><a xlink:href="bogus" xlink:title=" PAKNYGDPMKTPKN -&gt; PAKFMLBLMTWOKN Min. att. -360%  max: 149%">
<path fill="none" stroke="black" stroke-width="8" d="M650.664,-410.314C670.785,-466.969 740.408,-640.126 863,-716 882.698,-728.191 905.491,-735.952 928.567,-740.741"/>
<polygon fill="black" stroke="black" stroke-width="8" points="927.338,-747.633 938.466,-742.616 929.944,-733.877 927.338,-747.633"/>
</a>
</g>
</g>
<!-- PAKNYGDPMKTPKN&#45;&gt;PAKNYGDPMKTPKD -->
<g id="edge5" class="edge"><title>PAKNYGDPMKTPKN-&gt;PAKNYGDPMKTPKD</title>
<g id="a_edge5"><a xlink:href="bogus" xlink:title=" PAKNYGDPMKTPKN -&gt; PAKNYGDPMKTPKD Min. att. 100%  max: 100%">
<path fill="none" stroke="black" stroke-width="8" d="M652.947,-410.09C677.358,-460.095 753.314,-600.546 863,-662 899.223,-682.295 944.561,-689.762 983.384,-691.851"/>
<polygon fill="black" stroke="black" stroke-width="8" points="983.336,-698.855 993.625,-692.287 983.932,-684.867 983.336,-698.855"/>
</a>
</g>
</g>
<!-- PAKNYGDPGAP_ -->
<g id="node6" class="node"><title>PAKNYGDPGAP_</title>
<g id="a_node6"><a xlink:title="Output Gap (% of Potential GDP)
FRML  &lt;&gt; PAKNYGDPGAP_ = ((PAKNYGDPMKTPKN/PAKNYGDPPOTLKN-1)*100) $">
<polygon fill="#63b8ff" stroke="black" points="1228.5,-653 909.5,-653 909.5,-617 1228.5,-617 1228.5,-653"/>
<text text-anchor="start" x="916" y="-630.8" font-family="Times New Roman,serif" font-size="14.00" fill="blue">PAKNYGDPGAP_:Output Gap (% of Potential GDP)</text>
</a>
</g>
</g>
<!-- PAKNYGDPMKTPKN&#45;&gt;PAKNYGDPGAP_ -->
<g id="edge16" class="edge"><title>PAKNYGDPMKTPKN-&gt;PAKNYGDPGAP_</title>
<g id="a_edge16"><a xlink:href="bogus" xlink:title=" PAKNYGDPMKTPKN -&gt; PAKNYGDPGAP_ Min. att. -78566%  max: 128265%">
<path fill="none" stroke="black" stroke-width="8" d="M656.429,-410.135C685.735,-452.995 765.988,-560.502 863,-608 874.561,-613.661 886.906,-618.265 899.588,-621.998"/>
<polygon fill="black" stroke="black" stroke-width="8" points="897.844,-628.779 909.344,-624.686 901.563,-615.281 897.844,-628.779"/>
</a>
</g>
</g>
<!-- PAKNEADPKMAXKN_FITTED -->
<g id="node7" class="node"><title>PAKNEADPKMAXKN_FITTED</title>
<g id="a_node7"><a xlink:title="Fitted  value:PAKNEADPKMAXKN
FRML &lt;FIT&gt; PAKNEADPKMAXKN_FITTED = 0*DUMH+((1+0.01)/(0.01+PAKDEPR))*(PAKAVDAMAGE/100)*PAKNYGDPMKTPKN $">
<polygon fill="#63b8ff" stroke="black" points="1275,-599 863,-599 863,-563 1275,-563 1275,-599"/>
<text text-anchor="start" x="869" y="-576.8" font-family="Times New Roman,serif" font-size="14.00" fill="blue">PAKNEADPKMAXKN_FITTED:Fitted  value:PAKNEADPKMAXKN</text>
</a>
</g>
</g>
<!-- PAKNYGDPMKTPKN&#45;&gt;PAKNEADPKMAXKN_FITTED -->
<g id="edge7" class="edge"><title>PAKNYGDPMKTPKN-&gt;PAKNEADPKMAXKN_FITTED</title>
<g id="a_edge7"><a xlink:href="bogus" xlink:title=" PAKNYGDPMKTPKN -&gt; PAKNEADPKMAXKN_FITTED Min. att. 100%  max: 100%">
<path fill="none" stroke="black" stroke-width="8" d="M662.065,-410.125C696.806,-444.711 778.294,-519.728 863,-554 868.2,-556.104 873.528,-558.051 878.95,-559.854"/>
<polygon fill="black" stroke="black" stroke-width="8" points="877.168,-566.631 888.804,-562.944 881.357,-553.272 877.168,-566.631"/>
</a>
</g>
</g>
<!-- PAKNYWRTFORMCN_FITTED -->
<g id="node8" class="node"><title>PAKNYWRTFORMCN_FITTED</title>
<g id="a_node8"><a xlink:title="Fitted  value:Formal wage
FRML &lt;FIT&gt; PAKNYWRTFORMCN_FITTED = PAKNYWRTFORMCN(-1)*EXP( (-0.120164450250183-0.3*(LOG(PAKNYWRTFORMCN(-1))-LOG(PAKNYGDPFCSTXN(-1))-LOG(PAKNYGDPPOTLKN(-1)/PAKLMEMPSTRLCN(-1)))+0.2*((LOG(PAKNYWRTFORMCN(-1)))-(LOG(PAKNYWRTFORMCN(-2))))+(1-0.2)*(0.5*((LOG(PAKNYGDPFCSTXN(-1)))-(LOG(PAKNYGDPFCSTXN(-2))))+0.5*(PAKINFLEXPT/100)+((LOG(PAKNYGDPMKTPKN/PAKLMEMPSTRLCN))-(LOG(PAKNYGDPMKTPKN(-1)/PAKLMEMPSTRLCN(-1)))))-0.2*(PAKLMUNRTOTLCN-PAKLMUNRSTRLCN)/100+0.15233813938029*DURING_2000-0.183411483907703*DURING_2001) ) $">
<polygon fill="#63b8ff" stroke="black" points="1246.5,-545 891.5,-545 891.5,-509 1246.5,-509 1246.5,-545"/>
<text text-anchor="start" x="898" y="-522.8" font-family="Times New Roman,serif" font-size="14.00" fill="blue">PAKNYWRTFORMCN_FITTED:Fitted  value:Formal wage</text>
</a>
</g>
</g>
<!-- PAKNYGDPMKTPKN&#45;&gt;PAKNYWRTFORMCN_FITTED -->
<g id="edge19" class="edge"><title>PAKNYGDPMKTPKN-&gt;PAKNYWRTFORMCN_FITTED</title>
<g id="a_edge19"><a xlink:href="bogus" xlink:title=" PAKNYGDPMKTPKN -&gt; PAKNYWRTFORMCN_FITTED Min. att. -3148%  max: 101%">
<path fill="none" stroke="black" stroke-width="8" d="M673.264,-410.077C713.884,-434.687 791.136,-478.162 863,-500 871.023,-502.438 879.289,-504.656 887.687,-506.674"/>
<polygon fill="black" stroke="black" stroke-width="8" points="886.284,-513.534 897.598,-508.951 889.42,-499.889 886.284,-513.534"/>
</a>
</g>
</g>
<!-- PAKNYWRTINFMCN -->
<g id="node9" class="node"><title>PAKNYWRTINFMCN</title>
<g id="a_node9"><a xlink:title="Informal wage
FRML &lt;Z,EXO&gt; PAKNYWRTINFMCN = (PAKNYWRTINFMCN(-1)*EXP(-PAKNYWRTINFMCN_A+ (-0.122614247140616-0.3*(LOG(PAKNYWRTINFMCN(-1))-LOG(PAKNYGDPFCSTXN(-1))-LOG(PAKNYGDPPOTLKN(-1)/PAKLMEMPSTRLCN(-1)))+0.2*((LOG(PAKNYWRTINFMCN(-1)))-(LOG(PAKNYWRTINFMCN(-2))))+(1-0.2)*(0.5*((LOG(PAKNYGDPFCSTXN(-1)))-(LOG(PAKNYGDPFCSTXN(-2))))+0.5*(PAKINFLEXPT/100)+((LOG(PAKNYGDPMKTPKN/PAKLMEMPSTRLCN))-(LOG(PAKNYGDPMKTPKN(-1)/PAKLMEMPSTRLCN(-1)))))-0.2*(PAKLMUNRTOTLCN-PAKLMUNRSTRLCN)/100+0.15347529018182*DURING_2000-0.183372342445734*DURING_2001) )) * (1-PAKNYWRTINFMCN_D)+ PAKNYWRTINFMCN_X*PAKNYWRTINFMCN_D  $">
<polygon fill="#63b8ff" stroke="black" points="1183.5,-491 954.5,-491 954.5,-455 1183.5,-455 1183.5,-491"/>
<text text-anchor="start" x="961" y="-468.8" font-family="Times New Roman,serif" font-size="14.00" fill="blue">PAKNYWRTINFMCN:Informal wage</text>
</a>
</g>
</g>
<!-- PAKNYGDPMKTPKN&#45;&gt;PAKNYWRTINFMCN -->
<g id="edge12" class="edge"><title>PAKNYGDPMKTPKN-&gt;PAKNYWRTINFMCN</title>
<g id="a_edge12"><a xlink:href="bogus" xlink:title=" PAKNYGDPMKTPKN -&gt; PAKNYWRTINFMCN Min. att. -3148%  max: 101%">
<path fill="none" stroke="black" stroke-width="8" d="M709.577,-410.1C752.807,-421.624 810.972,-436.176 863,-446 889.117,-450.931 917.276,-455.269 944.109,-458.943"/>
<polygon fill="black" stroke="black" stroke-width="8" points="943.477,-465.921 954.322,-460.319 945.346,-452.047 943.477,-465.921"/>
</a>
</g>
</g>
<!-- PAKGDPPCKN -->
<g id="node10" class="node"><title>PAKGDPPCKN</title>
<g id="a_node10"><a xlink:title="PAKGDPPCKN
FRML  &lt;&gt; PAKGDPPCKN = (PAKNYGDPMKTPKN/PAKSPPOPTOTL) $">
<polygon fill="#63b8ff" stroke="black" points="1123.5,-437 1014.5,-437 1014.5,-401 1123.5,-401 1123.5,-437"/>
<text text-anchor="start" x="1021" y="-414.8" font-family="Times New Roman,serif" font-size="14.00" fill="blue">PAKGDPPCKN:</text>
</a>
</g>
</g>
<!-- PAKNYGDPMKTPKN&#45;&gt;PAKGDPPCKN -->
<g id="edge20" class="edge"><title>PAKNYGDPMKTPKN-&gt;PAKGDPPCKN</title>
<g id="a_edge20"><a xlink:href="bogus" xlink:title=" PAKNYGDPMKTPKN -&gt; PAKGDPPCKN Min. att. 100%  max: 100%">
<path fill="none" stroke="black" stroke-width="8" d="M827.175,-403.646C890.37,-407.675 957.086,-411.929 1004.23,-414.934"/>
<polygon fill="black" stroke="black" stroke-width="8" points="1003.86,-421.925 1014.28,-415.575 1004.75,-407.953 1003.86,-421.925"/>
</a>
</g>
</g>
<!-- PAKHURDAMKN -->
<g id="node14" class="node"><title>PAKHURDAMKN</title>
<g id="a_node14"><a xlink:title="Hurricane damage, constant prices
FRML  &lt;&gt; PAKHURDAMKN = (PAKNEHURAVERKN_/100)*PAKNYGDPMKTPKN(-1)*(1-PAKNEHURPTVTKN) $">
<polygon fill="#63b8ff" stroke="black" points="1227,-383 911,-383 911,-347 1227,-347 1227,-383"/>
<text text-anchor="start" x="917" y="-360.8" font-family="Times New Roman,serif" font-size="14.00" fill="blue">PAKHURDAMKN:Hurricane damage, constant prices</text>
</a>
</g>
</g>
<!-- PAKNYGDPMKTPKN&#45;&gt;PAKHURDAMKN -->
<g id="edge8" class="edge"><title>PAKNYGDPMKTPKN-&gt;PAKHURDAMKN</title>
<g id="a_edge8"><a xlink:href="bogus" xlink:title=" PAKNYGDPMKTPKN -&gt; PAKHURDAMKN Min. att. 0%  max: 0%">
<path fill="none" stroke="black" d="M827.175,-380.354C851.562,-378.799 876.474,-377.211 900.584,-375.674"/>
<polygon fill="black" stroke="black" points="901.106,-379.147 910.863,-375.018 900.661,-372.162 901.106,-379.147"/>
</a>
</g>
</g>
<!-- PAKNYGDPMKTPXN -->
<g id="node15" class="node"><title>PAKNYGDPMKTPXN</title>
<g id="a_node15"><a xlink:title="GDP deflator
FRML  &lt;&gt; PAKNYGDPMKTPXN = PAKNYGDPMKTPCN/PAKNYGDPMKTPKN $">
<polygon fill="#63b8ff" stroke="black" points="1181.5,-329 956.5,-329 956.5,-293 1181.5,-293 1181.5,-329"/>
<text text-anchor="start" x="963" y="-306.8" font-family="Times New Roman,serif" font-size="14.00" fill="blue">PAKNYGDPMKTPXN:GDP deflator</text>
</a>
</g>
</g>
<!-- PAKNYGDPMKTPKN&#45;&gt;PAKNYGDPMKTPXN -->
<g id="edge14" class="edge"><title>PAKNYGDPMKTPKN-&gt;PAKNYGDPMKTPXN</title>
<g id="a_edge14"><a xlink:href="bogus" xlink:title=" PAKNYGDPMKTPKN -&gt; PAKNYGDPMKTPXN Min. att. -81%  max: 46%">
<path fill="none" stroke="black" stroke-width="8" d="M709.577,-373.9C752.807,-362.376 810.972,-347.824 863,-338 889.861,-332.928 918.88,-328.485 946.397,-324.745"/>
<polygon fill="black" stroke="black" stroke-width="8" points="947.477,-331.663 956.46,-323.399 945.621,-317.786 947.477,-331.663"/>
</a>
</g>
</g>
<!-- PAKNYGDPFCSTKN -->
<g id="node16" class="node"><title>PAKNYGDPFCSTKN</title>
<g id="a_node16"><a xlink:title="GDP at factor cost
FRML  &lt;&gt; PAKNYGDPFCSTKN = PAKNYGDPMKTPKN-PAKNYTAXNINDKN $">
<polygon fill="#63b8ff" stroke="black" points="1195.5,-275 942.5,-275 942.5,-239 1195.5,-239 1195.5,-275"/>
<text text-anchor="start" x="949" y="-252.8" font-family="Times New Roman,serif" font-size="14.00" fill="blue">PAKNYGDPFCSTKN:GDP at factor cost</text>
</a>
</g>
</g>
<!-- PAKNYGDPMKTPKN&#45;&gt;PAKNYGDPFCSTKN -->
<g id="edge9" class="edge"><title>PAKNYGDPMKTPKN-&gt;PAKNYGDPFCSTKN</title>
<g id="a_edge9"><a xlink:href="bogus" xlink:title=" PAKNYGDPMKTPKN -&gt; PAKNYGDPFCSTKN Min. att. 100%  max: 100%">
<path fill="none" stroke="black" stroke-width="8" d="M673.264,-373.923C713.884,-349.313 791.136,-305.838 863,-284 885.089,-277.288 909.018,-272.244 932.468,-268.454"/>
<polygon fill="black" stroke="black" stroke-width="8" points="933.669,-275.351 942.482,-266.905 931.529,-261.516 933.669,-275.351"/>
</a>
</g>
</g>
<!-- PAKNYWRTFORMCN -->
<g id="node17" class="node"><title>PAKNYWRTFORMCN</title>
<g id="a_node17"><a xlink:title="Formal wage
FRML &lt;Z,EXO&gt; PAKNYWRTFORMCN = (PAKNYWRTFORMCN(-1)*EXP(-PAKNYWRTFORMCN_A+ (-0.120164450250183-0.3*(LOG(PAKNYWRTFORMCN(-1))-LOG(PAKNYGDPFCSTXN(-1))-LOG(PAKNYGDPPOTLKN(-1)/PAKLMEMPSTRLCN(-1)))+0.2*((LOG(PAKNYWRTFORMCN(-1)))-(LOG(PAKNYWRTFORMCN(-2))))+(1-0.2)*(0.5*((LOG(PAKNYGDPFCSTXN(-1)))-(LOG(PAKNYGDPFCSTXN(-2))))+0.5*(PAKINFLEXPT/100)+((LOG(PAKNYGDPMKTPKN/PAKLMEMPSTRLCN))-(LOG(PAKNYGDPMKTPKN(-1)/PAKLMEMPSTRLCN(-1)))))-0.2*(PAKLMUNRTOTLCN-PAKLMUNRSTRLCN)/100+0.15233813938029*DURING_2000-0.183411483907703*DURING_2001) )) * (1-PAKNYWRTFORMCN_D)+ PAKNYWRTFORMCN_X*PAKNYWRTFORMCN_D  $">
<polygon fill="#63b8ff" stroke="black" points="1182.5,-221 955.5,-221 955.5,-185 1182.5,-185 1182.5,-221"/>
<text text-anchor="start" x="962" y="-198.8" font-family="Times New Roman,serif" font-size="14.00" fill="blue">PAKNYWRTFORMCN:Formal wage</text>
</a>
</g>
</g>
<!-- PAKNYGDPMKTPKN&#45;&gt;PAKNYWRTFORMCN -->
<g id="edge15" class="edge"><title>PAKNYGDPMKTPKN-&gt;PAKNYWRTFORMCN</title>
<g id="a_edge15"><a xlink:href="bogus" xlink:title=" PAKNYGDPMKTPKN -&gt; PAKNYWRTFORMCN Min. att. -3148%  max: 101%">
<path fill="none" stroke="black" stroke-width="8" d="M662.065,-373.875C696.806,-339.289 778.294,-264.272 863,-230 888.636,-219.627 917.408,-213.053 945.106,-208.929"/>
<polygon fill="black" stroke="black" stroke-width="8" points="946.314,-215.829 955.255,-207.518 944.386,-201.962 946.314,-215.829"/>
</a>
</g>
</g>
<!-- PAKFMLBLMTWOKN_FITTED -->
<g id="node18" class="node"><title>PAKFMLBLMTWOKN_FITTED</title>
<g id="a_node18"><a xlink:title="Fitted  value:Real money supply
FRML &lt;FIT&gt; PAKFMLBLMTWOKN_FITTED = PAKFMLBLMTWOKN(-1)*EXP( (-0.2*(LOG(PAKFMLBLMTWOKN(-1))-LOG(PAKNYGDPMKTPKN(-1))+0.1*PAKFMLBLPOLYXN(-1)/100-LOG(PAKVELOCITY(-1)))-0.32628131688075+0.7*((LOG(PAKNYGDPMKTPKN))-(LOG(PAKNYGDPMKTPKN(-1))))-1*((PAKFMLBLPOLYXN/100)-(PAKFMLBLPOLYXN(-1)/100))-((LOG(PAKVELOCITY))-(LOG(PAKVELOCITY(-1))))) ) $">
<polygon fill="#63b8ff" stroke="black" points="1263,-167 875,-167 875,-131 1263,-131 1263,-167"/>
<text text-anchor="start" x="881" y="-144.8" font-family="Times New Roman,serif" font-size="14.00" fill="blue">PAKFMLBLMTWOKN_FITTED:Fitted  value:Real money supply</text>
</a>
</g>
</g>
<!-- PAKNYGDPMKTPKN&#45;&gt;PAKFMLBLMTWOKN_FITTED -->
<g id="edge6" class="edge"><title>PAKNYGDPMKTPKN-&gt;PAKFMLBLMTWOKN_FITTED</title>
<g id="a_edge6"><a xlink:href="bogus" xlink:title=" PAKNYGDPMKTPKN -&gt; PAKFMLBLMTWOKN_FITTED Min. att. -360%  max: 149%">
<path fill="none" stroke="black" stroke-width="8" d="M656.429,-373.865C685.735,-331.005 765.988,-223.498 863,-176 866.854,-174.113 870.795,-172.344 874.806,-170.685"/>
<polygon fill="black" stroke="black" stroke-width="8" points="877.491,-177.151 884.286,-167.011 872.432,-164.097 877.491,-177.151"/>
</a>
</g>
</g>
<!-- PAKNEADPKMAXKN -->
<g id="node19" class="node"><title>PAKNEADPKMAXKN</title>
<g id="a_node19"><a xlink:title="PAKNEADPKMAXKN
FRML &lt;Z,EXO&gt; PAKNEADPKMAXKN = (0*DUMH+((1+0.01)/(0.01+PAKDEPR))*(PAKAVDAMAGE/100)*PAKNYGDPMKTPKN + PAKNEADPKMAXKN_A)* (1-PAKNEADPKMAXKN_D)+ PAKNEADPKMAXKN_X*PAKNEADPKMAXKN_D  $">
<polygon fill="#63b8ff" stroke="black" points="1144,-113 994,-113 994,-77 1144,-77 1144,-113"/>
<text text-anchor="start" x="1000" y="-90.8" font-family="Times New Roman,serif" font-size="14.00" fill="blue">PAKNEADPKMAXKN:</text>
</a>
</g>
</g>
<!-- PAKNYGDPMKTPKN&#45;&gt;PAKNEADPKMAXKN -->
<g id="edge22" class="edge"><title>PAKNYGDPMKTPKN-&gt;PAKNEADPKMAXKN</title>
<g id="a_edge22"><a xlink:href="bogus" xlink:title=" PAKNYGDPMKTPKN -&gt; PAKNEADPKMAXKN Min. att. 100%  max: 100%">
<path fill="none" stroke="black" stroke-width="8" d="M652.947,-373.91C677.358,-323.905 753.314,-183.454 863,-122 899.223,-101.705 944.561,-94.2379 983.384,-92.1494"/>
<polygon fill="black" stroke="black" stroke-width="8" points="983.932,-99.1325 993.625,-91.7131 983.336,-85.1452 983.932,-99.1325"/>
</a>
</g>
</g>
<!-- PAKNYWRTINFMCN_FITTED -->
<g id="node24" class="node"><title>PAKNYWRTINFMCN_FITTED</title>
<g id="a_node24"><a xlink:title="Fitted  value:Informal wage
FRML &lt;FIT&gt; PAKNYWRTINFMCN_FITTED = PAKNYWRTINFMCN(-1)*EXP( (-0.122614247140616-0.3*(LOG(PAKNYWRTINFMCN(-1))-LOG(PAKNYGDPFCSTXN(-1))-LOG(PAKNYGDPPOTLKN(-1)/PAKLMEMPSTRLCN(-1)))+0.2*((LOG(PAKNYWRTINFMCN(-1)))-(LOG(PAKNYWRTINFMCN(-2))))+(1-0.2)*(0.5*((LOG(PAKNYGDPFCSTXN(-1)))-(LOG(PAKNYGDPFCSTXN(-2))))+0.5*(PAKINFLEXPT/100)+((LOG(PAKNYGDPMKTPKN/PAKLMEMPSTRLCN))-(LOG(PAKNYGDPMKTPKN(-1)/PAKLMEMPSTRLCN(-1)))))-0.2*(PAKLMUNRTOTLCN-PAKLMUNRSTRLCN)/100+0.15347529018182*DURING_2000-0.183372342445734*DURING_2001) ) $">
<polygon fill="#63b8ff" stroke="black" points="1247,-59 891,-59 891,-23 1247,-23 1247,-59"/>
<text text-anchor="start" x="897" y="-36.8" font-family="Times New Roman,serif" font-size="14.00" fill="blue">PAKNYWRTINFMCN_FITTED:Fitted  value:Informal wage</text>
</a>
</g>
</g>
<!-- PAKNYGDPMKTPKN&#45;&gt;PAKNYWRTINFMCN_FITTED -->
<g id="edge23" class="edge"><title>PAKNYGDPMKTPKN-&gt;PAKNYWRTINFMCN_FITTED</title>
<g id="a_edge23"><a xlink:href="bogus" xlink:title=" PAKNYGDPMKTPKN -&gt; PAKNYWRTINFMCN_FITTED Min. att. -3148%  max: 101%">
<path fill="none" stroke="black" stroke-width="8" d="M650.664,-373.686C670.785,-317.031 740.408,-143.874 863,-68 868.896,-64.3507 875.07,-61.0985 881.445,-58.2041"/>
<polygon fill="black" stroke="black" stroke-width="8" points="884.421,-64.5464 890.922,-54.2149 878.989,-51.6431 884.421,-64.5464"/>
</a>
</g>
</g>
<!-- PAKDISPREPKN -->
<g id="node11" class="node"><title>PAKDISPREPKN</title>
<g id="a_node11"><a xlink:title="Investment in disaster risk preparation, constant prices
FRML  &lt;&gt; PAKDISPREPKN = PAKDISPREPCN/PAKNYGDPMKTPXN $">
<polygon fill="#63b8ff" stroke="black" points="424,-518 0,-518 0,-482 424,-482 424,-518"/>
<text text-anchor="start" x="6" y="-495.8" font-family="Times New Roman,serif" font-size="14.00" fill="blue">PAKDISPREPKN:Investment in disaster risk preparation, constant prices</text>
</a>
</g>
</g>
<!-- PAKDISPREPKN&#45;&gt;PAKNYGDPMKTPKN -->
<g id="edge3" class="edge"><title>PAKDISPREPKN-&gt;PAKNYGDPMKTPKN</title>
<g id="a_edge3"><a xlink:href="bogus" xlink:title=" PAKDISPREPKN -&gt; PAKNYGDPMKTPKN Min. att. -0%  max: 0%">
<path fill="none" stroke="black" d="M381.503,-481.95C395.954,-479.341 410.283,-476.373 424,-473 483.659,-458.329 549.425,-432.561 593.06,-414.024"/>
<polygon fill="black" stroke="black" points="594.482,-417.222 602.296,-410.068 591.726,-410.788 594.482,-417.222"/>
</a>
</g>
</g>
<!-- PAKNEGDIFTOTKN -->
<g id="node12" class="node"><title>PAKNEGDIFTOTKN</title>
<g id="a_node12"><a xlink:title="Total Gross Capital Formation
FRML  &lt;&gt; PAKNEGDIFTOTKN = PAKNEGDIFGOVKN+PAKNEGDIFPRVKN $">
<polygon fill="#63b8ff" stroke="black" points="369,-464 55,-464 55,-428 369,-428 369,-464"/>
<text text-anchor="start" x="61" y="-441.8" font-family="Times New Roman,serif" font-size="14.00" fill="blue">PAKNEGDIFTOTKN:Total Gross Capital Formation</text>
</a>
</g>
</g>
<!-- PAKNEGDIFTOTKN&#45;&gt;PAKNYGDPMKTPKN -->
<g id="edge17" class="edge"><title>PAKNEGDIFTOTKN-&gt;PAKNYGDPMKTPKN</title>
<g id="a_edge17"><a xlink:href="bogus" xlink:title=" PAKNEGDIFTOTKN -&gt; PAKNYGDPMKTPKN Min. att. -36%  max: 366%">
<path fill="none" stroke="black" stroke-width="8" d="M356.316,-427.981C398.977,-422.618 445.882,-416.72 489.155,-411.28"/>
<polygon fill="black" stroke="black" stroke-width="8" points="490.149,-418.21 499.198,-410.017 488.403,-404.319 490.149,-418.21"/>
</a>
</g>
</g>
<!-- PAKNEIMPGNFSKN -->
<g id="node13" class="node"><title>PAKNEIMPGNFSKN</title>
<g id="a_node13"><a xlink:title="Imports (G&amp;S)
FRML &lt;Z,EXO&gt; PAKNEIMPGNFSKN = (PAKNEIMPGNFSKN(-1)*EXP(-PAKNEIMPGNFSKN_A+ (-0.324143718656754*(LOG(PAKNEIMPGNFSKN(-1))-LOG(PAKNEGDETTOTKN(-1))+0.8*LOG(PAKNEIMPGNFSXN(-1)/PAKNYGDPFCSTXN(-1)))-0.583459272245018+1*((LOG(PAKNEGDETTOTKN))-(LOG(PAKNEGDETTOTKN(-1))))-0.0921874580409631*((LOG(PAKNEIMPGNFSXN/PAKNYGDPFCSTXN))-(LOG(PAKNEIMPGNFSXN(-1)/PAKNYGDPFCSTXN(-1))))-0.0361746331863615*DURING_2012) )) * (1-PAKNEIMPGNFSKN_D)+ PAKNEIMPGNFSKN_X*PAKNEIMPGNFSKN_D  $">
<polygon fill="#63b8ff" stroke="black" points="326.5,-410 97.5,-410 97.5,-374 326.5,-374 326.5,-410"/>
<text text-anchor="start" x="104" y="-387.8" font-family="Times New Roman,serif" font-size="14.00" fill="blue">PAKNEIMPGNFSKN:Imports (G&amp;S)</text>
</a>
</g>
</g>
<!-- PAKNEIMPGNFSKN&#45;&gt;PAKNYGDPMKTPKN -->
<g id="edge21" class="edge"><title>PAKNEIMPGNFSKN-&gt;PAKNYGDPMKTPKN</title>
<g id="a_edge21"><a xlink:href="bogus" xlink:title=" PAKNEIMPGNFSKN -&gt; PAKNYGDPMKTPKN Min. att. -46%  max: 456%">
<path fill="none" stroke="black" stroke-width="8" d="M326.689,-392C364.422,-392 407.548,-392 449.549,-392"/>
<polygon fill="black" stroke="black" stroke-width="8" points="449.626,-399 459.626,-392 449.626,-385 449.626,-399"/>
</a>
</g>
</g>
<!-- PAKNEEXPGNFSKN -->
<g id="node20" class="node"><title>PAKNEEXPGNFSKN</title>
<g id="a_node20"><a xlink:title="Exports (G&amp;S)
FRML &lt;Z,EXO&gt; PAKNEEXPGNFSKN = (PAKNEEXPGNFSKN(-1)*EXP(-PAKNEEXPGNFSKN_A+ (-0.35*(LOG(PAKNEEXPGNFSKN(-1))-LOG(PAKXMKT(-1))-0.6*LOG(PAKNEEXPGNFSXN(-1)/(PAKNYGDPFCSTXN(-1))))+1*((LOG(PAKXMKT))-(LOG(PAKXMKT(-1))))+0.3*((LOG(PAKNEEXPGNFSXN/(PAKNYGDPFCSTXN)))-(LOG(PAKNEEXPGNFSXN(-1)/(PAKNYGDPFCSTXN(-1)))))+4.38465374402991-0.237469889780178*DURING_1999-0.230689812873392*DURING_1998+0.320967524344658*DURING_1991+0.250252413901575*DURING_1986) )) * (1-PAKNEEXPGNFSKN_D)+ PAKNEEXPGNFSKN_X*PAKNEEXPGNFSKN_D  $">
<polygon fill="#63b8ff" stroke="black" points="327.5,-356 96.5,-356 96.5,-320 327.5,-320 327.5,-356"/>
<text text-anchor="start" x="103" y="-333.8" font-family="Times New Roman,serif" font-size="14.00" fill="blue">PAKNEEXPGNFSKN:Exports (G&amp;S)</text>
</a>
</g>
</g>
<!-- PAKNEEXPGNFSKN&#45;&gt;PAKNYGDPMKTPKN -->
<g id="edge13" class="edge"><title>PAKNEEXPGNFSKN-&gt;PAKNYGDPMKTPKN</title>
<g id="a_edge13"><a xlink:href="bogus" xlink:title=" PAKNEEXPGNFSKN -&gt; PAKNYGDPMKTPKN Min. att. -10%  max: 0%">
<path fill="none" stroke="black" d="M327.534,-352.4C377.027,-358.623 435.674,-365.996 488.865,-372.684"/>
<polygon fill="black" stroke="black" points="488.718,-376.193 499.077,-373.968 489.592,-369.248 488.718,-376.193"/>
</a>
</g>
</g>
<!-- PAKNECONGOVTKN -->
<g id="node21" class="node"><title>PAKNECONGOVTKN</title>
<g id="a_node21"><a xlink:title="Government Consumption
FRML  &lt;&gt; PAKNECONGOVTKN = PAKNECONGOVTCN/PAKNECONGOVTXN $">
<polygon fill="#63b8ff" stroke="black" points="361.5,-302 62.5,-302 62.5,-266 361.5,-266 361.5,-302"/>
<text text-anchor="start" x="69" y="-279.8" font-family="Times New Roman,serif" font-size="14.00" fill="blue">PAKNECONGOVTKN:Government Consumption</text>
</a>
</g>
</g>
<!-- PAKNECONGOVTKN&#45;&gt;PAKNYGDPMKTPKN -->
<g id="edge11" class="edge"><title>PAKNECONGOVTKN-&gt;PAKNYGDPMKTPKN</title>
<g id="a_edge11"><a xlink:href="bogus" xlink:title=" PAKNECONGOVTKN -&gt; PAKNYGDPMKTPKN Min. att. -108%  max: 835%">
<path fill="none" stroke="black" stroke-width="8" d="M361.638,-298.691C382.715,-302.027 404.007,-306.083 424,-311 483.659,-325.671 549.425,-351.439 593.06,-369.976"/>
<polygon fill="black" stroke="black" stroke-width="8" points="590.348,-376.429 602.296,-373.932 595.86,-363.56 590.348,-376.429"/>
</a>
</g>
</g>
<!-- PAKADAP -->
<g id="node22" class="node"><title>PAKADAP</title>
<g id="a_node22"><a xlink:title="Switch on adaptation mode (0 or 1)
Exogen">
<polygon fill="yellow" stroke="black" points="352,-248 72,-248 72,-212 352,-212 352,-248"/>
<text text-anchor="start" x="78" y="-225.8" font-family="Times New Roman,serif" font-size="14.00" fill="blue">PAKADAP:Switch on adaptation mode (0 or 1)</text>
</a>
</g>
</g>
<!-- PAKADAP&#45;&gt;PAKNYGDPMKTPKN -->
<g id="edge1" class="edge"><title>PAKADAP-&gt;PAKNYGDPMKTPKN</title>
<g id="a_edge1"><a xlink:href="bogus" xlink:title=" PAKADAP -&gt; PAKNYGDPMKTPKN Min. att. -0%  max: 0%">
<path fill="none" stroke="black" d="M352.031,-239.234C376.442,-243.258 401.285,-248.956 424,-257 497.381,-282.987 572.294,-336.314 612.522,-367.606"/>
<polygon fill="black" stroke="black" points="610.542,-370.502 620.567,-373.931 614.869,-364.999 610.542,-370.502"/>
</a>
</g>
</g>
<!-- PAKNYGDPDISCKN -->
<g id="node23" class="node"><title>PAKNYGDPDISCKN</title>
<g id="a_node23"><a xlink:title="Statistical Discrepency (Expenditure Side)
Exogen">
<polygon fill="yellow" stroke="black" points="401,-194 23,-194 23,-158 401,-158 401,-194"/>
<text text-anchor="start" x="29" y="-171.8" font-family="Times New Roman,serif" font-size="14.00" fill="blue">PAKNYGDPDISCKN:Statistical Discrepency (Expenditure Side)</text>
</a>
</g>
</g>
<!-- PAKNYGDPDISCKN&#45;&gt;PAKNYGDPMKTPKN -->
<g id="edge10" class="edge"><title>PAKNYGDPDISCKN-&gt;PAKNYGDPMKTPKN</title>
<g id="a_edge10"><a xlink:href="bogus" xlink:title=" PAKNYGDPDISCKN -&gt; PAKNYGDPMKTPKN Min. att. -0%  max: 0%">
<path fill="none" stroke="black" d="M400.731,-194.039C408.706,-196.675 416.498,-199.648 424,-203 509.218,-241.077 586.002,-323.668 621.583,-365.935"/>
<polygon fill="black" stroke="black" points="619.057,-368.371 628.14,-373.825 624.44,-363.897 619.057,-368.371"/>
</a>
</g>
</g>
</g>
</svg>