<svg xmlns="http://www.w3.org/2000/svg" xmlns:xlink="http://www.w3.org/1999/xlink" width="432pt" height="367pt" viewBox="0.00 0.00 432.00 367.14">
<g id="graph0" class="graph" transform="scale(0.372735 0.372735) rotate(0) translate(4 981)">
<title>TD</title>
<polygon fill="white" stroke="none" points="-4,4 -4,-981 1155,-981 1155,4 -4,4"/>
<text text-anchor="middle" x="575.5" y="-7.8" font-family="Times New Roman,serif" font-size="14.00">PAKNECONPRVTKN</text>
<!-- PAKSMAGRFSNGKN -->
<g id="node1" class="node"><title>PAKSMAGRFSNGKN</title>
<g id="a_node1"><a xlink:title="PAKSMAGRFSNGKN
FRML  &lt;&gt; PAKSMAGRFSNGKN = ((1+1.92407325889309)*(0.00246195499563977*PAKNECONPRVTKN+0*PAKNECONGOVTKN+0*PAKNEGDIFTOTKN+0.00130433854799597*PAKNEEXPGNFSKN+0.00497657560072267*PAKNEGDISTKBKN)-1.14989260682794E-05*PAKNEIMPGNFSKN-2.46467171367829E-07*PAKNYTAXNINDKN-26993)/(1+0.506095544048804) $">
<polygon fill="#63b8ff" stroke="black" points="1018.5,-977 868.5,-977 868.5,-941 1018.5,-941 1018.5,-977"/>
<text text-anchor="start" x="874.5" y="-954.8" font-family="Times New Roman,serif" font-size="14.00" fill="blue">PAKSMAGRFSNGKN:</text>
</a>
</g>
</g>
<!-- PAKSMSRVHSNGKN -->
<g id="node2" class="node"><title>PAKSMSRVHSNGKN</title>
<g id="a_node2"><a xlink:title="PAKSMSRVHSNGKN
FRML  &lt;&gt; PAKSMSRVHSNGKN = ((1+0.782809577554843)*(0.0647364660896117*PAKNECONPRVTKN+0*PAKNECONGOVTKN+0.00605333595533851*PAKNEGDIFTOTKN+0.03048358523237*PAKNEEXPGNFSKN+0*PAKNEGDISTKBKN)-0.0244768173208691*PAKNEIMPGNFSKN-0.0684093628903126*PAKNYTAXNINDKN-0)/(1+0.150771193398883) $">
<polygon fill="#63b8ff" stroke="black" points="1018,-923 869,-923 869,-887 1018,-887 1018,-923"/>
<text text-anchor="start" x="875.5" y="-900.8" font-family="Times New Roman,serif" font-size="14.00" fill="blue">PAKSMSRVHSNGKN:</text>
</a>
</g>
</g>
<!-- PAKNECONPRVTXN -->
<g id="node3" class="node"><title>PAKNECONPRVTXN</title>
<g id="a_node3"><a xlink:title="Household demand
FRML  &lt;&gt; PAKNECONPRVTXN = ((PAKNECONENGYSH**PAKCESENGYCON)*PAKNECONENGYXN**(1-PAKCESENGYCON)+(PAKNECONOTHRSH**PAKCESENGYCON)*PAKNECONOTHRXN**(1-PAKCESENGYCON))**(1/(1-PAKCESENGYCON)) $">
<polygon fill="#63b8ff" stroke="black" points="316,-707 60,-707 60,-671 316,-671 316,-707"/>
<text text-anchor="start" x="66" y="-684.8" font-family="Times New Roman,serif" font-size="14.00" fill="blue">PAKNECONPRVTXN:Household demand</text>
</a>
</g>
</g>
<!-- PAKNECONPRVTKN -->
<g id="node4" class="node"><title>PAKNECONPRVTKN</title>
<g id="a_node4"><a xlink:title="Household Consumption
FRML &lt;Z,EXO&gt; PAKNECONPRVTKN = (PAKNECONPRVTKN(-1)*EXP(-PAKNECONPRVTKN_A+ (-0.2*(LOG(PAKNECONPRVTKN(-1))-LOG((PAKNYYWBTOTLCN(-1)*(1-PAKGGREVDRCTXN(-1)/100))/PAKNECONPRVTXN(-1)))+1*((LOG((PAKNYYWBTOTLCN*(1-PAKGGREVDRCTXN/100))/PAKNECONPRVTXN))-(LOG((PAKNYYWBTOTLCN(-1)*(1-PAKGGREVDRCTXN(-1)/100))/PAKNECONPRVTXN(-1))))+0.0303228629698929+0.0163839011059956*DURING_2010-0.3*(PAKFMLBLPOLYXN/100-((LOG(PAKNECONPRVTXN))-(LOG(PAKNECONPRVTXN(-1)))))) )) * (1-PAKNECONPRVTKN_D)+ PAKNECONPRVTKN_X*PAKNECONPRVTKN_D  $">
<polygon fill="red" stroke="black" points="700,-518 412,-518 412,-482 700,-482 700,-518"/>
<text text-anchor="start" x="418" y="-495.8" font-family="Times New Roman,serif" font-size="14.00" fill="blue">PAKNECONPRVTKN:Household Consumption</text>
</a>
</g>
</g>
<!-- PAKNECONPRVTXN&#45;&gt;PAKNECONPRVTKN -->
<g id="edge9" class="edge"><title>PAKNECONPRVTXN-&gt;PAKNECONPRVTKN</title>
<g id="a_edge9"><a xlink:href="bogus" xlink:title=" PAKNECONPRVTXN -&gt; PAKNECONPRVTKN Min. att. -5708%  max: 593%">
<path fill="none" stroke="black" stroke-width="8" d="M316.205,-680.993C336.807,-676.796 357.447,-670.723 376,-662 444.235,-629.919 504.962,-562.929 535.038,-525.934"/>
<polygon fill="black" stroke="black" stroke-width="8" points="540.538,-530.264 541.326,-518.083 529.611,-521.512 540.538,-530.264"/>
</a>
</g>
</g>
<!-- PAKNECONPRVTKN&#45;&gt;PAKSMAGRFSNGKN -->
<g id="edge12" class="edge"><title>PAKNECONPRVTKN-&gt;PAKSMAGRFSNGKN</title>
<g id="a_edge12"><a xlink:href="bogus" xlink:title=" PAKNECONPRVTKN -&gt; PAKSMAGRFSNGKN Min. att. -29%  max: 170%">
<path fill="none" stroke="black" stroke-width="8" d="M558.335,-518.147C564.355,-585.677 595.216,-824.085 736,-932 770.257,-958.259 817.472,-965.899 858.108,-966.574"/>
<polygon fill="black" stroke="black" stroke-width="8" points="858.266,-973.575 868.286,-966.603 858.306,-959.575 858.266,-973.575"/>
</a>
</g>
</g>
<!-- PAKNECONPRVTKN&#45;&gt;PAKSMSRVHSNGKN -->
<g id="edge13" class="edge"><title>PAKNECONPRVTKN-&gt;PAKSMSRVHSNGKN</title>
<g id="a_edge13"><a xlink:href="bogus" xlink:title=" PAKNECONPRVTKN -&gt; PAKSMSRVHSNGKN Min. att. 34%  max: 147%">
<path fill="none" stroke="black" stroke-width="8" d="M559.458,-518.041C568.943,-580.05 609.202,-785.69 736,-878 770.896,-903.404 818.153,-910.986 858.654,-911.844"/>
<polygon fill="black" stroke="black" stroke-width="8" points="858.738,-918.845 868.793,-911.924 858.849,-904.845 858.738,-918.845"/>
</a>
</g>
</g>
<!-- PAKNYGDPMKTPKN -->
<g id="node6" class="node"><title>PAKNYGDPMKTPKN</title>
<g id="a_node6"><a xlink:title="GDP Expenditure side at market prices
FRML  &lt;&gt; PAKNYGDPMKTPKN = PAKNECONPRVTKN+PAKNECONGOVTKN+PAKNEGDIFTOTKN+PAKNEGDISTKBKN+PAKNEEXPGNFSKN-PAKNEIMPGNFSKN+PAKNYGDPDISCKN+PAKADAP*PAKDISPREPKN $">
<polygon fill="#63b8ff" stroke="black" points="1127,-869 760,-869 760,-833 1127,-833 1127,-869"/>
<text text-anchor="start" x="766.5" y="-846.8" font-family="Times New Roman,serif" font-size="14.00" fill="blue">PAKNYGDPMKTPKN:GDP Expenditure side at market prices</text>
</a>
</g>
</g>
<!-- PAKNECONPRVTKN&#45;&gt;PAKNYGDPMKTPKN -->
<g id="edge17" class="edge"><title>PAKNECONPRVTKN-&gt;PAKNYGDPMKTPKN</title>
<g id="a_edge17"><a xlink:href="bogus" xlink:title=" PAKNECONPRVTKN -&gt; PAKNYGDPMKTPKN Min. att. -1557%  max: 290%">
<path fill="none" stroke="black" stroke-width="8" d="M560.973,-518.226C574.309,-574.625 623.141,-747.114 736,-824 740.669,-827.181 745.537,-830.074 750.563,-832.702"/>
<polygon fill="black" stroke="black" stroke-width="8" points="747.721,-839.103 759.771,-837.153 753.814,-826.499 747.721,-839.103"/>
</a>
</g>
</g>
<!-- PAKNEGDETTOTKN -->
<g id="node7" class="node"><title>PAKNEGDETTOTKN</title>
<g id="a_node7"><a xlink:title="GDE
FRML  &lt;&gt; PAKNEGDETTOTKN = (PAKNECONPRVTKN+PAKNECONGOVTKN+PAKNEGDIFTOTKN+PAKNEGDISTKBKN+PAKNYGDPDISCKN) $">
<polygon fill="#63b8ff" stroke="black" points="1031,-815 856,-815 856,-779 1031,-779 1031,-815"/>
<text text-anchor="start" x="862.5" y="-792.8" font-family="Times New Roman,serif" font-size="14.00" fill="blue">PAKNEGDETTOTKN:GDE</text>
</a>
</g>
</g>
<!-- PAKNECONPRVTKN&#45;&gt;PAKNEGDETTOTKN -->
<g id="edge16" class="edge"><title>PAKNECONPRVTKN-&gt;PAKNEGDETTOTKN</title>
<g id="a_edge16"><a xlink:href="bogus" xlink:title=" PAKNECONPRVTKN -&gt; PAKNEGDETTOTKN Min. att. -2284%  max: 2484%">
<path fill="none" stroke="black" stroke-width="8" d="M562.925,-518.027C580.342,-567.871 636.506,-707.942 736,-770 768.317,-790.157 809.005,-798.297 845.702,-800.897"/>
<polygon fill="black" stroke="black" stroke-width="8" points="845.549,-807.899 855.937,-801.488 846.357,-793.923 845.549,-807.899"/>
</a>
</g>
</g>
<!-- PAKSMSRVWHSLKN -->
<g id="node9" class="node"><title>PAKSMSRVWHSLKN</title>
<g id="a_node9"><a xlink:title="PAKSMSRVWHSLKN
FRML  &lt;&gt; PAKSMSRVWHSLKN = ((1+1.17766663382018E-08)*(0*PAKNECONPRVTKN+0*PAKNECONGOVTKN+0*PAKNEGDIFTOTKN+0*PAKNEEXPGNFSKN+0*PAKNEGDISTKBKN)-0*PAKNEIMPGNFSKN-0*PAKNYTAXNINDKN--4160770)/(1+0.265916086910196) $">
<polygon fill="#63b8ff" stroke="black" points="1019,-761 868,-761 868,-725 1019,-725 1019,-761"/>
<text text-anchor="start" x="874.5" y="-738.8" font-family="Times New Roman,serif" font-size="14.00" fill="blue">PAKSMSRVWHSLKN:</text>
</a>
</g>
</g>
<!-- PAKNECONPRVTKN&#45;&gt;PAKSMSRVWHSLKN -->
<g id="edge14" class="edge"><title>PAKNECONPRVTKN-&gt;PAKSMSRVWHSLKN</title>
<g id="a_edge14"><a xlink:href="bogus" xlink:title=" PAKNECONPRVTKN -&gt; PAKSMSRVWHSLKN Min. att. 0%  max: 0%">
<path fill="none" stroke="black" d="M565.873,-518.113C587.911,-560.926 649.659,-668.336 736,-716 772.611,-736.211 818.293,-743.67 857.376,-745.775"/>
<polygon fill="black" stroke="black" points="857.544,-749.285 867.684,-746.216 857.843,-742.292 857.544,-749.285"/>
</a>
</g>
</g>
<!-- PAKSMSRVFINSKN -->
<g id="node10" class="node"><title>PAKSMSRVFINSKN</title>
<g id="a_node10"><a xlink:title="PAKSMSRVFINSKN
FRML  &lt;&gt; PAKSMSRVFINSKN = ((1+1.04148314760779)*(0.0520379651885469*PAKNECONPRVTKN+0*PAKNECONGOVTKN+0*PAKNEGDIFTOTKN+0.00879145012359898*PAKNEEXPGNFSKN+0*PAKNEGDISTKBKN)-0.00594416979264236*PAKNEIMPGNFSKN-0.000103762679145856*PAKNYTAXNINDKN-0)/(1+0.24687745523084) $">
<polygon fill="#63b8ff" stroke="black" points="1014.5,-707 872.5,-707 872.5,-671 1014.5,-671 1014.5,-707"/>
<text text-anchor="start" x="878.5" y="-684.8" font-family="Times New Roman,serif" font-size="14.00" fill="blue">PAKSMSRVFINSKN:</text>
</a>
</g>
</g>
<!-- PAKNECONPRVTKN&#45;&gt;PAKSMSRVFINSKN -->
<g id="edge20" class="edge"><title>PAKNECONPRVTKN-&gt;PAKSMSRVFINSKN</title>
<g id="a_edge20"><a xlink:href="bogus" xlink:title=" PAKNECONPRVTKN -&gt; PAKSMSRVFINSKN Min. att. -104%  max: 125%">
<path fill="none" stroke="black" stroke-width="8" d="M570.633,-518.171C597.783,-552.836 662.375,-627.984 736,-662 775.101,-680.065 822.528,-687.164 862.066,-689.591"/>
<polygon fill="black" stroke="black" stroke-width="8" points="861.847,-696.589 872.201,-690.122 862.581,-682.608 861.847,-696.589"/>
</a>
</g>
</g>
<!-- PAKSMINDCNSTKN -->
<g id="node12" class="node"><title>PAKSMINDCNSTKN</title>
<g id="a_node12"><a xlink:title="PAKSMINDCNSTKN
FRML  &lt;&gt; PAKSMINDCNSTKN = ((1+0.0370651228196874)*(0*PAKNECONPRVTKN+0*PAKNECONGOVTKN+0.433487212699245*PAKNEGDIFTOTKN+0.00170061231445462*PAKNEEXPGNFSKN+0.0166541213494276*PAKNEGDISTKBKN)-0.00444968266528859*PAKNEIMPGNFSKN-0*PAKNYTAXNINDKN-55116.3653855153)/(1+1.91367284458402) $">
<polygon fill="#63b8ff" stroke="black" points="1015.5,-653 871.5,-653 871.5,-617 1015.5,-617 1015.5,-653"/>
<text text-anchor="start" x="877.5" y="-630.8" font-family="Times New Roman,serif" font-size="14.00" fill="blue">PAKSMINDCNSTKN:</text>
</a>
</g>
</g>
<!-- PAKNECONPRVTKN&#45;&gt;PAKSMINDCNSTKN -->
<g id="edge25" class="edge"><title>PAKNECONPRVTKN-&gt;PAKSMINDCNSTKN</title>
<g id="a_edge25"><a xlink:href="bogus" xlink:title=" PAKNECONPRVTKN -&gt; PAKSMINDCNSTKN Min. att. 0%  max: 0%">
<path fill="none" stroke="black" d="M579.742,-518.029C612.3,-542.789 675.018,-586.672 736,-608 775.788,-621.916 822.163,-628.756 860.874,-632.08"/>
<polygon fill="black" stroke="black" points="860.812,-635.586 871.058,-632.889 861.366,-628.608 860.812,-635.586"/>
</a>
</g>
</g>
<!-- PAKSMINDMNGSKN -->
<g id="node13" class="node"><title>PAKSMINDMNGSKN</title>
<g id="a_node13"><a xlink:title="PAKSMINDMNGSKN
FRML  &lt;&gt; PAKSMINDMNGSKN = ((1+6.96158341862144)*(0.0132800565666619*PAKNECONPRVTKN+0*PAKNECONGOVTKN+0*PAKNEGDIFTOTKN+0.00704674623894759*PAKNEEXPGNFSKN+0.024122890632682*PAKNEGDISTKBKN)-0.134221966110302*PAKNEIMPGNFSKN-0.500981557895139*PAKNYTAXNINDKN-123652.869264758)/(1+0.200800622280983) $">
<polygon fill="#63b8ff" stroke="black" points="1017.5,-599 869.5,-599 869.5,-563 1017.5,-563 1017.5,-599"/>
<text text-anchor="start" x="875.5" y="-576.8" font-family="Times New Roman,serif" font-size="14.00" fill="blue">PAKSMINDMNGSKN:</text>
</a>
</g>
</g>
<!-- PAKNECONPRVTKN&#45;&gt;PAKSMINDMNGSKN -->
<g id="edge6" class="edge"><title>PAKNECONPRVTKN-&gt;PAKSMINDMNGSKN</title>
<g id="a_edge6"><a xlink:href="bogus" xlink:title=" PAKNECONPRVTKN -&gt; PAKSMINDMNGSKN Min. att. -1229%  max: 1716%">
<path fill="none" stroke="black" stroke-width="8" d="M608.891,-518.105C644.314,-529.856 692.521,-544.664 736,-554 776.238,-562.64 821.52,-568.934 859.404,-573.261"/>
<polygon fill="black" stroke="black" stroke-width="8" points="858.659,-580.222 869.374,-574.374 860.213,-566.308 858.659,-580.222"/>
</a>
</g>
</g>
<!-- PAKSMAGRFSTYKN -->
<g id="node14" class="node"><title>PAKSMAGRFSTYKN</title>
<g id="a_node14"><a xlink:title="PAKSMAGRFSTYKN
FRML  &lt;&gt; PAKSMAGRFSTYKN = ((1+0.195965019358753)*(0.010131919293849*PAKNECONPRVTKN+0*PAKNECONGOVTKN+0*PAKNEGDIFTOTKN+0.000136733767007103*PAKNEEXPGNFSKN+0.0199955288980741*PAKNEGDISTKBKN)-0.00076829563200478*PAKNEIMPGNFSKN-0.00172030587371022*PAKNYTAXNINDKN-65421)/(1+0.319587584852584) $">
<polygon fill="#63b8ff" stroke="black" points="1017.5,-545 869.5,-545 869.5,-509 1017.5,-509 1017.5,-545"/>
<text text-anchor="start" x="875.5" y="-522.8" font-family="Times New Roman,serif" font-size="14.00" fill="blue">PAKSMAGRFSTYKN:</text>
</a>
</g>
</g>
<!-- PAKNECONPRVTKN&#45;&gt;PAKSMAGRFSTYKN -->
<g id="edge11" class="edge"><title>PAKNECONPRVTKN-&gt;PAKSMAGRFSTYKN</title>
<g id="a_edge11"><a xlink:href="bogus" xlink:title=" PAKNECONPRVTKN -&gt; PAKSMAGRFSTYKN Min. att. 96%  max: 372%">
<path fill="none" stroke="black" stroke-width="8" d="M700.272,-510.035C753.846,-513.787 812.89,-517.922 859.272,-521.171"/>
<polygon fill="black" stroke="black" stroke-width="8" points="858.805,-528.155 869.27,-521.871 859.783,-514.189 858.805,-528.155"/>
</a>
</g>
</g>
<!-- PAKSMSRVGOVSKN -->
<g id="node16" class="node"><title>PAKSMSRVGOVSKN</title>
<g id="a_node16"><a xlink:title="PAKSMSRVGOVSKN
FRML  &lt;&gt; PAKSMSRVGOVSKN = ((1+0)*(0*PAKNECONPRVTKN+0.789129947325563*PAKNECONGOVTKN+0*PAKNEGDIFTOTKN+0*PAKNEEXPGNFSKN+0*PAKNEGDISTKBKN)-0*PAKNEIMPGNFSKN-0*PAKNYTAXNINDKN-0)/(1+0.947258014252215) $">
<polygon fill="#63b8ff" stroke="black" points="1018.5,-491 868.5,-491 868.5,-455 1018.5,-455 1018.5,-491"/>
<text text-anchor="start" x="874.5" y="-468.8" font-family="Times New Roman,serif" font-size="14.00" fill="blue">PAKSMSRVGOVSKN:</text>
</a>
</g>
</g>
<!-- PAKNECONPRVTKN&#45;&gt;PAKSMSRVGOVSKN -->
<g id="edge26" class="edge"><title>PAKNECONPRVTKN-&gt;PAKSMSRVGOVSKN</title>
<g id="a_edge26"><a xlink:href="bogus" xlink:title=" PAKNECONPRVTKN -&gt; PAKSMSRVGOVSKN Min. att. 0%  max: 0%">
<path fill="none" stroke="black" d="M700.272,-489.965C753.547,-486.234 812.231,-482.124 858.493,-478.884"/>
<polygon fill="black" stroke="black" points="858.738,-482.375 868.469,-478.185 858.249,-475.392 858.738,-482.375"/>
</a>
</g>
</g>
<!-- PAKSMSRVTRNSKN -->
<g id="node17" class="node"><title>PAKSMSRVTRNSKN</title>
<g id="a_node17"><a xlink:title="PAKSMSRVTRNSKN
FRML  &lt;&gt; PAKSMSRVTRNSKN = ((1+0.301074862860981)*(0.204687752761289*PAKNECONPRVTKN+0*PAKNECONGOVTKN+0*PAKNEGDIFTOTKN+0.0551862611209703*PAKNEEXPGNFSKN+0*PAKNEGDISTKBKN)--0.0392641863572605*PAKNEIMPGNFSKN-0.0174996684619017*PAKNYTAXNINDKN-0)/(1+1.11680986862739) $">
<polygon fill="#63b8ff" stroke="black" points="1017.5,-437 869.5,-437 869.5,-401 1017.5,-401 1017.5,-437"/>
<text text-anchor="start" x="875.5" y="-414.8" font-family="Times New Roman,serif" font-size="14.00" fill="blue">PAKSMSRVTRNSKN:</text>
</a>
</g>
</g>
<!-- PAKNECONPRVTKN&#45;&gt;PAKSMSRVTRNSKN -->
<g id="edge19" class="edge"><title>PAKNECONPRVTKN-&gt;PAKSMSRVTRNSKN</title>
<g id="a_edge19"><a xlink:href="bogus" xlink:title=" PAKNECONPRVTKN -&gt; PAKSMSRVTRNSKN Min. att. 87%  max: 593%">
<path fill="none" stroke="black" stroke-width="8" d="M608.891,-481.895C644.314,-470.144 692.521,-455.336 736,-446 776.238,-437.36 821.52,-431.066 859.404,-426.739"/>
<polygon fill="black" stroke="black" stroke-width="8" points="860.213,-433.692 869.374,-425.626 858.659,-419.778 860.213,-433.692"/>
</a>
</g>
</g>
<!-- PAKNECONPRVTKN_FITTED -->
<g id="node19" class="node"><title>PAKNECONPRVTKN_FITTED</title>
<g id="a_node19"><a xlink:title="Fitted  value:Household Consumption
FRML &lt;FIT&gt; PAKNECONPRVTKN_FITTED = PAKNECONPRVTKN(-1)*EXP( (-0.2*(LOG(PAKNECONPRVTKN(-1))-LOG((PAKNYYWBTOTLCN(-1)*(1-PAKGGREVDRCTXN(-1)/100))/PAKNECONPRVTXN(-1)))+1*((LOG((PAKNYYWBTOTLCN*(1-PAKGGREVDRCTXN/100))/PAKNECONPRVTXN))-(LOG((PAKNYYWBTOTLCN(-1)*(1-PAKGGREVDRCTXN(-1)/100))/PAKNECONPRVTXN(-1))))+0.0303228629698929+0.0163839011059956*DURING_2010-0.3*(PAKFMLBLPOLYXN/100-((LOG(PAKNECONPRVTXN))-(LOG(PAKNECONPRVTXN(-1)))))) ) $">
<polygon fill="#63b8ff" stroke="black" points="1151,-383 736,-383 736,-347 1151,-347 1151,-383"/>
<text text-anchor="start" x="742.5" y="-360.8" font-family="Times New Roman,serif" font-size="14.00" fill="blue">PAKNECONPRVTKN_FITTED:Fitted  value:Household Consumption</text>
</a>
</g>
</g>
<!-- PAKNECONPRVTKN&#45;&gt;PAKNECONPRVTKN_FITTED -->
<g id="edge10" class="edge"><title>PAKNECONPRVTKN-&gt;PAKNECONPRVTKN_FITTED</title>
<g id="a_edge10"><a xlink:href="bogus" xlink:title=" PAKNECONPRVTKN -&gt; PAKNECONPRVTKN_FITTED Min. att. -786%  max: 175%">
<path fill="none" stroke="black" stroke-width="8" d="M579.742,-481.971C612.3,-457.211 675.018,-413.328 736,-392 742.535,-389.714 749.248,-387.62 756.075,-385.7"/>
<polygon fill="black" stroke="black" stroke-width="8" points="758.296,-392.353 766.153,-383.011 754.686,-378.826 758.296,-392.353"/>
</a>
</g>
</g>
<!-- PAKSMAGRCRPSKN -->
<g id="node20" class="node"><title>PAKSMAGRCRPSKN</title>
<g id="a_node20"><a xlink:title="PAKSMAGRCRPSKN
FRML  &lt;&gt; PAKSMAGRCRPSKN = ((1+2.09928590574241)*(0.144287620838506*PAKNECONPRVTKN+0*PAKNECONGOVTKN+0*PAKNEGDIFTOTKN+0.0572678299039023*PAKNEEXPGNFSKN+0.267381669083985*PAKNEGDISTKBKN)-0.0736247088197363*PAKNEIMPGNFSKN-0.0407034395686347*PAKNYTAXNINDKN-906311)/(1+0.396041694659877) $">
<polygon fill="#63b8ff" stroke="black" points="1018,-329 869,-329 869,-293 1018,-293 1018,-329"/>
<text text-anchor="start" x="875.5" y="-306.8" font-family="Times New Roman,serif" font-size="14.00" fill="blue">PAKSMAGRCRPSKN:</text>
</a>
</g>
</g>
<!-- PAKNECONPRVTKN&#45;&gt;PAKSMAGRCRPSKN -->
<g id="edge7" class="edge"><title>PAKNECONPRVTKN-&gt;PAKSMAGRCRPSKN</title>
<g id="a_edge7"><a xlink:href="bogus" xlink:title=" PAKNECONPRVTKN -&gt; PAKSMAGRCRPSKN Min. att. -25%  max: 208%">
<path fill="none" stroke="black" stroke-width="8" d="M570.633,-481.829C597.783,-447.164 662.375,-372.016 736,-338 773.963,-320.46 819.776,-313.258 858.595,-310.633"/>
<polygon fill="black" stroke="black" stroke-width="8" points="859.25,-317.607 868.824,-310.035 858.432,-303.631 859.25,-317.607"/>
</a>
</g>
</g>
<!-- PAKNECONENGYKN -->
<g id="node21" class="node"><title>PAKNECONENGYKN</title>
<g id="a_node21"><a xlink:title="Energy Consumption
FRML  &lt;&gt; PAKNECONENGYKN = PAKNECONENGYSH**(PAKCESENGYCON)*(PAKNECONPRVTKN*(PAKNECONPRVTXN/PAKNECONENGYXN)**(PAKCESENGYCON)) $">
<polygon fill="#63b8ff" stroke="black" points="1077.5,-275 809.5,-275 809.5,-239 1077.5,-239 1077.5,-275"/>
<text text-anchor="start" x="815.5" y="-252.8" font-family="Times New Roman,serif" font-size="14.00" fill="blue">PAKNECONENGYKN:Energy Consumption</text>
</a>
</g>
</g>
<!-- PAKNECONPRVTKN&#45;&gt;PAKNECONENGYKN -->
<g id="edge4" class="edge"><title>PAKNECONPRVTKN-&gt;PAKNECONENGYKN</title>
<g id="a_edge4"><a xlink:href="bogus" xlink:title=" PAKNECONPRVTKN -&gt; PAKNECONENGYKN Min. att. -699%  max: 3894%">
<path fill="none" stroke="black" stroke-width="8" d="M565.873,-481.887C587.911,-439.074 649.659,-331.664 736,-284 755.37,-273.307 777.279,-266.184 799.406,-261.534"/>
<polygon fill="black" stroke="black" stroke-width="8" points="800.751,-268.403 809.236,-259.629 798.087,-254.659 800.751,-268.403"/>
</a>
</g>
</g>
<!-- PAKNECONOTHRKN -->
<g id="node22" class="node"><title>PAKNECONOTHRKN</title>
<g id="a_node22"><a xlink:title="Other Consumption
FRML  &lt;&gt; PAKNECONOTHRKN = PAKNECONOTHRSH**(PAKCESENGYCON)*(PAKNECONPRVTKN*(PAKNECONPRVTXN/PAKNECONOTHRXN)**(PAKCESENGYCON)) $">
<polygon fill="#63b8ff" stroke="black" points="1074,-221 813,-221 813,-185 1074,-185 1074,-221"/>
<text text-anchor="start" x="819.5" y="-198.8" font-family="Times New Roman,serif" font-size="14.00" fill="blue">PAKNECONOTHRKN:Other Consumption</text>
</a>
</g>
</g>
<!-- PAKNECONPRVTKN&#45;&gt;PAKNECONOTHRKN -->
<g id="edge23" class="edge"><title>PAKNECONPRVTKN-&gt;PAKNECONOTHRKN</title>
<g id="a_edge23"><a xlink:href="bogus" xlink:title=" PAKNECONPRVTKN -&gt; PAKNECONOTHRKN Min. att. -12062%  max: 323%">
<path fill="none" stroke="black" stroke-width="8" d="M562.925,-481.973C580.342,-432.129 636.506,-292.058 736,-230 755.998,-217.527 779.201,-209.655 802.68,-204.85"/>
<polygon fill="black" stroke="black" stroke-width="8" points="804.202,-211.687 812.751,-202.974 801.638,-197.924 804.202,-211.687"/>
</a>
</g>
</g>
<!-- PAKNECONPRVTCN -->
<g id="node23" class="node"><title>PAKNECONPRVTCN</title>
<g id="a_node23"><a xlink:title="Household demand
FRML  &lt;&gt; PAKNECONPRVTCN = PAKNECONPRVTKN*PAKNECONPRVTXN $">
<polygon fill="#63b8ff" stroke="black" points="1071.5,-167 815.5,-167 815.5,-131 1071.5,-131 1071.5,-167"/>
<text text-anchor="start" x="821.5" y="-144.8" font-family="Times New Roman,serif" font-size="14.00" fill="blue">PAKNECONPRVTCN:Household demand</text>
</a>
</g>
</g>
<!-- PAKNECONPRVTKN&#45;&gt;PAKNECONPRVTCN -->
<g id="edge2" class="edge"><title>PAKNECONPRVTKN-&gt;PAKNECONPRVTCN</title>
<g id="a_edge2"><a xlink:href="bogus" xlink:title=" PAKNECONPRVTKN -&gt; PAKNECONPRVTCN Min. att. -720%  max: 6450%">
<path fill="none" stroke="black" stroke-width="8" d="M560.973,-481.774C574.309,-425.375 623.141,-252.886 736,-176 756.419,-162.089 780.651,-153.681 805.205,-148.829"/>
<polygon fill="black" stroke="black" stroke-width="8" points="806.745,-155.666 815.363,-147.021 804.291,-141.882 806.745,-155.666"/>
</a>
</g>
</g>
<!-- PAKSMENGTOTLKN -->
<g id="node24" class="node"><title>PAKSMENGTOTLKN</title>
<g id="a_node24"><a xlink:title="PAKSMENGTOTLKN
FRML  &lt;&gt; PAKSMENGTOTLKN = ((1+1.65868473220397)*(0.0775261497897936*PAKNECONPRVTKN+0*PAKNECONGOVTKN+0*PAKNEGDIFTOTKN+0.0217448978257548*PAKNEEXPGNFSKN+0.0458991644104248*PAKNEGDISTKBKN)-0.11894699850705*PAKNEIMPGNFSKN--0.50579180838529*PAKNYTAXNINDKN-0)/(1+5.65663938581514) $">
<polygon fill="#63b8ff" stroke="black" points="1017.5,-113 869.5,-113 869.5,-77 1017.5,-77 1017.5,-113"/>
<text text-anchor="start" x="875.5" y="-90.8" font-family="Times New Roman,serif" font-size="14.00" fill="blue">PAKSMENGTOTLKN:</text>
</a>
</g>
</g>
<!-- PAKNECONPRVTKN&#45;&gt;PAKSMENGTOTLKN -->
<g id="edge21" class="edge"><title>PAKNECONPRVTKN-&gt;PAKSMENGTOTLKN</title>
<g id="a_edge21"><a xlink:href="bogus" xlink:title=" PAKNECONPRVTKN -&gt; PAKSMENGTOTLKN Min. att. -14%  max: 2187%">
<path fill="none" stroke="black" stroke-width="8" d="M559.458,-481.959C568.943,-419.95 609.202,-214.31 736,-122 771.031,-96.4975 818.518,-88.9552 859.123,-88.1465"/>
<polygon fill="black" stroke="black" stroke-width="8" points="859.332,-95.1453 869.286,-88.0791 859.239,-81.1456 859.332,-95.1453"/>
</a>
</g>
</g>
<!-- PAKSMINDOTHRTKN -->
<g id="node25" class="node"><title>PAKSMINDOTHRTKN</title>
<g id="a_node25"><a xlink:title="PAKSMINDOTHRTKN
FRML  &lt;&gt; PAKSMINDOTHRTKN = ((1+0.483473985412524)*(0.40172973397176*PAKNECONPRVTKN+0*PAKNECONGOVTKN+0.560459287907094*PAKNEGDIFTOTKN+0.719299486591763*PAKNEEXPGNFSKN+0.620970563578771*PAKNEGDISTKBKN)-0.606734386430279*PAKNEIMPGNFSKN-0.866045585295928*PAKNYTAXNINDKN-2983275.63714814)/(1+2.46379868577176) $">
<polygon fill="#63b8ff" stroke="black" points="1021,-59 866,-59 866,-23 1021,-23 1021,-59"/>
<text text-anchor="start" x="872.5" y="-36.8" font-family="Times New Roman,serif" font-size="14.00" fill="blue">PAKSMINDOTHRTKN:</text>
</a>
</g>
</g>
<!-- PAKNECONPRVTKN&#45;&gt;PAKSMINDOTHRTKN -->
<g id="edge5" class="edge"><title>PAKNECONPRVTKN-&gt;PAKSMINDOTHRTKN</title>
<g id="a_edge5"><a xlink:href="bogus" xlink:title=" PAKNECONPRVTKN -&gt; PAKSMINDOTHRTKN Min. att. -11779%  max: 971%">
<path fill="none" stroke="black" stroke-width="8" d="M558.335,-481.853C564.355,-414.323 595.216,-175.915 736,-68 769.596,-42.2476 815.654,-34.403 855.748,-33.4727"/>
<polygon fill="black" stroke="black" stroke-width="8" points="855.867,-40.472 865.801,-33.3785 855.736,-26.4726 855.867,-40.472"/>
</a>
</g>
</g>
<!-- DURING_2010 -->
<g id="node5" class="node"><title>DURING_2010</title>
<g id="a_node5"><a xlink:title="DURING_2010
Exogen">
<polygon fill="yellow" stroke="black" points="240,-653 136,-653 136,-617 240,-617 240,-653"/>
<text text-anchor="start" x="142" y="-630.8" font-family="Times New Roman,serif" font-size="14.00" fill="blue">DURING_2010:</text>
</a>
</g>
</g>
<!-- DURING_2010&#45;&gt;PAKNECONPRVTKN -->
<g id="edge3" class="edge"><title>DURING_2010-&gt;PAKNECONPRVTKN</title>
<g id="a_edge3"><a xlink:href="bogus" xlink:title=" DURING_2010 -&gt; PAKNECONPRVTKN Min. att. -0%  max: 0%">
<path fill="none" stroke="black" d="M240.32,-633.087C278.655,-630.357 331.828,-623.781 376,-608 431.928,-588.019 489.492,-549.456 523.75,-524.23"/>
<polygon fill="black" stroke="black" points="526.016,-526.906 531.942,-518.123 521.833,-521.293 526.016,-526.906"/>
</a>
</g>
</g>
<!-- PAKNYYWBTOTLCN -->
<g id="node8" class="node"><title>PAKNYYWBTOTLCN</title>
<g id="a_node8"><a xlink:title="Economy-wide wage bill
FRML  &lt;&gt; PAKNYYWBTOTLCN = PAKNYWRTTOTLCN*PAKLMEMPTOTLCN $">
<polygon fill="#63b8ff" stroke="black" points="332.5,-599 43.5,-599 43.5,-563 332.5,-563 332.5,-599"/>
<text text-anchor="start" x="50" y="-576.8" font-family="Times New Roman,serif" font-size="14.00" fill="blue">PAKNYYWBTOTLCN:Economy-wide wage bill</text>
</a>
</g>
</g>
<!-- PAKNYYWBTOTLCN&#45;&gt;PAKNECONPRVTKN -->
<g id="edge15" class="edge"><title>PAKNYYWBTOTLCN-&gt;PAKNECONPRVTKN</title>
<g id="a_edge15"><a xlink:href="bogus" xlink:title=" PAKNYYWBTOTLCN -&gt; PAKNECONPRVTKN Min. att. -594%  max: 5823%">
<path fill="none" stroke="black" stroke-width="8" d="M329.814,-562.982C345.457,-560.295 361.109,-557.302 376,-554 415.371,-545.271 458.685,-532.296 492.844,-521.253"/>
<polygon fill="black" stroke="black" stroke-width="8" points="495.343,-527.801 502.679,-518.045 491.001,-514.491 495.343,-527.801"/>
</a>
</g>
</g>
<!-- PAKNECONPRVTKN_X -->
<g id="node11" class="node"><title>PAKNECONPRVTKN_X</title>
<g id="a_node11"><a xlink:title="Exo value:Household Consumption
Exogen">
<polygon fill="yellow" stroke="black" points="369.5,-545 6.5,-545 6.5,-509 369.5,-509 369.5,-545"/>
<text text-anchor="start" x="13" y="-522.8" font-family="Times New Roman,serif" font-size="14.00" fill="blue">PAKNECONPRVTKN_X:Exo value:Household Consumption</text>
</a>
</g>
</g>
<!-- PAKNECONPRVTKN_X&#45;&gt;PAKNECONPRVTKN -->
<g id="edge1" class="edge"><title>PAKNECONPRVTKN_X-&gt;PAKNECONPRVTKN</title>
<g id="a_edge1"><a xlink:href="bogus" xlink:title=" PAKNECONPRVTKN_X -&gt; PAKNECONPRVTKN Min. att. -0%  max: 0%">
<path fill="none" stroke="black" d="M369.587,-513.678C380.311,-512.887 391.046,-512.095 401.645,-511.313"/>
<polygon fill="black" stroke="black" points="402.044,-514.793 411.76,-510.567 401.529,-507.812 402.044,-514.793"/>
</a>
</g>
</g>
<!-- PAKNECONPRVTKN_A -->
<g id="node15" class="node"><title>PAKNECONPRVTKN_A</title>
<g id="a_node15"><a xlink:title="Add factor:Household Consumption
Exogen">
<polygon fill="yellow" stroke="black" points="373,-491 3,-491 3,-455 373,-455 373,-491"/>
<text text-anchor="start" x="9" y="-468.8" font-family="Times New Roman,serif" font-size="14.00" fill="blue">PAKNECONPRVTKN_A:Add factor:Household Consumption</text>
</a>
</g>
</g>
<!-- PAKNECONPRVTKN_A&#45;&gt;PAKNECONPRVTKN -->
<g id="edge18" class="edge"><title>PAKNECONPRVTKN_A-&gt;PAKNECONPRVTKN</title>
<g id="a_edge18"><a xlink:href="bogus" xlink:title=" PAKNECONPRVTKN_A -&gt; PAKNECONPRVTKN Min. att. -0%  max: 0%">
<path fill="none" stroke="black" d="M373.072,-486.579C382.615,-487.283 392.154,-487.987 401.586,-488.683"/>
<polygon fill="black" stroke="black" points="401.542,-492.189 411.773,-489.434 402.057,-485.208 401.542,-492.189"/>
</a>
</g>
</g>
<!-- PAKGGREVDRCTXN -->
<g id="node18" class="node"><title>PAKGGREVDRCTXN</title>
<g id="a_node18"><a xlink:title="Effective tax rates
Exogen">
<polygon fill="yellow" stroke="black" points="313,-437 63,-437 63,-401 313,-401 313,-437"/>
<text text-anchor="start" x="69" y="-414.8" font-family="Times New Roman,serif" font-size="14.00" fill="blue">PAKGGREVDRCTXN:Effective tax rates</text>
</a>
</g>
</g>
<!-- PAKGGREVDRCTXN&#45;&gt;PAKNECONPRVTKN -->
<g id="edge8" class="edge"><title>PAKGGREVDRCTXN-&gt;PAKNECONPRVTKN</title>
<g id="a_edge8"><a xlink:href="bogus" xlink:title=" PAKGGREVDRCTXN -&gt; PAKNECONPRVTKN Min. att. -0%  max: 0%">
<path fill="none" stroke="black" d="M313.197,-434.272C334.254,-437.62 355.825,-441.527 376,-446 415.371,-454.729 458.685,-467.704 492.844,-478.747"/>
<polygon fill="black" stroke="black" points="492.087,-482.182 502.679,-481.955 494.257,-475.527 492.087,-482.182"/>
</a>
</g>
</g>
<!-- PAKFMLBLPOLYXN -->
<g id="node26" class="node"><title>PAKFMLBLPOLYXN</title>
<g id="a_node26"><a xlink:title="Policy Rate
FRML &lt;Z,EXO&gt; PAKFMLBLPOLYXN = (-100*PAKFMLBLPOLYXN_A+100* (0.905129162122953*PAKFMLBLPOLYXN(-1)/100+(1-0.905129162122953)*(PAKMPPOLNATRXN/100+1.2*(((LOG(PAKNECONPRVTXN))-(LOG(PAKNECONPRVTXN(-1))))-PAKINFLEXPT/100)+0.5*PAKNYGDPGAP_/100)) ) * (1-PAKFMLBLPOLYXN_D)+ PAKFMLBLPOLYXN_X*PAKFMLBLPOLYXN_D  $">
<polygon fill="#63b8ff" stroke="black" points="293,-383 83,-383 83,-347 293,-347 293,-383"/>
<text text-anchor="start" x="89" y="-360.8" font-family="Times New Roman,serif" font-size="14.00" fill="blue">PAKFMLBLPOLYXN:Policy Rate</text>
</a>
</g>
</g>
<!-- PAKFMLBLPOLYXN&#45;&gt;PAKNECONPRVTKN -->
<g id="edge24" class="edge"><title>PAKFMLBLPOLYXN-&gt;PAKNECONPRVTKN</title>
<g id="a_edge24"><a xlink:href="bogus" xlink:title=" PAKFMLBLPOLYXN -&gt; PAKNECONPRVTKN Min. att. -160%  max: 20%">
<path fill="none" stroke="black" stroke-width="8" d="M293.185,-372.561C320.654,-376.564 349.898,-382.675 376,-392 431.928,-411.981 489.492,-450.544 523.75,-475.77"/>
<polygon fill="black" stroke="black" stroke-width="8" points="519.741,-481.513 531.942,-481.877 528.108,-470.288 519.741,-481.513"/>
</a>
</g>
</g>
<!-- PAKNECONPRVTKN_D -->
<g id="node27" class="node"><title>PAKNECONPRVTKN_D</title>
<g id="a_node27"><a xlink:title="Exo dummy:Household Consumption
Exogen">
<polygon fill="yellow" stroke="black" points="376,-329 -2.84217e-014,-329 -2.84217e-014,-293 376,-293 376,-329"/>
<text text-anchor="start" x="6" y="-306.8" font-family="Times New Roman,serif" font-size="14.00" fill="blue">PAKNECONPRVTKN_D:Exo dummy:Household Consumption</text>
</a>
</g>
</g>
<!-- PAKNECONPRVTKN_D&#45;&gt;PAKNECONPRVTKN -->
<g id="edge22" class="edge"><title>PAKNECONPRVTKN_D-&gt;PAKNECONPRVTKN</title>
<g id="a_edge22"><a xlink:href="bogus" xlink:title=" PAKNECONPRVTKN_D -&gt; PAKNECONPRVTKN Min. att. -0%  max: 0%">
<path fill="none" stroke="black" d="M353.824,-329.08C361.444,-331.692 368.876,-334.65 376,-338 444.235,-370.081 504.962,-437.071 535.038,-474.066"/>
<polygon fill="black" stroke="black" points="532.343,-476.3 541.326,-481.917 537.807,-471.924 532.343,-476.3"/>
</a>
</g>
</g>
</g>
</svg>