<svg xmlns="http://www.w3.org/2000/svg" xmlns:xlink="http://www.w3.org/1999/xlink" width="432pt" height="367pt" viewBox="0.00 0.00 432.00 367.14">
<g id="graph0" class="graph" transform="scale(0.372735 0.372735) rotate(0) translate(4 981)">
<title>TD</title>
<polygon fill="white" stroke="none" points="-4,4 -4,-981 1155,-981 1155,4 -4,4"/>
<text text-anchor="middle" x="575.5" y="-7.8" font-family="Times New Roman,serif" font-size="14.00">PAKNECONPRVTKN</text>
<!-- PAKNECONPRVTCN -->
<g id="node1" class="node"><title>PAKNECONPRVTCN</title>
<g id="a_node1"><a xlink:title="Household demand
FRML  &lt;&gt; PAKNECONPRVTCN = PAKNECONPRVTKN*PAKNECONPRVTXN $">
<polygon fill="#63b8ff" stroke="black" points="1071.5,-977 815.5,-977 815.5,-941 1071.5,-941 1071.5,-977"/>
<text text-anchor="start" x="821.5" y="-954.8" font-family="Times New Roman,serif" font-size="14.00" fill="blue">PAKNECONPRVTCN:Household demand</text>
</a>
</g>
</g>
<!-- PAKNECONOTHRKN -->
<g id="node2" class="node"><title>PAKNECONOTHRKN</title>
<g id="a_node2"><a xlink:title="Other Consumption
FRML  &lt;&gt; PAKNECONOTHRKN = PAKNECONOTHRSH**(PAKCESENGYCON)*(PAKNECONPRVTKN*(PAKNECONPRVTXN/PAKNECONOTHRXN)**(PAKCESENGYCON)) $">
<polygon fill="#63b8ff" stroke="black" points="1074,-923 813,-923 813,-887 1074,-887 1074,-923"/>
<text text-anchor="start" x="819.5" y="-900.8" font-family="Times New Roman,serif" font-size="14.00" fill="blue">PAKNECONOTHRKN:Other Consumption</text>
</a>
</g>
</g>
<!-- PAKNECONPRVTKN_A -->
<g id="node3" class="node"><title>PAKNECONPRVTKN_A</title>
<g id="a_node3"><a xlink:title="Add factor:Household Consumption
Exogen">
<polygon fill="yellow" stroke="black" points="373,-707 3,-707 3,-671 373,-671 373,-707"/>
<text text-anchor="start" x="9" y="-684.8" font-family="Times New Roman,serif" font-size="14.00" fill="blue">PAKNECONPRVTKN_A:Add factor:Household Consumption</text>
</a>
</g>
</g>
<!-- PAKNECONPRVTKN -->
<g id="node19" class="node"><title>PAKNECONPRVTKN</title>
<g id="a_node19"><a xlink:title="Household Consumption
FRML &lt;Z,EXO&gt; PAKNECONPRVTKN = (PAKNECONPRVTKN(-1)*EXP(-PAKNECONPRVTKN_A+ (-0.2*(LOG(PAKNECONPRVTKN(-1))-LOG((PAKNYYWBTOTLCN(-1)*(1-PAKGGREVDRCTXN(-1)/100))/PAKNECONPRVTXN(-1)))+1*((LOG((PAKNYYWBTOTLCN*(1-PAKGGREVDRCTXN/100))/PAKNECONPRVTXN))-(LOG((PAKNYYWBTOTLCN(-1)*(1-PAKGGREVDRCTXN(-1)/100))/PAKNECONPRVTXN(-1))))+0.0303228629698929+0.0163839011059956*DURING_2010-0.3*(PAKFMLBLPOLYXN/100-((LOG(PAKNECONPRVTXN))-(LOG(PAKNECONPRVTXN(-1)))))) )) * (1-PAKNECONPRVTKN_D)+ PAKNECONPRVTKN_X*PAKNECONPRVTKN_D  $">
<polygon fill="red" stroke="black" points="700,-518 412,-518 412,-482 700,-482 700,-518"/>
<text text-anchor="start" x="418" y="-495.8" font-family="Times New Roman,serif" font-size="14.00" fill="blue">PAKNECONPRVTKN:Household Consumption</text>
</a>
</g>
</g>
<!-- PAKNECONPRVTKN_A&#45;&gt;PAKNECONPRVTKN -->
<g id="edge1" class="edge"><title>PAKNECONPRVTKN_A-&gt;PAKNECONPRVTKN</title>
<g id="a_edge1"><a xlink:href="bogus" xlink:title=" PAKNECONPRVTKN_A -&gt; PAKNECONPRVTKN Min. att. -0%  max: 0%">
<path fill="none" stroke="black" d="M353.824,-670.92C361.444,-668.308 368.876,-665.35 376,-662 444.235,-629.919 504.962,-562.929 535.038,-525.934"/>
<polygon fill="black" stroke="black" points="537.807,-528.076 541.326,-518.083 532.343,-523.7 537.807,-528.076"/>
</a>
</g>
</g>
<!-- PAKNECONPRVTKN_X -->
<g id="node4" class="node"><title>PAKNECONPRVTKN_X</title>
<g id="a_node4"><a xlink:title="Exo value:Household Consumption
Exogen">
<polygon fill="yellow" stroke="black" points="369.5,-653 6.5,-653 6.5,-617 369.5,-617 369.5,-653"/>
<text text-anchor="start" x="13" y="-630.8" font-family="Times New Roman,serif" font-size="14.00" fill="blue">PAKNECONPRVTKN_X:Exo value:Household Consumption</text>
</a>
</g>
</g>
<!-- PAKNECONPRVTKN_X&#45;&gt;PAKNECONPRVTKN -->
<g id="edge14" class="edge"><title>PAKNECONPRVTKN_X-&gt;PAKNECONPRVTKN</title>
<g id="a_edge14"><a xlink:href="bogus" xlink:title=" PAKNECONPRVTKN_X -&gt; PAKNECONPRVTKN Min. att. -0%  max: 0%">
<path fill="none" stroke="black" d="M346.739,-616.894C356.748,-614.313 366.579,-611.366 376,-608 431.928,-588.019 489.492,-549.456 523.75,-524.23"/>
<polygon fill="black" stroke="black" points="526.016,-526.906 531.942,-518.123 521.833,-521.293 526.016,-526.906"/>
</a>
</g>
</g>
<!-- PAKSMINDOTHRTKN -->
<g id="node5" class="node"><title>PAKSMINDOTHRTKN</title>
<g id="a_node5"><a xlink:title="PAKSMINDOTHRTKN
FRML  &lt;&gt; PAKSMINDOTHRTKN = ((1+0.483473985412524)*(0.40172973397176*PAKNECONPRVTKN+0*PAKNECONGOVTKN+0.560459287907094*PAKNEGDIFTOTKN+0.719299486591763*PAKNEEXPGNFSKN+0.620970563578771*PAKNEGDISTKBKN)-0.606734386430279*PAKNEIMPGNFSKN-0.866045585295928*PAKNYTAXNINDKN-2983275.63714814)/(1+2.46379868577176) $">
<polygon fill="#63b8ff" stroke="black" points="1021,-869 866,-869 866,-833 1021,-833 1021,-869"/>
<text text-anchor="start" x="872.5" y="-846.8" font-family="Times New Roman,serif" font-size="14.00" fill="blue">PAKSMINDOTHRTKN:</text>
</a>
</g>
</g>
<!-- PAKNECONENGYKN -->
<g id="node6" class="node"><title>PAKNECONENGYKN</title>
<g id="a_node6"><a xlink:title="Energy Consumption
FRML  &lt;&gt; PAKNECONENGYKN = PAKNECONENGYSH**(PAKCESENGYCON)*(PAKNECONPRVTKN*(PAKNECONPRVTXN/PAKNECONENGYXN)**(PAKCESENGYCON)) $">
<polygon fill="#63b8ff" stroke="black" points="1077.5,-815 809.5,-815 809.5,-779 1077.5,-779 1077.5,-815"/>
<text text-anchor="start" x="815.5" y="-792.8" font-family="Times New Roman,serif" font-size="14.00" fill="blue">PAKNECONENGYKN:Energy Consumption</text>
</a>
</g>
</g>
<!-- PAKNECONPRVTXN -->
<g id="node7" class="node"><title>PAKNECONPRVTXN</title>
<g id="a_node7"><a xlink:title="Household demand
FRML  &lt;&gt; PAKNECONPRVTXN = ((PAKNECONENGYSH**PAKCESENGYCON)*PAKNECONENGYXN**(1-PAKCESENGYCON)+(PAKNECONOTHRSH**PAKCESENGYCON)*PAKNECONOTHRXN**(1-PAKCESENGYCON))**(1/(1-PAKCESENGYCON)) $">
<polygon fill="#63b8ff" stroke="black" points="316,-599 60,-599 60,-563 316,-563 316,-599"/>
<text text-anchor="start" x="66" y="-576.8" font-family="Times New Roman,serif" font-size="14.00" fill="blue">PAKNECONPRVTXN:Household demand</text>
</a>
</g>
</g>
<!-- PAKNECONPRVTXN&#45;&gt;PAKNECONPRVTKN -->
<g id="edge11" class="edge"><title>PAKNECONPRVTXN-&gt;PAKNECONPRVTKN</title>
<g id="a_edge11"><a xlink:href="bogus" xlink:title=" PAKNECONPRVTXN -&gt; PAKNECONPRVTKN Min. att. -5708%  max: 593%">
<path fill="none" stroke="black" stroke-width="8" d="M316.209,-565.246C336.306,-562.007 356.785,-558.26 376,-554 415.371,-545.271 458.685,-532.296 492.844,-521.253"/>
<polygon fill="black" stroke="black" stroke-width="8" points="495.343,-527.801 502.679,-518.045 491.001,-514.491 495.343,-527.801"/>
</a>
</g>
</g>
<!-- PAKNECONPRVTKN_FITTED -->
<g id="node8" class="node"><title>PAKNECONPRVTKN_FITTED</title>
<g id="a_node8"><a xlink:title="Fitted  value:Household Consumption
FRML &lt;FIT&gt; PAKNECONPRVTKN_FITTED = PAKNECONPRVTKN(-1)*EXP( (-0.2*(LOG(PAKNECONPRVTKN(-1))-LOG((PAKNYYWBTOTLCN(-1)*(1-PAKGGREVDRCTXN(-1)/100))/PAKNECONPRVTXN(-1)))+1*((LOG((PAKNYYWBTOTLCN*(1-PAKGGREVDRCTXN/100))/PAKNECONPRVTXN))-(LOG((PAKNYYWBTOTLCN(-1)*(1-PAKGGREVDRCTXN(-1)/100))/PAKNECONPRVTXN(-1))))+0.0303228629698929+0.0163839011059956*DURING_2010-0.3*(PAKFMLBLPOLYXN/100-((LOG(PAKNECONPRVTXN))-(LOG(PAKNECONPRVTXN(-1)))))) ) $">
<polygon fill="#63b8ff" stroke="black" points="1151,-761 736,-761 736,-725 1151,-725 1151,-761"/>
<text text-anchor="start" x="742.5" y="-738.8" font-family="Times New Roman,serif" font-size="14.00" fill="blue">PAKNECONPRVTKN_FITTED:Fitted  value:Household Consumption</text>
</a>
</g>
</g>
<!-- PAKFMLBLPOLYXN -->
<g id="node9" class="node"><title>PAKFMLBLPOLYXN</title>
<g id="a_node9"><a xlink:title="Policy Rate
FRML &lt;Z,EXO&gt; PAKFMLBLPOLYXN = (-100*PAKFMLBLPOLYXN_A+100* (0.905129162122953*PAKFMLBLPOLYXN(-1)/100+(1-0.905129162122953)*(PAKMPPOLNATRXN/100+1.2*(((LOG(PAKNECONPRVTXN))-(LOG(PAKNECONPRVTXN(-1))))-PAKINFLEXPT/100)+0.5*PAKNYGDPGAP_/100)) ) * (1-PAKFMLBLPOLYXN_D)+ PAKFMLBLPOLYXN_X*PAKFMLBLPOLYXN_D  $">
<polygon fill="#63b8ff" stroke="black" points="293,-545 83,-545 83,-509 293,-509 293,-545"/>
<text text-anchor="start" x="89" y="-522.8" font-family="Times New Roman,serif" font-size="14.00" fill="blue">PAKFMLBLPOLYXN:Policy Rate</text>
</a>
</g>
</g>
<!-- PAKFMLBLPOLYXN&#45;&gt;PAKNECONPRVTKN -->
<g id="edge15" class="edge"><title>PAKFMLBLPOLYXN-&gt;PAKNECONPRVTKN</title>
<g id="a_edge15"><a xlink:href="bogus" xlink:title=" PAKFMLBLPOLYXN -&gt; PAKNECONPRVTKN Min. att. -160%  max: 20%">
<path fill="none" stroke="black" stroke-width="8" d="M293.391,-519.299C327.092,-516.813 365.185,-514.003 401.663,-511.312"/>
<polygon fill="black" stroke="black" stroke-width="8" points="402.446,-518.273 411.903,-510.556 401.415,-504.311 402.446,-518.273"/>
</a>
</g>
</g>
<!-- PAKNECONPRVTKN_D -->
<g id="node10" class="node"><title>PAKNECONPRVTKN_D</title>
<g id="a_node10"><a xlink:title="Exo dummy:Household Consumption
Exogen">
<polygon fill="yellow" stroke="black" points="376,-491 -2.84217e-014,-491 -2.84217e-014,-455 376,-455 376,-491"/>
<text text-anchor="start" x="6" y="-468.8" font-family="Times New Roman,serif" font-size="14.00" fill="blue">PAKNECONPRVTKN_D:Exo dummy:Household Consumption</text>
</a>
</g>
</g>
<!-- PAKNECONPRVTKN_D&#45;&gt;PAKNECONPRVTKN -->
<g id="edge17" class="edge"><title>PAKNECONPRVTKN_D-&gt;PAKNECONPRVTKN</title>
<g id="a_edge17"><a xlink:href="bogus" xlink:title=" PAKNECONPRVTKN_D -&gt; PAKNECONPRVTKN Min. att. -0%  max: 0%">
<path fill="none" stroke="black" d="M376.021,-486.797C384.689,-487.436 393.345,-488.075 401.911,-488.707"/>
<polygon fill="black" stroke="black" points="401.69,-492.2 411.921,-489.445 402.205,-485.219 401.69,-492.2"/>
</a>
</g>
</g>
<!-- PAKSMAGRFSTYKN -->
<g id="node11" class="node"><title>PAKSMAGRFSTYKN</title>
<g id="a_node11"><a xlink:title="PAKSMAGRFSTYKN
FRML  &lt;&gt; PAKSMAGRFSTYKN = ((1+0.195965019358753)*(0.010131919293849*PAKNECONPRVTKN+0*PAKNECONGOVTKN+0*PAKNEGDIFTOTKN+0.000136733767007103*PAKNEEXPGNFSKN+0.0199955288980741*PAKNEGDISTKBKN)-0.00076829563200478*PAKNEIMPGNFSKN-0.00172030587371022*PAKNYTAXNINDKN-65421)/(1+0.319587584852584) $">
<polygon fill="#63b8ff" stroke="black" points="1017.5,-707 869.5,-707 869.5,-671 1017.5,-671 1017.5,-707"/>
<text text-anchor="start" x="875.5" y="-684.8" font-family="Times New Roman,serif" font-size="14.00" fill="blue">PAKSMAGRFSTYKN:</text>
</a>
</g>
</g>
<!-- PAKSMSRVWHSLKN -->
<g id="node12" class="node"><title>PAKSMSRVWHSLKN</title>
<g id="a_node12"><a xlink:title="PAKSMSRVWHSLKN
FRML  &lt;&gt; PAKSMSRVWHSLKN = ((1+1.17766663382018E-08)*(0*PAKNECONPRVTKN+0*PAKNECONGOVTKN+0*PAKNEGDIFTOTKN+0*PAKNEEXPGNFSKN+0*PAKNEGDISTKBKN)-0*PAKNEIMPGNFSKN-0*PAKNYTAXNINDKN--4160770)/(1+0.265916086910196) $">
<polygon fill="#63b8ff" stroke="black" points="1019,-653 868,-653 868,-617 1019,-617 1019,-653"/>
<text text-anchor="start" x="874.5" y="-630.8" font-family="Times New Roman,serif" font-size="14.00" fill="blue">PAKSMSRVWHSLKN:</text>
</a>
</g>
</g>
<!-- PAKNYGDPMKTPKN -->
<g id="node13" class="node"><title>PAKNYGDPMKTPKN</title>
<g id="a_node13"><a xlink:title="GDP Expenditure side at market prices
FRML  &lt;&gt; PAKNYGDPMKTPKN = PAKNECONPRVTKN+PAKNECONGOVTKN+PAKNEGDIFTOTKN+PAKNEGDISTKBKN+PAKNEEXPGNFSKN-PAKNEIMPGNFSKN+PAKNYGDPDISCKN+PAKADAP*PAKDISPREPKN $">
<polygon fill="#63b8ff" stroke="black" points="1127,-599 760,-599 760,-563 1127,-563 1127,-599"/>
<text text-anchor="start" x="766.5" y="-576.8" font-family="Times New Roman,serif" font-size="14.00" fill="blue">PAKNYGDPMKTPKN:GDP Expenditure side at market prices</text>
</a>
</g>
</g>
<!-- PAKSMSRVFINSKN -->
<g id="node14" class="node"><title>PAKSMSRVFINSKN</title>
<g id="a_node14"><a xlink:title="PAKSMSRVFINSKN
FRML  &lt;&gt; PAKSMSRVFINSKN = ((1+1.04148314760779)*(0.0520379651885469*PAKNECONPRVTKN+0*PAKNECONGOVTKN+0*PAKNEGDIFTOTKN+0.00879145012359898*PAKNEEXPGNFSKN+0*PAKNEGDISTKBKN)-0.00594416979264236*PAKNEIMPGNFSKN-0.000103762679145856*PAKNYTAXNINDKN-0)/(1+0.24687745523084) $">
<polygon fill="#63b8ff" stroke="black" points="1014.5,-545 872.5,-545 872.5,-509 1014.5,-509 1014.5,-545"/>
<text text-anchor="start" x="878.5" y="-522.8" font-family="Times New Roman,serif" font-size="14.00" fill="blue">PAKSMSRVFINSKN:</text>
</a>
</g>
</g>
<!-- PAKSMINDCNSTKN -->
<g id="node15" class="node"><title>PAKSMINDCNSTKN</title>
<g id="a_node15"><a xlink:title="PAKSMINDCNSTKN
FRML  &lt;&gt; PAKSMINDCNSTKN = ((1+0.0370651228196874)*(0*PAKNECONPRVTKN+0*PAKNECONGOVTKN+0.433487212699245*PAKNEGDIFTOTKN+0.00170061231445462*PAKNEEXPGNFSKN+0.0166541213494276*PAKNEGDISTKBKN)-0.00444968266528859*PAKNEIMPGNFSKN-0*PAKNYTAXNINDKN-55116.3653855153)/(1+1.91367284458402) $">
<polygon fill="#63b8ff" stroke="black" points="1015.5,-491 871.5,-491 871.5,-455 1015.5,-455 1015.5,-491"/>
<text text-anchor="start" x="877.5" y="-468.8" font-family="Times New Roman,serif" font-size="14.00" fill="blue">PAKSMINDCNSTKN:</text>
</a>
</g>
</g>
<!-- PAKSMSRVHSNGKN -->
<g id="node16" class="node"><title>PAKSMSRVHSNGKN</title>
<g id="a_node16"><a xlink:title="PAKSMSRVHSNGKN
FRML  &lt;&gt; PAKSMSRVHSNGKN = ((1+0.782809577554843)*(0.0647364660896117*PAKNECONPRVTKN+0*PAKNECONGOVTKN+0.00605333595533851*PAKNEGDIFTOTKN+0.03048358523237*PAKNEEXPGNFSKN+0*PAKNEGDISTKBKN)-0.0244768173208691*PAKNEIMPGNFSKN-0.0684093628903126*PAKNYTAXNINDKN-0)/(1+0.150771193398883) $">
<polygon fill="#63b8ff" stroke="black" points="1018,-437 869,-437 869,-401 1018,-401 1018,-437"/>
<text text-anchor="start" x="875.5" y="-414.8" font-family="Times New Roman,serif" font-size="14.00" fill="blue">PAKSMSRVHSNGKN:</text>
</a>
</g>
</g>
<!-- PAKSMAGRCRPSKN -->
<g id="node17" class="node"><title>PAKSMAGRCRPSKN</title>
<g id="a_node17"><a xlink:title="PAKSMAGRCRPSKN
FRML  &lt;&gt; PAKSMAGRCRPSKN = ((1+2.09928590574241)*(0.144287620838506*PAKNECONPRVTKN+0*PAKNECONGOVTKN+0*PAKNEGDIFTOTKN+0.0572678299039023*PAKNEEXPGNFSKN+0.267381669083985*PAKNEGDISTKBKN)-0.0736247088197363*PAKNEIMPGNFSKN-0.0407034395686347*PAKNYTAXNINDKN-906311)/(1+0.396041694659877) $">
<polygon fill="#63b8ff" stroke="black" points="1018,-383 869,-383 869,-347 1018,-347 1018,-383"/>
<text text-anchor="start" x="875.5" y="-360.8" font-family="Times New Roman,serif" font-size="14.00" fill="blue">PAKSMAGRCRPSKN:</text>
</a>
</g>
</g>
<!-- DURING_2010 -->
<g id="node18" class="node"><title>DURING_2010</title>
<g id="a_node18"><a xlink:title="DURING_2010
Exogen">
<polygon fill="yellow" stroke="black" points="240,-437 136,-437 136,-401 240,-401 240,-437"/>
<text text-anchor="start" x="142" y="-414.8" font-family="Times New Roman,serif" font-size="14.00" fill="blue">DURING_2010:</text>
</a>
</g>
</g>
<!-- DURING_2010&#45;&gt;PAKNECONPRVTKN -->
<g id="edge5" class="edge"><title>DURING_2010-&gt;PAKNECONPRVTKN</title>
<g id="a_edge5"><a xlink:href="bogus" xlink:title=" DURING_2010 -&gt; PAKNECONPRVTKN Min. att. -0%  max: 0%">
<path fill="none" stroke="black" d="M240.168,-424.296C277.964,-428.713 330.526,-435.917 376,-446 415.371,-454.729 458.685,-467.704 492.844,-478.747"/>
<polygon fill="black" stroke="black" points="492.087,-482.182 502.679,-481.955 494.257,-475.527 492.087,-482.182"/>
</a>
</g>
</g>
<!-- PAKNECONPRVTKN&#45;&gt;PAKNECONPRVTCN -->
<g id="edge4" class="edge"><title>PAKNECONPRVTKN-&gt;PAKNECONPRVTCN</title>
<g id="a_edge4"><a xlink:href="bogus" xlink:title=" PAKNECONPRVTKN -&gt; PAKNECONPRVTCN Min. att. -720%  max: 6450%">
<path fill="none" stroke="black" stroke-width="8" d="M558.335,-518.147C564.355,-585.677 595.216,-824.085 736,-932 756.013,-947.34 780.448,-956.326 805.409,-961.282"/>
<polygon fill="black" stroke="black" stroke-width="8" points="804.3,-968.194 815.369,-963.047 806.744,-954.409 804.3,-968.194"/>
</a>
</g>
</g>
<!-- PAKNECONPRVTKN&#45;&gt;PAKNECONOTHRKN -->
<g id="edge6" class="edge"><title>PAKNECONPRVTKN-&gt;PAKNECONOTHRKN</title>
<g id="a_edge6"><a xlink:href="bogus" xlink:title=" PAKNECONPRVTKN -&gt; PAKNECONOTHRKN Min. att. -12062%  max: 323%">
<path fill="none" stroke="black" stroke-width="8" d="M559.458,-518.041C568.943,-580.05 609.202,-785.69 736,-878 755.525,-892.214 778.92,-900.849 802.836,-905.848"/>
<polygon fill="black" stroke="black" stroke-width="8" points="801.62,-912.742 812.742,-907.713 804.209,-898.984 801.62,-912.742"/>
</a>
</g>
</g>
<!-- PAKNECONPRVTKN&#45;&gt;PAKSMINDOTHRTKN -->
<g id="edge3" class="edge"><title>PAKNECONPRVTKN-&gt;PAKSMINDOTHRTKN</title>
<g id="a_edge3"><a xlink:href="bogus" xlink:title=" PAKNECONPRVTKN -&gt; PAKSMINDOTHRTKN Min. att. -11779%  max: 971%">
<path fill="none" stroke="black" stroke-width="8" d="M560.973,-518.226C574.309,-574.625 623.141,-747.114 736,-824 770.635,-847.595 816.24,-855.359 855.78,-856.79"/>
<polygon fill="black" stroke="black" stroke-width="8" points="855.797,-863.792 865.957,-857.026 856.122,-849.796 855.797,-863.792"/>
</a>
</g>
</g>
<!-- PAKNECONPRVTKN&#45;&gt;PAKNECONENGYKN -->
<g id="edge22" class="edge"><title>PAKNECONPRVTKN-&gt;PAKNECONENGYKN</title>
<g id="a_edge22"><a xlink:href="bogus" xlink:title=" PAKNECONPRVTKN -&gt; PAKNECONENGYKN Min. att. -699%  max: 3893%">
<path fill="none" stroke="black" stroke-width="8" d="M562.925,-518.027C580.342,-567.871 636.506,-707.942 736,-770 755.04,-781.876 776.986,-789.58 799.309,-794.438"/>
<polygon fill="black" stroke="black" stroke-width="8" points="798.063,-801.327 809.236,-796.412 800.793,-787.596 798.063,-801.327"/>
</a>
</g>
</g>
<!-- PAKNECONPRVTKN&#45;&gt;PAKNECONPRVTKN_FITTED -->
<g id="edge7" class="edge"><title>PAKNECONPRVTKN-&gt;PAKNECONPRVTKN_FITTED</title>
<g id="a_edge7"><a xlink:href="bogus" xlink:title=" PAKNECONPRVTKN -&gt; PAKNECONPRVTKN_FITTED Min. att. -786%  max: 175%">
<path fill="none" stroke="black" stroke-width="8" d="M565.873,-518.113C587.911,-560.926 649.659,-668.336 736,-716 739.101,-717.712 742.267,-719.332 745.489,-720.866"/>
<polygon fill="black" stroke="black" stroke-width="8" points="742.726,-727.298 754.707,-724.961 748.41,-714.504 742.726,-727.298"/>
</a>
</g>
</g>
<!-- PAKNECONPRVTKN&#45;&gt;PAKSMAGRFSTYKN -->
<g id="edge25" class="edge"><title>PAKNECONPRVTKN-&gt;PAKSMAGRFSTYKN</title>
<g id="a_edge25"><a xlink:href="bogus" xlink:title=" PAKNECONPRVTKN -&gt; PAKSMAGRFSTYKN Min. att. 96%  max: 372%">
<path fill="none" stroke="black" stroke-width="8" d="M570.633,-518.171C597.783,-552.836 662.375,-627.984 736,-662 774.114,-679.609 820.14,-686.799 859.057,-689.398"/>
<polygon fill="black" stroke="black" stroke-width="8" points="858.923,-696.402 869.309,-689.989 859.729,-682.425 858.923,-696.402"/>
</a>
</g>
</g>
<!-- PAKNECONPRVTKN&#45;&gt;PAKSMSRVWHSLKN -->
<g id="edge12" class="edge"><title>PAKNECONPRVTKN-&gt;PAKSMSRVWHSLKN</title>
<g id="a_edge12"><a xlink:href="bogus" xlink:title=" PAKNECONPRVTKN -&gt; PAKSMSRVWHSLKN Min. att. 0%  max: 0%">
<path fill="none" stroke="black" d="M579.742,-518.029C612.3,-542.789 675.018,-586.672 736,-608 774.691,-621.532 819.612,-628.374 857.656,-631.797"/>
<polygon fill="black" stroke="black" points="857.424,-635.29 867.681,-632.635 858.007,-628.314 857.424,-635.29"/>
</a>
</g>
</g>
<!-- PAKNECONPRVTKN&#45;&gt;PAKNYGDPMKTPKN -->
<g id="edge8" class="edge"><title>PAKNECONPRVTKN-&gt;PAKNYGDPMKTPKN</title>
<g id="a_edge8"><a xlink:href="bogus" xlink:title=" PAKNECONPRVTKN -&gt; PAKNYGDPMKTPKN Min. att. -1557%  max: 290%">
<path fill="none" stroke="black" stroke-width="8" d="M608.891,-518.105C644.314,-529.856 692.521,-544.664 736,-554 748.395,-556.661 761.268,-559.1 774.256,-561.327"/>
<polygon fill="black" stroke="black" stroke-width="8" points="773.187,-568.246 784.204,-562.99 775.495,-554.437 773.187,-568.246"/>
</a>
</g>
</g>
<!-- PAKNECONPRVTKN&#45;&gt;PAKSMSRVFINSKN -->
<g id="edge26" class="edge"><title>PAKNECONPRVTKN-&gt;PAKSMSRVFINSKN</title>
<g id="a_edge26"><a xlink:href="bogus" xlink:title=" PAKNECONPRVTKN -&gt; PAKSMSRVFINSKN Min. att. -104%  max: 125%">
<path fill="none" stroke="black" stroke-width="8" d="M700.272,-510.035C755.044,-513.871 815.532,-518.107 862.362,-521.387"/>
<polygon fill="black" stroke="black" stroke-width="8" points="861.977,-528.377 872.442,-522.093 862.956,-514.412 861.977,-528.377"/>
</a>
</g>
</g>
<!-- PAKNECONPRVTKN&#45;&gt;PAKSMINDCNSTKN -->
<g id="edge2" class="edge"><title>PAKNECONPRVTKN-&gt;PAKSMINDCNSTKN</title>
<g id="a_edge2"><a xlink:href="bogus" xlink:title=" PAKNECONPRVTKN -&gt; PAKSMINDCNSTKN Min. att. 0%  max: 0%">
<path fill="none" stroke="black" d="M700.272,-489.965C754.644,-486.157 814.651,-481.954 861.336,-478.685"/>
<polygon fill="black" stroke="black" points="861.659,-482.171 871.39,-477.98 861.17,-475.188 861.659,-482.171"/>
</a>
</g>
</g>
<!-- PAKNECONPRVTKN&#45;&gt;PAKSMSRVHSNGKN -->
<g id="edge20" class="edge"><title>PAKNECONPRVTKN-&gt;PAKSMSRVHSNGKN</title>
<g id="a_edge20"><a xlink:href="bogus" xlink:title=" PAKNECONPRVTKN -&gt; PAKSMSRVHSNGKN Min. att. 34%  max: 147%">
<path fill="none" stroke="black" stroke-width="8" d="M608.891,-481.895C644.314,-470.144 692.521,-455.336 736,-446 776.076,-437.395 821.155,-431.116 858.945,-426.791"/>
<polygon fill="black" stroke="black" stroke-width="8" points="859.734,-433.747 868.893,-425.678 858.177,-419.834 859.734,-433.747"/>
</a>
</g>
</g>
<!-- PAKNECONPRVTKN&#45;&gt;PAKSMAGRCRPSKN -->
<g id="edge10" class="edge"><title>PAKNECONPRVTKN-&gt;PAKSMAGRCRPSKN</title>
<g id="a_edge10"><a xlink:href="bogus" xlink:title=" PAKNECONPRVTKN -&gt; PAKSMAGRCRPSKN Min. att. -25%  max: 208%">
<path fill="none" stroke="black" stroke-width="8" d="M579.742,-481.971C612.3,-457.211 675.018,-413.328 736,-392 775.005,-378.358 820.34,-371.516 858.579,-368.12"/>
<polygon fill="black" stroke="black" stroke-width="8" points="859.259,-375.088 868.65,-367.29 858.109,-361.135 859.259,-375.088"/>
</a>
</g>
</g>
<!-- PAKSMINDMNGSKN -->
<g id="node20" class="node"><title>PAKSMINDMNGSKN</title>
<g id="a_node20"><a xlink:title="PAKSMINDMNGSKN
FRML  &lt;&gt; PAKSMINDMNGSKN = ((1+6.96158341862144)*(0.0132800565666619*PAKNECONPRVTKN+0*PAKNECONGOVTKN+0*PAKNEGDIFTOTKN+0.00704674623894759*PAKNEEXPGNFSKN+0.024122890632682*PAKNEGDISTKBKN)-0.134221966110302*PAKNEIMPGNFSKN-0.500981557895139*PAKNYTAXNINDKN-123652.869264758)/(1+0.200800622280983) $">
<polygon fill="#63b8ff" stroke="black" points="1017.5,-329 869.5,-329 869.5,-293 1017.5,-293 1017.5,-329"/>
<text text-anchor="start" x="875.5" y="-306.8" font-family="Times New Roman,serif" font-size="14.00" fill="blue">PAKSMINDMNGSKN:</text>
</a>
</g>
</g>
<!-- PAKNECONPRVTKN&#45;&gt;PAKSMINDMNGSKN -->
<g id="edge18" class="edge"><title>PAKNECONPRVTKN-&gt;PAKSMINDMNGSKN</title>
<g id="a_edge18"><a xlink:href="bogus" xlink:title=" PAKNECONPRVTKN -&gt; PAKSMINDMNGSKN Min. att. -1229%  max: 1716%">
<path fill="none" stroke="black" stroke-width="8" d="M570.633,-481.829C597.783,-447.164 662.375,-372.016 736,-338 774.114,-320.391 820.14,-313.201 859.057,-310.602"/>
<polygon fill="black" stroke="black" stroke-width="8" points="859.729,-317.575 869.309,-310.011 858.923,-303.598 859.729,-317.575"/>
</a>
</g>
</g>
<!-- PAKNEGDETTOTKN -->
<g id="node22" class="node"><title>PAKNEGDETTOTKN</title>
<g id="a_node22"><a xlink:title="GDE
FRML  &lt;&gt; PAKNEGDETTOTKN = (PAKNECONPRVTKN+PAKNECONGOVTKN+PAKNEGDIFTOTKN+PAKNEGDISTKBKN+PAKNYGDPDISCKN) $">
<polygon fill="#63b8ff" stroke="black" points="1031,-275 856,-275 856,-239 1031,-239 1031,-275"/>
<text text-anchor="start" x="862.5" y="-252.8" font-family="Times New Roman,serif" font-size="14.00" fill="blue">PAKNEGDETTOTKN:GDE</text>
</a>
</g>
</g>
<!-- PAKNECONPRVTKN&#45;&gt;PAKNEGDETTOTKN -->
<g id="edge9" class="edge"><title>PAKNECONPRVTKN-&gt;PAKNEGDETTOTKN</title>
<g id="a_edge9"><a xlink:href="bogus" xlink:title=" PAKNECONPRVTKN -&gt; PAKNEGDETTOTKN Min. att. -2284%  max: 2484%">
<path fill="none" stroke="black" stroke-width="8" d="M565.873,-481.887C587.911,-439.074 649.659,-331.664 736,-284 769.056,-265.752 809.506,-257.899 845.818,-254.997"/>
<polygon fill="black" stroke="black" stroke-width="8" points="846.441,-261.97 855.94,-254.305 845.486,-248.003 846.441,-261.97"/>
</a>
</g>
</g>
<!-- PAKSMSRVGOVSKN -->
<g id="node23" class="node"><title>PAKSMSRVGOVSKN</title>
<g id="a_node23"><a xlink:title="PAKSMSRVGOVSKN
FRML  &lt;&gt; PAKSMSRVGOVSKN = ((1+0)*(0*PAKNECONPRVTKN+0.789129947325563*PAKNECONGOVTKN+0*PAKNEGDIFTOTKN+0*PAKNEEXPGNFSKN+0*PAKNEGDISTKBKN)-0*PAKNEIMPGNFSKN-0*PAKNYTAXNINDKN-0)/(1+0.947258014252215) $">
<polygon fill="#63b8ff" stroke="black" points="1018.5,-221 868.5,-221 868.5,-185 1018.5,-185 1018.5,-221"/>
<text text-anchor="start" x="874.5" y="-198.8" font-family="Times New Roman,serif" font-size="14.00" fill="blue">PAKSMSRVGOVSKN:</text>
</a>
</g>
</g>
<!-- PAKNECONPRVTKN&#45;&gt;PAKSMSRVGOVSKN -->
<g id="edge24" class="edge"><title>PAKNECONPRVTKN-&gt;PAKSMSRVGOVSKN</title>
<g id="a_edge24"><a xlink:href="bogus" xlink:title=" PAKNECONPRVTKN -&gt; PAKSMSRVGOVSKN Min. att. 0%  max: 0%">
<path fill="none" stroke="black" d="M562.925,-481.973C580.342,-432.129 636.506,-292.058 736,-230 771.982,-207.557 818.34,-200.011 858.013,-198.424"/>
<polygon fill="black" stroke="black" points="858.312,-201.917 868.21,-198.138 858.116,-194.919 858.312,-201.917"/>
</a>
</g>
</g>
<!-- PAKSMENGTOTLKN -->
<g id="node24" class="node"><title>PAKSMENGTOTLKN</title>
<g id="a_node24"><a xlink:title="PAKSMENGTOTLKN
FRML  &lt;&gt; PAKSMENGTOTLKN = ((1+1.65868473220397)*(0.0775261497897936*PAKNECONPRVTKN+0*PAKNECONGOVTKN+0*PAKNEGDIFTOTKN+0.0217448978257548*PAKNEEXPGNFSKN+0.0458991644104248*PAKNEGDISTKBKN)-0.11894699850705*PAKNEIMPGNFSKN--0.50579180838529*PAKNYTAXNINDKN-0)/(1+5.65663938581514) $">
<polygon fill="#63b8ff" stroke="black" points="1017.5,-167 869.5,-167 869.5,-131 1017.5,-131 1017.5,-167"/>
<text text-anchor="start" x="875.5" y="-144.8" font-family="Times New Roman,serif" font-size="14.00" fill="blue">PAKSMENGTOTLKN:</text>
</a>
</g>
</g>
<!-- PAKNECONPRVTKN&#45;&gt;PAKSMENGTOTLKN -->
<g id="edge13" class="edge"><title>PAKNECONPRVTKN-&gt;PAKSMENGTOTLKN</title>
<g id="a_edge13"><a xlink:href="bogus" xlink:title=" PAKNECONPRVTKN -&gt; PAKSMENGTOTLKN Min. att. -14%  max: 2186%">
<path fill="none" stroke="black" stroke-width="8" d="M560.973,-481.774C574.309,-425.375 623.141,-252.886 736,-176 771.672,-151.698 818.982,-144.19 859.317,-143.098"/>
<polygon fill="black" stroke="black" stroke-width="8" points="859.513,-150.096 869.41,-142.952 859.31,-136.097 859.513,-150.096"/>
</a>
</g>
</g>
<!-- PAKSMAGRFSNGKN -->
<g id="node25" class="node"><title>PAKSMAGRFSNGKN</title>
<g id="a_node25"><a xlink:title="PAKSMAGRFSNGKN
FRML  &lt;&gt; PAKSMAGRFSNGKN = ((1+1.92407325889309)*(0.00246195499563977*PAKNECONPRVTKN+0*PAKNECONGOVTKN+0*PAKNEGDIFTOTKN+0.00130433854799597*PAKNEEXPGNFSKN+0.00497657560072267*PAKNEGDISTKBKN)-1.14989260682794E-05*PAKNEIMPGNFSKN-2.46467171367829E-07*PAKNYTAXNINDKN-26993)/(1+0.506095544048804) $">
<polygon fill="#63b8ff" stroke="black" points="1018.5,-113 868.5,-113 868.5,-77 1018.5,-77 1018.5,-113"/>
<text text-anchor="start" x="874.5" y="-90.8" font-family="Times New Roman,serif" font-size="14.00" fill="blue">PAKSMAGRFSNGKN:</text>
</a>
</g>
</g>
<!-- PAKNECONPRVTKN&#45;&gt;PAKSMAGRFSNGKN -->
<g id="edge16" class="edge"><title>PAKNECONPRVTKN-&gt;PAKSMAGRFSNGKN</title>
<g id="a_edge16"><a xlink:href="bogus" xlink:title=" PAKNECONPRVTKN -&gt; PAKSMAGRFSNGKN Min. att. -29%  max: 170%">
<path fill="none" stroke="black" stroke-width="8" d="M559.458,-481.959C568.943,-419.95 609.202,-214.31 736,-122 770.761,-96.6936 817.789,-89.0723 858.184,-88.1663"/>
<polygon fill="black" stroke="black" stroke-width="8" points="858.365,-95.1651 868.3,-88.074 858.237,-81.1657 858.365,-95.1651"/>
</a>
</g>
</g>
<!-- PAKSMSRVTRNSKN -->
<g id="node26" class="node"><title>PAKSMSRVTRNSKN</title>
<g id="a_node26"><a xlink:title="PAKSMSRVTRNSKN
FRML  &lt;&gt; PAKSMSRVTRNSKN = ((1+0.301074862860981)*(0.204687752761289*PAKNECONPRVTKN+0*PAKNECONGOVTKN+0*PAKNEGDIFTOTKN+0.0551862611209703*PAKNEEXPGNFSKN+0*PAKNEGDISTKBKN)--0.0392641863572605*PAKNEIMPGNFSKN-0.0174996684619017*PAKNYTAXNINDKN-0)/(1+1.11680986862739) $">
<polygon fill="#63b8ff" stroke="black" points="1017.5,-59 869.5,-59 869.5,-23 1017.5,-23 1017.5,-59"/>
<text text-anchor="start" x="875.5" y="-36.8" font-family="Times New Roman,serif" font-size="14.00" fill="blue">PAKSMSRVTRNSKN:</text>
</a>
</g>
</g>
<!-- PAKNECONPRVTKN&#45;&gt;PAKSMSRVTRNSKN -->
<g id="edge21" class="edge"><title>PAKNECONPRVTKN-&gt;PAKSMSRVTRNSKN</title>
<g id="a_edge21"><a xlink:href="bogus" xlink:title=" PAKNECONPRVTKN -&gt; PAKSMSRVTRNSKN Min. att. 87%  max: 593%">
<path fill="none" stroke="black" stroke-width="8" d="M558.335,-481.853C564.355,-414.323 595.216,-175.915 736,-68 770.522,-41.5379 818.202,-33.9843 859.048,-33.4113"/>
<polygon fill="black" stroke="black" stroke-width="8" points="859.276,-40.4114 869.274,-33.4088 859.272,-26.4114 859.276,-40.4114"/>
</a>
</g>
</g>
<!-- PAKGGREVDRCTXN -->
<g id="node21" class="node"><title>PAKGGREVDRCTXN</title>
<g id="a_node21"><a xlink:title="Effective tax rates
Exogen">
<polygon fill="yellow" stroke="black" points="313,-383 63,-383 63,-347 313,-347 313,-383"/>
<text text-anchor="start" x="69" y="-360.8" font-family="Times New Roman,serif" font-size="14.00" fill="blue">PAKGGREVDRCTXN:Effective tax rates</text>
</a>
</g>
</g>
<!-- PAKGGREVDRCTXN&#45;&gt;PAKNECONPRVTKN -->
<g id="edge19" class="edge"><title>PAKGGREVDRCTXN-&gt;PAKNECONPRVTKN</title>
<g id="a_edge19"><a xlink:href="bogus" xlink:title=" PAKGGREVDRCTXN -&gt; PAKNECONPRVTKN Min. att. -0%  max: 0%">
<path fill="none" stroke="black" d="M313.42,-375.862C334.658,-379.718 356.231,-384.937 376,-392 431.928,-411.981 489.492,-450.544 523.75,-475.77"/>
<polygon fill="black" stroke="black" points="521.833,-478.707 531.942,-481.877 526.016,-473.094 521.833,-478.707"/>
</a>
</g>
</g>
<!-- PAKNYYWBTOTLCN -->
<g id="node27" class="node"><title>PAKNYYWBTOTLCN</title>
<g id="a_node27"><a xlink:title="Economy-wide wage bill
FRML  &lt;&gt; PAKNYYWBTOTLCN = PAKNYWRTTOTLCN*PAKLMEMPTOTLCN $">
<polygon fill="#63b8ff" stroke="black" points="332.5,-329 43.5,-329 43.5,-293 332.5,-293 332.5,-329"/>
<text text-anchor="start" x="50" y="-306.8" font-family="Times New Roman,serif" font-size="14.00" fill="blue">PAKNYYWBTOTLCN:Economy-wide wage bill</text>
</a>
</g>
</g>
<!-- PAKNYYWBTOTLCN&#45;&gt;PAKNECONPRVTKN -->
<g id="edge23" class="edge"><title>PAKNYYWBTOTLCN-&gt;PAKNECONPRVTKN</title>
<g id="a_edge23"><a xlink:href="bogus" xlink:title=" PAKNYYWBTOTLCN -&gt; PAKNECONPRVTKN Min. att. -594%  max: 5823%">
<path fill="none" stroke="black" stroke-width="8" d="M332.982,-322.864C347.881,-326.704 362.493,-331.65 376,-338 444.235,-370.081 504.962,-437.071 535.038,-474.066"/>
<polygon fill="black" stroke="black" stroke-width="8" points="529.611,-478.488 541.326,-481.917 540.538,-469.736 529.611,-478.488"/>
</a>
</g>
</g>
</g>
</svg>