<svg xmlns="http://www.w3.org/2000/svg" xmlns:xlink="http://www.w3.org/1999/xlink" width="153pt" height="121pt" viewBox="0.00 0.00 153.00 121.00">
<g id="graph0" class="graph" transform="scale(1 1) rotate(0) translate(4 117)">
<title>TD</title>
<polygon fill="white" stroke="none" points="-4,4 -4,-117 149,-117 149,4 -4,4"/>
<text text-anchor="middle" x="72.5" y="-7.8" font-family="Times New Roman,serif" font-size="14.00">A_model_graph</text>
<!-- A -->
<g id="node1" class="node"><title>A</title>
<g id="a_node1"><a xlink:title="A
FRML &lt;&gt; A=A(-1)+(2)$">
<polygon fill="#63b8ff" stroke="black" points="54,-113 0,-113 0,-77 54,-77 54,-113"/>
<text text-anchor="start" x="21" y="-90.8" font-family="Times New Roman,serif" font-size="14.00" fill="blue">A:</text>
</a>
</g>
</g>
<!-- A(&#45;1) -->
<g id="node2" class="node"><title>A(-1)</title>
<g id="a_node2"><a xlink:title="A
FRML &lt;&gt; A=A(-1)+(2)$">
<polygon fill="springgreen" stroke="black" points="145,-113 90,-113 90,-77 145,-77 145,-113"/>
<text text-anchor="start" x="96.5" y="-90.8" font-family="Times New Roman,serif" font-size="14.00" fill="blue">A(-1):A</text>
</a>
</g>
</g>
<!-- A&#45;&gt;A(&#45;1) -->
<g id="edge2" class="edge"><title>A-&gt;A(-1)</title>
<g id="a_edge2"><a xlink:href="bogus" xlink:title=" A -&gt; A(-1) Min. att. 0%  max: 0%">
<path fill="none" stroke="black" d="M54.0743,-88.7839C62.1214,-88.2841 71.1393,-88.1352 79.7647,-88.3373"/>
<polygon fill="black" stroke="black" points="79.8642,-91.8442 89.9995,-88.7578 80.1517,-84.8501 79.8642,-91.8442"/>
</a>
</g>
</g>
<!-- X -->
<g id="node3" class="node"><title>X</title>
<g id="a_node3"><a xlink:title="X
FRML &lt;&gt; X = A + 42  $">
<polygon fill="#63b8ff" stroke="black" points="144.5,-59 90.5,-59 90.5,-23 144.5,-23 144.5,-59"/>
<text text-anchor="start" x="111.5" y="-36.8" font-family="Times New Roman,serif" font-size="14.00" fill="blue">X:</text>
</a>
</g>
</g>
<!-- A&#45;&gt;X -->
<g id="edge3" class="edge"><title>A-&gt;X</title>
<g id="a_edge3"><a xlink:href="bogus" xlink:title=" A -&gt; X Min. att. 0%  max: 0%">
<path fill="none" stroke="black" d="M54.0743,-79.0903C62.7293,-73.8092 72.5072,-67.8431 81.712,-62.2266"/>
<polygon fill="black" stroke="black" points="83.5929,-65.179 90.3063,-56.9826 79.9468,-59.2036 83.5929,-65.179"/>
</a>
</g>
</g>
<!-- A(&#45;1)&#45;&gt;A -->
<g id="edge1" class="edge"><title>A(-1)-&gt;A</title>
<g id="a_edge1"><a xlink:href="bogus" xlink:title="NA">
<path fill="none" stroke="black" stroke-width="0.5" d="M89.9995,-101.242C81.9186,-101.73 72.891,-101.866 64.2798,-101.652"/>
<polygon fill="black" stroke="black" stroke-width="0.5" points="64.2145,-98.1458 54.0743,-101.216 63.9158,-105.139 64.2145,-98.1458"/>
</a>
</g>
</g>
</g>
</svg>