<svg xmlns="http://www.w3.org/2000/svg" xmlns:xlink="http://www.w3.org/1999/xlink" width="432pt" height="148pt" viewBox="0.00 0.00 432.00 148.37">
<g id="graph0" class="graph" transform="scale(0.38537 0.38537) rotate(0) translate(4 381)">
<title>TD</title>
<polygon fill="white" stroke="none" points="-4,4 -4,-381 1117,-381 1117,4 -4,4"/>
<text text-anchor="middle" x="556.5" y="-7.8" font-family="Times New Roman,serif" font-size="14.00">PAKNYGDPMKTPKN</text>
<!-- PAKNECONPRVTKN -->
<g id="node1" class="node"><title>PAKNECONPRVTKN</title>
<g id="a_node1"><a xlink:title="Household Consumption
FRML &lt;Z,EXO&gt; PAKNECONPRVTKN = (PAKNECONPRVTKN(-1)*EXP(-PAKNECONPRVTKN_A+ (-0.2*(LOG(PAKNECONPRVTKN(-1))-LOG((PAKNYYWBTOTLCN(-1)*(1-PAKGGREVDRCTXN(-1)/100))/PAKNECONPRVTXN(-1)))+1*((LOG((PAKNYYWBTOTLCN*(1-PAKGGREVDRCTXN/100))/PAKNECONPRVTXN))-(LOG((PAKNYYWBTOTLCN(-1)*(1-PAKGGREVDRCTXN(-1)/100))/PAKNECONPRVTXN(-1))))+0.0303228629698929+0.0163839011059956*DURING_2010-0.3*(PAKFMLBLPOLYXN/100-((LOG(PAKNECONPRVTXN))-(LOG(PAKNECONPRVTXN(-1)))))) )) * (1-PAKNECONPRVTKN_D)+ PAKNECONPRVTKN_X*PAKNECONPRVTKN_D  $">
<polygon fill="#63b8ff" stroke="black" points="404.5,-377 116.5,-377 116.5,-341 404.5,-341 404.5,-377"/>
<text text-anchor="start" x="122.5" y="-354.8" font-family="Times New Roman,serif" font-size="14.00" fill="blue">PAKNECONPRVTKN:Household Consumption</text>
</a>
</g>
</g>
<!-- PAKNYGDPMKTPKN -->
<g id="node5" class="node"><title>PAKNYGDPMKTPKN</title>
<polygon fill="none" stroke="black" points="1113,-374 557,-374 557,-182 1113,-182 1113,-374"/>
<g id="a_node5_0"><a xlink:href="bogus" xlink:title="GDP Expenditure side at market prices FRML  &lt;&gt; PAKNYGDPMKTPKN = PAKNECONPRVTKN+PAKNECONGOVTKN+PAKNEGDIFTOTKN+PAKNEGDISTKBKN+PAKNEEXPGNFSKN-PAKNEIMPGNFSKN+PAKNYGDPDISCKN+PAKADAP*PAKDISPREPKN $">
<polygon fill="red" stroke="none" points="562,-348 562,-369 1108,-369 1108,-348 562,-348"/>
<polygon fill="none" stroke="black" points="562,-348 562,-369 1108,-369 1108,-348 562,-348"/>
<text text-anchor="start" x="657.5" y="-354.8" font-family="Times New Roman,serif" font-size="14.00" fill="blue">PAKNYGDPMKTPKN:GDP Expenditure side at market prices</text>
</a>
</g>
<polygon fill="none" stroke="black" points="562,-325 562,-346 638,-346 638,-325 562,-325"/>
<text text-anchor="start" x="565" y="-331.8" font-family="Times New Roman,serif" font-size="14.00" fill="blue">Per</text>
<polygon fill="none" stroke="black" points="640,-325 640,-346 732,-346 732,-325 640,-325"/>
<text text-anchor="start" x="672" y="-331.8" font-family="Times New Roman,serif" font-size="14.00" fill="blue">2020</text>
<polygon fill="none" stroke="black" points="734,-325 734,-346 826,-346 826,-325 734,-325"/>
<text text-anchor="start" x="766" y="-331.8" font-family="Times New Roman,serif" font-size="14.00" fill="blue">2021</text>
<polygon fill="none" stroke="black" points="828,-325 828,-346 920,-346 920,-325 828,-325"/>
<text text-anchor="start" x="860" y="-331.8" font-family="Times New Roman,serif" font-size="14.00" fill="blue">2022</text>
<polygon fill="none" stroke="black" points="922,-325 922,-346 1014,-346 1014,-325 922,-325"/>
<text text-anchor="start" x="954" y="-331.8" font-family="Times New Roman,serif" font-size="14.00" fill="blue">2023</text>
<polygon fill="none" stroke="black" points="1016,-325 1016,-346 1108,-346 1108,-325 1016,-325"/>
<text text-anchor="start" x="1048" y="-331.8" font-family="Times New Roman,serif" font-size="14.00" fill="blue">2024</text>
<g id="a_node5_1"><a xlink:href="bogus" xlink:title="Baseline values">
<polygon fill="none" stroke="black" points="562,-302 562,-323 638,-323 638,-302 562,-302"/>
<text text-anchor="start" x="565" y="-308.8" font-family="Times New Roman,serif" font-size="14.00" fill="blue">Base</text>
</a>
</g>
<g id="a_node5_2"><a xlink:href="bogus" xlink:title="Baseline values">
<polygon fill="none" stroke="black" points="640,-302 640,-323 732,-323 732,-302 640,-302"/>
<text text-anchor="start" x="643" y="-308.8" font-family="Times New Roman,serif" font-size="14.00" fill="blue">26,701,602.458</text>
</a>
</g>
<g id="a_node5_3"><a xlink:href="bogus" xlink:title="Baseline values">
<polygon fill="none" stroke="black" points="734,-302 734,-323 826,-323 826,-302 734,-302"/>
<text text-anchor="start" x="737" y="-308.8" font-family="Times New Roman,serif" font-size="14.00" fill="blue">27,202,580.708</text>
</a>
</g>
<g id="a_node5_4"><a xlink:href="bogus" xlink:title="Baseline values">
<polygon fill="none" stroke="black" points="828,-302 828,-323 920,-323 920,-302 828,-302"/>
<text text-anchor="start" x="831" y="-308.8" font-family="Times New Roman,serif" font-size="14.00" fill="blue">27,801,259.416</text>
</a>
</g>
<g id="a_node5_5"><a xlink:href="bogus" xlink:title="Baseline values">
<polygon fill="none" stroke="black" points="922,-302 922,-323 1014,-323 1014,-302 922,-302"/>
<text text-anchor="start" x="925" y="-308.8" font-family="Times New Roman,serif" font-size="14.00" fill="blue">28,499,818.714</text>
</a>
</g>
<g id="a_node5_6"><a xlink:href="bogus" xlink:title="Baseline values">
<polygon fill="none" stroke="black" points="1016,-302 1016,-323 1108,-323 1108,-302 1016,-302"/>
<text text-anchor="start" x="1019" y="-308.8" font-family="Times New Roman,serif" font-size="14.00" fill="blue">29,256,735.736</text>
</a>
</g>
<g id="a_node5_7"><a xlink:href="bogus" xlink:title="Latest run values">
<polygon fill="none" stroke="black" points="562,-279 562,-300 638,-300 638,-279 562,-279"/>
<text text-anchor="start" x="565" y="-285.8" font-family="Times New Roman,serif" font-size="14.00" fill="blue">Last</text>
</a>
</g>
<polygon fill="none" stroke="black" points="640,-279 640,-300 732,-300 732,-279 640,-279"/>
<text text-anchor="start" x="643" y="-285.8" font-family="Times New Roman,serif" font-size="14.00" fill="blue">26,483,175.564</text>
<polygon fill="none" stroke="black" points="734,-279 734,-300 826,-300 826,-279 734,-279"/>
<text text-anchor="start" x="737" y="-285.8" font-family="Times New Roman,serif" font-size="14.00" fill="blue">27,235,594.384</text>
<polygon fill="none" stroke="black" points="828,-279 828,-300 920,-300 920,-279 828,-279"/>
<text text-anchor="start" x="831" y="-285.8" font-family="Times New Roman,serif" font-size="14.00" fill="blue">27,963,320.841</text>
<polygon fill="none" stroke="black" points="922,-279 922,-300 1014,-300 1014,-279 922,-279"/>
<text text-anchor="start" x="925" y="-285.8" font-family="Times New Roman,serif" font-size="14.00" fill="blue">28,690,715.598</text>
<polygon fill="none" stroke="black" points="1016,-279 1016,-300 1108,-300 1108,-279 1016,-279"/>
<text text-anchor="start" x="1019" y="-285.8" font-family="Times New Roman,serif" font-size="14.00" fill="blue">29,445,700.442</text>
<g id="a_node5_8"><a xlink:href="bogus" xlink:title="Difference between baseline and latest run">
<polygon fill="none" stroke="black" points="562,-256 562,-277 638,-277 638,-256 562,-256"/>
<text text-anchor="start" x="565" y="-262.8" font-family="Times New Roman,serif" font-size="14.00" fill="blue">Diff</text>
</a>
</g>
<polygon fill="none" stroke="black" points="640,-256 640,-277 732,-277 732,-256 640,-256"/>
<text text-anchor="start" x="656" y="-262.8" font-family="Times New Roman,serif" font-size="14.00" fill="blue">-218,426.893</text>
<polygon fill="none" stroke="black" points="734,-256 734,-277 826,-277 826,-256 734,-256"/>
<text text-anchor="start" x="761" y="-262.8" font-family="Times New Roman,serif" font-size="14.00" fill="blue">33,013.675</text>
<polygon fill="none" stroke="black" points="828,-256 828,-277 920,-277 920,-256 828,-256"/>
<text text-anchor="start" x="848" y="-262.8" font-family="Times New Roman,serif" font-size="14.00" fill="blue">162,061.425</text>
<polygon fill="none" stroke="black" points="922,-256 922,-277 1014,-277 1014,-256 922,-256"/>
<text text-anchor="start" x="942" y="-262.8" font-family="Times New Roman,serif" font-size="14.00" fill="blue">190,896.884</text>
<polygon fill="none" stroke="black" points="1016,-256 1016,-277 1108,-277 1108,-256 1016,-256"/>
<text text-anchor="start" x="1036" y="-262.8" font-family="Times New Roman,serif" font-size="14.00" fill="blue">188,964.706</text>
<polygon fill="none" stroke="black" points="562,-233 562,-254 1108,-254 1108,-233 562,-233"/>
<text text-anchor="start" x="799.5" y="-239.8" font-family="Times New Roman,serif" font-size="14.00" fill="blue"> Growth rate</text>
<g id="a_node5_9"><a xlink:href="bogus" xlink:title="Base growth Exogen">
<polygon fill="none" stroke="black" points="562,-210 562,-231 638,-231 638,-210 562,-210"/>
<text text-anchor="start" x="565" y="-216.8" font-family="Times New Roman,serif" font-size="14.00" fill="blue">Base growth</text>
</a>
</g>
<polygon fill="none" stroke="black" points="640,-210 640,-231 732,-231 732,-210 640,-210"/>
<text text-anchor="start" x="698" y="-216.8" font-family="Times New Roman,serif" font-size="14.00" fill="blue">2.087</text>
<polygon fill="none" stroke="black" points="734,-210 734,-231 826,-231 826,-210 734,-210"/>
<text text-anchor="start" x="792" y="-216.8" font-family="Times New Roman,serif" font-size="14.00" fill="blue">1.876</text>
<polygon fill="none" stroke="black" points="828,-210 828,-231 920,-231 920,-210 828,-210"/>
<text text-anchor="start" x="886" y="-216.8" font-family="Times New Roman,serif" font-size="14.00" fill="blue">2.201</text>
<polygon fill="none" stroke="black" points="922,-210 922,-231 1014,-231 1014,-210 922,-210"/>
<text text-anchor="start" x="980" y="-216.8" font-family="Times New Roman,serif" font-size="14.00" fill="blue">2.513</text>
<polygon fill="none" stroke="black" points="1016,-210 1016,-231 1108,-231 1108,-210 1016,-210"/>
<text text-anchor="start" x="1074" y="-216.8" font-family="Times New Roman,serif" font-size="14.00" fill="blue">2.656</text>
<g id="a_node5_10"><a xlink:href="bogus" xlink:title="Last growth Exogen">
<polygon fill="none" stroke="black" points="562,-187 562,-208 638,-208 638,-187 562,-187"/>
<text text-anchor="start" x="565" y="-193.8" font-family="Times New Roman,serif" font-size="14.00" fill="blue">Last growth</text>
</a>
</g>
<polygon fill="none" stroke="black" points="640,-187 640,-208 732,-208 732,-187 640,-187"/>
<text text-anchor="start" x="698" y="-193.8" font-family="Times New Roman,serif" font-size="14.00" fill="blue">1.252</text>
<polygon fill="none" stroke="black" points="734,-187 734,-208 826,-208 826,-187 734,-187"/>
<text text-anchor="start" x="792" y="-193.8" font-family="Times New Roman,serif" font-size="14.00" fill="blue">2.841</text>
<polygon fill="none" stroke="black" points="828,-187 828,-208 920,-208 920,-187 828,-187"/>
<text text-anchor="start" x="886" y="-193.8" font-family="Times New Roman,serif" font-size="14.00" fill="blue">2.672</text>
<polygon fill="none" stroke="black" points="922,-187 922,-208 1014,-208 1014,-187 922,-187"/>
<text text-anchor="start" x="980" y="-193.8" font-family="Times New Roman,serif" font-size="14.00" fill="blue">2.601</text>
<polygon fill="none" stroke="black" points="1016,-187 1016,-208 1108,-208 1108,-187 1016,-187"/>
<text text-anchor="start" x="1074" y="-193.8" font-family="Times New Roman,serif" font-size="14.00" fill="blue">2.631</text>
<polygon fill="none" stroke="black" points="559,-184 559,-372 1111,-372 1111,-184 559,-184"/>
</g>
<!-- PAKNECONPRVTKN&#45;&gt;PAKNYGDPMKTPKN -->
<g id="edge3" class="edge"><title>PAKNECONPRVTKN-&gt;PAKNYGDPMKTPKN</title>
<g id="a_edge3"><a xlink:href="bogus" xlink:title=" PAKNECONPRVTKN -&gt; PAKNYGDPMKTPKN Min. att. -1557%  max: 290%">
<path fill="none" stroke="black" stroke-width="8" d="M404.814,-345.828C442.658,-341.875 483.422,-337.191 521,-332 529.441,-330.834 538.004,-329.612 546.642,-328.345"/>
<polygon fill="black" stroke="black" stroke-width="8" points="547.95,-335.228 556.816,-326.838 545.898,-321.379 547.95,-335.228"/>
</a>
</g>
</g>
<!-- PAKNEIMPGNFSKN -->
<g id="node2" class="node"><title>PAKNEIMPGNFSKN</title>
<g id="a_node2"><a xlink:title="Imports (G&amp;S)
FRML &lt;Z,EXO&gt; PAKNEIMPGNFSKN = (PAKNEIMPGNFSKN(-1)*EXP(-PAKNEIMPGNFSKN_A+ (-0.324143718656754*(LOG(PAKNEIMPGNFSKN(-1))-LOG(PAKNEGDETTOTKN(-1))+0.8*LOG(PAKNEIMPGNFSXN(-1)/PAKNYGDPFCSTXN(-1)))-0.583459272245018+1*((LOG(PAKNEGDETTOTKN))-(LOG(PAKNEGDETTOTKN(-1))))-0.0921874580409631*((LOG(PAKNEIMPGNFSXN/PAKNYGDPFCSTXN))-(LOG(PAKNEIMPGNFSXN(-1)/PAKNYGDPFCSTXN(-1))))-0.0361746331863615*DURING_2012) )) * (1-PAKNEIMPGNFSKN_D)+ PAKNEIMPGNFSKN_X*PAKNEIMPGNFSKN_D  $">
<polygon fill="#63b8ff" stroke="black" points="375,-323 146,-323 146,-287 375,-287 375,-323"/>
<text text-anchor="start" x="152.5" y="-300.8" font-family="Times New Roman,serif" font-size="14.00" fill="blue">PAKNEIMPGNFSKN:Imports (G&amp;S)</text>
</a>
</g>
</g>
<!-- PAKNEIMPGNFSKN&#45;&gt;PAKNYGDPMKTPKN -->
<g id="edge1" class="edge"><title>PAKNEIMPGNFSKN-&gt;PAKNYGDPMKTPKN</title>
<g id="a_edge1"><a xlink:href="bogus" xlink:title=" PAKNEIMPGNFSKN -&gt; PAKNYGDPMKTPKN Min. att. -46%  max: 456%">
<path fill="none" stroke="black" stroke-width="8" d="M375.292,-299.633C425.024,-297.288 485.828,-294.42 546.696,-291.55"/>
<polygon fill="black" stroke="black" stroke-width="8" points="547.201,-298.534 556.86,-291.07 546.542,-284.549 547.201,-298.534"/>
</a>
</g>
</g>
<!-- PAKNECONGOVTKN -->
<g id="node3" class="node"><title>PAKNECONGOVTKN</title>
<g id="a_node3"><a xlink:title="Government Consumption
FRML  &lt;&gt; PAKNECONGOVTKN = PAKNECONGOVTCN/PAKNECONGOVTXN $">
<polygon fill="#63b8ff" stroke="black" points="410,-269 111,-269 111,-233 410,-233 410,-269"/>
<text text-anchor="start" x="117.5" y="-246.8" font-family="Times New Roman,serif" font-size="14.00" fill="blue">PAKNECONGOVTKN:Government Consumption</text>
</a>
</g>
</g>
<!-- PAKNECONGOVTKN&#45;&gt;PAKNYGDPMKTPKN -->
<g id="edge2" class="edge"><title>PAKNECONGOVTKN-&gt;PAKNYGDPMKTPKN</title>
<g id="a_edge2"><a xlink:href="bogus" xlink:title=" PAKNECONGOVTKN -&gt; PAKNYGDPMKTPKN Min. att. -108%  max: 835%">
<path fill="none" stroke="black" stroke-width="8" d="M410.05,-258.006C452.116,-259.99 499.39,-262.219 546.702,-264.451"/>
<polygon fill="black" stroke="black" stroke-width="8" points="546.478,-271.448 556.797,-264.927 547.138,-257.463 546.478,-271.448"/>
</a>
</g>
</g>
<!-- PAKNEGDIFTOTKN -->
<g id="node4" class="node"><title>PAKNEGDIFTOTKN</title>
<polygon fill="none" stroke="black" points="521,-215 0,-215 0,-23 521,-23 521,-215"/>
<g id="a_node4_11"><a xlink:href="bogus" xlink:title="Total Gross Capital Formation FRML  &lt;&gt; PAKNEGDIFTOTKN = PAKNEGDIFGOVKN+PAKNEGDIFPRVKN $">
<polygon fill="#ff7f24" stroke="none" points="5.5,-189 5.5,-210 516.5,-210 516.5,-189 5.5,-189"/>
<polygon fill="none" stroke="black" points="5.5,-189 5.5,-210 516.5,-210 516.5,-189 5.5,-189"/>
<text text-anchor="start" x="110" y="-195.8" font-family="Times New Roman,serif" font-size="14.00" fill="blue">PAKNEGDIFTOTKN:Total Gross Capital Formation</text>
</a>
</g>
<polygon fill="none" stroke="black" points="5.5,-166 5.5,-187 81.5,-187 81.5,-166 5.5,-166"/>
<text text-anchor="start" x="8.5" y="-172.8" font-family="Times New Roman,serif" font-size="14.00" fill="blue">Per</text>
<polygon fill="none" stroke="black" points="83.5,-166 83.5,-187 168.5,-187 168.5,-166 83.5,-166"/>
<text text-anchor="start" x="112" y="-172.8" font-family="Times New Roman,serif" font-size="14.00" fill="blue">2020</text>
<polygon fill="none" stroke="black" points="170.5,-166 170.5,-187 255.5,-187 255.5,-166 170.5,-166"/>
<text text-anchor="start" x="199" y="-172.8" font-family="Times New Roman,serif" font-size="14.00" fill="blue">2021</text>
<polygon fill="none" stroke="black" points="257.5,-166 257.5,-187 342.5,-187 342.5,-166 257.5,-166"/>
<text text-anchor="start" x="286" y="-172.8" font-family="Times New Roman,serif" font-size="14.00" fill="blue">2022</text>
<polygon fill="none" stroke="black" points="344.5,-166 344.5,-187 429.5,-187 429.5,-166 344.5,-166"/>
<text text-anchor="start" x="373" y="-172.8" font-family="Times New Roman,serif" font-size="14.00" fill="blue">2023</text>
<polygon fill="none" stroke="black" points="431.5,-166 431.5,-187 516.5,-187 516.5,-166 431.5,-166"/>
<text text-anchor="start" x="460" y="-172.8" font-family="Times New Roman,serif" font-size="14.00" fill="blue">2024</text>
<g id="a_node4_12"><a xlink:href="bogus" xlink:title="Baseline values">
<polygon fill="none" stroke="black" points="5.5,-143 5.5,-164 81.5,-164 81.5,-143 5.5,-143"/>
<text text-anchor="start" x="8.5" y="-149.8" font-family="Times New Roman,serif" font-size="14.00" fill="blue">Base</text>
</a>
</g>
<g id="a_node4_13"><a xlink:href="bogus" xlink:title="Baseline values">
<polygon fill="none" stroke="black" points="83.5,-143 83.5,-164 168.5,-164 168.5,-143 83.5,-143"/>
<text text-anchor="start" x="86.5" y="-149.8" font-family="Times New Roman,serif" font-size="14.00" fill="blue">3,897,262.075</text>
</a>
</g>
<g id="a_node4_14"><a xlink:href="bogus" xlink:title="Baseline values">
<polygon fill="none" stroke="black" points="170.5,-143 170.5,-164 255.5,-164 255.5,-143 170.5,-143"/>
<text text-anchor="start" x="173.5" y="-149.8" font-family="Times New Roman,serif" font-size="14.00" fill="blue">4,049,448.991</text>
</a>
</g>
<g id="a_node4_15"><a xlink:href="bogus" xlink:title="Baseline values">
<polygon fill="none" stroke="black" points="257.5,-143 257.5,-164 342.5,-164 342.5,-143 257.5,-143"/>
<text text-anchor="start" x="260.5" y="-149.8" font-family="Times New Roman,serif" font-size="14.00" fill="blue">4,210,847.327</text>
</a>
</g>
<g id="a_node4_16"><a xlink:href="bogus" xlink:title="Baseline values">
<polygon fill="none" stroke="black" points="344.5,-143 344.5,-164 429.5,-164 429.5,-143 344.5,-143"/>
<text text-anchor="start" x="347.5" y="-149.8" font-family="Times New Roman,serif" font-size="14.00" fill="blue">4,380,029.524</text>
</a>
</g>
<g id="a_node4_17"><a xlink:href="bogus" xlink:title="Baseline values">
<polygon fill="none" stroke="black" points="431.5,-143 431.5,-164 516.5,-164 516.5,-143 431.5,-143"/>
<text text-anchor="start" x="434.5" y="-149.8" font-family="Times New Roman,serif" font-size="14.00" fill="blue">4,553,907.602</text>
</a>
</g>
<g id="a_node4_18"><a xlink:href="bogus" xlink:title="Latest run values">
<polygon fill="none" stroke="black" points="5.5,-120 5.5,-141 81.5,-141 81.5,-120 5.5,-120"/>
<text text-anchor="start" x="8.5" y="-126.8" font-family="Times New Roman,serif" font-size="14.00" fill="blue">Last</text>
</a>
</g>
<polygon fill="none" stroke="black" points="83.5,-120 83.5,-141 168.5,-141 168.5,-120 83.5,-120"/>
<text text-anchor="start" x="86.5" y="-126.8" font-family="Times New Roman,serif" font-size="14.00" fill="blue">3,975,227.861</text>
<polygon fill="none" stroke="black" points="170.5,-120 170.5,-141 255.5,-141 255.5,-120 170.5,-120"/>
<text text-anchor="start" x="173.5" y="-126.8" font-family="Times New Roman,serif" font-size="14.00" fill="blue">4,170,245.171</text>
<polygon fill="none" stroke="black" points="257.5,-120 257.5,-141 342.5,-141 342.5,-120 257.5,-120"/>
<text text-anchor="start" x="260.5" y="-126.8" font-family="Times New Roman,serif" font-size="14.00" fill="blue">4,354,170.443</text>
<polygon fill="none" stroke="black" points="344.5,-120 344.5,-141 429.5,-141 429.5,-120 344.5,-120"/>
<text text-anchor="start" x="347.5" y="-126.8" font-family="Times New Roman,serif" font-size="14.00" fill="blue">4,535,628.810</text>
<polygon fill="none" stroke="black" points="431.5,-120 431.5,-141 516.5,-141 516.5,-120 431.5,-120"/>
<text text-anchor="start" x="434.5" y="-126.8" font-family="Times New Roman,serif" font-size="14.00" fill="blue">4,717,894.764</text>
<g id="a_node4_19"><a xlink:href="bogus" xlink:title="Difference between baseline and latest run">
<polygon fill="none" stroke="black" points="5.5,-97 5.5,-118 81.5,-118 81.5,-97 5.5,-97"/>
<text text-anchor="start" x="8.5" y="-103.8" font-family="Times New Roman,serif" font-size="14.00" fill="blue">Diff</text>
</a>
</g>
<polygon fill="none" stroke="black" points="83.5,-97 83.5,-118 168.5,-118 168.5,-97 83.5,-97"/>
<text text-anchor="start" x="103.5" y="-103.8" font-family="Times New Roman,serif" font-size="14.00" fill="blue">77,965.786</text>
<polygon fill="none" stroke="black" points="170.5,-97 170.5,-118 255.5,-118 255.5,-97 170.5,-97"/>
<text text-anchor="start" x="183.5" y="-103.8" font-family="Times New Roman,serif" font-size="14.00" fill="blue">120,796.180</text>
<polygon fill="none" stroke="black" points="257.5,-97 257.5,-118 342.5,-118 342.5,-97 257.5,-97"/>
<text text-anchor="start" x="270.5" y="-103.8" font-family="Times New Roman,serif" font-size="14.00" fill="blue">143,323.115</text>
<polygon fill="none" stroke="black" points="344.5,-97 344.5,-118 429.5,-118 429.5,-97 344.5,-97"/>
<text text-anchor="start" x="357.5" y="-103.8" font-family="Times New Roman,serif" font-size="14.00" fill="blue">155,599.287</text>
<polygon fill="none" stroke="black" points="431.5,-97 431.5,-118 516.5,-118 516.5,-97 431.5,-97"/>
<text text-anchor="start" x="444.5" y="-103.8" font-family="Times New Roman,serif" font-size="14.00" fill="blue">163,987.162</text>
<polygon fill="none" stroke="black" points="5.5,-74 5.5,-95 516.5,-95 516.5,-74 5.5,-74"/>
<text text-anchor="start" x="225.5" y="-80.8" font-family="Times New Roman,serif" font-size="14.00" fill="blue"> Growth rate</text>
<g id="a_node4_20"><a xlink:href="bogus" xlink:title="Base growth Exogen">
<polygon fill="none" stroke="black" points="5.5,-51 5.5,-72 81.5,-72 81.5,-51 5.5,-51"/>
<text text-anchor="start" x="8.5" y="-57.8" font-family="Times New Roman,serif" font-size="14.00" fill="blue">Base growth</text>
</a>
</g>
<polygon fill="none" stroke="black" points="83.5,-51 83.5,-72 168.5,-72 168.5,-51 83.5,-51"/>
<text text-anchor="start" x="134.5" y="-57.8" font-family="Times New Roman,serif" font-size="14.00" fill="blue">3.925</text>
<polygon fill="none" stroke="black" points="170.5,-51 170.5,-72 255.5,-72 255.5,-51 170.5,-51"/>
<text text-anchor="start" x="221.5" y="-57.8" font-family="Times New Roman,serif" font-size="14.00" fill="blue">3.905</text>
<polygon fill="none" stroke="black" points="257.5,-51 257.5,-72 342.5,-72 342.5,-51 257.5,-51"/>
<text text-anchor="start" x="308.5" y="-57.8" font-family="Times New Roman,serif" font-size="14.00" fill="blue">3.986</text>
<polygon fill="none" stroke="black" points="344.5,-51 344.5,-72 429.5,-72 429.5,-51 344.5,-51"/>
<text text-anchor="start" x="395.5" y="-57.8" font-family="Times New Roman,serif" font-size="14.00" fill="blue">4.018</text>
<polygon fill="none" stroke="black" points="431.5,-51 431.5,-72 516.5,-72 516.5,-51 431.5,-51"/>
<text text-anchor="start" x="482.5" y="-57.8" font-family="Times New Roman,serif" font-size="14.00" fill="blue">3.970</text>
<g id="a_node4_21"><a xlink:href="bogus" xlink:title="Last growth Exogen">
<polygon fill="none" stroke="black" points="5.5,-28 5.5,-49 81.5,-49 81.5,-28 5.5,-28"/>
<text text-anchor="start" x="8.5" y="-34.8" font-family="Times New Roman,serif" font-size="14.00" fill="blue">Last growth</text>
</a>
</g>
<polygon fill="none" stroke="black" points="83.5,-28 83.5,-49 168.5,-49 168.5,-28 83.5,-28"/>
<text text-anchor="start" x="134.5" y="-34.8" font-family="Times New Roman,serif" font-size="14.00" fill="blue">6.005</text>
<polygon fill="none" stroke="black" points="170.5,-28 170.5,-49 255.5,-49 255.5,-28 170.5,-28"/>
<text text-anchor="start" x="221.5" y="-34.8" font-family="Times New Roman,serif" font-size="14.00" fill="blue">4.906</text>
<polygon fill="none" stroke="black" points="257.5,-28 257.5,-49 342.5,-49 342.5,-28 257.5,-28"/>
<text text-anchor="start" x="308.5" y="-34.8" font-family="Times New Roman,serif" font-size="14.00" fill="blue">4.410</text>
<polygon fill="none" stroke="black" points="344.5,-28 344.5,-49 429.5,-49 429.5,-28 344.5,-28"/>
<text text-anchor="start" x="395.5" y="-34.8" font-family="Times New Roman,serif" font-size="14.00" fill="blue">4.167</text>
<polygon fill="none" stroke="black" points="431.5,-28 431.5,-49 516.5,-49 516.5,-28 431.5,-28"/>
<text text-anchor="start" x="482.5" y="-34.8" font-family="Times New Roman,serif" font-size="14.00" fill="blue">4.019</text>
<polygon fill="none" stroke="black" points="2,-25 2,-213 519,-213 519,-25 2,-25"/>
</g>
<!-- PAKNEGDIFTOTKN&#45;&gt;PAKNYGDPMKTPKN -->
<g id="edge4" class="edge"><title>PAKNEGDIFTOTKN-&gt;PAKNYGDPMKTPKN</title>
<g id="a_edge4"><a xlink:href="bogus" xlink:title=" PAKNEGDIFTOTKN -&gt; PAKNYGDPMKTPKN Min. att. -36%  max: 366%">
<path fill="none" stroke="black" stroke-width="8" d="M521.367,-191.173C529.958,-193.559 538.581,-195.954 547.205,-198.349"/>
<polygon fill="black" stroke="black" stroke-width="8" points="545.432,-205.121 556.941,-201.053 549.179,-191.632 545.432,-205.121"/>
</a>
</g>
</g>
</g>
</svg>