<svg xmlns="http://www.w3.org/2000/svg" xmlns:xlink="http://www.w3.org/1999/xlink" width="432pt" height="118pt" viewBox="0.00 0.00 432.00 118.09">
<g id="graph0" class="graph" transform="scale(0.188646 0.188646) rotate(0) translate(4 622)">
<title>TD</title>
<polygon fill="white" stroke="transparent" points="-4,4 -4,-622 2286,-622 2286,4 -4,4"/>
<text text-anchor="middle" x="1141" y="-7.8" font-family="Times New Roman,serif" font-size="14.00">PAKNYGDPMKTPKN</text>
<!-- PAKNECONGOVTCN -->
<g id="node1" class="node">
<title>PAKNECONGOVTCN</title>
<g id="a_node1"><a xlink:title="Government consumption (G&amp;S)
FRML &lt;Z,EXO&gt; PAKNECONGOVTCN = (-PAKNECONGOVTCN_A*PAKNECONGOVTCN(-1)/100+ ((100 * ( (PAKGGEXPGNFSCN) / (PAKGGEXPGNFSCN(-1)) -1)) +0.764199817873939*DUMH) *PAKNECONGOVTCN(-1)/100+PAKNECONGOVTCN(-1)) * (1-PAKNECONGOVTCN_D)+ PAKNECONGOVTCN_X*PAKNECONGOVTCN_D  $">
<polygon fill="#63b8ff" stroke="black" points="1026.5,-383 697.5,-383 697.5,-347 1026.5,-347 1026.5,-383"/>
<text text-anchor="start" x="704" y="-360.8" font-family="Times New Roman,serif" font-size="14.00" fill="blue">PAKNECONGOVTCN:Government consumption (G&amp;S)</text>
</a>
</g>
</g>
<!-- PAKNECONGOVTKN -->
<g id="node28" class="node">
<title>PAKNECONGOVTKN</title>
<g id="a_node28"><a xlink:title="Government Consumption
FRML  &lt;&gt; PAKNECONGOVTKN = PAKNECONGOVTCN/PAKNECONGOVTXN $">
<polygon fill="#63b8ff" stroke="black" points="1361,-392 1069,-392 1069,-356 1361,-356 1361,-392"/>
<text text-anchor="start" x="1075" y="-369.8" font-family="Times New Roman,serif" font-size="14.00" fill="blue">PAKNECONGOVTKN:Government Consumption</text>
</a>
</g>
</g>
<!-- PAKNECONGOVTCN&#45;&gt;PAKNECONGOVTKN -->
<g id="edge4" class="edge">
<title>PAKNECONGOVTCN-&gt;PAKNECONGOVTKN</title>
<g id="a_edge4"><a xlink:href="bogus" xlink:title=" PAKNECONGOVTCN -&gt; PAKNECONGOVTKN Min. att. 117%  max: 963%">
<path fill="none" stroke="black" stroke-width="8" d="M1026.68,-369.2C1037.38,-369.47 1048.14,-369.75 1058.8,-370.02"/>
<polygon fill="black" stroke="black" stroke-width="8" points="1058.8,-377.02 1068.98,-370.28 1059.16,-363.03 1058.8,-377.02"/>
</a>
</g>
</g>
<!-- PAKNEKRTTOTLCN -->
<g id="node2" class="node">
<title>PAKNEKRTTOTLCN</title>
<g id="a_node2"><a xlink:title="PAKNEKRTTOTLCN
FRML &lt;Z,EXO&gt; PAKNEKRTTOTLCN = (-PAKNEKRTTOTLCN_A+ (((PAKUCK)-(PAKUCK(-1)))+7.05881784375082E-05*DUMH) +PAKNEKRTTOTLCN(-1)) * (1-PAKNEKRTTOTLCN_D)+ PAKNEKRTTOTLCN_X*PAKNEKRTTOTLCN_D  $">
<polygon fill="#63b8ff" stroke="black" points="563,-275 423,-275 423,-239 563,-239 563,-275"/>
<text text-anchor="start" x="429" y="-252.8" font-family="Times New Roman,serif" font-size="14.00" fill="blue">PAKNEKRTTOTLCN:</text>
</a>
</g>
</g>
<!-- PAKNEGDIFPRVKN -->
<g id="node24" class="node">
<title>PAKNEGDIFPRVKN</title>
<g id="a_node24"><a xlink:title="Private Investment
FRML &lt;Z,EXO&gt; PAKNEGDIFPRVKN = (-PAKNEGDIFPRVKN_A*PAKNEGDIKSTKKN(-1)+ (-0.00526826150713402+0.826734606421746*(PAKNEGDIFPRVKN(-1)/PAKNEGDIKSTKKN(-2))+(1-0.826734606421746)*(((LOG(PAKNYGDPPOTLKN))-(LOG(PAKNYGDPPOTLKN(-1))))+PAKDEPR)-0.00378813564556318*((LOG(PAKNEKRTTOTLCN/PAKNYGDPFCSTXN))-(LOG(PAKNEKRTTOTLCN(-1)/PAKNYGDPFCSTXN(-1))))) *PAKNEGDIKSTKKN(-1)) * (1-PAKNEGDIFPRVKN_D)+ PAKNEGDIFPRVKN_X*PAKNEGDIFPRVKN_D  $">
<polygon fill="#63b8ff" stroke="black" points="982,-241 742,-241 742,-205 982,-205 982,-241"/>
<text text-anchor="start" x="748" y="-218.8" font-family="Times New Roman,serif" font-size="14.00" fill="blue">PAKNEGDIFPRVKN:Private Investment</text>
</a>
</g>
</g>
<!-- PAKNEKRTTOTLCN&#45;&gt;PAKNEGDIFPRVKN -->
<g id="edge2" class="edge">
<title>PAKNEKRTTOTLCN-&gt;PAKNEGDIFPRVKN</title>
<g id="a_edge2"><a xlink:href="bogus" xlink:title=" PAKNEKRTTOTLCN -&gt; PAKNEGDIFPRVKN Min. att. -0%  max: 90%">
<path fill="none" stroke="black" stroke-width="8" d="M563.03,-250.6C610.43,-246.21 674.8,-240.25 731.59,-234.99"/>
<polygon fill="black" stroke="black" stroke-width="8" points="732.42,-241.94 741.73,-234.05 731.12,-228 732.42,-241.94"/>
</a>
</g>
</g>
<!-- PAKNEIMPGSNEXN -->
<g id="node3" class="node">
<title>PAKNEIMPGSNEXN</title>
<g id="a_node3"><a xlink:title="Imports (Non-energy)
FRML &lt;Z,EXO&gt; PAKNEIMPGSNEXN = (PAKNEIMPGSNEXN(-1)*EXP(-PAKNEIMPGSNEXN_A+ (-0.278529319815428*(LOG(PAKNEIMPGSNEXN(-1))-0.3*LOG(PAKNYGDPFCSTXN(-1))-(1-0.3)*LOG(PAKPMKEY(-1)*PAKPANUSATLS(-1)))+0.4*((LOG(PAKNYGDPFCSTXN))-(LOG(PAKNYGDPFCSTXN(-1))))+(1-0.4)*((LOG(PAKPMKEY*PAKPANUSATLS))-(LOG(PAKPMKEY(-1)*PAKPANUSATLS(-1))))-0.888813883474775+0.135666902654654*DURING_2012+0.216228696118762*DURING_2008) )) * (1-PAKNEIMPGSNEXN_D)+ PAKNEIMPGSNEXN_X*PAKNEIMPGSNEXN_D  $">
<polygon fill="#63b8ff" stroke="black" points="1345,-500 1085,-500 1085,-464 1345,-464 1345,-500"/>
<text text-anchor="start" x="1091" y="-477.8" font-family="Times New Roman,serif" font-size="14.00" fill="blue">PAKNEIMPGSNEXN:Imports (Non-energy)</text>
</a>
</g>
</g>
<!-- PAKNEIMPGNFSXN -->
<g id="node17" class="node">
<title>PAKNEIMPGNFSXN</title>
<g id="a_node17"><a xlink:title="Imports (G&amp;S)
FRML  &lt;&gt; PAKNEIMPGNFSXN = ((PAKNEIMPENGYSH**PAKCESENGYIMPT)*PAKNVENGNIMPXN**(1-PAKCESENGYIMPT)+(PAKNEIMPOTHRSH**PAKCESENGYIMPT)*PAKNEIMPGSNEXN**(1-PAKCESENGYIMPT))**(1/(1-PAKCESENGYIMPT)) $">
<polygon fill="#63b8ff" stroke="black" points="1626,-500 1403,-500 1403,-464 1626,-464 1626,-500"/>
<text text-anchor="start" x="1409.5" y="-477.8" font-family="Times New Roman,serif" font-size="14.00" fill="blue">PAKNEIMPGNFSXN:Imports (G&amp;S)</text>
</a>
</g>
</g>
<!-- PAKNEIMPGSNEXN&#45;&gt;PAKNEIMPGNFSXN -->
<g id="edge9" class="edge">
<title>PAKNEIMPGSNEXN-&gt;PAKNEIMPGNFSXN</title>
<g id="a_edge9"><a xlink:href="bogus" xlink:title=" PAKNEIMPGSNEXN -&gt; PAKNEIMPGNFSXN Min. att. -4%  max: 63%">
<path fill="none" stroke="black" stroke-width="6.33" d="M1345.19,-482C1360.88,-482 1376.87,-482 1392.44,-482"/>
<polygon fill="black" stroke="black" stroke-width="6.33" points="1392.6,-487.54 1402.6,-482 1392.6,-476.46 1392.6,-487.54"/>
</a>
</g>
</g>
<!-- PAKNECONPRVTKN -->
<g id="node4" class="node">
<title>PAKNECONPRVTKN</title>
<g id="a_node4"><a xlink:title="Household Consumption
FRML &lt;Z,EXO&gt; PAKNECONPRVTKN = (PAKNECONPRVTKN(-1)*EXP(-PAKNECONPRVTKN_A+ (-0.2*(LOG(PAKNECONPRVTKN(-1))-LOG((PAKNYYWBTOTLCN(-1)*(1-PAKGGREVDRCTXN(-1)/100))/PAKNECONPRVTXN(-1)))+1*((LOG((PAKNYYWBTOTLCN*(1-PAKGGREVDRCTXN/100))/PAKNECONPRVTXN))-(LOG((PAKNYYWBTOTLCN(-1)*(1-PAKGGREVDRCTXN(-1)/100))/PAKNECONPRVTXN(-1))))+0.0303228629698929+0.0163839011059956*DURING_2010-0.3*(PAKFMLBLPOLYXN/100-((LOG(PAKNECONPRVTXN))-(LOG(PAKNECONPRVTXN(-1)))))) )) * (1-PAKNECONPRVTKN_D)+ PAKNECONPRVTKN_X*PAKNECONPRVTKN_D  $">
<polygon fill="#63b8ff" stroke="black" points="1354,-446 1076,-446 1076,-410 1354,-410 1354,-446"/>
<text text-anchor="start" x="1082" y="-423.8" font-family="Times New Roman,serif" font-size="14.00" fill="blue">PAKNECONPRVTKN:Household Consumption</text>
</a>
</g>
</g>
<!-- PAKNYGDPMKTPKN -->
<g id="node5" class="node">
<title>PAKNYGDPMKTPKN</title>
<g id="a_node5"><a xlink:title="GDP Expenditure side at market prices
FRML  &lt;&gt; PAKNYGDPMKTPKN = PAKNECONPRVTKN+PAKNECONGOVTKN+PAKNEGDIFTOTKN+PAKNEGDISTKBKN+PAKNEEXPGNFSKN-PAKNEIMPGNFSKN+PAKNYGDPDISCKN+PAKADAP*PAKDISPREPKN $">
<polygon fill="red" stroke="black" points="2282,-381 1921,-381 1921,-345 2282,-345 2282,-381"/>
<text text-anchor="start" x="1927.5" y="-358.8" font-family="Times New Roman,serif" font-size="14.00" fill="blue">PAKNYGDPMKTPKN:GDP Expenditure side at market prices</text>
</a>
</g>
</g>
<!-- PAKNECONPRVTKN&#45;&gt;PAKNYGDPMKTPKN -->
<g id="edge18" class="edge">
<title>PAKNECONPRVTKN-&gt;PAKNYGDPMKTPKN</title>
<g id="a_edge18"><a xlink:href="bogus" xlink:title=" PAKNECONPRVTKN -&gt; PAKNYGDPMKTPKN Min. att. -1557%  max: 290%">
<path fill="none" stroke="black" stroke-width="8" d="M1354.02,-433.14C1489.72,-436.26 1702.45,-435.98 1885,-413 1933.33,-406.92 1986.67,-394.59 2028.19,-383.7"/>
<polygon fill="black" stroke="black" stroke-width="8" points="2030.07,-390.44 2037.94,-381.11 2026.48,-376.91 2030.07,-390.44"/>
</a>
</g>
</g>
<!-- PAKNEGDETTOTKN -->
<g id="node26" class="node">
<title>PAKNEGDETTOTKN</title>
<g id="a_node26"><a xlink:title="GDE
FRML  &lt;&gt; PAKNEGDETTOTKN = (PAKNECONPRVTKN+PAKNECONGOVTKN+PAKNEGDIFTOTKN+PAKNEGDISTKBKN+PAKNYGDPDISCKN) $">
<polygon fill="#63b8ff" stroke="black" points="1599.5,-404 1429.5,-404 1429.5,-368 1599.5,-368 1599.5,-404"/>
<text text-anchor="start" x="1435.5" y="-381.8" font-family="Times New Roman,serif" font-size="14.00" fill="blue">PAKNEGDETTOTKN:GDE</text>
</a>
</g>
</g>
<!-- PAKNECONPRVTKN&#45;&gt;PAKNEGDETTOTKN -->
<g id="edge28" class="edge">
<title>PAKNECONPRVTKN-&gt;PAKNEGDETTOTKN</title>
<g id="a_edge28"><a xlink:href="bogus" xlink:title=" PAKNECONPRVTKN -&gt; PAKNEGDETTOTKN Min. att. -2284%  max: 2484%">
<path fill="none" stroke="black" stroke-width="8" d="M1343.89,-409.94C1369.11,-406.38 1395.14,-402.71 1419.02,-399.34"/>
<polygon fill="black" stroke="black" stroke-width="8" points="1420.18,-406.24 1429.11,-397.91 1418.23,-392.38 1420.18,-406.24"/>
</a>
</g>
</g>
<!-- PAKNYGDPFCSTXN -->
<g id="node6" class="node">
<title>PAKNYGDPFCSTXN</title>
<g id="a_node6"><a xlink:title="GDP at factor cost
FRML &lt;Z,EXO&gt; PAKNYGDPFCSTXN = (PAKNYGDPFCSTXN(-1)*EXP(-PAKNYGDPFCSTXN_A+ (0.6*((LOG(PAKNYGDPFCSTXN(-1)))-(LOG(PAKNYGDPFCSTXN(-2))))+(1-0.6)*(0.7*PAKINFLEXPT/100+(1-0.7)*((LOG(PAKPSTAR(-1)))-(LOG(PAKPSTAR(-2)))))+0.25*PAKNYGDPGAP_/100+0.262461811660072*DURING_2000-0.205776950553378*DURING_2001) )) * (1-PAKNYGDPFCSTXN_D)+ PAKNYGDPFCSTXN_X*PAKNYGDPFCSTXN_D  $">
<polygon fill="#63b8ff" stroke="black" points="983,-329 741,-329 741,-293 983,-293 983,-329"/>
<text text-anchor="start" x="747" y="-306.8" font-family="Times New Roman,serif" font-size="14.00" fill="blue">PAKNYGDPFCSTXN:GDP at factor cost</text>
</a>
</g>
</g>
<!-- PAKNEIMPGNFSKN -->
<g id="node16" class="node">
<title>PAKNEIMPGNFSKN</title>
<g id="a_node16"><a xlink:title="Imports (G&amp;S)
FRML &lt;Z,EXO&gt; PAKNEIMPGNFSKN = (PAKNEIMPGNFSKN(-1)*EXP(-PAKNEIMPGNFSKN_A+ (-0.324143718656754*(LOG(PAKNEIMPGNFSKN(-1))-LOG(PAKNEGDETTOTKN(-1))+0.8*LOG(PAKNEIMPGNFSXN(-1)/PAKNYGDPFCSTXN(-1)))-0.583459272245018+1*((LOG(PAKNEGDETTOTKN))-(LOG(PAKNEGDETTOTKN(-1))))-0.0921874580409631*((LOG(PAKNEIMPGNFSXN/PAKNYGDPFCSTXN))-(LOG(PAKNEIMPGNFSXN(-1)/PAKNYGDPFCSTXN(-1))))-0.0361746331863615*DURING_2012) )) * (1-PAKNEIMPGNFSKN_D)+ PAKNEIMPGNFSKN_X*PAKNEIMPGNFSKN_D  $">
<polygon fill="#63b8ff" stroke="black" points="1885,-404 1662,-404 1662,-368 1885,-368 1885,-404"/>
<text text-anchor="start" x="1668.5" y="-381.8" font-family="Times New Roman,serif" font-size="14.00" fill="blue">PAKNEIMPGNFSKN:Imports (G&amp;S)</text>
</a>
</g>
</g>
<!-- PAKNYGDPFCSTXN&#45;&gt;PAKNEIMPGNFSKN -->
<g id="edge23" class="edge">
<title>PAKNYGDPFCSTXN-&gt;PAKNEIMPGNFSKN</title>
<g id="a_edge23"><a xlink:href="bogus" xlink:title=" PAKNYGDPFCSTXN -&gt; PAKNEIMPGNFSKN Min. att. -1112%  max: 296%">
<path fill="none" stroke="black" stroke-width="8" d="M983.01,-314.12C1133.65,-319.05 1399.75,-331.14 1626,-359 1641.62,-360.92 1658.1,-363.46 1674.14,-366.21"/>
<polygon fill="black" stroke="black" stroke-width="8" points="1673,-373.11 1684.06,-367.94 1675.41,-359.32 1673,-373.11"/>
</a>
</g>
</g>
<!-- PAKNECONOTHRXN -->
<g id="node7" class="node">
<title>PAKNECONOTHRXN</title>
<g id="a_node7"><a xlink:title="Non-Energy Consumption
FRML &lt;Z,EXO&gt; PAKNECONOTHRXN = (PAKNECONOTHRXN(-1)*EXP(-PAKNECONOTHRXN_A+ (0.598859116610832*((LOG(PAKNYGDPFCSTXN))-(LOG(PAKNYGDPFCSTXN(-1))))+((PAKGGREVGNFSXN/100)-(PAKGGREVGNFSXN(-1)/100))+(1-0.598859116610832)*((LOG(PAKNEIMPGNFSXN))-(LOG(PAKNEIMPGNFSXN(-1))))+0.2*PAKNYGDPGAP_/100) )) * (1-PAKNECONOTHRXN_D)+ PAKNECONOTHRXN_X*PAKNECONOTHRXN_D  $">
<polygon fill="#63b8ff" stroke="black" points="289,-518 0,-518 0,-482 289,-482 289,-518"/>
<text text-anchor="start" x="6.5" y="-495.8" font-family="Times New Roman,serif" font-size="14.00" fill="blue">PAKNECONOTHRXN:Non-Energy Consumption</text>
</a>
</g>
</g>
<!-- PAKNECONPRVTXN -->
<g id="node9" class="node">
<title>PAKNECONPRVTXN</title>
<g id="a_node9"><a xlink:title="Household demand
FRML  &lt;&gt; PAKNECONPRVTXN = ((PAKNECONENGYSH**PAKCESENGYCON)*PAKNECONENGYXN**(1-PAKCESENGYCON)+(PAKNECONOTHRSH**PAKCESENGYCON)*PAKNECONOTHRXN**(1-PAKCESENGYCON))**(1/(1-PAKCESENGYCON)) $">
<polygon fill="#63b8ff" stroke="black" points="617,-491 369,-491 369,-455 617,-455 617,-491"/>
<text text-anchor="start" x="375" y="-468.8" font-family="Times New Roman,serif" font-size="14.00" fill="blue">PAKNECONPRVTXN:Household demand</text>
</a>
</g>
</g>
<!-- PAKNECONOTHRXN&#45;&gt;PAKNECONPRVTXN -->
<g id="edge26" class="edge">
<title>PAKNECONOTHRXN-&gt;PAKNECONPRVTXN</title>
<g id="a_edge26"><a xlink:href="bogus" xlink:title=" PAKNECONOTHRXN -&gt; PAKNECONPRVTXN Min. att. 71%  max: 99%">
<path fill="none" stroke="black" stroke-width="8" d="M289.19,-488.8C312.28,-487 336.1,-485.15 358.93,-483.37"/>
<polygon fill="black" stroke="black" stroke-width="8" points="359.57,-490.34 369,-482.58 358.49,-476.38 359.57,-490.34"/>
</a>
</g>
</g>
<!-- PAKPSTAR -->
<g id="node8" class="node">
<title>PAKPSTAR</title>
<g id="a_node8"><a xlink:title="Nominal marginal cost
FRML  &lt;&gt; PAKPSTAR = (1/PAKNYGDPTFP)*((PAKNEKRTTOTLCN/(1-PAKNYYWBTOTLCN_))**(1-PAKNYYWBTOTLCN_))*((PAKNYWRTTOTLCN/PAKNYYWBTOTLCN_)**PAKNYYWBTOTLCN_) $">
<polygon fill="#63b8ff" stroke="black" points="598,-329 388,-329 388,-293 598,-293 598,-329"/>
<text text-anchor="start" x="394" y="-306.8" font-family="Times New Roman,serif" font-size="14.00" fill="blue">PAKPSTAR:Nominal marginal cost</text>
</a>
</g>
</g>
<!-- PAKPSTAR&#45;&gt;PAKNYGDPFCSTXN -->
<g id="edge1" class="edge">
<title>PAKPSTAR-&gt;PAKNYGDPFCSTXN</title>
<g id="a_edge1"><a xlink:href="bogus" xlink:title=" PAKPSTAR -&gt; PAKNYGDPFCSTXN Min. att. -20%  max: 2191%">
<path fill="none" stroke="black" stroke-width="8" d="M598.19,-311C639.37,-311 687.16,-311 730.61,-311"/>
<polygon fill="black" stroke="black" stroke-width="8" points="730.68,-318 740.68,-311 730.68,-304 730.68,-318"/>
</a>
</g>
</g>
<!-- PAKNECONPRVTXN&#45;&gt;PAKNECONPRVTKN -->
<g id="edge17" class="edge">
<title>PAKNECONPRVTXN-&gt;PAKNECONPRVTKN</title>
<g id="a_edge17"><a xlink:href="bogus" xlink:title=" PAKNECONPRVTXN -&gt; PAKNECONPRVTKN Min. att. -5708%  max: 593%">
<path fill="none" stroke="black" stroke-width="8" d="M605.59,-491C739.58,-510.5 955.23,-534.49 1027,-500 1050.08,-488.9 1040.99,-468.09 1063,-455 1065.72,-453.38 1068.51,-451.86 1071.35,-450.42"/>
<polygon fill="black" stroke="black" stroke-width="8" points="1074.51,-456.68 1080.64,-446.12 1068.63,-443.97 1074.51,-456.68"/>
</a>
</g>
</g>
<!-- PAKNECONGOVTXN -->
<g id="node18" class="node">
<title>PAKNECONGOVTXN</title>
<g id="a_node18"><a xlink:title="Government consumption (G&amp;S)
FRML &lt;Z,EXO&gt; PAKNECONGOVTXN = (PAKNECONGOVTXN(-1)*EXP(-PAKNECONGOVTXN_A+ (-0.3*(LOG(PAKNECONGOVTXN(-1))-LOG(PAKNECONPRVTXN(-1)))+0.0752362082122748+0.5*((LOG(PAKNECONGOVTXN(-1)))-(LOG(PAKNECONGOVTXN(-2))))+(1-0.5)*((LOG(PAKNECONPRVTXN))-(LOG(PAKNECONPRVTXN(-1))))) )) * (1-PAKNECONGOVTXN_D)+ PAKNECONGOVTXN_X*PAKNECONGOVTXN_D  $">
<polygon fill="#63b8ff" stroke="black" points="1027,-491 697,-491 697,-455 1027,-455 1027,-491"/>
<text text-anchor="start" x="703" y="-468.8" font-family="Times New Roman,serif" font-size="14.00" fill="blue">PAKNECONGOVTXN:Government consumption (G&amp;S)</text>
</a>
</g>
</g>
<!-- PAKNECONPRVTXN&#45;&gt;PAKNECONGOVTXN -->
<g id="edge3" class="edge">
<title>PAKNECONPRVTXN-&gt;PAKNECONGOVTXN</title>
<g id="a_edge3"><a xlink:href="bogus" xlink:title=" PAKNECONPRVTXN -&gt; PAKNECONGOVTXN Min. att. 26%  max: 100%">
<path fill="none" stroke="black" stroke-width="8" d="M617.23,-473C639.55,-473 663.21,-473 686.66,-473"/>
<polygon fill="black" stroke="black" stroke-width="8" points="686.7,-480 696.7,-473 686.7,-466 686.7,-480"/>
</a>
</g>
</g>
<!-- PAKFMLBLPOLYXN -->
<g id="node23" class="node">
<title>PAKFMLBLPOLYXN</title>
<g id="a_node23"><a xlink:title="Policy Rate
FRML &lt;Z,EXO&gt; PAKFMLBLPOLYXN = (-100*PAKFMLBLPOLYXN_A+100* (0.905129162122953*PAKFMLBLPOLYXN(-1)/100+(1-0.905129162122953)*(PAKMPPOLNATRXN/100+1.2*(((LOG(PAKNECONPRVTXN))-(LOG(PAKNECONPRVTXN(-1))))-PAKINFLEXPT/100)+0.5*PAKNYGDPGAP_/100)) ) * (1-PAKFMLBLPOLYXN_D)+ PAKFMLBLPOLYXN_X*PAKFMLBLPOLYXN_D  $">
<polygon fill="#63b8ff" stroke="black" points="964.5,-437 759.5,-437 759.5,-401 964.5,-401 964.5,-437"/>
<text text-anchor="start" x="766" y="-414.8" font-family="Times New Roman,serif" font-size="14.00" fill="blue">PAKFMLBLPOLYXN:Policy Rate</text>
</a>
</g>
</g>
<!-- PAKNECONPRVTXN&#45;&gt;PAKFMLBLPOLYXN -->
<g id="edge29" class="edge">
<title>PAKNECONPRVTXN-&gt;PAKFMLBLPOLYXN</title>
<g id="a_edge29"><a xlink:href="bogus" xlink:title=" PAKNECONPRVTXN -&gt; PAKFMLBLPOLYXN Min. att. -94%  max: 1459%">
<path fill="none" stroke="black" stroke-width="8" d="M616.46,-454.98C659.4,-448.66 707.37,-441.61 749.37,-435.43"/>
<polygon fill="black" stroke="black" stroke-width="8" points="750.48,-442.34 759.35,-433.96 748.44,-428.49 750.48,-442.34"/>
</a>
</g>
</g>
<!-- PAKNEGDIFGOVCN -->
<g id="node10" class="node">
<title>PAKNEGDIFGOVCN</title>
<g id="a_node10"><a xlink:title="Government Investment
FRML &lt;Z,EXO&gt; PAKNEGDIFGOVCN = (PAKNEGDIFGOVCN(-1)*EXP(-PAKNEGDIFGOVCN_A+ (((LOG(PAKGGEXPCAPTCN))-(LOG(PAKGGEXPCAPTCN(-1))))-0.00510713331489238*DUMH) )) * (1-PAKNEGDIFGOVCN_D)+ PAKNEGDIFGOVCN_X*PAKNEGDIFGOVCN_D  $">
<polygon fill="#63b8ff" stroke="black" points="629.5,-113 356.5,-113 356.5,-77 629.5,-77 629.5,-113"/>
<text text-anchor="start" x="363" y="-90.8" font-family="Times New Roman,serif" font-size="14.00" fill="blue">PAKNEGDIFGOVCN:Government Investment</text>
</a>
</g>
</g>
<!-- PAKNEGDIFGOVKN -->
<g id="node12" class="node">
<title>PAKNEGDIFGOVKN</title>
<g id="a_node12"><a xlink:title="Government Investment
FRML  &lt;&gt; PAKNEGDIFGOVKN = PAKNEGDIFGOVCN/PAKNEGDIFGOVXN $">
<polygon fill="#63b8ff" stroke="black" points="999,-113 725,-113 725,-77 999,-77 999,-113"/>
<text text-anchor="start" x="731" y="-90.8" font-family="Times New Roman,serif" font-size="14.00" fill="blue">PAKNEGDIFGOVKN:Government Investment</text>
</a>
</g>
</g>
<!-- PAKNEGDIFGOVCN&#45;&gt;PAKNEGDIFGOVKN -->
<g id="edge10" class="edge">
<title>PAKNEGDIFGOVCN-&gt;PAKNEGDIFGOVKN</title>
<g id="a_edge10"><a xlink:href="bogus" xlink:title=" PAKNEGDIFGOVCN -&gt; PAKNEGDIFGOVKN Min. att. 129%  max: 988%">
<path fill="none" stroke="black" stroke-width="8" d="M629.61,-95C657.26,-95 686.46,-95 714.46,-95"/>
<polygon fill="black" stroke="black" stroke-width="8" points="714.72,-102 724.72,-95 714.72,-88 714.72,-102"/>
</a>
</g>
</g>
<!-- PAKNEGDIFGOVXN -->
<g id="node11" class="node">
<title>PAKNEGDIFGOVXN</title>
<g id="a_node11"><a xlink:title="Government Investment
FRML &lt;Z,EXO&gt; PAKNEGDIFGOVXN = (PAKNEGDIFGOVXN(-1)*EXP(-PAKNEGDIFGOVXN_A+ (-0.480254922468272*(LOG(PAKNEGDIFGOVXN(-1))-LOG(PAKNECONPRVTXN(-1)))+0.00720714576835064+0.0731599680348391*((LOG(PAKNEGDIFGOVXN(-1)))-(LOG(PAKNEGDIFGOVXN(-2))))+(1-0.0731599680348391)*((LOG(PAKNECONPRVTXN))-(LOG(PAKNECONPRVTXN(-1))))) )) * (1-PAKNEGDIFGOVXN_D)+ PAKNEGDIFGOVXN_X*PAKNEGDIFGOVXN_D  $">
<polygon fill="#63b8ff" stroke="black" points="630,-59 356,-59 356,-23 630,-23 630,-59"/>
<text text-anchor="start" x="362" y="-36.8" font-family="Times New Roman,serif" font-size="14.00" fill="blue">PAKNEGDIFGOVXN:Government Investment</text>
</a>
</g>
</g>
<!-- PAKNEGDIFGOVXN&#45;&gt;PAKNEGDIFGOVKN -->
<g id="edge19" class="edge">
<title>PAKNEGDIFGOVXN-&gt;PAKNEGDIFGOVKN</title>
<g id="a_edge19"><a xlink:href="bogus" xlink:title=" PAKNEGDIFGOVXN -&gt; PAKNEGDIFGOVKN Min. att. -892%  max: -32%">
<path fill="none" stroke="black" stroke-width="8" d="M616.46,-59.02C652.38,-64.3 691.81,-70.11 728.33,-75.48"/>
<polygon fill="black" stroke="black" stroke-width="8" points="727.64,-82.45 738.55,-76.98 729.68,-68.6 727.64,-82.45"/>
</a>
</g>
</g>
<!-- PAKNEGDIFTOTKN -->
<g id="node19" class="node">
<title>PAKNEGDIFTOTKN</title>
<g id="a_node19"><a xlink:title="Total Gross Capital Formation
FRML  &lt;&gt; PAKNEGDIFTOTKN = PAKNEGDIFGOVKN+PAKNEGDIFPRVKN $">
<polygon fill="#63b8ff" stroke="black" points="1367,-263 1063,-263 1063,-227 1367,-227 1367,-263"/>
<text text-anchor="start" x="1069" y="-240.8" font-family="Times New Roman,serif" font-size="14.00" fill="blue">PAKNEGDIFTOTKN:Total Gross Capital Formation</text>
</a>
</g>
</g>
<!-- PAKNEGDIFGOVKN&#45;&gt;PAKNEGDIFTOTKN -->
<g id="edge30" class="edge">
<title>PAKNEGDIFGOVKN-&gt;PAKNEGDIFTOTKN</title>
<g id="a_edge30"><a xlink:href="bogus" xlink:title=" PAKNEGDIFGOVKN -&gt; PAKNEGDIFTOTKN Min. att. 6%  max: 105%">
<path fill="none" stroke="black" stroke-width="8" d="M905.34,-113.09C969.86,-140.67 1092.63,-193.13 1162.32,-222.91"/>
<polygon fill="black" stroke="black" stroke-width="8" points="1159.84,-229.47 1171.78,-226.96 1165.34,-216.59 1159.84,-229.47"/>
</a>
</g>
</g>
<!-- PAKNECONENGYXN -->
<g id="node13" class="node">
<title>PAKNECONENGYXN</title>
<g id="a_node13"><a xlink:title="Energy Consumption
FRML &lt;Z,EXO&gt; PAKNECONENGYXN = (PAKNECONENGYXN(-1)*EXP(-PAKNECONENGYXN_A+ (((LOG(PAKNECONENGYGN))-(LOG(PAKNECONENGYGN(-1))))+0.0550557534575806*DUMH) )) * (1-PAKNECONENGYXN_D)+ PAKNECONENGYXN_X*PAKNECONENGYXN_D  $">
<polygon fill="#63b8ff" stroke="black" points="275.5,-464 13.5,-464 13.5,-428 275.5,-428 275.5,-464"/>
<text text-anchor="start" x="19.5" y="-441.8" font-family="Times New Roman,serif" font-size="14.00" fill="blue">PAKNECONENGYXN:Energy Consumption</text>
</a>
</g>
</g>
<!-- PAKNECONENGYXN&#45;&gt;PAKNECONPRVTXN -->
<g id="edge7" class="edge">
<title>PAKNECONENGYXN-&gt;PAKNECONPRVTXN</title>
<g id="a_edge7"><a xlink:href="bogus" xlink:title=" PAKNECONENGYXN -&gt; PAKNECONPRVTXN Min. att. 1%  max: 29%">
<path fill="none" stroke="black" stroke-width="2.91" d="M275.51,-456.13C302.7,-458.25 331.42,-460.49 358.73,-462.61"/>
<polygon fill="black" stroke="black" stroke-width="2.91" points="358.48,-466.11 368.72,-463.39 359.02,-459.13 358.48,-466.11"/>
</a>
</g>
</g>
<!-- PAKNEGDIKSTKKN -->
<g id="node14" class="node">
<title>PAKNEGDIKSTKKN</title>
<g id="a_node14"><a xlink:title="Domestic Capital
FRML  &lt;&gt; PAKNEGDIKSTKKN = (PAKNEGDIKSTKKN(-1)*(1-PAKDEPR))+PAKNEGDIFTOTKN2-2*PAKHURDAMKN $">
<polygon fill="#63b8ff" stroke="black" points="610.5,-221 375.5,-221 375.5,-185 610.5,-185 610.5,-221"/>
<text text-anchor="start" x="382" y="-198.8" font-family="Times New Roman,serif" font-size="14.00" fill="blue">PAKNEGDIKSTKKN:Domestic Capital</text>
</a>
</g>
</g>
<!-- PAKNEGDIKSTKKN&#45;&gt;PAKNEGDIFPRVKN -->
<g id="edge6" class="edge">
<title>PAKNEGDIKSTKKN-&gt;PAKNEGDIFPRVKN</title>
<g id="a_edge6"><a xlink:href="bogus" xlink:title=" PAKNEGDIKSTKKN -&gt; PAKNEGDIFPRVKN Min. att. 0%  max: 76%">
<path fill="none" stroke="black" stroke-width="7.57" d="M610.63,-209.36C649.15,-211.45 692.22,-213.8 731.63,-215.95"/>
<polygon fill="black" stroke="black" stroke-width="7.57" points="731.49,-222.57 741.84,-216.51 732.21,-209.35 731.49,-222.57"/>
</a>
</g>
</g>
<!-- PAKNYGDPPOTLKN -->
<g id="node15" class="node">
<title>PAKNYGDPPOTLKN</title>
<g id="a_node15"><a xlink:title="Potential GDP
FRML  &lt;&gt; PAKNYGDPPOTLKN = PAKNYGDPTFP*(PAKLMEMPSTRLCN**PAKNYYWBTOTLCN_)*(PAKNEGDIKSTKKN(-1)**(1-PAKNYYWBTOTLCN_)) $">
<polygon fill="#63b8ff" stroke="black" points="603.5,-167 382.5,-167 382.5,-131 603.5,-131 603.5,-167"/>
<text text-anchor="start" x="389" y="-144.8" font-family="Times New Roman,serif" font-size="14.00" fill="blue">PAKNYGDPPOTLKN:Potential GDP</text>
</a>
</g>
</g>
<!-- PAKNYGDPPOTLKN&#45;&gt;PAKNEGDIFPRVKN -->
<g id="edge13" class="edge">
<title>PAKNYGDPPOTLKN-&gt;PAKNEGDIFPRVKN</title>
<g id="a_edge13"><a xlink:href="bogus" xlink:title=" PAKNYGDPPOTLKN -&gt; PAKNEGDIFPRVKN Min. att. -8%  max: 66%">
<path fill="none" stroke="black" stroke-width="6.61" d="M603.79,-165.62C622.91,-168.83 642.56,-172.35 661,-176 700.18,-183.76 743.35,-193.72 779.52,-202.48"/>
<polygon fill="black" stroke="black" stroke-width="6.61" points="778.44,-208.17 789.53,-204.91 781.18,-196.93 778.44,-208.17"/>
</a>
</g>
</g>
<!-- PAKNEIMPGNFSKN&#45;&gt;PAKNYGDPMKTPKN -->
<g id="edge33" class="edge">
<title>PAKNEIMPGNFSKN-&gt;PAKNYGDPMKTPKN</title>
<g id="a_edge33"><a xlink:href="bogus" xlink:title=" PAKNEIMPGNFSKN -&gt; PAKNYGDPMKTPKN Min. att. -46%  max: 456%">
<path fill="none" stroke="black" stroke-width="8" d="M1885.32,-378.18C1893.62,-377.6 1902.11,-377 1910.7,-376.39"/>
<polygon fill="black" stroke="black" stroke-width="8" points="1911.35,-383.36 1920.84,-375.68 1910.37,-369.4 1911.35,-383.36"/>
</a>
</g>
</g>
<!-- PAKNEIMPGNFSXN&#45;&gt;PAKNEIMPGNFSKN -->
<g id="edge16" class="edge">
<title>PAKNEIMPGNFSXN-&gt;PAKNEIMPGNFSKN</title>
<g id="a_edge16"><a xlink:href="bogus" xlink:title=" PAKNEIMPGNFSXN -&gt; PAKNEIMPGNFSKN Min. att. -390%  max: 1559%">
<path fill="none" stroke="black" stroke-width="8" d="M1563.84,-463.94C1606.6,-447.97 1669.08,-424.63 1714.52,-407.66"/>
<polygon fill="black" stroke="black" stroke-width="8" points="1717.02,-414.2 1723.94,-404.14 1712.12,-401.08 1717.02,-414.2"/>
</a>
</g>
</g>
<!-- PAKNECONGOVTXN&#45;&gt;PAKNECONGOVTKN -->
<g id="edge27" class="edge">
<title>PAKNECONGOVTXN-&gt;PAKNECONGOVTKN</title>
<g id="a_edge27"><a xlink:href="bogus" xlink:title=" PAKNECONGOVTXN -&gt; PAKNECONGOVTKN Min. att. -867%  max: -19%">
<path fill="none" stroke="black" stroke-width="8" d="M1009.03,-454.95C1015.25,-452.32 1021.27,-449.35 1027,-446 1049.1,-433.06 1040.99,-414.09 1063,-401 1065.72,-399.38 1068.51,-397.86 1071.35,-396.42"/>
<polygon fill="black" stroke="black" stroke-width="8" points="1074.51,-402.68 1080.64,-392.12 1068.63,-389.97 1074.51,-402.68"/>
</a>
</g>
</g>
<!-- PAKNEGDIFTOTKN&#45;&gt;PAKNYGDPMKTPKN -->
<g id="edge12" class="edge">
<title>PAKNEGDIFTOTKN-&gt;PAKNYGDPMKTPKN</title>
<g id="a_edge12"><a xlink:href="bogus" xlink:title=" PAKNEGDIFTOTKN -&gt; PAKNYGDPMKTPKN Min. att. -36%  max: 366%">
<path fill="none" stroke="black" stroke-width="8" d="M1351.3,-263.05C1514.44,-284.81 1787.54,-321.25 1955.08,-343.6"/>
<polygon fill="black" stroke="black" stroke-width="8" points="1954.38,-350.57 1965.22,-344.95 1956.23,-336.69 1954.38,-350.57"/>
</a>
</g>
</g>
<!-- PAKNEGDIFTOTKN&#45;&gt;PAKNEGDETTOTKN -->
<g id="edge24" class="edge">
<title>PAKNEGDIFTOTKN-&gt;PAKNEGDETTOTKN</title>
<g id="a_edge24"><a xlink:href="bogus" xlink:title=" PAKNEGDIFTOTKN -&gt; PAKNEGDETTOTKN Min. att. -1115%  max: 1147%">
<path fill="none" stroke="black" stroke-width="8" d="M1253.98,-263C1308.1,-288.65 1407.36,-335.7 1466.19,-363.58"/>
<polygon fill="black" stroke="black" stroke-width="8" points="1463.24,-369.93 1475.28,-367.88 1469.24,-357.28 1463.24,-369.93"/>
</a>
</g>
</g>
<!-- PAKNYYWBTOTLCN -->
<g id="node20" class="node">
<title>PAKNYYWBTOTLCN</title>
<g id="a_node20"><a xlink:title="Economy-wide wage bill
FRML  &lt;&gt; PAKNYYWBTOTLCN = PAKNYWRTTOTLCN*PAKLMEMPTOTLCN $">
<polygon fill="#63b8ff" stroke="black" points="1004.5,-583 719.5,-583 719.5,-547 1004.5,-547 1004.5,-583"/>
<text text-anchor="start" x="726" y="-560.8" font-family="Times New Roman,serif" font-size="14.00" fill="blue">PAKNYYWBTOTLCN:Economy-wide wage bill</text>
</a>
</g>
</g>
<!-- PAKNYYWBTOTLCN&#45;&gt;PAKNECONPRVTKN -->
<g id="edge34" class="edge">
<title>PAKNYYWBTOTLCN-&gt;PAKNECONPRVTKN</title>
<g id="a_edge34"><a xlink:href="bogus" xlink:title=" PAKNYYWBTOTLCN -&gt; PAKNECONPRVTKN Min. att. -594%  max: 5823%">
<path fill="none" stroke="black" stroke-width="8" d="M1004.37,-546.97C1012.41,-543.08 1020.04,-538.46 1027,-533 1057.03,-509.42 1032.78,-478.34 1063,-455 1064.62,-453.75 1066.28,-452.55 1067.97,-451.4"/>
<polygon fill="black" stroke="black" stroke-width="8" points="1071.85,-457.23 1076.72,-446.04 1064.53,-445.29 1071.85,-457.23"/>
</a>
</g>
</g>
<!-- PAKLMEMPTOTLCN -->
<g id="node21" class="node">
<title>PAKLMEMPTOTLCN</title>
<g id="a_node21"><a xlink:title="Employment
FRML &lt;Z,EXO&gt; PAKLMEMPTOTLCN = (PAKLMEMPTOTLCN(-1)*EXP(-PAKLMEMPTOTLCN_A+ (-0.345624644563667*(LOG(PAKLMEMPTOTLCN(-1))-LOG(PAKLMEMPSTRLCN(-1)))-0.1*(((LOG(PAKNYWRTTOTLCN/PAKNYGDPFCSTXN))-(LOG(PAKNYWRTTOTLCN(-1)/PAKNYGDPFCSTXN(-1))))-((LOG(PAKNYGDPPOTLKN/PAKLMEMPSTRLCN))-(LOG(PAKNYGDPPOTLKN(-1)/PAKLMEMPSTRLCN(-1)))))-0.0011790007645121+((LOG(PAKLMEMPSTRLCN))-(LOG(PAKLMEMPSTRLCN(-1))))+0.175412878170024*PAKNYGDPGAP_/100+0.0369790799942338*DURING_2010) )) * (1-PAKLMEMPTOTLCN_D)+ PAKLMEMPTOTLCN_X*PAKLMEMPTOTLCN_D  $">
<polygon fill="#63b8ff" stroke="black" points="601.5,-564 384.5,-564 384.5,-528 601.5,-528 601.5,-564"/>
<text text-anchor="start" x="391" y="-541.8" font-family="Times New Roman,serif" font-size="14.00" fill="blue">PAKLMEMPTOTLCN:Employment</text>
</a>
</g>
</g>
<!-- PAKLMEMPTOTLCN&#45;&gt;PAKNYYWBTOTLCN -->
<g id="edge15" class="edge">
<title>PAKLMEMPTOTLCN-&gt;PAKNYYWBTOTLCN</title>
<g id="a_edge15"><a xlink:href="bogus" xlink:title=" PAKLMEMPTOTLCN -&gt; PAKNYYWBTOTLCN Min. att. -6%  max: 84%">
<path fill="none" stroke="black" stroke-width="8" d="M601.63,-551.57C635.27,-553.31 673.04,-555.27 709.13,-557.14"/>
<polygon fill="black" stroke="black" stroke-width="8" points="708.91,-564.14 719.25,-557.66 709.63,-550.15 708.91,-564.14"/>
</a>
</g>
</g>
<!-- PAKNVENGNIMPXN -->
<g id="node22" class="node">
<title>PAKNVENGNIMPXN</title>
<g id="a_node22"><a xlink:title="Energy Imports
FRML  &lt;&gt; PAKNVENGNIMPXN = ((PAKNVCOLNIMPSH**PAKCESENGYIMP)*PAKNVCOLPRODXN**(1-PAKCESENGYIMP)+(PAKNVOILNIMPSH**PAKCESENGYIMP)*PAKNVOILPRODXN**(1-PAKCESENGYIMP)+(PAKNVGASNIMPSH**PAKCESENGYIMP)*PAKNVGASPRODXN**(1-PAKCESENGYIMP)+(PAKNVRENNIMPSH**PAKCESENGYIMP)*PAKNVRENPRODXN**(1-PAKCESENGYIMP))**(1/(1-PAKCESENGYIMP)) $">
<polygon fill="#63b8ff" stroke="black" points="1329.5,-554 1100.5,-554 1100.5,-518 1329.5,-518 1329.5,-554"/>
<text text-anchor="start" x="1107" y="-531.8" font-family="Times New Roman,serif" font-size="14.00" fill="blue">PAKNVENGNIMPXN:Energy Imports</text>
</a>
</g>
</g>
<!-- PAKNVENGNIMPXN&#45;&gt;PAKNEIMPGNFSXN -->
<g id="edge32" class="edge">
<title>PAKNVENGNIMPXN-&gt;PAKNEIMPGNFSXN</title>
<g id="a_edge32"><a xlink:href="bogus" xlink:title=" PAKNVENGNIMPXN -&gt; PAKNEIMPGNFSXN Min. att. 37%  max: 104%">
<path fill="none" stroke="black" stroke-width="8" d="M1317.14,-517.99C1333.8,-515 1350.89,-511.93 1367,-509 1379.67,-506.7 1392.96,-504.27 1406.14,-501.85"/>
<polygon fill="black" stroke="black" stroke-width="8" points="1407.62,-508.7 1416.19,-500.01 1405.09,-494.93 1407.62,-508.7"/>
</a>
</g>
</g>
<!-- PAKFMLBLPOLYXN&#45;&gt;PAKNECONPRVTKN -->
<g id="edge25" class="edge">
<title>PAKFMLBLPOLYXN-&gt;PAKNECONPRVTKN</title>
<g id="a_edge25"><a xlink:href="bogus" xlink:title=" PAKFMLBLPOLYXN -&gt; PAKNECONPRVTKN Min. att. -160%  max: 20%">
<path fill="none" stroke="black" stroke-width="8" d="M964.52,-421.6C996.13,-422.41 1031.65,-423.32 1065.76,-424.2"/>
<polygon fill="black" stroke="black" stroke-width="8" points="1065.64,-431.2 1075.82,-424.46 1066,-417.2 1065.64,-431.2"/>
</a>
</g>
</g>
<!-- PAKNEGDIFPRVKN&#45;&gt;PAKNEGDIFTOTKN -->
<g id="edge20" class="edge">
<title>PAKNEGDIFPRVKN-&gt;PAKNEGDIFTOTKN</title>
<g id="a_edge20"><a xlink:href="bogus" xlink:title=" PAKNEGDIFPRVKN -&gt; PAKNEGDIFTOTKN Min. att. -5%  max: 94%">
<path fill="none" stroke="black" stroke-width="8" d="M982.32,-230.48C1004.93,-231.9 1028.93,-233.4 1052.58,-234.88"/>
<polygon fill="black" stroke="black" stroke-width="8" points="1052.27,-241.88 1062.69,-235.52 1053.15,-227.9 1052.27,-241.88"/>
</a>
</g>
</g>
<!-- PAKGGEXPGNFSCN -->
<g id="node25" class="node">
<title>PAKGGEXPGNFSCN</title>
<g id="a_node25"><a xlink:title="Expenditure on Goods and Services
FRML &lt;Z,EXO&gt; PAKGGEXPGNFSCN = (0.3*PAKGGEXPGNFSCN(-1)+(1-0.3)*(0.80*(PAKGGREVTOTLCN-PAKGGEXPINTPCN(-0)))+505277.259999999*DURING_2012 + PAKGGEXPGNFSCN_A)* (1-PAKGGEXPGNFSCN_D)+ PAKGGEXPGNFSCN_X*PAKGGEXPGNFSCN_D  $">
<polygon fill="#63b8ff" stroke="black" points="661,-383 325,-383 325,-347 661,-347 661,-383"/>
<text text-anchor="start" x="331" y="-360.8" font-family="Times New Roman,serif" font-size="14.00" fill="blue">PAKGGEXPGNFSCN:Expenditure on Goods and Services</text>
</a>
</g>
</g>
<!-- PAKGGEXPGNFSCN&#45;&gt;PAKNECONGOVTCN -->
<g id="edge8" class="edge">
<title>PAKGGEXPGNFSCN-&gt;PAKNECONGOVTCN</title>
<g id="a_edge8"><a xlink:href="bogus" xlink:title=" PAKGGEXPGNFSCN -&gt; PAKNECONGOVTCN Min. att. -18%  max: 100%">
<path fill="none" stroke="black" stroke-width="8" d="M661.12,-365C669.76,-365 678.44,-365 687.1,-365"/>
<polygon fill="black" stroke="black" stroke-width="8" points="687.24,-372 697.24,-365 687.24,-358 687.24,-372"/>
</a>
</g>
</g>
<!-- PAKNEGDETTOTKN&#45;&gt;PAKNEIMPGNFSKN -->
<g id="edge21" class="edge">
<title>PAKNEGDETTOTKN-&gt;PAKNEIMPGNFSKN</title>
<g id="a_edge21"><a xlink:href="bogus" xlink:title=" PAKNEGDETTOTKN -&gt; PAKNEIMPGNFSKN Min. att. -755%  max: 207%">
<path fill="none" stroke="black" stroke-width="8" d="M1599.65,-386C1616.29,-386 1634.07,-386 1651.65,-386"/>
<polygon fill="black" stroke="black" stroke-width="8" points="1651.97,-393 1661.97,-386 1651.97,-379 1651.97,-393"/>
</a>
</g>
</g>
<!-- PAKNYGDPGAP_ -->
<g id="node27" class="node">
<title>PAKNYGDPGAP_</title>
<g id="a_node27"><a xlink:title="Output Gap (% of Potential GDP)
FRML  &lt;&gt; PAKNYGDPGAP_ = ((PAKNYGDPMKTPKN/PAKNYGDPPOTLKN-1)*100) $">
<polygon fill="#63b8ff" stroke="black" points="647.5,-437 338.5,-437 338.5,-401 647.5,-401 647.5,-437"/>
<text text-anchor="start" x="345" y="-414.8" font-family="Times New Roman,serif" font-size="14.00" fill="blue">PAKNYGDPGAP_:Output Gap (% of Potential GDP)</text>
</a>
</g>
</g>
<!-- PAKNYGDPGAP_&#45;&gt;PAKNYGDPFCSTXN -->
<g id="edge5" class="edge">
<title>PAKNYGDPGAP_-&gt;PAKNYGDPFCSTXN</title>
<g id="a_edge5"><a xlink:href="bogus" xlink:title=" PAKNYGDPGAP_ -&gt; PAKNYGDPFCSTXN Min. att. -56%  max: 7987%">
<path fill="none" stroke="black" stroke-width="8" d="M644.7,-400.95C650.35,-398.31 655.81,-395.34 661,-392 685.26,-376.4 672.76,-353.64 697,-338 707.43,-331.27 718.98,-326.04 730.98,-322"/>
<polygon fill="black" stroke="black" stroke-width="8" points="733.2,-328.64 740.69,-319 729.08,-315.26 733.2,-328.64"/>
</a>
</g>
</g>
<!-- PAKNYGDPGAP_&#45;&gt;PAKFMLBLPOLYXN -->
<g id="edge31" class="edge">
<title>PAKNYGDPGAP_-&gt;PAKFMLBLPOLYXN</title>
<g id="a_edge31"><a xlink:href="bogus" xlink:title=" PAKNYGDPGAP_ -&gt; PAKFMLBLPOLYXN Min. att. -15%  max: 83%">
<path fill="none" stroke="black" stroke-width="8" d="M647.51,-419C681.54,-419 716.99,-419 748.99,-419"/>
<polygon fill="black" stroke="black" stroke-width="8" points="749.26,-426 759.26,-419 749.26,-412 749.26,-426"/>
</a>
</g>
</g>
<!-- PAKNECONGOVTKN&#45;&gt;PAKNYGDPMKTPKN -->
<g id="edge11" class="edge">
<title>PAKNECONGOVTKN-&gt;PAKNYGDPMKTPKN</title>
<g id="a_edge11"><a xlink:href="bogus" xlink:title=" PAKNECONGOVTKN -&gt; PAKNYGDPMKTPKN Min. att. -108%  max: 835%">
<path fill="none" stroke="black" stroke-width="8" d="M1361.15,-361.21C1375.28,-360.31 1389.41,-359.54 1403,-359 1574.78,-352.12 1770.54,-354.1 1910.86,-357.23"/>
<polygon fill="black" stroke="black" stroke-width="8" points="1910.71,-364.23 1920.87,-357.46 1911.03,-350.23 1910.71,-364.23"/>
</a>
</g>
</g>
<!-- PAKNECONGOVTKN&#45;&gt;PAKNEGDETTOTKN -->
<g id="edge22" class="edge">
<title>PAKNECONGOVTKN-&gt;PAKNEGDETTOTKN</title>
<g id="a_edge22"><a xlink:href="bogus" xlink:title=" PAKNECONGOVTKN -&gt; PAKNEGDETTOTKN Min. att. -1269%  max: 1236%">
<path fill="none" stroke="black" stroke-width="8" d="M1361.26,-379.86C1380.93,-380.65 1400.67,-381.45 1419.12,-382.19"/>
<polygon fill="black" stroke="black" stroke-width="8" points="1418.96,-389.19 1429.23,-382.6 1419.52,-375.2 1418.96,-389.19"/>
</a>
</g>
</g>
<!-- PAKNYWRTTOTLCN -->
<g id="node29" class="node">
<title>PAKNYWRTTOTLCN</title>
<g id="a_node29"><a xlink:title="Wages
FRML  &lt;&gt; PAKNYWRTTOTLCN = (PAKNYWBINFMSH**PAKINFCES*(PAKNYWRTINFMCN)**(1-PAKINFCES)+PAKNYWBFORMSH**PAKINFCES*(PAKNYWRTFORMCN*(1+PAKGGREVDRCTXN/100))**(1-PAKINFCES))**(1/(1-PAKINFCES)) $">
<polygon fill="#63b8ff" stroke="black" points="583.5,-618 402.5,-618 402.5,-582 583.5,-582 583.5,-618"/>
<text text-anchor="start" x="409" y="-595.8" font-family="Times New Roman,serif" font-size="14.00" fill="blue">PAKNYWRTTOTLCN:Wages</text>
</a>
</g>
</g>
<!-- PAKNYWRTTOTLCN&#45;&gt;PAKNYYWBTOTLCN -->
<g id="edge14" class="edge">
<title>PAKNYWRTTOTLCN-&gt;PAKNYYWBTOTLCN</title>
<g id="a_edge14"><a xlink:href="bogus" xlink:title=" PAKNYWRTTOTLCN -&gt; PAKNYYWBTOTLCN Min. att. 16%  max: 106%">
<path fill="none" stroke="black" stroke-width="8" d="M583.78,-591.44C621.5,-587.84 666.44,-583.55 709.04,-579.49"/>
<polygon fill="black" stroke="black" stroke-width="8" points="709.95,-586.44 719.24,-578.52 708.62,-572.5 709.95,-586.44"/>
</a>
</g>
</g>
</g>
</svg>