<svg xmlns="http://www.w3.org/2000/svg" xmlns:xlink="http://www.w3.org/1999/xlink" width="432pt" height="148pt" viewBox="0.00 0.00 432.00 148.37">
<g id="graph0" class="graph" transform="scale(0.38537 0.38537) rotate(0) translate(4 381)">
<title>TD</title>
<polygon fill="white" stroke="none" points="-4,4 -4,-381 1117,-381 1117,4 -4,4"/>
<text text-anchor="middle" x="556.5" y="-7.8" font-family="Times New Roman,serif" font-size="14.00">PAKNYGDPMKTPKN</text>
<!-- PAKNYGDPMKTPKN -->
<g id="node1" class="node"><title>PAKNYGDPMKTPKN</title>
<polygon fill="none" stroke="black" points="1113,-218 557,-218 557,-26 1113,-26 1113,-218"/>
<g id="a_node1_0"><a xlink:href="bogus" xlink:title="GDP Expenditure side at market prices FRML  &lt;&gt; PAKNYGDPMKTPKN = PAKNECONPRVTKN+PAKNECONGOVTKN+PAKNEGDIFTOTKN+PAKNEGDISTKBKN+PAKNEEXPGNFSKN-PAKNEIMPGNFSKN+PAKNYGDPDISCKN+PAKADAP*PAKDISPREPKN $">
<polygon fill="red" stroke="none" points="562,-192 562,-213 1108,-213 1108,-192 562,-192"/>
<polygon fill="none" stroke="black" points="562,-192 562,-213 1108,-213 1108,-192 562,-192"/>
<text text-anchor="start" x="657.5" y="-198.8" font-family="Times New Roman,serif" font-size="14.00" fill="blue">PAKNYGDPMKTPKN:GDP Expenditure side at market prices</text>
</a>
</g>
<polygon fill="none" stroke="black" points="562,-169 562,-190 638,-190 638,-169 562,-169"/>
<text text-anchor="start" x="565" y="-175.8" font-family="Times New Roman,serif" font-size="14.00" fill="blue">Per</text>
<polygon fill="none" stroke="black" points="640,-169 640,-190 732,-190 732,-169 640,-169"/>
<text text-anchor="start" x="672" y="-175.8" font-family="Times New Roman,serif" font-size="14.00" fill="blue">2020</text>
<polygon fill="none" stroke="black" points="734,-169 734,-190 826,-190 826,-169 734,-169"/>
<text text-anchor="start" x="766" y="-175.8" font-family="Times New Roman,serif" font-size="14.00" fill="blue">2021</text>
<polygon fill="none" stroke="black" points="828,-169 828,-190 920,-190 920,-169 828,-169"/>
<text text-anchor="start" x="860" y="-175.8" font-family="Times New Roman,serif" font-size="14.00" fill="blue">2022</text>
<polygon fill="none" stroke="black" points="922,-169 922,-190 1014,-190 1014,-169 922,-169"/>
<text text-anchor="start" x="954" y="-175.8" font-family="Times New Roman,serif" font-size="14.00" fill="blue">2023</text>
<polygon fill="none" stroke="black" points="1016,-169 1016,-190 1108,-190 1108,-169 1016,-169"/>
<text text-anchor="start" x="1048" y="-175.8" font-family="Times New Roman,serif" font-size="14.00" fill="blue">2024</text>
<g id="a_node1_1"><a xlink:href="bogus" xlink:title="Baseline values">
<polygon fill="none" stroke="black" points="562,-146 562,-167 638,-167 638,-146 562,-146"/>
<text text-anchor="start" x="565" y="-152.8" font-family="Times New Roman,serif" font-size="14.00" fill="blue">Base</text>
</a>
</g>
<g id="a_node1_2"><a xlink:href="bogus" xlink:title="Baseline values">
<polygon fill="none" stroke="black" points="640,-146 640,-167 732,-167 732,-146 640,-146"/>
<text text-anchor="start" x="643" y="-152.8" font-family="Times New Roman,serif" font-size="14.00" fill="blue">26,701,602.431</text>
</a>
</g>
<g id="a_node1_3"><a xlink:href="bogus" xlink:title="Baseline values">
<polygon fill="none" stroke="black" points="734,-146 734,-167 826,-167 826,-146 734,-146"/>
<text text-anchor="start" x="737" y="-152.8" font-family="Times New Roman,serif" font-size="14.00" fill="blue">27,202,580.709</text>
</a>
</g>
<g id="a_node1_4"><a xlink:href="bogus" xlink:title="Baseline values">
<polygon fill="none" stroke="black" points="828,-146 828,-167 920,-167 920,-146 828,-146"/>
<text text-anchor="start" x="831" y="-152.8" font-family="Times New Roman,serif" font-size="14.00" fill="blue">27,801,259.405</text>
</a>
</g>
<g id="a_node1_5"><a xlink:href="bogus" xlink:title="Baseline values">
<polygon fill="none" stroke="black" points="922,-146 922,-167 1014,-167 1014,-146 922,-146"/>
<text text-anchor="start" x="925" y="-152.8" font-family="Times New Roman,serif" font-size="14.00" fill="blue">28,499,818.713</text>
</a>
</g>
<g id="a_node1_6"><a xlink:href="bogus" xlink:title="Baseline values">
<polygon fill="none" stroke="black" points="1016,-146 1016,-167 1108,-167 1108,-146 1016,-146"/>
<text text-anchor="start" x="1019" y="-152.8" font-family="Times New Roman,serif" font-size="14.00" fill="blue">29,256,735.696</text>
</a>
</g>
<g id="a_node1_7"><a xlink:href="bogus" xlink:title="Latest run values">
<polygon fill="none" stroke="black" points="562,-123 562,-144 638,-144 638,-123 562,-123"/>
<text text-anchor="start" x="565" y="-129.8" font-family="Times New Roman,serif" font-size="14.00" fill="blue">Last</text>
</a>
</g>
<polygon fill="none" stroke="black" points="640,-123 640,-144 732,-144 732,-123 640,-123"/>
<text text-anchor="start" x="643" y="-129.8" font-family="Times New Roman,serif" font-size="14.00" fill="blue">26,483,175.564</text>
<polygon fill="none" stroke="black" points="734,-123 734,-144 826,-144 826,-123 734,-123"/>
<text text-anchor="start" x="737" y="-129.8" font-family="Times New Roman,serif" font-size="14.00" fill="blue">27,235,594.384</text>
<polygon fill="none" stroke="black" points="828,-123 828,-144 920,-144 920,-123 828,-123"/>
<text text-anchor="start" x="831" y="-129.8" font-family="Times New Roman,serif" font-size="14.00" fill="blue">27,963,320.841</text>
<polygon fill="none" stroke="black" points="922,-123 922,-144 1014,-144 1014,-123 922,-123"/>
<text text-anchor="start" x="925" y="-129.8" font-family="Times New Roman,serif" font-size="14.00" fill="blue">28,690,715.598</text>
<polygon fill="none" stroke="black" points="1016,-123 1016,-144 1108,-144 1108,-123 1016,-123"/>
<text text-anchor="start" x="1019" y="-129.8" font-family="Times New Roman,serif" font-size="14.00" fill="blue">29,445,700.442</text>
<g id="a_node1_8"><a xlink:href="bogus" xlink:title="Difference between baseline and latest run">
<polygon fill="none" stroke="black" points="562,-100 562,-121 638,-121 638,-100 562,-100"/>
<text text-anchor="start" x="565" y="-106.8" font-family="Times New Roman,serif" font-size="14.00" fill="blue">Diff</text>
</a>
</g>
<polygon fill="none" stroke="black" points="640,-100 640,-121 732,-121 732,-100 640,-100"/>
<text text-anchor="start" x="656" y="-106.8" font-family="Times New Roman,serif" font-size="14.00" fill="blue">-218,426.867</text>
<polygon fill="none" stroke="black" points="734,-100 734,-121 826,-121 826,-100 734,-100"/>
<text text-anchor="start" x="761" y="-106.8" font-family="Times New Roman,serif" font-size="14.00" fill="blue">33,013.675</text>
<polygon fill="none" stroke="black" points="828,-100 828,-121 920,-121 920,-100 828,-100"/>
<text text-anchor="start" x="848" y="-106.8" font-family="Times New Roman,serif" font-size="14.00" fill="blue">162,061.436</text>
<polygon fill="none" stroke="black" points="922,-100 922,-121 1014,-121 1014,-100 922,-100"/>
<text text-anchor="start" x="942" y="-106.8" font-family="Times New Roman,serif" font-size="14.00" fill="blue">190,896.885</text>
<polygon fill="none" stroke="black" points="1016,-100 1016,-121 1108,-121 1108,-100 1016,-100"/>
<text text-anchor="start" x="1036" y="-106.8" font-family="Times New Roman,serif" font-size="14.00" fill="blue">188,964.746</text>
<polygon fill="none" stroke="black" points="562,-77 562,-98 1108,-98 1108,-77 562,-77"/>
<text text-anchor="start" x="799.5" y="-83.8" font-family="Times New Roman,serif" font-size="14.00" fill="blue"> Growth rate</text>
<g id="a_node1_9"><a xlink:href="bogus" xlink:title="Base growth Exogen">
<polygon fill="none" stroke="black" points="562,-54 562,-75 638,-75 638,-54 562,-54"/>
<text text-anchor="start" x="565" y="-60.8" font-family="Times New Roman,serif" font-size="14.00" fill="blue">Base growth</text>
</a>
</g>
<polygon fill="none" stroke="black" points="640,-54 640,-75 732,-75 732,-54 640,-54"/>
<text text-anchor="start" x="698" y="-60.8" font-family="Times New Roman,serif" font-size="14.00" fill="blue">2.087</text>
<polygon fill="none" stroke="black" points="734,-54 734,-75 826,-75 826,-54 734,-54"/>
<text text-anchor="start" x="792" y="-60.8" font-family="Times New Roman,serif" font-size="14.00" fill="blue">1.876</text>
<polygon fill="none" stroke="black" points="828,-54 828,-75 920,-75 920,-54 828,-54"/>
<text text-anchor="start" x="886" y="-60.8" font-family="Times New Roman,serif" font-size="14.00" fill="blue">2.201</text>
<polygon fill="none" stroke="black" points="922,-54 922,-75 1014,-75 1014,-54 922,-54"/>
<text text-anchor="start" x="980" y="-60.8" font-family="Times New Roman,serif" font-size="14.00" fill="blue">2.513</text>
<polygon fill="none" stroke="black" points="1016,-54 1016,-75 1108,-75 1108,-54 1016,-54"/>
<text text-anchor="start" x="1074" y="-60.8" font-family="Times New Roman,serif" font-size="14.00" fill="blue">2.656</text>
<g id="a_node1_10"><a xlink:href="bogus" xlink:title="Last growth Exogen">
<polygon fill="none" stroke="black" points="562,-31 562,-52 638,-52 638,-31 562,-31"/>
<text text-anchor="start" x="565" y="-37.8" font-family="Times New Roman,serif" font-size="14.00" fill="blue">Last growth</text>
</a>
</g>
<polygon fill="none" stroke="black" points="640,-31 640,-52 732,-52 732,-31 640,-31"/>
<text text-anchor="start" x="698" y="-37.8" font-family="Times New Roman,serif" font-size="14.00" fill="blue">1.252</text>
<polygon fill="none" stroke="black" points="734,-31 734,-52 826,-52 826,-31 734,-31"/>
<text text-anchor="start" x="792" y="-37.8" font-family="Times New Roman,serif" font-size="14.00" fill="blue">2.841</text>
<polygon fill="none" stroke="black" points="828,-31 828,-52 920,-52 920,-31 828,-31"/>
<text text-anchor="start" x="886" y="-37.8" font-family="Times New Roman,serif" font-size="14.00" fill="blue">2.672</text>
<polygon fill="none" stroke="black" points="922,-31 922,-52 1014,-52 1014,-31 922,-31"/>
<text text-anchor="start" x="980" y="-37.8" font-family="Times New Roman,serif" font-size="14.00" fill="blue">2.601</text>
<polygon fill="none" stroke="black" points="1016,-31 1016,-52 1108,-52 1108,-31 1016,-31"/>
<text text-anchor="start" x="1074" y="-37.8" font-family="Times New Roman,serif" font-size="14.00" fill="blue">2.631</text>
<polygon fill="none" stroke="black" points="559,-28 559,-216 1111,-216 1111,-28 559,-28"/>
</g>
<!-- PAKNEGDIFTOTKN -->
<g id="node2" class="node"><title>PAKNEGDIFTOTKN</title>
<polygon fill="none" stroke="black" points="521,-377 0,-377 0,-185 521,-185 521,-377"/>
<g id="a_node2_11"><a xlink:href="bogus" xlink:title="Total Gross Capital Formation FRML  &lt;&gt; PAKNEGDIFTOTKN = PAKNEGDIFGOVKN+PAKNEGDIFPRVKN $">
<polygon fill="#ff7f24" stroke="none" points="5.5,-351 5.5,-372 516.5,-372 516.5,-351 5.5,-351"/>
<polygon fill="none" stroke="black" points="5.5,-351 5.5,-372 516.5,-372 516.5,-351 5.5,-351"/>
<text text-anchor="start" x="110" y="-357.8" font-family="Times New Roman,serif" font-size="14.00" fill="blue">PAKNEGDIFTOTKN:Total Gross Capital Formation</text>
</a>
</g>
<polygon fill="none" stroke="black" points="5.5,-328 5.5,-349 81.5,-349 81.5,-328 5.5,-328"/>
<text text-anchor="start" x="8.5" y="-334.8" font-family="Times New Roman,serif" font-size="14.00" fill="blue">Per</text>
<polygon fill="none" stroke="black" points="83.5,-328 83.5,-349 168.5,-349 168.5,-328 83.5,-328"/>
<text text-anchor="start" x="112" y="-334.8" font-family="Times New Roman,serif" font-size="14.00" fill="blue">2020</text>
<polygon fill="none" stroke="black" points="170.5,-328 170.5,-349 255.5,-349 255.5,-328 170.5,-328"/>
<text text-anchor="start" x="199" y="-334.8" font-family="Times New Roman,serif" font-size="14.00" fill="blue">2021</text>
<polygon fill="none" stroke="black" points="257.5,-328 257.5,-349 342.5,-349 342.5,-328 257.5,-328"/>
<text text-anchor="start" x="286" y="-334.8" font-family="Times New Roman,serif" font-size="14.00" fill="blue">2022</text>
<polygon fill="none" stroke="black" points="344.5,-328 344.5,-349 429.5,-349 429.5,-328 344.5,-328"/>
<text text-anchor="start" x="373" y="-334.8" font-family="Times New Roman,serif" font-size="14.00" fill="blue">2023</text>
<polygon fill="none" stroke="black" points="431.5,-328 431.5,-349 516.5,-349 516.5,-328 431.5,-328"/>
<text text-anchor="start" x="460" y="-334.8" font-family="Times New Roman,serif" font-size="14.00" fill="blue">2024</text>
<g id="a_node2_12"><a xlink:href="bogus" xlink:title="Baseline values">
<polygon fill="none" stroke="black" points="5.5,-305 5.5,-326 81.5,-326 81.5,-305 5.5,-305"/>
<text text-anchor="start" x="8.5" y="-311.8" font-family="Times New Roman,serif" font-size="14.00" fill="blue">Base</text>
</a>
</g>
<g id="a_node2_13"><a xlink:href="bogus" xlink:title="Baseline values">
<polygon fill="none" stroke="black" points="83.5,-305 83.5,-326 168.5,-326 168.5,-305 83.5,-305"/>
<text text-anchor="start" x="86.5" y="-311.8" font-family="Times New Roman,serif" font-size="14.00" fill="blue">3,897,262.074</text>
</a>
</g>
<g id="a_node2_14"><a xlink:href="bogus" xlink:title="Baseline values">
<polygon fill="none" stroke="black" points="170.5,-305 170.5,-326 255.5,-326 255.5,-305 170.5,-305"/>
<text text-anchor="start" x="173.5" y="-311.8" font-family="Times New Roman,serif" font-size="14.00" fill="blue">4,049,448.991</text>
</a>
</g>
<g id="a_node2_15"><a xlink:href="bogus" xlink:title="Baseline values">
<polygon fill="none" stroke="black" points="257.5,-305 257.5,-326 342.5,-326 342.5,-305 257.5,-305"/>
<text text-anchor="start" x="260.5" y="-311.8" font-family="Times New Roman,serif" font-size="14.00" fill="blue">4,210,847.327</text>
</a>
</g>
<g id="a_node2_16"><a xlink:href="bogus" xlink:title="Baseline values">
<polygon fill="none" stroke="black" points="344.5,-305 344.5,-326 429.5,-326 429.5,-305 344.5,-305"/>
<text text-anchor="start" x="347.5" y="-311.8" font-family="Times New Roman,serif" font-size="14.00" fill="blue">4,380,029.522</text>
</a>
</g>
<g id="a_node2_17"><a xlink:href="bogus" xlink:title="Baseline values">
<polygon fill="none" stroke="black" points="431.5,-305 431.5,-326 516.5,-326 516.5,-305 431.5,-305"/>
<text text-anchor="start" x="434.5" y="-311.8" font-family="Times New Roman,serif" font-size="14.00" fill="blue">4,553,907.602</text>
</a>
</g>
<g id="a_node2_18"><a xlink:href="bogus" xlink:title="Latest run values">
<polygon fill="none" stroke="black" points="5.5,-282 5.5,-303 81.5,-303 81.5,-282 5.5,-282"/>
<text text-anchor="start" x="8.5" y="-288.8" font-family="Times New Roman,serif" font-size="14.00" fill="blue">Last</text>
</a>
</g>
<polygon fill="none" stroke="black" points="83.5,-282 83.5,-303 168.5,-303 168.5,-282 83.5,-282"/>
<text text-anchor="start" x="86.5" y="-288.8" font-family="Times New Roman,serif" font-size="14.00" fill="blue">3,975,227.861</text>
<polygon fill="none" stroke="black" points="170.5,-282 170.5,-303 255.5,-303 255.5,-282 170.5,-282"/>
<text text-anchor="start" x="173.5" y="-288.8" font-family="Times New Roman,serif" font-size="14.00" fill="blue">4,170,245.171</text>
<polygon fill="none" stroke="black" points="257.5,-282 257.5,-303 342.5,-303 342.5,-282 257.5,-282"/>
<text text-anchor="start" x="260.5" y="-288.8" font-family="Times New Roman,serif" font-size="14.00" fill="blue">4,354,170.443</text>
<polygon fill="none" stroke="black" points="344.5,-282 344.5,-303 429.5,-303 429.5,-282 344.5,-282"/>
<text text-anchor="start" x="347.5" y="-288.8" font-family="Times New Roman,serif" font-size="14.00" fill="blue">4,535,628.810</text>
<polygon fill="none" stroke="black" points="431.5,-282 431.5,-303 516.5,-303 516.5,-282 431.5,-282"/>
<text text-anchor="start" x="434.5" y="-288.8" font-family="Times New Roman,serif" font-size="14.00" fill="blue">4,717,894.764</text>
<g id="a_node2_19"><a xlink:href="bogus" xlink:title="Difference between baseline and latest run">
<polygon fill="none" stroke="black" points="5.5,-259 5.5,-280 81.5,-280 81.5,-259 5.5,-259"/>
<text text-anchor="start" x="8.5" y="-265.8" font-family="Times New Roman,serif" font-size="14.00" fill="blue">Diff</text>
</a>
</g>
<polygon fill="none" stroke="black" points="83.5,-259 83.5,-280 168.5,-280 168.5,-259 83.5,-259"/>
<text text-anchor="start" x="103.5" y="-265.8" font-family="Times New Roman,serif" font-size="14.00" fill="blue">77,965.787</text>
<polygon fill="none" stroke="black" points="170.5,-259 170.5,-280 255.5,-280 255.5,-259 170.5,-259"/>
<text text-anchor="start" x="183.5" y="-265.8" font-family="Times New Roman,serif" font-size="14.00" fill="blue">120,796.180</text>
<polygon fill="none" stroke="black" points="257.5,-259 257.5,-280 342.5,-280 342.5,-259 257.5,-259"/>
<text text-anchor="start" x="270.5" y="-265.8" font-family="Times New Roman,serif" font-size="14.00" fill="blue">143,323.116</text>
<polygon fill="none" stroke="black" points="344.5,-259 344.5,-280 429.5,-280 429.5,-259 344.5,-259"/>
<text text-anchor="start" x="357.5" y="-265.8" font-family="Times New Roman,serif" font-size="14.00" fill="blue">155,599.288</text>
<polygon fill="none" stroke="black" points="431.5,-259 431.5,-280 516.5,-280 516.5,-259 431.5,-259"/>
<text text-anchor="start" x="444.5" y="-265.8" font-family="Times New Roman,serif" font-size="14.00" fill="blue">163,987.163</text>
<polygon fill="none" stroke="black" points="5.5,-236 5.5,-257 516.5,-257 516.5,-236 5.5,-236"/>
<text text-anchor="start" x="225.5" y="-242.8" font-family="Times New Roman,serif" font-size="14.00" fill="blue"> Growth rate</text>
<g id="a_node2_20"><a xlink:href="bogus" xlink:title="Base growth Exogen">
<polygon fill="none" stroke="black" points="5.5,-213 5.5,-234 81.5,-234 81.5,-213 5.5,-213"/>
<text text-anchor="start" x="8.5" y="-219.8" font-family="Times New Roman,serif" font-size="14.00" fill="blue">Base growth</text>
</a>
</g>
<polygon fill="none" stroke="black" points="83.5,-213 83.5,-234 168.5,-234 168.5,-213 83.5,-213"/>
<text text-anchor="start" x="134.5" y="-219.8" font-family="Times New Roman,serif" font-size="14.00" fill="blue">3.925</text>
<polygon fill="none" stroke="black" points="170.5,-213 170.5,-234 255.5,-234 255.5,-213 170.5,-213"/>
<text text-anchor="start" x="221.5" y="-219.8" font-family="Times New Roman,serif" font-size="14.00" fill="blue">3.905</text>
<polygon fill="none" stroke="black" points="257.5,-213 257.5,-234 342.5,-234 342.5,-213 257.5,-213"/>
<text text-anchor="start" x="308.5" y="-219.8" font-family="Times New Roman,serif" font-size="14.00" fill="blue">3.986</text>
<polygon fill="none" stroke="black" points="344.5,-213 344.5,-234 429.5,-234 429.5,-213 344.5,-213"/>
<text text-anchor="start" x="395.5" y="-219.8" font-family="Times New Roman,serif" font-size="14.00" fill="blue">4.018</text>
<polygon fill="none" stroke="black" points="431.5,-213 431.5,-234 516.5,-234 516.5,-213 431.5,-213"/>
<text text-anchor="start" x="482.5" y="-219.8" font-family="Times New Roman,serif" font-size="14.00" fill="blue">3.970</text>
<g id="a_node2_21"><a xlink:href="bogus" xlink:title="Last growth Exogen">
<polygon fill="none" stroke="black" points="5.5,-190 5.5,-211 81.5,-211 81.5,-190 5.5,-190"/>
<text text-anchor="start" x="8.5" y="-196.8" font-family="Times New Roman,serif" font-size="14.00" fill="blue">Last growth</text>
</a>
</g>
<polygon fill="none" stroke="black" points="83.5,-190 83.5,-211 168.5,-211 168.5,-190 83.5,-190"/>
<text text-anchor="start" x="134.5" y="-196.8" font-family="Times New Roman,serif" font-size="14.00" fill="blue">6.005</text>
<polygon fill="none" stroke="black" points="170.5,-190 170.5,-211 255.5,-211 255.5,-190 170.5,-190"/>
<text text-anchor="start" x="221.5" y="-196.8" font-family="Times New Roman,serif" font-size="14.00" fill="blue">4.906</text>
<polygon fill="none" stroke="black" points="257.5,-190 257.5,-211 342.5,-211 342.5,-190 257.5,-190"/>
<text text-anchor="start" x="308.5" y="-196.8" font-family="Times New Roman,serif" font-size="14.00" fill="blue">4.410</text>
<polygon fill="none" stroke="black" points="344.5,-190 344.5,-211 429.5,-211 429.5,-190 344.5,-190"/>
<text text-anchor="start" x="395.5" y="-196.8" font-family="Times New Roman,serif" font-size="14.00" fill="blue">4.167</text>
<polygon fill="none" stroke="black" points="431.5,-190 431.5,-211 516.5,-211 516.5,-190 431.5,-190"/>
<text text-anchor="start" x="482.5" y="-196.8" font-family="Times New Roman,serif" font-size="14.00" fill="blue">4.019</text>
<polygon fill="none" stroke="black" points="2,-187 2,-375 519,-375 519,-187 2,-187"/>
</g>
<!-- PAKNEGDIFTOTKN&#45;&gt;PAKNYGDPMKTPKN -->
<g id="edge3" class="edge"><title>PAKNEGDIFTOTKN-&gt;PAKNYGDPMKTPKN</title>
<g id="a_edge3"><a xlink:href="bogus" xlink:title=" PAKNEGDIFTOTKN -&gt; PAKNYGDPMKTPKN Min. att. -36%  max: 366%">
<path fill="none" stroke="black" stroke-width="8" d="M521.367,-208.827C529.958,-206.441 538.581,-204.046 547.205,-201.651"/>
<polygon fill="black" stroke="black" stroke-width="8" points="549.179,-208.368 556.941,-198.947 545.432,-194.879 549.179,-208.368"/>
</a>
</g>
</g>
<!-- PAKNEIMPGNFSKN -->
<g id="node3" class="node"><title>PAKNEIMPGNFSKN</title>
<g id="a_node3"><a xlink:title="Imports (G&amp;S)
FRML &lt;Z,EXO&gt; PAKNEIMPGNFSKN = (PAKNEIMPGNFSKN(-1)*EXP(-PAKNEIMPGNFSKN_A+ (-0.324143718656754*(LOG(PAKNEIMPGNFSKN(-1))-LOG(PAKNEGDETTOTKN(-1))+0.8*LOG(PAKNEIMPGNFSXN(-1)/PAKNYGDPFCSTXN(-1)))-0.583459272245018+1*((LOG(PAKNEGDETTOTKN))-(LOG(PAKNEGDETTOTKN(-1))))-0.0921874580409631*((LOG(PAKNEIMPGNFSXN/PAKNYGDPFCSTXN))-(LOG(PAKNEIMPGNFSXN(-1)/PAKNYGDPFCSTXN(-1))))-0.0361746331863615*DURING_2012) )) * (1-PAKNEIMPGNFSKN_D)+ PAKNEIMPGNFSKN_X*PAKNEIMPGNFSKN_D  $">
<polygon fill="#63b8ff" stroke="black" points="375,-167 146,-167 146,-131 375,-131 375,-167"/>
<text text-anchor="start" x="152.5" y="-144.8" font-family="Times New Roman,serif" font-size="14.00" fill="blue">PAKNEIMPGNFSKN:Imports (G&amp;S)</text>
</a>
</g>
</g>
<!-- PAKNEIMPGNFSKN&#45;&gt;PAKNYGDPMKTPKN -->
<g id="edge4" class="edge"><title>PAKNEIMPGNFSKN-&gt;PAKNYGDPMKTPKN</title>
<g id="a_edge4"><a xlink:href="bogus" xlink:title=" PAKNEIMPGNFSKN -&gt; PAKNYGDPMKTPKN Min. att. -46%  max: 456%">
<path fill="none" stroke="black" stroke-width="8" d="M375.292,-143.633C425.024,-141.288 485.828,-138.42 546.696,-135.55"/>
<polygon fill="black" stroke="black" stroke-width="8" points="547.201,-142.534 556.86,-135.07 546.542,-128.549 547.201,-142.534"/>
</a>
</g>
</g>
<!-- PAKNECONGOVTKN -->
<g id="node4" class="node"><title>PAKNECONGOVTKN</title>
<g id="a_node4"><a xlink:title="Government Consumption
FRML  &lt;&gt; PAKNECONGOVTKN = PAKNECONGOVTCN/PAKNECONGOVTXN $">
<polygon fill="#63b8ff" stroke="black" points="410,-113 111,-113 111,-77 410,-77 410,-113"/>
<text text-anchor="start" x="117.5" y="-90.8" font-family="Times New Roman,serif" font-size="14.00" fill="blue">PAKNECONGOVTKN:Government Consumption</text>
</a>
</g>
</g>
<!-- PAKNECONGOVTKN&#45;&gt;PAKNYGDPMKTPKN -->
<g id="edge2" class="edge"><title>PAKNECONGOVTKN-&gt;PAKNYGDPMKTPKN</title>
<g id="a_edge2"><a xlink:href="bogus" xlink:title=" PAKNECONGOVTKN -&gt; PAKNYGDPMKTPKN Min. att. -108%  max: 835%">
<path fill="none" stroke="black" stroke-width="8" d="M410.05,-102.006C452.116,-103.99 499.39,-106.219 546.702,-108.451"/>
<polygon fill="black" stroke="black" stroke-width="8" points="546.478,-115.448 556.797,-108.927 547.138,-101.463 546.478,-115.448"/>
</a>
</g>
</g>
<!-- PAKNECONPRVTKN -->
<g id="node5" class="node"><title>PAKNECONPRVTKN</title>
<g id="a_node5"><a xlink:title="Household Consumption
FRML &lt;Z,EXO&gt; PAKNECONPRVTKN = (PAKNECONPRVTKN(-1)*EXP(-PAKNECONPRVTKN_A+ (-0.2*(LOG(PAKNECONPRVTKN(-1))-LOG((PAKNYYWBTOTLCN(-1)*(1-PAKGGREVDRCTXN(-1)/100))/PAKNECONPRVTXN(-1)))+1*((LOG((PAKNYYWBTOTLCN*(1-PAKGGREVDRCTXN/100))/PAKNECONPRVTXN))-(LOG((PAKNYYWBTOTLCN(-1)*(1-PAKGGREVDRCTXN(-1)/100))/PAKNECONPRVTXN(-1))))+0.0303228629698929+0.0163839011059956*DURING_2010-0.3*(PAKFMLBLPOLYXN/100-((LOG(PAKNECONPRVTXN))-(LOG(PAKNECONPRVTXN(-1)))))) )) * (1-PAKNECONPRVTKN_D)+ PAKNECONPRVTKN_X*PAKNECONPRVTKN_D  $">
<polygon fill="#63b8ff" stroke="black" points="404.5,-59 116.5,-59 116.5,-23 404.5,-23 404.5,-59"/>
<text text-anchor="start" x="122.5" y="-36.8" font-family="Times New Roman,serif" font-size="14.00" fill="blue">PAKNECONPRVTKN:Household Consumption</text>
</a>
</g>
</g>
<!-- PAKNECONPRVTKN&#45;&gt;PAKNYGDPMKTPKN -->
<g id="edge1" class="edge"><title>PAKNECONPRVTKN-&gt;PAKNYGDPMKTPKN</title>
<g id="a_edge1"><a xlink:href="bogus" xlink:title=" PAKNECONPRVTKN -&gt; PAKNYGDPMKTPKN Min. att. -1557%  max: 290%">
<path fill="none" stroke="black" stroke-width="8" d="M404.814,-54.1719C442.658,-58.1254 483.422,-62.8095 521,-68 529.441,-69.1659 538.004,-70.3879 546.642,-71.6548"/>
<polygon fill="black" stroke="black" stroke-width="8" points="545.898,-78.6208 556.816,-73.1621 547.95,-64.772 545.898,-78.6208"/>
</a>
</g>
</g>
</g>
</svg>