<svg xmlns="http://www.w3.org/2000/svg" xmlns:xlink="http://www.w3.org/1999/xlink" width="432pt" height="148pt" viewBox="0.00 0.00 432.00 148.37">
<g id="graph0" class="graph" transform="scale(0.38537 0.38537) rotate(0) translate(4 381)">
<title>TD</title>
<polygon fill="white" stroke="none" points="-4,4 -4,-381 1117,-381 1117,4 -4,4"/>
<text text-anchor="middle" x="556.5" y="-7.8" font-family="Times New Roman,serif" font-size="14.00">PAKNYGDPMKTPKN</text>
<!-- PAKNEIMPGNFSKN -->
<g id="node1" class="node"><title>PAKNEIMPGNFSKN</title>
<g id="a_node1"><a xlink:title="Imports (G&amp;S)
FRML &lt;Z,EXO&gt; PAKNEIMPGNFSKN = (PAKNEIMPGNFSKN(-1)*EXP(-PAKNEIMPGNFSKN_A+ (-0.324143718656754*(LOG(PAKNEIMPGNFSKN(-1))-LOG(PAKNEGDETTOTKN(-1))+0.8*LOG(PAKNEIMPGNFSXN(-1)/PAKNYGDPFCSTXN(-1)))-0.583459272245018+1*((LOG(PAKNEGDETTOTKN))-(LOG(PAKNEGDETTOTKN(-1))))-0.0921874580409631*((LOG(PAKNEIMPGNFSXN/PAKNYGDPFCSTXN))-(LOG(PAKNEIMPGNFSXN(-1)/PAKNYGDPFCSTXN(-1))))-0.0361746331863615*DURING_2012) )) * (1-PAKNEIMPGNFSKN_D)+ PAKNEIMPGNFSKN_X*PAKNEIMPGNFSKN_D  $">
<polygon fill="#63b8ff" stroke="black" points="375,-377 146,-377 146,-341 375,-341 375,-377"/>
<text text-anchor="start" x="152.5" y="-354.8" font-family="Times New Roman,serif" font-size="14.00" fill="blue">PAKNEIMPGNFSKN:Imports (G&amp;S)</text>
</a>
</g>
</g>
<!-- PAKNYGDPMKTPKN -->
<g id="node4" class="node"><title>PAKNYGDPMKTPKN</title>
<polygon fill="none" stroke="black" points="1113,-257 557,-257 557,-65 1113,-65 1113,-257"/>
<g id="a_node4_0"><a xlink:href="bogus" xlink:title="GDP Expenditure side at market prices FRML  &lt;&gt; PAKNYGDPMKTPKN = PAKNECONPRVTKN+PAKNECONGOVTKN+PAKNEGDIFTOTKN+PAKNEGDISTKBKN+PAKNEEXPGNFSKN-PAKNEIMPGNFSKN+PAKNYGDPDISCKN+PAKADAP*PAKDISPREPKN $">
<polygon fill="red" stroke="none" points="562,-231 562,-252 1108,-252 1108,-231 562,-231"/>
<polygon fill="none" stroke="black" points="562,-231 562,-252 1108,-252 1108,-231 562,-231"/>
<text text-anchor="start" x="657.5" y="-237.8" font-family="Times New Roman,serif" font-size="14.00" fill="blue">PAKNYGDPMKTPKN:GDP Expenditure side at market prices</text>
</a>
</g>
<polygon fill="none" stroke="black" points="562,-208 562,-229 638,-229 638,-208 562,-208"/>
<text text-anchor="start" x="565" y="-214.8" font-family="Times New Roman,serif" font-size="14.00" fill="blue">Per</text>
<polygon fill="none" stroke="black" points="640,-208 640,-229 732,-229 732,-208 640,-208"/>
<text text-anchor="start" x="672" y="-214.8" font-family="Times New Roman,serif" font-size="14.00" fill="blue">2020</text>
<polygon fill="none" stroke="black" points="734,-208 734,-229 826,-229 826,-208 734,-208"/>
<text text-anchor="start" x="766" y="-214.8" font-family="Times New Roman,serif" font-size="14.00" fill="blue">2021</text>
<polygon fill="none" stroke="black" points="828,-208 828,-229 920,-229 920,-208 828,-208"/>
<text text-anchor="start" x="860" y="-214.8" font-family="Times New Roman,serif" font-size="14.00" fill="blue">2022</text>
<polygon fill="none" stroke="black" points="922,-208 922,-229 1014,-229 1014,-208 922,-208"/>
<text text-anchor="start" x="954" y="-214.8" font-family="Times New Roman,serif" font-size="14.00" fill="blue">2023</text>
<polygon fill="none" stroke="black" points="1016,-208 1016,-229 1108,-229 1108,-208 1016,-208"/>
<text text-anchor="start" x="1048" y="-214.8" font-family="Times New Roman,serif" font-size="14.00" fill="blue">2024</text>
<g id="a_node4_1"><a xlink:href="bogus" xlink:title="Baseline values">
<polygon fill="none" stroke="black" points="562,-185 562,-206 638,-206 638,-185 562,-185"/>
<text text-anchor="start" x="565" y="-191.8" font-family="Times New Roman,serif" font-size="14.00" fill="blue">Base</text>
</a>
</g>
<g id="a_node4_2"><a xlink:href="bogus" xlink:title="Baseline values">
<polygon fill="none" stroke="black" points="640,-185 640,-206 732,-206 732,-185 640,-185"/>
<text text-anchor="start" x="643" y="-191.8" font-family="Times New Roman,serif" font-size="14.00" fill="blue">26,701,602.431</text>
</a>
</g>
<g id="a_node4_3"><a xlink:href="bogus" xlink:title="Baseline values">
<polygon fill="none" stroke="black" points="734,-185 734,-206 826,-206 826,-185 734,-185"/>
<text text-anchor="start" x="737" y="-191.8" font-family="Times New Roman,serif" font-size="14.00" fill="blue">27,202,580.709</text>
</a>
</g>
<g id="a_node4_4"><a xlink:href="bogus" xlink:title="Baseline values">
<polygon fill="none" stroke="black" points="828,-185 828,-206 920,-206 920,-185 828,-185"/>
<text text-anchor="start" x="831" y="-191.8" font-family="Times New Roman,serif" font-size="14.00" fill="blue">27,801,259.405</text>
</a>
</g>
<g id="a_node4_5"><a xlink:href="bogus" xlink:title="Baseline values">
<polygon fill="none" stroke="black" points="922,-185 922,-206 1014,-206 1014,-185 922,-185"/>
<text text-anchor="start" x="925" y="-191.8" font-family="Times New Roman,serif" font-size="14.00" fill="blue">28,499,818.713</text>
</a>
</g>
<g id="a_node4_6"><a xlink:href="bogus" xlink:title="Baseline values">
<polygon fill="none" stroke="black" points="1016,-185 1016,-206 1108,-206 1108,-185 1016,-185"/>
<text text-anchor="start" x="1019" y="-191.8" font-family="Times New Roman,serif" font-size="14.00" fill="blue">29,256,735.696</text>
</a>
</g>
<g id="a_node4_7"><a xlink:href="bogus" xlink:title="Latest run values">
<polygon fill="none" stroke="black" points="562,-162 562,-183 638,-183 638,-162 562,-162"/>
<text text-anchor="start" x="565" y="-168.8" font-family="Times New Roman,serif" font-size="14.00" fill="blue">Last</text>
</a>
</g>
<polygon fill="none" stroke="black" points="640,-162 640,-183 732,-183 732,-162 640,-162"/>
<text text-anchor="start" x="643" y="-168.8" font-family="Times New Roman,serif" font-size="14.00" fill="blue">26,483,175.564</text>
<polygon fill="none" stroke="black" points="734,-162 734,-183 826,-183 826,-162 734,-162"/>
<text text-anchor="start" x="737" y="-168.8" font-family="Times New Roman,serif" font-size="14.00" fill="blue">27,235,594.384</text>
<polygon fill="none" stroke="black" points="828,-162 828,-183 920,-183 920,-162 828,-162"/>
<text text-anchor="start" x="831" y="-168.8" font-family="Times New Roman,serif" font-size="14.00" fill="blue">27,963,320.841</text>
<polygon fill="none" stroke="black" points="922,-162 922,-183 1014,-183 1014,-162 922,-162"/>
<text text-anchor="start" x="925" y="-168.8" font-family="Times New Roman,serif" font-size="14.00" fill="blue">28,690,715.598</text>
<polygon fill="none" stroke="black" points="1016,-162 1016,-183 1108,-183 1108,-162 1016,-162"/>
<text text-anchor="start" x="1019" y="-168.8" font-family="Times New Roman,serif" font-size="14.00" fill="blue">29,445,700.442</text>
<g id="a_node4_8"><a xlink:href="bogus" xlink:title="Difference between baseline and latest run">
<polygon fill="none" stroke="black" points="562,-139 562,-160 638,-160 638,-139 562,-139"/>
<text text-anchor="start" x="565" y="-145.8" font-family="Times New Roman,serif" font-size="14.00" fill="blue">Diff</text>
</a>
</g>
<polygon fill="none" stroke="black" points="640,-139 640,-160 732,-160 732,-139 640,-139"/>
<text text-anchor="start" x="656" y="-145.8" font-family="Times New Roman,serif" font-size="14.00" fill="blue">-218,426.867</text>
<polygon fill="none" stroke="black" points="734,-139 734,-160 826,-160 826,-139 734,-139"/>
<text text-anchor="start" x="761" y="-145.8" font-family="Times New Roman,serif" font-size="14.00" fill="blue">33,013.675</text>
<polygon fill="none" stroke="black" points="828,-139 828,-160 920,-160 920,-139 828,-139"/>
<text text-anchor="start" x="848" y="-145.8" font-family="Times New Roman,serif" font-size="14.00" fill="blue">162,061.436</text>
<polygon fill="none" stroke="black" points="922,-139 922,-160 1014,-160 1014,-139 922,-139"/>
<text text-anchor="start" x="942" y="-145.8" font-family="Times New Roman,serif" font-size="14.00" fill="blue">190,896.885</text>
<polygon fill="none" stroke="black" points="1016,-139 1016,-160 1108,-160 1108,-139 1016,-139"/>
<text text-anchor="start" x="1036" y="-145.8" font-family="Times New Roman,serif" font-size="14.00" fill="blue">188,964.746</text>
<polygon fill="none" stroke="black" points="562,-116 562,-137 1108,-137 1108,-116 562,-116"/>
<text text-anchor="start" x="799.5" y="-122.8" font-family="Times New Roman,serif" font-size="14.00" fill="blue"> Growth rate</text>
<g id="a_node4_9"><a xlink:href="bogus" xlink:title="Base growth Exogen">
<polygon fill="none" stroke="black" points="562,-93 562,-114 638,-114 638,-93 562,-93"/>
<text text-anchor="start" x="565" y="-99.8" font-family="Times New Roman,serif" font-size="14.00" fill="blue">Base growth</text>
</a>
</g>
<polygon fill="none" stroke="black" points="640,-93 640,-114 732,-114 732,-93 640,-93"/>
<text text-anchor="start" x="698" y="-99.8" font-family="Times New Roman,serif" font-size="14.00" fill="blue">2.087</text>
<polygon fill="none" stroke="black" points="734,-93 734,-114 826,-114 826,-93 734,-93"/>
<text text-anchor="start" x="792" y="-99.8" font-family="Times New Roman,serif" font-size="14.00" fill="blue">1.876</text>
<polygon fill="none" stroke="black" points="828,-93 828,-114 920,-114 920,-93 828,-93"/>
<text text-anchor="start" x="886" y="-99.8" font-family="Times New Roman,serif" font-size="14.00" fill="blue">2.201</text>
<polygon fill="none" stroke="black" points="922,-93 922,-114 1014,-114 1014,-93 922,-93"/>
<text text-anchor="start" x="980" y="-99.8" font-family="Times New Roman,serif" font-size="14.00" fill="blue">2.513</text>
<polygon fill="none" stroke="black" points="1016,-93 1016,-114 1108,-114 1108,-93 1016,-93"/>
<text text-anchor="start" x="1074" y="-99.8" font-family="Times New Roman,serif" font-size="14.00" fill="blue">2.656</text>
<g id="a_node4_10"><a xlink:href="bogus" xlink:title="Last growth Exogen">
<polygon fill="none" stroke="black" points="562,-70 562,-91 638,-91 638,-70 562,-70"/>
<text text-anchor="start" x="565" y="-76.8" font-family="Times New Roman,serif" font-size="14.00" fill="blue">Last growth</text>
</a>
</g>
<polygon fill="none" stroke="black" points="640,-70 640,-91 732,-91 732,-70 640,-70"/>
<text text-anchor="start" x="698" y="-76.8" font-family="Times New Roman,serif" font-size="14.00" fill="blue">1.252</text>
<polygon fill="none" stroke="black" points="734,-70 734,-91 826,-91 826,-70 734,-70"/>
<text text-anchor="start" x="792" y="-76.8" font-family="Times New Roman,serif" font-size="14.00" fill="blue">2.841</text>
<polygon fill="none" stroke="black" points="828,-70 828,-91 920,-91 920,-70 828,-70"/>
<text text-anchor="start" x="886" y="-76.8" font-family="Times New Roman,serif" font-size="14.00" fill="blue">2.672</text>
<polygon fill="none" stroke="black" points="922,-70 922,-91 1014,-91 1014,-70 922,-70"/>
<text text-anchor="start" x="980" y="-76.8" font-family="Times New Roman,serif" font-size="14.00" fill="blue">2.601</text>
<polygon fill="none" stroke="black" points="1016,-70 1016,-91 1108,-91 1108,-70 1016,-70"/>
<text text-anchor="start" x="1074" y="-76.8" font-family="Times New Roman,serif" font-size="14.00" fill="blue">2.631</text>
<polygon fill="none" stroke="black" points="559,-67 559,-255 1111,-255 1111,-67 559,-67"/>
</g>
<!-- PAKNEIMPGNFSKN&#45;&gt;PAKNYGDPMKTPKN -->
<g id="edge3" class="edge"><title>PAKNEIMPGNFSKN-&gt;PAKNYGDPMKTPKN</title>
<g id="a_edge3"><a xlink:href="bogus" xlink:title=" PAKNEIMPGNFSKN -&gt; PAKNYGDPMKTPKN Min. att. -46%  max: 456%">
<path fill="none" stroke="black" stroke-width="8" d="M375.223,-356.897C421.304,-353.555 474.509,-346.475 521,-332 574.431,-315.364 629.146,-289.162 677.578,-262.222"/>
<polygon fill="black" stroke="black" stroke-width="8" points="681.255,-268.186 686.547,-257.185 674.4,-255.979 681.255,-268.186"/>
</a>
</g>
</g>
<!-- PAKNEGDIFTOTKN -->
<g id="node2" class="node"><title>PAKNEGDIFTOTKN</title>
<polygon fill="none" stroke="black" points="521,-323 0,-323 0,-131 521,-131 521,-323"/>
<g id="a_node2_11"><a xlink:href="bogus" xlink:title="Total Gross Capital Formation FRML  &lt;&gt; PAKNEGDIFTOTKN = PAKNEGDIFGOVKN+PAKNEGDIFPRVKN $">
<polygon fill="#ff7f24" stroke="none" points="5.5,-297 5.5,-318 516.5,-318 516.5,-297 5.5,-297"/>
<polygon fill="none" stroke="black" points="5.5,-297 5.5,-318 516.5,-318 516.5,-297 5.5,-297"/>
<text text-anchor="start" x="110" y="-303.8" font-family="Times New Roman,serif" font-size="14.00" fill="blue">PAKNEGDIFTOTKN:Total Gross Capital Formation</text>
</a>
</g>
<polygon fill="none" stroke="black" points="5.5,-274 5.5,-295 81.5,-295 81.5,-274 5.5,-274"/>
<text text-anchor="start" x="8.5" y="-280.8" font-family="Times New Roman,serif" font-size="14.00" fill="blue">Per</text>
<polygon fill="none" stroke="black" points="83.5,-274 83.5,-295 168.5,-295 168.5,-274 83.5,-274"/>
<text text-anchor="start" x="112" y="-280.8" font-family="Times New Roman,serif" font-size="14.00" fill="blue">2020</text>
<polygon fill="none" stroke="black" points="170.5,-274 170.5,-295 255.5,-295 255.5,-274 170.5,-274"/>
<text text-anchor="start" x="199" y="-280.8" font-family="Times New Roman,serif" font-size="14.00" fill="blue">2021</text>
<polygon fill="none" stroke="black" points="257.5,-274 257.5,-295 342.5,-295 342.5,-274 257.5,-274"/>
<text text-anchor="start" x="286" y="-280.8" font-family="Times New Roman,serif" font-size="14.00" fill="blue">2022</text>
<polygon fill="none" stroke="black" points="344.5,-274 344.5,-295 429.5,-295 429.5,-274 344.5,-274"/>
<text text-anchor="start" x="373" y="-280.8" font-family="Times New Roman,serif" font-size="14.00" fill="blue">2023</text>
<polygon fill="none" stroke="black" points="431.5,-274 431.5,-295 516.5,-295 516.5,-274 431.5,-274"/>
<text text-anchor="start" x="460" y="-280.8" font-family="Times New Roman,serif" font-size="14.00" fill="blue">2024</text>
<g id="a_node2_12"><a xlink:href="bogus" xlink:title="Baseline values">
<polygon fill="none" stroke="black" points="5.5,-251 5.5,-272 81.5,-272 81.5,-251 5.5,-251"/>
<text text-anchor="start" x="8.5" y="-257.8" font-family="Times New Roman,serif" font-size="14.00" fill="blue">Base</text>
</a>
</g>
<g id="a_node2_13"><a xlink:href="bogus" xlink:title="Baseline values">
<polygon fill="none" stroke="black" points="83.5,-251 83.5,-272 168.5,-272 168.5,-251 83.5,-251"/>
<text text-anchor="start" x="86.5" y="-257.8" font-family="Times New Roman,serif" font-size="14.00" fill="blue">3,897,262.074</text>
</a>
</g>
<g id="a_node2_14"><a xlink:href="bogus" xlink:title="Baseline values">
<polygon fill="none" stroke="black" points="170.5,-251 170.5,-272 255.5,-272 255.5,-251 170.5,-251"/>
<text text-anchor="start" x="173.5" y="-257.8" font-family="Times New Roman,serif" font-size="14.00" fill="blue">4,049,448.991</text>
</a>
</g>
<g id="a_node2_15"><a xlink:href="bogus" xlink:title="Baseline values">
<polygon fill="none" stroke="black" points="257.5,-251 257.5,-272 342.5,-272 342.5,-251 257.5,-251"/>
<text text-anchor="start" x="260.5" y="-257.8" font-family="Times New Roman,serif" font-size="14.00" fill="blue">4,210,847.327</text>
</a>
</g>
<g id="a_node2_16"><a xlink:href="bogus" xlink:title="Baseline values">
<polygon fill="none" stroke="black" points="344.5,-251 344.5,-272 429.5,-272 429.5,-251 344.5,-251"/>
<text text-anchor="start" x="347.5" y="-257.8" font-family="Times New Roman,serif" font-size="14.00" fill="blue">4,380,029.522</text>
</a>
</g>
<g id="a_node2_17"><a xlink:href="bogus" xlink:title="Baseline values">
<polygon fill="none" stroke="black" points="431.5,-251 431.5,-272 516.5,-272 516.5,-251 431.5,-251"/>
<text text-anchor="start" x="434.5" y="-257.8" font-family="Times New Roman,serif" font-size="14.00" fill="blue">4,553,907.602</text>
</a>
</g>
<g id="a_node2_18"><a xlink:href="bogus" xlink:title="Latest run values">
<polygon fill="none" stroke="black" points="5.5,-228 5.5,-249 81.5,-249 81.5,-228 5.5,-228"/>
<text text-anchor="start" x="8.5" y="-234.8" font-family="Times New Roman,serif" font-size="14.00" fill="blue">Last</text>
</a>
</g>
<polygon fill="none" stroke="black" points="83.5,-228 83.5,-249 168.5,-249 168.5,-228 83.5,-228"/>
<text text-anchor="start" x="86.5" y="-234.8" font-family="Times New Roman,serif" font-size="14.00" fill="blue">3,975,227.861</text>
<polygon fill="none" stroke="black" points="170.5,-228 170.5,-249 255.5,-249 255.5,-228 170.5,-228"/>
<text text-anchor="start" x="173.5" y="-234.8" font-family="Times New Roman,serif" font-size="14.00" fill="blue">4,170,245.171</text>
<polygon fill="none" stroke="black" points="257.5,-228 257.5,-249 342.5,-249 342.5,-228 257.5,-228"/>
<text text-anchor="start" x="260.5" y="-234.8" font-family="Times New Roman,serif" font-size="14.00" fill="blue">4,354,170.443</text>
<polygon fill="none" stroke="black" points="344.5,-228 344.5,-249 429.5,-249 429.5,-228 344.5,-228"/>
<text text-anchor="start" x="347.5" y="-234.8" font-family="Times New Roman,serif" font-size="14.00" fill="blue">4,535,628.810</text>
<polygon fill="none" stroke="black" points="431.5,-228 431.5,-249 516.5,-249 516.5,-228 431.5,-228"/>
<text text-anchor="start" x="434.5" y="-234.8" font-family="Times New Roman,serif" font-size="14.00" fill="blue">4,717,894.764</text>
<g id="a_node2_19"><a xlink:href="bogus" xlink:title="Difference between baseline and latest run">
<polygon fill="none" stroke="black" points="5.5,-205 5.5,-226 81.5,-226 81.5,-205 5.5,-205"/>
<text text-anchor="start" x="8.5" y="-211.8" font-family="Times New Roman,serif" font-size="14.00" fill="blue">Diff</text>
</a>
</g>
<polygon fill="none" stroke="black" points="83.5,-205 83.5,-226 168.5,-226 168.5,-205 83.5,-205"/>
<text text-anchor="start" x="103.5" y="-211.8" font-family="Times New Roman,serif" font-size="14.00" fill="blue">77,965.787</text>
<polygon fill="none" stroke="black" points="170.5,-205 170.5,-226 255.5,-226 255.5,-205 170.5,-205"/>
<text text-anchor="start" x="183.5" y="-211.8" font-family="Times New Roman,serif" font-size="14.00" fill="blue">120,796.180</text>
<polygon fill="none" stroke="black" points="257.5,-205 257.5,-226 342.5,-226 342.5,-205 257.5,-205"/>
<text text-anchor="start" x="270.5" y="-211.8" font-family="Times New Roman,serif" font-size="14.00" fill="blue">143,323.116</text>
<polygon fill="none" stroke="black" points="344.5,-205 344.5,-226 429.5,-226 429.5,-205 344.5,-205"/>
<text text-anchor="start" x="357.5" y="-211.8" font-family="Times New Roman,serif" font-size="14.00" fill="blue">155,599.288</text>
<polygon fill="none" stroke="black" points="431.5,-205 431.5,-226 516.5,-226 516.5,-205 431.5,-205"/>
<text text-anchor="start" x="444.5" y="-211.8" font-family="Times New Roman,serif" font-size="14.00" fill="blue">163,987.163</text>
<polygon fill="none" stroke="black" points="5.5,-182 5.5,-203 516.5,-203 516.5,-182 5.5,-182"/>
<text text-anchor="start" x="225.5" y="-188.8" font-family="Times New Roman,serif" font-size="14.00" fill="blue"> Growth rate</text>
<g id="a_node2_20"><a xlink:href="bogus" xlink:title="Base growth Exogen">
<polygon fill="none" stroke="black" points="5.5,-159 5.5,-180 81.5,-180 81.5,-159 5.5,-159"/>
<text text-anchor="start" x="8.5" y="-165.8" font-family="Times New Roman,serif" font-size="14.00" fill="blue">Base growth</text>
</a>
</g>
<polygon fill="none" stroke="black" points="83.5,-159 83.5,-180 168.5,-180 168.5,-159 83.5,-159"/>
<text text-anchor="start" x="134.5" y="-165.8" font-family="Times New Roman,serif" font-size="14.00" fill="blue">3.925</text>
<polygon fill="none" stroke="black" points="170.5,-159 170.5,-180 255.5,-180 255.5,-159 170.5,-159"/>
<text text-anchor="start" x="221.5" y="-165.8" font-family="Times New Roman,serif" font-size="14.00" fill="blue">3.905</text>
<polygon fill="none" stroke="black" points="257.5,-159 257.5,-180 342.5,-180 342.5,-159 257.5,-159"/>
<text text-anchor="start" x="308.5" y="-165.8" font-family="Times New Roman,serif" font-size="14.00" fill="blue">3.986</text>
<polygon fill="none" stroke="black" points="344.5,-159 344.5,-180 429.5,-180 429.5,-159 344.5,-159"/>
<text text-anchor="start" x="395.5" y="-165.8" font-family="Times New Roman,serif" font-size="14.00" fill="blue">4.018</text>
<polygon fill="none" stroke="black" points="431.5,-159 431.5,-180 516.5,-180 516.5,-159 431.5,-159"/>
<text text-anchor="start" x="482.5" y="-165.8" font-family="Times New Roman,serif" font-size="14.00" fill="blue">3.970</text>
<g id="a_node2_21"><a xlink:href="bogus" xlink:title="Last growth Exogen">
<polygon fill="none" stroke="black" points="5.5,-136 5.5,-157 81.5,-157 81.5,-136 5.5,-136"/>
<text text-anchor="start" x="8.5" y="-142.8" font-family="Times New Roman,serif" font-size="14.00" fill="blue">Last growth</text>
</a>
</g>
<polygon fill="none" stroke="black" points="83.5,-136 83.5,-157 168.5,-157 168.5,-136 83.5,-136"/>
<text text-anchor="start" x="134.5" y="-142.8" font-family="Times New Roman,serif" font-size="14.00" fill="blue">6.005</text>
<polygon fill="none" stroke="black" points="170.5,-136 170.5,-157 255.5,-157 255.5,-136 170.5,-136"/>
<text text-anchor="start" x="221.5" y="-142.8" font-family="Times New Roman,serif" font-size="14.00" fill="blue">4.906</text>
<polygon fill="none" stroke="black" points="257.5,-136 257.5,-157 342.5,-157 342.5,-136 257.5,-136"/>
<text text-anchor="start" x="308.5" y="-142.8" font-family="Times New Roman,serif" font-size="14.00" fill="blue">4.410</text>
<polygon fill="none" stroke="black" points="344.5,-136 344.5,-157 429.5,-157 429.5,-136 344.5,-136"/>
<text text-anchor="start" x="395.5" y="-142.8" font-family="Times New Roman,serif" font-size="14.00" fill="blue">4.167</text>
<polygon fill="none" stroke="black" points="431.5,-136 431.5,-157 516.5,-157 516.5,-136 431.5,-136"/>
<text text-anchor="start" x="482.5" y="-142.8" font-family="Times New Roman,serif" font-size="14.00" fill="blue">4.019</text>
<polygon fill="none" stroke="black" points="2,-133 2,-321 519,-321 519,-133 2,-133"/>
</g>
<!-- PAKNEGDIFTOTKN&#45;&gt;PAKNYGDPMKTPKN -->
<g id="edge1" class="edge"><title>PAKNEGDIFTOTKN-&gt;PAKNYGDPMKTPKN</title>
<g id="a_edge1"><a xlink:href="bogus" xlink:title=" PAKNEGDIFTOTKN -&gt; PAKNYGDPMKTPKN Min. att. -36%  max: 366%">
<path fill="none" stroke="black" stroke-width="8" d="M521.367,-197.042C529.866,-196.062 538.396,-195.078 546.927,-194.095"/>
<polygon fill="black" stroke="black" stroke-width="8" points="547.808,-201.04 556.941,-192.94 546.205,-187.132 547.808,-201.04"/>
</a>
</g>
</g>
<!-- PAKNECONPRVTKN -->
<g id="node3" class="node"><title>PAKNECONPRVTKN</title>
<g id="a_node3"><a xlink:title="Household Consumption
FRML &lt;Z,EXO&gt; PAKNECONPRVTKN = (PAKNECONPRVTKN(-1)*EXP(-PAKNECONPRVTKN_A+ (-0.2*(LOG(PAKNECONPRVTKN(-1))-LOG((PAKNYYWBTOTLCN(-1)*(1-PAKGGREVDRCTXN(-1)/100))/PAKNECONPRVTXN(-1)))+1*((LOG((PAKNYYWBTOTLCN*(1-PAKGGREVDRCTXN/100))/PAKNECONPRVTXN))-(LOG((PAKNYYWBTOTLCN(-1)*(1-PAKGGREVDRCTXN(-1)/100))/PAKNECONPRVTXN(-1))))+0.0303228629698929+0.0163839011059956*DURING_2010-0.3*(PAKFMLBLPOLYXN/100-((LOG(PAKNECONPRVTXN))-(LOG(PAKNECONPRVTXN(-1)))))) )) * (1-PAKNECONPRVTKN_D)+ PAKNECONPRVTKN_X*PAKNECONPRVTKN_D  $">
<polygon fill="#63b8ff" stroke="black" points="404.5,-113 116.5,-113 116.5,-77 404.5,-77 404.5,-113"/>
<text text-anchor="start" x="122.5" y="-90.8" font-family="Times New Roman,serif" font-size="14.00" fill="blue">PAKNECONPRVTKN:Household Consumption</text>
</a>
</g>
</g>
<!-- PAKNECONPRVTKN&#45;&gt;PAKNYGDPMKTPKN -->
<g id="edge2" class="edge"><title>PAKNECONPRVTKN-&gt;PAKNYGDPMKTPKN</title>
<g id="a_edge2"><a xlink:href="bogus" xlink:title=" PAKNECONPRVTKN -&gt; PAKNYGDPMKTPKN Min. att. -1557%  max: 290%">
<path fill="none" stroke="black" stroke-width="8" d="M404.663,-109.37C442.508,-113.313 483.311,-117.692 521,-122 529.407,-122.961 537.94,-123.948 546.553,-124.955"/>
<polygon fill="black" stroke="black" stroke-width="8" points="545.95,-131.932 556.697,-126.145 547.581,-118.027 545.95,-131.932"/>
</a>
</g>
</g>
<!-- PAKNECONGOVTKN -->
<g id="node5" class="node"><title>PAKNECONGOVTKN</title>
<g id="a_node5"><a xlink:title="Government Consumption
FRML  &lt;&gt; PAKNECONGOVTKN = PAKNECONGOVTCN/PAKNECONGOVTXN $">
<polygon fill="#63b8ff" stroke="black" points="410,-59 111,-59 111,-23 410,-23 410,-59"/>
<text text-anchor="start" x="117.5" y="-36.8" font-family="Times New Roman,serif" font-size="14.00" fill="blue">PAKNECONGOVTKN:Government Consumption</text>
</a>
</g>
</g>
<!-- PAKNECONGOVTKN&#45;&gt;PAKNYGDPMKTPKN -->
<g id="edge4" class="edge"><title>PAKNECONGOVTKN-&gt;PAKNYGDPMKTPKN</title>
<g id="a_edge4"><a xlink:href="bogus" xlink:title=" PAKNECONGOVTKN -&gt; PAKNYGDPMKTPKN Min. att. -108%  max: 835%">
<path fill="none" stroke="black" stroke-width="8" d="M410.077,-51.6822C446.548,-55.615 485.348,-60.9123 521,-68 529.584,-69.7066 538.272,-71.5456 547.019,-73.4949"/>
<polygon fill="black" stroke="black" stroke-width="8" points="545.615,-80.3544 556.917,-75.7413 548.714,-66.7016 545.615,-80.3544"/>
</a>
</g>
</g>
</g>
</svg>