<svg xmlns="http://www.w3.org/2000/svg" xmlns:xlink="http://www.w3.org/1999/xlink" width="432pt" height="115pt" viewBox="0.00 0.00 432.00 115.18">
<g id="graph0" class="graph" transform="scale(0.183986 0.183986) rotate(0) translate(4 622)">
<title>TD</title>
<polygon fill="white" stroke="none" points="-4,4 -4,-622 2344,-622 2344,4 -4,4"/>
<text text-anchor="middle" x="1170" y="-7.8" font-family="Times New Roman,serif" font-size="14.00">PAKNYGDPMKTPKN</text>
<!-- PAKLMEMPTOTLCN -->
<g id="node1" class="node"><title>PAKLMEMPTOTLCN</title>
<g id="a_node1"><a xlink:title="Employment
FRML &lt;Z,EXO&gt; PAKLMEMPTOTLCN = (PAKLMEMPTOTLCN(-1)*EXP(-PAKLMEMPTOTLCN_A+ (-0.345624644563667*(LOG(PAKLMEMPTOTLCN(-1))-LOG(PAKLMEMPSTRLCN(-1)))-0.1*(((LOG(PAKNYWRTTOTLCN/PAKNYGDPFCSTXN))-(LOG(PAKNYWRTTOTLCN(-1)/PAKNYGDPFCSTXN(-1))))-((LOG(PAKNYGDPPOTLKN/PAKLMEMPSTRLCN))-(LOG(PAKNYGDPPOTLKN(-1)/PAKLMEMPSTRLCN(-1)))))-0.0011790007645121+((LOG(PAKLMEMPSTRLCN))-(LOG(PAKLMEMPSTRLCN(-1))))+0.175412878170024*PAKNYGDPGAP_/100+0.0369790799942338*DURING_2010) )) * (1-PAKLMEMPTOTLCN_D)+ PAKLMEMPTOTLCN_X*PAKLMEMPTOTLCN_D  $">
<polygon fill="#63b8ff" stroke="black" points="617,-618 398,-618 398,-582 617,-582 617,-618"/>
<text text-anchor="start" x="404.5" y="-595.8" font-family="Times New Roman,serif" font-size="14.00" fill="blue">PAKLMEMPTOTLCN:Employment</text>
</a>
</g>
</g>
<!-- PAKNYYWBTOTLCN -->
<g id="node15" class="node"><title>PAKNYYWBTOTLCN</title>
<g id="a_node15"><a xlink:title="Economy-wide wage bill
FRML  &lt;&gt; PAKNYYWBTOTLCN = PAKNYWRTTOTLCN*PAKLMEMPTOTLCN $">
<polygon fill="#63b8ff" stroke="black" points="1032,-564 743,-564 743,-528 1032,-528 1032,-564"/>
<text text-anchor="start" x="749.5" y="-541.8" font-family="Times New Roman,serif" font-size="14.00" fill="blue">PAKNYYWBTOTLCN:Economy-wide wage bill</text>
</a>
</g>
</g>
<!-- PAKLMEMPTOTLCN&#45;&gt;PAKNYYWBTOTLCN -->
<g id="edge34" class="edge"><title>PAKLMEMPTOTLCN-&gt;PAKNYYWBTOTLCN</title>
<g id="a_edge34"><a xlink:href="bogus" xlink:title=" PAKLMEMPTOTLCN -&gt; PAKNYYWBTOTLCN Min. att. -6%  max: 84%">
<path fill="none" stroke="black" stroke-width="8" d="M617.073,-584.49C658.558,-578.563 706.399,-571.729 750.15,-565.479"/>
<polygon fill="black" stroke="black" stroke-width="8" points="751.385,-572.373 760.294,-564.029 749.405,-558.514 751.385,-572.373"/>
</a>
</g>
</g>
<!-- PAKNEGDETTOTKN -->
<g id="node2" class="node"><title>PAKNEGDETTOTKN</title>
<g id="a_node2"><a xlink:title="GDE
FRML  &lt;&gt; PAKNEGDETTOTKN = (PAKNECONPRVTKN+PAKNECONGOVTKN+PAKNEGDIFTOTKN+PAKNEGDISTKBKN+PAKNYGDPDISCKN) $">
<polygon fill="#63b8ff" stroke="black" points="1645,-372 1470,-372 1470,-336 1645,-336 1645,-372"/>
<text text-anchor="start" x="1476.5" y="-349.8" font-family="Times New Roman,serif" font-size="14.00" fill="blue">PAKNEGDETTOTKN:GDE</text>
</a>
</g>
</g>
<!-- PAKNEIMPGNFSKN -->
<g id="node5" class="node"><title>PAKNEIMPGNFSKN</title>
<g id="a_node5"><a xlink:title="Imports (G&amp;S)
FRML &lt;Z,EXO&gt; PAKNEIMPGNFSKN = (PAKNEIMPGNFSKN(-1)*EXP(-PAKNEIMPGNFSKN_A+ (-0.324143718656754*(LOG(PAKNEIMPGNFSKN(-1))-LOG(PAKNEGDETTOTKN(-1))+0.8*LOG(PAKNEIMPGNFSXN(-1)/PAKNYGDPFCSTXN(-1)))-0.583459272245018+1*((LOG(PAKNEGDETTOTKN))-(LOG(PAKNEGDETTOTKN(-1))))-0.0921874580409631*((LOG(PAKNEIMPGNFSXN/PAKNYGDPFCSTXN))-(LOG(PAKNEIMPGNFSXN(-1)/PAKNYGDPFCSTXN(-1))))-0.0361746331863615*DURING_2012) )) * (1-PAKNEIMPGNFSKN_D)+ PAKNEIMPGNFSKN_X*PAKNEIMPGNFSKN_D  $">
<polygon fill="#63b8ff" stroke="black" points="1937,-372 1708,-372 1708,-336 1937,-336 1937,-372"/>
<text text-anchor="start" x="1714.5" y="-349.8" font-family="Times New Roman,serif" font-size="14.00" fill="blue">PAKNEIMPGNFSKN:Imports (G&amp;S)</text>
</a>
</g>
</g>
<!-- PAKNEGDETTOTKN&#45;&gt;PAKNEIMPGNFSKN -->
<g id="edge32" class="edge"><title>PAKNEGDETTOTKN-&gt;PAKNEIMPGNFSKN</title>
<g id="a_edge32"><a xlink:href="bogus" xlink:title=" PAKNEGDETTOTKN -&gt; PAKNEIMPGNFSKN Min. att. -755%  max: 207%">
<path fill="none" stroke="black" stroke-width="8" d="M1645.34,-354C1661.98,-354 1679.7,-354 1697.24,-354"/>
<polygon fill="black" stroke="black" stroke-width="8" points="1697.54,-361 1707.54,-354 1697.54,-347 1697.54,-361"/>
</a>
</g>
</g>
<!-- PAKNEGDIFGOVKN -->
<g id="node3" class="node"><title>PAKNEGDIFGOVKN</title>
<g id="a_node3"><a xlink:title="Government Investment
FRML  &lt;&gt; PAKNEGDIFGOVKN = PAKNEGDIFGOVCN/PAKNEGDIFGOVXN $">
<polygon fill="#63b8ff" stroke="black" points="1026.5,-256 748.5,-256 748.5,-220 1026.5,-220 1026.5,-256"/>
<text text-anchor="start" x="754.5" y="-233.8" font-family="Times New Roman,serif" font-size="14.00" fill="blue">PAKNEGDIFGOVKN:Government Investment</text>
</a>
</g>
</g>
<!-- PAKNEGDIFTOTKN -->
<g id="node17" class="node"><title>PAKNEGDIFTOTKN</title>
<g id="a_node17"><a xlink:title="Total Gross Capital Formation
FRML  &lt;&gt; PAKNEGDIFTOTKN = PAKNEGDIFGOVKN+PAKNEGDIFPRVKN $">
<polygon fill="#63b8ff" stroke="black" points="1407,-288 1093,-288 1093,-252 1407,-252 1407,-288"/>
<text text-anchor="start" x="1099" y="-265.8" font-family="Times New Roman,serif" font-size="14.00" fill="blue">PAKNEGDIFTOTKN:Total Gross Capital Formation</text>
</a>
</g>
</g>
<!-- PAKNEGDIFGOVKN&#45;&gt;PAKNEGDIFTOTKN -->
<g id="edge13" class="edge"><title>PAKNEGDIFGOVKN-&gt;PAKNEGDIFTOTKN</title>
<g id="a_edge13"><a xlink:href="bogus" xlink:title=" PAKNEGDIFGOVKN -&gt; PAKNEGDIFTOTKN Min. att. 6%  max: 105%">
<path fill="none" stroke="black" stroke-width="8" d="M1026.59,-250.258C1044.95,-251.887 1063.92,-253.571 1082.69,-255.237"/>
<polygon fill="black" stroke="black" stroke-width="8" points="1082.21,-262.222 1092.79,-256.134 1083.44,-248.277 1082.21,-262.222"/>
</a>
</g>
</g>
<!-- PAKNYWRTTOTLCN -->
<g id="node4" class="node"><title>PAKNYWRTTOTLCN</title>
<g id="a_node4"><a xlink:title="Wages
FRML  &lt;&gt; PAKNYWRTTOTLCN = (PAKNYWBINFMSH**PAKINFCES*(PAKNYWRTINFMCN)**(1-PAKINFCES)+PAKNYWBFORMSH**PAKINFCES*(PAKNYWRTFORMCN*(1+PAKGGREVDRCTXN/100))**(1-PAKINFCES))**(1/(1-PAKINFCES)) $">
<polygon fill="#63b8ff" stroke="black" points="602.5,-564 412.5,-564 412.5,-528 602.5,-528 602.5,-564"/>
<text text-anchor="start" x="418.5" y="-541.8" font-family="Times New Roman,serif" font-size="14.00" fill="blue">PAKNYWRTTOTLCN:Wages</text>
</a>
</g>
</g>
<!-- PAKNYWRTTOTLCN&#45;&gt;PAKNYYWBTOTLCN -->
<g id="edge26" class="edge"><title>PAKNYWRTTOTLCN-&gt;PAKNYYWBTOTLCN</title>
<g id="a_edge26"><a xlink:href="bogus" xlink:title=" PAKNYWRTTOTLCN -&gt; PAKNYYWBTOTLCN Min. att. 16%  max: 106%">
<path fill="none" stroke="black" stroke-width="8" d="M602.91,-546C642.166,-546 688.757,-546 732.713,-546"/>
<polygon fill="black" stroke="black" stroke-width="8" points="732.932,-553 742.932,-546 732.932,-539 732.932,-553"/>
</a>
</g>
</g>
<!-- PAKNYGDPMKTPKN -->
<g id="node13" class="node"><title>PAKNYGDPMKTPKN</title>
<g id="a_node13"><a xlink:title="GDP Expenditure side at market prices
FRML  &lt;&gt; PAKNYGDPMKTPKN = PAKNECONPRVTKN+PAKNECONGOVTKN+PAKNEGDIFTOTKN+PAKNEGDISTKBKN+PAKNEEXPGNFSKN-PAKNEIMPGNFSKN+PAKNYGDPDISCKN+PAKADAP*PAKDISPREPKN $">
<polygon fill="red" stroke="black" points="2340,-349 1973,-349 1973,-313 2340,-313 2340,-349"/>
<text text-anchor="start" x="1979.5" y="-326.8" font-family="Times New Roman,serif" font-size="14.00" fill="blue">PAKNYGDPMKTPKN:GDP Expenditure side at market prices</text>
</a>
</g>
</g>
<!-- PAKNEIMPGNFSKN&#45;&gt;PAKNYGDPMKTPKN -->
<g id="edge29" class="edge"><title>PAKNEIMPGNFSKN-&gt;PAKNYGDPMKTPKN</title>
<g id="a_edge29"><a xlink:href="bogus" xlink:title=" PAKNEIMPGNFSKN -&gt; PAKNYGDPMKTPKN Min. att. -46%  max: 456%">
<path fill="none" stroke="black" stroke-width="8" d="M1937.29,-346.117C1945.59,-345.542 1954.08,-344.954 1962.67,-344.359"/>
<polygon fill="black" stroke="black" stroke-width="8" points="1963.3,-351.332 1972.79,-343.657 1962.33,-337.365 1963.3,-351.332"/>
</a>
</g>
</g>
<!-- PAKNECONGOVTXN -->
<g id="node6" class="node"><title>PAKNECONGOVTXN</title>
<g id="a_node6"><a xlink:title="Government consumption (G&amp;S)
FRML &lt;Z,EXO&gt; PAKNECONGOVTXN = (PAKNECONGOVTXN(-1)*EXP(-PAKNECONGOVTXN_A+ (-0.3*(LOG(PAKNECONGOVTXN(-1))-LOG(PAKNECONPRVTXN(-1)))+0.0752362082122748+0.5*((LOG(PAKNECONGOVTXN(-1)))-(LOG(PAKNECONGOVTXN(-2))))+(1-0.5)*((LOG(PAKNECONPRVTXN))-(LOG(PAKNECONPRVTXN(-1))))) )) * (1-PAKNECONGOVTXN_D)+ PAKNECONGOVTXN_X*PAKNECONGOVTXN_D  $">
<polygon fill="#63b8ff" stroke="black" points="1057,-364 718,-364 718,-328 1057,-328 1057,-364"/>
<text text-anchor="start" x="724.5" y="-341.8" font-family="Times New Roman,serif" font-size="14.00" fill="blue">PAKNECONGOVTXN:Government consumption (G&amp;S)</text>
</a>
</g>
</g>
<!-- PAKNECONGOVTKN -->
<g id="node8" class="node"><title>PAKNECONGOVTKN</title>
<g id="a_node8"><a xlink:title="Government Consumption
FRML  &lt;&gt; PAKNECONGOVTKN = PAKNECONGOVTCN/PAKNECONGOVTXN $">
<polygon fill="#63b8ff" stroke="black" points="1399.5,-349 1100.5,-349 1100.5,-313 1399.5,-313 1399.5,-349"/>
<text text-anchor="start" x="1107" y="-326.8" font-family="Times New Roman,serif" font-size="14.00" fill="blue">PAKNECONGOVTKN:Government Consumption</text>
</a>
</g>
</g>
<!-- PAKNECONGOVTXN&#45;&gt;PAKNECONGOVTKN -->
<g id="edge5" class="edge"><title>PAKNECONGOVTXN-&gt;PAKNECONGOVTKN</title>
<g id="a_edge5"><a xlink:href="bogus" xlink:title=" PAKNECONGOVTXN -&gt; PAKNECONGOVTKN Min. att. -867%  max: -19%">
<path fill="none" stroke="black" stroke-width="8" d="M1057.14,-338.983C1068.22,-338.522 1079.37,-338.058 1090.4,-337.599"/>
<polygon fill="black" stroke="black" stroke-width="8" points="1090.79,-344.589 1100.49,-337.179 1090.21,-330.601 1090.79,-344.589"/>
</a>
</g>
</g>
<!-- PAKNYGDPFCSTXN -->
<g id="node7" class="node"><title>PAKNYGDPFCSTXN</title>
<g id="a_node7"><a xlink:title="GDP at factor cost
FRML &lt;Z,EXO&gt; PAKNYGDPFCSTXN = (PAKNYGDPFCSTXN(-1)*EXP(-PAKNYGDPFCSTXN_A+ (0.6*((LOG(PAKNYGDPFCSTXN(-1)))-(LOG(PAKNYGDPFCSTXN(-2))))+(1-0.6)*(0.7*PAKINFLEXPT/100+(1-0.7)*((LOG(PAKPSTAR(-1)))-(LOG(PAKPSTAR(-2)))))+0.25*PAKNYGDPGAP_/100+0.262461811660072*DURING_2000-0.205776950553378*DURING_2001) )) * (1-PAKNYGDPFCSTXN_D)+ PAKNYGDPFCSTXN_X*PAKNYGDPFCSTXN_D  $">
<polygon fill="#63b8ff" stroke="black" points="1014,-510 761,-510 761,-474 1014,-474 1014,-510"/>
<text text-anchor="start" x="767.5" y="-487.8" font-family="Times New Roman,serif" font-size="14.00" fill="blue">PAKNYGDPFCSTXN:GDP at factor cost</text>
</a>
</g>
</g>
<!-- PAKNYGDPFCSTXN&#45;&gt;PAKNEIMPGNFSKN -->
<g id="edge15" class="edge"><title>PAKNYGDPFCSTXN-&gt;PAKNEIMPGNFSKN</title>
<g id="a_edge15"><a xlink:href="bogus" xlink:title=" PAKNYGDPFCSTXN -&gt; PAKNEIMPGNFSKN Min. att. -1112%  max: 296%">
<path fill="none" stroke="black" stroke-width="8" d="M1014.19,-477.924C1119.34,-465.746 1273.2,-446.989 1407,-427 1525.23,-409.338 1554.29,-401.845 1672,-381 1685.06,-378.687 1698.76,-376.241 1712.34,-373.803"/>
<polygon fill="black" stroke="black" stroke-width="8" points="1713.6,-380.689 1722.2,-372.031 1711.12,-366.91 1713.6,-380.689"/>
</a>
</g>
</g>
<!-- PAKNECONGOVTKN&#45;&gt;PAKNEGDETTOTKN -->
<g id="edge10" class="edge"><title>PAKNECONGOVTKN-&gt;PAKNEGDETTOTKN</title>
<g id="a_edge10"><a xlink:href="bogus" xlink:title=" PAKNECONGOVTKN -&gt; PAKNEGDETTOTKN Min. att. -1269%  max: 1236%">
<path fill="none" stroke="black" stroke-width="8" d="M1399.72,-342.197C1420.05,-343.727 1440.46,-345.264 1459.54,-346.7"/>
<polygon fill="black" stroke="black" stroke-width="8" points="1459.18,-353.693 1469.68,-347.464 1460.24,-339.733 1459.18,-353.693"/>
</a>
</g>
</g>
<!-- PAKNECONGOVTKN&#45;&gt;PAKNYGDPMKTPKN -->
<g id="edge28" class="edge"><title>PAKNECONGOVTKN-&gt;PAKNYGDPMKTPKN</title>
<g id="a_edge28"><a xlink:href="bogus" xlink:title=" PAKNECONGOVTKN -&gt; PAKNYGDPMKTPKN Min. att. -108%  max: 835%">
<path fill="none" stroke="black" stroke-width="8" d="M1399.58,-327.598C1414.25,-327.354 1428.91,-327.147 1443,-327 1662.54,-324.713 1717.45,-324.991 1937,-327 1945.39,-327.077 1953.95,-327.17 1962.6,-327.276"/>
<polygon fill="black" stroke="black" stroke-width="8" points="1962.71,-334.278 1972.8,-327.407 1962.89,-320.279 1962.71,-334.278"/>
</a>
</g>
</g>
<!-- PAKGGEXPGNFSCN -->
<g id="node9" class="node"><title>PAKGGEXPGNFSCN</title>
<g id="a_node9"><a xlink:title="Expenditure on Goods and Services
FRML &lt;Z,EXO&gt; PAKGGEXPGNFSCN = (0.3*PAKGGEXPGNFSCN(-1)+(1-0.3)*(0.80*(PAKGGREVTOTLCN-PAKGGEXPINTPCN(-0)))+505277.259999999*DURING_2012 + PAKGGEXPGNFSCN_A)* (1-PAKGGEXPGNFSCN_D)+ PAKGGEXPGNFSCN_X*PAKGGEXPGNFSCN_D  $">
<polygon fill="#63b8ff" stroke="black" points="682,-329 333,-329 333,-293 682,-293 682,-329"/>
<text text-anchor="start" x="339.5" y="-306.8" font-family="Times New Roman,serif" font-size="14.00" fill="blue">PAKGGEXPGNFSCN:Expenditure on Goods and Services</text>
</a>
</g>
</g>
<!-- PAKNECONGOVTCN -->
<g id="node27" class="node"><title>PAKNECONGOVTCN</title>
<g id="a_node27"><a xlink:title="Government consumption (G&amp;S)
FRML &lt;Z,EXO&gt; PAKNECONGOVTCN = (-PAKNECONGOVTCN_A*PAKNECONGOVTCN(-1)/100+ ((100 * ( (PAKGGEXPGNFSCN) / (PAKGGEXPGNFSCN(-1)) -1)) +0.764199817873939*DUMH) *PAKNECONGOVTCN(-1)/100+PAKNECONGOVTCN(-1)) * (1-PAKNECONGOVTCN_D)+ PAKNECONGOVTCN_X*PAKNECONGOVTCN_D  $">
<polygon fill="#63b8ff" stroke="black" points="1057,-310 718,-310 718,-274 1057,-274 1057,-310"/>
<text text-anchor="start" x="724.5" y="-287.8" font-family="Times New Roman,serif" font-size="14.00" fill="blue">PAKNECONGOVTCN:Government consumption (G&amp;S)</text>
</a>
</g>
</g>
<!-- PAKGGEXPGNFSCN&#45;&gt;PAKNECONGOVTCN -->
<g id="edge18" class="edge"><title>PAKGGEXPGNFSCN-&gt;PAKNECONGOVTCN</title>
<g id="a_edge18"><a xlink:href="bogus" xlink:title=" PAKGGEXPGNFSCN -&gt; PAKNECONGOVTCN Min. att. -18%  max: 100%">
<path fill="none" stroke="black" stroke-width="8" d="M682.012,-302.279C690.591,-301.847 699.212,-301.414 707.806,-300.982"/>
<polygon fill="black" stroke="black" stroke-width="8" points="708.24,-307.969 717.876,-300.476 707.537,-293.987 708.24,-307.969"/>
</a>
</g>
</g>
<!-- PAKNEIMPGSNEXN -->
<g id="node10" class="node"><title>PAKNEIMPGSNEXN</title>
<g id="a_node10"><a xlink:title="Imports (Non-energy)
FRML &lt;Z,EXO&gt; PAKNEIMPGSNEXN = (PAKNEIMPGSNEXN(-1)*EXP(-PAKNEIMPGSNEXN_A+ (-0.278529319815428*(LOG(PAKNEIMPGSNEXN(-1))-0.3*LOG(PAKNYGDPFCSTXN(-1))-(1-0.3)*LOG(PAKPMKEY(-1)*PAKPANUSATLS(-1)))+0.4*((LOG(PAKNYGDPFCSTXN))-(LOG(PAKNYGDPFCSTXN(-1))))+(1-0.4)*((LOG(PAKPMKEY*PAKPANUSATLS))-(LOG(PAKPMKEY(-1)*PAKPANUSATLS(-1))))-0.888813883474775+0.135666902654654*DURING_2012+0.216228696118762*DURING_2008) )) * (1-PAKNEIMPGSNEXN_D)+ PAKNEIMPGSNEXN_X*PAKNEIMPGSNEXN_D  $">
<polygon fill="#63b8ff" stroke="black" points="1382.5,-234 1117.5,-234 1117.5,-198 1382.5,-198 1382.5,-234"/>
<text text-anchor="start" x="1124" y="-211.8" font-family="Times New Roman,serif" font-size="14.00" fill="blue">PAKNEIMPGSNEXN:Imports (Non-energy)</text>
</a>
</g>
</g>
<!-- PAKNEIMPGNFSXN -->
<g id="node22" class="node"><title>PAKNEIMPGNFSXN</title>
<g id="a_node22"><a xlink:title="Imports (G&amp;S)
FRML  &lt;&gt; PAKNEIMPGNFSXN = ((PAKNEIMPENGYSH**PAKCESENGYIMPT)*PAKNVENGNIMPXN**(1-PAKCESENGYIMPT)+(PAKNEIMPOTHRSH**PAKCESENGYIMPT)*PAKNEIMPGSNEXN**(1-PAKCESENGYIMPT))**(1/(1-PAKCESENGYIMPT)) $">
<polygon fill="#63b8ff" stroke="black" points="1672,-234 1443,-234 1443,-198 1672,-198 1672,-234"/>
<text text-anchor="start" x="1449.5" y="-211.8" font-family="Times New Roman,serif" font-size="14.00" fill="blue">PAKNEIMPGNFSXN:Imports (G&amp;S)</text>
</a>
</g>
</g>
<!-- PAKNEIMPGSNEXN&#45;&gt;PAKNEIMPGNFSXN -->
<g id="edge24" class="edge"><title>PAKNEIMPGSNEXN-&gt;PAKNEIMPGNFSXN</title>
<g id="a_edge24"><a xlink:href="bogus" xlink:title=" PAKNEIMPGSNEXN -&gt; PAKNEIMPGNFSXN Min. att. -4%  max: 63%">
<path fill="none" stroke="black" stroke-width="6.32847" d="M1382.78,-216C1399.36,-216 1416.28,-216 1432.73,-216"/>
<polygon fill="black" stroke="black" stroke-width="6.32847" points="1432.91,-221.538 1442.91,-216 1432.91,-210.463 1432.91,-221.538"/>
</a>
</g>
</g>
<!-- PAKFMLBLPOLYXN -->
<g id="node11" class="node"><title>PAKFMLBLPOLYXN</title>
<g id="a_node11"><a xlink:title="Policy Rate
FRML &lt;Z,EXO&gt; PAKFMLBLPOLYXN = (-100*PAKFMLBLPOLYXN_A+100* (0.905129162122953*PAKFMLBLPOLYXN(-1)/100+(1-0.905129162122953)*(PAKMPPOLNATRXN/100+1.2*(((LOG(PAKNECONPRVTXN))-(LOG(PAKNECONPRVTXN(-1))))-PAKINFLEXPT/100)+0.5*PAKNYGDPGAP_/100)) ) * (1-PAKFMLBLPOLYXN_D)+ PAKFMLBLPOLYXN_X*PAKFMLBLPOLYXN_D  $">
<polygon fill="#63b8ff" stroke="black" points="992.5,-456 782.5,-456 782.5,-420 992.5,-420 992.5,-456"/>
<text text-anchor="start" x="788.5" y="-433.8" font-family="Times New Roman,serif" font-size="14.00" fill="blue">PAKFMLBLPOLYXN:Policy Rate</text>
</a>
</g>
</g>
<!-- PAKNECONPRVTKN -->
<g id="node18" class="node"><title>PAKNECONPRVTKN</title>
<g id="a_node18"><a xlink:title="Household Consumption
FRML &lt;Z,EXO&gt; PAKNECONPRVTKN = (PAKNECONPRVTKN(-1)*EXP(-PAKNECONPRVTKN_A+ (-0.2*(LOG(PAKNECONPRVTKN(-1))-LOG((PAKNYYWBTOTLCN(-1)*(1-PAKGGREVDRCTXN(-1)/100))/PAKNECONPRVTXN(-1)))+1*((LOG((PAKNYYWBTOTLCN*(1-PAKGGREVDRCTXN/100))/PAKNECONPRVTXN))-(LOG((PAKNYYWBTOTLCN(-1)*(1-PAKGGREVDRCTXN(-1)/100))/PAKNECONPRVTXN(-1))))+0.0303228629698929+0.0163839011059956*DURING_2010-0.3*(PAKFMLBLPOLYXN/100-((LOG(PAKNECONPRVTXN))-(LOG(PAKNECONPRVTXN(-1)))))) )) * (1-PAKNECONPRVTKN_D)+ PAKNECONPRVTKN_X*PAKNECONPRVTKN_D  $">
<polygon fill="#63b8ff" stroke="black" points="1394,-418 1106,-418 1106,-382 1394,-382 1394,-418"/>
<text text-anchor="start" x="1112" y="-395.8" font-family="Times New Roman,serif" font-size="14.00" fill="blue">PAKNECONPRVTKN:Household Consumption</text>
</a>
</g>
</g>
<!-- PAKFMLBLPOLYXN&#45;&gt;PAKNECONPRVTKN -->
<g id="edge9" class="edge"><title>PAKFMLBLPOLYXN-&gt;PAKNECONPRVTKN</title>
<g id="a_edge9"><a xlink:href="bogus" xlink:title=" PAKFMLBLPOLYXN -&gt; PAKNECONPRVTKN Min. att. -160%  max: 20%">
<path fill="none" stroke="black" stroke-width="8" d="M992.772,-427.009C1024.85,-423.627 1060.86,-419.831 1095.52,-416.178"/>
<polygon fill="black" stroke="black" stroke-width="8" points="1096.53,-423.111 1105.74,-415.101 1095.06,-409.188 1096.53,-423.111"/>
</a>
</g>
</g>
<!-- PAKNEGDIFPRVKN -->
<g id="node12" class="node"><title>PAKNEGDIFPRVKN</title>
<g id="a_node12"><a xlink:title="Private Investment
FRML &lt;Z,EXO&gt; PAKNEGDIFPRVKN = (-PAKNEGDIFPRVKN_A*PAKNEGDIKSTKKN(-1)+ (-0.00526826150713402+0.826734606421746*(PAKNEGDIFPRVKN(-1)/PAKNEGDIKSTKKN(-2))+(1-0.826734606421746)*(((LOG(PAKNYGDPPOTLKN))-(LOG(PAKNYGDPPOTLKN(-1))))+PAKDEPR)-0.00378813564556318*((LOG(PAKNEKRTTOTLCN/PAKNYGDPFCSTXN))-(LOG(PAKNEKRTTOTLCN(-1)/PAKNYGDPFCSTXN(-1))))) *PAKNEGDIKSTKKN(-1)) * (1-PAKNEGDIFPRVKN_D)+ PAKNEGDIFPRVKN_X*PAKNEGDIFPRVKN_D  $">
<polygon fill="#63b8ff" stroke="black" points="1009.5,-140 765.5,-140 765.5,-104 1009.5,-104 1009.5,-140"/>
<text text-anchor="start" x="771.5" y="-117.8" font-family="Times New Roman,serif" font-size="14.00" fill="blue">PAKNEGDIFPRVKN:Private Investment</text>
</a>
</g>
</g>
<!-- PAKNEGDIFPRVKN&#45;&gt;PAKNEGDIFTOTKN -->
<g id="edge23" class="edge"><title>PAKNEGDIFPRVKN-&gt;PAKNEGDIFTOTKN</title>
<g id="a_edge23"><a xlink:href="bogus" xlink:title=" PAKNEGDIFPRVKN -&gt; PAKNEGDIFTOTKN Min. att. -5%  max: 94%">
<path fill="none" stroke="black" stroke-width="8" d="M929.22,-140.106C964.361,-156.513 1015.81,-182.44 1057,-211 1074.59,-223.198 1073.71,-233.708 1093,-243 1097.08,-244.966 1101.28,-246.79 1105.57,-248.484"/>
<polygon fill="black" stroke="black" stroke-width="8" points="1103.29,-255.103 1115.09,-251.985 1108.12,-241.964 1103.29,-255.103"/>
</a>
</g>
</g>
<!-- PAKNEGDIFGOVCN -->
<g id="node14" class="node"><title>PAKNEGDIFGOVCN</title>
<g id="a_node14"><a xlink:title="Government Investment
FRML &lt;Z,EXO&gt; PAKNEGDIFGOVCN = (PAKNEGDIFGOVCN(-1)*EXP(-PAKNEGDIFGOVCN_A+ (((LOG(PAKGGEXPCAPTCN))-(LOG(PAKGGEXPCAPTCN(-1))))-0.00510713331489238*DUMH) )) * (1-PAKNEGDIFGOVCN_D)+ PAKNEGDIFGOVCN_X*PAKNEGDIFGOVCN_D  $">
<polygon fill="#63b8ff" stroke="black" points="646.5,-275 368.5,-275 368.5,-239 646.5,-239 646.5,-275"/>
<text text-anchor="start" x="374.5" y="-252.8" font-family="Times New Roman,serif" font-size="14.00" fill="blue">PAKNEGDIFGOVCN:Government Investment</text>
</a>
</g>
</g>
<!-- PAKNEGDIFGOVCN&#45;&gt;PAKNEGDIFGOVKN -->
<g id="edge31" class="edge"><title>PAKNEGDIFGOVCN-&gt;PAKNEGDIFGOVKN</title>
<g id="a_edge31"><a xlink:href="bogus" xlink:title=" PAKNEGDIFGOVCN -&gt; PAKNEGDIFGOVKN Min. att. 129%  max: 988%">
<path fill="none" stroke="black" stroke-width="8" d="M646.571,-250.06C676.414,-248.56 708.088,-246.968 738.301,-245.449"/>
<polygon fill="black" stroke="black" stroke-width="8" points="738.851,-252.43 748.487,-244.937 738.148,-238.448 738.851,-252.43"/>
</a>
</g>
</g>
<!-- PAKNYYWBTOTLCN&#45;&gt;PAKNECONPRVTKN -->
<g id="edge12" class="edge"><title>PAKNYYWBTOTLCN-&gt;PAKNECONPRVTKN</title>
<g id="a_edge12"><a xlink:href="bogus" xlink:title=" PAKNYYWBTOTLCN -&gt; PAKNECONPRVTKN Min. att. -594%  max: 5823%">
<path fill="none" stroke="black" stroke-width="8" d="M1028.91,-527.886C1038.53,-525.308 1047.98,-522.364 1057,-519 1118.74,-495.98 1182.15,-451.912 1218.44,-424.344"/>
<polygon fill="black" stroke="black" stroke-width="8" points="1222.96,-429.695 1226.63,-418.051 1214.43,-418.594 1222.96,-429.695"/>
</a>
</g>
</g>
<!-- PAKNEGDIKSTKKN -->
<g id="node16" class="node"><title>PAKNEGDIKSTKKN</title>
<g id="a_node16"><a xlink:title="Domestic Capital
FRML  &lt;&gt; PAKNEGDIKSTKKN = (PAKNEGDIKSTKKN(-1)*(1-PAKDEPR))+PAKNEGDIFTOTKN2-2*PAKHURDAMKN $">
<polygon fill="#63b8ff" stroke="black" points="626.5,-167 388.5,-167 388.5,-131 626.5,-131 626.5,-167"/>
<text text-anchor="start" x="394.5" y="-144.8" font-family="Times New Roman,serif" font-size="14.00" fill="blue">PAKNEGDIKSTKKN:Domestic Capital</text>
</a>
</g>
</g>
<!-- PAKNEGDIKSTKKN&#45;&gt;PAKNEGDIFPRVKN -->
<g id="edge4" class="edge"><title>PAKNEGDIKSTKKN-&gt;PAKNEGDIFPRVKN</title>
<g id="a_edge4"><a xlink:href="bogus" xlink:title=" PAKNEGDIKSTKKN -&gt; PAKNEGDIFPRVKN Min. att. 0%  max: 76%">
<path fill="none" stroke="black" stroke-width="7.56725" d="M626.547,-140.568C667.457,-137.646 713.557,-134.353 755.451,-131.361"/>
<polygon fill="black" stroke="black" stroke-width="7.56725" points="755.938,-137.964 765.44,-130.647 754.994,-124.755 755.938,-137.964"/>
</a>
</g>
</g>
<!-- PAKNEGDIFTOTKN&#45;&gt;PAKNEGDETTOTKN -->
<g id="edge7" class="edge"><title>PAKNEGDIFTOTKN-&gt;PAKNEGDETTOTKN</title>
<g id="a_edge7"><a xlink:href="bogus" xlink:title=" PAKNEGDIFTOTKN -&gt; PAKNEGDETTOTKN Min. att. -1115%  max: 1147%">
<path fill="none" stroke="black" stroke-width="8" d="M1341.73,-288.039C1363.24,-292.793 1386.02,-298.224 1407,-304 1437.08,-312.282 1470.02,-323.103 1497.3,-332.559"/>
<polygon fill="black" stroke="black" stroke-width="8" points="1495.33,-339.287 1507.08,-335.974 1499.95,-326.069 1495.33,-339.287"/>
</a>
</g>
</g>
<!-- PAKNEGDIFTOTKN&#45;&gt;PAKNYGDPMKTPKN -->
<g id="edge25" class="edge"><title>PAKNEGDIFTOTKN-&gt;PAKNYGDPMKTPKN</title>
<g id="a_edge25"><a xlink:href="bogus" xlink:title=" PAKNEGDIFTOTKN -&gt; PAKNYGDPMKTPKN Min. att. -36%  max: 366%">
<path fill="none" stroke="black" stroke-width="8" d="M1407,-280.521C1560.95,-290.903 1796.66,-306.8 1962.36,-317.974"/>
<polygon fill="black" stroke="black" stroke-width="8" points="1962.22,-324.981 1972.67,-318.67 1963.16,-311.013 1962.22,-324.981"/>
</a>
</g>
</g>
<!-- PAKNECONPRVTKN&#45;&gt;PAKNEGDETTOTKN -->
<g id="edge33" class="edge"><title>PAKNECONPRVTKN-&gt;PAKNEGDETTOTKN</title>
<g id="a_edge33"><a xlink:href="bogus" xlink:title=" PAKNECONPRVTKN -&gt; PAKNEGDETTOTKN Min. att. -2284%  max: 2484%">
<path fill="none" stroke="black" stroke-width="8" d="M1370.86,-381.952C1400.19,-377.535 1431.22,-372.864 1459.34,-368.63"/>
<polygon fill="black" stroke="black" stroke-width="8" points="1460.71,-375.502 1469.56,-367.091 1458.63,-361.658 1460.71,-375.502"/>
</a>
</g>
</g>
<!-- PAKNECONPRVTKN&#45;&gt;PAKNYGDPMKTPKN -->
<g id="edge17" class="edge"><title>PAKNECONPRVTKN-&gt;PAKNYGDPMKTPKN</title>
<g id="a_edge17"><a xlink:href="bogus" xlink:title=" PAKNECONPRVTKN -&gt; PAKNYGDPMKTPKN Min. att. -1557%  max: 290%">
<path fill="none" stroke="black" stroke-width="8" d="M1394.18,-404.216C1533.4,-406.39 1750.55,-404.679 1937,-381 1985.96,-374.782 2040.04,-362.452 2082.15,-351.593"/>
<polygon fill="black" stroke="black" stroke-width="8" points="2084.13,-358.311 2092.04,-349.014 2080.59,-344.765 2084.13,-358.311"/>
</a>
</g>
</g>
<!-- PAKNYGDPGAP_ -->
<g id="node19" class="node"><title>PAKNYGDPGAP_</title>
<g id="a_node19"><a xlink:title="Output Gap (% of Potential GDP)
FRML  &lt;&gt; PAKNYGDPGAP_ = ((PAKNYGDPMKTPKN/PAKNYGDPPOTLKN-1)*100) $">
<polygon fill="#63b8ff" stroke="black" points="667,-456 348,-456 348,-420 667,-420 667,-456"/>
<text text-anchor="start" x="354.5" y="-433.8" font-family="Times New Roman,serif" font-size="14.00" fill="blue">PAKNYGDPGAP_:Output Gap (% of Potential GDP)</text>
</a>
</g>
</g>
<!-- PAKNYGDPGAP_&#45;&gt;PAKNYGDPFCSTXN -->
<g id="edge30" class="edge"><title>PAKNYGDPGAP_-&gt;PAKNYGDPFCSTXN</title>
<g id="a_edge30"><a xlink:href="bogus" xlink:title=" PAKNYGDPGAP_ -&gt; PAKNYGDPFCSTXN Min. att. -56%  max: 7987%">
<path fill="none" stroke="black" stroke-width="8" d="M634.631,-456.019C671.88,-461.34 712.806,-467.187 750.639,-472.591"/>
<polygon fill="black" stroke="black" stroke-width="8" points="749.813,-479.544 760.703,-474.029 751.793,-465.685 749.813,-479.544"/>
</a>
</g>
</g>
<!-- PAKNYGDPGAP_&#45;&gt;PAKFMLBLPOLYXN -->
<g id="edge21" class="edge"><title>PAKNYGDPGAP_-&gt;PAKFMLBLPOLYXN</title>
<g id="a_edge21"><a xlink:href="bogus" xlink:title=" PAKNYGDPGAP_ -&gt; PAKFMLBLPOLYXN Min. att. -15%  max: 83%">
<path fill="none" stroke="black" stroke-width="8" d="M667.163,-438C702.409,-438 739.101,-438 772.161,-438"/>
<polygon fill="black" stroke="black" stroke-width="8" points="772.299,-445 782.299,-438 772.299,-431 772.299,-445"/>
</a>
</g>
</g>
<!-- PAKNEGDIFGOVXN -->
<g id="node20" class="node"><title>PAKNEGDIFGOVXN</title>
<g id="a_node20"><a xlink:title="Government Investment
FRML &lt;Z,EXO&gt; PAKNEGDIFGOVXN = (PAKNEGDIFGOVXN(-1)*EXP(-PAKNEGDIFGOVXN_A+ (-0.480254922468272*(LOG(PAKNEGDIFGOVXN(-1))-LOG(PAKNECONPRVTXN(-1)))+0.00720714576835064+0.0731599680348391*((LOG(PAKNEGDIFGOVXN(-1)))-(LOG(PAKNEGDIFGOVXN(-2))))+(1-0.0731599680348391)*((LOG(PAKNECONPRVTXN))-(LOG(PAKNECONPRVTXN(-1))))) )) * (1-PAKNEGDIFGOVXN_D)+ PAKNEGDIFGOVXN_X*PAKNEGDIFGOVXN_D  $">
<polygon fill="#63b8ff" stroke="black" points="646.5,-221 368.5,-221 368.5,-185 646.5,-185 646.5,-221"/>
<text text-anchor="start" x="374.5" y="-198.8" font-family="Times New Roman,serif" font-size="14.00" fill="blue">PAKNEGDIFGOVXN:Government Investment</text>
</a>
</g>
</g>
<!-- PAKNEGDIFGOVXN&#45;&gt;PAKNEGDIFGOVKN -->
<g id="edge14" class="edge"><title>PAKNEGDIFGOVXN-&gt;PAKNEGDIFGOVKN</title>
<g id="a_edge14"><a xlink:href="bogus" xlink:title=" PAKNEGDIFGOVXN -&gt; PAKNEGDIFGOVKN Min. att. -892%  max: -32%">
<path fill="none" stroke="black" stroke-width="8" d="M646.571,-215.784C676.414,-218.548 708.088,-221.48 738.301,-224.278"/>
<polygon fill="black" stroke="black" stroke-width="8" points="737.884,-231.269 748.487,-225.221 739.175,-217.329 737.884,-231.269"/>
</a>
</g>
</g>
<!-- PAKNVENGNIMPXN -->
<g id="node21" class="node"><title>PAKNVENGNIMPXN</title>
<g id="a_node21"><a xlink:title="Energy Imports
FRML  &lt;&gt; PAKNVENGNIMPXN = ((PAKNVCOLNIMPSH**PAKCESENGYIMP)*PAKNVCOLPRODXN**(1-PAKCESENGYIMP)+(PAKNVOILNIMPSH**PAKCESENGYIMP)*PAKNVOILPRODXN**(1-PAKCESENGYIMP)+(PAKNVGASNIMPSH**PAKCESENGYIMP)*PAKNVGASPRODXN**(1-PAKCESENGYIMP)+(PAKNVRENNIMPSH**PAKCESENGYIMP)*PAKNVRENPRODXN**(1-PAKCESENGYIMP))**(1/(1-PAKCESENGYIMP)) $">
<polygon fill="#63b8ff" stroke="black" points="1366,-180 1134,-180 1134,-144 1366,-144 1366,-180"/>
<text text-anchor="start" x="1140" y="-157.8" font-family="Times New Roman,serif" font-size="14.00" fill="blue">PAKNVENGNIMPXN:Energy Imports</text>
</a>
</g>
</g>
<!-- PAKNVENGNIMPXN&#45;&gt;PAKNEIMPGNFSXN -->
<g id="edge8" class="edge"><title>PAKNVENGNIMPXN-&gt;PAKNEIMPGNFSXN</title>
<g id="a_edge8"><a xlink:href="bogus" xlink:title=" PAKNVENGNIMPXN -&gt; PAKNEIMPGNFSXN Min. att. 37%  max: 104%">
<path fill="none" stroke="black" stroke-width="8" d="M1355.91,-180.05C1372.99,-183.019 1390.49,-186.08 1407,-189 1420.06,-191.31 1433.76,-193.754 1447.34,-196.191"/>
<polygon fill="black" stroke="black" stroke-width="8" points="1446.12,-203.084 1457.2,-197.962 1448.6,-189.304 1446.12,-203.084"/>
</a>
</g>
</g>
<!-- PAKNEIMPGNFSXN&#45;&gt;PAKNEIMPGNFSKN -->
<g id="edge20" class="edge"><title>PAKNEIMPGNFSXN-&gt;PAKNEIMPGNFSKN</title>
<g id="a_edge20"><a xlink:href="bogus" xlink:title=" PAKNEIMPGNFSXN -&gt; PAKNEIMPGNFSKN Min. att. -390%  max: 1559%">
<path fill="none" stroke="black" stroke-width="8" d="M1592.88,-234.041C1640.43,-258.991 1726.26,-304.024 1778.15,-331.251"/>
<polygon fill="black" stroke="black" stroke-width="8" points="1775,-337.507 1787.11,-335.954 1781.51,-325.11 1775,-337.507"/>
</a>
</g>
</g>
<!-- PAKPSTAR -->
<g id="node23" class="node"><title>PAKPSTAR</title>
<g id="a_node23"><a xlink:title="Nominal marginal cost
FRML  &lt;&gt; PAKPSTAR = (1/PAKNYGDPTFP)*((PAKNEKRTTOTLCN/(1-PAKNYYWBTOTLCN_))**(1-PAKNYYWBTOTLCN_))*((PAKNYWRTTOTLCN/PAKNYYWBTOTLCN_)**PAKNYYWBTOTLCN_) $">
<polygon fill="#63b8ff" stroke="black" points="614,-510 401,-510 401,-474 614,-474 614,-510"/>
<text text-anchor="start" x="407.5" y="-487.8" font-family="Times New Roman,serif" font-size="14.00" fill="blue">PAKPSTAR:Nominal marginal cost</text>
</a>
</g>
</g>
<!-- PAKPSTAR&#45;&gt;PAKNYGDPFCSTXN -->
<g id="edge27" class="edge"><title>PAKPSTAR-&gt;PAKNYGDPFCSTXN</title>
<g id="a_edge27"><a xlink:href="bogus" xlink:title=" PAKPSTAR -&gt; PAKNYGDPFCSTXN Min. att. -20%  max: 2191%">
<path fill="none" stroke="black" stroke-width="8" d="M614.045,-492C656.386,-492 705.719,-492 750.68,-492"/>
<polygon fill="black" stroke="black" stroke-width="8" points="750.802,-499 760.801,-492 750.801,-485 750.802,-499"/>
</a>
</g>
</g>
<!-- PAKNECONENGYXN -->
<g id="node24" class="node"><title>PAKNECONENGYXN</title>
<g id="a_node24"><a xlink:title="Energy Consumption
FRML &lt;Z,EXO&gt; PAKNECONENGYXN = (PAKNECONENGYXN(-1)*EXP(-PAKNECONENGYXN_A+ (((LOG(PAKNECONENGYGN))-(LOG(PAKNECONENGYGN(-1))))+0.0550557534575806*DUMH) )) * (1-PAKNECONENGYXN_D)+ PAKNECONENGYXN_X*PAKNECONENGYXN_D  $">
<polygon fill="#63b8ff" stroke="black" points="282.5,-429 14.5,-429 14.5,-393 282.5,-393 282.5,-429"/>
<text text-anchor="start" x="20.5" y="-406.8" font-family="Times New Roman,serif" font-size="14.00" fill="blue">PAKNECONENGYXN:Energy Consumption</text>
</a>
</g>
</g>
<!-- PAKNECONPRVTXN -->
<g id="node26" class="node"><title>PAKNECONPRVTXN</title>
<g id="a_node26"><a xlink:title="Household demand
FRML  &lt;&gt; PAKNECONPRVTXN = ((PAKNECONENGYSH**PAKCESENGYCON)*PAKNECONENGYXN**(1-PAKCESENGYCON)+(PAKNECONOTHRSH**PAKCESENGYCON)*PAKNECONOTHRXN**(1-PAKCESENGYCON))**(1/(1-PAKCESENGYCON)) $">
<polygon fill="#63b8ff" stroke="black" points="635.5,-402 379.5,-402 379.5,-366 635.5,-366 635.5,-402"/>
<text text-anchor="start" x="385.5" y="-379.8" font-family="Times New Roman,serif" font-size="14.00" fill="blue">PAKNECONPRVTXN:Household demand</text>
</a>
</g>
</g>
<!-- PAKNECONENGYXN&#45;&gt;PAKNECONPRVTXN -->
<g id="edge3" class="edge"><title>PAKNECONENGYXN-&gt;PAKNECONPRVTXN</title>
<g id="a_edge3"><a xlink:href="bogus" xlink:title=" PAKNECONENGYXN -&gt; PAKNECONPRVTXN Min. att. 1%  max: 29%">
<path fill="none" stroke="black" stroke-width="2.9098" d="M282.687,-400.927C310.958,-398.789 340.853,-396.528 369.272,-394.379"/>
<polygon fill="black" stroke="black" stroke-width="2.9098" points="369.549,-397.868 379.257,-393.623 369.021,-390.888 369.549,-397.868"/>
</a>
</g>
</g>
<!-- PAKNYGDPPOTLKN -->
<g id="node25" class="node"><title>PAKNYGDPPOTLKN</title>
<g id="a_node25"><a xlink:title="Potential GDP
FRML  &lt;&gt; PAKNYGDPPOTLKN = PAKNYGDPTFP*(PAKLMEMPSTRLCN**PAKNYYWBTOTLCN_)*(PAKNEGDIKSTKKN(-1)**(1-PAKNYYWBTOTLCN_)) $">
<polygon fill="#63b8ff" stroke="black" points="621,-113 394,-113 394,-77 621,-77 621,-113"/>
<text text-anchor="start" x="400.5" y="-90.8" font-family="Times New Roman,serif" font-size="14.00" fill="blue">PAKNYGDPPOTLKN:Potential GDP</text>
</a>
</g>
</g>
<!-- PAKNYGDPPOTLKN&#45;&gt;PAKNEGDIFPRVKN -->
<g id="edge2" class="edge"><title>PAKNYGDPPOTLKN-&gt;PAKNEGDIFPRVKN</title>
<g id="a_edge2"><a xlink:href="bogus" xlink:title=" PAKNYGDPPOTLKN -&gt; PAKNEGDIFPRVKN Min. att. -8%  max: 66%">
<path fill="none" stroke="black" stroke-width="6.61165" d="M621.145,-103.046C663.334,-106.06 711.625,-109.509 755.346,-112.632"/>
<polygon fill="black" stroke="black" stroke-width="6.61165" points="755.088,-118.413 765.474,-113.355 755.912,-106.872 755.088,-118.413"/>
</a>
</g>
</g>
<!-- PAKNECONPRVTXN&#45;&gt;PAKNECONGOVTXN -->
<g id="edge19" class="edge"><title>PAKNECONPRVTXN-&gt;PAKNECONGOVTXN</title>
<g id="a_edge19"><a xlink:href="bogus" xlink:title=" PAKNECONPRVTXN -&gt; PAKNECONGOVTXN Min. att. 26%  max: 100%">
<path fill="none" stroke="black" stroke-width="8" d="M635.683,-371.214C658.862,-368.884 683.434,-366.414 707.778,-363.967"/>
<polygon fill="black" stroke="black" stroke-width="8" points="708.573,-370.922 717.823,-362.957 707.173,-356.992 708.573,-370.922"/>
</a>
</g>
</g>
<!-- PAKNECONPRVTXN&#45;&gt;PAKFMLBLPOLYXN -->
<g id="edge16" class="edge"><title>PAKNECONPRVTXN-&gt;PAKFMLBLPOLYXN</title>
<g id="a_edge16"><a xlink:href="bogus" xlink:title=" PAKNECONPRVTXN -&gt; PAKFMLBLPOLYXN Min. att. -94%  max: 1459%">
<path fill="none" stroke="black" stroke-width="8" d="M634.631,-402.019C679.148,-408.378 728.916,-415.488 772.382,-421.697"/>
<polygon fill="black" stroke="black" stroke-width="8" points="771.529,-428.647 782.419,-423.131 773.509,-414.787 771.529,-428.647"/>
</a>
</g>
</g>
<!-- PAKNECONPRVTXN&#45;&gt;PAKNECONPRVTKN -->
<g id="edge22" class="edge"><title>PAKNECONPRVTXN-&gt;PAKNECONPRVTKN</title>
<g id="a_edge22"><a xlink:href="bogus" xlink:title=" PAKNECONPRVTXN -&gt; PAKNECONPRVTKN Min. att. -5708%  max: 593%">
<path fill="none" stroke="black" stroke-width="8" d="M635.796,-386.75C763.378,-389.507 959.867,-393.753 1095.89,-396.692"/>
<polygon fill="black" stroke="black" stroke-width="8" points="1095.84,-403.692 1105.99,-396.91 1096.14,-389.695 1095.84,-403.692"/>
</a>
</g>
</g>
<!-- PAKNECONGOVTCN&#45;&gt;PAKNECONGOVTKN -->
<g id="edge6" class="edge"><title>PAKNECONGOVTCN-&gt;PAKNECONGOVTKN</title>
<g id="a_edge6"><a xlink:href="bogus" xlink:title=" PAKNECONGOVTCN -&gt; PAKNECONGOVTKN Min. att. 117%  max: 963%">
<path fill="none" stroke="black" stroke-width="8" d="M1055.03,-310.016C1066.73,-311.282 1078.51,-312.556 1090.17,-313.817"/>
<polygon fill="black" stroke="black" stroke-width="8" points="1089.68,-320.805 1100.37,-314.921 1091.19,-306.886 1089.68,-320.805"/>
</a>
</g>
</g>
<!-- PAKNECONOTHRXN -->
<g id="node28" class="node"><title>PAKNECONOTHRXN</title>
<g id="a_node28"><a xlink:title="Non-Energy Consumption
FRML &lt;Z,EXO&gt; PAKNECONOTHRXN = (PAKNECONOTHRXN(-1)*EXP(-PAKNECONOTHRXN_A+ (0.598859116610832*((LOG(PAKNYGDPFCSTXN))-(LOG(PAKNYGDPFCSTXN(-1))))+((PAKGGREVGNFSXN/100)-(PAKGGREVGNFSXN(-1)/100))+(1-0.598859116610832)*((LOG(PAKNEIMPGNFSXN))-(LOG(PAKNEIMPGNFSXN(-1))))+0.2*PAKNYGDPGAP_/100) )) * (1-PAKNECONOTHRXN_D)+ PAKNECONOTHRXN_X*PAKNECONOTHRXN_D  $">
<polygon fill="#63b8ff" stroke="black" points="297,-375 0,-375 0,-339 297,-339 297,-375"/>
<text text-anchor="start" x="6.5" y="-352.8" font-family="Times New Roman,serif" font-size="14.00" fill="blue">PAKNECONOTHRXN:Non-Energy Consumption</text>
</a>
</g>
</g>
<!-- PAKNECONOTHRXN&#45;&gt;PAKNECONPRVTXN -->
<g id="edge1" class="edge"><title>PAKNECONOTHRXN-&gt;PAKNECONPRVTXN</title>
<g id="a_edge1"><a xlink:href="bogus" xlink:title=" PAKNECONOTHRXN -&gt; PAKNECONPRVTXN Min. att. 71%  max: 99%">
<path fill="none" stroke="black" stroke-width="8" d="M297.025,-368.157C320.958,-369.967 345.658,-371.835 369.331,-373.626"/>
<polygon fill="black" stroke="black" stroke-width="8" points="368.909,-380.614 379.409,-374.388 369.965,-366.654 368.909,-380.614"/>
</a>
</g>
</g>
<!-- PAKNEKRTTOTLCN -->
<g id="node29" class="node"><title>PAKNEKRTTOTLCN</title>
<g id="a_node29"><a xlink:title="PAKNEKRTTOTLCN
FRML &lt;Z,EXO&gt; PAKNEKRTTOTLCN = (-PAKNEKRTTOTLCN_A+ (((PAKUCK)-(PAKUCK(-1)))+7.05881784375082E-05*DUMH) +PAKNEKRTTOTLCN(-1)) * (1-PAKNEKRTTOTLCN_D)+ PAKNEKRTTOTLCN_X*PAKNEKRTTOTLCN_D  $">
<polygon fill="#63b8ff" stroke="black" points="580.5,-59 434.5,-59 434.5,-23 580.5,-23 580.5,-59"/>
<text text-anchor="start" x="440.5" y="-36.8" font-family="Times New Roman,serif" font-size="14.00" fill="blue">PAKNEKRTTOTLCN:</text>
</a>
</g>
</g>
<!-- PAKNEKRTTOTLCN&#45;&gt;PAKNEGDIFPRVKN -->
<g id="edge11" class="edge"><title>PAKNEKRTTOTLCN-&gt;PAKNEGDIFPRVKN</title>
<g id="a_edge11"><a xlink:href="bogus" xlink:title=" PAKNEKRTTOTLCN -&gt; PAKNEGDIFPRVKN Min. att. -0%  max: 90%">
<path fill="none" stroke="black" stroke-width="8" d="M580.554,-50.5035C611.863,-55.0731 648.88,-61.0696 682,-68 726.565,-77.3253 775.934,-90.2851 814.999,-101.171"/>
<polygon fill="black" stroke="black" stroke-width="8" points="813.181,-107.931 824.7,-103.891 816.96,-94.451 813.181,-107.931"/>
</a>
</g>
</g>
</g>
</svg>