<svg xmlns="http://www.w3.org/2000/svg" xmlns:xlink="http://www.w3.org/1999/xlink" width="432pt" height="258pt" viewBox="0.00 0.00 432.00 258.17">
<g id="graph0" class="graph" transform="scale(0.517365 0.517365) rotate(0) translate(4 495)">
<title>TD</title>
<polygon fill="white" stroke="none" points="-4,4 -4,-495 831,-495 831,4 -4,4"/>
<text text-anchor="middle" x="413.5" y="-7.8" font-family="Times New Roman,serif" font-size="14.00">PAKNYGDPMKTPKN</text>
<!-- PAKNECONGOVTKN -->
<g id="node1" class="node"><title>PAKNECONGOVTKN</title>
<g id="a_node1"><a xlink:title="Government Consumption
FRML  &lt;&gt; PAKNECONGOVTKN = PAKNECONGOVTCN/PAKNECONGOVTXN $">
<polygon fill="#63b8ff" stroke="black" points="361.5,-491 62.5,-491 62.5,-455 361.5,-455 361.5,-491"/>
<text text-anchor="start" x="69" y="-468.8" font-family="Times New Roman,serif" font-size="14.00" fill="blue">PAKNECONGOVTKN:Government Consumption</text>
</a>
</g>
</g>
<!-- PAKNYGDPMKTPKN -->
<g id="node2" class="node"><title>PAKNYGDPMKTPKN</title>
<g id="a_node2"><a xlink:title="GDP Expenditure side at market prices
FRML  &lt;&gt; PAKNYGDPMKTPKN = PAKNECONPRVTKN+PAKNECONGOVTKN+PAKNEGDIFTOTKN+PAKNEGDISTKBKN+PAKNEEXPGNFSKN-PAKNEIMPGNFSKN+PAKNYGDPDISCKN+PAKADAP*PAKDISPREPKN $">
<polygon fill="red" stroke="black" points="827,-275 460,-275 460,-239 827,-239 827,-275"/>
<text text-anchor="start" x="466.5" y="-252.8" font-family="Times New Roman,serif" font-size="14.00" fill="blue">PAKNYGDPMKTPKN:GDP Expenditure side at market prices</text>
</a>
</g>
</g>
<!-- PAKNECONGOVTKN&#45;&gt;PAKNYGDPMKTPKN -->
<g id="edge9" class="edge"><title>PAKNECONGOVTKN-&gt;PAKNYGDPMKTPKN</title>
<g id="a_edge9"><a xlink:href="bogus" xlink:title=" PAKNECONGOVTKN -&gt; PAKNYGDPMKTPKN Min. att. -108%  max: 835%">
<path fill="none" stroke="black" stroke-width="8" d="M361.598,-465.155C383.103,-460.849 404.528,-454.7 424,-446 509.218,-407.923 586.002,-325.332 621.583,-283.065"/>
<polygon fill="black" stroke="black" stroke-width="8" points="627.132,-287.339 628.14,-275.175 616.365,-278.392 627.132,-287.339"/>
</a>
</g>
</g>
<!-- PAKNECONPRVTKN -->
<g id="node3" class="node"><title>PAKNECONPRVTKN</title>
<g id="a_node3"><a xlink:title="Household Consumption
FRML &lt;Z,EXO&gt; PAKNECONPRVTKN = (PAKNECONPRVTKN(-1)*EXP(-PAKNECONPRVTKN_A+ (-0.2*(LOG(PAKNECONPRVTKN(-1))-LOG((PAKNYYWBTOTLCN(-1)*(1-PAKGGREVDRCTXN(-1)/100))/PAKNECONPRVTXN(-1)))+1*((LOG((PAKNYYWBTOTLCN*(1-PAKGGREVDRCTXN/100))/PAKNECONPRVTXN))-(LOG((PAKNYYWBTOTLCN(-1)*(1-PAKGGREVDRCTXN(-1)/100))/PAKNECONPRVTXN(-1))))+0.0303228629698929+0.0163839011059956*DURING_2010-0.3*(PAKFMLBLPOLYXN/100-((LOG(PAKNECONPRVTXN))-(LOG(PAKNECONPRVTXN(-1)))))) )) * (1-PAKNECONPRVTKN_D)+ PAKNECONPRVTKN_X*PAKNECONPRVTKN_D  $">
<polygon fill="#63b8ff" stroke="black" points="356,-437 68,-437 68,-401 356,-401 356,-437"/>
<text text-anchor="start" x="74" y="-414.8" font-family="Times New Roman,serif" font-size="14.00" fill="blue">PAKNECONPRVTKN:Household Consumption</text>
</a>
</g>
</g>
<!-- PAKNECONPRVTKN&#45;&gt;PAKNYGDPMKTPKN -->
<g id="edge8" class="edge"><title>PAKNECONPRVTKN-&gt;PAKNYGDPMKTPKN</title>
<g id="a_edge8"><a xlink:href="bogus" xlink:title=" PAKNECONPRVTKN -&gt; PAKNYGDPMKTPKN Min. att. -1557%  max: 290%">
<path fill="none" stroke="black" stroke-width="8" d="M356.243,-409.056C379.29,-405.079 402.591,-399.582 424,-392 497.381,-366.013 572.294,-312.686 612.522,-281.394"/>
<polygon fill="black" stroke="black" stroke-width="8" points="617.032,-286.752 620.567,-275.069 608.379,-275.747 617.032,-286.752"/>
</a>
</g>
</g>
<!-- PAKNEGDISTKBKN -->
<g id="node4" class="node"><title>PAKNEGDISTKBKN</title>
<g id="a_node4"><a xlink:title="Change in Inventories
Exogen">
<polygon fill="yellow" stroke="black" points="343,-383 81,-383 81,-347 343,-347 343,-383"/>
<text text-anchor="start" x="87" y="-360.8" font-family="Times New Roman,serif" font-size="14.00" fill="blue">PAKNEGDISTKBKN:Change in Inventories</text>
</a>
</g>
</g>
<!-- PAKNEGDISTKBKN&#45;&gt;PAKNYGDPMKTPKN -->
<g id="edge1" class="edge"><title>PAKNEGDISTKBKN-&gt;PAKNYGDPMKTPKN</title>
<g id="a_edge1"><a xlink:href="bogus" xlink:title=" PAKNEGDISTKBKN -&gt; PAKNYGDPMKTPKN Min. att. -0%  max: 0%">
<path fill="none" stroke="black" d="M343.02,-353.086C369.998,-349.298 398.09,-344.372 424,-338 483.659,-323.329 549.425,-297.561 593.06,-279.024"/>
<polygon fill="black" stroke="black" points="594.482,-282.222 602.296,-275.068 591.726,-275.788 594.482,-282.222"/>
</a>
</g>
</g>
<!-- PAKNYGDPDISCKN -->
<g id="node5" class="node"><title>PAKNYGDPDISCKN</title>
<g id="a_node5"><a xlink:title="Statistical Discrepency (Expenditure Side)
Exogen">
<polygon fill="yellow" stroke="black" points="401,-329 23,-329 23,-293 401,-293 401,-329"/>
<text text-anchor="start" x="29" y="-306.8" font-family="Times New Roman,serif" font-size="14.00" fill="blue">PAKNYGDPDISCKN:Statistical Discrepency (Expenditure Side)</text>
</a>
</g>
</g>
<!-- PAKNYGDPDISCKN&#45;&gt;PAKNYGDPMKTPKN -->
<g id="edge4" class="edge"><title>PAKNYGDPDISCKN-&gt;PAKNYGDPMKTPKN</title>
<g id="a_edge4"><a xlink:href="bogus" xlink:title=" PAKNYGDPDISCKN -&gt; PAKNYGDPMKTPKN Min. att. -0%  max: 0%">
<path fill="none" stroke="black" d="M356.316,-292.981C398.977,-287.618 445.882,-281.72 489.155,-276.28"/>
<polygon fill="black" stroke="black" points="489.713,-279.737 499.198,-275.017 488.839,-272.792 489.713,-279.737"/>
</a>
</g>
</g>
<!-- PAKNEIMPGNFSKN -->
<g id="node6" class="node"><title>PAKNEIMPGNFSKN</title>
<g id="a_node6"><a xlink:title="Imports (G&amp;S)
FRML &lt;Z,EXO&gt; PAKNEIMPGNFSKN = (PAKNEIMPGNFSKN(-1)*EXP(-PAKNEIMPGNFSKN_A+ (-0.324143718656754*(LOG(PAKNEIMPGNFSKN(-1))-LOG(PAKNEGDETTOTKN(-1))+0.8*LOG(PAKNEIMPGNFSXN(-1)/PAKNYGDPFCSTXN(-1)))-0.583459272245018+1*((LOG(PAKNEGDETTOTKN))-(LOG(PAKNEGDETTOTKN(-1))))-0.0921874580409631*((LOG(PAKNEIMPGNFSXN/PAKNYGDPFCSTXN))-(LOG(PAKNEIMPGNFSXN(-1)/PAKNYGDPFCSTXN(-1))))-0.0361746331863615*DURING_2012) )) * (1-PAKNEIMPGNFSKN_D)+ PAKNEIMPGNFSKN_X*PAKNEIMPGNFSKN_D  $">
<polygon fill="#63b8ff" stroke="black" points="326.5,-275 97.5,-275 97.5,-239 326.5,-239 326.5,-275"/>
<text text-anchor="start" x="104" y="-252.8" font-family="Times New Roman,serif" font-size="14.00" fill="blue">PAKNEIMPGNFSKN:Imports (G&amp;S)</text>
</a>
</g>
</g>
<!-- PAKNEIMPGNFSKN&#45;&gt;PAKNYGDPMKTPKN -->
<g id="edge2" class="edge"><title>PAKNEIMPGNFSKN-&gt;PAKNYGDPMKTPKN</title>
<g id="a_edge2"><a xlink:href="bogus" xlink:title=" PAKNEIMPGNFSKN -&gt; PAKNYGDPMKTPKN Min. att. -46%  max: 456%">
<path fill="none" stroke="black" stroke-width="8" d="M326.689,-257C364.422,-257 407.548,-257 449.549,-257"/>
<polygon fill="black" stroke="black" stroke-width="8" points="449.626,-264 459.626,-257 449.626,-250 449.626,-264"/>
</a>
</g>
</g>
<!-- PAKNEGDIFTOTKN -->
<g id="node7" class="node"><title>PAKNEGDIFTOTKN</title>
<g id="a_node7"><a xlink:title="Total Gross Capital Formation
FRML  &lt;&gt; PAKNEGDIFTOTKN = PAKNEGDIFGOVKN+PAKNEGDIFPRVKN $">
<polygon fill="#63b8ff" stroke="black" points="369,-221 55,-221 55,-185 369,-185 369,-221"/>
<text text-anchor="start" x="61" y="-198.8" font-family="Times New Roman,serif" font-size="14.00" fill="blue">PAKNEGDIFTOTKN:Total Gross Capital Formation</text>
</a>
</g>
</g>
<!-- PAKNEGDIFTOTKN&#45;&gt;PAKNYGDPMKTPKN -->
<g id="edge5" class="edge"><title>PAKNEGDIFTOTKN-&gt;PAKNYGDPMKTPKN</title>
<g id="a_edge5"><a xlink:href="bogus" xlink:title=" PAKNEGDIFTOTKN -&gt; PAKNYGDPMKTPKN Min. att. -36%  max: 366%">
<path fill="none" stroke="black" stroke-width="8" d="M356.316,-221.019C398.977,-226.382 445.882,-232.28 489.155,-237.72"/>
<polygon fill="black" stroke="black" stroke-width="8" points="488.403,-244.681 499.198,-238.983 490.149,-230.79 488.403,-244.681"/>
</a>
</g>
</g>
<!-- PAKDISPREPKN -->
<g id="node8" class="node"><title>PAKDISPREPKN</title>
<g id="a_node8"><a xlink:title="Investment in disaster risk preparation, constant prices
FRML  &lt;&gt; PAKDISPREPKN = PAKDISPREPCN/PAKNYGDPMKTPXN $">
<polygon fill="#63b8ff" stroke="black" points="424,-167 0,-167 0,-131 424,-131 424,-167"/>
<text text-anchor="start" x="6" y="-144.8" font-family="Times New Roman,serif" font-size="14.00" fill="blue">PAKDISPREPKN:Investment in disaster risk preparation, constant prices</text>
</a>
</g>
</g>
<!-- PAKDISPREPKN&#45;&gt;PAKNYGDPMKTPKN -->
<g id="edge6" class="edge"><title>PAKDISPREPKN-&gt;PAKNYGDPMKTPKN</title>
<g id="a_edge6"><a xlink:href="bogus" xlink:title=" PAKDISPREPKN -&gt; PAKNYGDPMKTPKN Min. att. -0%  max: 0%">
<path fill="none" stroke="black" d="M381.503,-167.05C395.954,-169.659 410.283,-172.627 424,-176 483.659,-190.671 549.425,-216.439 593.06,-234.976"/>
<polygon fill="black" stroke="black" points="591.726,-238.212 602.296,-238.932 594.482,-231.778 591.726,-238.212"/>
</a>
</g>
</g>
<!-- PAKADAP -->
<g id="node9" class="node"><title>PAKADAP</title>
<g id="a_node9"><a xlink:title="Switch on adaptation mode (0 or 1)
Exogen">
<polygon fill="yellow" stroke="black" points="352,-113 72,-113 72,-77 352,-77 352,-113"/>
<text text-anchor="start" x="78" y="-90.8" font-family="Times New Roman,serif" font-size="14.00" fill="blue">PAKADAP:Switch on adaptation mode (0 or 1)</text>
</a>
</g>
</g>
<!-- PAKADAP&#45;&gt;PAKNYGDPMKTPKN -->
<g id="edge3" class="edge"><title>PAKADAP-&gt;PAKNYGDPMKTPKN</title>
<g id="a_edge3"><a xlink:href="bogus" xlink:title=" PAKADAP -&gt; PAKNYGDPMKTPKN Min. att. -0%  max: 0%">
<path fill="none" stroke="black" d="M352.031,-104.234C376.442,-108.258 401.285,-113.956 424,-122 497.381,-147.987 572.294,-201.314 612.522,-232.606"/>
<polygon fill="black" stroke="black" points="610.542,-235.502 620.567,-238.931 614.869,-229.999 610.542,-235.502"/>
</a>
</g>
</g>
<!-- PAKNEEXPGNFSKN -->
<g id="node10" class="node"><title>PAKNEEXPGNFSKN</title>
<g id="a_node10"><a xlink:title="Exports (G&amp;S)
FRML &lt;Z,EXO&gt; PAKNEEXPGNFSKN = (PAKNEEXPGNFSKN(-1)*EXP(-PAKNEEXPGNFSKN_A+ (-0.35*(LOG(PAKNEEXPGNFSKN(-1))-LOG(PAKXMKT(-1))-0.6*LOG(PAKNEEXPGNFSXN(-1)/(PAKNYGDPFCSTXN(-1))))+1*((LOG(PAKXMKT))-(LOG(PAKXMKT(-1))))+0.3*((LOG(PAKNEEXPGNFSXN/(PAKNYGDPFCSTXN)))-(LOG(PAKNEEXPGNFSXN(-1)/(PAKNYGDPFCSTXN(-1)))))+4.38465374402991-0.237469889780178*DURING_1999-0.230689812873392*DURING_1998+0.320967524344658*DURING_1991+0.250252413901575*DURING_1986) )) * (1-PAKNEEXPGNFSKN_D)+ PAKNEEXPGNFSKN_X*PAKNEEXPGNFSKN_D  $">
<polygon fill="#63b8ff" stroke="black" points="327.5,-59 96.5,-59 96.5,-23 327.5,-23 327.5,-59"/>
<text text-anchor="start" x="103" y="-36.8" font-family="Times New Roman,serif" font-size="14.00" fill="blue">PAKNEEXPGNFSKN:Exports (G&amp;S)</text>
</a>
</g>
</g>
<!-- PAKNEEXPGNFSKN&#45;&gt;PAKNYGDPMKTPKN -->
<g id="edge7" class="edge"><title>PAKNEEXPGNFSKN-&gt;PAKNYGDPMKTPKN</title>
<g id="a_edge7"><a xlink:href="bogus" xlink:title=" PAKNEEXPGNFSKN -&gt; PAKNYGDPMKTPKN Min. att. -10%  max: 0%">
<path fill="none" stroke="black" d="M327.734,-43.4599C359.929,-47.3671 394.244,-54.7046 424,-68 509.218,-106.077 586.002,-188.668 621.583,-230.935"/>
<polygon fill="black" stroke="black" points="619.057,-233.371 628.14,-238.825 624.44,-228.897 619.057,-233.371"/>
</a>
</g>
</g>
</g>
</svg>