<svg xmlns="http://www.w3.org/2000/svg" xmlns:xlink="http://www.w3.org/1999/xlink" width="432pt" height="258pt" viewBox="0.00 0.00 432.00 258.17">
<g id="graph0" class="graph" transform="scale(0.517365 0.517365) rotate(0) translate(4 495)">
<title>TD</title>
<polygon fill="white" stroke="none" points="-4,4 -4,-495 831,-495 831,4 -4,4"/>
<text text-anchor="middle" x="413.5" y="-7.8" font-family="Times New Roman,serif" font-size="14.00">PAKNYGDPMKTPKN</text>
<!-- PAKNEIMPGNFSKN -->
<g id="node1" class="node"><title>PAKNEIMPGNFSKN</title>
<g id="a_node1"><a xlink:title="Imports (G&amp;S)
FRML &lt;Z,EXO&gt; PAKNEIMPGNFSKN = (PAKNEIMPGNFSKN(-1)*EXP(-PAKNEIMPGNFSKN_A+ (-0.324143718656754*(LOG(PAKNEIMPGNFSKN(-1))-LOG(PAKNEGDETTOTKN(-1))+0.8*LOG(PAKNEIMPGNFSXN(-1)/PAKNYGDPFCSTXN(-1)))-0.583459272245018+1*((LOG(PAKNEGDETTOTKN))-(LOG(PAKNEGDETTOTKN(-1))))-0.0921874580409631*((LOG(PAKNEIMPGNFSXN/PAKNYGDPFCSTXN))-(LOG(PAKNEIMPGNFSXN(-1)/PAKNYGDPFCSTXN(-1))))-0.0361746331863615*DURING_2012) )) * (1-PAKNEIMPGNFSKN_D)+ PAKNEIMPGNFSKN_X*PAKNEIMPGNFSKN_D  $">
<polygon fill="#63b8ff" stroke="black" points="326.5,-491 97.5,-491 97.5,-455 326.5,-455 326.5,-491"/>
<text text-anchor="start" x="104" y="-468.8" font-family="Times New Roman,serif" font-size="14.00" fill="blue">PAKNEIMPGNFSKN:Imports (G&amp;S)</text>
</a>
</g>
</g>
<!-- PAKNYGDPMKTPKN -->
<g id="node8" class="node"><title>PAKNYGDPMKTPKN</title>
<g id="a_node8"><a xlink:title="GDP Expenditure side at market prices
FRML  &lt;&gt; PAKNYGDPMKTPKN = PAKNECONPRVTKN+PAKNECONGOVTKN+PAKNEGDIFTOTKN+PAKNEGDISTKBKN+PAKNEEXPGNFSKN-PAKNEIMPGNFSKN+PAKNYGDPDISCKN+PAKADAP*PAKDISPREPKN $">
<polygon fill="red" stroke="black" points="827,-275 460,-275 460,-239 827,-239 827,-275"/>
<text text-anchor="start" x="466.5" y="-252.8" font-family="Times New Roman,serif" font-size="14.00" fill="blue">PAKNYGDPMKTPKN:GDP Expenditure side at market prices</text>
</a>
</g>
</g>
<!-- PAKNEIMPGNFSKN&#45;&gt;PAKNYGDPMKTPKN -->
<g id="edge7" class="edge"><title>PAKNEIMPGNFSKN-&gt;PAKNYGDPMKTPKN</title>
<g id="a_edge7"><a xlink:href="bogus" xlink:title=" PAKNEIMPGNFSKN -&gt; PAKNYGDPMKTPKN Min. att. -46%  max: 456%">
<path fill="none" stroke="black" stroke-width="8" d="M326.64,-470.672C359.151,-466.798 393.907,-459.446 424,-446 509.218,-407.923 586.002,-325.332 621.583,-283.065"/>
<polygon fill="black" stroke="black" stroke-width="8" points="627.132,-287.339 628.14,-275.175 616.365,-278.392 627.132,-287.339"/>
</a>
</g>
</g>
<!-- PAKNEEXPGNFSKN -->
<g id="node2" class="node"><title>PAKNEEXPGNFSKN</title>
<g id="a_node2"><a xlink:title="Exports (G&amp;S)
FRML &lt;Z,EXO&gt; PAKNEEXPGNFSKN = (PAKNEEXPGNFSKN(-1)*EXP(-PAKNEEXPGNFSKN_A+ (-0.35*(LOG(PAKNEEXPGNFSKN(-1))-LOG(PAKXMKT(-1))-0.6*LOG(PAKNEEXPGNFSXN(-1)/(PAKNYGDPFCSTXN(-1))))+1*((LOG(PAKXMKT))-(LOG(PAKXMKT(-1))))+0.3*((LOG(PAKNEEXPGNFSXN/(PAKNYGDPFCSTXN)))-(LOG(PAKNEEXPGNFSXN(-1)/(PAKNYGDPFCSTXN(-1)))))+4.38465374402991-0.237469889780178*DURING_1999-0.230689812873392*DURING_1998+0.320967524344658*DURING_1991+0.250252413901575*DURING_1986) )) * (1-PAKNEEXPGNFSKN_D)+ PAKNEEXPGNFSKN_X*PAKNEEXPGNFSKN_D  $">
<polygon fill="#63b8ff" stroke="black" points="327.5,-437 96.5,-437 96.5,-401 327.5,-401 327.5,-437"/>
<text text-anchor="start" x="103" y="-414.8" font-family="Times New Roman,serif" font-size="14.00" fill="blue">PAKNEEXPGNFSKN:Exports (G&amp;S)</text>
</a>
</g>
</g>
<!-- PAKNEEXPGNFSKN&#45;&gt;PAKNYGDPMKTPKN -->
<g id="edge8" class="edge"><title>PAKNEEXPGNFSKN-&gt;PAKNYGDPMKTPKN</title>
<g id="a_edge8"><a xlink:href="bogus" xlink:title=" PAKNEEXPGNFSKN -&gt; PAKNYGDPMKTPKN Min. att. -10%  max: 0%">
<path fill="none" stroke="black" d="M327.585,-413.293C359.447,-409.317 393.626,-402.756 424,-392 497.381,-366.013 572.294,-312.686 612.522,-281.394"/>
<polygon fill="black" stroke="black" points="614.869,-284.001 620.567,-275.069 610.542,-278.498 614.869,-284.001"/>
</a>
</g>
</g>
<!-- PAKNEGDIFTOTKN -->
<g id="node3" class="node"><title>PAKNEGDIFTOTKN</title>
<g id="a_node3"><a xlink:title="Total Gross Capital Formation
FRML  &lt;&gt; PAKNEGDIFTOTKN = PAKNEGDIFGOVKN+PAKNEGDIFPRVKN $">
<polygon fill="#63b8ff" stroke="black" points="369,-383 55,-383 55,-347 369,-347 369,-383"/>
<text text-anchor="start" x="61" y="-360.8" font-family="Times New Roman,serif" font-size="14.00" fill="blue">PAKNEGDIFTOTKN:Total Gross Capital Formation</text>
</a>
</g>
</g>
<!-- PAKNEGDIFTOTKN&#45;&gt;PAKNYGDPMKTPKN -->
<g id="edge3" class="edge"><title>PAKNEGDIFTOTKN-&gt;PAKNYGDPMKTPKN</title>
<g id="a_edge3"><a xlink:href="bogus" xlink:title=" PAKNEGDIFTOTKN -&gt; PAKNYGDPMKTPKN Min. att. -36%  max: 366%">
<path fill="none" stroke="black" stroke-width="8" d="M369.017,-349.112C387.662,-346.015 406.338,-342.344 424,-338 483.659,-323.329 549.425,-297.561 593.06,-279.024"/>
<polygon fill="black" stroke="black" stroke-width="8" points="595.86,-285.44 602.296,-275.068 590.348,-272.571 595.86,-285.44"/>
</a>
</g>
</g>
<!-- PAKADAP -->
<g id="node4" class="node"><title>PAKADAP</title>
<g id="a_node4"><a xlink:title="Switch on adaptation mode (0 or 1)
Exogen">
<polygon fill="yellow" stroke="black" points="352,-329 72,-329 72,-293 352,-293 352,-329"/>
<text text-anchor="start" x="78" y="-306.8" font-family="Times New Roman,serif" font-size="14.00" fill="blue">PAKADAP:Switch on adaptation mode (0 or 1)</text>
</a>
</g>
</g>
<!-- PAKADAP&#45;&gt;PAKNYGDPMKTPKN -->
<g id="edge5" class="edge"><title>PAKADAP-&gt;PAKNYGDPMKTPKN</title>
<g id="a_edge5"><a xlink:href="bogus" xlink:title=" PAKADAP -&gt; PAKNYGDPMKTPKN Min. att. -0%  max: 0%">
<path fill="none" stroke="black" d="M352.15,-293.505C395.885,-288.006 444.416,-281.905 489.082,-276.289"/>
<polygon fill="black" stroke="black" points="489.662,-279.744 499.147,-275.023 488.788,-272.798 489.662,-279.744"/>
</a>
</g>
</g>
<!-- PAKDISPREPKN -->
<g id="node5" class="node"><title>PAKDISPREPKN</title>
<g id="a_node5"><a xlink:title="Investment in disaster risk preparation, constant prices
FRML  &lt;&gt; PAKDISPREPKN = PAKDISPREPCN/PAKNYGDPMKTPXN $">
<polygon fill="#63b8ff" stroke="black" points="424,-275 0,-275 0,-239 424,-239 424,-275"/>
<text text-anchor="start" x="6" y="-252.8" font-family="Times New Roman,serif" font-size="14.00" fill="blue">PAKDISPREPKN:Investment in disaster risk preparation, constant prices</text>
</a>
</g>
</g>
<!-- PAKDISPREPKN&#45;&gt;PAKNYGDPMKTPKN -->
<g id="edge4" class="edge"><title>PAKDISPREPKN-&gt;PAKNYGDPMKTPKN</title>
<g id="a_edge4"><a xlink:href="bogus" xlink:title=" PAKDISPREPKN -&gt; PAKNYGDPMKTPKN Min. att. -0%  max: 0%">
<path fill="none" stroke="black" d="M424.29,-257C432.728,-257 441.173,-257 449.573,-257"/>
<polygon fill="black" stroke="black" points="449.794,-260.5 459.794,-257 449.794,-253.5 449.794,-260.5"/>
</a>
</g>
</g>
<!-- PAKNECONPRVTKN -->
<g id="node6" class="node"><title>PAKNECONPRVTKN</title>
<g id="a_node6"><a xlink:title="Household Consumption
FRML &lt;Z,EXO&gt; PAKNECONPRVTKN = (PAKNECONPRVTKN(-1)*EXP(-PAKNECONPRVTKN_A+ (-0.2*(LOG(PAKNECONPRVTKN(-1))-LOG((PAKNYYWBTOTLCN(-1)*(1-PAKGGREVDRCTXN(-1)/100))/PAKNECONPRVTXN(-1)))+1*((LOG((PAKNYYWBTOTLCN*(1-PAKGGREVDRCTXN/100))/PAKNECONPRVTXN))-(LOG((PAKNYYWBTOTLCN(-1)*(1-PAKGGREVDRCTXN(-1)/100))/PAKNECONPRVTXN(-1))))+0.0303228629698929+0.0163839011059956*DURING_2010-0.3*(PAKFMLBLPOLYXN/100-((LOG(PAKNECONPRVTXN))-(LOG(PAKNECONPRVTXN(-1)))))) )) * (1-PAKNECONPRVTKN_D)+ PAKNECONPRVTKN_X*PAKNECONPRVTKN_D  $">
<polygon fill="#63b8ff" stroke="black" points="356,-221 68,-221 68,-185 356,-185 356,-221"/>
<text text-anchor="start" x="74" y="-198.8" font-family="Times New Roman,serif" font-size="14.00" fill="blue">PAKNECONPRVTKN:Household Consumption</text>
</a>
</g>
</g>
<!-- PAKNECONPRVTKN&#45;&gt;PAKNYGDPMKTPKN -->
<g id="edge2" class="edge"><title>PAKNECONPRVTKN-&gt;PAKNYGDPMKTPKN</title>
<g id="a_edge2"><a xlink:href="bogus" xlink:title=" PAKNECONPRVTKN -&gt; PAKNYGDPMKTPKN Min. att. -1557%  max: 290%">
<path fill="none" stroke="black" stroke-width="8" d="M356.017,-220.981C398.692,-226.347 445.637,-232.249 488.956,-237.695"/>
<polygon fill="black" stroke="black" stroke-width="8" points="488.214,-244.657 499.009,-238.959 489.961,-230.766 488.214,-244.657"/>
</a>
</g>
</g>
<!-- PAKNYGDPDISCKN -->
<g id="node7" class="node"><title>PAKNYGDPDISCKN</title>
<g id="a_node7"><a xlink:title="Statistical Discrepency (Expenditure Side)
Exogen">
<polygon fill="yellow" stroke="black" points="401,-167 23,-167 23,-131 401,-131 401,-167"/>
<text text-anchor="start" x="29" y="-144.8" font-family="Times New Roman,serif" font-size="14.00" fill="blue">PAKNYGDPDISCKN:Statistical Discrepency (Expenditure Side)</text>
</a>
</g>
</g>
<!-- PAKNYGDPDISCKN&#45;&gt;PAKNYGDPMKTPKN -->
<g id="edge1" class="edge"><title>PAKNYGDPDISCKN-&gt;PAKNYGDPMKTPKN</title>
<g id="a_edge1"><a xlink:href="bogus" xlink:title=" PAKNYGDPDISCKN -&gt; PAKNYGDPMKTPKN Min. att. -0%  max: 0%">
<path fill="none" stroke="black" d="M381.503,-167.05C395.954,-169.659 410.283,-172.627 424,-176 483.659,-190.671 549.425,-216.439 593.06,-234.976"/>
<polygon fill="black" stroke="black" points="591.726,-238.212 602.296,-238.932 594.482,-231.778 591.726,-238.212"/>
</a>
</g>
</g>
<!-- PAKNECONGOVTKN -->
<g id="node9" class="node"><title>PAKNECONGOVTKN</title>
<g id="a_node9"><a xlink:title="Government Consumption
FRML  &lt;&gt; PAKNECONGOVTKN = PAKNECONGOVTCN/PAKNECONGOVTXN $">
<polygon fill="#63b8ff" stroke="black" points="361.5,-113 62.5,-113 62.5,-77 361.5,-77 361.5,-113"/>
<text text-anchor="start" x="69" y="-90.8" font-family="Times New Roman,serif" font-size="14.00" fill="blue">PAKNECONGOVTKN:Government Consumption</text>
</a>
</g>
</g>
<!-- PAKNECONGOVTKN&#45;&gt;PAKNYGDPMKTPKN -->
<g id="edge9" class="edge"><title>PAKNECONGOVTKN-&gt;PAKNYGDPMKTPKN</title>
<g id="a_edge9"><a xlink:href="bogus" xlink:title=" PAKNECONGOVTKN -&gt; PAKNYGDPMKTPKN Min. att. -108%  max: 835%">
<path fill="none" stroke="black" stroke-width="8" d="M361.587,-105.893C382.878,-109.782 404.244,-115.004 424,-122 497.381,-147.987 572.294,-201.314 612.522,-232.606"/>
<polygon fill="black" stroke="black" stroke-width="8" points="608.379,-238.253 620.567,-238.931 617.032,-227.248 608.379,-238.253"/>
</a>
</g>
</g>
<!-- PAKNEGDISTKBKN -->
<g id="node10" class="node"><title>PAKNEGDISTKBKN</title>
<g id="a_node10"><a xlink:title="Change in Inventories
Exogen">
<polygon fill="yellow" stroke="black" points="343,-59 81,-59 81,-23 343,-23 343,-59"/>
<text text-anchor="start" x="87" y="-36.8" font-family="Times New Roman,serif" font-size="14.00" fill="blue">PAKNEGDISTKBKN:Change in Inventories</text>
</a>
</g>
</g>
<!-- PAKNEGDISTKBKN&#45;&gt;PAKNYGDPMKTPKN -->
<g id="edge6" class="edge"><title>PAKNEGDISTKBKN-&gt;PAKNYGDPMKTPKN</title>
<g id="a_edge6"><a xlink:href="bogus" xlink:title=" PAKNEGDISTKBKN -&gt; PAKNYGDPMKTPKN Min. att. -0%  max: 0%">
<path fill="none" stroke="black" d="M343.19,-45.5885C370.702,-49.8451 398.964,-56.8138 424,-68 509.218,-106.077 586.002,-188.668 621.583,-230.935"/>
<polygon fill="black" stroke="black" points="619.057,-233.371 628.14,-238.825 624.44,-228.897 619.057,-233.371"/>
</a>
</g>
</g>
</g>
</svg>