<svg xmlns="http://www.w3.org/2000/svg" xmlns:xlink="http://www.w3.org/1999/xlink" width="432pt" height="404pt" viewBox="0.00 0.00 432.00 403.65">
<g id="graph0" class="graph" transform="scale(0.524909 0.524909) rotate(0) translate(4 765)">
<title>TD</title>
<polygon fill="white" stroke="none" points="-4,4 -4,-765 819,-765 819,4 -4,4"/>
<text text-anchor="middle" x="407.5" y="-7.8" font-family="Times New Roman,serif" font-size="14.00">PAKNYGDPMKTPKN</text>
<!-- PAKGDPPCKN -->
<g id="node1" class="node"><title>PAKGDPPCKN</title>
<g id="a_node1"><a xlink:title="PAKGDPPCKN
FRML  &lt;&gt; PAKGDPPCKN = (PAKNYGDPMKTPKN/PAKSPPOPTOTL) $">
<polygon fill="#63b8ff" stroke="black" points="663.5,-761 554.5,-761 554.5,-725 663.5,-725 663.5,-761"/>
<text text-anchor="start" x="561" y="-738.8" font-family="Times New Roman,serif" font-size="14.00" fill="blue">PAKGDPPCKN:</text>
</a>
</g>
</g>
<!-- PAKNEADPKMAXKN_FITTED -->
<g id="node2" class="node"><title>PAKNEADPKMAXKN_FITTED</title>
<g id="a_node2"><a xlink:title="Fitted  value:PAKNEADPKMAXKN
FRML &lt;FIT&gt; PAKNEADPKMAXKN_FITTED = 0*DUMH+((1+0.01)/(0.01+PAKDEPR))*(PAKAVDAMAGE/100)*PAKNYGDPMKTPKN $">
<polygon fill="#63b8ff" stroke="black" points="815,-707 403,-707 403,-671 815,-671 815,-707"/>
<text text-anchor="start" x="409" y="-684.8" font-family="Times New Roman,serif" font-size="14.00" fill="blue">PAKNEADPKMAXKN_FITTED:Fitted  value:PAKNEADPKMAXKN</text>
</a>
</g>
</g>
<!-- PAKNYGDPMKTPKN -->
<g id="node3" class="node"><title>PAKNYGDPMKTPKN</title>
<g id="a_node3"><a xlink:title="GDP Expenditure side at market prices
FRML  &lt;&gt; PAKNYGDPMKTPKN = PAKNECONPRVTKN+PAKNECONGOVTKN+PAKNEGDIFTOTKN+PAKNEGDISTKBKN+PAKNEEXPGNFSKN-PAKNEIMPGNFSKN+PAKNYGDPDISCKN+PAKADAP*PAKDISPREPKN $">
<polygon fill="red" stroke="black" points="367,-410 0,-410 0,-374 367,-374 367,-410"/>
<text text-anchor="start" x="6.5" y="-387.8" font-family="Times New Roman,serif" font-size="14.00" fill="blue">PAKNYGDPMKTPKN:GDP Expenditure side at market prices</text>
</a>
</g>
</g>
<!-- PAKNYGDPMKTPKN&#45;&gt;PAKGDPPCKN -->
<g id="edge6" class="edge"><title>PAKNYGDPMKTPKN-&gt;PAKGDPPCKN</title>
<g id="a_edge6"><a xlink:href="bogus" xlink:title=" PAKNYGDPMKTPKN -&gt; PAKGDPPCKN Min. att. 100%  max: 100%">
<path fill="none" stroke="black" stroke-width="8" d="M190.664,-410.314C210.785,-466.969 280.408,-640.126 403,-716 445.106,-742.06 501.355,-747.875 544.282,-747.696"/>
<polygon fill="black" stroke="black" stroke-width="8" points="544.441,-754.695 554.335,-747.545 544.23,-740.696 544.441,-754.695"/>
</a>
</g>
</g>
<!-- PAKNYGDPMKTPKN&#45;&gt;PAKNEADPKMAXKN_FITTED -->
<g id="edge2" class="edge"><title>PAKNYGDPMKTPKN-&gt;PAKNEADPKMAXKN_FITTED</title>
<g id="a_edge2"><a xlink:href="bogus" xlink:title=" PAKNYGDPMKTPKN -&gt; PAKNEADPKMAXKN_FITTED Min. att. 100%  max: 100%">
<path fill="none" stroke="black" stroke-width="8" d="M192.947,-410.09C217.358,-460.095 293.314,-600.546 403,-662 406.068,-663.719 409.202,-665.346 412.391,-666.885"/>
<polygon fill="black" stroke="black" stroke-width="8" points="409.527,-673.273 421.52,-670.996 415.276,-660.507 409.527,-673.273"/>
</a>
</g>
</g>
<!-- PAKNYWRTFORMCN_FITTED -->
<g id="node4" class="node"><title>PAKNYWRTFORMCN_FITTED</title>
<g id="a_node4"><a xlink:title="Fitted  value:Formal wage
FRML &lt;FIT&gt; PAKNYWRTFORMCN_FITTED = PAKNYWRTFORMCN(-1)*EXP( (-0.120164450250183-0.3*(LOG(PAKNYWRTFORMCN(-1))-LOG(PAKNYGDPFCSTXN(-1))-LOG(PAKNYGDPPOTLKN(-1)/PAKLMEMPSTRLCN(-1)))+0.2*((LOG(PAKNYWRTFORMCN(-1)))-(LOG(PAKNYWRTFORMCN(-2))))+(1-0.2)*(0.5*((LOG(PAKNYGDPFCSTXN(-1)))-(LOG(PAKNYGDPFCSTXN(-2))))+0.5*(PAKINFLEXPT/100)+((LOG(PAKNYGDPMKTPKN/PAKLMEMPSTRLCN))-(LOG(PAKNYGDPMKTPKN(-1)/PAKLMEMPSTRLCN(-1)))))-0.2*(PAKLMUNRTOTLCN-PAKLMUNRSTRLCN)/100+0.15233813938029*DURING_2000-0.183411483907703*DURING_2001) ) $">
<polygon fill="#63b8ff" stroke="black" points="786.5,-653 431.5,-653 431.5,-617 786.5,-617 786.5,-653"/>
<text text-anchor="start" x="438" y="-630.8" font-family="Times New Roman,serif" font-size="14.00" fill="blue">PAKNYWRTFORMCN_FITTED:Fitted  value:Formal wage</text>
</a>
</g>
</g>
<!-- PAKNYGDPMKTPKN&#45;&gt;PAKNYWRTFORMCN_FITTED -->
<g id="edge4" class="edge"><title>PAKNYGDPMKTPKN-&gt;PAKNYWRTFORMCN_FITTED</title>
<g id="a_edge4"><a xlink:href="bogus" xlink:title=" PAKNYGDPMKTPKN -&gt; PAKNYWRTFORMCN_FITTED Min. att. -3148%  max: 101%">
<path fill="none" stroke="black" stroke-width="8" d="M196.429,-410.135C225.735,-452.995 305.988,-560.502 403,-608 409.065,-610.97 415.346,-613.649 421.778,-616.064"/>
<polygon fill="black" stroke="black" stroke-width="8" points="419.546,-622.699 431.303,-619.416 424.194,-609.493 419.546,-622.699"/>
</a>
</g>
</g>
<!-- PAKNYGDPGAP_ -->
<g id="node5" class="node"><title>PAKNYGDPGAP_</title>
<g id="a_node5"><a xlink:title="Output Gap (% of Potential GDP)
FRML  &lt;&gt; PAKNYGDPGAP_ = ((PAKNYGDPMKTPKN/PAKNYGDPPOTLKN-1)*100) $">
<polygon fill="#63b8ff" stroke="black" points="768.5,-599 449.5,-599 449.5,-563 768.5,-563 768.5,-599"/>
<text text-anchor="start" x="456" y="-576.8" font-family="Times New Roman,serif" font-size="14.00" fill="blue">PAKNYGDPGAP_:Output Gap (% of Potential GDP)</text>
</a>
</g>
</g>
<!-- PAKNYGDPMKTPKN&#45;&gt;PAKNYGDPGAP_ -->
<g id="edge11" class="edge"><title>PAKNYGDPMKTPKN-&gt;PAKNYGDPGAP_</title>
<g id="a_edge11"><a xlink:href="bogus" xlink:title=" PAKNYGDPMKTPKN -&gt; PAKNYGDPGAP_ Min. att. -78558%  max: 128214%">
<path fill="none" stroke="black" stroke-width="8" d="M202.065,-410.125C236.806,-444.711 318.294,-519.728 403,-554 414.734,-558.748 427.125,-562.7 439.769,-565.985"/>
<polygon fill="black" stroke="black" stroke-width="8" points="438.1,-572.783 449.481,-568.37 441.439,-559.187 438.1,-572.783"/>
</a>
</g>
</g>
<!-- PAKNYWRTINFMCN -->
<g id="node6" class="node"><title>PAKNYWRTINFMCN</title>
<g id="a_node6"><a xlink:title="Informal wage
FRML &lt;Z,EXO&gt; PAKNYWRTINFMCN = (PAKNYWRTINFMCN(-1)*EXP(-PAKNYWRTINFMCN_A+ (-0.122614247140616-0.3*(LOG(PAKNYWRTINFMCN(-1))-LOG(PAKNYGDPFCSTXN(-1))-LOG(PAKNYGDPPOTLKN(-1)/PAKLMEMPSTRLCN(-1)))+0.2*((LOG(PAKNYWRTINFMCN(-1)))-(LOG(PAKNYWRTINFMCN(-2))))+(1-0.2)*(0.5*((LOG(PAKNYGDPFCSTXN(-1)))-(LOG(PAKNYGDPFCSTXN(-2))))+0.5*(PAKINFLEXPT/100)+((LOG(PAKNYGDPMKTPKN/PAKLMEMPSTRLCN))-(LOG(PAKNYGDPMKTPKN(-1)/PAKLMEMPSTRLCN(-1)))))-0.2*(PAKLMUNRTOTLCN-PAKLMUNRSTRLCN)/100+0.15347529018182*DURING_2000-0.183372342445734*DURING_2001) )) * (1-PAKNYWRTINFMCN_D)+ PAKNYWRTINFMCN_X*PAKNYWRTINFMCN_D  $">
<polygon fill="#63b8ff" stroke="black" points="723.5,-545 494.5,-545 494.5,-509 723.5,-509 723.5,-545"/>
<text text-anchor="start" x="501" y="-522.8" font-family="Times New Roman,serif" font-size="14.00" fill="blue">PAKNYWRTINFMCN:Informal wage</text>
</a>
</g>
</g>
<!-- PAKNYGDPMKTPKN&#45;&gt;PAKNYWRTINFMCN -->
<g id="edge8" class="edge"><title>PAKNYGDPMKTPKN-&gt;PAKNYWRTINFMCN</title>
<g id="a_edge8"><a xlink:href="bogus" xlink:title=" PAKNYGDPMKTPKN -&gt; PAKNYWRTINFMCN Min. att. -3148%  max: 101%">
<path fill="none" stroke="black" stroke-width="8" d="M213.264,-410.077C253.884,-434.687 331.136,-478.162 403,-500 428.849,-507.855 457.216,-513.425 484.387,-517.374"/>
<polygon fill="black" stroke="black" stroke-width="8" points="483.468,-524.314 494.337,-518.757 485.396,-510.447 483.468,-524.314"/>
</a>
</g>
</g>
<!-- PAKNYGDPFCSTKN -->
<g id="node7" class="node"><title>PAKNYGDPFCSTKN</title>
<g id="a_node7"><a xlink:title="GDP at factor cost
FRML  &lt;&gt; PAKNYGDPFCSTKN = PAKNYGDPMKTPKN-PAKNYTAXNINDKN $">
<polygon fill="#63b8ff" stroke="black" points="735.5,-491 482.5,-491 482.5,-455 735.5,-455 735.5,-491"/>
<text text-anchor="start" x="489" y="-468.8" font-family="Times New Roman,serif" font-size="14.00" fill="blue">PAKNYGDPFCSTKN:GDP at factor cost</text>
</a>
</g>
</g>
<!-- PAKNYGDPMKTPKN&#45;&gt;PAKNYGDPFCSTKN -->
<g id="edge10" class="edge"><title>PAKNYGDPMKTPKN-&gt;PAKNYGDPFCSTKN</title>
<g id="a_edge10"><a xlink:href="bogus" xlink:title=" PAKNYGDPMKTPKN -&gt; PAKNYGDPFCSTKN Min. att. 100%  max: 100%">
<path fill="none" stroke="black" stroke-width="8" d="M249.577,-410.1C292.807,-421.624 350.972,-436.176 403,-446 425.377,-450.225 449.252,-454.014 472.509,-457.324"/>
<polygon fill="black" stroke="black" stroke-width="8" points="471.558,-464.259 482.432,-458.713 473.499,-450.394 471.558,-464.259"/>
</a>
</g>
</g>
<!-- PAKFMLBLMTWOKN -->
<g id="node8" class="node"><title>PAKFMLBLMTWOKN</title>
<g id="a_node8"><a xlink:title="Real money supply
FRML &lt;Z,EXO&gt; PAKFMLBLMTWOKN = (PAKFMLBLMTWOKN(-1)*EXP(-PAKFMLBLMTWOKN_A+ (-0.2*(LOG(PAKFMLBLMTWOKN(-1))-LOG(PAKNYGDPMKTPKN(-1))+0.1*PAKFMLBLPOLYXN(-1)/100-LOG(PAKVELOCITY(-1)))-0.32628131688075+0.7*((LOG(PAKNYGDPMKTPKN))-(LOG(PAKNYGDPMKTPKN(-1))))-1*((PAKFMLBLPOLYXN/100)-(PAKFMLBLPOLYXN(-1)/100))-((LOG(PAKVELOCITY))-(LOG(PAKVELOCITY(-1))))) )) * (1-PAKFMLBLMTWOKN_D)+ PAKFMLBLMTWOKN_X*PAKFMLBLMTWOKN_D  $">
<polygon fill="#63b8ff" stroke="black" points="739.5,-437 478.5,-437 478.5,-401 739.5,-401 739.5,-437"/>
<text text-anchor="start" x="485" y="-414.8" font-family="Times New Roman,serif" font-size="14.00" fill="blue">PAKFMLBLMTWOKN:Real money supply</text>
</a>
</g>
</g>
<!-- PAKNYGDPMKTPKN&#45;&gt;PAKFMLBLMTWOKN -->
<g id="edge12" class="edge"><title>PAKNYGDPMKTPKN-&gt;PAKFMLBLMTWOKN</title>
<g id="a_edge12"><a xlink:href="bogus" xlink:title=" PAKNYGDPMKTPKN -&gt; PAKFMLBLMTWOKN Min. att. -360%  max: 149%">
<path fill="none" stroke="black" stroke-width="8" d="M367.175,-403.646C400.91,-405.797 435.648,-408.012 467.877,-410.067"/>
<polygon fill="black" stroke="black" stroke-width="8" points="467.823,-417.077 478.248,-410.728 468.714,-403.106 467.823,-417.077"/>
</a>
</g>
</g>
<!-- PAKNYGDPMKTPXN -->
<g id="node9" class="node"><title>PAKNYGDPMKTPXN</title>
<g id="a_node9"><a xlink:title="GDP deflator
FRML  &lt;&gt; PAKNYGDPMKTPXN = PAKNYGDPMKTPCN/PAKNYGDPMKTPKN $">
<polygon fill="#63b8ff" stroke="black" points="721.5,-383 496.5,-383 496.5,-347 721.5,-347 721.5,-383"/>
<text text-anchor="start" x="503" y="-360.8" font-family="Times New Roman,serif" font-size="14.00" fill="blue">PAKNYGDPMKTPXN:GDP deflator</text>
</a>
</g>
</g>
<!-- PAKNYGDPMKTPKN&#45;&gt;PAKNYGDPMKTPXN -->
<g id="edge14" class="edge"><title>PAKNYGDPMKTPKN-&gt;PAKNYGDPMKTPXN</title>
<g id="a_edge14"><a xlink:href="bogus" xlink:title=" PAKNYGDPMKTPKN -&gt; PAKNYGDPMKTPXN Min. att. -81%  max: 46%">
<path fill="none" stroke="black" stroke-width="8" d="M367.175,-380.354C407.384,-377.79 449.02,-375.136 486.132,-372.77"/>
<polygon fill="black" stroke="black" stroke-width="8" points="486.94,-379.732 496.475,-372.11 486.049,-365.761 486.94,-379.732"/>
</a>
</g>
</g>
<!-- PAKNEADPKMAXKN -->
<g id="node10" class="node"><title>PAKNEADPKMAXKN</title>
<g id="a_node10"><a xlink:title="PAKNEADPKMAXKN
FRML &lt;Z,EXO&gt; PAKNEADPKMAXKN = (0*DUMH+((1+0.01)/(0.01+PAKDEPR))*(PAKAVDAMAGE/100)*PAKNYGDPMKTPKN + PAKNEADPKMAXKN_A)* (1-PAKNEADPKMAXKN_D)+ PAKNEADPKMAXKN_X*PAKNEADPKMAXKN_D  $">
<polygon fill="#63b8ff" stroke="black" points="684,-329 534,-329 534,-293 684,-293 684,-329"/>
<text text-anchor="start" x="540" y="-306.8" font-family="Times New Roman,serif" font-size="14.00" fill="blue">PAKNEADPKMAXKN:</text>
</a>
</g>
</g>
<!-- PAKNYGDPMKTPKN&#45;&gt;PAKNEADPKMAXKN -->
<g id="edge7" class="edge"><title>PAKNYGDPMKTPKN-&gt;PAKNEADPKMAXKN</title>
<g id="a_edge7"><a xlink:href="bogus" xlink:title=" PAKNYGDPMKTPKN -&gt; PAKNEADPKMAXKN Min. att. 100%  max: 100%">
<path fill="none" stroke="black" stroke-width="8" d="M249.577,-373.9C292.807,-362.376 350.972,-347.824 403,-338 442.336,-330.573 486.302,-324.493 523.399,-319.996"/>
<polygon fill="black" stroke="black" stroke-width="8" points="524.571,-326.906 533.671,-318.77 522.912,-313.004 524.571,-326.906"/>
</a>
</g>
</g>
<!-- PAKNYGDPMKTPKD -->
<g id="node11" class="node"><title>PAKNYGDPMKTPKD</title>
<g id="a_node11"><a xlink:title="PAKNYGDPMKTPKD
FRML  &lt;&gt; PAKNYGDPMKTPKD = (PAKNYGDPMKTPKN*((PAKNYGDPMKTPCN_VALUE_2010)/((PAKNYGDPMKTPKN_VALUE_2010))))/(PAKPANUSATLS_VALUE_2010) $">
<polygon fill="#63b8ff" stroke="black" points="684,-275 534,-275 534,-239 684,-239 684,-275"/>
<text text-anchor="start" x="540" y="-252.8" font-family="Times New Roman,serif" font-size="14.00" fill="blue">PAKNYGDPMKTPKD:</text>
</a>
</g>
</g>
<!-- PAKNYGDPMKTPKN&#45;&gt;PAKNYGDPMKTPKD -->
<g id="edge9" class="edge"><title>PAKNYGDPMKTPKN-&gt;PAKNYGDPMKTPKD</title>
<g id="a_edge9"><a xlink:href="bogus" xlink:title=" PAKNYGDPMKTPKN -&gt; PAKNYGDPMKTPKD Min. att. 100%  max: 100%">
<path fill="none" stroke="black" stroke-width="8" d="M213.264,-373.923C253.884,-349.313 331.136,-305.838 403,-284 441.616,-272.266 485.853,-265.63 523.326,-261.879"/>
<polygon fill="black" stroke="black" stroke-width="8" points="524.411,-268.808 533.706,-260.895 523.09,-254.87 524.411,-268.808"/>
</a>
</g>
</g>
<!-- PAKNYWRTINFMCN_FITTED -->
<g id="node12" class="node"><title>PAKNYWRTINFMCN_FITTED</title>
<g id="a_node12"><a xlink:title="Fitted  value:Informal wage
FRML &lt;FIT&gt; PAKNYWRTINFMCN_FITTED = PAKNYWRTINFMCN(-1)*EXP( (-0.122614247140616-0.3*(LOG(PAKNYWRTINFMCN(-1))-LOG(PAKNYGDPFCSTXN(-1))-LOG(PAKNYGDPPOTLKN(-1)/PAKLMEMPSTRLCN(-1)))+0.2*((LOG(PAKNYWRTINFMCN(-1)))-(LOG(PAKNYWRTINFMCN(-2))))+(1-0.2)*(0.5*((LOG(PAKNYGDPFCSTXN(-1)))-(LOG(PAKNYGDPFCSTXN(-2))))+0.5*(PAKINFLEXPT/100)+((LOG(PAKNYGDPMKTPKN/PAKLMEMPSTRLCN))-(LOG(PAKNYGDPMKTPKN(-1)/PAKLMEMPSTRLCN(-1)))))-0.2*(PAKLMUNRTOTLCN-PAKLMUNRSTRLCN)/100+0.15347529018182*DURING_2000-0.183372342445734*DURING_2001) ) $">
<polygon fill="#63b8ff" stroke="black" points="787,-221 431,-221 431,-185 787,-185 787,-221"/>
<text text-anchor="start" x="437" y="-198.8" font-family="Times New Roman,serif" font-size="14.00" fill="blue">PAKNYWRTINFMCN_FITTED:Fitted  value:Informal wage</text>
</a>
</g>
</g>
<!-- PAKNYGDPMKTPKN&#45;&gt;PAKNYWRTINFMCN_FITTED -->
<g id="edge3" class="edge"><title>PAKNYGDPMKTPKN-&gt;PAKNYWRTINFMCN_FITTED</title>
<g id="a_edge3"><a xlink:href="bogus" xlink:title=" PAKNYGDPMKTPKN -&gt; PAKNYWRTINFMCN_FITTED Min. att. -3148%  max: 101%">
<path fill="none" stroke="black" stroke-width="8" d="M202.065,-373.875C236.806,-339.289 318.294,-264.272 403,-230 408.896,-227.614 414.958,-225.43 421.135,-223.429"/>
<polygon fill="black" stroke="black" stroke-width="8" points="423.412,-230.053 430.929,-220.436 419.319,-216.665 423.412,-230.053"/>
</a>
</g>
</g>
<!-- PAKNYWRTFORMCN -->
<g id="node13" class="node"><title>PAKNYWRTFORMCN</title>
<g id="a_node13"><a xlink:title="Formal wage
FRML &lt;Z,EXO&gt; PAKNYWRTFORMCN = (PAKNYWRTFORMCN(-1)*EXP(-PAKNYWRTFORMCN_A+ (-0.120164450250183-0.3*(LOG(PAKNYWRTFORMCN(-1))-LOG(PAKNYGDPFCSTXN(-1))-LOG(PAKNYGDPPOTLKN(-1)/PAKLMEMPSTRLCN(-1)))+0.2*((LOG(PAKNYWRTFORMCN(-1)))-(LOG(PAKNYWRTFORMCN(-2))))+(1-0.2)*(0.5*((LOG(PAKNYGDPFCSTXN(-1)))-(LOG(PAKNYGDPFCSTXN(-2))))+0.5*(PAKINFLEXPT/100)+((LOG(PAKNYGDPMKTPKN/PAKLMEMPSTRLCN))-(LOG(PAKNYGDPMKTPKN(-1)/PAKLMEMPSTRLCN(-1)))))-0.2*(PAKLMUNRTOTLCN-PAKLMUNRSTRLCN)/100+0.15233813938029*DURING_2000-0.183411483907703*DURING_2001) )) * (1-PAKNYWRTFORMCN_D)+ PAKNYWRTFORMCN_X*PAKNYWRTFORMCN_D  $">
<polygon fill="#63b8ff" stroke="black" points="722.5,-167 495.5,-167 495.5,-131 722.5,-131 722.5,-167"/>
<text text-anchor="start" x="502" y="-144.8" font-family="Times New Roman,serif" font-size="14.00" fill="blue">PAKNYWRTFORMCN:Formal wage</text>
</a>
</g>
</g>
<!-- PAKNYGDPMKTPKN&#45;&gt;PAKNYWRTFORMCN -->
<g id="edge1" class="edge"><title>PAKNYGDPMKTPKN-&gt;PAKNYWRTFORMCN</title>
<g id="a_edge1"><a xlink:href="bogus" xlink:title=" PAKNYGDPMKTPKN -&gt; PAKNYWRTFORMCN Min. att. -3148%  max: 101%">
<path fill="none" stroke="black" stroke-width="8" d="M196.429,-373.865C225.735,-331.005 305.988,-223.498 403,-176 428.197,-163.663 457.115,-156.343 485.134,-152.125"/>
<polygon fill="black" stroke="black" stroke-width="8" points="486.458,-159.009 495.407,-150.708 484.545,-145.14 486.458,-159.009"/>
</a>
</g>
</g>
<!-- PAKHURDAMKN -->
<g id="node14" class="node"><title>PAKHURDAMKN</title>
<g id="a_node14"><a xlink:title="Hurricane damage, constant prices
FRML  &lt;&gt; PAKHURDAMKN = (PAKNEHURAVERKN_/100)*PAKNYGDPMKTPKN(-1)*(1-PAKNEHURPTVTKN) $">
<polygon fill="#63b8ff" stroke="black" points="767,-113 451,-113 451,-77 767,-77 767,-113"/>
<text text-anchor="start" x="457" y="-90.8" font-family="Times New Roman,serif" font-size="14.00" fill="blue">PAKHURDAMKN:Hurricane damage, constant prices</text>
</a>
</g>
</g>
<!-- PAKNYGDPMKTPKN&#45;&gt;PAKHURDAMKN -->
<g id="edge5" class="edge"><title>PAKNYGDPMKTPKN-&gt;PAKHURDAMKN</title>
<g id="a_edge5"><a xlink:href="bogus" xlink:title=" PAKNYGDPMKTPKN -&gt; PAKHURDAMKN Min. att. 0%  max: 0%">
<path fill="none" stroke="black" d="M192.947,-373.91C217.358,-323.905 293.314,-183.454 403,-122 414.907,-115.329 427.8,-110.043 441.122,-105.88"/>
<polygon fill="black" stroke="black" points="442.264,-109.193 450.89,-103.042 440.311,-102.471 442.264,-109.193"/>
</a>
</g>
</g>
<!-- PAKFMLBLMTWOKN_FITTED -->
<g id="node15" class="node"><title>PAKFMLBLMTWOKN_FITTED</title>
<g id="a_node15"><a xlink:title="Fitted  value:Real money supply
FRML &lt;FIT&gt; PAKFMLBLMTWOKN_FITTED = PAKFMLBLMTWOKN(-1)*EXP( (-0.2*(LOG(PAKFMLBLMTWOKN(-1))-LOG(PAKNYGDPMKTPKN(-1))+0.1*PAKFMLBLPOLYXN(-1)/100-LOG(PAKVELOCITY(-1)))-0.32628131688075+0.7*((LOG(PAKNYGDPMKTPKN))-(LOG(PAKNYGDPMKTPKN(-1))))-1*((PAKFMLBLPOLYXN/100)-(PAKFMLBLPOLYXN(-1)/100))-((LOG(PAKVELOCITY))-(LOG(PAKVELOCITY(-1))))) ) $">
<polygon fill="#63b8ff" stroke="black" points="803,-59 415,-59 415,-23 803,-23 803,-59"/>
<text text-anchor="start" x="421" y="-36.8" font-family="Times New Roman,serif" font-size="14.00" fill="blue">PAKFMLBLMTWOKN_FITTED:Fitted  value:Real money supply</text>
</a>
</g>
</g>
<!-- PAKNYGDPMKTPKN&#45;&gt;PAKFMLBLMTWOKN_FITTED -->
<g id="edge13" class="edge"><title>PAKNYGDPMKTPKN-&gt;PAKFMLBLMTWOKN_FITTED</title>
<g id="a_edge13"><a xlink:href="bogus" xlink:title=" PAKNYGDPMKTPKN -&gt; PAKFMLBLMTWOKN_FITTED Min. att. -360%  max: 149%">
<path fill="none" stroke="black" stroke-width="8" d="M190.664,-373.686C210.785,-317.031 280.408,-143.874 403,-68 405.504,-66.4503 408.058,-64.9721 410.656,-63.5626"/>
<polygon fill="black" stroke="black" stroke-width="8" points="413.871,-69.781 419.652,-59.0301 407.572,-57.2783 413.871,-69.781"/>
</a>
</g>
</g>
</g>
</svg>