<svg xmlns="http://www.w3.org/2000/svg" xmlns:xlink="http://www.w3.org/1999/xlink" width="432pt" height="199pt" viewBox="0.00 0.00 432.00 199.22">
<g id="graph0" class="graph" transform="scale(0.167767 0.167767) rotate(0) translate(4 1183.48)">
<title>TD</title>
<polygon fill="white" stroke="transparent" points="-4,4 -4,-1183.48 2571,-1183.48 2571,4 -4,4"/>
<text text-anchor="middle" x="1283.5" y="-7.8" font-family="Times New Roman,serif" font-size="14.00">PAKNECONPRVTKN</text>
<!-- PAKSMAGRFSNGKN -->
<g id="node1" class="node">
<title>PAKSMAGRFSNGKN</title>
<g id="a_node1"><a xlink:title="PAKSMAGRFSNGKN
FRML  &lt;&gt; PAKSMAGRFSNGKN = ((1+1.92407325889309)*(0.00246195499563977*PAKNECONPRVTKN+0*PAKNECONGOVTKN+0*PAKNEGDIFTOTKN+0.00130433854799597*PAKNEEXPGNFSKN+0.00497657560072267*PAKNEGDISTKBKN)-1.14989260682794E-05*PAKNEIMPGNFSKN-2.46467171367829E-07*PAKNYTAXNINDKN-26993)/(1+0.506095544048804) $">
<polygon fill="#63b8ff" stroke="black" points="1519,-785.52 1374,-785.52 1374,-749.52 1519,-749.52 1519,-785.52"/>
<text text-anchor="start" x="1380.5" y="-763.32" font-family="Times New Roman,serif" font-size="14.00" fill="blue">PAKSMAGRFSNGKN:</text>
</a>
</g>
</g>
<!-- PAKNYGDPGAP_ -->
<g id="node2" class="node">
<title>PAKNYGDPGAP_</title>
<g id="a_node2"><a xlink:title="Output Gap (% of Potential GDP)
FRML  &lt;&gt; PAKNYGDPGAP_ = ((PAKNYGDPMKTPKN/PAKNYGDPPOTLKN-1)*100) $">
<polygon fill="#63b8ff" stroke="black" points="1993,-426.52 1684,-426.52 1684,-390.52 1993,-390.52 1993,-426.52"/>
<text text-anchor="start" x="1690.5" y="-404.32" font-family="Times New Roman,serif" font-size="14.00" fill="blue">PAKNYGDPGAP_:Output Gap (% of Potential GDP)</text>
</a>
</g>
</g>
<!-- PAKFMLBLPOLYXN -->
<g id="node23" class="node">
<title>PAKFMLBLPOLYXN</title>
<g id="a_node23"><a xlink:title="Policy Rate
FRML &lt;Z,EXO&gt; PAKFMLBLPOLYXN = (-100*PAKFMLBLPOLYXN_A+100* (0.905129162122953*PAKFMLBLPOLYXN(-1)/100+(1-0.905129162122953)*(PAKMPPOLNATRXN/100+1.2*(((LOG(PAKNECONPRVTXN))-(LOG(PAKNECONPRVTXN(-1))))-PAKINFLEXPT/100)+0.5*PAKNYGDPGAP_/100)) ) * (1-PAKFMLBLPOLYXN_D)+ PAKFMLBLPOLYXN_X*PAKFMLBLPOLYXN_D  $">
<polygon fill="#63b8ff" stroke="black" points="2240,-1101.52 2035,-1101.52 2035,-1065.52 2240,-1065.52 2240,-1101.52"/>
<text text-anchor="start" x="2041.5" y="-1079.32" font-family="Times New Roman,serif" font-size="14.00" fill="blue">PAKFMLBLPOLYXN:Policy Rate</text>
</a>
</g>
</g>
<!-- PAKNYGDPGAP_&#45;&gt;PAKFMLBLPOLYXN -->
<g id="edge28" class="edge">
<title>PAKNYGDPGAP_-&gt;PAKFMLBLPOLYXN</title>
<g id="a_edge28"><a xlink:href="bogus" xlink:title=" PAKNYGDPGAP_ -&gt; PAKFMLBLPOLYXN Min. att. -15%  max: 83%">
<path fill="none" stroke="black" stroke-width="8" d="M1847.44,-426.58C1888.32,-519.48 2074.96,-943.66 2124.43,-1056.1"/>
<polygon fill="black" stroke="black" stroke-width="8" points="2118.1,-1059.08 2128.53,-1065.41 2130.91,-1053.44 2118.1,-1059.08"/>
</a>
</g>
</g>
<!-- PAKLMEMPTOTLCN -->
<g id="node27" class="node">
<title>PAKLMEMPTOTLCN</title>
<g id="a_node27"><a xlink:title="Employment
FRML &lt;Z,EXO&gt; PAKLMEMPTOTLCN = (PAKLMEMPTOTLCN(-1)*EXP(-PAKLMEMPTOTLCN_A+ (-0.345624644563667*(LOG(PAKLMEMPTOTLCN(-1))-LOG(PAKLMEMPSTRLCN(-1)))-0.1*(((LOG(PAKNYWRTTOTLCN/PAKNYGDPFCSTXN))-(LOG(PAKNYWRTTOTLCN(-1)/PAKNYGDPFCSTXN(-1))))-((LOG(PAKNYGDPPOTLKN/PAKLMEMPSTRLCN))-(LOG(PAKNYGDPPOTLKN(-1)/PAKLMEMPSTRLCN(-1)))))-0.0011790007645121+((LOG(PAKLMEMPSTRLCN))-(LOG(PAKLMEMPSTRLCN(-1))))+0.175412878170024*PAKNYGDPGAP_/100+0.0369790799942338*DURING_2010) )) * (1-PAKLMEMPTOTLCN_D)+ PAKLMEMPTOTLCN_X*PAKLMEMPTOTLCN_D  $">
<polygon fill="#63b8ff" stroke="black" points="2246,-237.52 2029,-237.52 2029,-201.52 2246,-201.52 2246,-237.52"/>
<text text-anchor="start" x="2035.5" y="-215.32" font-family="Times New Roman,serif" font-size="14.00" fill="blue">PAKLMEMPTOTLCN:Employment</text>
</a>
</g>
</g>
<!-- PAKNYGDPGAP_&#45;&gt;PAKLMEMPTOTLCN -->
<g id="edge25" class="edge">
<title>PAKNYGDPGAP_-&gt;PAKLMEMPTOTLCN</title>
<g id="a_edge25"><a xlink:href="bogus" xlink:title=" PAKNYGDPGAP_ -&gt; PAKLMEMPTOTLCN Min. att. -362%  max: 147%">
<path fill="none" stroke="black" stroke-width="8" d="M1867.98,-390.4C1921.97,-356.04 2039.21,-281.43 2099.32,-243.18"/>
<polygon fill="black" stroke="black" stroke-width="8" points="2103.43,-248.86 2108.11,-237.59 2095.91,-237.05 2103.43,-248.86"/>
</a>
</g>
</g>
<!-- PAKSMAGRCRPSKN -->
<g id="node3" class="node">
<title>PAKSMAGRCRPSKN</title>
<g id="a_node3"><a xlink:title="PAKSMAGRCRPSKN
FRML  &lt;&gt; PAKSMAGRCRPSKN = ((1+2.09928590574241)*(0.144287620838506*PAKNECONPRVTKN+0*PAKNECONGOVTKN+0*PAKNEGDIFTOTKN+0.0572678299039023*PAKNEEXPGNFSKN+0.267381669083985*PAKNEGDISTKBKN)-0.0736247088197363*PAKNEIMPGNFSKN-0.0407034395686347*PAKNYTAXNINDKN-906311)/(1+0.396041694659877) $">
<polygon fill="#63b8ff" stroke="black" points="1518.5,-731.52 1374.5,-731.52 1374.5,-695.52 1518.5,-695.52 1518.5,-731.52"/>
<text text-anchor="start" x="1380.5" y="-709.32" font-family="Times New Roman,serif" font-size="14.00" fill="blue">PAKSMAGRCRPSKN:</text>
</a>
</g>
</g>
<!-- PAKNECONOTHRKN -->
<g id="node4" class="node">
<title>PAKNECONOTHRKN</title>
<g id="a_node4"><a xlink:title="Other Consumption
FRML  &lt;&gt; PAKNECONOTHRKN = PAKNECONOTHRSH**(PAKCESENGYCON)*(PAKNECONPRVTKN*(PAKNECONPRVTXN/PAKNECONOTHRXN)**(PAKCESENGYCON)) $">
<polygon fill="#63b8ff" stroke="black" points="1573,-677.52 1320,-677.52 1320,-641.52 1573,-641.52 1573,-677.52"/>
<text text-anchor="start" x="1326.5" y="-655.32" font-family="Times New Roman,serif" font-size="14.00" fill="blue">PAKNECONOTHRKN:Other Consumption</text>
</a>
</g>
</g>
<!-- PAKSMSRVTRNSKN -->
<g id="node5" class="node">
<title>PAKSMSRVTRNSKN</title>
<g id="a_node5"><a xlink:title="PAKSMSRVTRNSKN
FRML  &lt;&gt; PAKSMSRVTRNSKN = ((1+0.301074862860981)*(0.204687752761289*PAKNECONPRVTKN+0*PAKNECONGOVTKN+0*PAKNEGDIFTOTKN+0.0551862611209703*PAKNEEXPGNFSKN+0*PAKNEGDISTKBKN)--0.0392641863572605*PAKNEIMPGNFSKN-0.0174996684619017*PAKNYTAXNINDKN-0)/(1+1.11680986862739) $">
<polygon fill="#63b8ff" stroke="black" points="1517.5,-623.52 1375.5,-623.52 1375.5,-587.52 1517.5,-587.52 1517.5,-623.52"/>
<text text-anchor="start" x="1381.5" y="-601.32" font-family="Times New Roman,serif" font-size="14.00" fill="blue">PAKSMSRVTRNSKN:</text>
</a>
</g>
</g>
<!-- PAKNYGDPFCSTXN -->
<g id="node6" class="node">
<title>PAKNYGDPFCSTXN</title>
<g id="a_node6"><a xlink:title="GDP at factor cost
FRML &lt;Z,EXO&gt; PAKNYGDPFCSTXN = (PAKNYGDPFCSTXN(-1)*EXP(-PAKNYGDPFCSTXN_A+ (0.6*((LOG(PAKNYGDPFCSTXN(-1)))-(LOG(PAKNYGDPFCSTXN(-2))))+(1-0.6)*(0.7*PAKINFLEXPT/100+(1-0.7)*((LOG(PAKPSTAR(-1)))-(LOG(PAKPSTAR(-2)))))+0.25*PAKNYGDPGAP_/100+0.262461811660072*DURING_2000-0.205776950553378*DURING_2001) )) * (1-PAKNYGDPFCSTXN_D)+ PAKNYGDPFCSTXN_X*PAKNYGDPFCSTXN_D  $">
<polygon fill="#63b8ff" stroke="black" points="1959.5,-191.52 1717.5,-191.52 1717.5,-155.52 1959.5,-155.52 1959.5,-191.52"/>
<text text-anchor="start" x="1723.5" y="-169.32" font-family="Times New Roman,serif" font-size="14.00" fill="blue">PAKNYGDPFCSTXN:GDP at factor cost</text>
</a>
</g>
</g>
<!-- PAKNYGDPFCSTXN&#45;&gt;PAKLMEMPTOTLCN -->
<g id="edge27" class="edge">
<title>PAKNYGDPFCSTXN-&gt;PAKLMEMPTOTLCN</title>
<g id="a_edge27"><a xlink:href="bogus" xlink:title=" PAKNYGDPFCSTXN -&gt; PAKLMEMPTOTLCN Min. att. -128%  max: 59%">
<path fill="none" stroke="black" stroke-width="8" d="M1956.03,-191.57C1976.56,-194.75 1997.95,-198.06 2018.51,-201.25"/>
<polygon fill="black" stroke="black" stroke-width="8" points="2017.59,-208.19 2028.54,-202.8 2019.73,-194.35 2017.59,-208.19"/>
</a>
</g>
</g>
<!-- PAKNECONPRVTCN -->
<g id="node7" class="node">
<title>PAKNECONPRVTCN</title>
<g id="a_node7"><a xlink:title="Household demand
FRML  &lt;&gt; PAKNECONPRVTCN = PAKNECONPRVTKN*PAKNECONPRVTXN $">
<polygon fill="#63b8ff" stroke="black" points="1570,-569.52 1323,-569.52 1323,-533.52 1570,-533.52 1570,-569.52"/>
<text text-anchor="start" x="1329.5" y="-547.32" font-family="Times New Roman,serif" font-size="14.00" fill="blue">PAKNECONPRVTCN:Household demand</text>
</a>
</g>
</g>
<!-- PAKSMSRVHSNGKN -->
<g id="node8" class="node">
<title>PAKSMSRVHSNGKN</title>
<g id="a_node8"><a xlink:title="PAKSMSRVHSNGKN
FRML  &lt;&gt; PAKSMSRVHSNGKN = ((1+0.782809577554843)*(0.0647364660896117*PAKNECONPRVTKN+0*PAKNECONGOVTKN+0.00605333595533851*PAKNEGDIFTOTKN+0.03048358523237*PAKNEEXPGNFSKN+0*PAKNEGDISTKBKN)-0.0244768173208691*PAKNEIMPGNFSKN-0.0684093628903126*PAKNYTAXNINDKN-0)/(1+0.150771193398883) $">
<polygon fill="#63b8ff" stroke="black" points="1519,-461.52 1374,-461.52 1374,-425.52 1519,-425.52 1519,-461.52"/>
<text text-anchor="start" x="1380.5" y="-439.32" font-family="Times New Roman,serif" font-size="14.00" fill="blue">PAKSMSRVHSNGKN:</text>
</a>
</g>
</g>
<!-- PAKSMINDMNGSKN -->
<g id="node9" class="node">
<title>PAKSMINDMNGSKN</title>
<g id="a_node9"><a xlink:title="PAKSMINDMNGSKN
FRML  &lt;&gt; PAKSMINDMNGSKN = ((1+6.96158341862144)*(0.0132800565666619*PAKNECONPRVTKN+0*PAKNECONGOVTKN+0*PAKNEGDIFTOTKN+0.00704674623894759*PAKNEEXPGNFSKN+0.024122890632682*PAKNEGDISTKBKN)-0.134221966110302*PAKNEIMPGNFSKN-0.500981557895139*PAKNYTAXNINDKN-123652.869264758)/(1+0.200800622280983) $">
<polygon fill="#63b8ff" stroke="black" points="1519.5,-353.52 1373.5,-353.52 1373.5,-317.52 1519.5,-317.52 1519.5,-353.52"/>
<text text-anchor="start" x="1379.5" y="-331.32" font-family="Times New Roman,serif" font-size="14.00" fill="blue">PAKSMINDMNGSKN:</text>
</a>
</g>
</g>
<!-- PAKSMSRVFINSKN -->
<g id="node10" class="node">
<title>PAKSMSRVFINSKN</title>
<g id="a_node10"><a xlink:title="PAKSMSRVFINSKN
FRML  &lt;&gt; PAKSMSRVFINSKN = ((1+1.04148314760779)*(0.0520379651885469*PAKNECONPRVTKN+0*PAKNECONGOVTKN+0*PAKNEGDIFTOTKN+0.00879145012359898*PAKNEEXPGNFSKN+0*PAKNEGDISTKBKN)-0.00594416979264236*PAKNEIMPGNFSKN-0.000103762679145856*PAKNYTAXNINDKN-0)/(1+0.24687745523084) $">
<polygon fill="#63b8ff" stroke="black" points="1515,-299.52 1378,-299.52 1378,-263.52 1515,-263.52 1515,-299.52"/>
<text text-anchor="start" x="1384.5" y="-277.32" font-family="Times New Roman,serif" font-size="14.00" fill="blue">PAKSMSRVFINSKN:</text>
</a>
</g>
</g>
<!-- PAKNYGDPPOTLKN -->
<g id="node11" class="node">
<title>PAKNYGDPPOTLKN</title>
<g id="a_node11"><a xlink:title="Potential GDP
FRML  &lt;&gt; PAKNYGDPPOTLKN = PAKNYGDPTFP*(PAKLMEMPSTRLCN**PAKNYYWBTOTLCN_)*(PAKNEGDIKSTKKN(-1)**(1-PAKNYYWBTOTLCN_)) $">
<polygon fill="#63b8ff" stroke="black" points="1557,-191.52 1336,-191.52 1336,-155.52 1557,-155.52 1557,-191.52"/>
<text text-anchor="start" x="1342.5" y="-169.32" font-family="Times New Roman,serif" font-size="14.00" fill="blue">PAKNYGDPPOTLKN:Potential GDP</text>
</a>
</g>
</g>
<!-- PAKNYGDPPOTLKN&#45;&gt;PAKNYGDPGAP_ -->
<g id="edge1" class="edge">
<title>PAKNYGDPPOTLKN-&gt;PAKNYGDPGAP_</title>
<g id="a_edge1"><a xlink:href="bogus" xlink:title=" PAKNYGDPPOTLKN -&gt; PAKNYGDPGAP_ Min. att. -129201%  max: 79431%">
<path fill="none" stroke="black" stroke-width="8" d="M1557.12,-167.93C1589.19,-171.36 1622.45,-180.45 1648,-200.52 1682.53,-227.64 1657.49,-257.52 1684,-292.52 1713.9,-331.99 1760.65,-364.65 1794.7,-385.15"/>
<polygon fill="black" stroke="black" stroke-width="8" points="1791.34,-391.29 1803.51,-390.35 1798.46,-379.24 1791.34,-391.29"/>
</a>
</g>
</g>
<!-- PAKNYGDPPOTLKN&#45;&gt;PAKLMEMPTOTLCN -->
<g id="edge33" class="edge">
<title>PAKNYGDPPOTLKN-&gt;PAKLMEMPTOTLCN</title>
<g id="a_edge33"><a xlink:href="bogus" xlink:title=" PAKNYGDPPOTLKN -&gt; PAKLMEMPTOTLCN Min. att. -92%  max: 605%">
<path fill="none" stroke="black" stroke-width="8" d="M1557.14,-187.7C1597.02,-192.41 1642.49,-197.28 1684,-200.52 1797.53,-209.37 1927.42,-214.29 2018.83,-216.89"/>
<polygon fill="black" stroke="black" stroke-width="8" points="2018.75,-223.89 2028.94,-217.17 2019.14,-209.9 2018.75,-223.89"/>
</a>
</g>
</g>
<!-- PAKNYWRTTOTLCN -->
<g id="node12" class="node">
<title>PAKNYWRTTOTLCN</title>
<g id="a_node12"><a xlink:title="Wages
FRML  &lt;&gt; PAKNYWRTTOTLCN = (PAKNYWBINFMSH**PAKINFCES*(PAKNYWRTINFMCN)**(1-PAKINFCES)+PAKNYWBFORMSH**PAKINFCES*(PAKNYWRTFORMCN*(1+PAKGGREVDRCTXN/100))**(1-PAKINFCES))**(1/(1-PAKINFCES)) $">
<polygon fill="#63b8ff" stroke="black" points="1929,-283.52 1748,-283.52 1748,-247.52 1929,-247.52 1929,-283.52"/>
<text text-anchor="start" x="1754.5" y="-261.32" font-family="Times New Roman,serif" font-size="14.00" fill="blue">PAKNYWRTTOTLCN:Wages</text>
</a>
</g>
</g>
<!-- PAKNYWRTTOTLCN&#45;&gt;PAKLMEMPTOTLCN -->
<g id="edge12" class="edge">
<title>PAKNYWRTTOTLCN-&gt;PAKLMEMPTOTLCN</title>
<g id="a_edge12"><a xlink:href="bogus" xlink:title=" PAKNYWRTTOTLCN -&gt; PAKLMEMPTOTLCN Min. att. -1554%  max: 237%">
<path fill="none" stroke="black" stroke-width="8" d="M1929.01,-251.66C1957.25,-247.28 1988.88,-242.38 2018.77,-237.75"/>
<polygon fill="black" stroke="black" stroke-width="8" points="2020.03,-244.64 2028.84,-236.2 2017.88,-230.81 2020.03,-244.64"/>
</a>
</g>
</g>
<!-- PAKNYYWBTOTLCN -->
<g id="node28" class="node">
<title>PAKNYYWBTOTLCN</title>
<g id="a_node28"><a xlink:title="Economy-wide wage bill
FRML  &lt;&gt; PAKNYYWBTOTLCN = PAKNYWRTTOTLCN*PAKLMEMPTOTLCN $">
<polygon fill="#63b8ff" stroke="black" points="2567,-237.52 2282,-237.52 2282,-201.52 2567,-201.52 2567,-237.52"/>
<text text-anchor="start" x="2288.5" y="-215.32" font-family="Times New Roman,serif" font-size="14.00" fill="blue">PAKNYYWBTOTLCN:Economy-wide wage bill</text>
</a>
</g>
</g>
<!-- PAKNYWRTTOTLCN&#45;&gt;PAKNYYWBTOTLCN -->
<g id="edge32" class="edge">
<title>PAKNYWRTTOTLCN-&gt;PAKNYYWBTOTLCN</title>
<g id="a_edge32"><a xlink:href="bogus" xlink:title=" PAKNYWRTTOTLCN -&gt; PAKNYYWBTOTLCN Min. att. 16%  max: 106%">
<path fill="none" stroke="black" stroke-width="8" d="M1929.31,-264.01C2011.81,-261.98 2137.38,-257.29 2246,-246.52 2265.86,-244.55 2286.89,-241.88 2307.26,-238.98"/>
<polygon fill="black" stroke="black" stroke-width="8" points="2308.3,-245.9 2317.2,-237.54 2306.29,-232.04 2308.3,-245.9"/>
</a>
</g>
</g>
<!-- PAKNEIMPGNFSXN -->
<g id="node13" class="node">
<title>PAKNEIMPGNFSXN</title>
<g id="a_node13"><a xlink:title="Imports (G&amp;S)
FRML  &lt;&gt; PAKNEIMPGNFSXN = ((PAKNEIMPENGYSH**PAKCESENGYIMPT)*PAKNVENGNIMPXN**(1-PAKCESENGYIMPT)+(PAKNEIMPOTHRSH**PAKCESENGYIMPT)*PAKNEIMPGSNEXN**(1-PAKCESENGYIMPT))**(1/(1-PAKCESENGYIMPT)) $">
<polygon fill="#63b8ff" stroke="black" points="254.5,-948.52 31.5,-948.52 31.5,-912.52 254.5,-912.52 254.5,-948.52"/>
<text text-anchor="start" x="38" y="-926.32" font-family="Times New Roman,serif" font-size="14.00" fill="blue">PAKNEIMPGNFSXN:Imports (G&amp;S)</text>
</a>
</g>
</g>
<!-- PAKNECONOTHRXN -->
<g id="node20" class="node">
<title>PAKNECONOTHRXN</title>
<g id="a_node20"><a xlink:title="Non-Energy Consumption
FRML &lt;Z,EXO&gt; PAKNECONOTHRXN = (PAKNECONOTHRXN(-1)*EXP(-PAKNECONOTHRXN_A+ (0.598859116610832*((LOG(PAKNYGDPFCSTXN))-(LOG(PAKNYGDPFCSTXN(-1))))+((PAKGGREVGNFSXN/100)-(PAKGGREVGNFSXN(-1)/100))+(1-0.598859116610832)*((LOG(PAKNEIMPGNFSXN))-(LOG(PAKNEIMPGNFSXN(-1))))+0.2*PAKNYGDPGAP_/100) )) * (1-PAKNECONOTHRXN_D)+ PAKNECONOTHRXN_X*PAKNECONOTHRXN_D  $">
<polygon fill="#63b8ff" stroke="black" points="611,-948.52 322,-948.52 322,-912.52 611,-912.52 611,-948.52"/>
<text text-anchor="start" x="328.5" y="-926.32" font-family="Times New Roman,serif" font-size="14.00" fill="blue">PAKNECONOTHRXN:Non-Energy Consumption</text>
</a>
</g>
</g>
<!-- PAKNEIMPGNFSXN&#45;&gt;PAKNECONOTHRXN -->
<g id="edge22" class="edge">
<title>PAKNEIMPGNFSXN-&gt;PAKNECONOTHRXN</title>
<g id="a_edge22"><a xlink:href="bogus" xlink:title=" PAKNEIMPGNFSXN -&gt; PAKNECONOTHRXN Min. att. -10%  max: 114%">
<path fill="none" stroke="black" stroke-width="8" d="M254.64,-930.52C273.05,-930.52 292.43,-930.52 311.68,-930.52"/>
<polygon fill="black" stroke="black" stroke-width="8" points="311.72,-937.52 321.72,-930.52 311.72,-923.52 311.72,-937.52"/>
</a>
</g>
</g>
<!-- PAKNEGDETTOTKN -->
<g id="node14" class="node">
<title>PAKNEGDETTOTKN</title>
<g id="a_node14"><a xlink:title="GDE
FRML  &lt;&gt; PAKNEGDETTOTKN = (PAKNECONPRVTKN+PAKNECONGOVTKN+PAKNEGDIFTOTKN+PAKNEGDISTKBKN+PAKNYGDPDISCKN) $">
<polygon fill="#63b8ff" stroke="black" points="1531.5,-1147.52 1361.5,-1147.52 1361.5,-1111.52 1531.5,-1111.52 1531.5,-1147.52"/>
<text text-anchor="start" x="1367.5" y="-1125.32" font-family="Times New Roman,serif" font-size="14.00" fill="blue">PAKNEGDETTOTKN:GDE</text>
</a>
</g>
</g>
<!-- PAKNECONENGYXN -->
<g id="node15" class="node">
<title>PAKNECONENGYXN</title>
<g id="a_node15"><a xlink:title="Energy Consumption
FRML &lt;Z,EXO&gt; PAKNECONENGYXN = (PAKNECONENGYXN(-1)*EXP(-PAKNECONENGYXN_A+ (((LOG(PAKNECONENGYGN))-(LOG(PAKNECONENGYGN(-1))))+0.0550557534575806*DUMH) )) * (1-PAKNECONENGYXN_D)+ PAKNECONENGYXN_X*PAKNECONENGYXN_D  $">
<polygon fill="#63b8ff" stroke="black" points="597.5,-1002.52 335.5,-1002.52 335.5,-966.52 597.5,-966.52 597.5,-1002.52"/>
<text text-anchor="start" x="341.5" y="-980.32" font-family="Times New Roman,serif" font-size="14.00" fill="blue">PAKNECONENGYXN:Energy Consumption</text>
</a>
</g>
</g>
<!-- PAKNECONPRVTXN -->
<g id="node16" class="node">
<title>PAKNECONPRVTXN</title>
<g id="a_node16"><a xlink:title="Household demand
FRML  &lt;&gt; PAKNECONPRVTXN = ((PAKNECONENGYSH**PAKCESENGYCON)*PAKNECONENGYXN**(1-PAKCESENGYCON)+(PAKNECONOTHRSH**PAKCESENGYCON)*PAKNECONOTHRXN**(1-PAKCESENGYCON))**(1/(1-PAKCESENGYCON)) $">
<polygon fill="#63b8ff" stroke="black" points="895,-975.52 647,-975.52 647,-939.52 895,-939.52 895,-975.52"/>
<text text-anchor="start" x="653" y="-953.32" font-family="Times New Roman,serif" font-size="14.00" fill="blue">PAKNECONPRVTXN:Household demand</text>
</a>
</g>
</g>
<!-- PAKNECONENGYXN&#45;&gt;PAKNECONPRVTXN -->
<g id="edge15" class="edge">
<title>PAKNECONENGYXN-&gt;PAKNECONPRVTXN</title>
<g id="a_edge15"><a xlink:href="bogus" xlink:title=" PAKNECONENGYXN -&gt; PAKNECONPRVTXN Min. att. 1%  max: 29%">
<path fill="none" stroke="black" stroke-width="2.91" d="M597.54,-972.91C610.43,-971.76 623.53,-970.59 636.45,-969.44"/>
<polygon fill="black" stroke="black" stroke-width="2.91" points="637.12,-972.89 646.77,-968.52 636.5,-965.92 637.12,-972.89"/>
</a>
</g>
</g>
<!-- PAKNECONPRVTKN -->
<g id="node17" class="node">
<title>PAKNECONPRVTKN</title>
<g id="a_node17"><a xlink:title="Household Consumption
FRML &lt;Z,EXO&gt; PAKNECONPRVTKN = (PAKNECONPRVTKN(-1)*EXP(-PAKNECONPRVTKN_A+ (-0.2*(LOG(PAKNECONPRVTKN(-1))-LOG((PAKNYYWBTOTLCN(-1)*(1-PAKGGREVDRCTXN(-1)/100))/PAKNECONPRVTXN(-1)))+1*((LOG((PAKNYYWBTOTLCN*(1-PAKGGREVDRCTXN/100))/PAKNECONPRVTXN))-(LOG((PAKNYYWBTOTLCN(-1)*(1-PAKGGREVDRCTXN(-1)/100))/PAKNECONPRVTXN(-1))))+0.0303228629698929+0.0163839011059956*DURING_2010-0.3*(PAKFMLBLPOLYXN/100-((LOG(PAKNECONPRVTXN))-(LOG(PAKNECONPRVTXN(-1)))))) )) * (1-PAKNECONPRVTKN_D)+ PAKNECONPRVTKN_X*PAKNECONPRVTKN_D  $">
<polygon fill="red" stroke="black" points="1209,-758.52 931,-758.52 931,-722.52 1209,-722.52 1209,-758.52"/>
<text text-anchor="start" x="937" y="-736.32" font-family="Times New Roman,serif" font-size="14.00" fill="blue">PAKNECONPRVTKN:Household Consumption</text>
</a>
</g>
</g>
<!-- PAKNECONPRVTXN&#45;&gt;PAKNECONPRVTKN -->
<g id="edge13" class="edge">
<title>PAKNECONPRVTXN-&gt;PAKNECONPRVTKN</title>
<g id="a_edge13"><a xlink:href="bogus" xlink:title=" PAKNECONPRVTXN -&gt; PAKNECONPRVTKN Min. att. -5707%  max: 593%">
<path fill="none" stroke="black" stroke-width="8" d="M796.81,-939.39C850.1,-900.46 975.5,-808.83 1035.66,-764.88"/>
<polygon fill="black" stroke="black" stroke-width="8" points="1040.11,-770.3 1044.05,-758.75 1031.85,-759 1040.11,-770.3"/>
</a>
</g>
</g>
<!-- PAKNECONPRVTXN&#45;&gt;PAKFMLBLPOLYXN -->
<g id="edge16" class="edge">
<title>PAKNECONPRVTXN-&gt;PAKFMLBLPOLYXN</title>
<g id="a_edge16"><a xlink:href="bogus" xlink:title=" PAKNECONPRVTXN -&gt; PAKFMLBLPOLYXN Min. att. -94%  max: 1463%">
<path fill="none" stroke="black" stroke-width="8" d="M802.71,-975.6C876.08,-1017.6 1068.59,-1120.92 1245,-1156.52 1542.16,-1216.49 1904.52,-1142.55 2059.84,-1104.06"/>
<polygon fill="black" stroke="black" stroke-width="8" points="2061.77,-1110.79 2069.77,-1101.57 2058.37,-1097.21 2061.77,-1110.79"/>
</a>
</g>
</g>
<!-- PAKNECONPRVTKN&#45;&gt;PAKSMAGRFSNGKN -->
<g id="edge8" class="edge">
<title>PAKNECONPRVTKN-&gt;PAKSMAGRFSNGKN</title>
<g id="a_edge8"><a xlink:href="bogus" xlink:title=" PAKNECONPRVTKN -&gt; PAKSMAGRFSNGKN Min. att. -29%  max: 170%">
<path fill="none" stroke="black" stroke-width="8" d="M1209.12,-750.48C1261.16,-754.23 1318.64,-758.37 1363.89,-761.64"/>
<polygon fill="black" stroke="black" stroke-width="8" points="1363.46,-768.62 1373.94,-762.36 1364.47,-754.66 1363.46,-768.62"/>
</a>
</g>
</g>
<!-- PAKNECONPRVTKN&#45;&gt;PAKSMAGRCRPSKN -->
<g id="edge19" class="edge">
<title>PAKNECONPRVTKN-&gt;PAKSMAGRCRPSKN</title>
<g id="a_edge19"><a xlink:href="bogus" xlink:title=" PAKNECONPRVTKN -&gt; PAKSMAGRCRPSKN Min. att. -25%  max: 208%">
<path fill="none" stroke="black" stroke-width="8" d="M1209.12,-730.56C1261.35,-726.8 1319.07,-722.64 1364.39,-719.37"/>
<polygon fill="black" stroke="black" stroke-width="8" points="1364.99,-726.34 1374.46,-718.64 1363.98,-712.38 1364.99,-726.34"/>
</a>
</g>
</g>
<!-- PAKNECONPRVTKN&#45;&gt;PAKNECONOTHRKN -->
<g id="edge23" class="edge">
<title>PAKNECONPRVTKN-&gt;PAKNECONOTHRKN</title>
<g id="a_edge23"><a xlink:href="bogus" xlink:title=" PAKNECONPRVTKN -&gt; PAKNECONOTHRKN Min. att. -12056%  max: 323%">
<path fill="none" stroke="black" stroke-width="8" d="M1121.41,-722.42C1155.83,-710.67 1202.69,-695.87 1245,-686.52 1265.82,-681.92 1288.04,-677.99 1309.82,-674.66"/>
<polygon fill="black" stroke="black" stroke-width="8" points="1310.94,-681.57 1319.8,-673.17 1308.87,-667.72 1310.94,-681.57"/>
</a>
</g>
</g>
<!-- PAKNECONPRVTKN&#45;&gt;PAKSMSRVTRNSKN -->
<g id="edge4" class="edge">
<title>PAKNECONPRVTKN-&gt;PAKSMSRVTRNSKN</title>
<g id="a_edge4"><a xlink:href="bogus" xlink:title=" PAKNECONPRVTKN -&gt; PAKSMSRVTRNSKN Min. att. 87%  max: 593%">
<path fill="none" stroke="black" stroke-width="8" d="M1093.03,-722.51C1124.58,-697.77 1185.44,-653.9 1245,-632.52 1283.07,-618.85 1327.47,-612.02 1364.79,-608.63"/>
<polygon fill="black" stroke="black" stroke-width="8" points="1365.74,-615.58 1375.12,-607.77 1364.57,-601.63 1365.74,-615.58"/>
</a>
</g>
</g>
<!-- PAKNECONPRVTKN&#45;&gt;PAKNECONPRVTCN -->
<g id="edge20" class="edge">
<title>PAKNECONPRVTKN-&gt;PAKNECONPRVTCN</title>
<g id="a_edge20"><a xlink:href="bogus" xlink:title=" PAKNECONPRVTKN -&gt; PAKNECONPRVTCN Min. att. -720%  max: 6450%">
<path fill="none" stroke="black" stroke-width="8" d="M1084.14,-722.37C1110.34,-687.75 1172.8,-612.67 1245,-578.52 1265.98,-568.6 1289.48,-562 1312.8,-557.67"/>
<polygon fill="black" stroke="black" stroke-width="8" points="1314.12,-564.55 1322.78,-555.95 1311.74,-550.75 1314.12,-564.55"/>
</a>
</g>
</g>
<!-- PAKNECONPRVTKN&#45;&gt;PAKSMSRVHSNGKN -->
<g id="edge18" class="edge">
<title>PAKNECONPRVTKN-&gt;PAKSMSRVHSNGKN</title>
<g id="a_edge18"><a xlink:href="bogus" xlink:title=" PAKNECONPRVTKN -&gt; PAKSMSRVHSNGKN Min. att. 34%  max: 147%">
<path fill="none" stroke="black" stroke-width="8" d="M1076.73,-722.17C1093.42,-672.09 1147.1,-532.73 1245,-470.52 1279.83,-448.39 1324.93,-440.88 1363.53,-439.24"/>
<polygon fill="black" stroke="black" stroke-width="8" points="1363.92,-446.23 1373.71,-438.94 1363.5,-432.24 1363.92,-446.23"/>
</a>
</g>
</g>
<!-- PAKNECONPRVTKN&#45;&gt;PAKSMINDMNGSKN -->
<g id="edge3" class="edge">
<title>PAKNECONPRVTKN-&gt;PAKSMINDMNGSKN</title>
<g id="a_edge3"><a xlink:href="bogus" xlink:title=" PAKNECONPRVTKN -&gt; PAKSMINDMNGSKN Min. att. -1229%  max: 1716%">
<path fill="none" stroke="black" stroke-width="8" d="M1073.23,-722.51C1081.92,-660.61 1119.52,-455.29 1245,-362.52 1278.52,-337.74 1324.04,-330.13 1363.24,-329.1"/>
<polygon fill="black" stroke="black" stroke-width="8" points="1363.41,-336.1 1373.32,-328.98 1363.24,-322.1 1363.41,-336.1"/>
</a>
</g>
</g>
<!-- PAKNECONPRVTKN&#45;&gt;PAKSMSRVFINSKN -->
<g id="edge10" class="edge">
<title>PAKNECONPRVTKN-&gt;PAKSMSRVFINSKN</title>
<g id="a_edge10"><a xlink:href="bogus" xlink:title=" PAKNECONPRVTKN -&gt; PAKSMSRVFINSKN Min. att. -104%  max: 125%">
<path fill="none" stroke="black" stroke-width="8" d="M1072.13,-722.41C1077.38,-655 1105.53,-416.96 1245,-308.52 1279.25,-281.89 1327.13,-274.67 1367.52,-274.33"/>
<polygon fill="black" stroke="black" stroke-width="8" points="1367.57,-281.33 1377.61,-274.39 1367.65,-267.33 1367.57,-281.33"/>
</a>
</g>
</g>
<!-- PAKNECONPRVTKN&#45;&gt;PAKNEGDETTOTKN -->
<g id="edge30" class="edge">
<title>PAKNECONPRVTKN-&gt;PAKNEGDETTOTKN</title>
<g id="a_edge30"><a xlink:href="bogus" xlink:title=" PAKNECONPRVTKN -&gt; PAKNEGDETTOTKN Min. att. -2283%  max: 2484%">
<path fill="none" stroke="black" stroke-width="8" d="M1073.87,-758.68C1084.32,-818.33 1126.18,-1009.46 1245,-1097.52 1275.16,-1119.87 1314.92,-1129.16 1351.08,-1132.39"/>
<polygon fill="black" stroke="black" stroke-width="8" points="1350.67,-1139.38 1361.17,-1133.15 1351.72,-1125.42 1350.67,-1139.38"/>
</a>
</g>
</g>
<!-- PAKNYGDPMKTPKN -->
<g id="node18" class="node">
<title>PAKNYGDPMKTPKN</title>
<g id="a_node18"><a xlink:title="GDP Expenditure side at market prices
FRML  &lt;&gt; PAKNYGDPMKTPKN = PAKNECONPRVTKN+PAKNECONGOVTKN+PAKNEGDIFTOTKN+PAKNEGDISTKBKN+PAKNEEXPGNFSKN-PAKNEIMPGNFSKN+PAKNYGDPDISCKN+PAKADAP*PAKDISPREPKN $">
<polygon fill="#63b8ff" stroke="black" points="1627,-515.52 1266,-515.52 1266,-479.52 1627,-479.52 1627,-515.52"/>
<text text-anchor="start" x="1272.5" y="-493.32" font-family="Times New Roman,serif" font-size="14.00" fill="blue">PAKNYGDPMKTPKN:GDP Expenditure side at market prices</text>
</a>
</g>
</g>
<!-- PAKNECONPRVTKN&#45;&gt;PAKNYGDPMKTPKN -->
<g id="edge7" class="edge">
<title>PAKNECONPRVTKN-&gt;PAKNYGDPMKTPKN</title>
<g id="a_edge7"><a xlink:href="bogus" xlink:title=" PAKNECONPRVTKN -&gt; PAKNYGDPMKTPKN Min. att. -1557%  max: 290%">
<path fill="none" stroke="black" stroke-width="8" d="M1079.49,-722.44C1100.62,-679.69 1160.05,-572.4 1245,-524.52 1248.7,-522.43 1252.5,-520.49 1256.38,-518.67"/>
<polygon fill="black" stroke="black" stroke-width="8" points="1259.21,-525.07 1265.56,-514.65 1253.6,-512.24 1259.21,-525.07"/>
</a>
</g>
</g>
<!-- PAKSMINDOTHRTKN -->
<g id="node21" class="node">
<title>PAKSMINDOTHRTKN</title>
<g id="a_node21"><a xlink:title="PAKSMINDOTHRTKN
FRML  &lt;&gt; PAKSMINDOTHRTKN = ((1+0.483473985412524)*(0.40172973397176*PAKNECONPRVTKN+0*PAKNECONGOVTKN+0.560459287907094*PAKNEGDIFTOTKN+0.719299486591763*PAKNEEXPGNFSKN+0.620970563578771*PAKNEGDISTKBKN)-0.606734386430279*PAKNEIMPGNFSKN-0.866045585295928*PAKNYTAXNINDKN-2983275.63714814)/(1+2.46379868577176) $">
<polygon fill="#63b8ff" stroke="black" points="1522,-1055.52 1371,-1055.52 1371,-1019.52 1522,-1019.52 1522,-1055.52"/>
<text text-anchor="start" x="1377.5" y="-1033.32" font-family="Times New Roman,serif" font-size="14.00" fill="blue">PAKSMINDOTHRTKN:</text>
</a>
</g>
</g>
<!-- PAKNECONPRVTKN&#45;&gt;PAKSMINDOTHRTKN -->
<g id="edge14" class="edge">
<title>PAKNECONPRVTKN-&gt;PAKSMINDOTHRTKN</title>
<g id="a_edge14"><a xlink:href="bogus" xlink:title=" PAKNECONPRVTKN -&gt; PAKSMINDOTHRTKN Min. att. -11779%  max: 971%">
<path fill="none" stroke="black" stroke-width="8" d="M1076.73,-758.88C1093.42,-808.95 1147.1,-948.31 1245,-1010.52 1279.02,-1032.14 1322.82,-1039.8 1360.8,-1041.67"/>
<polygon fill="black" stroke="black" stroke-width="8" points="1360.58,-1048.67 1370.84,-1042.04 1361.1,-1034.68 1360.58,-1048.67"/>
</a>
</g>
</g>
<!-- PAKSMAGRFSTYKN -->
<g id="node22" class="node">
<title>PAKSMAGRFSTYKN</title>
<g id="a_node22"><a xlink:title="PAKSMAGRFSTYKN
FRML  &lt;&gt; PAKSMAGRFSTYKN = ((1+0.195965019358753)*(0.010131919293849*PAKNECONPRVTKN+0*PAKNECONGOVTKN+0*PAKNEGDIFTOTKN+0.000136733767007103*PAKNEEXPGNFSKN+0.0199955288980741*PAKNEGDISTKBKN)-0.00076829563200478*PAKNEIMPGNFSKN-0.00172030587371022*PAKNYTAXNINDKN-65421)/(1+0.319587584852584) $">
<polygon fill="#63b8ff" stroke="black" points="1518.5,-1001.52 1374.5,-1001.52 1374.5,-965.52 1518.5,-965.52 1518.5,-1001.52"/>
<text text-anchor="start" x="1380.5" y="-979.32" font-family="Times New Roman,serif" font-size="14.00" fill="blue">PAKSMAGRFSTYKN:</text>
</a>
</g>
</g>
<!-- PAKNECONPRVTKN&#45;&gt;PAKSMAGRFSTYKN -->
<g id="edge24" class="edge">
<title>PAKNECONPRVTKN-&gt;PAKSMAGRFSTYKN</title>
<g id="a_edge24"><a xlink:href="bogus" xlink:title=" PAKNECONPRVTKN -&gt; PAKSMAGRFSTYKN Min. att. 96%  max: 371%">
<path fill="none" stroke="black" stroke-width="8" d="M1079.49,-758.61C1100.62,-801.36 1160.05,-908.64 1245,-956.52 1280.81,-976.71 1325.79,-984.08 1364.06,-986.13"/>
<polygon fill="black" stroke="black" stroke-width="8" points="1363.86,-993.13 1374.15,-986.56 1364.46,-979.14 1363.86,-993.13"/>
</a>
</g>
</g>
<!-- PAKSMENGTOTLKN -->
<g id="node24" class="node">
<title>PAKSMENGTOTLKN</title>
<g id="a_node24"><a xlink:title="PAKSMENGTOTLKN
FRML  &lt;&gt; PAKSMENGTOTLKN = ((1+1.65868473220397)*(0.0775261497897936*PAKNECONPRVTKN+0*PAKNECONGOVTKN+0*PAKNEGDIFTOTKN+0.0217448978257548*PAKNEEXPGNFSKN+0.0458991644104248*PAKNEGDISTKBKN)-0.11894699850705*PAKNEIMPGNFSKN--0.50579180838529*PAKNYTAXNINDKN-0)/(1+5.65663938581514) $">
<polygon fill="#63b8ff" stroke="black" points="1519,-947.52 1374,-947.52 1374,-911.52 1519,-911.52 1519,-947.52"/>
<text text-anchor="start" x="1380.5" y="-925.32" font-family="Times New Roman,serif" font-size="14.00" fill="blue">PAKSMENGTOTLKN:</text>
</a>
</g>
</g>
<!-- PAKNECONPRVTKN&#45;&gt;PAKSMENGTOTLKN -->
<g id="edge5" class="edge">
<title>PAKNECONPRVTKN-&gt;PAKSMENGTOTLKN</title>
<g id="a_edge5"><a xlink:href="bogus" xlink:title=" PAKNECONPRVTKN -&gt; PAKSMENGTOTLKN Min. att. -14%  max: 2187%">
<path fill="none" stroke="black" stroke-width="8" d="M1084.14,-758.67C1110.34,-793.29 1172.8,-868.37 1245,-902.52 1281.57,-919.82 1325.81,-927.01 1363.43,-929.7"/>
<polygon fill="black" stroke="black" stroke-width="8" points="1363.44,-936.71 1373.85,-930.34 1364.3,-922.74 1363.44,-936.71"/>
</a>
</g>
</g>
<!-- PAKNECONPRVTKN_FITTED -->
<g id="node26" class="node">
<title>PAKNECONPRVTKN_FITTED</title>
<g id="a_node26"><a xlink:title="Fitted  value:Household Consumption
FRML &lt;FIT&gt; PAKNECONPRVTKN_FITTED = PAKNECONPRVTKN(-1)*EXP( (-0.2*(LOG(PAKNECONPRVTKN(-1))-LOG((PAKNYYWBTOTLCN(-1)*(1-PAKGGREVDRCTXN(-1)/100))/PAKNECONPRVTXN(-1)))+1*((LOG((PAKNYYWBTOTLCN*(1-PAKGGREVDRCTXN/100))/PAKNECONPRVTXN))-(LOG((PAKNYYWBTOTLCN(-1)*(1-PAKGGREVDRCTXN(-1)/100))/PAKNECONPRVTXN(-1))))+0.0303228629698929+0.0163839011059956*DURING_2010-0.3*(PAKFMLBLPOLYXN/100-((LOG(PAKNECONPRVTXN))-(LOG(PAKNECONPRVTXN(-1)))))) ) $">
<polygon fill="#63b8ff" stroke="black" points="1648,-893.52 1245,-893.52 1245,-857.52 1648,-857.52 1648,-893.52"/>
<text text-anchor="start" x="1251.5" y="-871.32" font-family="Times New Roman,serif" font-size="14.00" fill="blue">PAKNECONPRVTKN_FITTED:Fitted  value:Household Consumption</text>
</a>
</g>
</g>
<!-- PAKNECONPRVTKN&#45;&gt;PAKNECONPRVTKN_FITTED -->
<g id="edge6" class="edge">
<title>PAKNECONPRVTKN-&gt;PAKNECONPRVTKN_FITTED</title>
<g id="a_edge6"><a xlink:href="bogus" xlink:title=" PAKNECONPRVTKN -&gt; PAKNECONPRVTKN_FITTED Min. att. -786%  max: 175%">
<path fill="none" stroke="black" stroke-width="8" d="M1093.03,-758.53C1124.58,-783.28 1185.44,-827.14 1245,-848.52 1251.33,-850.79 1257.83,-852.88 1264.45,-854.79"/>
<polygon fill="black" stroke="black" stroke-width="8" points="1262.73,-861.57 1274.22,-857.46 1266.43,-848.07 1262.73,-861.57"/>
</a>
</g>
</g>
<!-- PAKNECONENGYKN -->
<g id="node30" class="node">
<title>PAKNECONENGYKN</title>
<g id="a_node30"><a xlink:title="Energy Consumption
FRML  &lt;&gt; PAKNECONENGYKN = PAKNECONENGYSH**(PAKCESENGYCON)*(PAKNECONPRVTKN*(PAKNECONPRVTXN/PAKNECONENGYXN)**(PAKCESENGYCON)) $">
<polygon fill="#63b8ff" stroke="black" points="1577.5,-839.52 1315.5,-839.52 1315.5,-803.52 1577.5,-803.52 1577.5,-839.52"/>
<text text-anchor="start" x="1321.5" y="-817.32" font-family="Times New Roman,serif" font-size="14.00" fill="blue">PAKNECONENGYKN:Energy Consumption</text>
</a>
</g>
</g>
<!-- PAKNECONPRVTKN&#45;&gt;PAKNECONENGYKN -->
<g id="edge17" class="edge">
<title>PAKNECONPRVTKN-&gt;PAKNECONENGYKN</title>
<g id="a_edge17"><a xlink:href="bogus" xlink:title=" PAKNECONPRVTKN -&gt; PAKNECONENGYKN Min. att. -699%  max: 3889%">
<path fill="none" stroke="black" stroke-width="8" d="M1121.41,-758.62C1155.83,-770.37 1202.69,-785.17 1245,-794.52 1264.38,-798.8 1284.97,-802.51 1305.3,-805.68"/>
<polygon fill="black" stroke="black" stroke-width="8" points="1304.31,-812.61 1315.25,-807.2 1306.42,-798.77 1304.31,-812.61"/>
</a>
</g>
</g>
<!-- PAKNYGDPMKTPKN&#45;&gt;PAKNYGDPGAP_ -->
<g id="edge9" class="edge">
<title>PAKNYGDPMKTPKN-&gt;PAKNYGDPGAP_</title>
<g id="a_edge9"><a xlink:href="bogus" xlink:title=" PAKNYGDPMKTPKN -&gt; PAKNYGDPGAP_ Min. att. -78601%  max: 128123%">
<path fill="none" stroke="black" stroke-width="8" d="M1602.62,-479.5C1618.02,-476.86 1633.36,-473.87 1648,-470.52 1693.38,-460.13 1743.37,-443.55 1780.62,-430.15"/>
<polygon fill="black" stroke="black" stroke-width="8" points="1783.27,-436.63 1790.28,-426.64 1778.49,-423.47 1783.27,-436.63"/>
</a>
</g>
</g>
<!-- PAKNYWRTINFMCN -->
<g id="node19" class="node">
<title>PAKNYWRTINFMCN</title>
<g id="a_node19"><a xlink:title="Informal wage
FRML &lt;Z,EXO&gt; PAKNYWRTINFMCN = (PAKNYWRTINFMCN(-1)*EXP(-PAKNYWRTINFMCN_A+ (-0.122614247140616-0.3*(LOG(PAKNYWRTINFMCN(-1))-LOG(PAKNYGDPFCSTXN(-1))-LOG(PAKNYGDPPOTLKN(-1)/PAKLMEMPSTRLCN(-1)))+0.2*((LOG(PAKNYWRTINFMCN(-1)))-(LOG(PAKNYWRTINFMCN(-2))))+(1-0.2)*(0.5*((LOG(PAKNYGDPFCSTXN(-1)))-(LOG(PAKNYGDPFCSTXN(-2))))+0.5*(PAKINFLEXPT/100)+((LOG(PAKNYGDPMKTPKN/PAKLMEMPSTRLCN))-(LOG(PAKNYGDPMKTPKN(-1)/PAKLMEMPSTRLCN(-1)))))-0.2*(PAKLMUNRTOTLCN-PAKLMUNRSTRLCN)/100+0.15347529018182*DURING_2000-0.183372342445734*DURING_2001) )) * (1-PAKNYWRTINFMCN_D)+ PAKNYWRTINFMCN_X*PAKNYWRTINFMCN_D  $">
<polygon fill="#63b8ff" stroke="black" points="1559.5,-407.52 1333.5,-407.52 1333.5,-371.52 1559.5,-371.52 1559.5,-407.52"/>
<text text-anchor="start" x="1339.5" y="-385.32" font-family="Times New Roman,serif" font-size="14.00" fill="blue">PAKNYWRTINFMCN:Informal wage</text>
</a>
</g>
</g>
<!-- PAKNYWRTINFMCN&#45;&gt;PAKNYWRTTOTLCN -->
<g id="edge31" class="edge">
<title>PAKNYWRTINFMCN-&gt;PAKNYWRTTOTLCN</title>
<g id="a_edge31"><a xlink:href="bogus" xlink:title=" PAKNYWRTINFMCN -&gt; PAKNYWRTTOTLCN Min. att. 79%  max: 80%">
<path fill="none" stroke="black" stroke-width="7.95" d="M1559.54,-381.24C1588.77,-377.24 1619.93,-371.31 1648,-362.52 1704.09,-344.96 1763.62,-311.78 1800.67,-289.17"/>
<polygon fill="black" stroke="black" stroke-width="7.95" points="1804.73,-294.84 1809.59,-283.67 1797.42,-283 1804.73,-294.84"/>
</a>
</g>
</g>
<!-- PAKNECONOTHRXN&#45;&gt;PAKNECONPRVTXN -->
<g id="edge34" class="edge">
<title>PAKNECONOTHRXN-&gt;PAKNECONPRVTXN</title>
<g id="a_edge34"><a xlink:href="bogus" xlink:title=" PAKNECONOTHRXN -&gt; PAKNECONPRVTXN Min. att. 71%  max: 99%">
<path fill="none" stroke="black" stroke-width="8" d="M611.22,-943.35C619.67,-944.1 628.16,-944.86 636.57,-945.61"/>
<polygon fill="black" stroke="black" stroke-width="8" points="636.2,-952.61 646.78,-946.52 637.44,-938.66 636.2,-952.61"/>
</a>
</g>
</g>
<!-- PAKFMLBLPOLYXN&#45;&gt;PAKNECONPRVTKN -->
<g id="edge26" class="edge">
<title>PAKFMLBLPOLYXN-&gt;PAKNECONPRVTKN</title>
<g id="a_edge26"><a xlink:href="bogus" xlink:title=" PAKFMLBLPOLYXN -&gt; PAKNECONPRVTKN Min. att. -160%  max: 20%">
<path fill="none" stroke="black" stroke-width="8" d="M2034.6,-1087.06C1814.84,-1093.88 1310.8,-1104.83 1245,-1064.52 1135.15,-997.23 1090.37,-834.74 1076.33,-768.92"/>
<polygon fill="black" stroke="black" stroke-width="8" points="1083.13,-767.25 1074.26,-758.86 1069.42,-770.06 1083.13,-767.25"/>
</a>
</g>
</g>
<!-- PAKNECONENGYGN -->
<g id="node25" class="node">
<title>PAKNECONENGYGN</title>
<g id="a_node25"><a xlink:title="Net consumption deflator
FRML  &lt;&gt; PAKNECONENGYGN = (PAKNVCOLPRODSH**(PAKCESENGYPROD)*(PAKNVCOLPRODGN)**(1-PAKCESENGYPROD)+PAKNVGASPRODSH**(PAKCESENGYPROD)*(PAKNVGASPRODGN)**(1-PAKCESENGYPROD)+PAKNVOILPRODSH**(PAKCESENGYPROD)*(PAKNVOILPRODGN)**(1-PAKCESENGYPROD)+PAKNVRENPRODSH**(PAKCESENGYPROD)*(PAKNVRENPRODXN)**(1-PAKCESENGYPROD))**(1/(1-PAKCESENGYPROD)) $">
<polygon fill="#63b8ff" stroke="black" points="286,-1002.52 0,-1002.52 0,-966.52 286,-966.52 286,-1002.52"/>
<text text-anchor="start" x="6" y="-980.32" font-family="Times New Roman,serif" font-size="14.00" fill="blue">PAKNECONENGYGN:Net consumption deflator</text>
</a>
</g>
</g>
<!-- PAKNECONENGYGN&#45;&gt;PAKNECONENGYXN -->
<g id="edge2" class="edge">
<title>PAKNECONENGYGN-&gt;PAKNECONENGYXN</title>
<g id="a_edge2"><a xlink:href="bogus" xlink:title=" PAKNECONENGYGN -&gt; PAKNECONENGYXN Min. att. -39%  max: 100%">
<path fill="none" stroke="black" stroke-width="8" d="M286.42,-984.52C299.27,-984.52 312.29,-984.52 325.13,-984.52"/>
<polygon fill="black" stroke="black" stroke-width="8" points="325.38,-991.52 335.38,-984.52 325.38,-977.52 325.38,-991.52"/>
</a>
</g>
</g>
<!-- PAKLMEMPTOTLCN&#45;&gt;PAKNYYWBTOTLCN -->
<g id="edge21" class="edge">
<title>PAKLMEMPTOTLCN-&gt;PAKNYYWBTOTLCN</title>
<g id="a_edge21"><a xlink:href="bogus" xlink:title=" PAKLMEMPTOTLCN -&gt; PAKNYYWBTOTLCN Min. att. -6%  max: 84%">
<path fill="none" stroke="black" stroke-width="8" d="M2246.25,-219.52C2254.63,-219.52 2263.19,-219.52 2271.79,-219.52"/>
<polygon fill="black" stroke="black" stroke-width="8" points="2271.89,-226.52 2281.89,-219.52 2271.89,-212.52 2271.89,-226.52"/>
</a>
</g>
</g>
<!-- PAKNYYWBTOTLCN&#45;&gt;PAKNECONPRVTKN -->
<g id="edge11" class="edge">
<title>PAKNYYWBTOTLCN-&gt;PAKNECONPRVTKN</title>
<g id="a_edge11"><a xlink:href="bogus" xlink:title=" PAKNYYWBTOTLCN -&gt; PAKNECONPRVTKN Min. att. -594%  max: 5822%">
<path fill="none" stroke="black" stroke-width="8" d="M2385.67,-201.44C2227.3,-128.66 1609.02,126.16 1245,-146.52 1150.52,-217.29 1090.05,-604.1 1074.8,-712.35"/>
<polygon fill="black" stroke="black" stroke-width="8" points="1067.84,-711.63 1073.39,-722.5 1081.7,-713.56 1067.84,-711.63"/>
</a>
</g>
</g>
<!-- PAKNYWRTFORMCN -->
<g id="node29" class="node">
<title>PAKNYWRTFORMCN</title>
<g id="a_node29"><a xlink:title="Formal wage
FRML &lt;Z,EXO&gt; PAKNYWRTFORMCN = (PAKNYWRTFORMCN(-1)*EXP(-PAKNYWRTFORMCN_A+ (-0.120164450250183-0.3*(LOG(PAKNYWRTFORMCN(-1))-LOG(PAKNYGDPFCSTXN(-1))-LOG(PAKNYGDPPOTLKN(-1)/PAKLMEMPSTRLCN(-1)))+0.2*((LOG(PAKNYWRTFORMCN(-1)))-(LOG(PAKNYWRTFORMCN(-2))))+(1-0.2)*(0.5*((LOG(PAKNYGDPFCSTXN(-1)))-(LOG(PAKNYGDPFCSTXN(-2))))+0.5*(PAKINFLEXPT/100)+((LOG(PAKNYGDPMKTPKN/PAKLMEMPSTRLCN))-(LOG(PAKNYGDPMKTPKN(-1)/PAKLMEMPSTRLCN(-1)))))-0.2*(PAKLMUNRTOTLCN-PAKLMUNRSTRLCN)/100+0.15233813938029*DURING_2000-0.183411483907703*DURING_2001) )) * (1-PAKNYWRTFORMCN_D)+ PAKNYWRTFORMCN_X*PAKNYWRTFORMCN_D  $">
<polygon fill="#63b8ff" stroke="black" points="1557.5,-245.52 1335.5,-245.52 1335.5,-209.52 1557.5,-209.52 1557.5,-245.52"/>
<text text-anchor="start" x="1341.5" y="-223.32" font-family="Times New Roman,serif" font-size="14.00" fill="blue">PAKNYWRTFORMCN:Formal wage</text>
</a>
</g>
</g>
<!-- PAKNYWRTFORMCN&#45;&gt;PAKNYWRTTOTLCN -->
<g id="edge29" class="edge">
<title>PAKNYWRTFORMCN-&gt;PAKNYWRTTOTLCN</title>
<g id="a_edge29"><a xlink:href="bogus" xlink:title=" PAKNYWRTFORMCN -&gt; PAKNYWRTTOTLCN Min. att. 21%  max: 21%">
<path fill="none" stroke="black" stroke-width="2.13" d="M1557.69,-238.26C1614.31,-243.77 1682.78,-250.44 1737.81,-255.81"/>
<polygon fill="black" stroke="black" stroke-width="2.13" points="1737.63,-259.31 1747.92,-256.79 1738.31,-252.34 1737.63,-259.31"/>
</a>
</g>
</g>
</g>
</svg>