<svg xmlns="http://www.w3.org/2000/svg" xmlns:xlink="http://www.w3.org/1999/xlink" width="432pt" height="178pt" viewBox="0.00 0.00 432.00 178.12">
<g id="graph0" class="graph" transform="scale(0.216433 0.216433) rotate(0) translate(4 819)">
<title>TD</title>
<polygon fill="white" stroke="transparent" points="-4,4 -4,-819 1992,-819 1992,4 -4,4"/>
<text text-anchor="middle" x="994" y="-7.8" font-family="Times,serif" font-size="14.00">PAKNECONPRVTKN</text>
<!-- PAKSMAGRCRPSKN -->
<g id="node1" class="node">
<title>PAKSMAGRCRPSKN</title>
<g id="a_node1"><a xlink:title="PAKSMAGRCRPSKN
FRML  &lt;&gt; PAKSMAGRCRPSKN = ((1+2.09928590574241)*(0.144287620838506*PAKNECONPRVTKN+0*PAKNECONGOVTKN+0*PAKNEGDIFTOTKN+0.0572678299039023*PAKNEEXPGNFSKN+0.267381669083985*PAKNEGDISTKBKN)-0.0736247088197363*PAKNEIMPGNFSKN-0.0407034395686347*PAKNYTAXNINDKN-906311)/(1+0.396041694659877) $">
<polygon fill="#63b8ff" stroke="black" points="1858.5,-815 1714.5,-815 1714.5,-779 1858.5,-779 1858.5,-815"/>
<text text-anchor="start" x="1720.5" y="-792.8" font-family="Times,serif" font-size="14.00" fill="blue">PAKSMAGRCRPSKN:</text>
</a>
</g>
</g>
<!-- PAKSMSRVTRNSKN -->
<g id="node2" class="node">
<title>PAKSMSRVTRNSKN</title>
<g id="a_node2"><a xlink:title="PAKSMSRVTRNSKN
FRML  &lt;&gt; PAKSMSRVTRNSKN = ((1+0.301074862860981)*(0.204687752761289*PAKNECONPRVTKN+0*PAKNECONGOVTKN+0*PAKNEGDIFTOTKN+0.0551862611209703*PAKNEEXPGNFSKN+0*PAKNEGDISTKBKN)--0.0392641863572605*PAKNEIMPGNFSKN-0.0174996684619017*PAKNYTAXNINDKN-0)/(1+1.11680986862739) $">
<polygon fill="#63b8ff" stroke="black" points="1857.5,-761 1715.5,-761 1715.5,-725 1857.5,-725 1857.5,-761"/>
<text text-anchor="start" x="1721.5" y="-738.8" font-family="Times,serif" font-size="14.00" fill="blue">PAKSMSRVTRNSKN:</text>
</a>
</g>
</g>
<!-- PAKNECONOTHRKN -->
<g id="node3" class="node">
<title>PAKNECONOTHRKN</title>
<g id="a_node3"><a xlink:title="Other Consumption
FRML  &lt;&gt; PAKNECONOTHRKN = PAKNECONOTHRSH**(PAKCESENGYCON)*(PAKNECONPRVTKN*(PAKNECONPRVTXN/PAKNECONOTHRXN)**(PAKCESENGYCON)) $">
<polygon fill="#63b8ff" stroke="black" points="1913,-707 1660,-707 1660,-671 1913,-671 1913,-707"/>
<text text-anchor="start" x="1666.5" y="-684.8" font-family="Times,serif" font-size="14.00" fill="blue">PAKNECONOTHRKN:Other Consumption</text>
</a>
</g>
</g>
<!-- PAKSMAGRFSTYKN -->
<g id="node4" class="node">
<title>PAKSMAGRFSTYKN</title>
<g id="a_node4"><a xlink:title="PAKSMAGRFSTYKN
FRML  &lt;&gt; PAKSMAGRFSTYKN = ((1+0.195965019358753)*(0.010131919293849*PAKNECONPRVTKN+0*PAKNECONGOVTKN+0*PAKNEGDIFTOTKN+0.000136733767007103*PAKNEEXPGNFSKN+0.0199955288980741*PAKNEGDISTKBKN)-0.00076829563200478*PAKNEIMPGNFSKN-0.00172030587371022*PAKNYTAXNINDKN-65421)/(1+0.319587584852584) $">
<polygon fill="#63b8ff" stroke="black" points="1858.5,-653 1714.5,-653 1714.5,-617 1858.5,-617 1858.5,-653"/>
<text text-anchor="start" x="1720.5" y="-630.8" font-family="Times,serif" font-size="14.00" fill="blue">PAKSMAGRFSTYKN:</text>
</a>
</g>
</g>
<!-- PAKNEGDETTOTKN -->
<g id="node5" class="node">
<title>PAKNEGDETTOTKN</title>
<g id="a_node5"><a xlink:title="GDE
FRML  &lt;&gt; PAKNEGDETTOTKN = (PAKNECONPRVTKN+PAKNECONGOVTKN+PAKNEGDIFTOTKN+PAKNEGDISTKBKN+PAKNYGDPDISCKN) $">
<polygon fill="#63b8ff" stroke="black" points="1871.5,-599 1701.5,-599 1701.5,-563 1871.5,-563 1871.5,-599"/>
<text text-anchor="start" x="1707.5" y="-576.8" font-family="Times,serif" font-size="14.00" fill="blue">PAKNEGDETTOTKN:GDE</text>
</a>
</g>
</g>
<!-- PAKNYWRTFORMCN -->
<g id="node6" class="node">
<title>PAKNYWRTFORMCN</title>
<g id="a_node6"><a xlink:title="Formal wage
FRML &lt;Z,EXO&gt; PAKNYWRTFORMCN = (PAKNYWRTFORMCN(-1)*EXP(-PAKNYWRTFORMCN_A+ (-0.120164450250183-0.3*(LOG(PAKNYWRTFORMCN(-1))-LOG(PAKNYGDPFCSTXN(-1))-LOG(PAKNYGDPPOTLKN(-1)/PAKLMEMPSTRLCN(-1)))+0.2*((LOG(PAKNYWRTFORMCN(-1)))-(LOG(PAKNYWRTFORMCN(-2))))+(1-0.2)*(0.5*((LOG(PAKNYGDPFCSTXN(-1)))-(LOG(PAKNYGDPFCSTXN(-2))))+0.5*(PAKINFLEXPT/100)+((LOG(PAKNYGDPMKTPKN/PAKLMEMPSTRLCN))-(LOG(PAKNYGDPMKTPKN(-1)/PAKLMEMPSTRLCN(-1)))))-0.2*(PAKLMUNRTOTLCN-PAKLMUNRSTRLCN)/100+0.15233813938029*DURING_2000-0.183411483907703*DURING_2001) )) * (1-PAKNYWRTFORMCN_D)+ PAKNYWRTFORMCN_X*PAKNYWRTFORMCN_D  $">
<polygon fill="#63b8ff" stroke="black" points="233,-464 11,-464 11,-428 233,-428 233,-464"/>
<text text-anchor="start" x="17" y="-441.8" font-family="Times,serif" font-size="14.00" fill="blue">PAKNYWRTFORMCN:Formal wage</text>
</a>
</g>
</g>
<!-- PAKNYWRTTOTLCN -->
<g id="node10" class="node">
<title>PAKNYWRTTOTLCN</title>
<g id="a_node10"><a xlink:title="Wages
FRML  &lt;&gt; PAKNYWRTTOTLCN = (PAKNYWBINFMSH**PAKINFCES*(PAKNYWRTINFMCN)**(1-PAKINFCES)+PAKNYWBFORMSH**PAKINFCES*(PAKNYWRTFORMCN*(1+PAKGGREVDRCTXN/100))**(1-PAKINFCES))**(1/(1-PAKINFCES)) $">
<polygon fill="#63b8ff" stroke="black" points="525,-329 344,-329 344,-293 525,-293 525,-329"/>
<text text-anchor="start" x="350.5" y="-306.8" font-family="Times,serif" font-size="14.00" fill="blue">PAKNYWRTTOTLCN:Wages</text>
</a>
</g>
</g>
<!-- PAKNYWRTFORMCN&#45;&gt;PAKNYWRTTOTLCN -->
<g id="edge27" class="edge">
<title>PAKNYWRTFORMCN-&gt;PAKNYWRTTOTLCN</title>
<g id="a_edge27"><a xlink:href="bogus" xlink:title=" PAKNYWRTFORMCN -&gt; PAKNYWRTTOTLCN Min. att. -35%  max: 45%">
<path fill="none" stroke="black" stroke-width="4.51" d="M230.88,-427.89C235.51,-425.29 239.92,-422.34 244,-419 274.48,-394.04 248.96,-362.26 280,-338 295.5,-325.88 314.58,-318.47 333.96,-314.07"/>
<polygon fill="black" stroke="black" stroke-width="4.51" points="334.76,-317.93 343.79,-312.09 333.21,-310.2 334.76,-317.93"/>
</a>
</g>
</g>
<!-- PAKNECONENGYGN -->
<g id="node7" class="node">
<title>PAKNECONENGYGN</title>
<g id="a_node7"><a xlink:title="Net consumption deflator
FRML  &lt;&gt; PAKNECONENGYGN = (PAKNVCOLPRODSH**(PAKCESENGYPROD)*(PAKNVCOLPRODGN)**(1-PAKCESENGYPROD)+PAKNVGASPRODSH**(PAKCESENGYPROD)*(PAKNVGASPRODGN)**(1-PAKCESENGYPROD)+PAKNVOILPRODSH**(PAKCESENGYPROD)*(PAKNVOILPRODGN)**(1-PAKCESENGYPROD)+PAKNVRENPRODSH**(PAKCESENGYPROD)*(PAKNVRENPRODXN)**(1-PAKCESENGYPROD))**(1/(1-PAKCESENGYPROD)) $">
<polygon fill="#63b8ff" stroke="black" points="577.5,-545 291.5,-545 291.5,-509 577.5,-509 577.5,-545"/>
<text text-anchor="start" x="297.5" y="-522.8" font-family="Times,serif" font-size="14.00" fill="blue">PAKNECONENGYGN:Net consumption deflator</text>
</a>
</g>
</g>
<!-- PAKNECONENGYXN -->
<g id="node26" class="node">
<title>PAKNECONENGYXN</title>
<g id="a_node26"><a xlink:title="Energy Consumption
FRML &lt;Z,EXO&gt; PAKNECONENGYXN = (PAKNECONENGYXN(-1)*EXP(-PAKNECONENGYXN_A+ (((LOG(PAKNECONENGYGN))-(LOG(PAKNECONENGYGN(-1))))+0.0550557534575806*DUMH) )) * (1-PAKNECONENGYXN_D)+ PAKNECONENGYXN_X*PAKNECONENGYXN_D  $">
<polygon fill="#63b8ff" stroke="black" points="900.5,-545 638.5,-545 638.5,-509 900.5,-509 900.5,-545"/>
<text text-anchor="start" x="644.5" y="-522.8" font-family="Times,serif" font-size="14.00" fill="blue">PAKNECONENGYXN:Energy Consumption</text>
</a>
</g>
</g>
<!-- PAKNECONENGYGN&#45;&gt;PAKNECONENGYXN -->
<g id="edge23" class="edge">
<title>PAKNECONENGYGN-&gt;PAKNECONENGYXN</title>
<g id="a_edge23"><a xlink:href="bogus" xlink:title=" PAKNECONENGYGN -&gt; PAKNECONENGYXN Min. att. 0%  max: 100%">
<path fill="none" stroke="black" stroke-width="8" d="M577.69,-527C594.38,-527 611.4,-527 628.06,-527"/>
<polygon fill="black" stroke="black" stroke-width="8" points="628.39,-534 638.39,-527 628.39,-520 628.39,-534"/>
</a>
</g>
</g>
<!-- PAKNYWRTINFMCN -->
<g id="node8" class="node">
<title>PAKNYWRTINFMCN</title>
<g id="a_node8"><a xlink:title="Informal wage
FRML &lt;Z,EXO&gt; PAKNYWRTINFMCN = (PAKNYWRTINFMCN(-1)*EXP(-PAKNYWRTINFMCN_A+ (-0.122614247140616-0.3*(LOG(PAKNYWRTINFMCN(-1))-LOG(PAKNYGDPFCSTXN(-1))-LOG(PAKNYGDPPOTLKN(-1)/PAKLMEMPSTRLCN(-1)))+0.2*((LOG(PAKNYWRTINFMCN(-1)))-(LOG(PAKNYWRTINFMCN(-2))))+(1-0.2)*(0.5*((LOG(PAKNYGDPFCSTXN(-1)))-(LOG(PAKNYGDPFCSTXN(-2))))+0.5*(PAKINFLEXPT/100)+((LOG(PAKNYGDPMKTPKN/PAKLMEMPSTRLCN))-(LOG(PAKNYGDPMKTPKN(-1)/PAKLMEMPSTRLCN(-1)))))-0.2*(PAKLMUNRTOTLCN-PAKLMUNRSTRLCN)/100+0.15347529018182*DURING_2000-0.183372342445734*DURING_2001) )) * (1-PAKNYWRTINFMCN_D)+ PAKNYWRTINFMCN_X*PAKNYWRTINFMCN_D  $">
<polygon fill="#63b8ff" stroke="black" points="235,-410 9,-410 9,-374 235,-374 235,-410"/>
<text text-anchor="start" x="15" y="-387.8" font-family="Times,serif" font-size="14.00" fill="blue">PAKNYWRTINFMCN:Informal wage</text>
</a>
</g>
</g>
<!-- PAKNYWRTINFMCN&#45;&gt;PAKNYWRTTOTLCN -->
<g id="edge22" class="edge">
<title>PAKNYWRTINFMCN-&gt;PAKNYWRTTOTLCN</title>
<g id="a_edge22"><a xlink:href="bogus" xlink:title=" PAKNYWRTINFMCN -&gt; PAKNYWRTTOTLCN Min. att. -63%  max: 79%">
<path fill="none" stroke="black" stroke-width="7.91" d="M220.95,-373.95C228.89,-371.34 236.67,-368.38 244,-365 262.17,-356.63 261.65,-345.95 280,-338 296.84,-330.71 315.52,-325.38 333.9,-321.5"/>
<polygon fill="black" stroke="black" stroke-width="7.91" points="335.31,-328.27 343.77,-319.54 332.61,-314.7 335.31,-328.27"/>
</a>
</g>
</g>
<!-- PAKSMSRVFINSKN -->
<g id="node9" class="node">
<title>PAKSMSRVFINSKN</title>
<g id="a_node9"><a xlink:title="PAKSMSRVFINSKN
FRML  &lt;&gt; PAKSMSRVFINSKN = ((1+1.04148314760779)*(0.0520379651885469*PAKNECONPRVTKN+0*PAKNECONGOVTKN+0*PAKNEGDIFTOTKN+0.00879145012359898*PAKNEEXPGNFSKN+0*PAKNEGDISTKBKN)-0.00594416979264236*PAKNEIMPGNFSKN-0.000103762679145856*PAKNYTAXNINDKN-0)/(1+0.24687745523084) $">
<polygon fill="#63b8ff" stroke="black" points="1855,-545 1718,-545 1718,-509 1855,-509 1855,-545"/>
<text text-anchor="start" x="1724.5" y="-522.8" font-family="Times,serif" font-size="14.00" fill="blue">PAKSMSRVFINSKN:</text>
</a>
</g>
</g>
<!-- PAKLMEMPTOTLCN -->
<g id="node23" class="node">
<title>PAKLMEMPTOTLCN</title>
<g id="a_node23"><a xlink:title="Employment
FRML &lt;Z,EXO&gt; PAKLMEMPTOTLCN = (PAKLMEMPTOTLCN(-1)*EXP(-PAKLMEMPTOTLCN_A+ (-0.345624644563667*(LOG(PAKLMEMPTOTLCN(-1))-LOG(PAKLMEMPSTRLCN(-1)))-0.1*(((LOG(PAKNYWRTTOTLCN/PAKNYGDPFCSTXN))-(LOG(PAKNYWRTTOTLCN(-1)/PAKNYGDPFCSTXN(-1))))-((LOG(PAKNYGDPPOTLKN/PAKLMEMPSTRLCN))-(LOG(PAKNYGDPPOTLKN(-1)/PAKLMEMPSTRLCN(-1)))))-0.0011790007645121+((LOG(PAKLMEMPSTRLCN))-(LOG(PAKLMEMPSTRLCN(-1))))+0.175412878170024*PAKNYGDPGAP_/100+0.0369790799942338*DURING_2010) )) * (1-PAKLMEMPTOTLCN_D)+ PAKLMEMPTOTLCN_X*PAKLMEMPTOTLCN_D  $">
<polygon fill="#63b8ff" stroke="black" points="878,-383 661,-383 661,-347 878,-347 878,-383"/>
<text text-anchor="start" x="667.5" y="-360.8" font-family="Times,serif" font-size="14.00" fill="blue">PAKLMEMPTOTLCN:Employment</text>
</a>
</g>
</g>
<!-- PAKNYWRTTOTLCN&#45;&gt;PAKLMEMPTOTLCN -->
<g id="edge29" class="edge">
<title>PAKNYWRTTOTLCN-&gt;PAKLMEMPTOTLCN</title>
<g id="a_edge29"><a xlink:href="bogus" xlink:title=" PAKNYWRTTOTLCN -&gt; PAKLMEMPTOTLCN Min. att. -72%  max: 0%">
<path fill="none" stroke="black" stroke-width="7.19" d="M525.18,-325.54C563.79,-331.8 609.47,-339.21 650.77,-345.91"/>
<polygon fill="black" stroke="black" stroke-width="7.19" points="650,-352.16 660.88,-347.55 652.02,-339.73 650,-352.16"/>
</a>
</g>
</g>
<!-- PAKNYYWBTOTLCN -->
<g id="node32" class="node">
<title>PAKNYYWBTOTLCN</title>
<g id="a_node32"><a xlink:title="Economy-wide wage bill
FRML  &lt;&gt; PAKNYYWBTOTLCN = PAKNYWRTTOTLCN*PAKLMEMPTOTLCN $">
<polygon fill="#63b8ff" stroke="black" points="1235,-383 950,-383 950,-347 1235,-347 1235,-383"/>
<text text-anchor="start" x="956.5" y="-360.8" font-family="Times,serif" font-size="14.00" fill="blue">PAKNYYWBTOTLCN:Economy-wide wage bill</text>
</a>
</g>
</g>
<!-- PAKNYWRTTOTLCN&#45;&gt;PAKNYYWBTOTLCN -->
<g id="edge25" class="edge">
<title>PAKNYWRTTOTLCN-&gt;PAKNYYWBTOTLCN</title>
<g id="a_edge25"><a xlink:href="bogus" xlink:title=" PAKNYWRTTOTLCN -&gt; PAKNYYWBTOTLCN Min. att. 55%  max: 307%">
<path fill="none" stroke="black" stroke-width="8" d="M525.21,-313.53C621.52,-316.84 778.9,-323.94 914,-338 933.36,-340.01 953.84,-342.65 973.74,-345.49"/>
<polygon fill="black" stroke="black" stroke-width="8" points="972.86,-352.44 983.76,-346.94 974.87,-338.58 972.86,-352.44"/>
</a>
</g>
</g>
<!-- PAKSMINDMNGSKN -->
<g id="node11" class="node">
<title>PAKSMINDMNGSKN</title>
<g id="a_node11"><a xlink:title="PAKSMINDMNGSKN
FRML  &lt;&gt; PAKSMINDMNGSKN = ((1+6.96158341862144)*(0.0132800565666619*PAKNECONPRVTKN+0*PAKNECONGOVTKN+0*PAKNEGDIFTOTKN+0.00704674623894759*PAKNEEXPGNFSKN+0.024122890632682*PAKNEGDISTKBKN)-0.134221966110302*PAKNEIMPGNFSKN-0.500981557895139*PAKNYTAXNINDKN-123652.869264758)/(1+0.200800622280983) $">
<polygon fill="#63b8ff" stroke="black" points="1859.5,-491 1713.5,-491 1713.5,-455 1859.5,-455 1859.5,-491"/>
<text text-anchor="start" x="1719.5" y="-468.8" font-family="Times,serif" font-size="14.00" fill="blue">PAKSMINDMNGSKN:</text>
</a>
</g>
</g>
<!-- PAKNECONPRVTXN -->
<g id="node12" class="node">
<title>PAKNECONPRVTXN</title>
<g id="a_node12"><a xlink:title="Household demand
FRML  &lt;&gt; PAKNECONPRVTXN = ((PAKNECONENGYSH**PAKCESENGYCON)*PAKNECONENGYXN**(1-PAKCESENGYCON)+(PAKNECONOTHRSH**PAKCESENGYCON)*PAKNECONOTHRXN**(1-PAKCESENGYCON))**(1/(1-PAKCESENGYCON)) $">
<polygon fill="#63b8ff" stroke="black" points="1216.5,-491 968.5,-491 968.5,-455 1216.5,-455 1216.5,-491"/>
<text text-anchor="start" x="974.5" y="-468.8" font-family="Times,serif" font-size="14.00" fill="blue">PAKNECONPRVTXN:Household demand</text>
</a>
</g>
</g>
<!-- PAKNECONPRVTKN -->
<g id="node17" class="node">
<title>PAKNECONPRVTKN</title>
<g id="a_node17"><a xlink:title="Household Consumption
FRML &lt;Z,EXO&gt; PAKNECONPRVTKN = (PAKNECONPRVTKN(-1)*EXP(-PAKNECONPRVTKN_A+ (-0.2*(LOG(PAKNECONPRVTKN(-1))-LOG((PAKNYYWBTOTLCN(-1)*(1-PAKGGREVDRCTXN(-1)/100))/PAKNECONPRVTXN(-1)))+1*((LOG((PAKNYYWBTOTLCN*(1-PAKGGREVDRCTXN/100))/PAKNECONPRVTXN))-(LOG((PAKNYYWBTOTLCN(-1)*(1-PAKGGREVDRCTXN(-1)/100))/PAKNECONPRVTXN(-1))))+0.0303228629698929+0.0163839011059956*DURING_2010-0.3*(PAKFMLBLPOLYXN/100-((LOG(PAKNECONPRVTXN))-(LOG(PAKNECONPRVTXN(-1)))))) )) * (1-PAKNECONPRVTKN_D)+ PAKNECONPRVTKN_X*PAKNECONPRVTKN_D  $">
<polygon fill="red" stroke="black" points="1549,-437 1271,-437 1271,-401 1549,-401 1549,-437"/>
<text text-anchor="start" x="1277" y="-414.8" font-family="Times,serif" font-size="14.00" fill="blue">PAKNECONPRVTKN:Household Consumption</text>
</a>
</g>
</g>
<!-- PAKNECONPRVTXN&#45;&gt;PAKNECONPRVTKN -->
<g id="edge10" class="edge">
<title>PAKNECONPRVTXN-&gt;PAKNECONPRVTKN</title>
<g id="a_edge10"><a xlink:href="bogus" xlink:title=" PAKNECONPRVTXN -&gt; PAKNECONPRVTKN Min. att. -119%  max: 64%">
<path fill="none" stroke="black" stroke-width="8" d="M1199,-454.94C1229.38,-449.74 1262.69,-444.04 1293.64,-438.74"/>
<polygon fill="black" stroke="black" stroke-width="8" points="1294.93,-445.63 1303.6,-437.04 1292.57,-431.83 1294.93,-445.63"/>
</a>
</g>
</g>
<!-- PAKNEIMPGNFSXN -->
<g id="node13" class="node">
<title>PAKNEIMPGNFSXN</title>
<g id="a_node13"><a xlink:title="Imports (G&amp;S)
FRML  &lt;&gt; PAKNEIMPGNFSXN = ((PAKNEIMPENGYSH**PAKCESENGYIMPT)*PAKNVENGNIMPXN**(1-PAKCESENGYIMPT)+(PAKNEIMPOTHRSH**PAKCESENGYIMPT)*PAKNEIMPGSNEXN**(1-PAKCESENGYIMPT))**(1/(1-PAKCESENGYIMPT)) $">
<polygon fill="#63b8ff" stroke="black" points="546,-491 323,-491 323,-455 546,-455 546,-491"/>
<text text-anchor="start" x="329.5" y="-468.8" font-family="Times,serif" font-size="14.00" fill="blue">PAKNEIMPGNFSXN:Imports (G&amp;S)</text>
</a>
</g>
</g>
<!-- PAKNECONOTHRXN -->
<g id="node31" class="node">
<title>PAKNECONOTHRXN</title>
<g id="a_node31"><a xlink:title="Non-Energy Consumption
FRML &lt;Z,EXO&gt; PAKNECONOTHRXN = (PAKNECONOTHRXN(-1)*EXP(-PAKNECONOTHRXN_A+ (0.598859116610832*((LOG(PAKNYGDPFCSTXN))-(LOG(PAKNYGDPFCSTXN(-1))))+((PAKGGREVGNFSXN/100)-(PAKGGREVGNFSXN(-1)/100))+(1-0.598859116610832)*((LOG(PAKNEIMPGNFSXN))-(LOG(PAKNEIMPGNFSXN(-1))))+0.2*PAKNYGDPGAP_/100) )) * (1-PAKNECONOTHRXN_D)+ PAKNECONOTHRXN_X*PAKNECONOTHRXN_D  $">
<polygon fill="#63b8ff" stroke="black" points="914,-491 625,-491 625,-455 914,-455 914,-491"/>
<text text-anchor="start" x="631.5" y="-468.8" font-family="Times,serif" font-size="14.00" fill="blue">PAKNECONOTHRXN:Non-Energy Consumption</text>
</a>
</g>
</g>
<!-- PAKNEIMPGNFSXN&#45;&gt;PAKNECONOTHRXN -->
<g id="edge6" class="edge">
<title>PAKNEIMPGNFSXN-&gt;PAKNECONOTHRXN</title>
<g id="a_edge6"><a xlink:href="bogus" xlink:title=" PAKNEIMPGNFSXN -&gt; PAKNECONOTHRXN Min. att. 0%  max: 118%">
<path fill="none" stroke="black" stroke-width="8" d="M546.38,-473C568.3,-473 591.68,-473 614.72,-473"/>
<polygon fill="black" stroke="black" stroke-width="8" points="614.93,-480 624.93,-473 614.93,-466 614.93,-480"/>
</a>
</g>
</g>
<!-- PAKNYGDPMKTPKN -->
<g id="node14" class="node">
<title>PAKNYGDPMKTPKN</title>
<g id="a_node14"><a xlink:title="GDP Expenditure side at market prices
FRML  &lt;&gt; PAKNYGDPMKTPKN = PAKNECONPRVTKN+PAKNECONGOVTKN+PAKNEGDIFTOTKN+PAKNEGDISTKBKN+PAKNEEXPGNFSKN-PAKNEIMPGNFSKN+PAKNYGDPDISCKN+PAKADAP*PAKDISPREPKN $">
<polygon fill="#63b8ff" stroke="black" points="1967,-437 1606,-437 1606,-401 1967,-401 1967,-437"/>
<text text-anchor="start" x="1612.5" y="-414.8" font-family="Times,serif" font-size="14.00" fill="blue">PAKNYGDPMKTPKN:GDP Expenditure side at market prices</text>
</a>
</g>
</g>
<!-- PAKSMSRVHSNGKN -->
<g id="node15" class="node">
<title>PAKSMSRVHSNGKN</title>
<g id="a_node15"><a xlink:title="PAKSMSRVHSNGKN
FRML  &lt;&gt; PAKSMSRVHSNGKN = ((1+0.782809577554843)*(0.0647364660896117*PAKNECONPRVTKN+0*PAKNECONGOVTKN+0.00605333595533851*PAKNEGDIFTOTKN+0.03048358523237*PAKNEEXPGNFSKN+0*PAKNEGDISTKBKN)-0.0244768173208691*PAKNEIMPGNFSKN-0.0684093628903126*PAKNYTAXNINDKN-0)/(1+0.150771193398883) $">
<polygon fill="#63b8ff" stroke="black" points="1859,-383 1714,-383 1714,-347 1859,-347 1859,-383"/>
<text text-anchor="start" x="1720.5" y="-360.8" font-family="Times,serif" font-size="14.00" fill="blue">PAKSMSRVHSNGKN:</text>
</a>
</g>
</g>
<!-- PAKGGREVDRCTXN -->
<g id="node16" class="node">
<title>PAKGGREVDRCTXN</title>
<g id="a_node16"><a xlink:title="Effective tax rates
Exogen">
<polygon fill="yellow" stroke="black" points="244,-356 0,-356 0,-320 244,-320 244,-356"/>
<text text-anchor="start" x="6" y="-333.8" font-family="Times,serif" font-size="14.00" fill="blue">PAKGGREVDRCTXN:Effective tax rates</text>
</a>
</g>
</g>
<!-- PAKGGREVDRCTXN&#45;&gt;PAKNYWRTTOTLCN -->
<g id="edge30" class="edge">
<title>PAKGGREVDRCTXN-&gt;PAKNYWRTTOTLCN</title>
<g id="a_edge30"><a xlink:href="bogus" xlink:title=" PAKGGREVDRCTXN -&gt; PAKNYWRTTOTLCN Min. att. -25%  max: 52%">
<path fill="none" stroke="black" stroke-width="5.18" d="M244.38,-327.45C273.92,-324.88 305.18,-322.16 333.59,-319.69"/>
<polygon fill="black" stroke="black" stroke-width="5.18" points="334.36,-324.17 343.93,-318.79 333.57,-315.14 334.36,-324.17"/>
</a>
</g>
</g>
<!-- PAKNECONPRVTKN&#45;&gt;PAKSMAGRCRPSKN -->
<g id="edge17" class="edge">
<title>PAKNECONPRVTKN-&gt;PAKSMAGRCRPSKN</title>
<g id="a_edge17"><a xlink:href="bogus" xlink:title=" PAKNECONPRVTKN -&gt; PAKSMAGRCRPSKN Min. att. 97%  max: 103%">
<path fill="none" stroke="black" stroke-width="8" d="M1413.96,-437.39C1424.6,-496.89 1466.73,-685.17 1585,-770 1619,-794.39 1664.78,-801.92 1704,-803.01"/>
<polygon fill="black" stroke="black" stroke-width="8" points="1703.99,-810.01 1714.09,-803.16 1704.19,-796.01 1703.99,-810.01"/>
</a>
</g>
</g>
<!-- PAKNECONPRVTKN&#45;&gt;PAKSMSRVTRNSKN -->
<g id="edge18" class="edge">
<title>PAKNECONPRVTKN-&gt;PAKSMSRVTRNSKN</title>
<g id="a_edge18"><a xlink:href="bogus" xlink:title=" PAKNECONPRVTKN -&gt; PAKSMSRVTRNSKN Min. att. 97%  max: 109%">
<path fill="none" stroke="black" stroke-width="8" d="M1415.61,-437.2C1430.13,-490.41 1480.29,-646.29 1585,-716 1619.89,-739.23 1665.82,-746.67 1704.92,-747.99"/>
<polygon fill="black" stroke="black" stroke-width="8" points="1705.08,-754.99 1715.22,-748.21 1705.37,-741 1705.08,-754.99"/>
</a>
</g>
</g>
<!-- PAKNECONPRVTKN&#45;&gt;PAKNECONOTHRKN -->
<g id="edge14" class="edge">
<title>PAKNECONPRVTKN-&gt;PAKNECONOTHRKN</title>
<g id="a_edge14"><a xlink:href="bogus" xlink:title=" PAKNECONPRVTKN -&gt; PAKNECONOTHRKN Min. att. 135%  max: 207%">
<path fill="none" stroke="black" stroke-width="8" d="M1417.98,-437.22C1436.83,-483.73 1493.63,-607.03 1585,-662 1604.53,-673.75 1627.05,-681.28 1649.77,-685.97"/>
<polygon fill="black" stroke="black" stroke-width="8" points="1648.75,-692.9 1659.87,-687.87 1651.34,-679.14 1648.75,-692.9"/>
</a>
</g>
</g>
<!-- PAKNECONPRVTKN&#45;&gt;PAKSMAGRFSTYKN -->
<g id="edge1" class="edge">
<title>PAKNECONPRVTKN-&gt;PAKSMAGRFSTYKN</title>
<g id="a_edge1"><a xlink:href="bogus" xlink:title=" PAKNECONPRVTKN -&gt; PAKSMAGRFSTYKN Min. att. 98%  max: 101%">
<path fill="none" stroke="black" stroke-width="8" d="M1421.51,-437.13C1445.11,-475.99 1506.48,-567.1 1585,-608 1621.31,-626.92 1666.14,-634.21 1704.18,-636.53"/>
<polygon fill="black" stroke="black" stroke-width="8" points="1703.87,-643.52 1714.21,-637.04 1704.58,-629.54 1703.87,-643.52"/>
</a>
</g>
</g>
<!-- PAKNECONPRVTKN&#45;&gt;PAKNEGDETTOTKN -->
<g id="edge16" class="edge">
<title>PAKNECONPRVTKN-&gt;PAKNEGDETTOTKN</title>
<g id="a_edge16"><a xlink:href="bogus" xlink:title=" PAKNECONPRVTKN -&gt; PAKNEGDETTOTKN Min. att. -44%  max: 168%">
<path fill="none" stroke="black" stroke-width="8" d="M1427.74,-437.11C1456.61,-467.07 1519.06,-526.36 1585,-554 1618.17,-567.9 1656.88,-575 1691.39,-578.52"/>
<polygon fill="black" stroke="black" stroke-width="8" points="1690.88,-585.5 1701.48,-579.46 1692.17,-571.56 1690.88,-585.5"/>
</a>
</g>
</g>
<!-- PAKNECONPRVTKN&#45;&gt;PAKSMSRVFINSKN -->
<g id="edge8" class="edge">
<title>PAKNECONPRVTKN-&gt;PAKSMSRVFINSKN</title>
<g id="a_edge8"><a xlink:href="bogus" xlink:title=" PAKNECONPRVTKN -&gt; PAKSMSRVFINSKN Min. att. 99%  max: 101%">
<path fill="none" stroke="black" stroke-width="8" d="M1442.26,-437.09C1476.24,-455.9 1532.71,-484.69 1585,-500 1624.44,-511.54 1669.71,-518.18 1707.24,-521.97"/>
<polygon fill="black" stroke="black" stroke-width="8" points="1706.99,-528.98 1717.61,-522.97 1708.33,-515.05 1706.99,-528.98"/>
</a>
</g>
</g>
<!-- PAKNECONPRVTKN&#45;&gt;PAKSMINDMNGSKN -->
<g id="edge7" class="edge">
<title>PAKNECONPRVTKN-&gt;PAKSMINDMNGSKN</title>
<g id="a_edge7"><a xlink:href="bogus" xlink:title=" PAKNECONPRVTKN -&gt; PAKSMINDMNGSKN Min. att. 68%  max: 132%">
<path fill="none" stroke="black" stroke-width="8" d="M1525.14,-437.05C1545.08,-440.1 1565.64,-443.19 1585,-446 1623.76,-451.62 1666.8,-457.46 1703.03,-462.27"/>
<polygon fill="black" stroke="black" stroke-width="8" points="1702.23,-469.23 1713.06,-463.6 1704.07,-455.35 1702.23,-469.23"/>
</a>
</g>
</g>
<!-- PAKNECONPRVTKN&#45;&gt;PAKNYGDPMKTPKN -->
<g id="edge15" class="edge">
<title>PAKNECONPRVTKN-&gt;PAKNYGDPMKTPKN</title>
<g id="a_edge15"><a xlink:href="bogus" xlink:title=" PAKNECONPRVTKN -&gt; PAKNYGDPMKTPKN Min. att. -24%  max: 247%">
<path fill="none" stroke="black" stroke-width="8" d="M1549.12,-419C1564.25,-419 1579.85,-419 1595.47,-419"/>
<polygon fill="black" stroke="black" stroke-width="8" points="1595.73,-426 1605.73,-419 1595.73,-412 1595.73,-426"/>
</a>
</g>
</g>
<!-- PAKNECONPRVTKN&#45;&gt;PAKSMSRVHSNGKN -->
<g id="edge20" class="edge">
<title>PAKNECONPRVTKN-&gt;PAKSMSRVHSNGKN</title>
<g id="a_edge20"><a xlink:href="bogus" xlink:title=" PAKNECONPRVTKN -&gt; PAKSMSRVHSNGKN Min. att. 95%  max: 105%">
<path fill="none" stroke="black" stroke-width="8" d="M1525.14,-400.95C1545.08,-397.9 1565.64,-394.81 1585,-392 1624.08,-386.34 1667.51,-380.44 1703.92,-375.61"/>
<polygon fill="black" stroke="black" stroke-width="8" points="1705,-382.53 1714,-374.27 1703.17,-368.65 1705,-382.53"/>
</a>
</g>
</g>
<!-- PAKNECONENGYKN -->
<g id="node18" class="node">
<title>PAKNECONENGYKN</title>
<g id="a_node18"><a xlink:title="Energy Consumption
FRML  &lt;&gt; PAKNECONENGYKN = PAKNECONENGYSH**(PAKCESENGYCON)*(PAKNECONPRVTKN*(PAKNECONPRVTXN/PAKNECONENGYXN)**(PAKCESENGYCON)) $">
<polygon fill="#63b8ff" stroke="black" points="1917.5,-329 1655.5,-329 1655.5,-293 1917.5,-293 1917.5,-329"/>
<text text-anchor="start" x="1661.5" y="-306.8" font-family="Times,serif" font-size="14.00" fill="blue">PAKNECONENGYKN:Energy Consumption</text>
</a>
</g>
</g>
<!-- PAKNECONPRVTKN&#45;&gt;PAKNECONENGYKN -->
<g id="edge11" class="edge">
<title>PAKNECONPRVTKN-&gt;PAKNECONENGYKN</title>
<g id="a_edge11"><a xlink:href="bogus" xlink:title=" PAKNECONPRVTKN -&gt; PAKNECONENGYKN Min. att. 9%  max: 72%">
<path fill="none" stroke="black" stroke-width="7.18" d="M1442.26,-400.91C1476.24,-382.1 1532.71,-353.31 1585,-338 1604.26,-332.36 1624.92,-327.89 1645.38,-324.36"/>
<polygon fill="black" stroke="black" stroke-width="7.18" points="1646.57,-330.53 1655.41,-322.69 1644.51,-318.13 1646.57,-330.53"/>
</a>
</g>
</g>
<!-- PAKNECONPRVTCN -->
<g id="node21" class="node">
<title>PAKNECONPRVTCN</title>
<g id="a_node21"><a xlink:title="Household demand
FRML  &lt;&gt; PAKNECONPRVTCN = PAKNECONPRVTKN*PAKNECONPRVTXN $">
<polygon fill="#63b8ff" stroke="black" points="1910,-275 1663,-275 1663,-239 1910,-239 1910,-275"/>
<text text-anchor="start" x="1669.5" y="-252.8" font-family="Times,serif" font-size="14.00" fill="blue">PAKNECONPRVTCN:Household demand</text>
</a>
</g>
</g>
<!-- PAKNECONPRVTKN&#45;&gt;PAKNECONPRVTCN -->
<g id="edge12" class="edge">
<title>PAKNECONPRVTKN-&gt;PAKNECONPRVTCN</title>
<g id="a_edge12"><a xlink:href="bogus" xlink:title=" PAKNECONPRVTKN -&gt; PAKNECONPRVTCN Min. att. -168%  max: 1248%">
<path fill="none" stroke="black" stroke-width="8" d="M1427.74,-400.89C1456.61,-370.93 1519.06,-311.64 1585,-284 1606.26,-275.09 1629.79,-268.98 1653.04,-264.81"/>
<polygon fill="black" stroke="black" stroke-width="8" points="1654.28,-271.7 1662.98,-263.14 1651.96,-257.89 1654.28,-271.7"/>
</a>
</g>
</g>
<!-- PAKSMENGTOTLKN -->
<g id="node22" class="node">
<title>PAKSMENGTOTLKN</title>
<g id="a_node22"><a xlink:title="PAKSMENGTOTLKN
FRML  &lt;&gt; PAKSMENGTOTLKN = ((1+1.65868473220397)*(0.0775261497897936*PAKNECONPRVTKN+0*PAKNECONGOVTKN+0*PAKNEGDIFTOTKN+0.0217448978257548*PAKNEEXPGNFSKN+0.0458991644104248*PAKNEGDISTKBKN)-0.11894699850705*PAKNEIMPGNFSKN--0.50579180838529*PAKNYTAXNINDKN-0)/(1+5.65663938581514) $">
<polygon fill="#63b8ff" stroke="black" points="1859,-221 1714,-221 1714,-185 1859,-185 1859,-221"/>
<text text-anchor="start" x="1720.5" y="-198.8" font-family="Times,serif" font-size="14.00" fill="blue">PAKSMENGTOTLKN:</text>
</a>
</g>
</g>
<!-- PAKNECONPRVTKN&#45;&gt;PAKSMENGTOTLKN -->
<g id="edge5" class="edge">
<title>PAKNECONPRVTKN-&gt;PAKSMENGTOTLKN</title>
<g id="a_edge5"><a xlink:href="bogus" xlink:title=" PAKNECONPRVTKN -&gt; PAKSMENGTOTLKN Min. att. -29%  max: 112%">
<path fill="none" stroke="black" stroke-width="8" d="M1421.51,-400.87C1445.11,-362.01 1506.48,-270.9 1585,-230 1621.17,-211.16 1665.78,-203.85 1703.73,-201.5"/>
<polygon fill="black" stroke="black" stroke-width="8" points="1704.11,-208.49 1713.74,-200.98 1703.39,-194.5 1704.11,-208.49"/>
</a>
</g>
</g>
<!-- PAKSMAGRFSNGKN -->
<g id="node27" class="node">
<title>PAKSMAGRFSNGKN</title>
<g id="a_node27"><a xlink:title="PAKSMAGRFSNGKN
FRML  &lt;&gt; PAKSMAGRFSNGKN = ((1+1.92407325889309)*(0.00246195499563977*PAKNECONPRVTKN+0*PAKNECONGOVTKN+0*PAKNEGDIFTOTKN+0.00130433854799597*PAKNEEXPGNFSKN+0.00497657560072267*PAKNEGDISTKBKN)-1.14989260682794E-05*PAKNEIMPGNFSKN-2.46467171367829E-07*PAKNYTAXNINDKN-26993)/(1+0.506095544048804) $">
<polygon fill="#63b8ff" stroke="black" points="1859,-167 1714,-167 1714,-131 1859,-131 1859,-167"/>
<text text-anchor="start" x="1720.5" y="-144.8" font-family="Times,serif" font-size="14.00" fill="blue">PAKSMAGRFSNGKN:</text>
</a>
</g>
</g>
<!-- PAKNECONPRVTKN&#45;&gt;PAKSMAGRFSNGKN -->
<g id="edge9" class="edge">
<title>PAKNECONPRVTKN-&gt;PAKSMAGRFSNGKN</title>
<g id="a_edge9"><a xlink:href="bogus" xlink:title=" PAKNECONPRVTKN -&gt; PAKSMAGRFSNGKN Min. att. 100%  max: 105%">
<path fill="none" stroke="black" stroke-width="8" d="M1417.98,-400.78C1436.83,-354.27 1493.63,-230.97 1585,-176 1620.22,-154.81 1665.15,-147.35 1703.54,-145.5"/>
<polygon fill="black" stroke="black" stroke-width="8" points="1703.93,-152.49 1713.67,-145.13 1703.42,-138.5 1703.93,-152.49"/>
</a>
</g>
</g>
<!-- PAKSMINDOTHRTKN -->
<g id="node28" class="node">
<title>PAKSMINDOTHRTKN</title>
<g id="a_node28"><a xlink:title="PAKSMINDOTHRTKN
FRML  &lt;&gt; PAKSMINDOTHRTKN = ((1+0.483473985412524)*(0.40172973397176*PAKNECONPRVTKN+0*PAKNECONGOVTKN+0.560459287907094*PAKNEGDIFTOTKN+0.719299486591763*PAKNEEXPGNFSKN+0.620970563578771*PAKNEGDISTKBKN)-0.606734386430279*PAKNEIMPGNFSKN-0.866045585295928*PAKNYTAXNINDKN-2983275.63714814)/(1+2.46379868577176) $">
<polygon fill="#63b8ff" stroke="black" points="1862,-113 1711,-113 1711,-77 1862,-77 1862,-113"/>
<text text-anchor="start" x="1717.5" y="-90.8" font-family="Times,serif" font-size="14.00" fill="blue">PAKSMINDOTHRTKN:</text>
</a>
</g>
</g>
<!-- PAKNECONPRVTKN&#45;&gt;PAKSMINDOTHRTKN -->
<g id="edge3" class="edge">
<title>PAKNECONPRVTKN-&gt;PAKSMINDOTHRTKN</title>
<g id="a_edge3"><a xlink:href="bogus" xlink:title=" PAKNECONPRVTKN -&gt; PAKSMINDOTHRTKN Min. att. 79%  max: 152%">
<path fill="none" stroke="black" stroke-width="8" d="M1415.61,-400.8C1430.13,-347.59 1480.29,-191.71 1585,-122 1618.68,-99.58 1662.65,-91.87 1700.83,-90.17"/>
<polygon fill="black" stroke="black" stroke-width="8" points="1701.14,-97.16 1710.92,-89.85 1700.7,-83.17 1701.14,-97.16"/>
</a>
</g>
</g>
<!-- PAKNECONPRVTKN_FITTED -->
<g id="node29" class="node">
<title>PAKNECONPRVTKN_FITTED</title>
<g id="a_node29"><a xlink:title="Fitted  value:Household Consumption
FRML &lt;FIT&gt; PAKNECONPRVTKN_FITTED = PAKNECONPRVTKN(-1)*EXP( (-0.2*(LOG(PAKNECONPRVTKN(-1))-LOG((PAKNYYWBTOTLCN(-1)*(1-PAKGGREVDRCTXN(-1)/100))/PAKNECONPRVTXN(-1)))+1*((LOG((PAKNYYWBTOTLCN*(1-PAKGGREVDRCTXN/100))/PAKNECONPRVTXN))-(LOG((PAKNYYWBTOTLCN(-1)*(1-PAKGGREVDRCTXN(-1)/100))/PAKNECONPRVTXN(-1))))+0.0303228629698929+0.0163839011059956*DURING_2010-0.3*(PAKFMLBLPOLYXN/100-((LOG(PAKNECONPRVTXN))-(LOG(PAKNECONPRVTXN(-1)))))) ) $">
<polygon fill="#63b8ff" stroke="black" points="1988,-59 1585,-59 1585,-23 1988,-23 1988,-59"/>
<text text-anchor="start" x="1591.5" y="-36.8" font-family="Times,serif" font-size="14.00" fill="blue">PAKNECONPRVTKN_FITTED:Fitted  value:Household Consumption</text>
</a>
</g>
</g>
<!-- PAKNECONPRVTKN&#45;&gt;PAKNECONPRVTKN_FITTED -->
<g id="edge13" class="edge">
<title>PAKNECONPRVTKN-&gt;PAKNECONPRVTKN_FITTED</title>
<g id="a_edge13"><a xlink:href="bogus" xlink:title=" PAKNECONPRVTKN -&gt; PAKNECONPRVTKN_FITTED Min. att. -0%  max: 203%">
<path fill="none" stroke="black" stroke-width="8" d="M1413.96,-400.61C1424.6,-341.11 1466.73,-152.83 1585,-68 1586.86,-66.67 1588.75,-65.39 1590.67,-64.16"/>
<polygon fill="black" stroke="black" stroke-width="8" points="1594.24,-70.17 1599.29,-59.06 1587.12,-58.12 1594.24,-70.17"/>
</a>
</g>
</g>
<!-- PAKNYGDPGAP_ -->
<g id="node19" class="node">
<title>PAKNYGDPGAP_</title>
<g id="a_node19"><a xlink:title="Output Gap (% of Potential GDP)
FRML  &lt;&gt; PAKNYGDPGAP_ = ((PAKNYGDPMKTPKN/PAKNYGDPPOTLKN-1)*100) $">
<polygon fill="#63b8ff" stroke="black" points="589,-437 280,-437 280,-401 589,-401 589,-437"/>
<text text-anchor="start" x="286.5" y="-414.8" font-family="Times,serif" font-size="14.00" fill="blue">PAKNYGDPGAP_:Output Gap (% of Potential GDP)</text>
</a>
</g>
</g>
<!-- PAKNYGDPGAP_&#45;&gt;PAKLMEMPTOTLCN -->
<g id="edge19" class="edge">
<title>PAKNYGDPGAP_-&gt;PAKLMEMPTOTLCN</title>
<g id="a_edge19"><a xlink:href="bogus" xlink:title=" PAKNYGDPGAP_ -&gt; PAKLMEMPTOTLCN Min. att. 0%  max: 151%">
<path fill="none" stroke="black" stroke-width="8" d="M546.85,-400.94C580.32,-395.52 617.14,-389.54 651,-384.05"/>
<polygon fill="black" stroke="black" stroke-width="8" points="652.18,-390.95 660.93,-382.44 649.94,-377.13 652.18,-390.95"/>
</a>
</g>
</g>
<!-- PAKNYWBINFMSH -->
<g id="node20" class="node">
<title>PAKNYWBINFMSH</title>
<g id="a_node20"><a xlink:title="PAKNYWBINFMSH
Exogen">
<polygon fill="yellow" stroke="black" points="190,-302 54,-302 54,-266 190,-266 190,-302"/>
<text text-anchor="start" x="60" y="-279.8" font-family="Times,serif" font-size="14.00" fill="blue">PAKNYWBINFMSH:</text>
</a>
</g>
</g>
<!-- PAKNYWBINFMSH&#45;&gt;PAKNYWRTTOTLCN -->
<g id="edge28" class="edge">
<title>PAKNYWBINFMSH-&gt;PAKNYWRTTOTLCN</title>
<g id="a_edge28"><a xlink:href="bogus" xlink:title=" PAKNYWBINFMSH -&gt; PAKNYWRTTOTLCN Min. att. -25%  max: 52%">
<path fill="none" stroke="black" stroke-width="5.18" d="M190.37,-289.86C232.25,-293.5 286.84,-298.25 333.68,-302.32"/>
<polygon fill="black" stroke="black" stroke-width="5.18" points="333.51,-306.85 343.86,-303.21 334.29,-297.83 333.51,-306.85"/>
</a>
</g>
</g>
<!-- PAKLMEMPTOTLCN&#45;&gt;PAKNYYWBTOTLCN -->
<g id="edge21" class="edge">
<title>PAKLMEMPTOTLCN-&gt;PAKNYYWBTOTLCN</title>
<g id="a_edge21"><a xlink:href="bogus" xlink:title=" PAKLMEMPTOTLCN -&gt; PAKNYYWBTOTLCN Min. att. 2%  max: 167%">
<path fill="none" stroke="black" stroke-width="8" d="M878.28,-365C898,-365 918.92,-365 939.64,-365"/>
<polygon fill="black" stroke="black" stroke-width="8" points="939.8,-372 949.8,-365 939.8,-358 939.8,-372"/>
</a>
</g>
</g>
<!-- PAKNYWBFORMSH -->
<g id="node24" class="node">
<title>PAKNYWBFORMSH</title>
<g id="a_node24"><a xlink:title="PAKNYWBFORMSH
Exogen">
<polygon fill="yellow" stroke="black" points="192.5,-248 51.5,-248 51.5,-212 192.5,-212 192.5,-248"/>
<text text-anchor="start" x="58" y="-225.8" font-family="Times,serif" font-size="14.00" fill="blue">PAKNYWBFORMSH:</text>
</a>
</g>
</g>
<!-- PAKNYWBFORMSH&#45;&gt;PAKNYWRTTOTLCN -->
<g id="edge26" class="edge">
<title>PAKNYWBFORMSH-&gt;PAKNYWRTTOTLCN</title>
<g id="a_edge26"><a xlink:href="bogus" xlink:title=" PAKNYWBFORMSH -&gt; PAKNYWRTTOTLCN Min. att. -25%  max: 52%">
<path fill="none" stroke="black" stroke-width="5.18" d="M192.59,-244.8C209.46,-248.59 227.41,-252.79 244,-257 283.86,-267.12 328.06,-279.64 363.74,-290.07"/>
<polygon fill="black" stroke="black" stroke-width="5.18" points="362.7,-294.49 373.57,-292.96 365.25,-285.8 362.7,-294.49"/>
</a>
</g>
</g>
<!-- PAKINFCES -->
<g id="node25" class="node">
<title>PAKINFCES</title>
<g id="a_node25"><a xlink:title="PAKINFCES
Exogen">
<polygon fill="yellow" stroke="black" points="166.5,-194 77.5,-194 77.5,-158 166.5,-158 166.5,-194"/>
<text text-anchor="start" x="84" y="-171.8" font-family="Times,serif" font-size="14.00" fill="blue">PAKINFCES:</text>
</a>
</g>
</g>
<!-- PAKINFCES&#45;&gt;PAKNYWRTTOTLCN -->
<g id="edge2" class="edge">
<title>PAKINFCES-&gt;PAKNYWRTTOTLCN</title>
<g id="a_edge2"><a xlink:href="bogus" xlink:title=" PAKINFCES -&gt; PAKNYWRTTOTLCN Min. att. -25%  max: 52%">
<path fill="none" stroke="black" stroke-width="5.18" d="M166.76,-182.51C190.17,-186.8 219.21,-193.42 244,-203 301.55,-225.24 362.61,-262.92 399.4,-287.38"/>
<polygon fill="black" stroke="black" stroke-width="5.18" points="396.93,-291.18 407.76,-292.99 401.98,-283.66 396.93,-291.18"/>
</a>
</g>
</g>
<!-- PAKNECONENGYXN&#45;&gt;PAKNECONPRVTXN -->
<g id="edge32" class="edge">
<title>PAKNECONENGYXN-&gt;PAKNECONPRVTXN</title>
<g id="a_edge32"><a xlink:href="bogus" xlink:title=" PAKNECONENGYXN -&gt; PAKNECONPRVTXN Min. att. 0%  max: 29%">
<path fill="none" stroke="black" stroke-width="2.87" d="M877.83,-508.94C908.75,-503.74 942.64,-498.04 974.13,-492.74"/>
<polygon fill="black" stroke="black" stroke-width="2.87" points="974.99,-496.15 984.27,-491.04 973.82,-489.25 974.99,-496.15"/>
</a>
</g>
</g>
<!-- PAKNYGDPFCSTXN -->
<g id="node30" class="node">
<title>PAKNYGDPFCSTXN</title>
<g id="a_node30"><a xlink:title="GDP at factor cost
FRML &lt;Z,EXO&gt; PAKNYGDPFCSTXN = (PAKNYGDPFCSTXN(-1)*EXP(-PAKNYGDPFCSTXN_A+ (0.6*((LOG(PAKNYGDPFCSTXN(-1)))-(LOG(PAKNYGDPFCSTXN(-2))))+(1-0.6)*(0.7*PAKINFLEXPT/100+(1-0.7)*((LOG(PAKPSTAR(-1)))-(LOG(PAKPSTAR(-2)))))+0.25*PAKNYGDPGAP_/100+0.262461811660072*DURING_2000-0.205776950553378*DURING_2001) )) * (1-PAKNYGDPFCSTXN_D)+ PAKNYGDPFCSTXN_X*PAKNYGDPFCSTXN_D  $">
<polygon fill="#63b8ff" stroke="black" points="555.5,-383 313.5,-383 313.5,-347 555.5,-347 555.5,-383"/>
<text text-anchor="start" x="319.5" y="-360.8" font-family="Times,serif" font-size="14.00" fill="blue">PAKNYGDPFCSTXN:GDP at factor cost</text>
</a>
</g>
</g>
<!-- PAKNYGDPFCSTXN&#45;&gt;PAKLMEMPTOTLCN -->
<g id="edge4" class="edge">
<title>PAKNYGDPFCSTXN-&gt;PAKLMEMPTOTLCN</title>
<g id="a_edge4"><a xlink:href="bogus" xlink:title=" PAKNYGDPFCSTXN -&gt; PAKLMEMPTOTLCN Min. att. 0%  max: 21%">
<path fill="none" stroke="black" stroke-width="2.14" d="M555.72,-365C586.6,-365 619.79,-365 650.55,-365"/>
<polygon fill="black" stroke="black" stroke-width="2.14" points="650.89,-368.5 660.89,-365 650.89,-361.5 650.89,-368.5"/>
</a>
</g>
</g>
<!-- PAKNECONOTHRXN&#45;&gt;PAKNECONPRVTXN -->
<g id="edge24" class="edge">
<title>PAKNECONOTHRXN-&gt;PAKNECONPRVTXN</title>
<g id="a_edge24"><a xlink:href="bogus" xlink:title=" PAKNECONOTHRXN -&gt; PAKNECONPRVTXN Min. att. 0%  max: 72%">
<path fill="none" stroke="black" stroke-width="7.18" d="M914.1,-473C928.75,-473 943.59,-473 958.12,-473"/>
<polygon fill="black" stroke="black" stroke-width="7.18" points="958.12,-479.28 968.12,-473 958.12,-466.72 958.12,-479.28"/>
</a>
</g>
</g>
<!-- PAKNYYWBTOTLCN&#45;&gt;PAKNECONPRVTKN -->
<g id="edge31" class="edge">
<title>PAKNYYWBTOTLCN-&gt;PAKNECONPRVTKN</title>
<g id="a_edge31"><a xlink:href="bogus" xlink:title=" PAKNYYWBTOTLCN -&gt; PAKNECONPRVTKN Min. att. 31%  max: 124%">
<path fill="none" stroke="black" stroke-width="8" d="M1199,-383.06C1229.38,-388.26 1262.69,-393.96 1293.64,-399.26"/>
<polygon fill="black" stroke="black" stroke-width="8" points="1292.57,-406.17 1303.6,-400.96 1294.93,-392.37 1292.57,-406.17"/>
</a>
</g>
</g>
</g>
</svg>