<svg xmlns="http://www.w3.org/2000/svg" xmlns:xlink="http://www.w3.org/1999/xlink" width="432pt" height="189pt" viewBox="0.00 0.00 432.00 188.59">
<g id="graph0" class="graph" transform="scale(0.167767 0.167767) rotate(0) translate(4 1120.12)">
<title>TD</title>
<polygon fill="white" stroke="transparent" points="-4,4 -4,-1120.12 2571,-1120.12 2571,4 -4,4"/>
<text text-anchor="middle" x="1283.5" y="-7.8" font-family="Times New Roman,serif" font-size="14.00">PAKNECONPRVTKN</text>
<!-- PAKSMENGTOTLKN -->
<g id="node1" class="node">
<title>PAKSMENGTOTLKN</title>
<g id="a_node1"><a xlink:title="PAKSMENGTOTLKN
FRML  &lt;&gt; PAKSMENGTOTLKN = ((1+1.65868473220397)*(0.0775261497897936*PAKNECONPRVTKN+0*PAKNECONGOVTKN+0*PAKNEGDIFTOTKN+0.0217448978257548*PAKNEEXPGNFSKN+0.0458991644104248*PAKNEGDISTKBKN)-0.11894699850705*PAKNEIMPGNFSKN--0.50579180838529*PAKNYTAXNINDKN-0)/(1+5.65663938581514) $">
<polygon fill="#63b8ff" stroke="black" points="1519,-482.55 1374,-482.55 1374,-446.55 1519,-446.55 1519,-482.55"/>
<text text-anchor="start" x="1380.5" y="-460.35" font-family="Times New Roman,serif" font-size="14.00" fill="blue">PAKSMENGTOTLKN:</text>
</a>
</g>
</g>
<!-- PAKSMSRVHSNGKN -->
<g id="node2" class="node">
<title>PAKSMSRVHSNGKN</title>
<g id="a_node2"><a xlink:title="PAKSMSRVHSNGKN
FRML  &lt;&gt; PAKSMSRVHSNGKN = ((1+0.782809577554843)*(0.0647364660896117*PAKNECONPRVTKN+0*PAKNECONGOVTKN+0.00605333595533851*PAKNEGDIFTOTKN+0.03048358523237*PAKNEEXPGNFSKN+0*PAKNEGDISTKBKN)-0.0244768173208691*PAKNEIMPGNFSKN-0.0684093628903126*PAKNYTAXNINDKN-0)/(1+0.150771193398883) $">
<polygon fill="#63b8ff" stroke="black" points="1519,-428.55 1374,-428.55 1374,-392.55 1519,-392.55 1519,-428.55"/>
<text text-anchor="start" x="1380.5" y="-406.35" font-family="Times New Roman,serif" font-size="14.00" fill="blue">PAKSMSRVHSNGKN:</text>
</a>
</g>
</g>
<!-- PAKSMSRVFINSKN -->
<g id="node3" class="node">
<title>PAKSMSRVFINSKN</title>
<g id="a_node3"><a xlink:title="PAKSMSRVFINSKN
FRML  &lt;&gt; PAKSMSRVFINSKN = ((1+1.04148314760779)*(0.0520379651885469*PAKNECONPRVTKN+0*PAKNECONGOVTKN+0*PAKNEGDIFTOTKN+0.00879145012359898*PAKNEEXPGNFSKN+0*PAKNEGDISTKBKN)-0.00594416979264236*PAKNEIMPGNFSKN-0.000103762679145856*PAKNYTAXNINDKN-0)/(1+0.24687745523084) $">
<polygon fill="#63b8ff" stroke="black" points="1515,-374.55 1378,-374.55 1378,-338.55 1515,-338.55 1515,-374.55"/>
<text text-anchor="start" x="1384.5" y="-352.35" font-family="Times New Roman,serif" font-size="14.00" fill="blue">PAKSMSRVFINSKN:</text>
</a>
</g>
</g>
<!-- PAKSMINDOTHRTKN -->
<g id="node4" class="node">
<title>PAKSMINDOTHRTKN</title>
<g id="a_node4"><a xlink:title="PAKSMINDOTHRTKN
FRML  &lt;&gt; PAKSMINDOTHRTKN = ((1+0.483473985412524)*(0.40172973397176*PAKNECONPRVTKN+0*PAKNECONGOVTKN+0.560459287907094*PAKNEGDIFTOTKN+0.719299486591763*PAKNEEXPGNFSKN+0.620970563578771*PAKNEGDISTKBKN)-0.606734386430279*PAKNEIMPGNFSKN-0.866045585295928*PAKNYTAXNINDKN-2983275.63714814)/(1+2.46379868577176) $">
<polygon fill="#63b8ff" stroke="black" points="1522,-320.55 1371,-320.55 1371,-284.55 1522,-284.55 1522,-320.55"/>
<text text-anchor="start" x="1377.5" y="-298.35" font-family="Times New Roman,serif" font-size="14.00" fill="blue">PAKSMINDOTHRTKN:</text>
</a>
</g>
</g>
<!-- PAKNYGDPFCSTXN -->
<g id="node5" class="node">
<title>PAKNYGDPFCSTXN</title>
<g id="a_node5"><a xlink:title="GDP at factor cost
FRML &lt;Z,EXO&gt; PAKNYGDPFCSTXN = (PAKNYGDPFCSTXN(-1)*EXP(-PAKNYGDPFCSTXN_A+ (0.6*((LOG(PAKNYGDPFCSTXN(-1)))-(LOG(PAKNYGDPFCSTXN(-2))))+(1-0.6)*(0.7*PAKINFLEXPT/100+(1-0.7)*((LOG(PAKPSTAR(-1)))-(LOG(PAKPSTAR(-2)))))+0.25*PAKNYGDPGAP_/100+0.262461811660072*DURING_2000-0.205776950553378*DURING_2001) )) * (1-PAKNYGDPFCSTXN_D)+ PAKNYGDPFCSTXN_X*PAKNYGDPFCSTXN_D  $">
<polygon fill="#63b8ff" stroke="black" points="1959.5,-894.55 1717.5,-894.55 1717.5,-858.55 1959.5,-858.55 1959.5,-894.55"/>
<text text-anchor="start" x="1723.5" y="-872.35" font-family="Times New Roman,serif" font-size="14.00" fill="blue">PAKNYGDPFCSTXN:GDP at factor cost</text>
</a>
</g>
</g>
<!-- PAKLMEMPTOTLCN -->
<g id="node30" class="node">
<title>PAKLMEMPTOTLCN</title>
<g id="a_node30"><a xlink:title="Employment
FRML &lt;Z,EXO&gt; PAKLMEMPTOTLCN = (PAKLMEMPTOTLCN(-1)*EXP(-PAKLMEMPTOTLCN_A+ (-0.345624644563667*(LOG(PAKLMEMPTOTLCN(-1))-LOG(PAKLMEMPSTRLCN(-1)))-0.1*(((LOG(PAKNYWRTTOTLCN/PAKNYGDPFCSTXN))-(LOG(PAKNYWRTTOTLCN(-1)/PAKNYGDPFCSTXN(-1))))-((LOG(PAKNYGDPPOTLKN/PAKLMEMPSTRLCN))-(LOG(PAKNYGDPPOTLKN(-1)/PAKLMEMPSTRLCN(-1)))))-0.0011790007645121+((LOG(PAKLMEMPSTRLCN))-(LOG(PAKLMEMPSTRLCN(-1))))+0.175412878170024*PAKNYGDPGAP_/100+0.0369790799942338*DURING_2010) )) * (1-PAKLMEMPTOTLCN_D)+ PAKLMEMPTOTLCN_X*PAKLMEMPTOTLCN_D  $">
<polygon fill="#63b8ff" stroke="black" points="2246,-894.55 2029,-894.55 2029,-858.55 2246,-858.55 2246,-894.55"/>
<text text-anchor="start" x="2035.5" y="-872.35" font-family="Times New Roman,serif" font-size="14.00" fill="blue">PAKLMEMPTOTLCN:Employment</text>
</a>
</g>
</g>
<!-- PAKNYGDPFCSTXN&#45;&gt;PAKLMEMPTOTLCN -->
<g id="edge20" class="edge">
<title>PAKNYGDPFCSTXN-&gt;PAKLMEMPTOTLCN</title>
<g id="a_edge20"><a xlink:href="bogus" xlink:title=" PAKNYGDPFCSTXN -&gt; PAKLMEMPTOTLCN Min. att. -128%  max: 59%">
<path fill="none" stroke="black" stroke-width="8" d="M1959.87,-876.55C1979.32,-876.55 1999.43,-876.55 2018.81,-876.55"/>
<polygon fill="black" stroke="black" stroke-width="8" points="2018.87,-883.55 2028.87,-876.55 2018.87,-869.55 2018.87,-883.55"/>
</a>
</g>
</g>
<!-- PAKNYGDPPOTLKN -->
<g id="node6" class="node">
<title>PAKNYGDPPOTLKN</title>
<g id="a_node6"><a xlink:title="Potential GDP
FRML  &lt;&gt; PAKNYGDPPOTLKN = PAKNYGDPTFP*(PAKLMEMPSTRLCN**PAKNYYWBTOTLCN_)*(PAKNEGDIKSTKKN(-1)**(1-PAKNYYWBTOTLCN_)) $">
<polygon fill="#63b8ff" stroke="black" points="1557,-844.55 1336,-844.55 1336,-808.55 1557,-808.55 1557,-844.55"/>
<text text-anchor="start" x="1342.5" y="-822.35" font-family="Times New Roman,serif" font-size="14.00" fill="blue">PAKNYGDPPOTLKN:Potential GDP</text>
</a>
</g>
</g>
<!-- PAKNYGDPGAP_ -->
<g id="node22" class="node">
<title>PAKNYGDPGAP_</title>
<g id="a_node22"><a xlink:title="Output Gap (% of Potential GDP)
FRML  &lt;&gt; PAKNYGDPGAP_ = ((PAKNYGDPMKTPKN/PAKNYGDPPOTLKN-1)*100) $">
<polygon fill="#63b8ff" stroke="black" points="1993,-794.55 1684,-794.55 1684,-758.55 1993,-758.55 1993,-794.55"/>
<text text-anchor="start" x="1690.5" y="-772.35" font-family="Times New Roman,serif" font-size="14.00" fill="blue">PAKNYGDPGAP_:Output Gap (% of Potential GDP)</text>
</a>
</g>
</g>
<!-- PAKNYGDPPOTLKN&#45;&gt;PAKNYGDPGAP_ -->
<g id="edge22" class="edge">
<title>PAKNYGDPPOTLKN-&gt;PAKNYGDPGAP_</title>
<g id="a_edge22"><a xlink:href="bogus" xlink:title=" PAKNYGDPPOTLKN -&gt; PAKNYGDPGAP_ Min. att. -129201%  max: 79431%">
<path fill="none" stroke="black" stroke-width="8" d="M1557.17,-812.49C1597.41,-807.33 1643.68,-801.4 1686.89,-795.86"/>
<polygon fill="black" stroke="black" stroke-width="8" points="1687.89,-802.79 1696.92,-794.57 1686.11,-788.9 1687.89,-802.79"/>
</a>
</g>
</g>
<!-- PAKNYGDPPOTLKN&#45;&gt;PAKLMEMPTOTLCN -->
<g id="edge10" class="edge">
<title>PAKNYGDPPOTLKN-&gt;PAKLMEMPTOTLCN</title>
<g id="a_edge10"><a xlink:href="bogus" xlink:title=" PAKNYGDPPOTLKN -&gt; PAKLMEMPTOTLCN Min. att. -92%  max: 605%">
<path fill="none" stroke="black" stroke-width="8" d="M1557.05,-826.55C1667.45,-827.63 1842.56,-832.31 1993,-849.55 2008.85,-851.36 2025.58,-853.92 2041.8,-856.74"/>
<polygon fill="black" stroke="black" stroke-width="8" points="2040.75,-863.66 2051.82,-858.53 2043.21,-849.88 2040.75,-863.66"/>
</a>
</g>
</g>
<!-- PAKNECONPRVTXN -->
<g id="node7" class="node">
<title>PAKNECONPRVTXN</title>
<g id="a_node7"><a xlink:title="Household demand
FRML  &lt;&gt; PAKNECONPRVTXN = ((PAKNECONENGYSH**PAKCESENGYCON)*PAKNECONENGYXN**(1-PAKCESENGYCON)+(PAKNECONOTHRSH**PAKCESENGYCON)*PAKNECONOTHRXN**(1-PAKCESENGYCON))**(1/(1-PAKCESENGYCON)) $">
<polygon fill="#63b8ff" stroke="black" points="895,-270.55 647,-270.55 647,-234.55 895,-234.55 895,-270.55"/>
<text text-anchor="start" x="653" y="-248.35" font-family="Times New Roman,serif" font-size="14.00" fill="blue">PAKNECONPRVTXN:Household demand</text>
</a>
</g>
</g>
<!-- PAKFMLBLPOLYXN -->
<g id="node16" class="node">
<title>PAKFMLBLPOLYXN</title>
<g id="a_node16"><a xlink:title="Policy Rate
FRML &lt;Z,EXO&gt; PAKFMLBLPOLYXN = (-100*PAKFMLBLPOLYXN_A+100* (0.905129162122953*PAKFMLBLPOLYXN(-1)/100+(1-0.905129162122953)*(PAKMPPOLNATRXN/100+1.2*(((LOG(PAKNECONPRVTXN))-(LOG(PAKNECONPRVTXN(-1))))-PAKINFLEXPT/100)+0.5*PAKNYGDPGAP_/100)) ) * (1-PAKFMLBLPOLYXN_D)+ PAKFMLBLPOLYXN_X*PAKFMLBLPOLYXN_D  $">
<polygon fill="#63b8ff" stroke="black" points="2240,-528.55 2035,-528.55 2035,-492.55 2240,-492.55 2240,-528.55"/>
<text text-anchor="start" x="2041.5" y="-506.35" font-family="Times New Roman,serif" font-size="14.00" fill="blue">PAKFMLBLPOLYXN:Policy Rate</text>
</a>
</g>
</g>
<!-- PAKNECONPRVTXN&#45;&gt;PAKFMLBLPOLYXN -->
<g id="edge26" class="edge">
<title>PAKNECONPRVTXN-&gt;PAKFMLBLPOLYXN</title>
<g id="a_edge26"><a xlink:href="bogus" xlink:title=" PAKNECONPRVTXN -&gt; PAKFMLBLPOLYXN Min. att. -94%  max: 1463%">
<path fill="none" stroke="black" stroke-width="8" d="M800.55,-234.54C912.26,-166.46 1329.28,65.08 1648,-59.55 1876.7,-148.98 2062.66,-401.24 2118.96,-483.93"/>
<polygon fill="black" stroke="black" stroke-width="8" points="2113.2,-487.91 2124.6,-492.28 2124.81,-480.08 2113.2,-487.91"/>
</a>
</g>
</g>
<!-- PAKNECONPRVTKN -->
<g id="node26" class="node">
<title>PAKNECONPRVTKN</title>
<g id="a_node26"><a xlink:title="Household Consumption
FRML &lt;Z,EXO&gt; PAKNECONPRVTKN = (PAKNECONPRVTKN(-1)*EXP(-PAKNECONPRVTKN_A+ (-0.2*(LOG(PAKNECONPRVTKN(-1))-LOG((PAKNYYWBTOTLCN(-1)*(1-PAKGGREVDRCTXN(-1)/100))/PAKNECONPRVTXN(-1)))+1*((LOG((PAKNYYWBTOTLCN*(1-PAKGGREVDRCTXN/100))/PAKNECONPRVTXN))-(LOG((PAKNYYWBTOTLCN(-1)*(1-PAKGGREVDRCTXN(-1)/100))/PAKNECONPRVTXN(-1))))+0.0303228629698929+0.0163839011059956*DURING_2010-0.3*(PAKFMLBLPOLYXN/100-((LOG(PAKNECONPRVTXN))-(LOG(PAKNECONPRVTXN(-1)))))) )) * (1-PAKNECONPRVTKN_D)+ PAKNECONPRVTKN_X*PAKNECONPRVTKN_D  $">
<polygon fill="red" stroke="black" points="1209,-505.55 931,-505.55 931,-469.55 1209,-469.55 1209,-505.55"/>
<text text-anchor="start" x="937" y="-483.35" font-family="Times New Roman,serif" font-size="14.00" fill="blue">PAKNECONPRVTKN:Household Consumption</text>
</a>
</g>
</g>
<!-- PAKNECONPRVTXN&#45;&gt;PAKNECONPRVTKN -->
<g id="edge34" class="edge">
<title>PAKNECONPRVTXN-&gt;PAKNECONPRVTKN</title>
<g id="a_edge34"><a xlink:href="bogus" xlink:title=" PAKNECONPRVTXN -&gt; PAKNECONPRVTKN Min. att. -5707%  max: 593%">
<path fill="none" stroke="black" stroke-width="8" d="M794.81,-270.6C847.61,-312.38 978.28,-415.77 1038.15,-463.14"/>
<polygon fill="black" stroke="black" stroke-width="8" points="1033.92,-468.72 1046.11,-469.44 1042.61,-457.74 1033.92,-468.72"/>
</a>
</g>
</g>
<!-- PAKSMSRVTRNSKN -->
<g id="node8" class="node">
<title>PAKSMSRVTRNSKN</title>
<g id="a_node8"><a xlink:title="PAKSMSRVTRNSKN
FRML  &lt;&gt; PAKSMSRVTRNSKN = ((1+0.301074862860981)*(0.204687752761289*PAKNECONPRVTKN+0*PAKNECONGOVTKN+0*PAKNEGDIFTOTKN+0.0551862611209703*PAKNEEXPGNFSKN+0*PAKNEGDISTKBKN)--0.0392641863572605*PAKNEIMPGNFSKN-0.0174996684619017*PAKNYTAXNINDKN-0)/(1+1.11680986862739) $">
<polygon fill="#63b8ff" stroke="black" points="1517.5,-266.55 1375.5,-266.55 1375.5,-230.55 1517.5,-230.55 1517.5,-266.55"/>
<text text-anchor="start" x="1381.5" y="-244.35" font-family="Times New Roman,serif" font-size="14.00" fill="blue">PAKSMSRVTRNSKN:</text>
</a>
</g>
</g>
<!-- PAKSMAGRCRPSKN -->
<g id="node9" class="node">
<title>PAKSMAGRCRPSKN</title>
<g id="a_node9"><a xlink:title="PAKSMAGRCRPSKN
FRML  &lt;&gt; PAKSMAGRCRPSKN = ((1+2.09928590574241)*(0.144287620838506*PAKNECONPRVTKN+0*PAKNECONGOVTKN+0*PAKNEGDIFTOTKN+0.0572678299039023*PAKNEEXPGNFSKN+0.267381669083985*PAKNEGDISTKBKN)-0.0736247088197363*PAKNEIMPGNFSKN-0.0407034395686347*PAKNYTAXNINDKN-906311)/(1+0.396041694659877) $">
<polygon fill="#63b8ff" stroke="black" points="1518.5,-212.55 1374.5,-212.55 1374.5,-176.55 1518.5,-176.55 1518.5,-212.55"/>
<text text-anchor="start" x="1380.5" y="-190.35" font-family="Times New Roman,serif" font-size="14.00" fill="blue">PAKSMAGRCRPSKN:</text>
</a>
</g>
</g>
<!-- PAKNYYWBTOTLCN -->
<g id="node10" class="node">
<title>PAKNYYWBTOTLCN</title>
<g id="a_node10"><a xlink:title="Economy-wide wage bill
FRML  &lt;&gt; PAKNYYWBTOTLCN = PAKNYWRTTOTLCN*PAKLMEMPTOTLCN $">
<polygon fill="#63b8ff" stroke="black" points="2567,-952.55 2282,-952.55 2282,-916.55 2567,-916.55 2567,-952.55"/>
<text text-anchor="start" x="2288.5" y="-930.35" font-family="Times New Roman,serif" font-size="14.00" fill="blue">PAKNYYWBTOTLCN:Economy-wide wage bill</text>
</a>
</g>
</g>
<!-- PAKNYYWBTOTLCN&#45;&gt;PAKNECONPRVTKN -->
<g id="edge17" class="edge">
<title>PAKNYYWBTOTLCN-&gt;PAKNECONPRVTKN</title>
<g id="a_edge17"><a xlink:href="bogus" xlink:title=" PAKNYYWBTOTLCN -&gt; PAKNECONPRVTKN Min. att. -594%  max: 5822%">
<path fill="none" stroke="black" stroke-width="8" d="M2361.13,-952.6C2143.88,-1013.87 1423.89,-1202.78 1245,-1069.55 1152.29,-1000.5 1090.77,-622.92 1075,-515.86"/>
<polygon fill="black" stroke="black" stroke-width="8" points="1081.91,-514.7 1073.54,-505.81 1068.05,-516.71 1081.91,-514.7"/>
</a>
</g>
</g>
<!-- PAKNECONENGYXN -->
<g id="node11" class="node">
<title>PAKNECONENGYXN</title>
<g id="a_node11"><a xlink:title="Energy Consumption
FRML &lt;Z,EXO&gt; PAKNECONENGYXN = (PAKNECONENGYXN(-1)*EXP(-PAKNECONENGYXN_A+ (((LOG(PAKNECONENGYGN))-(LOG(PAKNECONENGYGN(-1))))+0.0550557534575806*DUMH) )) * (1-PAKNECONENGYXN_D)+ PAKNECONENGYXN_X*PAKNECONENGYXN_D  $">
<polygon fill="#63b8ff" stroke="black" points="597.5,-297.55 335.5,-297.55 335.5,-261.55 597.5,-261.55 597.5,-297.55"/>
<text text-anchor="start" x="341.5" y="-275.35" font-family="Times New Roman,serif" font-size="14.00" fill="blue">PAKNECONENGYXN:Energy Consumption</text>
</a>
</g>
</g>
<!-- PAKNECONENGYXN&#45;&gt;PAKNECONPRVTXN -->
<g id="edge33" class="edge">
<title>PAKNECONENGYXN-&gt;PAKNECONPRVTXN</title>
<g id="a_edge33"><a xlink:href="bogus" xlink:title=" PAKNECONENGYXN -&gt; PAKNECONPRVTXN Min. att. 1%  max: 29%">
<path fill="none" stroke="black" stroke-width="2.91" d="M597.54,-267.94C610.43,-266.79 623.53,-265.62 636.45,-264.47"/>
<polygon fill="black" stroke="black" stroke-width="2.91" points="637.12,-267.92 646.77,-263.55 636.5,-260.95 637.12,-267.92"/>
</a>
</g>
</g>
<!-- PAKSMAGRFSTYKN -->
<g id="node12" class="node">
<title>PAKSMAGRFSTYKN</title>
<g id="a_node12"><a xlink:title="PAKSMAGRFSTYKN
FRML  &lt;&gt; PAKSMAGRFSTYKN = ((1+0.195965019358753)*(0.010131919293849*PAKNECONPRVTKN+0*PAKNECONGOVTKN+0*PAKNEGDIFTOTKN+0.000136733767007103*PAKNEEXPGNFSKN+0.0199955288980741*PAKNEGDISTKBKN)-0.00076829563200478*PAKNEIMPGNFSKN-0.00172030587371022*PAKNYTAXNINDKN-65421)/(1+0.319587584852584) $">
<polygon fill="#63b8ff" stroke="black" points="1518.5,-158.55 1374.5,-158.55 1374.5,-122.55 1518.5,-122.55 1518.5,-158.55"/>
<text text-anchor="start" x="1380.5" y="-136.35" font-family="Times New Roman,serif" font-size="14.00" fill="blue">PAKSMAGRFSTYKN:</text>
</a>
</g>
</g>
<!-- PAKNECONPRVTCN -->
<g id="node13" class="node">
<title>PAKNECONPRVTCN</title>
<g id="a_node13"><a xlink:title="Household demand
FRML  &lt;&gt; PAKNECONPRVTCN = PAKNECONPRVTKN*PAKNECONPRVTXN $">
<polygon fill="#63b8ff" stroke="black" points="1570,-104.55 1323,-104.55 1323,-68.55 1570,-68.55 1570,-104.55"/>
<text text-anchor="start" x="1329.5" y="-82.35" font-family="Times New Roman,serif" font-size="14.00" fill="blue">PAKNECONPRVTCN:Household demand</text>
</a>
</g>
</g>
<!-- PAKNECONOTHRXN -->
<g id="node14" class="node">
<title>PAKNECONOTHRXN</title>
<g id="a_node14"><a xlink:title="Non-Energy Consumption
FRML &lt;Z,EXO&gt; PAKNECONOTHRXN = (PAKNECONOTHRXN(-1)*EXP(-PAKNECONOTHRXN_A+ (0.598859116610832*((LOG(PAKNYGDPFCSTXN))-(LOG(PAKNYGDPFCSTXN(-1))))+((PAKGGREVGNFSXN/100)-(PAKGGREVGNFSXN(-1)/100))+(1-0.598859116610832)*((LOG(PAKNEIMPGNFSXN))-(LOG(PAKNEIMPGNFSXN(-1))))+0.2*PAKNYGDPGAP_/100) )) * (1-PAKNECONOTHRXN_D)+ PAKNECONOTHRXN_X*PAKNECONOTHRXN_D  $">
<polygon fill="#63b8ff" stroke="black" points="611,-243.55 322,-243.55 322,-207.55 611,-207.55 611,-243.55"/>
<text text-anchor="start" x="328.5" y="-221.35" font-family="Times New Roman,serif" font-size="14.00" fill="blue">PAKNECONOTHRXN:Non-Energy Consumption</text>
</a>
</g>
</g>
<!-- PAKNECONOTHRXN&#45;&gt;PAKNECONPRVTXN -->
<g id="edge5" class="edge">
<title>PAKNECONOTHRXN-&gt;PAKNECONPRVTXN</title>
<g id="a_edge5"><a xlink:href="bogus" xlink:title=" PAKNECONOTHRXN -&gt; PAKNECONPRVTXN Min. att. 71%  max: 99%">
<path fill="none" stroke="black" stroke-width="8" d="M611.22,-238.38C619.67,-239.13 628.16,-239.89 636.57,-240.64"/>
<polygon fill="black" stroke="black" stroke-width="8" points="636.2,-247.63 646.78,-241.55 637.44,-233.69 636.2,-247.63"/>
</a>
</g>
</g>
<!-- PAKNECONOTHRKN -->
<g id="node15" class="node">
<title>PAKNECONOTHRKN</title>
<g id="a_node15"><a xlink:title="Other Consumption
FRML  &lt;&gt; PAKNECONOTHRKN = PAKNECONOTHRSH**(PAKCESENGYCON)*(PAKNECONPRVTKN*(PAKNECONPRVTXN/PAKNECONOTHRXN)**(PAKCESENGYCON)) $">
<polygon fill="#63b8ff" stroke="black" points="1573,-1006.55 1320,-1006.55 1320,-970.55 1573,-970.55 1573,-1006.55"/>
<text text-anchor="start" x="1326.5" y="-984.35" font-family="Times New Roman,serif" font-size="14.00" fill="blue">PAKNECONOTHRKN:Other Consumption</text>
</a>
</g>
</g>
<!-- PAKFMLBLPOLYXN&#45;&gt;PAKNECONPRVTKN -->
<g id="edge6" class="edge">
<title>PAKFMLBLPOLYXN-&gt;PAKNECONPRVTKN</title>
<g id="a_edge6"><a xlink:href="bogus" xlink:title=" PAKFMLBLPOLYXN -&gt; PAKNECONPRVTKN Min. att. -160%  max: 20%">
<path fill="none" stroke="black" stroke-width="8" d="M2034.89,-508.44C1869.39,-504.99 1531.33,-497.89 1245,-491.55 1236.64,-491.36 1228.06,-491.17 1219.39,-490.98"/>
<polygon fill="black" stroke="black" stroke-width="8" points="1219.35,-483.97 1209.19,-490.75 1219.03,-497.97 1219.35,-483.97"/>
</a>
</g>
</g>
<!-- PAKNYGDPMKTPKN -->
<g id="node17" class="node">
<title>PAKNYGDPMKTPKN</title>
<g id="a_node17"><a xlink:title="GDP Expenditure side at market prices
FRML  &lt;&gt; PAKNYGDPMKTPKN = PAKNECONPRVTKN+PAKNECONGOVTKN+PAKNEGDIFTOTKN+PAKNEGDISTKBKN+PAKNEEXPGNFSKN-PAKNEIMPGNFSKN+PAKNYGDPDISCKN+PAKADAP*PAKDISPREPKN $">
<polygon fill="#63b8ff" stroke="black" points="1627,-790.55 1266,-790.55 1266,-754.55 1627,-754.55 1627,-790.55"/>
<text text-anchor="start" x="1272.5" y="-768.35" font-family="Times New Roman,serif" font-size="14.00" fill="blue">PAKNYGDPMKTPKN:GDP Expenditure side at market prices</text>
</a>
</g>
</g>
<!-- PAKNYGDPMKTPKN&#45;&gt;PAKNYGDPGAP_ -->
<g id="edge3" class="edge">
<title>PAKNYGDPMKTPKN-&gt;PAKNYGDPGAP_</title>
<g id="a_edge3"><a xlink:href="bogus" xlink:title=" PAKNYGDPMKTPKN -&gt; PAKNYGDPGAP_ Min. att. -78601%  max: 128123%">
<path fill="none" stroke="black" stroke-width="8" d="M1627.09,-774.39C1642.67,-774.55 1658.38,-774.71 1673.82,-774.87"/>
<polygon fill="black" stroke="black" stroke-width="8" points="1673.86,-781.87 1683.93,-774.97 1674,-767.87 1673.86,-781.87"/>
</a>
</g>
</g>
<!-- PAKNEGDETTOTKN -->
<g id="node18" class="node">
<title>PAKNEGDETTOTKN</title>
<g id="a_node18"><a xlink:title="GDE
FRML  &lt;&gt; PAKNEGDETTOTKN = (PAKNECONPRVTKN+PAKNECONGOVTKN+PAKNEGDIFTOTKN+PAKNEGDISTKBKN+PAKNYGDPDISCKN) $">
<polygon fill="#63b8ff" stroke="black" points="1531.5,-898.55 1361.5,-898.55 1361.5,-862.55 1531.5,-862.55 1531.5,-898.55"/>
<text text-anchor="start" x="1367.5" y="-876.35" font-family="Times New Roman,serif" font-size="14.00" fill="blue">PAKNEGDETTOTKN:GDE</text>
</a>
</g>
</g>
<!-- PAKNECONENGYGN -->
<g id="node19" class="node">
<title>PAKNECONENGYGN</title>
<g id="a_node19"><a xlink:title="Net consumption deflator
FRML  &lt;&gt; PAKNECONENGYGN = (PAKNVCOLPRODSH**(PAKCESENGYPROD)*(PAKNVCOLPRODGN)**(1-PAKCESENGYPROD)+PAKNVGASPRODSH**(PAKCESENGYPROD)*(PAKNVGASPRODGN)**(1-PAKCESENGYPROD)+PAKNVOILPRODSH**(PAKCESENGYPROD)*(PAKNVOILPRODGN)**(1-PAKCESENGYPROD)+PAKNVRENPRODSH**(PAKCESENGYPROD)*(PAKNVRENPRODXN)**(1-PAKCESENGYPROD))**(1/(1-PAKCESENGYPROD)) $">
<polygon fill="#63b8ff" stroke="black" points="286,-297.55 0,-297.55 0,-261.55 286,-261.55 286,-297.55"/>
<text text-anchor="start" x="6" y="-275.35" font-family="Times New Roman,serif" font-size="14.00" fill="blue">PAKNECONENGYGN:Net consumption deflator</text>
</a>
</g>
</g>
<!-- PAKNECONENGYGN&#45;&gt;PAKNECONENGYXN -->
<g id="edge1" class="edge">
<title>PAKNECONENGYGN-&gt;PAKNECONENGYXN</title>
<g id="a_edge1"><a xlink:href="bogus" xlink:title=" PAKNECONENGYGN -&gt; PAKNECONENGYXN Min. att. -39%  max: 100%">
<path fill="none" stroke="black" stroke-width="8" d="M286.42,-279.55C299.27,-279.55 312.29,-279.55 325.13,-279.55"/>
<polygon fill="black" stroke="black" stroke-width="8" points="325.38,-286.55 335.38,-279.55 325.38,-272.55 325.38,-286.55"/>
</a>
</g>
</g>
<!-- PAKNECONPRVTKN_FITTED -->
<g id="node20" class="node">
<title>PAKNECONPRVTKN_FITTED</title>
<g id="a_node20"><a xlink:title="Fitted  value:Household Consumption
FRML &lt;FIT&gt; PAKNECONPRVTKN_FITTED = PAKNECONPRVTKN(-1)*EXP( (-0.2*(LOG(PAKNECONPRVTKN(-1))-LOG((PAKNYYWBTOTLCN(-1)*(1-PAKGGREVDRCTXN(-1)/100))/PAKNECONPRVTXN(-1)))+1*((LOG((PAKNYYWBTOTLCN*(1-PAKGGREVDRCTXN/100))/PAKNECONPRVTXN))-(LOG((PAKNYYWBTOTLCN(-1)*(1-PAKGGREVDRCTXN(-1)/100))/PAKNECONPRVTXN(-1))))+0.0303228629698929+0.0163839011059956*DURING_2010-0.3*(PAKFMLBLPOLYXN/100-((LOG(PAKNECONPRVTXN))-(LOG(PAKNECONPRVTXN(-1)))))) ) $">
<polygon fill="#63b8ff" stroke="black" points="1648,-736.55 1245,-736.55 1245,-700.55 1648,-700.55 1648,-736.55"/>
<text text-anchor="start" x="1251.5" y="-714.35" font-family="Times New Roman,serif" font-size="14.00" fill="blue">PAKNECONPRVTKN_FITTED:Fitted  value:Household Consumption</text>
</a>
</g>
</g>
<!-- PAKNEIMPGNFSXN -->
<g id="node21" class="node">
<title>PAKNEIMPGNFSXN</title>
<g id="a_node21"><a xlink:title="Imports (G&amp;S)
FRML  &lt;&gt; PAKNEIMPGNFSXN = ((PAKNEIMPENGYSH**PAKCESENGYIMPT)*PAKNVENGNIMPXN**(1-PAKCESENGYIMPT)+(PAKNEIMPOTHRSH**PAKCESENGYIMPT)*PAKNEIMPGSNEXN**(1-PAKCESENGYIMPT))**(1/(1-PAKCESENGYIMPT)) $">
<polygon fill="#63b8ff" stroke="black" points="254.5,-243.55 31.5,-243.55 31.5,-207.55 254.5,-207.55 254.5,-243.55"/>
<text text-anchor="start" x="38" y="-221.35" font-family="Times New Roman,serif" font-size="14.00" fill="blue">PAKNEIMPGNFSXN:Imports (G&amp;S)</text>
</a>
</g>
</g>
<!-- PAKNEIMPGNFSXN&#45;&gt;PAKNECONOTHRXN -->
<g id="edge24" class="edge">
<title>PAKNEIMPGNFSXN-&gt;PAKNECONOTHRXN</title>
<g id="a_edge24"><a xlink:href="bogus" xlink:title=" PAKNEIMPGNFSXN -&gt; PAKNECONOTHRXN Min. att. -10%  max: 114%">
<path fill="none" stroke="black" stroke-width="8" d="M254.64,-225.55C273.05,-225.55 292.43,-225.55 311.68,-225.55"/>
<polygon fill="black" stroke="black" stroke-width="8" points="311.72,-232.55 321.72,-225.55 311.72,-218.55 311.72,-232.55"/>
</a>
</g>
</g>
<!-- PAKNYGDPGAP_&#45;&gt;PAKFMLBLPOLYXN -->
<g id="edge13" class="edge">
<title>PAKNYGDPGAP_-&gt;PAKFMLBLPOLYXN</title>
<g id="a_edge13"><a xlink:href="bogus" xlink:title=" PAKNYGDPGAP_ -&gt; PAKFMLBLPOLYXN Min. att. -15%  max: 83%">
<path fill="none" stroke="black" stroke-width="8" d="M1859.91,-758.26C1911.97,-711.65 2049.69,-588.29 2108.86,-535.3"/>
<polygon fill="black" stroke="black" stroke-width="8" points="2113.56,-540.49 2116.34,-528.61 2104.22,-530.06 2113.56,-540.49"/>
</a>
</g>
</g>
<!-- PAKNYGDPGAP_&#45;&gt;PAKLMEMPTOTLCN -->
<g id="edge11" class="edge">
<title>PAKNYGDPGAP_-&gt;PAKLMEMPTOTLCN</title>
<g id="a_edge11"><a xlink:href="bogus" xlink:title=" PAKNYGDPGAP_ -&gt; PAKLMEMPTOTLCN Min. att. -362%  max: 147%">
<path fill="none" stroke="black" stroke-width="8" d="M1923.07,-794.58C1945.96,-800.24 1970.63,-807 1993,-814.55 2026.27,-825.77 2062.56,-841.48 2090.33,-854.28"/>
<polygon fill="black" stroke="black" stroke-width="8" points="2087.38,-860.63 2099.4,-858.5 2093.28,-847.94 2087.38,-860.63"/>
</a>
</g>
</g>
<!-- PAKSMINDMNGSKN -->
<g id="node23" class="node">
<title>PAKSMINDMNGSKN</title>
<g id="a_node23"><a xlink:title="PAKSMINDMNGSKN
FRML  &lt;&gt; PAKSMINDMNGSKN = ((1+6.96158341862144)*(0.0132800565666619*PAKNECONPRVTKN+0*PAKNECONGOVTKN+0*PAKNEGDIFTOTKN+0.00704674623894759*PAKNEEXPGNFSKN+0.024122890632682*PAKNEGDISTKBKN)-0.134221966110302*PAKNEIMPGNFSKN-0.500981557895139*PAKNYTAXNINDKN-123652.869264758)/(1+0.200800622280983) $">
<polygon fill="#63b8ff" stroke="black" points="1519.5,-682.55 1373.5,-682.55 1373.5,-646.55 1519.5,-646.55 1519.5,-682.55"/>
<text text-anchor="start" x="1379.5" y="-660.35" font-family="Times New Roman,serif" font-size="14.00" fill="blue">PAKSMINDMNGSKN:</text>
</a>
</g>
</g>
<!-- PAKNYWRTFORMCN -->
<g id="node24" class="node">
<title>PAKNYWRTFORMCN</title>
<g id="a_node24"><a xlink:title="Formal wage
FRML &lt;Z,EXO&gt; PAKNYWRTFORMCN = (PAKNYWRTFORMCN(-1)*EXP(-PAKNYWRTFORMCN_A+ (-0.120164450250183-0.3*(LOG(PAKNYWRTFORMCN(-1))-LOG(PAKNYGDPFCSTXN(-1))-LOG(PAKNYGDPPOTLKN(-1)/PAKLMEMPSTRLCN(-1)))+0.2*((LOG(PAKNYWRTFORMCN(-1)))-(LOG(PAKNYWRTFORMCN(-2))))+(1-0.2)*(0.5*((LOG(PAKNYGDPFCSTXN(-1)))-(LOG(PAKNYGDPFCSTXN(-2))))+0.5*(PAKINFLEXPT/100)+((LOG(PAKNYGDPMKTPKN/PAKLMEMPSTRLCN))-(LOG(PAKNYGDPMKTPKN(-1)/PAKLMEMPSTRLCN(-1)))))-0.2*(PAKLMUNRTOTLCN-PAKLMUNRSTRLCN)/100+0.15233813938029*DURING_2000-0.183411483907703*DURING_2001) )) * (1-PAKNYWRTFORMCN_D)+ PAKNYWRTFORMCN_X*PAKNYWRTFORMCN_D  $">
<polygon fill="#63b8ff" stroke="black" points="1557.5,-952.55 1335.5,-952.55 1335.5,-916.55 1557.5,-916.55 1557.5,-952.55"/>
<text text-anchor="start" x="1341.5" y="-930.35" font-family="Times New Roman,serif" font-size="14.00" fill="blue">PAKNYWRTFORMCN:Formal wage</text>
</a>
</g>
</g>
<!-- PAKNYWRTTOTLCN -->
<g id="node27" class="node">
<title>PAKNYWRTTOTLCN</title>
<g id="a_node27"><a xlink:title="Wages
FRML  &lt;&gt; PAKNYWRTTOTLCN = (PAKNYWBINFMSH**PAKINFCES*(PAKNYWRTINFMCN)**(1-PAKINFCES)+PAKNYWBFORMSH**PAKINFCES*(PAKNYWRTFORMCN*(1+PAKGGREVDRCTXN/100))**(1-PAKINFCES))**(1/(1-PAKINFCES)) $">
<polygon fill="#63b8ff" stroke="black" points="1929,-952.55 1748,-952.55 1748,-916.55 1929,-916.55 1929,-952.55"/>
<text text-anchor="start" x="1754.5" y="-930.35" font-family="Times New Roman,serif" font-size="14.00" fill="blue">PAKNYWRTTOTLCN:Wages</text>
</a>
</g>
</g>
<!-- PAKNYWRTFORMCN&#45;&gt;PAKNYWRTTOTLCN -->
<g id="edge9" class="edge">
<title>PAKNYWRTFORMCN-&gt;PAKNYWRTTOTLCN</title>
<g id="a_edge9"><a xlink:href="bogus" xlink:title=" PAKNYWRTFORMCN -&gt; PAKNYWRTTOTLCN Min. att. 21%  max: 21%">
<path fill="none" stroke="black" stroke-width="2.13" d="M1557.69,-934.55C1614.31,-934.55 1682.78,-934.55 1737.81,-934.55"/>
<polygon fill="black" stroke="black" stroke-width="2.13" points="1737.92,-938.05 1747.92,-934.55 1737.92,-931.05 1737.92,-938.05"/>
</a>
</g>
</g>
<!-- PAKNECONENGYKN -->
<g id="node25" class="node">
<title>PAKNECONENGYKN</title>
<g id="a_node25"><a xlink:title="Energy Consumption
FRML  &lt;&gt; PAKNECONENGYKN = PAKNECONENGYSH**(PAKCESENGYCON)*(PAKNECONPRVTKN*(PAKNECONPRVTXN/PAKNECONENGYXN)**(PAKCESENGYCON)) $">
<polygon fill="#63b8ff" stroke="black" points="1577.5,-628.55 1315.5,-628.55 1315.5,-592.55 1577.5,-592.55 1577.5,-628.55"/>
<text text-anchor="start" x="1321.5" y="-606.35" font-family="Times New Roman,serif" font-size="14.00" fill="blue">PAKNECONENGYKN:Energy Consumption</text>
</a>
</g>
</g>
<!-- PAKNECONPRVTKN&#45;&gt;PAKSMENGTOTLKN -->
<g id="edge15" class="edge">
<title>PAKNECONPRVTKN-&gt;PAKSMENGTOTLKN</title>
<g id="a_edge15"><a xlink:href="bogus" xlink:title=" PAKNECONPRVTKN -&gt; PAKSMENGTOTLKN Min. att. -14%  max: 2187%">
<path fill="none" stroke="black" stroke-width="8" d="M1209.12,-479.06C1261.16,-475.87 1318.64,-472.34 1363.89,-469.56"/>
<polygon fill="black" stroke="black" stroke-width="8" points="1364.39,-476.54 1373.94,-468.94 1363.53,-462.57 1364.39,-476.54"/>
</a>
</g>
</g>
<!-- PAKNECONPRVTKN&#45;&gt;PAKSMSRVHSNGKN -->
<g id="edge21" class="edge">
<title>PAKNECONPRVTKN-&gt;PAKSMSRVHSNGKN</title>
<g id="a_edge21"><a xlink:href="bogus" xlink:title=" PAKNECONPRVTKN -&gt; PAKSMSRVHSNGKN Min. att. 34%  max: 147%">
<path fill="none" stroke="black" stroke-width="8" d="M1126.12,-469.47C1160.08,-458.9 1204.7,-446 1245,-437.55 1283.65,-429.44 1327.02,-423.24 1363.51,-418.85"/>
<polygon fill="black" stroke="black" stroke-width="8" points="1364.51,-425.78 1373.62,-417.65 1362.86,-411.87 1364.51,-425.78"/>
</a>
</g>
</g>
<!-- PAKNECONPRVTKN&#45;&gt;PAKSMSRVFINSKN -->
<g id="edge19" class="edge">
<title>PAKNECONPRVTKN-&gt;PAKSMSRVFINSKN</title>
<g id="a_edge19"><a xlink:href="bogus" xlink:title=" PAKNECONPRVTKN -&gt; PAKSMSRVFINSKN Min. att. -104%  max: 125%">
<path fill="none" stroke="black" stroke-width="8" d="M1094.23,-469.41C1126.21,-445.48 1186.53,-403.99 1245,-383.55 1283.94,-369.93 1329.36,-363.13 1367.11,-359.75"/>
<polygon fill="black" stroke="black" stroke-width="8" points="1368.15,-366.69 1377.54,-358.89 1367,-352.74 1368.15,-366.69"/>
</a>
</g>
</g>
<!-- PAKNECONPRVTKN&#45;&gt;PAKSMINDOTHRTKN -->
<g id="edge30" class="edge">
<title>PAKNECONPRVTKN-&gt;PAKSMINDOTHRTKN</title>
<g id="a_edge30"><a xlink:href="bogus" xlink:title=" PAKNECONPRVTKN -&gt; PAKSMINDOTHRTKN Min. att. -11779%  max: 971%">
<path fill="none" stroke="black" stroke-width="8" d="M1084.66,-469.32C1111.29,-435.33 1173.79,-362.69 1245,-329.55 1280.66,-312.95 1323.48,-305.71 1360.38,-302.81"/>
<polygon fill="black" stroke="black" stroke-width="8" points="1361.12,-309.78 1370.62,-302.11 1360.16,-295.81 1361.12,-309.78"/>
</a>
</g>
</g>
<!-- PAKNECONPRVTKN&#45;&gt;PAKSMSRVTRNSKN -->
<g id="edge8" class="edge">
<title>PAKNECONPRVTKN-&gt;PAKSMSRVTRNSKN</title>
<g id="a_edge8"><a xlink:href="bogus" xlink:title=" PAKNECONPRVTKN -&gt; PAKSMSRVTRNSKN Min. att. 87%  max: 593%">
<path fill="none" stroke="black" stroke-width="8" d="M1079.75,-469.48C1101.23,-427.31 1161,-322.39 1245,-275.55 1281.19,-255.37 1326.59,-248.05 1365.04,-246.03"/>
<polygon fill="black" stroke="black" stroke-width="8" points="1365.47,-253.02 1375.17,-245.61 1364.89,-239.03 1365.47,-253.02"/>
</a>
</g>
</g>
<!-- PAKNECONPRVTKN&#45;&gt;PAKSMAGRCRPSKN -->
<g id="edge18" class="edge">
<title>PAKNECONPRVTKN-&gt;PAKSMAGRCRPSKN</title>
<g id="a_edge18"><a xlink:href="bogus" xlink:title=" PAKNECONPRVTKN -&gt; PAKSMAGRCRPSKN Min. att. -25%  max: 208%">
<path fill="none" stroke="black" stroke-width="8" d="M1076.82,-469.46C1093.73,-420.11 1147.92,-282.78 1245,-221.55 1280.04,-199.45 1325.36,-191.98 1364.05,-190.35"/>
<polygon fill="black" stroke="black" stroke-width="8" points="1364.46,-197.34 1374.25,-190.05 1364.04,-183.35 1364.46,-197.34"/>
</a>
</g>
</g>
<!-- PAKNECONPRVTKN&#45;&gt;PAKSMAGRFSTYKN -->
<g id="edge12" class="edge">
<title>PAKNECONPRVTKN-&gt;PAKSMAGRFSTYKN</title>
<g id="a_edge12"><a xlink:href="bogus" xlink:title=" PAKNECONPRVTKN -&gt; PAKSMAGRFSTYKN Min. att. 96%  max: 371%">
<path fill="none" stroke="black" stroke-width="8" d="M1074.87,-469.18C1087.72,-413.15 1134.6,-243.61 1245,-167.55 1279.38,-143.86 1325.07,-136.35 1364.14,-135.1"/>
<polygon fill="black" stroke="black" stroke-width="8" points="1364.58,-142.09 1374.45,-134.91 1364.32,-128.09 1364.58,-142.09"/>
</a>
</g>
</g>
<!-- PAKNECONPRVTKN&#45;&gt;PAKNECONPRVTCN -->
<g id="edge25" class="edge">
<title>PAKNECONPRVTKN-&gt;PAKNECONPRVTCN</title>
<g id="a_edge25"><a xlink:href="bogus" xlink:title=" PAKNECONPRVTKN -&gt; PAKNECONPRVTCN Min. att. -720%  max: 6450%">
<path fill="none" stroke="black" stroke-width="8" d="M1073.36,-469.3C1082.38,-407.52 1120.72,-205.04 1245,-113.55 1264.7,-99.04 1288.52,-90.43 1312.77,-85.58"/>
<polygon fill="black" stroke="black" stroke-width="8" points="1314.19,-92.44 1322.8,-83.79 1311.73,-78.66 1314.19,-92.44"/>
</a>
</g>
</g>
<!-- PAKNECONPRVTKN&#45;&gt;PAKNECONOTHRKN -->
<g id="edge4" class="edge">
<title>PAKNECONPRVTKN-&gt;PAKNECONOTHRKN</title>
<g id="a_edge4"><a xlink:href="bogus" xlink:title=" PAKNECONPRVTKN -&gt; PAKNECONOTHRKN Min. att. -12056%  max: 323%">
<path fill="none" stroke="black" stroke-width="8" d="M1071.43,-505.87C1074.2,-577.53 1094.61,-840.82 1245,-961.55 1263.57,-976.46 1286.38,-985.36 1309.86,-990.4"/>
<polygon fill="black" stroke="black" stroke-width="8" points="1308.83,-997.33 1319.96,-992.33 1311.45,-983.58 1308.83,-997.33"/>
</a>
</g>
</g>
<!-- PAKNECONPRVTKN&#45;&gt;PAKNYGDPMKTPKN -->
<g id="edge2" class="edge">
<title>PAKNECONPRVTKN-&gt;PAKNYGDPMKTPKN</title>
<g id="a_edge2"><a xlink:href="bogus" xlink:title=" PAKNECONPRVTKN -&gt; PAKNYGDPMKTPKN Min. att. -1557%  max: 290%">
<path fill="none" stroke="black" stroke-width="8" d="M1077.24,-505.8C1094.86,-554.28 1149.99,-686.55 1245,-745.55 1248.69,-747.84 1252.5,-749.97 1256.39,-751.96"/>
<polygon fill="black" stroke="black" stroke-width="8" points="1253.61,-758.39 1265.64,-756.33 1259.59,-745.73 1253.61,-758.39"/>
</a>
</g>
</g>
<!-- PAKNECONPRVTKN&#45;&gt;PAKNEGDETTOTKN -->
<g id="edge32" class="edge">
<title>PAKNECONPRVTKN-&gt;PAKNEGDETTOTKN</title>
<g id="a_edge32"><a xlink:href="bogus" xlink:title=" PAKNECONPRVTKN -&gt; PAKNEGDETTOTKN Min. att. -2283%  max: 2484%">
<path fill="none" stroke="black" stroke-width="8" d="M1073.56,-505.84C1083.13,-566.83 1122.81,-764.38 1245,-853.55 1275.21,-875.6 1314.98,-883.97 1351.13,-886.24"/>
<polygon fill="black" stroke="black" stroke-width="8" points="1350.9,-893.23 1361.22,-886.72 1351.57,-879.25 1350.9,-893.23"/>
</a>
</g>
</g>
<!-- PAKNECONPRVTKN&#45;&gt;PAKNECONPRVTKN_FITTED -->
<g id="edge7" class="edge">
<title>PAKNECONPRVTKN-&gt;PAKNECONPRVTKN_FITTED</title>
<g id="a_edge7"><a xlink:href="bogus" xlink:title=" PAKNECONPRVTKN -&gt; PAKNECONPRVTKN_FITTED Min. att. -786%  max: 175%">
<path fill="none" stroke="black" stroke-width="8" d="M1080.43,-505.85C1102.74,-547.04 1163.06,-646.86 1245,-691.55 1248.1,-693.24 1251.27,-694.84 1254.49,-696.35"/>
<polygon fill="black" stroke="black" stroke-width="8" points="1251.74,-702.79 1263.71,-700.39 1257.36,-689.96 1251.74,-702.79"/>
</a>
</g>
</g>
<!-- PAKNECONPRVTKN&#45;&gt;PAKSMINDMNGSKN -->
<g id="edge28" class="edge">
<title>PAKNECONPRVTKN-&gt;PAKSMINDMNGSKN</title>
<g id="a_edge28"><a xlink:href="bogus" xlink:title=" PAKNECONPRVTKN -&gt; PAKSMINDMNGSKN Min. att. -1229%  max: 1716%">
<path fill="none" stroke="black" stroke-width="8" d="M1085.52,-505.6C1112.86,-538.18 1175.53,-606.3 1245,-637.55 1281.6,-654.01 1325.47,-661.15 1362.83,-664.02"/>
<polygon fill="black" stroke="black" stroke-width="8" points="1362.73,-671.03 1373.18,-664.72 1363.68,-657.06 1362.73,-671.03"/>
</a>
</g>
</g>
<!-- PAKNECONPRVTKN&#45;&gt;PAKNECONENGYKN -->
<g id="edge14" class="edge">
<title>PAKNECONPRVTKN-&gt;PAKNECONENGYKN</title>
<g id="a_edge14"><a xlink:href="bogus" xlink:title=" PAKNECONPRVTKN -&gt; PAKNECONENGYKN Min. att. -699%  max: 3889%">
<path fill="none" stroke="black" stroke-width="8" d="M1096.42,-505.57C1129.13,-527.78 1188.49,-564.88 1245,-583.55 1264.13,-589.87 1284.76,-594.71 1305.24,-598.42"/>
<polygon fill="black" stroke="black" stroke-width="8" points="1304.24,-605.35 1315.28,-600.15 1306.62,-591.55 1304.24,-605.35"/>
</a>
</g>
</g>
<!-- PAKSMAGRFSNGKN -->
<g id="node29" class="node">
<title>PAKSMAGRFSNGKN</title>
<g id="a_node29"><a xlink:title="PAKSMAGRFSNGKN
FRML  &lt;&gt; PAKSMAGRFSNGKN = ((1+1.92407325889309)*(0.00246195499563977*PAKNECONPRVTKN+0*PAKNECONGOVTKN+0*PAKNEGDIFTOTKN+0.00130433854799597*PAKNEEXPGNFSKN+0.00497657560072267*PAKNEGDISTKBKN)-1.14989260682794E-05*PAKNEIMPGNFSKN-2.46467171367829E-07*PAKNYTAXNINDKN-26993)/(1+0.506095544048804) $">
<polygon fill="#63b8ff" stroke="black" points="1519,-574.55 1374,-574.55 1374,-538.55 1519,-538.55 1519,-574.55"/>
<text text-anchor="start" x="1380.5" y="-552.35" font-family="Times New Roman,serif" font-size="14.00" fill="blue">PAKSMAGRFSNGKN:</text>
</a>
</g>
</g>
<!-- PAKNECONPRVTKN&#45;&gt;PAKSMAGRFSNGKN -->
<g id="edge31" class="edge">
<title>PAKNECONPRVTKN-&gt;PAKSMAGRFSNGKN</title>
<g id="a_edge31"><a xlink:href="bogus" xlink:title=" PAKNECONPRVTKN -&gt; PAKSMAGRFSNGKN Min. att. -29%  max: 170%">
<path fill="none" stroke="black" stroke-width="8" d="M1151.83,-505.64C1181.11,-511.95 1214.49,-518.87 1245,-524.55 1283.96,-531.79 1327.37,-538.85 1363.81,-544.48"/>
<polygon fill="black" stroke="black" stroke-width="8" points="1362.95,-551.43 1373.89,-546.03 1365.07,-537.59 1362.95,-551.43"/>
</a>
</g>
</g>
<!-- PAKNYWRTTOTLCN&#45;&gt;PAKNYYWBTOTLCN -->
<g id="edge29" class="edge">
<title>PAKNYWRTTOTLCN-&gt;PAKNYYWBTOTLCN</title>
<g id="a_edge29"><a xlink:href="bogus" xlink:title=" PAKNYWRTTOTLCN -&gt; PAKNYYWBTOTLCN Min. att. 16%  max: 106%">
<path fill="none" stroke="black" stroke-width="8" d="M1929.15,-934.55C2020.23,-934.55 2162.98,-934.55 2271.72,-934.55"/>
<polygon fill="black" stroke="black" stroke-width="8" points="2271.8,-941.55 2281.8,-934.55 2271.8,-927.55 2271.8,-941.55"/>
</a>
</g>
</g>
<!-- PAKNYWRTTOTLCN&#45;&gt;PAKLMEMPTOTLCN -->
<g id="edge23" class="edge">
<title>PAKNYWRTTOTLCN-&gt;PAKLMEMPTOTLCN</title>
<g id="a_edge23"><a xlink:href="bogus" xlink:title=" PAKNYWRTTOTLCN -&gt; PAKLMEMPTOTLCN Min. att. -1554%  max: 237%">
<path fill="none" stroke="black" stroke-width="8" d="M1929.01,-917.07C1962.12,-910.6 1999.91,-903.22 2034.08,-896.55"/>
<polygon fill="black" stroke="black" stroke-width="8" points="2035.61,-903.38 2044.08,-894.59 2032.93,-889.64 2035.61,-903.38"/>
</a>
</g>
</g>
<!-- PAKNYWRTINFMCN -->
<g id="node28" class="node">
<title>PAKNYWRTINFMCN</title>
<g id="a_node28"><a xlink:title="Informal wage
FRML &lt;Z,EXO&gt; PAKNYWRTINFMCN = (PAKNYWRTINFMCN(-1)*EXP(-PAKNYWRTINFMCN_A+ (-0.122614247140616-0.3*(LOG(PAKNYWRTINFMCN(-1))-LOG(PAKNYGDPFCSTXN(-1))-LOG(PAKNYGDPPOTLKN(-1)/PAKLMEMPSTRLCN(-1)))+0.2*((LOG(PAKNYWRTINFMCN(-1)))-(LOG(PAKNYWRTINFMCN(-2))))+(1-0.2)*(0.5*((LOG(PAKNYGDPFCSTXN(-1)))-(LOG(PAKNYGDPFCSTXN(-2))))+0.5*(PAKINFLEXPT/100)+((LOG(PAKNYGDPMKTPKN/PAKLMEMPSTRLCN))-(LOG(PAKNYGDPMKTPKN(-1)/PAKLMEMPSTRLCN(-1)))))-0.2*(PAKLMUNRTOTLCN-PAKLMUNRSTRLCN)/100+0.15347529018182*DURING_2000-0.183372342445734*DURING_2001) )) * (1-PAKNYWRTINFMCN_D)+ PAKNYWRTINFMCN_X*PAKNYWRTINFMCN_D  $">
<polygon fill="#63b8ff" stroke="black" points="1559.5,-1060.55 1333.5,-1060.55 1333.5,-1024.55 1559.5,-1024.55 1559.5,-1060.55"/>
<text text-anchor="start" x="1339.5" y="-1038.35" font-family="Times New Roman,serif" font-size="14.00" fill="blue">PAKNYWRTINFMCN:Informal wage</text>
</a>
</g>
</g>
<!-- PAKNYWRTINFMCN&#45;&gt;PAKNYWRTTOTLCN -->
<g id="edge16" class="edge">
<title>PAKNYWRTINFMCN-&gt;PAKNYWRTTOTLCN</title>
<g id="a_edge16"><a xlink:href="bogus" xlink:title=" PAKNYWRTINFMCN -&gt; PAKNYWRTTOTLCN Min. att. 79%  max: 80%">
<path fill="none" stroke="black" stroke-width="7.95" d="M1559.67,-1032.87C1588.75,-1028.89 1619.81,-1023.32 1648,-1015.55 1699.83,-1001.26 1756.11,-975.84 1793.75,-957.28"/>
<polygon fill="black" stroke="black" stroke-width="7.95" points="1797.06,-963.4 1802.9,-952.72 1790.85,-950.95 1797.06,-963.4"/>
</a>
</g>
</g>
<!-- PAKLMEMPTOTLCN&#45;&gt;PAKNYYWBTOTLCN -->
<g id="edge27" class="edge">
<title>PAKLMEMPTOTLCN-&gt;PAKNYYWBTOTLCN</title>
<g id="a_edge27"><a xlink:href="bogus" xlink:title=" PAKLMEMPTOTLCN -&gt; PAKNYYWBTOTLCN Min. att. -6%  max: 84%">
<path fill="none" stroke="black" stroke-width="8" d="M2227.11,-894.58C2258.08,-900.88 2293.02,-907.99 2324.76,-914.45"/>
<polygon fill="black" stroke="black" stroke-width="8" points="2323.75,-921.39 2334.94,-916.52 2326.54,-907.67 2323.75,-921.39"/>
</a>
</g>
</g>
</g>
</svg>