<svg xmlns="http://www.w3.org/2000/svg" xmlns:xlink="http://www.w3.org/1999/xlink" width="432pt" height="197pt" viewBox="0.00 0.00 432.00 197.05">
<g id="graph0" class="graph" transform="scale(0.188564 0.188564) rotate(0) translate(4 1041.03)">
<title>TD</title>
<polygon fill="white" stroke="transparent" points="-4,4 -4,-1041.03 2287,-1041.03 2287,4 -4,4"/>
<text text-anchor="middle" x="1141.5" y="-7.8" font-family="Times New Roman,serif" font-size="14.00">PAKNECONPRVTKN</text>
<!-- PAKNYYWBTOTLCN -->
<g id="node1" class="node">
<title>PAKNYYWBTOTLCN</title>
<g id="a_node1"><a xlink:title="Economy-wide wage bill
FRML  &lt;&gt; PAKNYYWBTOTLCN = PAKNYWRTTOTLCN*PAKLMEMPTOTLCN $">
<polygon fill="#63b8ff" stroke="black" points="932,-109 647,-109 647,-73 932,-73 932,-109"/>
<text text-anchor="start" x="653.5" y="-86.8" font-family="Times New Roman,serif" font-size="14.00" fill="blue">PAKNYYWBTOTLCN:Economy-wide wage bill</text>
</a>
</g>
</g>
<!-- PAKNECONPRVTKN -->
<g id="node13" class="node">
<title>PAKNECONPRVTKN</title>
<g id="a_node13"><a xlink:title="Household Consumption
FRML &lt;Z,EXO&gt; PAKNECONPRVTKN = (PAKNECONPRVTKN(-1)*EXP(-PAKNECONPRVTKN_A+ (-0.2*(LOG(PAKNECONPRVTKN(-1))-LOG((PAKNYYWBTOTLCN(-1)*(1-PAKGGREVDRCTXN(-1)/100))/PAKNECONPRVTXN(-1)))+1*((LOG((PAKNYYWBTOTLCN*(1-PAKGGREVDRCTXN/100))/PAKNECONPRVTXN))-(LOG((PAKNYYWBTOTLCN(-1)*(1-PAKGGREVDRCTXN(-1)/100))/PAKNECONPRVTXN(-1))))+0.0303228629698929+0.0163839011059956*DURING_2010-0.3*(PAKFMLBLPOLYXN/100-((LOG(PAKNECONPRVTXN))-(LOG(PAKNECONPRVTXN(-1)))))) )) * (1-PAKNECONPRVTKN_D)+ PAKNECONPRVTKN_X*PAKNECONPRVTKN_D  $">
<polygon fill="red" stroke="black" points="1246,-606 968,-606 968,-570 1246,-570 1246,-606"/>
<text text-anchor="start" x="974" y="-583.8" font-family="Times New Roman,serif" font-size="14.00" fill="blue">PAKNECONPRVTKN:Household Consumption</text>
</a>
</g>
</g>
<!-- PAKNYYWBTOTLCN&#45;&gt;PAKNECONPRVTKN -->
<g id="edge30" class="edge">
<title>PAKNYYWBTOTLCN-&gt;PAKNECONPRVTKN</title>
<g id="a_edge30"><a xlink:href="bogus" xlink:title=" PAKNYYWBTOTLCN -&gt; PAKNECONPRVTKN Min. att. -594%  max: 5822%">
<path fill="none" stroke="black" stroke-width="8" d="M802.1,-109.28C849.99,-184.71 1032.36,-472 1089.07,-561.33"/>
<polygon fill="black" stroke="black" stroke-width="8" points="1083.19,-565.13 1094.46,-569.82 1095.01,-557.62 1083.19,-565.13"/>
</a>
</g>
</g>
<!-- PAKSMSRVTRNSKN -->
<g id="node2" class="node">
<title>PAKSMSRVTRNSKN</title>
<g id="a_node2"><a xlink:title="PAKSMSRVTRNSKN
FRML  &lt;&gt; PAKSMSRVTRNSKN = ((1+0.301074862860981)*(0.204687752761289*PAKNECONPRVTKN+0*PAKNECONGOVTKN+0*PAKNEGDIFTOTKN+0.0551862611209703*PAKNEEXPGNFSKN+0*PAKNEGDISTKBKN)--0.0392641863572605*PAKNEIMPGNFSKN-0.0174996684619017*PAKNYTAXNINDKN-0)/(1+1.11680986862739) $">
<polygon fill="#63b8ff" stroke="black" points="1554.5,-849 1412.5,-849 1412.5,-813 1554.5,-813 1554.5,-849"/>
<text text-anchor="start" x="1418.5" y="-826.8" font-family="Times New Roman,serif" font-size="14.00" fill="blue">PAKSMSRVTRNSKN:</text>
</a>
</g>
</g>
<!-- PAKNECONOTHRKN -->
<g id="node3" class="node">
<title>PAKNECONOTHRKN</title>
<g id="a_node3"><a xlink:title="Other Consumption
FRML  &lt;&gt; PAKNECONOTHRKN = PAKNECONOTHRSH**(PAKCESENGYCON)*(PAKNECONPRVTKN*(PAKNECONPRVTXN/PAKNECONOTHRXN)**(PAKCESENGYCON)) $">
<polygon fill="#63b8ff" stroke="black" points="1610,-795 1357,-795 1357,-759 1610,-759 1610,-795"/>
<text text-anchor="start" x="1363.5" y="-772.8" font-family="Times New Roman,serif" font-size="14.00" fill="blue">PAKNECONOTHRKN:Other Consumption</text>
</a>
</g>
</g>
<!-- PAKSMINDOTHRTKN -->
<g id="node4" class="node">
<title>PAKSMINDOTHRTKN</title>
<g id="a_node4"><a xlink:title="PAKSMINDOTHRTKN
FRML  &lt;&gt; PAKSMINDOTHRTKN = ((1+0.483473985412524)*(0.40172973397176*PAKNECONPRVTKN+0*PAKNECONGOVTKN+0.560459287907094*PAKNEGDIFTOTKN+0.719299486591763*PAKNEEXPGNFSKN+0.620970563578771*PAKNEGDISTKBKN)-0.606734386430279*PAKNEIMPGNFSKN-0.866045585295928*PAKNYTAXNINDKN-2983275.63714814)/(1+2.46379868577176) $">
<polygon fill="#63b8ff" stroke="black" points="1559,-741 1408,-741 1408,-705 1559,-705 1559,-741"/>
<text text-anchor="start" x="1414.5" y="-718.8" font-family="Times New Roman,serif" font-size="14.00" fill="blue">PAKSMINDOTHRTKN:</text>
</a>
</g>
</g>
<!-- PAKSMAGRCRPSKN -->
<g id="node5" class="node">
<title>PAKSMAGRCRPSKN</title>
<g id="a_node5"><a xlink:title="PAKSMAGRCRPSKN
FRML  &lt;&gt; PAKSMAGRCRPSKN = ((1+2.09928590574241)*(0.144287620838506*PAKNECONPRVTKN+0*PAKNECONGOVTKN+0*PAKNEGDIFTOTKN+0.0572678299039023*PAKNEEXPGNFSKN+0.267381669083985*PAKNEGDISTKBKN)-0.0736247088197363*PAKNEIMPGNFSKN-0.0407034395686347*PAKNYTAXNINDKN-906311)/(1+0.396041694659877) $">
<polygon fill="#63b8ff" stroke="black" points="1555.5,-687 1411.5,-687 1411.5,-651 1555.5,-651 1555.5,-687"/>
<text text-anchor="start" x="1417.5" y="-664.8" font-family="Times New Roman,serif" font-size="14.00" fill="blue">PAKSMAGRCRPSKN:</text>
</a>
</g>
</g>
<!-- PAKNEIMPGNFSXN -->
<g id="node6" class="node">
<title>PAKNEIMPGNFSXN</title>
<g id="a_node6"><a xlink:title="Imports (G&amp;S)
FRML  &lt;&gt; PAKNEIMPGNFSXN = ((PAKNEIMPENGYSH**PAKCESENGYIMPT)*PAKNVENGNIMPXN**(1-PAKCESENGYIMPT)+(PAKNEIMPOTHRSH**PAKCESENGYIMPT)*PAKNEIMPGSNEXN**(1-PAKCESENGYIMPT))**(1/(1-PAKCESENGYIMPT)) $">
<polygon fill="#63b8ff" stroke="black" points="254.5,-837 31.5,-837 31.5,-801 254.5,-801 254.5,-837"/>
<text text-anchor="start" x="38" y="-814.8" font-family="Times New Roman,serif" font-size="14.00" fill="blue">PAKNEIMPGNFSXN:Imports (G&amp;S)</text>
</a>
</g>
</g>
<!-- PAKNECONOTHRXN -->
<g id="node24" class="node">
<title>PAKNECONOTHRXN</title>
<g id="a_node24"><a xlink:title="Non-Energy Consumption
FRML &lt;Z,EXO&gt; PAKNECONOTHRXN = (PAKNECONOTHRXN(-1)*EXP(-PAKNECONOTHRXN_A+ (0.598859116610832*((LOG(PAKNYGDPFCSTXN))-(LOG(PAKNYGDPFCSTXN(-1))))+((PAKGGREVGNFSXN/100)-(PAKGGREVGNFSXN(-1)/100))+(1-0.598859116610832)*((LOG(PAKNEIMPGNFSXN))-(LOG(PAKNEIMPGNFSXN(-1))))+0.2*PAKNYGDPGAP_/100) )) * (1-PAKNECONOTHRXN_D)+ PAKNECONOTHRXN_X*PAKNECONOTHRXN_D  $">
<polygon fill="#63b8ff" stroke="black" points="611,-837 322,-837 322,-801 611,-801 611,-837"/>
<text text-anchor="start" x="328.5" y="-814.8" font-family="Times New Roman,serif" font-size="14.00" fill="blue">PAKNECONOTHRXN:Non-Energy Consumption</text>
</a>
</g>
</g>
<!-- PAKNEIMPGNFSXN&#45;&gt;PAKNECONOTHRXN -->
<g id="edge18" class="edge">
<title>PAKNEIMPGNFSXN-&gt;PAKNECONOTHRXN</title>
<g id="a_edge18"><a xlink:href="bogus" xlink:title=" PAKNEIMPGNFSXN -&gt; PAKNECONOTHRXN Min. att. -10%  max: 114%">
<path fill="none" stroke="black" stroke-width="8" d="M254.64,-819C273.05,-819 292.43,-819 311.68,-819"/>
<polygon fill="black" stroke="black" stroke-width="8" points="311.72,-826 321.72,-819 311.72,-812 311.72,-826"/>
</a>
</g>
</g>
<!-- PAKSMAGRFSTYKN -->
<g id="node7" class="node">
<title>PAKSMAGRFSTYKN</title>
<g id="a_node7"><a xlink:title="PAKSMAGRFSTYKN
FRML  &lt;&gt; PAKSMAGRFSTYKN = ((1+0.195965019358753)*(0.010131919293849*PAKNECONPRVTKN+0*PAKNECONGOVTKN+0*PAKNEGDIFTOTKN+0.000136733767007103*PAKNEEXPGNFSKN+0.0199955288980741*PAKNEGDISTKBKN)-0.00076829563200478*PAKNEIMPGNFSKN-0.00172030587371022*PAKNYTAXNINDKN-65421)/(1+0.319587584852584) $">
<polygon fill="#63b8ff" stroke="black" points="1555.5,-633 1411.5,-633 1411.5,-597 1555.5,-597 1555.5,-633"/>
<text text-anchor="start" x="1417.5" y="-610.8" font-family="Times New Roman,serif" font-size="14.00" fill="blue">PAKSMAGRFSTYKN:</text>
</a>
</g>
</g>
<!-- PAKNYWRTFORMCN -->
<g id="node8" class="node">
<title>PAKNYWRTFORMCN</title>
<g id="a_node8"><a xlink:title="Formal wage
FRML &lt;Z,EXO&gt; PAKNYWRTFORMCN = (PAKNYWRTFORMCN(-1)*EXP(-PAKNYWRTFORMCN_A+ (-0.120164450250183-0.3*(LOG(PAKNYWRTFORMCN(-1))-LOG(PAKNYGDPFCSTXN(-1))-LOG(PAKNYGDPPOTLKN(-1)/PAKLMEMPSTRLCN(-1)))+0.2*((LOG(PAKNYWRTFORMCN(-1)))-(LOG(PAKNYWRTFORMCN(-2))))+(1-0.2)*(0.5*((LOG(PAKNYGDPFCSTXN(-1)))-(LOG(PAKNYGDPFCSTXN(-2))))+0.5*(PAKINFLEXPT/100)+((LOG(PAKNYGDPMKTPKN/PAKLMEMPSTRLCN))-(LOG(PAKNYGDPMKTPKN(-1)/PAKLMEMPSTRLCN(-1)))))-0.2*(PAKLMUNRTOTLCN-PAKLMUNRSTRLCN)/100+0.15233813938029*DURING_2000-0.183411483907703*DURING_2001) )) * (1-PAKNYWRTFORMCN_D)+ PAKNYWRTFORMCN_X*PAKNYWRTFORMCN_D  $">
<polygon fill="#63b8ff" stroke="black" points="254,-113 32,-113 32,-77 254,-77 254,-113"/>
<text text-anchor="start" x="38" y="-90.8" font-family="Times New Roman,serif" font-size="14.00" fill="blue">PAKNYWRTFORMCN:Formal wage</text>
</a>
</g>
</g>
<!-- PAKNYWRTTOTLCN -->
<g id="node25" class="node">
<title>PAKNYWRTTOTLCN</title>
<g id="a_node25"><a xlink:title="Wages
FRML  &lt;&gt; PAKNYWRTTOTLCN = (PAKNYWBINFMSH**PAKINFCES*(PAKNYWRTINFMCN)**(1-PAKINFCES)+PAKNYWBFORMSH**PAKINFCES*(PAKNYWRTFORMCN*(1+PAKGGREVDRCTXN/100))**(1-PAKINFCES))**(1/(1-PAKINFCES)) $">
<polygon fill="#63b8ff" stroke="black" points="557,-86 376,-86 376,-50 557,-50 557,-86"/>
<text text-anchor="start" x="382.5" y="-63.8" font-family="Times New Roman,serif" font-size="14.00" fill="blue">PAKNYWRTTOTLCN:Wages</text>
</a>
</g>
</g>
<!-- PAKNYWRTFORMCN&#45;&gt;PAKNYWRTTOTLCN -->
<g id="edge32" class="edge">
<title>PAKNYWRTFORMCN-&gt;PAKNYWRTTOTLCN</title>
<g id="a_edge32"><a xlink:href="bogus" xlink:title=" PAKNYWRTFORMCN -&gt; PAKNYWRTTOTLCN Min. att. 21%  max: 21%">
<path fill="none" stroke="black" stroke-width="2.13" d="M254.19,-85.75C290.34,-82.71 330.29,-79.36 365.63,-76.39"/>
<polygon fill="black" stroke="black" stroke-width="2.13" points="366.28,-79.85 375.95,-75.52 365.69,-72.87 366.28,-79.85"/>
</a>
</g>
</g>
<!-- PAKSMSRVFINSKN -->
<g id="node9" class="node">
<title>PAKSMSRVFINSKN</title>
<g id="a_node9"><a xlink:title="PAKSMSRVFINSKN
FRML  &lt;&gt; PAKSMSRVFINSKN = ((1+1.04148314760779)*(0.0520379651885469*PAKNECONPRVTKN+0*PAKNECONGOVTKN+0*PAKNEGDIFTOTKN+0.00879145012359898*PAKNEEXPGNFSKN+0*PAKNEGDISTKBKN)-0.00594416979264236*PAKNEIMPGNFSKN-0.000103762679145856*PAKNYTAXNINDKN-0)/(1+0.24687745523084) $">
<polygon fill="#63b8ff" stroke="black" points="1552,-579 1415,-579 1415,-543 1552,-543 1552,-579"/>
<text text-anchor="start" x="1421.5" y="-556.8" font-family="Times New Roman,serif" font-size="14.00" fill="blue">PAKSMSRVFINSKN:</text>
</a>
</g>
</g>
<!-- PAKSMENGTOTLKN -->
<g id="node10" class="node">
<title>PAKSMENGTOTLKN</title>
<g id="a_node10"><a xlink:title="PAKSMENGTOTLKN
FRML  &lt;&gt; PAKSMENGTOTLKN = ((1+1.65868473220397)*(0.0775261497897936*PAKNECONPRVTKN+0*PAKNECONGOVTKN+0*PAKNEGDIFTOTKN+0.0217448978257548*PAKNEEXPGNFSKN+0.0458991644104248*PAKNEGDISTKBKN)-0.11894699850705*PAKNEIMPGNFSKN--0.50579180838529*PAKNYTAXNINDKN-0)/(1+5.65663938581514) $">
<polygon fill="#63b8ff" stroke="black" points="1556,-525 1411,-525 1411,-489 1556,-489 1556,-525"/>
<text text-anchor="start" x="1417.5" y="-502.8" font-family="Times New Roman,serif" font-size="14.00" fill="blue">PAKSMENGTOTLKN:</text>
</a>
</g>
</g>
<!-- PAKSMAGRFSNGKN -->
<g id="node11" class="node">
<title>PAKSMAGRFSNGKN</title>
<g id="a_node11"><a xlink:title="PAKSMAGRFSNGKN
FRML  &lt;&gt; PAKSMAGRFSNGKN = ((1+1.92407325889309)*(0.00246195499563977*PAKNECONPRVTKN+0*PAKNECONGOVTKN+0*PAKNEGDIFTOTKN+0.00130433854799597*PAKNEEXPGNFSKN+0.00497657560072267*PAKNEGDISTKBKN)-1.14989260682794E-05*PAKNEIMPGNFSKN-2.46467171367829E-07*PAKNYTAXNINDKN-26993)/(1+0.506095544048804) $">
<polygon fill="#63b8ff" stroke="black" points="1556,-471 1411,-471 1411,-435 1556,-435 1556,-471"/>
<text text-anchor="start" x="1417.5" y="-448.8" font-family="Times New Roman,serif" font-size="14.00" fill="blue">PAKSMAGRFSNGKN:</text>
</a>
</g>
</g>
<!-- PAKNECONPRVTXN -->
<g id="node12" class="node">
<title>PAKNECONPRVTXN</title>
<g id="a_node12"><a xlink:title="Household demand
FRML  &lt;&gt; PAKNECONPRVTXN = ((PAKNECONENGYSH**PAKCESENGYCON)*PAKNECONENGYXN**(1-PAKCESENGYCON)+(PAKNECONOTHRSH**PAKCESENGYCON)*PAKNECONOTHRXN**(1-PAKCESENGYCON))**(1/(1-PAKCESENGYCON)) $">
<polygon fill="#63b8ff" stroke="black" points="913.5,-810 665.5,-810 665.5,-774 913.5,-774 913.5,-810"/>
<text text-anchor="start" x="671.5" y="-787.8" font-family="Times New Roman,serif" font-size="14.00" fill="blue">PAKNECONPRVTXN:Household demand</text>
</a>
</g>
</g>
<!-- PAKNECONPRVTXN&#45;&gt;PAKNECONPRVTKN -->
<g id="edge22" class="edge">
<title>PAKNECONPRVTXN-&gt;PAKNECONPRVTKN</title>
<g id="a_edge22"><a xlink:href="bogus" xlink:title=" PAKNECONPRVTXN -&gt; PAKNECONPRVTKN Min. att. -5707%  max: 593%">
<path fill="none" stroke="black" stroke-width="8" d="M818.5,-773.9C875.68,-736.92 1005.84,-652.76 1069.53,-611.58"/>
<polygon fill="black" stroke="black" stroke-width="8" points="1073.47,-617.37 1078.06,-606.06 1065.87,-605.61 1073.47,-617.37"/>
</a>
</g>
</g>
<!-- PAKFMLBLPOLYXN -->
<g id="node15" class="node">
<title>PAKFMLBLPOLYXN</title>
<g id="a_node15"><a xlink:title="Policy Rate
FRML &lt;Z,EXO&gt; PAKFMLBLPOLYXN = (-100*PAKFMLBLPOLYXN_A+100* (0.905129162122953*PAKFMLBLPOLYXN(-1)/100+(1-0.905129162122953)*(PAKMPPOLNATRXN/100+1.2*(((LOG(PAKNECONPRVTXN))-(LOG(PAKNECONPRVTXN(-1))))-PAKINFLEXPT/100)+0.5*PAKNYGDPGAP_/100)) ) * (1-PAKFMLBLPOLYXN_D)+ PAKFMLBLPOLYXN_X*PAKFMLBLPOLYXN_D  $">
<polygon fill="#63b8ff" stroke="black" points="2277,-1003 2072,-1003 2072,-967 2277,-967 2277,-1003"/>
<text text-anchor="start" x="2078.5" y="-980.8" font-family="Times New Roman,serif" font-size="14.00" fill="blue">PAKFMLBLPOLYXN:Policy Rate</text>
</a>
</g>
</g>
<!-- PAKNECONPRVTXN&#45;&gt;PAKFMLBLPOLYXN -->
<g id="edge12" class="edge">
<title>PAKNECONPRVTXN-&gt;PAKFMLBLPOLYXN</title>
<g id="a_edge12"><a xlink:href="bogus" xlink:title=" PAKNECONPRVTXN -&gt; PAKFMLBLPOLYXN Min. att. -94%  max: 1463%">
<path fill="none" stroke="black" stroke-width="8" d="M822.53,-810.11C899.03,-852.25 1099.59,-956.21 1282,-995 1607.22,-1064.15 1698.47,-1032.27 2030,-1007 2040.28,-1006.22 2050.95,-1005.12 2061.61,-1003.83"/>
<polygon fill="black" stroke="black" stroke-width="8" points="2062.77,-1010.74 2071.81,-1002.54 2061.01,-996.85 2062.77,-1010.74"/>
</a>
</g>
</g>
<!-- PAKNECONPRVTKN&#45;&gt;PAKSMSRVTRNSKN -->
<g id="edge19" class="edge">
<title>PAKNECONPRVTKN-&gt;PAKSMSRVTRNSKN</title>
<g id="a_edge19"><a xlink:href="bogus" xlink:title=" PAKNECONPRVTKN -&gt; PAKSMSRVTRNSKN Min. att. 87%  max: 593%">
<path fill="none" stroke="black" stroke-width="8" d="M1116.49,-606.08C1137.62,-648.83 1197.05,-756.12 1282,-804 1318.09,-824.34 1363.49,-831.67 1401.96,-833.66"/>
<polygon fill="black" stroke="black" stroke-width="8" points="1401.82,-840.66 1412.1,-834.07 1402.39,-826.67 1401.82,-840.66"/>
</a>
</g>
</g>
<!-- PAKNECONPRVTKN&#45;&gt;PAKNECONOTHRKN -->
<g id="edge7" class="edge">
<title>PAKNECONPRVTKN-&gt;PAKNECONOTHRKN</title>
<g id="a_edge7"><a xlink:href="bogus" xlink:title=" PAKNECONPRVTKN -&gt; PAKNECONOTHRKN Min. att. -12056%  max: 323%">
<path fill="none" stroke="black" stroke-width="8" d="M1121.14,-606.15C1147.34,-640.77 1209.8,-715.85 1282,-750 1302.12,-759.52 1324.57,-765.98 1346.95,-770.31"/>
<polygon fill="black" stroke="black" stroke-width="8" points="1345.8,-777.21 1356.88,-772.1 1348.28,-763.43 1345.8,-777.21"/>
</a>
</g>
</g>
<!-- PAKNECONPRVTKN&#45;&gt;PAKSMINDOTHRTKN -->
<g id="edge24" class="edge">
<title>PAKNECONPRVTKN-&gt;PAKSMINDOTHRTKN</title>
<g id="a_edge24"><a xlink:href="bogus" xlink:title=" PAKNECONPRVTKN -&gt; PAKSMINDOTHRTKN Min. att. -11779%  max: 971%">
<path fill="none" stroke="black" stroke-width="8" d="M1130.03,-606.01C1161.58,-630.76 1222.44,-674.62 1282,-696 1318.71,-709.18 1361.31,-716.01 1397.77,-719.51"/>
<polygon fill="black" stroke="black" stroke-width="8" points="1397.3,-726.5 1407.88,-720.41 1398.54,-712.55 1397.3,-726.5"/>
</a>
</g>
</g>
<!-- PAKNECONPRVTKN&#45;&gt;PAKSMAGRCRPSKN -->
<g id="edge5" class="edge">
<title>PAKNECONPRVTKN-&gt;PAKSMAGRCRPSKN</title>
<g id="a_edge5"><a xlink:href="bogus" xlink:title=" PAKNECONPRVTKN -&gt; PAKSMAGRCRPSKN Min. att. -25%  max: 208%">
<path fill="none" stroke="black" stroke-width="8" d="M1158.41,-606.1C1192.83,-617.85 1239.69,-632.65 1282,-642 1320.87,-650.59 1364.63,-656.86 1401.32,-661.19"/>
<polygon fill="black" stroke="black" stroke-width="8" points="1400.74,-668.17 1411.47,-662.36 1402.34,-654.26 1400.74,-668.17"/>
</a>
</g>
</g>
<!-- PAKNECONPRVTKN&#45;&gt;PAKSMAGRFSTYKN -->
<g id="edge25" class="edge">
<title>PAKNECONPRVTKN-&gt;PAKSMAGRFSTYKN</title>
<g id="a_edge25"><a xlink:href="bogus" xlink:title=" PAKNECONPRVTKN -&gt; PAKSMAGRFSTYKN Min. att. 96%  max: 371%">
<path fill="none" stroke="black" stroke-width="8" d="M1246.12,-597.96C1298.35,-601.72 1356.07,-605.88 1401.39,-609.15"/>
<polygon fill="black" stroke="black" stroke-width="8" points="1400.98,-616.14 1411.46,-609.88 1401.99,-602.18 1400.98,-616.14"/>
</a>
</g>
</g>
<!-- PAKNECONPRVTKN&#45;&gt;PAKSMSRVFINSKN -->
<g id="edge26" class="edge">
<title>PAKNECONPRVTKN-&gt;PAKSMSRVFINSKN</title>
<g id="a_edge26"><a xlink:href="bogus" xlink:title=" PAKNECONPRVTKN -&gt; PAKSMSRVFINSKN Min. att. -104%  max: 125%">
<path fill="none" stroke="black" stroke-width="8" d="M1246.12,-578.04C1299.61,-574.19 1358.86,-569.91 1404.65,-566.61"/>
<polygon fill="black" stroke="black" stroke-width="8" points="1405.33,-573.58 1414.8,-565.88 1404.33,-559.62 1405.33,-573.58"/>
</a>
</g>
</g>
<!-- PAKNECONPRVTKN&#45;&gt;PAKSMENGTOTLKN -->
<g id="edge9" class="edge">
<title>PAKNECONPRVTKN-&gt;PAKSMENGTOTLKN</title>
<g id="a_edge9"><a xlink:href="bogus" xlink:title=" PAKNECONPRVTKN -&gt; PAKSMENGTOTLKN Min. att. -14%  max: 2187%">
<path fill="none" stroke="black" stroke-width="8" d="M1158.41,-569.9C1192.83,-558.15 1239.69,-543.35 1282,-534 1320.56,-525.48 1363.92,-519.24 1400.43,-514.91"/>
<polygon fill="black" stroke="black" stroke-width="8" points="1401.41,-521.85 1410.54,-513.75 1399.8,-507.94 1401.41,-521.85"/>
</a>
</g>
</g>
<!-- PAKNECONPRVTKN&#45;&gt;PAKSMAGRFSNGKN -->
<g id="edge29" class="edge">
<title>PAKNECONPRVTKN-&gt;PAKSMAGRFSNGKN</title>
<g id="a_edge29"><a xlink:href="bogus" xlink:title=" PAKNECONPRVTKN -&gt; PAKSMAGRFSNGKN Min. att. -29%  max: 170%">
<path fill="none" stroke="black" stroke-width="8" d="M1130.03,-569.99C1161.58,-545.24 1222.44,-501.38 1282,-480 1319.62,-466.49 1363.41,-459.66 1400.46,-456.24"/>
<polygon fill="black" stroke="black" stroke-width="8" points="1401.35,-463.19 1410.72,-455.36 1400.16,-449.24 1401.35,-463.19"/>
</a>
</g>
</g>
<!-- PAKSMSRVHSNGKN -->
<g id="node14" class="node">
<title>PAKSMSRVHSNGKN</title>
<g id="a_node14"><a xlink:title="PAKSMSRVHSNGKN
FRML  &lt;&gt; PAKSMSRVHSNGKN = ((1+0.782809577554843)*(0.0647364660896117*PAKNECONPRVTKN+0*PAKNECONGOVTKN+0.00605333595533851*PAKNEGDIFTOTKN+0.03048358523237*PAKNEEXPGNFSKN+0*PAKNEGDISTKBKN)-0.0244768173208691*PAKNEIMPGNFSKN-0.0684093628903126*PAKNYTAXNINDKN-0)/(1+0.150771193398883) $">
<polygon fill="#63b8ff" stroke="black" points="1556,-417 1411,-417 1411,-381 1556,-381 1556,-417"/>
<text text-anchor="start" x="1417.5" y="-394.8" font-family="Times New Roman,serif" font-size="14.00" fill="blue">PAKSMSRVHSNGKN:</text>
</a>
</g>
</g>
<!-- PAKNECONPRVTKN&#45;&gt;PAKSMSRVHSNGKN -->
<g id="edge14" class="edge">
<title>PAKNECONPRVTKN-&gt;PAKSMSRVHSNGKN</title>
<g id="a_edge14"><a xlink:href="bogus" xlink:title=" PAKNECONPRVTKN -&gt; PAKSMSRVHSNGKN Min. att. 34%  max: 147%">
<path fill="none" stroke="black" stroke-width="8" d="M1121.14,-569.85C1147.34,-535.23 1209.8,-460.15 1282,-426 1318.57,-408.7 1362.81,-401.51 1400.43,-398.82"/>
<polygon fill="black" stroke="black" stroke-width="8" points="1401.3,-405.78 1410.85,-398.18 1400.44,-391.81 1401.3,-405.78"/>
</a>
</g>
</g>
<!-- PAKNYGDPMKTPKN -->
<g id="node19" class="node">
<title>PAKNYGDPMKTPKN</title>
<g id="a_node19"><a xlink:title="GDP Expenditure side at market prices
FRML  &lt;&gt; PAKNYGDPMKTPKN = PAKNECONPRVTKN+PAKNECONGOVTKN+PAKNEGDIFTOTKN+PAKNEGDISTKBKN+PAKNEEXPGNFSKN-PAKNEIMPGNFSKN+PAKNYGDPDISCKN+PAKADAP*PAKDISPREPKN $">
<polygon fill="#63b8ff" stroke="black" points="1664,-903 1303,-903 1303,-867 1664,-867 1664,-903"/>
<text text-anchor="start" x="1309.5" y="-880.8" font-family="Times New Roman,serif" font-size="14.00" fill="blue">PAKNYGDPMKTPKN:GDP Expenditure side at market prices</text>
</a>
</g>
</g>
<!-- PAKNECONPRVTKN&#45;&gt;PAKNYGDPMKTPKN -->
<g id="edge10" class="edge">
<title>PAKNECONPRVTKN-&gt;PAKNYGDPMKTPKN</title>
<g id="a_edge10"><a xlink:href="bogus" xlink:title=" PAKNECONPRVTKN -&gt; PAKNYGDPMKTPKN Min. att. -1557%  max: 290%">
<path fill="none" stroke="black" stroke-width="8" d="M1113.73,-606.36C1130.42,-656.43 1184.1,-795.79 1282,-858 1285.67,-860.33 1289.45,-862.5 1293.33,-864.52"/>
<polygon fill="black" stroke="black" stroke-width="8" points="1290.49,-870.92 1302.53,-868.95 1296.56,-858.31 1290.49,-870.92"/>
</a>
</g>
</g>
<!-- PAKNEGDETTOTKN -->
<g id="node21" class="node">
<title>PAKNEGDETTOTKN</title>
<g id="a_node21"><a xlink:title="GDE
FRML  &lt;&gt; PAKNEGDETTOTKN = (PAKNECONPRVTKN+PAKNECONGOVTKN+PAKNEGDIFTOTKN+PAKNEGDISTKBKN+PAKNYGDPDISCKN) $">
<polygon fill="#63b8ff" stroke="black" points="1568.5,-363 1398.5,-363 1398.5,-327 1568.5,-327 1568.5,-363"/>
<text text-anchor="start" x="1404.5" y="-340.8" font-family="Times New Roman,serif" font-size="14.00" fill="blue">PAKNEGDETTOTKN:GDE</text>
</a>
</g>
</g>
<!-- PAKNECONPRVTKN&#45;&gt;PAKNEGDETTOTKN -->
<g id="edge20" class="edge">
<title>PAKNECONPRVTKN-&gt;PAKNEGDETTOTKN</title>
<g id="a_edge20"><a xlink:href="bogus" xlink:title=" PAKNECONPRVTKN -&gt; PAKNEGDETTOTKN Min. att. -2283%  max: 2484%">
<path fill="none" stroke="black" stroke-width="8" d="M1116.49,-569.92C1137.62,-527.17 1197.05,-419.88 1282,-372 1313.75,-354.11 1352.7,-346.28 1387.79,-343.3"/>
<polygon fill="black" stroke="black" stroke-width="8" points="1388.6,-350.26 1398.06,-342.56 1387.58,-336.3 1388.6,-350.26"/>
</a>
</g>
</g>
<!-- PAKSMINDMNGSKN -->
<g id="node23" class="node">
<title>PAKSMINDMNGSKN</title>
<g id="a_node23"><a xlink:title="PAKSMINDMNGSKN
FRML  &lt;&gt; PAKSMINDMNGSKN = ((1+6.96158341862144)*(0.0132800565666619*PAKNECONPRVTKN+0*PAKNECONGOVTKN+0*PAKNEGDIFTOTKN+0.00704674623894759*PAKNEEXPGNFSKN+0.024122890632682*PAKNEGDISTKBKN)-0.134221966110302*PAKNEIMPGNFSKN-0.500981557895139*PAKNYTAXNINDKN-123652.869264758)/(1+0.200800622280983) $">
<polygon fill="#63b8ff" stroke="black" points="1556.5,-309 1410.5,-309 1410.5,-273 1556.5,-273 1556.5,-309"/>
<text text-anchor="start" x="1416.5" y="-286.8" font-family="Times New Roman,serif" font-size="14.00" fill="blue">PAKSMINDMNGSKN:</text>
</a>
</g>
</g>
<!-- PAKNECONPRVTKN&#45;&gt;PAKSMINDMNGSKN -->
<g id="edge13" class="edge">
<title>PAKNECONPRVTKN-&gt;PAKSMINDMNGSKN</title>
<g id="a_edge13"><a xlink:href="bogus" xlink:title=" PAKNECONPRVTKN -&gt; PAKSMINDMNGSKN Min. att. -1229%  max: 1716%">
<path fill="none" stroke="black" stroke-width="8" d="M1113.73,-569.64C1130.42,-519.57 1184.1,-380.21 1282,-318 1316.7,-295.95 1361.58,-288.42 1400.08,-286.74"/>
<polygon fill="black" stroke="black" stroke-width="8" points="1400.45,-293.73 1410.23,-286.42 1400.02,-279.74 1400.45,-293.73"/>
</a>
</g>
</g>
<!-- PAKNECONENGYKN -->
<g id="node27" class="node">
<title>PAKNECONENGYKN</title>
<g id="a_node27"><a xlink:title="Energy Consumption
FRML  &lt;&gt; PAKNECONENGYKN = PAKNECONENGYSH**(PAKCESENGYCON)*(PAKNECONPRVTKN*(PAKNECONPRVTXN/PAKNECONENGYXN)**(PAKCESENGYCON)) $">
<polygon fill="#63b8ff" stroke="black" points="1614.5,-255 1352.5,-255 1352.5,-219 1614.5,-219 1614.5,-255"/>
<text text-anchor="start" x="1358.5" y="-232.8" font-family="Times New Roman,serif" font-size="14.00" fill="blue">PAKNECONENGYKN:Energy Consumption</text>
</a>
</g>
</g>
<!-- PAKNECONPRVTKN&#45;&gt;PAKNECONENGYKN -->
<g id="edge17" class="edge">
<title>PAKNECONPRVTKN-&gt;PAKNECONENGYKN</title>
<g id="a_edge17"><a xlink:href="bogus" xlink:title=" PAKNECONPRVTKN -&gt; PAKNECONENGYKN Min. att. -699%  max: 3889%">
<path fill="none" stroke="black" stroke-width="8" d="M1111.7,-569.81C1124.21,-513.51 1170.48,-341.27 1282,-264 1299.9,-251.6 1320.89,-243.62 1342.43,-238.65"/>
<polygon fill="black" stroke="black" stroke-width="8" points="1344,-245.47 1352.35,-236.57 1341.13,-231.77 1344,-245.47"/>
</a>
</g>
</g>
<!-- PAKNECONPRVTKN_FITTED -->
<g id="node28" class="node">
<title>PAKNECONPRVTKN_FITTED</title>
<g id="a_node28"><a xlink:title="Fitted  value:Household Consumption
FRML &lt;FIT&gt; PAKNECONPRVTKN_FITTED = PAKNECONPRVTKN(-1)*EXP( (-0.2*(LOG(PAKNECONPRVTKN(-1))-LOG((PAKNYYWBTOTLCN(-1)*(1-PAKGGREVDRCTXN(-1)/100))/PAKNECONPRVTXN(-1)))+1*((LOG((PAKNYYWBTOTLCN*(1-PAKGGREVDRCTXN/100))/PAKNECONPRVTXN))-(LOG((PAKNYYWBTOTLCN(-1)*(1-PAKGGREVDRCTXN(-1)/100))/PAKNECONPRVTXN(-1))))+0.0303228629698929+0.0163839011059956*DURING_2010-0.3*(PAKFMLBLPOLYXN/100-((LOG(PAKNECONPRVTXN))-(LOG(PAKNECONPRVTXN(-1)))))) ) $">
<polygon fill="#63b8ff" stroke="black" points="1685,-201 1282,-201 1282,-165 1685,-165 1685,-201"/>
<text text-anchor="start" x="1288.5" y="-178.8" font-family="Times New Roman,serif" font-size="14.00" fill="blue">PAKNECONPRVTKN_FITTED:Fitted  value:Household Consumption</text>
</a>
</g>
</g>
<!-- PAKNECONPRVTKN&#45;&gt;PAKNECONPRVTKN_FITTED -->
<g id="edge23" class="edge">
<title>PAKNECONPRVTKN-&gt;PAKNECONPRVTKN_FITTED</title>
<g id="a_edge23"><a xlink:href="bogus" xlink:title=" PAKNECONPRVTKN -&gt; PAKNECONPRVTKN_FITTED Min. att. -786%  max: 175%">
<path fill="none" stroke="black" stroke-width="8" d="M1110.23,-569.99C1118.92,-508.09 1156.52,-302.77 1282,-210 1283.64,-208.79 1285.31,-207.61 1287.01,-206.48"/>
<polygon fill="black" stroke="black" stroke-width="8" points="1290.84,-212.34 1295.71,-201.15 1283.52,-200.41 1290.84,-212.34"/>
</a>
</g>
</g>
<!-- PAKNECONPRVTCN -->
<g id="node30" class="node">
<title>PAKNECONPRVTCN</title>
<g id="a_node30"><a xlink:title="Household demand
FRML  &lt;&gt; PAKNECONPRVTCN = PAKNECONPRVTKN*PAKNECONPRVTXN $">
<polygon fill="#63b8ff" stroke="black" points="1607,-957 1360,-957 1360,-921 1607,-921 1607,-957"/>
<text text-anchor="start" x="1366.5" y="-934.8" font-family="Times New Roman,serif" font-size="14.00" fill="blue">PAKNECONPRVTCN:Household demand</text>
</a>
</g>
</g>
<!-- PAKNECONPRVTKN&#45;&gt;PAKNECONPRVTCN -->
<g id="edge27" class="edge">
<title>PAKNECONPRVTKN-&gt;PAKNECONPRVTCN</title>
<g id="a_edge27"><a xlink:href="bogus" xlink:title=" PAKNECONPRVTKN -&gt; PAKNECONPRVTCN Min. att. -720%  max: 6450%">
<path fill="none" stroke="black" stroke-width="8" d="M1111.7,-606.19C1124.21,-662.49 1170.48,-834.73 1282,-912 1301.98,-925.84 1325.82,-934.18 1349.96,-938.97"/>
<polygon fill="black" stroke="black" stroke-width="8" points="1348.87,-945.88 1359.94,-940.75 1351.33,-932.1 1348.87,-945.88"/>
</a>
</g>
</g>
<!-- PAKFMLBLPOLYXN&#45;&gt;PAKNECONPRVTKN -->
<g id="edge34" class="edge">
<title>PAKFMLBLPOLYXN-&gt;PAKNECONPRVTKN</title>
<g id="a_edge34"><a xlink:href="bogus" xlink:title=" PAKFMLBLPOLYXN -&gt; PAKNECONPRVTKN Min. att. -160%  max: 20%">
<path fill="none" stroke="black" stroke-width="8" d="M2071.83,-988.82C1851.91,-996.23 1346.57,-1008.34 1282,-966 1157.59,-884.43 1120.74,-689.5 1111.09,-616.36"/>
<polygon fill="black" stroke="black" stroke-width="8" points="1117.99,-615.15 1109.81,-606.1 1104.1,-616.88 1117.99,-615.15"/>
</a>
</g>
</g>
<!-- PAKNYWRTINFMCN -->
<g id="node16" class="node">
<title>PAKNYWRTINFMCN</title>
<g id="a_node16"><a xlink:title="Informal wage
FRML &lt;Z,EXO&gt; PAKNYWRTINFMCN = (PAKNYWRTINFMCN(-1)*EXP(-PAKNYWRTINFMCN_A+ (-0.122614247140616-0.3*(LOG(PAKNYWRTINFMCN(-1))-LOG(PAKNYGDPFCSTXN(-1))-LOG(PAKNYGDPPOTLKN(-1)/PAKLMEMPSTRLCN(-1)))+0.2*((LOG(PAKNYWRTINFMCN(-1)))-(LOG(PAKNYWRTINFMCN(-2))))+(1-0.2)*(0.5*((LOG(PAKNYGDPFCSTXN(-1)))-(LOG(PAKNYGDPFCSTXN(-2))))+0.5*(PAKINFLEXPT/100)+((LOG(PAKNYGDPMKTPKN/PAKLMEMPSTRLCN))-(LOG(PAKNYGDPMKTPKN(-1)/PAKLMEMPSTRLCN(-1)))))-0.2*(PAKLMUNRTOTLCN-PAKLMUNRSTRLCN)/100+0.15347529018182*DURING_2000-0.183372342445734*DURING_2001) )) * (1-PAKNYWRTINFMCN_D)+ PAKNYWRTINFMCN_X*PAKNYWRTINFMCN_D  $">
<polygon fill="#63b8ff" stroke="black" points="256,-59 30,-59 30,-23 256,-23 256,-59"/>
<text text-anchor="start" x="36" y="-36.8" font-family="Times New Roman,serif" font-size="14.00" fill="blue">PAKNYWRTINFMCN:Informal wage</text>
</a>
</g>
</g>
<!-- PAKNYWRTINFMCN&#45;&gt;PAKNYWRTTOTLCN -->
<g id="edge16" class="edge">
<title>PAKNYWRTINFMCN-&gt;PAKNYWRTTOTLCN</title>
<g id="a_edge16"><a xlink:href="bogus" xlink:title=" PAKNYWRTINFMCN -&gt; PAKNYWRTTOTLCN Min. att. 79%  max: 80%">
<path fill="none" stroke="black" stroke-width="7.95" d="M256.45,-50.44C292.04,-53.43 331.13,-56.72 365.77,-59.62"/>
<polygon fill="black" stroke="black" stroke-width="7.95" points="365.34,-66.57 375.89,-60.47 366.51,-52.7 365.34,-66.57"/>
</a>
</g>
</g>
<!-- PAKLMEMPTOTLCN -->
<g id="node17" class="node">
<title>PAKLMEMPTOTLCN</title>
<g id="a_node17"><a xlink:title="Employment
FRML &lt;Z,EXO&gt; PAKLMEMPTOTLCN = (PAKLMEMPTOTLCN(-1)*EXP(-PAKLMEMPTOTLCN_A+ (-0.345624644563667*(LOG(PAKLMEMPTOTLCN(-1))-LOG(PAKLMEMPSTRLCN(-1)))-0.1*(((LOG(PAKNYWRTTOTLCN/PAKNYGDPFCSTXN))-(LOG(PAKNYWRTTOTLCN(-1)/PAKNYGDPFCSTXN(-1))))-((LOG(PAKNYGDPPOTLKN/PAKLMEMPSTRLCN))-(LOG(PAKNYGDPPOTLKN(-1)/PAKLMEMPSTRLCN(-1)))))-0.0011790007645121+((LOG(PAKLMEMPSTRLCN))-(LOG(PAKLMEMPSTRLCN(-1))))+0.175412878170024*PAKNYGDPGAP_/100+0.0369790799942338*DURING_2010) )) * (1-PAKLMEMPTOTLCN_D)+ PAKLMEMPTOTLCN_X*PAKLMEMPTOTLCN_D  $">
<polygon fill="#63b8ff" stroke="black" points="2283,-143 2066,-143 2066,-107 2283,-107 2283,-143"/>
<text text-anchor="start" x="2072.5" y="-120.8" font-family="Times New Roman,serif" font-size="14.00" fill="blue">PAKLMEMPTOTLCN:Employment</text>
</a>
</g>
</g>
<!-- PAKLMEMPTOTLCN&#45;&gt;PAKNYYWBTOTLCN -->
<g id="edge2" class="edge">
<title>PAKLMEMPTOTLCN-&gt;PAKNYYWBTOTLCN</title>
<g id="a_edge2"><a xlink:href="bogus" xlink:title=" PAKLMEMPTOTLCN -&gt; PAKNYYWBTOTLCN Min. att. -6%  max: 84%">
<path fill="none" stroke="black" stroke-width="8" d="M2065.85,-118.86C1966.9,-113.46 1816.12,-105.89 1685,-102 1424.22,-94.26 1120.51,-91.94 942.51,-91.26"/>
<polygon fill="black" stroke="black" stroke-width="8" points="942.31,-84.26 932.29,-91.22 942.26,-98.26 942.31,-84.26"/>
</a>
</g>
</g>
<!-- PAKNYGDPFCSTXN -->
<g id="node18" class="node">
<title>PAKNYGDPFCSTXN</title>
<g id="a_node18"><a xlink:title="GDP at factor cost
FRML &lt;Z,EXO&gt; PAKNYGDPFCSTXN = (PAKNYGDPFCSTXN(-1)*EXP(-PAKNYGDPFCSTXN_A+ (0.6*((LOG(PAKNYGDPFCSTXN(-1)))-(LOG(PAKNYGDPFCSTXN(-2))))+(1-0.6)*(0.7*PAKINFLEXPT/100+(1-0.7)*((LOG(PAKPSTAR(-1)))-(LOG(PAKPSTAR(-2)))))+0.25*PAKNYGDPGAP_/100+0.262461811660072*DURING_2000-0.205776950553378*DURING_2001) )) * (1-PAKNYGDPFCSTXN_D)+ PAKNYGDPFCSTXN_X*PAKNYGDPFCSTXN_D  $">
<polygon fill="#63b8ff" stroke="black" points="1996.5,-189 1754.5,-189 1754.5,-153 1996.5,-153 1996.5,-189"/>
<text text-anchor="start" x="1760.5" y="-166.8" font-family="Times New Roman,serif" font-size="14.00" fill="blue">PAKNYGDPFCSTXN:GDP at factor cost</text>
</a>
</g>
</g>
<!-- PAKNYGDPFCSTXN&#45;&gt;PAKLMEMPTOTLCN -->
<g id="edge28" class="edge">
<title>PAKNYGDPFCSTXN-&gt;PAKLMEMPTOTLCN</title>
<g id="a_edge28"><a xlink:href="bogus" xlink:title=" PAKNYGDPFCSTXN -&gt; PAKLMEMPTOTLCN Min. att. -128%  max: 59%">
<path fill="none" stroke="black" stroke-width="8" d="M1993.03,-152.95C2013.56,-149.77 2034.95,-146.46 2055.51,-143.27"/>
<polygon fill="black" stroke="black" stroke-width="8" points="2056.73,-150.17 2065.54,-141.72 2054.59,-136.33 2056.73,-150.17"/>
</a>
</g>
</g>
<!-- PAKNYGDPGAP_ -->
<g id="node20" class="node">
<title>PAKNYGDPGAP_</title>
<g id="a_node20"><a xlink:title="Output Gap (% of Potential GDP)
FRML  &lt;&gt; PAKNYGDPGAP_ = ((PAKNYGDPMKTPKN/PAKNYGDPPOTLKN-1)*100) $">
<polygon fill="#63b8ff" stroke="black" points="2030,-573 1721,-573 1721,-537 2030,-537 2030,-573"/>
<text text-anchor="start" x="1727.5" y="-550.8" font-family="Times New Roman,serif" font-size="14.00" fill="blue">PAKNYGDPGAP_:Output Gap (% of Potential GDP)</text>
</a>
</g>
</g>
<!-- PAKNYGDPMKTPKN&#45;&gt;PAKNYGDPGAP_ -->
<g id="edge11" class="edge">
<title>PAKNYGDPMKTPKN-&gt;PAKNYGDPGAP_</title>
<g id="a_edge11"><a xlink:href="bogus" xlink:title=" PAKNYGDPMKTPKN -&gt; PAKNYGDPGAP_ Min. att. -78601%  max: 128123%">
<path fill="none" stroke="black" stroke-width="8" d="M1664.05,-869.28C1671.34,-866.02 1678.36,-862.28 1685,-858 1789,-790.92 1845.98,-644.43 1866.07,-582.99"/>
<polygon fill="black" stroke="black" stroke-width="8" points="1872.82,-584.87 1869.19,-573.22 1859.48,-580.62 1872.82,-584.87"/>
</a>
</g>
</g>
<!-- PAKNYGDPGAP_&#45;&gt;PAKFMLBLPOLYXN -->
<g id="edge8" class="edge">
<title>PAKNYGDPGAP_-&gt;PAKFMLBLPOLYXN</title>
<g id="a_edge8"><a xlink:href="bogus" xlink:title=" PAKNYGDPGAP_ -&gt; PAKFMLBLPOLYXN Min. att. -15%  max: 83%">
<path fill="none" stroke="black" stroke-width="8" d="M1889.07,-573.2C1935.74,-640.77 2099.22,-877.46 2154.82,-957.96"/>
<polygon fill="black" stroke="black" stroke-width="8" points="2149.32,-962.3 2160.76,-966.55 2160.84,-954.35 2149.32,-962.3"/>
</a>
</g>
</g>
<!-- PAKNYGDPGAP_&#45;&gt;PAKLMEMPTOTLCN -->
<g id="edge15" class="edge">
<title>PAKNYGDPGAP_-&gt;PAKLMEMPTOTLCN</title>
<g id="a_edge15"><a xlink:href="bogus" xlink:title=" PAKNYGDPGAP_ -&gt; PAKLMEMPTOTLCN Min. att. -362%  max: 147%">
<path fill="none" stroke="black" stroke-width="8" d="M1889.07,-536.8C1935.74,-469.23 2099.22,-232.54 2154.82,-152.04"/>
<polygon fill="black" stroke="black" stroke-width="8" points="2160.84,-155.65 2160.76,-143.45 2149.32,-147.7 2160.84,-155.65"/>
</a>
</g>
</g>
<!-- PAKNECONENGYXN -->
<g id="node22" class="node">
<title>PAKNECONENGYXN</title>
<g id="a_node22"><a xlink:title="Energy Consumption
FRML &lt;Z,EXO&gt; PAKNECONENGYXN = (PAKNECONENGYXN(-1)*EXP(-PAKNECONENGYXN_A+ (((LOG(PAKNECONENGYGN))-(LOG(PAKNECONENGYGN(-1))))+0.0550557534575806*DUMH) )) * (1-PAKNECONENGYXN_D)+ PAKNECONENGYXN_X*PAKNECONENGYXN_D  $">
<polygon fill="#63b8ff" stroke="black" points="597.5,-783 335.5,-783 335.5,-747 597.5,-747 597.5,-783"/>
<text text-anchor="start" x="341.5" y="-760.8" font-family="Times New Roman,serif" font-size="14.00" fill="blue">PAKNECONENGYXN:Energy Consumption</text>
</a>
</g>
</g>
<!-- PAKNECONENGYXN&#45;&gt;PAKNECONPRVTXN -->
<g id="edge31" class="edge">
<title>PAKNECONENGYXN-&gt;PAKNECONPRVTXN</title>
<g id="a_edge31"><a xlink:href="bogus" xlink:title=" PAKNECONENGYXN -&gt; PAKNECONPRVTXN Min. att. 1%  max: 29%">
<path fill="none" stroke="black" stroke-width="2.91" d="M597.6,-775.94C616.6,-777.54 636.2,-779.19 655.26,-780.79"/>
<polygon fill="black" stroke="black" stroke-width="2.91" points="655.23,-784.3 665.48,-781.65 655.81,-777.33 655.23,-784.3"/>
</a>
</g>
</g>
<!-- PAKNECONOTHRXN&#45;&gt;PAKNECONPRVTXN -->
<g id="edge4" class="edge">
<title>PAKNECONOTHRXN-&gt;PAKNECONPRVTXN</title>
<g id="a_edge4"><a xlink:href="bogus" xlink:title=" PAKNECONOTHRXN -&gt; PAKNECONPRVTXN Min. att. 71%  max: 99%">
<path fill="none" stroke="black" stroke-width="8" d="M611.1,-806.92C625.75,-805.69 640.59,-804.44 655.12,-803.22"/>
<polygon fill="black" stroke="black" stroke-width="8" points="655.75,-810.19 665.12,-802.38 654.57,-796.24 655.75,-810.19"/>
</a>
</g>
</g>
<!-- PAKNYWRTTOTLCN&#45;&gt;PAKNYYWBTOTLCN -->
<g id="edge3" class="edge">
<title>PAKNYWRTTOTLCN-&gt;PAKNYYWBTOTLCN</title>
<g id="a_edge3"><a xlink:href="bogus" xlink:title=" PAKNYWRTTOTLCN -&gt; PAKNYYWBTOTLCN Min. att. 16%  max: 106%">
<path fill="none" stroke="black" stroke-width="8" d="M557.34,-74.44C582.12,-76.21 609.71,-78.19 636.95,-80.14"/>
<polygon fill="black" stroke="black" stroke-width="8" points="636.49,-87.13 646.96,-80.86 637.49,-73.16 636.49,-87.13"/>
</a>
</g>
</g>
<!-- PAKNYWRTTOTLCN&#45;&gt;PAKLMEMPTOTLCN -->
<g id="edge6" class="edge">
<title>PAKNYWRTTOTLCN-&gt;PAKLMEMPTOTLCN</title>
<g id="a_edge6"><a xlink:href="bogus" xlink:title=" PAKNYWRTTOTLCN -&gt; PAKLMEMPTOTLCN Min. att. -1554%  max: 237%">
<path fill="none" stroke="black" stroke-width="8" d="M557.08,-62.74C680.57,-55.95 910.08,-45 1106,-45 1106,-45 1106,-45 1484.5,-45 1692.88,-45 1934.37,-81.55 2068.99,-105.24"/>
<polygon fill="black" stroke="black" stroke-width="8" points="2067.82,-112.15 2078.89,-107 2070.26,-98.36 2067.82,-112.15"/>
</a>
</g>
</g>
<!-- PAKNYGDPPOTLKN -->
<g id="node26" class="node">
<title>PAKNYGDPPOTLKN</title>
<g id="a_node26"><a xlink:title="Potential GDP
FRML  &lt;&gt; PAKNYGDPPOTLKN = PAKNYGDPTFP*(PAKLMEMPSTRLCN**PAKNYYWBTOTLCN_)*(PAKNEGDIKSTKKN(-1)**(1-PAKNYYWBTOTLCN_)) $">
<polygon fill="#63b8ff" stroke="black" points="1594,-147 1373,-147 1373,-111 1594,-111 1594,-147"/>
<text text-anchor="start" x="1379.5" y="-124.8" font-family="Times New Roman,serif" font-size="14.00" fill="blue">PAKNYGDPPOTLKN:Potential GDP</text>
</a>
</g>
</g>
<!-- PAKNYGDPPOTLKN&#45;&gt;PAKLMEMPTOTLCN -->
<g id="edge21" class="edge">
<title>PAKNYGDPPOTLKN-&gt;PAKLMEMPTOTLCN</title>
<g id="a_edge21"><a xlink:href="bogus" xlink:title=" PAKNYGDPPOTLKN -&gt; PAKLMEMPTOTLCN Min. att. -92%  max: 605%">
<path fill="none" stroke="black" stroke-width="8" d="M1594.05,-128.36C1720.02,-127.63 1926.04,-126.44 2055.47,-125.69"/>
<polygon fill="black" stroke="black" stroke-width="8" points="2055.86,-132.68 2065.81,-125.63 2055.77,-118.68 2055.86,-132.68"/>
</a>
</g>
</g>
<!-- PAKNYGDPPOTLKN&#45;&gt;PAKNYGDPGAP_ -->
<g id="edge33" class="edge">
<title>PAKNYGDPPOTLKN-&gt;PAKNYGDPGAP_</title>
<g id="a_edge33"><a xlink:href="bogus" xlink:title=" PAKNYGDPPOTLKN -&gt; PAKNYGDPGAP_ Min. att. -129201%  max: 79431%">
<path fill="none" stroke="black" stroke-width="8" d="M1594.06,-124.62C1625.85,-128.15 1658.97,-137 1685,-156 1718.03,-180.11 1827.58,-441.05 1863.2,-527.42"/>
<polygon fill="black" stroke="black" stroke-width="8" points="1856.8,-530.25 1867.08,-536.83 1869.74,-524.92 1856.8,-530.25"/>
</a>
</g>
</g>
<!-- PAKNECONENGYGN -->
<g id="node29" class="node">
<title>PAKNECONENGYGN</title>
<g id="a_node29"><a xlink:title="Net consumption deflator
FRML  &lt;&gt; PAKNECONENGYGN = (PAKNVCOLPRODSH**(PAKCESENGYPROD)*(PAKNVCOLPRODGN)**(1-PAKCESENGYPROD)+PAKNVGASPRODSH**(PAKCESENGYPROD)*(PAKNVGASPRODGN)**(1-PAKCESENGYPROD)+PAKNVOILPRODSH**(PAKCESENGYPROD)*(PAKNVOILPRODGN)**(1-PAKCESENGYPROD)+PAKNVRENPRODSH**(PAKCESENGYPROD)*(PAKNVRENPRODXN)**(1-PAKCESENGYPROD))**(1/(1-PAKCESENGYPROD)) $">
<polygon fill="#63b8ff" stroke="black" points="286,-783 0,-783 0,-747 286,-747 286,-783"/>
<text text-anchor="start" x="6" y="-760.8" font-family="Times New Roman,serif" font-size="14.00" fill="blue">PAKNECONENGYGN:Net consumption deflator</text>
</a>
</g>
</g>
<!-- PAKNECONENGYGN&#45;&gt;PAKNECONENGYXN -->
<g id="edge1" class="edge">
<title>PAKNECONENGYGN-&gt;PAKNECONENGYXN</title>
<g id="a_edge1"><a xlink:href="bogus" xlink:title=" PAKNECONENGYGN -&gt; PAKNECONENGYXN Min. att. -39%  max: 100%">
<path fill="none" stroke="black" stroke-width="8" d="M286.42,-765C299.27,-765 312.29,-765 325.13,-765"/>
<polygon fill="black" stroke="black" stroke-width="8" points="325.38,-772 335.38,-765 325.38,-758 325.38,-772"/>
</a>
</g>
</g>
</g>
</svg>